<?xml version="1.0" standalone="no"?>
<!DOCTYPE svg PUBLIC "-//W3C//DTD SVG 20010904//EN"
 "http://www.w3.org/TR/2001/REC-SVG-20010904/DTD/svg10.dtd">
<svg version="1.0" xmlns="http://www.w3.org/2000/svg"
 width="1280.000000pt" height="1214.000000pt" viewBox="0 0 1280.000000 1214.000000"
 preserveAspectRatio="xMidYMid meet">
<metadata>
Created by potrace 1.15, written by Peter Selinger 2001-2017
</metadata>
<g transform="translate(0.000000,1214.000000) scale(0.100000,-0.100000)"
fill="#000000" stroke="none">
<path d="M11500 11960 c-12 -8 -9 -10 13 -10 53 0 181 -32 244 -60 114 -52
208 -162 233 -275 54 -240 -61 -555 -328 -897 -42 -54 -80 -98 -84 -98 -5 0
-8 26 -8 58 0 92 -38 561 -61 738 -19 160 -55 318 -84 373 -18 35 -71 81 -93
81 -43 -1 -111 -46 -192 -128 -47 -48 -190 -217 -319 -375 -128 -158 -298
-362 -377 -452 -141 -161 -460 -495 -473 -495 -4 0 -13 16 -20 35 -18 51 -58
95 -87 95 -48 0 -79 -42 -410 -562 -42 -65 -123 -148 -146 -148 -4 0 16 48 44
108 72 154 126 324 146 456 14 99 14 129 3 252 -41 437 -146 764 -244 764 -35
0 -74 -44 -119 -135 -76 -150 -411 -790 -496 -945 -221 -406 -391 -667 -615
-945 -238 -296 -336 -400 -587 -622 -504 -447 -936 -863 -1105 -1067 -297
-356 -478 -694 -689 -1286 -92 -258 -128 -350 -135 -350 -3 0 -49 66 -101 148
-309 480 -500 643 -835 713 -133 29 -379 5 -550 -53 -182 -61 -363 -175 -511
-322 -82 -82 -108 -115 -138 -178 -31 -64 -51 -89 -119 -151 -139 -124 -237
-199 -252 -193 -33 12 -204 132 -264 185 -120 104 -228 260 -269 386 -29 90
-34 125 -18 125 8 0 16 -6 19 -14 3 -8 35 -29 72 -47 59 -29 75 -32 153 -32
127 0 305 56 418 133 120 82 300 281 402 446 53 85 112 197 112 213 0 5 -62
-19 -137 -54 -285 -129 -369 -153 -638 -184 -108 -12 -191 -27 -227 -41 -58
-21 -178 -103 -178 -121 0 -5 -4 -9 -9 -9 -4 0 -14 28 -21 62 -35 179 -189
355 -408 467 -23 12 -42 25 -42 29 0 4 20 13 45 20 134 36 245 165 295 344 26
94 43 257 35 331 l-7 58 -36 -43 c-131 -156 -215 -226 -367 -307 -96 -51 -129
-80 -161 -143 -26 -51 -31 -97 -13 -130 6 -11 8 -22 5 -25 -5 -6 -169 81 -266
141 -133 83 -246 176 -184 152 18 -7 80 17 108 42 10 9 29 40 42 67 39 83 30
211 -23 341 -17 41 -33 58 -33 33 0 -6 -17 -48 -38 -93 -26 -56 -59 -103 -101
-148 -45 -48 -64 -77 -68 -103 -3 -20 -11 -34 -17 -32 -25 8 -117 160 -141
234 -23 71 -24 74 -19 30 13 -109 66 -219 164 -335 l60 -72 -36 0 c-20 0 -82
-16 -138 -35 -78 -26 -126 -36 -204 -41 -56 -4 -102 -10 -102 -14 0 -12 164
-88 240 -111 86 -26 193 -30 255 -10 51 17 95 58 95 88 0 30 4 29 59 -10 65
-47 246 -154 381 -226 63 -34 119 -66 124 -71 5 -5 -7 -11 -30 -15 -84 -15
-113 -27 -204 -86 -52 -33 -115 -71 -140 -84 -49 -25 -202 -75 -290 -95 -92
-21 -91 -25 11 -58 139 -45 248 -63 404 -69 108 -4 156 -1 208 11 90 21 175
66 220 115 31 35 37 48 37 86 0 25 3 45 8 44 15 -1 108 -122 138 -180 42 -82
53 -143 59 -338 3 -90 8 -174 11 -188 l7 -25 -49 25 c-141 71 -245 75 -488 15
l-171 -42 -205 -1 c-113 0 -257 4 -320 8 l-115 9 53 -44 c216 -176 490 -324
717 -389 142 -40 355 -35 481 12 71 26 151 100 160 148 4 17 10 31 14 31 3 0
28 -35 55 -77 62 -98 214 -251 322 -323 46 -30 83 -57 83 -60 0 -3 -57 -45
-126 -95 -143 -103 -167 -123 -159 -136 15 -23 164 -2 385 55 l95 24 38 -36
c50 -48 128 -154 160 -218 45 -89 60 -167 54 -284 -6 -132 -30 -208 -103 -329
-63 -105 -65 -130 -12 -152 19 -8 65 -14 110 -13 61 1 87 6 130 27 29 14 59
36 67 49 19 31 27 260 12 370 -27 203 -106 399 -219 540 -34 43 -62 81 -62 86
0 4 43 19 95 33 l95 26 42 -24 c157 -89 319 -218 404 -321 105 -128 138 -222
169 -482 32 -269 101 -509 189 -657 129 -217 328 -423 597 -621 141 -102 433
-266 725 -405 345 -164 805 -279 1314 -327 221 -22 446 -84 653 -183 397 -189
667 -473 989 -1042 173 -305 306 -671 459 -1258 38 -148 76 -279 84 -291 37
-56 150 -83 212 -51 15 8 62 24 103 36 83 24 206 78 260 113 19 13 68 43 109
67 41 24 95 56 120 72 101 61 112 61 91 -4 -30 -88 -120 -171 -218 -200 -65
-19 -35 -31 48 -19 192 27 306 145 329 339 4 33 9 62 12 64 2 2 38 30 79 63
41 32 135 112 208 177 85 76 138 117 147 113 23 -8 19 -110 -6 -185 -21 -62
-68 -121 -129 -164 l-25 -18 34 6 c55 8 135 49 173 88 77 77 106 199 74 310
-9 30 -16 63 -16 73 0 10 51 70 113 133 62 64 138 145 168 181 49 57 58 63 72
51 22 -17 37 -74 37 -136 0 -64 -35 -140 -84 -183 -45 -39 -41 -40 31 -5 93
46 163 142 163 226 0 24 -20 91 -55 186 l-16 43 63 82 c34 44 66 83 70 84 4 2
8 10 8 18 0 8 4 14 8 14 4 0 15 15 23 33 9 17 34 68 56 112 74 147 79 216 20
272 -39 38 -54 42 -333 93 -593 109 -903 223 -1289 474 -64 42 -120 76 -126
76 -5 0 -9 5 -9 10 0 6 -5 10 -10 10 -31 0 -413 279 -526 384 -40 36 -77 66
-82 66 -14 0 -228 228 -442 470 -95 107 -247 274 -336 372 -124 133 -164 183
-164 202 0 25 3 26 51 26 110 0 386 75 502 136 26 14 47 23 47 20 0 -2 52 24
116 60 l116 65 186 9 c188 9 228 14 357 45 222 54 372 193 351 326 -5 32 -44
133 -46 119 -1 -3 -2 -27 -3 -55 -5 -105 -80 -197 -214 -261 -87 -42 -236 -81
-344 -90 -79 -7 -79 -7 -79 17 0 18 14 33 52 59 124 84 287 225 476 413 111
110 202 204 202 209 0 13 68 37 138 49 285 48 507 169 562 307 18 47 7 131
-25 186 -15 25 -28 46 -30 46 -1 0 0 -20 2 -44 3 -25 -2 -67 -12 -101 -32
-111 -174 -220 -359 -276 -128 -39 -127 -19 10 153 209 262 226 285 395 538
l64 95 105 37 c403 144 588 346 491 536 -22 42 -90 111 -76 77 4 -11 10 -48
13 -82 8 -115 -50 -214 -181 -307 -68 -48 -198 -116 -222 -116 -17 0 -21 49
-6 65 37 39 267 509 358 734 30 74 61 140 69 148 7 8 67 44 131 80 210 117
366 245 449 370 104 157 82 309 -62 424 -36 28 -67 50 -69 47 -3 -2 7 -20 20
-40 46 -67 58 -112 53 -196 -5 -88 -32 -149 -104 -243 -83 -109 -284 -269
-336 -269 -16 0 -16 33 0 71 64 158 186 647 237 949 15 85 29 162 32 170 3 8
5 25 4 38 -2 17 14 38 60 80 363 332 507 531 541 749 28 180 -80 324 -291 387
-71 21 -85 20 -40 -4 50 -26 116 -96 147 -155 25 -46 27 -60 27 -165 0 -111
-1 -118 -39 -205 -48 -112 -122 -225 -220 -337 -73 -84 -111 -118 -130 -118
-10 0 -6 67 19 395 8 110 18 355 22 545 l6 345 105 110 c241 252 399 498 467
730 33 111 37 278 9 361 -43 128 -144 212 -314 260 -74 21 -315 31 -340 14z"/>
</g>
</svg>
