<?xml version="1.0" standalone="no"?>
<!DOCTYPE svg PUBLIC "-//W3C//DTD SVG 20010904//EN"
 "http://www.w3.org/TR/2001/REC-SVG-20010904/DTD/svg10.dtd">
<svg version="1.0" xmlns="http://www.w3.org/2000/svg"
 width="1160.000000pt" height="1280.000000pt" viewBox="0 0 1160.000000 1280.000000"
 preserveAspectRatio="xMidYMid meet">
<metadata>
Created by potrace 1.15, written by Peter Selinger 2001-2017
</metadata>
<g transform="translate(0.000000,1280.000000) scale(0.100000,-0.100000)"
fill="#000000" stroke="none">
<path d="M5575 12794 c-697 -55 -1338 -307 -1866 -735 -146 -118 -380 -353
-493 -494 -503 -629 -757 -1386 -733 -2185 23 -735 271 -1407 733 -1985 113
-141 358 -386 499 -499 571 -457 1255 -709 1985 -733 1235 -40 2393 617 3000
1701 293 524 434 1103 417 1711 -14 473 -113 891 -315 1325 -94 204 -260 467
-418 665 -113 141 -358 386 -499 499 -488 390 -1046 627 -1675 711 -110 15
-529 27 -635 19z"/>
<path d="M10437 9358 c-65 -60 -190 -220 -231 -298 -46 -87 -75 -195 -82 -310
-8 -117 5 -200 57 -368 46 -147 76 -286 84 -397 l7 -80 -38 65 c-20 36 -76
133 -124 215 -122 209 -173 314 -210 434 -21 67 -42 114 -60 135 -28 30 -31
31 -112 31 -73 0 -89 -4 -135 -29 -64 -35 -95 -68 -172 -182 -100 -150 -140
-290 -127 -454 10 -134 32 -202 126 -400 121 -254 139 -316 150 -513 10 -173
37 -399 79 -659 l27 -168 -22 -72 c-34 -106 -92 -159 -374 -339 -262 -166
-426 -309 -505 -437 -21 -34 -39 -61 -40 -60 -2 2 3 37 11 78 39 222 37 439
-7 556 -26 69 -118 168 -166 178 -18 4 -63 28 -100 52 -93 61 -153 77 -273 72
-85 -3 -105 -8 -166 -37 -95 -47 -185 -139 -259 -266 -134 -227 -202 -423
-334 -958 -110 -444 -155 -578 -227 -674 -14 -18 -92 -81 -175 -140 -287 -204
-432 -380 -523 -631 -47 -131 -67 -260 -76 -487 -8 -201 -9 -215 -44 -330
-133 -439 -233 -1052 -275 -1690 -9 -131 -13 -96 114 -841 25 -143 45 -265 45
-270 1 -35 17 -35 126 -4 143 42 550 178 739 247 477 176 1327 590 1362 663 6
14 26 130 42 258 79 594 182 964 358 1292 114 210 171 280 616 748 379 399
492 511 697 693 91 80 193 178 227 219 122 146 190 302 257 595 105 451 143
576 232 760 55 114 100 168 244 296 234 208 335 317 393 423 l27 49 -20 521
c-11 287 -27 683 -35 881 l-14 360 -86 395 c-47 217 -85 398 -85 403 0 4 -11
7 -25 7 -14 0 -37 7 -51 17 -14 9 -59 24 -101 34 -61 15 -85 16 -125 8 -45
-10 -51 -9 -82 15 -52 39 -80 107 -81 191 0 39 2 88 5 110 l5 39 -200 48
c-110 26 -205 47 -210 48 -6 0 -32 -19 -58 -42z"/>
<path d="M763 9020 c-100 -14 -126 -34 -147 -115 -3 -11 -10 -85 -16 -165 -11
-149 -28 -280 -37 -280 -3 0 -25 18 -51 40 -25 22 -74 55 -110 72 -88 44 -136
43 -235 -5 l-77 -36 0 -69 c0 -110 -18 -313 -45 -497 -39 -275 -48 -425 -41
-700 3 -137 13 -342 21 -455 59 -796 75 -933 120 -1019 40 -78 154 -186 387
-368 210 -164 262 -222 343 -385 82 -168 133 -303 230 -615 43 -136 92 -281
110 -320 83 -181 219 -329 477 -521 195 -145 276 -213 533 -452 99 -92 254
-233 345 -312 335 -295 493 -486 634 -766 135 -268 253 -650 346 -1122 23
-113 44 -208 48 -212 12 -11 357 -161 542 -236 349 -140 668 -248 1015 -341
197 -54 573 -141 606 -141 15 0 38 9 52 20 56 45 125 274 148 496 17 169 6
587 -20 784 -59 433 -208 1021 -376 1480 -56 153 -65 197 -86 395 -48 476
-234 756 -683 1025 -59 36 -126 81 -148 99 -92 79 -155 220 -313 696 -130 392
-177 517 -255 670 -142 280 -239 400 -385 471 -76 37 -83 39 -175 38 -112 -1
-207 -28 -267 -76 -21 -16 -67 -47 -103 -68 -118 -69 -160 -134 -181 -275 -18
-119 12 -371 67 -559 3 -12 -11 4 -32 34 -52 77 -182 201 -278 265 -45 29
-137 84 -206 121 -212 114 -355 201 -403 246 -32 30 -52 62 -71 110 l-25 66
14 164 c22 253 35 538 33 708 -2 185 7 225 107 478 82 207 95 259 95 398 0
195 -46 319 -183 489 -61 76 -83 95 -140 124 -57 29 -79 35 -135 35 -104 1
-151 -40 -172 -154 -22 -114 -71 -243 -196 -508 -118 -249 -129 -270 -132
-235 -6 68 18 286 44 398 61 264 65 352 24 524 -33 135 -87 227 -220 370 -165
178 -237 213 -397 191z m2294 -3902 c-3 -8 -6 -5 -6 6 -1 11 2 17 5 13 3 -3 4
-12 1 -19z m147 -408 c49 -124 52 -134 23 -80 -26 47 -141 364 -152 415 -3 17
16 -31 43 -105 27 -74 66 -178 86 -230z"/>
</g>
</svg>
