<?xml version="1.0" standalone="no"?>
<!DOCTYPE svg PUBLIC "-//W3C//DTD SVG 20010904//EN"
 "http://www.w3.org/TR/2001/REC-SVG-20010904/DTD/svg10.dtd">
<svg version="1.0" xmlns="http://www.w3.org/2000/svg"
 width="1155.000000pt" height="1280.000000pt" viewBox="0 0 1155.000000 1280.000000"
 preserveAspectRatio="xMidYMid meet">
<metadata>
Created by potrace 1.15, written by Peter Selinger 2001-2017
</metadata>
<g transform="translate(0.000000,1280.000000) scale(0.100000,-0.100000)"
fill="#000000" stroke="none">
<path d="M5033 12425 c-194 -35 -359 -121 -506 -264 -183 -177 -282 -396 -294
-651 -19 -392 191 -749 542 -920 142 -70 224 -90 382 -97 199 -9 333 19 498
103 270 137 467 408 516 708 17 108 7 319 -21 416 -86 304 -315 553 -609 660
-156 57 -348 74 -508 45z"/>
<path d="M2880 10810 c-30 -30 -25 -57 34 -176 59 -122 151 -262 264 -404 107
-136 404 -428 562 -554 965 -771 2173 -1059 3375 -805 320 67 695 191 1000
329 122 55 125 64 70 228 -117 348 -429 788 -793 1118 -88 80 -122 104 -143
104 -19 0 -66 -28 -151 -90 -423 -308 -883 -496 -1388 -566 -156 -22 -481 -29
-651 -15 -690 58 -1401 335 -2036 792 -87 64 -112 70 -143 39z"/>
<path d="M2480 8503 c-307 -24 -670 -109 -980 -230 -233 -91 -645 -316 -672
-366 -25 -48 30 -184 155 -384 260 -415 587 -755 871 -903 l83 -44 59 32 c286
155 515 259 719 327 673 223 1236 121 1583 -288 140 -164 244 -374 287 -577
16 -74 21 -226 8 -233 -5 -2 -136 8 -293 23 -639 62 -1102 85 -1500 77 -539
-12 -889 -68 -1135 -181 -117 -54 -122 -67 -79 -194 115 -346 437 -762 775
-1007 125 -91 115 -88 259 -54 1409 331 2449 129 2801 -544 84 -161 119 -310
119 -508 0 -712 -601 -1375 -1399 -1543 -182 -39 -328 -50 -571 -43 -1096 31
-1890 421 -2448 1203 -106 148 -225 351 -367 624 -137 262 -211 391 -245 428
-25 27 -71 29 -93 4 -22 -24 -22 -85 -2 -262 128 -1111 810 -2215 1766 -2858
425 -285 915 -486 1409 -576 271 -50 403 -61 725 -60 338 0 469 14 721 79 688
176 1207 647 1489 1350 151 377 219 741 218 1180 0 365 -48 661 -150 919 -19
48 -31 91 -26 95 4 4 45 33 90 65 94 67 229 202 295 296 137 193 206 400 288
850 73 405 114 553 203 723 119 228 337 428 574 527 332 138 731 69 1068 -186
72 -54 229 -207 286 -279 255 -320 391 -772 350 -1160 -42 -392 -196 -751
-446 -1038 -320 -367 -850 -635 -1431 -722 -133 -20 -138 -25 -131 -140 19
-287 173 -580 452 -861 192 -194 426 -364 661 -481 l132 -66 73 18 c171 41
452 146 622 231 738 372 1256 1067 1427 1914 56 277 64 369 65 700 0 335 -11
454 -66 735 -183 931 -685 1750 -1385 2261 -441 322 -950 513 -1499 565 -307
28 -646 -53 -940 -225 -283 -167 -534 -423 -687 -702 -101 -183 -162 -356
-283 -799 -127 -469 -189 -627 -288 -732 -61 -65 -126 -91 -213 -85 -20 2 -21
9 -27 151 -51 1172 -629 2135 -1572 2618 -465 238 -924 345 -1455 341 -113 -1
-225 -3 -250 -5z"/>
</g>
</svg>
