<?xml version="1.0" standalone="no"?>
<!DOCTYPE svg PUBLIC "-//W3C//DTD SVG 20010904//EN"
 "http://www.w3.org/TR/2001/REC-SVG-20010904/DTD/svg10.dtd">
<svg version="1.0" xmlns="http://www.w3.org/2000/svg"
 width="1280.000000pt" height="1277.000000pt" viewBox="0 0 1280.000000 1277.000000"
 preserveAspectRatio="xMidYMid meet">
<metadata>
Created by potrace 1.15, written by Peter Selinger 2001-2017
</metadata>
<g transform="translate(0.000000,1277.000000) scale(0.100000,-0.100000)"
fill="#000000" stroke="none">
<path d="M6361 12713 c-95 -190 -284 -1003 -326 -1405 l-7 -67 -43 47 c-53 58
-66 54 -113 -39 -65 -129 -110 -316 -114 -479 -3 -97 -3 -99 -23 -85 -53 38
-106 65 -115 60 -45 -28 -101 -533 -82 -737 5 -59 4 -84 -3 -80 -5 3 -37 25
-70 48 -80 56 -141 85 -159 78 -26 -10 -38 -80 -37 -234 0 -214 35 -423 95
-572 14 -34 24 -63 23 -64 -1 -2 -54 31 -116 72 -169 111 -183 110 -195 -17
-19 -193 35 -496 114 -638 17 -30 28 -56 26 -59 -3 -2 -36 13 -73 34 -119 66
-137 74 -165 74 -41 0 -51 -29 -45 -129 9 -157 88 -414 187 -613 32 -65 54
-118 48 -118 -6 0 -47 22 -92 49 -143 85 -145 86 -170 62 -19 -20 -21 -32 -20
-139 0 -100 5 -129 28 -202 47 -142 121 -269 218 -375 46 -50 48 -55 27 -55
-13 0 -51 7 -84 15 -92 22 -122 20 -142 -11 -16 -25 -16 -31 1 -113 22 -108
88 -271 172 -425 36 -65 63 -120 61 -122 -1 -2 -29 13 -61 32 -78 46 -108 52
-135 25 -42 -42 -21 -192 53 -375 42 -105 98 -203 173 -303 l53 -73 -50 0
c-57 0 -117 -21 -126 -45 -12 -30 18 -109 126 -340 60 -128 112 -245 116 -260
11 -44 -17 -27 -47 29 -14 26 -35 57 -47 68 -18 19 -24 20 -50 9 -16 -7 -42
-26 -58 -42 -34 -35 -44 -36 -44 -6 0 40 -38 174 -74 264 -66 161 -173 303
-229 303 -34 0 -53 -27 -67 -95 -14 -68 -10 -74 -66 80 -76 209 -185 385 -239
385 -26 0 -54 -33 -95 -107 -29 -52 -40 -54 -40 -9 0 83 -47 245 -100 344 -81
152 -226 267 -258 205 -5 -10 -15 -47 -21 -83 -7 -36 -17 -80 -23 -99 l-11
-34 -28 79 c-62 170 -199 401 -298 502 -82 83 -108 69 -142 -76 -11 -51 -24
-92 -28 -92 -3 0 -15 24 -25 53 -38 111 -165 279 -293 390 -133 114 -137 112
-173 -121 l-12 -74 -27 54 c-15 29 -39 71 -53 93 -82 129 -286 340 -373 386
-44 23 -47 23 -60 6 -14 -20 -35 -123 -35 -175 0 -18 -3 -32 -7 -32 -5 0 -33
25 -63 56 -133 137 -437 354 -494 354 -10 0 -19 -19 -27 -59 l-12 -58 -79 62
c-129 102 -327 195 -414 195 l-36 0 7 -50 c4 -27 4 -50 1 -50 -3 0 -76 47
-163 104 -362 238 -821 483 -964 515 -56 13 -59 -3 -16 -93 86 -181 448 -695
665 -943 51 -59 53 -63 29 -63 -13 0 -39 -3 -56 -6 -30 -6 -32 -9 -26 -38 10
-47 68 -167 116 -237 23 -34 75 -97 116 -139 40 -43 73 -80 73 -84 0 -3 -7 -6
-16 -6 -40 0 -94 -24 -94 -41 0 -54 297 -379 444 -485 l29 -21 -69 -17 c-91
-22 -144 -46 -144 -64 0 -84 363 -360 554 -422 47 -15 39 -21 -64 -45 -98 -23
-147 -43 -154 -62 -9 -22 108 -139 213 -214 101 -72 221 -133 297 -150 29 -7
51 -15 49 -20 -3 -4 -42 -20 -88 -34 -141 -47 -151 -82 -43 -159 130 -93 337
-187 509 -231 105 -26 107 -23 -43 -71 -97 -31 -104 -36 -96 -68 10 -39 60
-90 133 -136 119 -76 259 -117 416 -122 48 -2 87 -5 87 -8 0 -3 -17 -16 -37
-30 -109 -73 -126 -109 -72 -155 66 -55 240 -123 422 -165 53 -12 97 -24 97
-25 0 -2 -29 -13 -65 -25 -98 -33 -108 -68 -35 -134 85 -77 296 -155 479 -177
l98 -12 -34 -49 c-68 -102 -69 -101 327 -222 99 -31 117 -39 127 -62 7 -15 11
-29 9 -31 -2 -3 -30 9 -62 25 -88 44 -204 83 -252 85 -48 2 -66 -14 -57 -52 3
-13 9 -37 12 -54 l6 -31 -44 36 c-101 83 -275 140 -359 118 -21 -6 -42 -15
-45 -21 -4 -5 9 -37 29 -70 20 -33 36 -62 36 -64 0 -2 -33 11 -72 30 -97 45
-236 85 -324 92 -65 5 -73 4 -83 -15 -9 -16 -5 -30 19 -76 17 -30 30 -57 30
-60 0 -2 -26 7 -57 20 -130 52 -393 62 -393 14 0 -4 20 -38 45 -75 29 -44 38
-65 27 -60 -121 47 -389 67 -454 33 -26 -13 -22 -29 16 -87 l35 -51 -87 0
c-96 0 -286 -23 -338 -40 -38 -13 -41 -20 -18 -56 9 -13 15 -26 13 -27 -2 -2
-44 -9 -92 -16 -128 -17 -267 -73 -267 -107 0 -7 10 -20 22 -28 26 -19 21 -21
-82 -36 -183 -26 -552 -118 -680 -169 -82 -33 -87 -51 -23 -79 105 -45 413
-113 668 -148 72 -10 132 -19 134 -21 2 -2 -3 -11 -12 -21 -10 -10 -17 -23
-17 -29 0 -31 205 -93 307 -93 34 0 63 -2 63 -4 0 -3 -9 -21 -21 -40 l-21 -36
28 -10 c48 -18 175 -32 310 -33 l132 -2 -27 -40 c-64 -94 -54 -105 91 -105
113 0 227 18 311 50 l48 19 -14 -22 c-44 -70 -68 -119 -64 -132 19 -48 272
-19 431 50 16 7 14 -1 -13 -48 -36 -63 -35 -92 4 -99 62 -12 250 39 378 104
l79 39 -38 -66 c-33 -61 -35 -68 -21 -82 23 -23 121 -20 201 7 59 19 135 64
210 121 26 21 28 21 23 3 -16 -56 -18 -86 -7 -99 28 -34 131 -8 286 74 93 49
94 49 79 21 -20 -38 -19 -76 1 -84 66 -25 249 38 366 127 l46 35 6 -38 c7 -45
28 -61 67 -50 18 5 34 4 45 -5 15 -11 9 -14 -51 -24 -82 -15 -153 -49 -190
-93 l-27 -32 22 -18 c12 -10 31 -18 41 -18 32 0 21 -17 -16 -24 -46 -9 -206
-90 -230 -116 -24 -26 -12 -49 33 -64 l32 -11 -73 -37 c-78 -41 -167 -116
-167 -142 0 -11 15 -20 45 -28 41 -11 61 -28 34 -28 -42 0 -246 -164 -237
-191 2 -7 22 -19 45 -26 l40 -14 -69 -67 c-115 -111 -159 -182 -112 -182 20 0
18 -5 -27 -62 -72 -92 -103 -178 -63 -178 14 0 15 -2 3 -18 -8 -11 -57 -76
-109 -145 -108 -144 -196 -279 -205 -319 -6 -24 -4 -28 13 -28 30 0 259 117
397 203 104 65 120 73 123 56 6 -36 84 -14 185 52 31 21 57 32 57 26 1 -33 17
-39 51 -21 41 21 129 85 180 131 l37 33 11 -45 c6 -25 17 -45 25 -45 33 0 157
123 203 201 l18 30 10 -48 c7 -33 16 -49 28 -51 24 -5 146 119 174 177 l22 44
8 -33 c13 -50 36 -60 69 -30 34 31 96 126 125 191 23 49 39 56 39 16 0 -12 5
-29 10 -37 8 -13 13 -13 42 3 46 25 99 106 118 183 l17 65 17 -25 c9 -14 25
-26 36 -26 24 0 71 67 110 157 24 56 31 64 36 46 9 -31 34 -37 64 -15 31 23
98 150 106 203 5 32 10 39 23 33 55 -22 66 -11 122 128 30 76 41 89 54 68 3
-5 15 -10 25 -10 30 0 58 68 78 186 16 90 20 103 31 90 16 -20 35 -20 50 -2 6
7 36 109 66 226 30 117 58 216 61 219 4 3 4 -16 1 -44 -15 -120 -38 -393 -45
-540 -8 -157 -4 -275 18 -465 33 -304 41 -384 55 -569 9 -114 15 -280 13 -377
l-3 -173 64 -3 c47 -2 65 1 69 11 3 7 2 140 -1 295 -6 253 -12 347 -46 666 -6
52 -17 160 -26 239 -17 165 -19 356 -5 521 24 275 54 540 60 533 4 -4 26 -73
49 -153 61 -210 109 -353 127 -378 15 -22 54 -31 54 -12 0 6 4 10 9 10 5 0 12
-24 15 -52 15 -110 38 -191 63 -216 22 -22 26 -23 47 -9 23 15 23 15 61 -78
21 -52 46 -103 57 -115 17 -18 21 -19 47 -5 l29 14 6 -37 c8 -48 55 -148 90
-189 32 -38 59 -42 80 -11 10 14 16 17 16 8 0 -7 18 -51 40 -97 50 -103 80
-123 115 -79 l23 29 7 -42 c16 -93 109 -227 153 -219 10 2 20 21 27 48 l11 45
12 -36 c16 -45 95 -175 130 -211 37 -40 59 -36 73 12 l12 40 30 -52 c34 -60
138 -168 161 -168 19 0 25 11 34 62 l7 42 33 -51 c42 -66 168 -185 190 -181
11 2 21 19 27 45 l10 42 69 -58 c82 -70 171 -125 185 -116 6 3 11 15 11 27 0
19 2 19 35 -6 50 -39 160 -88 187 -84 15 2 22 9 20 21 -2 9 -1 17 2 17 3 0 43
-24 88 -54 158 -103 397 -226 438 -226 44 0 -84 213 -258 430 -55 69 -59 76
-40 83 16 6 19 13 13 35 -9 38 -51 107 -91 152 -38 41 -41 50 -20 50 25 0 29
19 10 48 -9 15 -55 66 -102 114 -72 74 -82 88 -66 94 48 15 64 25 64 38 0 23
-124 130 -192 166 l-62 33 47 14 c35 10 47 19 47 33 0 26 -93 105 -169 143
l-64 31 32 13 c42 18 49 39 21 68 -26 28 -149 90 -214 107 -44 12 -62 28 -31
28 23 0 65 22 65 35 0 17 -60 70 -106 93 -23 12 -72 26 -109 33 -53 9 -64 14
-50 21 9 6 30 8 45 5 34 -7 60 17 60 56 0 15 3 27 6 27 4 0 38 -21 76 -46 96
-64 207 -107 282 -108 74 -1 89 15 63 68 -9 20 -15 36 -13 36 1 0 47 -23 102
-50 112 -58 189 -83 236 -78 l33 3 -2 63 -1 62 41 -36 c98 -83 280 -145 361
-123 44 12 45 28 6 94 -16 28 -30 52 -30 55 0 3 34 -11 76 -31 141 -69 330
-117 382 -98 29 11 28 41 -4 96 -14 25 -24 46 -22 49 3 2 23 -5 46 -16 68 -33
170 -53 280 -54 139 -1 143 7 57 139 -20 29 -20 29 0 21 101 -40 364 -71 439
-52 26 6 36 41 18 62 -5 5 -18 25 -30 44 l-21 35 129 1 c144 2 290 19 316 38
15 12 15 15 0 44 -9 17 -16 33 -16 37 0 3 29 5 63 5 102 0 279 54 303 91 4 7
-2 20 -14 30 -12 9 -22 19 -22 22 0 2 33 8 73 11 96 10 426 70 546 101 161 41
241 72 241 95 0 34 -425 154 -725 205 -136 23 -132 21 -106 49 l22 24 -26 20
c-52 41 -222 91 -308 92 l-39 0 21 34 c17 26 18 36 8 44 -21 18 -179 43 -316
50 l-129 7 36 59 c33 54 35 59 19 71 -45 32 -285 24 -410 -15 -33 -11 -62 -18
-63 -17 -2 1 15 28 37 61 64 95 55 106 -89 106 -93 0 -215 -22 -280 -50 l-43
-19 30 53 c56 98 36 118 -99 98 -103 -15 -235 -60 -353 -120 -4 -2 9 24 30 58
42 71 38 90 -18 102 -90 19 -248 -36 -364 -126 -31 -25 -37 -27 -32 -11 5 10
11 38 14 62 5 38 3 43 -19 54 -35 15 -125 -9 -246 -66 -52 -25 -98 -45 -103
-45 -4 0 0 14 9 30 15 26 31 35 117 61 232 71 315 99 339 115 37 23 34 61 -9
118 l-36 46 45 0 c65 0 229 34 316 65 255 93 344 204 198 250 -29 9 -60 19
-68 22 -8 2 44 19 115 38 197 50 354 115 403 168 37 39 26 65 -51 122 l-68 50
98 8 c204 15 382 84 485 188 57 57 70 87 46 106 -7 6 -57 25 -111 43 -53 17
-95 36 -91 41 3 5 11 9 18 9 31 0 190 52 291 95 199 85 345 183 345 230 0 32
-29 50 -127 80 -46 14 -83 29 -83 33 0 5 26 13 58 20 68 14 190 75 281 139 95
68 193 156 213 190 17 29 17 31 0 46 -10 9 -63 28 -117 42 -55 14 -107 28
-115 31 -8 3 22 20 67 38 45 18 120 57 168 87 160 100 345 267 345 312 0 24
-36 43 -123 65 -43 11 -81 22 -83 25 -3 2 7 12 20 21 126 82 446 431 446 486
0 12 -15 20 -55 30 -30 7 -55 16 -55 19 0 3 25 30 56 60 30 29 78 83 105 120
59 77 139 233 142 276 2 29 1 30 -50 33 -29 2 -53 5 -53 8 0 3 28 37 63 77
141 163 392 499 525 707 74 114 162 281 162 307 0 77 -566 -209 -1049 -529
l-134 -89 7 51 c9 64 -2 69 -90 45 -121 -33 -292 -126 -379 -207 -25 -22 -47
-39 -49 -37 -1 2 -8 30 -15 62 -9 43 -17 57 -30 57 -45 0 -330 -204 -472 -337
-42 -40 -79 -73 -81 -73 -3 0 -8 33 -12 72 -8 89 -32 144 -61 140 -36 -6 -98
-55 -200 -157 -116 -115 -189 -209 -244 -314 l-39 -74 -12 89 c-22 168 -38
199 -87 173 -42 -22 -208 -185 -264 -258 -52 -69 -129 -215 -129 -245 0 -39
-19 -2 -30 61 -24 127 -52 169 -98 144 -87 -47 -278 -345 -347 -544 -15 -43
-30 -76 -32 -73 -3 2 -13 44 -24 93 -10 48 -21 98 -24 111 -4 15 -13 22 -31
22 -40 0 -76 -24 -138 -90 -94 -103 -173 -287 -192 -452 -4 -32 -10 -55 -14
-53 -4 3 -26 36 -49 75 -46 78 -67 87 -114 50 -56 -44 -166 -257 -222 -430 -9
-30 -21 -59 -25 -63 -4 -4 -12 18 -19 49 -11 59 -33 94 -58 94 -95 0 -264
-293 -305 -528 l-12 -71 -43 40 c-63 58 -94 55 -132 -13 -34 -62 -48 -78 -62
-78 -19 0 0 49 100 260 110 230 144 316 139 351 -4 33 -60 59 -126 59 l-52 0
53 73 c75 100 131 198 173 303 74 183 95 333 53 375 -27 27 -63 21 -138 -25
-31 -19 -57 -33 -59 -31 -2 2 23 52 56 112 134 243 211 474 181 544 -10 25
-17 29 -53 29 -22 -1 -68 -7 -101 -15 -99 -24 -105 -21 -58 28 96 101 175 232
224 377 30 86 33 107 34 212 0 108 -2 119 -22 139 l-22 22 -115 -66 c-105 -61
-136 -75 -136 -62 0 2 13 26 28 52 138 237 261 692 212 784 -17 31 -59 23
-151 -30 -86 -49 -134 -70 -128 -55 2 5 18 36 35 69 58 110 93 259 109 463 8
99 -2 224 -20 248 -18 26 -49 13 -176 -70 -62 -41 -115 -74 -116 -72 -1 1 11
37 28 81 59 152 90 344 90 565 0 148 -11 214 -37 224 -20 8 -93 -30 -172 -88
-34 -25 -63 -46 -65 -46 -2 0 1 39 5 88 19 204 -37 709 -82 737 -9 6 -61 -22
-119 -63 -24 -17 -24 -17 -17 11 8 34 -9 216 -29 301 -33 141 -110 321 -144
334 -9 3 -30 -12 -57 -41 l-42 -46 -12 97 c-27 223 -115 670 -186 957 -63 251
-145 475 -174 475 -5 0 -23 -26 -39 -57z"/>
</g>
</svg>
