<?xml version="1.0" standalone="no"?>
<!DOCTYPE svg PUBLIC "-//W3C//DTD SVG 20010904//EN"
 "http://www.w3.org/TR/2001/REC-SVG-20010904/DTD/svg10.dtd">
<svg version="1.0" xmlns="http://www.w3.org/2000/svg"
 width="946.000000pt" height="1280.000000pt" viewBox="0 0 946.000000 1280.000000"
 preserveAspectRatio="xMidYMid meet">
<metadata>
Created by potrace 1.15, written by Peter Selinger 2001-2017
</metadata>
<g transform="translate(0.000000,1280.000000) scale(0.100000,-0.100000)"
fill="#000000" stroke="none">
<path d="M4445 12789 c-643 -46 -1269 -212 -1820 -484 -571 -282 -1045 -673
-1402 -1155 -647 -875 -1075 -2244 -1193 -3820 -30 -395 -38 -851 -20 -1089
61 -800 337 -1603 871 -2536 364 -637 949 -1503 1374 -2035 355 -444 757 -848
1100 -1106 614 -462 1249 -646 1825 -528 121 25 329 98 464 162 229 110 445
252 700 460 162 132 560 528 724 719 334 391 664 839 986 1341 855 1331 1256
2345 1383 3497 15 135 18 248 17 725 -1 685 -20 1100 -74 1569 -116 1008 -378
1762 -832 2394 -386 537 -818 950 -1295 1236 -761 456 -1881 715 -2808 650z
m-3570 -6694 c526 -105 1086 -307 1509 -547 529 -299 972 -712 1289 -1199 240
-370 386 -718 521 -1237 30 -114 58 -215 62 -225 6 -18 1 -18 -97 -12 -614 38
-1125 169 -1609 413 -998 503 -1614 1395 -1824 2640 -33 194 -33 204 -3 197
12 -2 81 -16 152 -30z m7939 -12 c-17 -70 -147 -453 -198 -581 -508 -1277
-1375 -2113 -2542 -2447 -185 -54 -383 -95 -609 -129 -93 -14 -185 -28 -204
-32 -29 -6 -33 -5 -28 12 3 10 8 46 12 79 17 166 87 469 157 685 388 1198
1241 2014 2413 2309 297 74 665 126 918 130 l87 1 -6 -27z"/>
</g>
</svg>
