<?xml version="1.0" standalone="no"?>
<!DOCTYPE svg PUBLIC "-//W3C//DTD SVG 20010904//EN"
 "http://www.w3.org/TR/2001/REC-SVG-20010904/DTD/svg10.dtd">
<svg version="1.0" xmlns="http://www.w3.org/2000/svg"
 width="1280.000000pt" height="1276.000000pt" viewBox="0 0 1280.000000 1276.000000"
 preserveAspectRatio="xMidYMid meet">
<metadata>
Created by potrace 1.15, written by Peter Selinger 2001-2017
</metadata>
<g transform="translate(0.000000,1276.000000) scale(0.100000,-0.100000)"
fill="#000000" stroke="none">
<path d="M6755 12688 c-229 -175 -394 -363 -547 -620 -289 -488 -450 -1108
-501 -1927 l-12 -194 -151 -37 c-83 -20 -208 -56 -278 -80 -70 -23 -128 -40
-130 -39 -1 2 -24 36 -51 74 -141 203 -280 367 -563 665 -209 221 -300 325
-394 455 -178 244 -346 578 -487 969 -28 76 -53 141 -56 144 -7 7 -57 -107
-98 -224 -41 -116 -80 -286 -98 -424 -18 -136 -15 -467 5 -625 63 -489 243
-1025 530 -1581 l74 -143 -81 -78 c-88 -84 -220 -222 -278 -291 l-36 -42 -97
45 c-215 101 -421 174 -797 285 -280 82 -401 124 -553 189 -283 122 -605 331
-935 610 l-124 104 7 -74 c40 -409 224 -824 542 -1224 113 -141 403 -432 564
-565 210 -174 474 -364 686 -494 l61 -37 -29 -92 c-35 -112 -83 -307 -99 -402
-6 -38 -12 -71 -14 -73 -1 -1 -78 -11 -171 -22 -239 -27 -404 -59 -764 -150
-540 -134 -611 -145 -985 -145 -307 0 -478 16 -859 82 l-40 6 65 -83 c485
-630 1368 -976 2592 -1019 l189 -6 39 -155 c21 -85 57 -211 81 -279 39 -117
41 -124 23 -133 -10 -6 -79 -57 -154 -113 -165 -124 -325 -264 -576 -505 -228
-219 -367 -335 -535 -446 -240 -158 -567 -315 -930 -444 -36 -13 -69 -26 -73
-30 -4 -4 36 -25 90 -48 489 -201 1028 -213 1684 -36 315 85 646 216 1020 405
97 49 179 89 181 89 3 0 68 -62 144 -138 76 -76 165 -161 197 -188 l58 -49
-54 -115 c-77 -162 -156 -375 -222 -590 -108 -356 -167 -536 -212 -645 -129
-316 -329 -630 -635 -995 l-105 -125 34 -3 c96 -9 396 60 582 134 339 134 639
343 972 674 272 271 465 510 697 861 l103 156 77 -24 c101 -31 285 -77 393
-98 l87 -17 6 -77 c23 -255 59 -462 151 -859 77 -333 100 -471 116 -682 19
-270 -11 -640 -85 -1022 -13 -65 -19 -118 -15 -118 13 0 170 120 238 183 484
448 775 1136 881 2087 10 96 22 222 25 280 3 58 8 133 11 167 l5 61 132 32
c73 18 194 52 271 77 76 25 142 41 146 36 4 -4 37 -52 74 -106 127 -185 250
-330 536 -637 172 -184 246 -271 336 -392 189 -254 343 -558 494 -975 33 -92
63 -175 66 -183 7 -19 33 30 84 159 95 240 140 495 140 796 0 555 -165 1157
-507 1854 l-86 174 109 106 c60 59 149 150 198 203 l88 97 77 -39 c200 -100
404 -177 805 -301 160 -50 343 -111 406 -136 332 -131 664 -339 1013 -637 179
-152 177 -151 177 -133 0 55 -37 280 -61 374 -80 314 -255 646 -505 958 -48
61 -171 193 -273 295 -252 251 -487 441 -828 671 l-162 109 25 72 c29 85 99
362 109 431 l7 47 42 0 c64 0 379 38 506 61 63 11 232 47 375 79 480 109 620
126 960 117 245 -6 420 -25 705 -78 91 -16 173 -32 184 -35 27 -9 -64 120
-172 242 -382 430 -995 723 -1795 859 -177 30 -453 61 -656 74 -84 6 -155 12
-158 14 -2 3 -15 52 -28 110 -26 114 -88 330 -110 383 l-14 33 112 77 c197
135 364 272 613 501 374 345 527 458 839 619 170 88 393 182 620 260 l169 58
-89 43 c-180 85 -424 149 -664 174 -159 16 -487 6 -666 -21 -455 -68 -974
-243 -1480 -497 l-120 -61 -155 158 c-85 87 -179 178 -209 203 l-54 46 66 143
c117 257 141 322 327 908 127 400 252 650 488 974 97 133 271 346 340 418 25
26 44 50 41 53 -3 2 -45 0 -95 -5 -796 -88 -1538 -647 -2222 -1673 -79 -118
-110 -156 -121 -152 -59 23 -337 97 -438 116 l-122 24 -6 65 c-24 267 -62 493
-126 765 -115 487 -132 582 -150 838 -17 249 11 612 76 959 28 151 28 158 18
158 -5 0 -44 -28 -88 -62z"/>
</g>
</svg>
