<?xml version="1.0" standalone="no"?>
<!DOCTYPE svg PUBLIC "-//W3C//DTD SVG 20010904//EN"
 "http://www.w3.org/TR/2001/REC-SVG-20010904/DTD/svg10.dtd">
<svg version="1.0" xmlns="http://www.w3.org/2000/svg"
 width="1280.000000pt" height="1280.000000pt" viewBox="0 0 1280.000000 1280.000000"
 preserveAspectRatio="xMidYMid meet">
<metadata>
Created by potrace 1.15, written by Peter Selinger 2001-2017
</metadata>
<g transform="translate(0.000000,1280.000000) scale(0.100000,-0.100000)"
fill="#000000" stroke="none">
<path d="M6325 12713 c-515 -478 -1074 -740 -1785 -839 -155 -21 -644 -30
-821 -15 -209 18 -451 51 -482 66 -21 11 -29 11 -32 2 -2 -7 -16 -52 -30 -102
-229 -780 -725 -1401 -1484 -1854 -211 -127 -697 -353 -789 -368 -30 -5 -33
-8 -27 -32 26 -102 58 -257 77 -376 20 -122 23 -177 23 -435 0 -301 -5 -365
-47 -580 -105 -547 -366 -1089 -780 -1623 -55 -70 -108 -133 -118 -139 -17
-11 -11 -20 69 -107 478 -524 728 -1059 827 -1771 21 -154 30 -631 15 -815
-17 -207 -51 -456 -66 -488 -11 -21 -11 -29 -2 -32 7 -2 53 -15 102 -30 835
-247 1489 -798 1937 -1631 132 -244 294 -620 284 -657 -5 -22 -20 -23 163 18
213 49 361 66 611 72 145 3 280 1 353 -6 567 -55 1085 -251 1632 -616 179
-120 395 -283 423 -320 17 -22 17 -22 124 76 153 138 254 218 403 317 407 271
823 424 1355 498 179 25 662 30 876 10 237 -23 436 -53 445 -68 9 -14 7 -20
44 107 284 976 1009 1719 2112 2164 84 33 162 61 174 61 17 0 20 4 16 23 -3
12 -17 73 -32 136 -48 209 -66 360 -72 611 -6 249 3 384 37 588 63 368 203
750 404 1107 130 230 434 662 501 713 22 17 22 17 -69 117 -493 540 -752 1120
-831 1860 -20 186 -19 583 0 796 21 220 52 421 67 430 9 6 9 9 -2 13 -8 2 -69
21 -135 41 -863 264 -1522 847 -1971 1744 -92 185 -213 468 -221 519 -5 28 -9
33 -27 28 -82 -22 -271 -61 -381 -78 -169 -26 -533 -35 -712 -19 -668 63
-1301 335 -1945 838 -59 46 -113 92 -120 102 -12 17 -19 12 -93 -56z m65 -597
l0 -614 -82 -77 c-373 -348 -847 -566 -1388 -641 -157 -22 -600 -25 -765 -5
-122 14 -286 39 -291 43 -9 9 -613 1063 -610 1065 1 2 65 -6 142 -16 260 -37
379 -45 654 -45 318 0 469 13 740 65 556 108 1100 384 1505 763 44 41 83 75
88 76 4 0 7 -276 7 -614z m117 544 c549 -439 1151 -724 1743 -825 373 -64 769
-55 1150 26 52 11 108 23 123 26 l29 6 -19 -35 c-10 -19 -148 -260 -307 -535
l-289 -500 -91 -21 c-221 -51 -277 -56 -571 -56 -262 0 -289 2 -416 27 -481
94 -895 292 -1351 646 l-98 76 0 617 c0 340 2 618 5 618 2 0 44 -32 92 -70z
m-2977 -1317 c167 -289 303 -534 303 -544 -2 -28 -50 -173 -93 -283 -81 -207
-202 -418 -348 -606 -87 -112 -293 -318 -414 -413 -225 -178 -556 -367 -852
-486 l-128 -52 -142 81 c-77 45 -318 184 -533 308 -216 125 -393 229 -393 232
1 3 62 29 138 58 283 111 635 298 879 468 605 422 1030 991 1235 1656 18 60
35 108 38 108 3 0 142 -237 310 -527z m6114 375 c275 -700 720 -1293 1256
-1675 255 -181 627 -361 909 -439 33 -10 61 -20 61 -23 0 -5 -934 -549 -1035
-603 -31 -17 -34 -16 -181 33 -652 218 -1156 672 -1502 1357 -88 174 -196 426
-189 440 29 56 613 1062 617 1062 3 -1 32 -69 64 -152z m-3254 -747 l0 -489
-67 -62 c-298 -274 -644 -437 -1068 -507 -155 -25 -546 -25 -735 0 -113 15
-137 21 -150 39 -33 46 -482 829 -478 834 3 2 49 -3 104 -11 268 -39 644 -47
884 -19 413 47 782 177 1098 384 123 80 290 211 357 279 22 22 43 40 48 41 4
0 7 -220 7 -489z m155 388 c634 -482 1291 -698 1945 -638 129 11 266 33 354
55 32 8 60 13 63 10 6 -6 -465 -827 -483 -842 -16 -13 -208 -51 -329 -64 -354
-39 -736 36 -1102 215 -152 75 -391 228 -513 328 l-65 53 -3 493 c-2 472 -1
492 16 479 10 -7 63 -47 117 -89z m-2439 -1014 c130 -225 237 -419 236 -431
-1 -11 -18 -68 -37 -125 -203 -586 -642 -1019 -1316 -1295 l-109 -44 -417 241
c-230 132 -421 244 -426 248 -4 4 37 25 90 46 434 170 817 417 1110 716 275
279 471 608 594 997 13 39 26 69 30 65 4 -5 115 -192 245 -418z m4879 325
c124 -313 326 -662 510 -885 98 -118 266 -286 380 -378 231 -186 459 -311 764
-417 l134 -47 -34 -20 c-19 -12 -196 -114 -394 -228 -198 -114 -374 -215 -390
-226 -31 -18 -31 -18 -150 22 -589 195 -1034 643 -1310 1318 l-46 112 192 332
c262 453 301 519 304 515 1 -2 19 -46 40 -98z m-2595 -614 l0 -384 -52 -50
c-324 -308 -781 -459 -1280 -422 -156 12 -270 27 -279 38 -10 12 -367 636
-374 652 -5 14 10 14 132 -2 198 -26 533 -25 710 1 387 58 700 193 988 425 44
35 93 78 109 95 17 17 33 31 38 31 4 0 8 -173 8 -384z m106 324 c289 -230 654
-411 977 -485 260 -60 583 -60 862 -1 38 8 70 14 71 13 0 -1 -86 -153 -193
-337 l-193 -335 -73 -17 c-188 -45 -451 -49 -643 -9 -270 55 -533 181 -799
381 l-95 71 0 390 c0 214 2 389 5 389 3 0 39 -27 81 -60z m-1932 -828 c102
-178 186 -332 186 -342 0 -33 -61 -192 -112 -295 -129 -258 -322 -468 -593
-645 -95 -62 -361 -194 -425 -211 l-45 -12 -240 140 c-132 76 -282 163 -333
192 -51 29 -92 54 -90 56 2 1 59 26 128 54 650 270 1109 735 1296 1313 15 49
31 85 35 80 3 -4 90 -152 193 -330z m3932 193 c169 -404 432 -755 735 -982
173 -129 336 -215 558 -293 l104 -37 -94 -53 c-52 -30 -201 -116 -332 -192
-131 -76 -247 -138 -257 -138 -31 0 -198 64 -296 113 -260 131 -469 323 -648
600 -65 100 -189 350 -207 417 l-11 45 193 334 c152 264 194 330 201 315 4
-10 28 -68 54 -129z m-2158 -778 c-78 -71 -248 -181 -336 -218 -166 -69 -297
-97 -492 -105 -128 -6 -319 5 -385 22 -14 4 -68 89 -171 267 -83 144 -149 264
-148 266 2 2 40 -2 86 -9 134 -18 381 -24 503 -11 362 39 657 162 915 383 l75
64 3 -305 3 -306 -53 -48z m162 596 c185 -143 425 -270 635 -336 245 -76 529
-92 778 -41 43 9 80 14 81 12 2 -2 -65 -121 -148 -265 l-151 -262 -70 -17
c-46 -11 -125 -19 -230 -22 -171 -4 -277 11 -425 58 -147 48 -351 160 -502
277 l-58 44 0 311 c0 247 3 308 13 301 6 -6 41 -33 77 -60z m-5125 -278 c226
-130 453 -262 506 -292 l96 -56 21 -91 c33 -142 52 -274 61 -424 40 -643 -179
-1269 -663 -1894 l-91 -118 -617 0 c-340 0 -618 2 -618 5 0 3 33 47 74 98 316
393 576 866 715 1297 107 332 161 710 148 1040 -9 221 -31 378 -94 674 l-6 28
29 -15 c16 -8 214 -122 439 -252z m10511 233 c-3 -18 -15 -103 -25 -188 -145
-1131 113 -2066 773 -2802 53 -59 96 -110 96 -113 0 -3 -276 -5 -614 -5 l-614
0 -77 83 c-43 45 -114 132 -160 192 -264 351 -417 730 -481 1195 -22 157 -25
600 -5 765 22 188 40 288 53 297 7 4 114 67 238 138 124 72 356 206 515 299
160 93 294 169 299 170 4 1 6 -14 2 -31z m-6951 -610 l148 -258 -27 -77 c-105
-301 -300 -533 -596 -707 -115 -69 -298 -149 -319 -141 -46 17 -520 299 -514
305 4 4 58 29 118 54 487 207 825 546 990 994 21 56 42 99 45 95 4 -4 74 -124
155 -265z m3155 134 c187 -423 464 -729 815 -901 66 -32 155 -71 198 -86 42
-15 75 -30 73 -32 -2 -3 -120 -72 -262 -154 -206 -119 -263 -147 -283 -143
-14 4 -71 24 -125 45 -325 129 -574 386 -741 766 -26 59 -43 113 -40 122 14
36 298 522 302 517 3 -3 31 -63 63 -134z m-1700 -312 l0 -240 -72 -59 c-195
-161 -411 -234 -683 -233 -112 1 -262 14 -269 24 -12 15 -236 409 -236 414 0
3 15 4 33 0 97 -18 286 -25 400 -15 205 17 351 56 507 134 88 45 240 147 280
190 13 14 27 25 32 25 4 0 8 -108 8 -240z m99 191 c212 -157 435 -259 661
-303 90 -17 357 -15 448 4 40 8 71 12 70 7 -2 -4 -55 -98 -118 -208 -131 -229
-112 -213 -283 -232 -260 -29 -547 63 -798 257 l-59 45 0 240 c0 131 3 239 6
239 4 0 36 -22 73 -49z m-3847 -368 c120 -69 219 -132 222 -141 14 -47 46
-229 55 -314 57 -518 -116 -1056 -502 -1566 -41 -53 -81 -103 -89 -110 -12 -9
-122 -12 -501 -10 l-486 3 81 105 c466 606 689 1223 665 1845 -7 170 -26 317
-58 453 -10 46 -19 87 -19 92 0 5 93 -46 208 -112 114 -66 305 -176 424 -245z
m8144 325 c-39 -210 -58 -673 -37 -893 56 -588 275 -1097 640 -1486 39 -42 71
-80 71 -83 0 -3 -220 -6 -489 -6 l-490 0 -72 80 c-405 446 -576 1024 -504
1703 26 245 16 223 120 283 404 235 751 434 759 434 4 0 5 -15 2 -32z m-5562
-472 l118 -205 -17 -53 c-96 -292 -329 -527 -657 -663 l-68 -28 -117 68 c-65
37 -160 92 -212 123 l-94 55 54 22 c304 124 552 317 705 547 53 79 128 234
145 300 7 26 16 45 19 43 4 -2 60 -96 124 -209z m2571 13 c169 -337 433 -580
748 -689 37 -13 67 -26 67 -30 0 -6 -372 -224 -401 -235 -9 -3 -54 8 -101 25
-262 95 -487 324 -615 625 l-36 85 113 197 c62 109 118 204 123 211 8 10 16 0
32 -40 12 -30 43 -97 70 -149z m-1405 -158 l0 -189 -62 -50 c-87 -69 -177
-116 -283 -148 -82 -25 -105 -28 -255 -28 -91 -1 -176 2 -190 6 -14 4 -32 20
-41 35 -8 15 -50 88 -93 162 -42 73 -75 135 -73 137 2 2 37 0 78 -6 309 -40
637 44 840 214 35 30 67 55 72 55 4 1 7 -84 7 -188z m84 151 c270 -203 580
-288 864 -238 39 7 72 11 72 9 0 -3 -92 -163 -151 -264 l-39 -66 -64 -11
c-221 -41 -449 19 -668 176 l-78 55 0 189 c0 103 3 188 7 188 3 0 29 -17 57
-38z m-3028 -323 l121 -70 16 -73 c44 -200 47 -459 7 -648 -56 -266 -182 -530
-380 -793 l-71 -95 -390 0 c-214 0 -389 2 -389 6 0 3 25 35 55 73 149 185 329
498 409 714 49 130 91 298 110 436 32 226 13 572 -40 753 -4 12 70 -25 213
-108 120 -69 272 -157 339 -195z m6442 174 c-24 -179 -26 -522 -4 -679 59
-432 228 -808 490 -1090 36 -40 66 -75 66 -78 0 -3 -173 -6 -385 -6 l-386 0
-48 53 c-311 333 -458 779 -421 1279 14 181 27 271 43 281 45 30 644 375 652
376 7 1 4 -48 -7 -136z m-2344 -307 c83 -148 208 -288 336 -376 68 -46 181
-103 238 -120 23 -7 42 -16 42 -19 0 -4 -72 -48 -161 -99 -158 -92 -161 -93
-197 -81 -52 16 -166 74 -216 108 -99 69 -219 216 -283 346 -62 125 -62 110 7
232 35 59 78 134 97 166 l35 58 32 -74 c18 -41 49 -104 70 -141z m-2085 44
c101 -176 97 -160 54 -265 -79 -189 -250 -353 -469 -451 l-82 -36 -108 63
c-60 34 -135 78 -167 97 l-58 34 74 32 c223 97 402 238 517 406 46 68 103 181
120 238 7 23 16 42 20 42 3 0 48 -72 99 -160z m1197 -112 c118 -55 234 -80
369 -79 60 0 125 5 143 10 17 5 32 7 32 3 0 -4 -33 -63 -73 -132 -69 -119 -75
-125 -112 -133 -63 -13 -253 -3 -310 17 -86 31 -170 74 -234 121 l-61 45 0
150 0 149 83 -56 c45 -31 119 -74 163 -95z m-266 -2 l0 -144 -47 -41 c-109
-93 -260 -144 -433 -144 -167 0 -157 -5 -240 139 -40 69 -71 127 -69 128 2 2
45 0 94 -5 110 -10 269 4 363 32 84 26 202 87 267 139 28 21 53 39 58 39 4 1
7 -64 7 -143z m-2244 -261 c11 -45 19 -126 22 -230 5 -230 -27 -379 -129 -595
-47 -99 -166 -286 -226 -358 l-28 -32 -306 2 -307 3 65 85 c341 451 475 949
377 1413 -8 38 -14 72 -14 77 0 5 119 -59 265 -143 l264 -152 17 -70z m5044
283 c-18 -134 -24 -381 -11 -503 14 -130 53 -311 88 -410 63 -175 171 -360
297 -507 l67 -78 -310 0 -310 0 -57 68 c-150 176 -244 369 -289 593 -30 147
-29 483 1 604 4 14 88 68 267 171 144 83 264 150 266 148 2 -2 -2 -40 -9 -86z
m-1829 -341 c90 -133 253 -264 390 -314 27 -9 49 -19 49 -22 -1 -13 -245 -145
-265 -143 -11 0 -58 20 -104 43 -137 70 -248 192 -321 353 l-28 64 75 131 75
131 44 -90 c24 -50 62 -118 85 -153z m-1717 111 c39 -68 69 -132 68 -143 0
-11 -20 -57 -43 -104 -67 -135 -191 -248 -353 -321 l-64 -28 -131 75 -131 75
90 44 c227 110 379 261 457 455 15 38 30 69 33 69 3 0 36 -55 74 -122z m746
-93 l0 -114 -54 -41 c-103 -78 -242 -114 -390 -103 l-65 6 -42 71 c-23 39 -50
85 -60 101 l-18 30 142 0 c105 1 159 5 207 19 76 21 182 74 231 116 19 16 37
29 42 30 4 0 7 -52 7 -115z m92 74 c74 -51 184 -102 258 -120 32 -8 104 -14
173 -13 64 0 117 -1 117 -2 0 -2 -25 -46 -56 -98 l-55 -95 -56 -7 c-128 -16
-259 19 -384 102 l-69 46 0 114 c0 63 2 114 6 114 3 0 32 -19 66 -41z m-2103
-109 c229 -131 213 -111 232 -283 17 -155 -7 -315 -72 -479 -36 -91 -118 -233
-184 -318 l-46 -60 -240 0 c-131 0 -239 2 -239 5 0 4 30 47 66 98 152 211 243
414 286 637 17 90 15 357 -4 448 -8 40 -12 71 -8 70 5 -2 98 -55 209 -118z
m4257 93 c-3 -16 -10 -87 -16 -159 -20 -278 26 -535 135 -754 44 -87 134 -221
186 -275 16 -17 29 -34 29 -38 0 -4 -108 -7 -239 -7 l-239 0 -49 58 c-171 198
-246 413 -245 697 1 134 15 267 29 273 4 2 96 54 203 117 107 63 199 114 203
114 5 1 6 -11 3 -26z m-2841 -226 c62 -108 62 -103 12 -202 -42 -85 -134 -171
-238 -225 l-85 -43 -101 59 -101 59 95 50 c155 80 278 208 335 348 12 31 23
55 24 54 1 -1 28 -46 59 -100z m1460 -182 c70 -70 107 -98 167 -127 42 -21 83
-38 90 -38 15 0 -181 -119 -197 -120 -6 0 -44 16 -84 35 -100 48 -183 133
-241 246 l-43 84 59 102 58 103 50 -98 c42 -79 68 -114 141 -187z m-716 125
c102 -51 221 -75 309 -61 29 4 52 6 52 5 0 -2 -19 -38 -42 -79 -48 -86 -60
-91 -178 -83 -73 6 -170 44 -235 94 l-35 26 0 90 0 89 43 -29 c23 -16 62 -39
86 -52z m-149 -14 c0 -83 -1 -85 -32 -112 -76 -63 -228 -105 -329 -90 -44 6
-47 9 -87 80 -23 41 -42 75 -42 77 0 2 48 4 108 4 62 0 128 6 157 14 57 16
148 61 185 90 14 11 28 21 33 21 4 0 7 -38 7 -84z m-1600 -34 l155 -90 12 -53
c6 -30 12 -94 12 -142 2 -186 -58 -359 -187 -539 l-55 -78 -189 0 c-103 0
-188 3 -188 7 0 3 17 29 38 57 204 275 288 579 238 864 -8 50 -9 71 -2 68 6
-2 81 -44 166 -94z m3396 71 c-16 -75 -18 -301 -2 -400 28 -186 106 -369 211
-496 30 -36 55 -69 55 -72 0 -3 -86 -4 -192 -3 l-191 3 -53 69 c-71 93 -107
163 -140 271 -25 82 -28 105 -28 255 -1 91 2 176 6 190 6 19 45 47 165 117 87
51 162 92 167 92 4 1 6 -11 2 -26z m-1106 -314 c53 -54 93 -85 137 -105 35
-16 63 -31 63 -34 -1 -11 -144 -85 -159 -82 -95 19 -215 134 -265 253 -14 35
-14 36 30 112 l46 76 36 -72 c25 -48 62 -97 112 -148z m-1165 140 c22 -40 39
-79 37 -88 -16 -82 -120 -199 -221 -249 l-64 -32 -31 19 c-17 10 -52 31 -78
45 l-47 27 72 37 c98 50 214 164 253 249 16 35 31 63 34 63 3 0 23 -32 45 -71z
m475 -52 c0 -72 -11 -87 -90 -128 -34 -17 -67 -24 -136 -27 l-91 -4 -32 55
c-17 30 -31 57 -31 59 0 3 44 8 98 10 106 6 185 30 237 73 17 13 33 24 38 25
4 0 7 -28 7 -63z m96 23 c79 -46 194 -76 260 -66 24 3 44 3 44 0 0 -4 -14 -31
-31 -60 -25 -45 -36 -54 -67 -60 -68 -13 -178 19 -249 73 -31 23 -33 27 -33
89 0 35 2 64 4 64 2 0 34 -18 72 -40z m1333 -70 c-10 -104 0 -245 26 -345 22
-86 84 -209 143 -287 l51 -68 -149 0 -150 0 -45 57 c-98 126 -138 250 -137
433 0 63 4 125 9 138 5 14 54 49 133 95 69 41 126 73 127 72 1 0 -2 -43 -8
-95z m-2654 -15 c81 -48 82 -50 84 -200 1 -161 -50 -303 -162 -447 l-29 -38
-149 0 -148 0 56 83 c143 209 200 430 168 656 l-7 54 58 -34 c33 -18 91 -52
129 -74z m850 -59 l30 -56 -29 -55 c-32 -63 -82 -109 -152 -145 l-48 -23 -54
29 c-29 16 -56 32 -58 36 -2 4 22 21 54 38 74 39 152 116 189 185 15 30 30 52
33 50 3 -2 19 -28 35 -59z m845 5 c39 -73 111 -146 185 -187 l57 -32 -57 -32
c-64 -37 -79 -36 -151 12 -49 33 -117 121 -129 166 -4 16 4 41 25 78 17 30 33
54 35 54 2 0 18 -27 35 -59z m-472 -43 c-3 -50 -5 -53 -49 -81 -36 -22 -63
-30 -121 -34 l-75 -6 -26 44 -27 44 68 6 c87 8 141 23 183 53 19 13 38 25 42
25 4 1 7 -22 5 -51z m107 12 c53 -26 88 -36 142 -40 l73 -5 -26 -42 c-25 -43
-25 -43 -84 -43 -46 0 -71 7 -122 33 l-63 33 -3 53 c-2 29 1 51 5 49 4 -2 40
-19 78 -38z m1040 -112 c0 -122 4 -154 24 -218 28 -91 58 -152 105 -213 20
-26 36 -50 36 -52 0 -3 -53 -4 -117 -3 l-117 3 -47 69 c-26 38 -54 92 -64 120
-23 72 -34 180 -27 255 l7 63 100 59 c55 32 100 58 100 59 0 0 0 -64 0 -142z
m-2161 76 l95 -55 7 -56 c16 -129 -18 -258 -100 -381 l-48 -72 -114 0 c-63 0
-114 2 -114 6 0 3 17 31 39 62 53 79 85 145 112 232 20 62 24 96 23 198 0 67
1 122 2 122 2 0 46 -25 98 -56z m716 -67 l23 -43 -21 -40 c-23 -45 -74 -94
-124 -120 -30 -16 -34 -16 -75 7 -24 13 -43 26 -43 29 0 3 20 16 46 29 52 28
141 121 150 157 9 34 18 30 44 -19z m679 -3 c28 -52 121 -141 157 -150 34 -9
30 -16 -19 -43 l-43 -23 -40 20 c-45 23 -94 74 -120 124 -16 31 -16 34 6 75
13 24 26 43 29 43 3 0 17 -20 30 -46z m-187 -51 l57 -6 -14 -27 c-8 -15 -26
-31 -40 -34 -31 -8 -99 9 -142 36 -28 17 -33 25 -33 58 l0 39 58 -30 c34 -18
81 -32 114 -36z m-194 20 c-3 -32 -9 -41 -43 -60 -28 -16 -57 -23 -97 -23 -54
0 -59 2 -73 30 -8 16 -15 31 -15 35 0 3 26 5 58 5 40 0 72 8 107 24 28 14 54
25 58 25 5 1 7 -16 5 -36z m-748 -53 c12 -7 15 -30 15 -107 0 -90 -3 -104 -33
-168 -18 -38 -44 -84 -58 -102 -25 -33 -25 -33 -115 -33 l-90 0 29 43 c81 118
115 224 115 355 l-1 92 61 -35 c34 -20 69 -40 77 -45z m1665 -33 c1 -131 22
-208 86 -307 21 -33 39 -63 39 -65 0 -3 -38 -5 -85 -5 l-84 0 -35 46 c-63 82
-97 215 -82 317 6 41 10 45 79 85 40 23 74 42 77 42 3 0 5 -51 5 -113z m-1154
14 c16 -27 16 -31 -5 -67 -12 -22 -43 -53 -69 -71 -47 -31 -48 -32 -77 -15
-17 9 -30 20 -30 23 0 3 22 20 49 38 28 17 63 52 78 76 15 24 30 44 33 45 3 0
12 -13 21 -29z m558 -20 c17 -28 52 -63 76 -78 24 -15 44 -30 45 -33 0 -3 -13
-12 -28 -21 -27 -15 -31 -15 -63 1 -39 21 -70 52 -91 94 -14 26 -14 32 1 58 9
15 19 28 22 28 3 0 20 -22 38 -49z m-156 -21 l37 0 -17 -26 c-15 -23 -22 -26
-61 -21 -54 6 -96 35 -100 70 l-3 27 53 -25 c29 -14 70 -25 91 -25z m-163 23
c0 -28 -13 -41 -53 -58 -55 -23 -92 -20 -111 10 -16 25 -16 25 16 25 18 1 56
9 83 19 65 24 65 24 65 4z m-644 -23 c49 -29 53 -34 60 -76 9 -60 -18 -160
-60 -222 l-31 -47 -67 -3 c-38 -2 -68 -1 -68 2 0 3 14 28 31 55 48 80 72 156
73 243 0 43 3 78 5 78 2 0 27 -14 57 -30z m1376 -68 c5 -101 27 -171 78 -242
11 -15 20 -31 20 -34 0 -3 -28 -6 -63 -6 -72 0 -87 11 -128 90 -17 34 -24 67
-27 137 l-4 91 53 31 c30 17 57 31 60 31 4 0 8 -44 11 -98z m-912 2 c0 -18
-40 -64 -73 -84 -23 -15 -35 -16 -53 -8 -32 15 -30 19 14 46 21 13 48 39 61
58 22 31 25 33 37 17 7 -10 14 -23 14 -29z m438 8 c13 -21 39 -48 58 -61 l35
-25 -23 -12 c-31 -18 -32 -18 -68 12 -45 39 -64 78 -48 104 17 27 19 26 46
-18z m-258 -1 c0 -21 -54 -51 -92 -51 -13 0 -29 9 -36 20 -11 19 -10 20 25 20
21 0 49 7 63 14 34 19 40 19 40 -3z m60 4 c14 -8 40 -14 58 -15 33 0 38 -6 23
-29 -19 -30 -121 8 -121 46 0 16 8 16 40 -2z m-532 -102 c2 -51 -2 -69 -30
-124 l-34 -64 -53 -3 c-29 -2 -51 1 -49 5 70 143 73 150 76 221 l4 73 42 -25
c40 -23 41 -26 44 -83z m1054 63 c-5 -56 22 -161 53 -208 14 -21 25 -40 25
-43 0 -3 -22 -5 -49 -5 -44 0 -52 4 -72 31 -28 40 -49 111 -49 170 0 46 2 49
43 73 23 14 44 26 47 26 3 0 4 -20 2 -44z m-336 -71 c27 -17 24 -35 -6 -35
-22 0 -70 54 -70 79 0 31 13 32 32 2 11 -16 30 -37 44 -46z m-396 41 c0 -15
-12 -34 -31 -50 -32 -27 -46 -31 -67 -18 -9 6 -5 12 14 22 14 8 35 27 46 42
24 34 38 36 38 4z m150 5 c0 -28 -88 -49 -97 -23 -3 8 5 12 24 12 15 0 35 5
43 10 19 12 30 13 30 1z m88 -9 c19 -2 31 -9 29 -16 -5 -14 -63 -12 -82 4 -21
17 -19 34 3 25 9 -5 32 -10 50 -13z m-464 -47 c8 -31 -9 -99 -36 -142 -17 -28
-25 -33 -58 -33 l-39 0 30 58 c18 34 32 81 36 114 l6 57 27 -14 c15 -8 31 -26
34 -40z m846 -2 c0 -41 8 -74 25 -111 14 -30 25 -56 25 -59 0 -2 -17 -3 -37
-1 -32 3 -41 9 -60 43 -16 28 -23 57 -23 97 0 52 2 59 28 72 15 8 30 15 35 16
4 0 7 -26 7 -57z m-590 5 c0 -16 -41 -58 -57 -58 -20 0 -16 10 15 41 29 31 42
36 42 17z m301 -17 c32 -32 35 -41 17 -41 -16 0 -58 41 -58 57 0 19 8 16 41
-16z m-484 -59 c-6 -54 -35 -96 -70 -100 l-27 -3 25 53 c14 29 25 70 25 91 l0
37 26 -17 c23 -15 26 -22 21 -61z m280 62 c-15 -8 -33 -12 -40 -7 -8 5 -3 9
13 14 43 12 56 9 27 -7z m93 7 c14 -4 20 -10 15 -13 -6 -3 -23 0 -40 7 -32 14
-17 18 25 6z m330 -134 l20 -38 -26 3 c-35 4 -64 44 -71 98 -5 37 -3 45 18 61
l24 18 8 -52 c4 -29 17 -69 27 -90z m-510 78 c-7 -8 -18 -15 -26 -15 -9 0 -5
8 9 23 23 23 37 17 17 -8z m267 -13 c-11 -5 -37 18 -37 34 0 9 8 5 23 -9 12
-12 18 -24 14 -25z m-172 28 c-3 -5 -14 -10 -23 -9 -14 0 -13 2 3 9 27 11 27
11 20 0z m75 0 c8 -5 11 -10 5 -10 -5 0 -17 5 -25 10 -8 5 -10 10 -5 10 6 0
17 -5 25 -10z m258 -97 c15 -28 15 -33 -1 -33 -23 0 -47 35 -54 75 -5 30 -2
41 13 52 18 13 19 11 24 -29 3 -24 11 -53 18 -65z m-564 49 c-1 -43 -25 -82
-51 -82 -16 0 -16 8 2 40 8 14 14 40 15 58 0 26 4 33 18 30 13 -3 17 -13 16
-46z m166 19 c0 -5 -7 -12 -16 -15 -14 -5 -15 -4 -4 9 14 17 20 19 20 6z m200
-6 c7 -9 8 -15 2 -15 -5 0 -12 7 -16 15 -3 8 -4 15 -2 15 2 0 9 -7 16 -15z
m-313 -11 c7 -19 -22 -84 -38 -84 -7 0 -8 7 -4 18 5 9 10 32 13 50 4 34 19 42
29 16z m433 -10 c0 -14 5 -34 11 -46 13 -24 5 -35 -15 -19 -17 14 -30 66 -21
81 11 19 25 10 25 -16z m-402 -45 c-6 -16 -12 -28 -14 -26 -8 7 8 67 17 62 4
-3 3 -19 -3 -36z m361 -19 c0 -8 -7 -3 -15 13 -8 15 -12 33 -7 40 7 12 20 -20
22 -53z m-328 13 c-12 -20 -14 -14 -5 12 4 9 9 14 11 11 3 -2 0 -13 -6 -23z
m282 7 c3 -11 1 -18 -4 -14 -5 3 -9 12 -9 20 0 20 7 17 13 -6z m-5168 -132
c351 -377 565 -840 641 -1388 28 -195 25 -621 -5 -845 -28 -216 -25 -206 -69
-232 -507 -294 -1027 -592 -1029 -589 -2 1 6 65 16 142 37 261 45 379 45 654
0 280 -9 404 -45 628 -101 617 -375 1180 -792 1628 -37 40 -67 75 -67 78 0 3
276 6 614 6 l614 0 77 -82z m1009 11 c382 -412 562 -969 517 -1595 -11 -144
-35 -341 -43 -349 -2 -2 -68 -41 -148 -88 -507 -294 -692 -399 -695 -395 -3 3
2 49 10 104 36 246 47 615 25 835 -59 586 -281 1092 -656 1492 -30 31 -54 59
-54 62 0 3 220 5 489 5 l489 0 66 -71z m779 39 c204 -218 339 -474 397 -752
34 -159 43 -288 36 -481 -6 -161 -24 -338 -36 -348 -3 -2 -88 -51 -190 -109
-102 -58 -251 -145 -332 -192 -82 -47 -148 -82 -148 -77 0 4 8 57 17 117 24
161 24 598 0 753 -66 418 -240 786 -503 1063 -24 25 -44 49 -44 52 0 3 174 6
386 6 l386 0 31 -32z m683 -35 c155 -183 246 -376 290 -614 21 -113 22 -424 2
-534 l-13 -70 -264 -153 c-145 -84 -265 -151 -266 -150 -2 2 1 28 6 58 22 137
30 349 19 488 -30 384 -151 689 -379 959 -34 39 -61 74 -61 77 0 3 137 6 304
6 l305 0 57 -67z m504 20 c157 -179 236 -385 247 -643 6 -144 -10 -317 -30
-336 -22 -21 -399 -235 -404 -230 -3 3 0 48 6 100 25 211 8 451 -45 634 -46
159 -163 371 -265 477 -16 17 -29 34 -29 38 0 4 108 7 239 7 l239 0 42 -47z
m412 5 c92 -114 145 -220 175 -351 17 -79 23 -277 10 -367 l-8 -55 -161 -93
c-88 -51 -163 -91 -165 -88 -2 2 1 58 7 123 13 141 1 305 -32 428 -36 141
-144 344 -217 409 -11 11 -21 23 -21 28 0 4 85 8 189 8 l189 0 34 -42z m339
-10 c55 -69 106 -177 124 -263 15 -72 19 -218 7 -292 -7 -43 -8 -43 -134 -117
l-127 -74 6 132 c11 250 -36 424 -161 594 -25 34 -46 64 -46 67 0 3 65 5 145
5 l145 0 41 -52z m275 -15 c61 -89 85 -161 91 -269 3 -51 3 -111 -1 -135 -7
-43 -8 -45 -106 -101 -54 -32 -100 -58 -102 -58 -2 0 0 33 4 73 21 179 -28
372 -126 500 -20 26 -36 50 -36 52 0 3 53 4 117 3 l117 -3 42 -62z m195 25
c60 -82 73 -123 77 -248 l4 -115 -76 -43 c-42 -23 -77 -42 -79 -42 -2 0 -3 51
-4 113 -1 133 -22 211 -83 306 -22 34 -40 64 -40 66 0 3 38 5 85 5 l85 0 31
-42z m157 19 c35 -37 65 -117 70 -189 7 -96 1 -108 -65 -145 l-58 -32 0 92 c0
103 -17 165 -65 241 -17 26 -30 49 -30 51 0 3 28 5 63 5 53 0 67 -4 85 -23z
m140 -4 c36 -53 54 -125 45 -189 -5 -35 -11 -45 -43 -63 -21 -11 -40 -21 -43
-21 -3 0 -6 31 -6 68 0 72 -21 149 -52 194 -11 14 -19 29 -19 32 0 3 22 6 49
6 43 0 52 -4 69 -27z m119 -22 c16 -30 23 -61 23 -97 0 -49 -2 -55 -30 -69
-16 -8 -31 -15 -33 -15 -2 0 -6 30 -9 68 -3 40 -13 84 -27 109 -11 23 -21 45
-21 48 0 4 17 5 37 3 32 -3 40 -9 60 -47z m72 23 c27 -35 29 -120 4 -140 -29
-22 -33 -17 -33 36 0 31 -8 66 -20 90 l-20 40 24 0 c15 0 33 -11 45 -26z m66
3 c27 -41 29 -80 6 -101 -21 -19 -21 -19 -21 13 0 17 -7 48 -15 68 -18 44 -18
43 0 43 8 0 21 -10 30 -23z m55 4 c12 -24 13 -81 1 -81 -4 0 -11 15 -14 33 -3
17 -8 40 -12 50 -10 24 12 22 25 -2z m46 -6 c10 -40 -1 -50 -13 -11 -6 20 -7
36 -2 36 5 0 11 -11 15 -25z m358 -13 c-4 -18 -10 -29 -15 -27 -4 3 -3 19 3
36 13 38 20 32 12 -9z m61 21 c-5 -10 -10 -33 -13 -51 -2 -19 -9 -31 -16 -29
-14 5 -12 63 4 82 17 21 34 19 25 -2z m75 10 c-1 -5 -7 -19 -15 -33 -8 -14
-14 -40 -15 -57 0 -36 0 -36 -24 -27 -34 13 -2 124 35 124 11 0 19 -3 19 -7z
m65 -45 c-14 -29 -25 -70 -25 -91 l0 -37 -25 16 c-32 21 -33 61 -4 121 17 36
26 43 49 43 l29 0 -24 -52z m104 -6 c-18 -34 -32 -81 -36 -114 l-6 -57 -27 14
c-15 8 -31 26 -34 40 -8 31 9 99 36 143 17 27 25 32 58 32 l39 0 -30 -58z
m159 51 c-63 -125 -73 -153 -78 -220 l-5 -73 -42 26 c-42 25 -43 26 -43 78 0
61 13 106 48 159 23 34 28 37 74 37 27 0 48 -3 46 -7z m172 3 c0 -2 -16 -30
-35 -62 -48 -79 -69 -154 -70 -241 0 -40 -2 -73 -4 -73 -2 0 -27 14 -57 30
-48 28 -53 35 -60 75 -10 73 19 170 73 243 23 30 27 32 89 32 35 0 64 -2 64
-4z m192 -38 c-82 -119 -116 -226 -115 -355 l1 -92 -56 32 c-32 18 -66 37 -77
44 -18 10 -20 22 -20 110 0 90 3 104 33 168 18 38 44 84 58 102 25 33 25 33
115 33 l90 0 -29 -42z m288 36 c0 -3 -19 -32 -41 -66 -51 -74 -102 -184 -120
-258 -8 -32 -14 -104 -13 -172 0 -65 -1 -118 -2 -118 -2 0 -46 25 -98 56 l-95
55 -7 56 c-16 129 18 259 98 379 l49 74 115 0 c63 0 114 -2 114 -6z m283 -76
c-122 -179 -175 -342 -174 -533 0 -60 5 -125 10 -142 5 -18 7 -33 3 -33 -4 0
-63 33 -132 73 -143 84 -137 73 -139 231 -2 153 44 290 144 425 l45 61 150 0
149 0 -56 -82z m467 77 c0 -3 -22 -36 -49 -73 -103 -143 -172 -285 -212 -440
-27 -103 -35 -300 -17 -404 8 -43 13 -78 12 -78 -2 0 -76 42 -166 94 l-163 94
-12 54 c-16 75 -15 213 1 301 25 128 89 265 185 397 l44 60 188 0 c104 0 189
-2 189 -5z m520 0 c0 -4 -30 -47 -66 -98 -152 -211 -243 -414 -286 -637 -17
-90 -15 -357 4 -448 8 -40 12 -71 7 -70 -4 2 -98 55 -208 118 -229 131 -213
112 -232 280 -29 254 55 528 237 773 l64 87 240 0 c132 0 240 -2 240 -5z m650
-1 c0 -4 -29 -45 -64 -93 -339 -455 -465 -933 -370 -1404 9 -43 14 -80 12 -81
-2 -2 -121 65 -265 148 l-262 151 -17 70 c-22 91 -30 341 -14 444 37 238 149
482 327 714 l44 57 305 0 c167 0 304 -3 304 -6z m820 -3 c0 -5 -7 -14 -16 -22
-8 -7 -48 -58 -89 -114 -267 -366 -418 -717 -471 -1091 -24 -172 -15 -473 19
-639 14 -66 24 -120 23 -121 0 0 -152 86 -336 193 l-335 193 -17 73 c-45 188
-49 451 -9 643 55 269 182 535 379 796 l73 98 390 0 c216 0 389 -4 389 -9z
m1008 -9 c-7 -10 -47 -63 -89 -117 -533 -701 -736 -1415 -613 -2150 8 -49 22
-116 30 -149 8 -32 13 -60 10 -63 -5 -5 -806 454 -835 479 -19 16 -54 182 -71
333 -39 355 36 738 215 1102 77 156 231 397 329 516 l56 67 491 0 c469 0 490
-1 477 -18z m1282 9 c0 -5 -7 -15 -16 -22 -24 -20 -213 -273 -292 -391 -567
-847 -751 -1723 -551 -2616 12 -51 19 -95 17 -97 -3 -3 -465 261 -1030 588
-20 12 -39 31 -41 42 -30 134 -58 289 -67 370 -14 127 -14 403 0 525 58 513
278 1011 669 1513 l76 97 617 0 c348 0 618 -4 618 -9z m-6460 -36 c0 -5 -5 -3
-10 5 -5 8 -10 20 -10 25 0 6 5 3 10 -5 5 -8 10 -19 10 -25z m271 8 c-12 -20
-14 -14 -5 12 4 9 9 14 11 11 3 -2 0 -13 -6 -23z m-237 -59 c5 -14 4 -15 -9
-4 -17 14 -19 20 -6 20 5 0 12 -7 15 -16z m206 1 c-7 -9 -15 -13 -19 -10 -3 3
1 10 9 15 21 14 24 12 10 -5z m-230 -20 c20 -25 6 -31 -17 -7 -14 14 -18 22
-9 22 8 0 19 -7 26 -15z m257 -7 c-12 -13 -24 -19 -25 -15 -5 11 18 37 34 37
9 0 5 -8 -9 -22z m-290 -20 c21 -20 31 -48 17 -48 -3 0 -19 13 -35 29 -16 16
-29 32 -29 35 0 13 25 5 47 -16z m123 12 c8 -5 11 -10 5 -10 -5 0 -17 5 -25
10 -8 5 -10 10 -5 10 6 0 17 -5 25 -10z m80 0 c-8 -5 -19 -10 -25 -10 -5 0 -3
5 5 10 8 5 20 10 25 10 6 0 3 -5 -5 -10z m150 4 c0 -3 -13 -19 -29 -35 -16
-16 -32 -29 -35 -29 -13 0 -5 25 16 47 20 21 48 31 48 17z m-386 -55 c27 -32
31 -46 18 -67 -6 -9 -12 -5 -22 14 -8 14 -27 35 -42 46 -34 24 -36 38 -4 38
15 0 34 -12 50 -31z m173 5 c-7 -8 -67 8 -62 17 3 4 19 3 36 -3 16 -6 28 -12
26 -14z m277 18 c3 -5 -6 -15 -20 -23 -14 -7 -35 -26 -46 -41 -21 -30 -38 -29
-38 2 0 37 87 89 104 62z m-199 -12 c-11 -5 -29 -9 -40 -9 -17 -1 -17 1 -5 9
8 5 26 9 40 9 23 0 23 -1 5 -9z m-315 -36 c17 -15 37 -39 46 -55 13 -26 13
-32 0 -50 -14 -21 -15 -20 -42 20 -14 23 -42 51 -61 62 -31 20 -33 22 -16 35
26 19 38 17 73 -12z m573 12 c23 -18 22 -19 -18 -40 -19 -10 -46 -36 -61 -57
-25 -36 -28 -38 -40 -22 -19 25 -17 36 8 68 19 24 75 65 88 65 3 -1 13 -7 23
-14z m-344 -21 c20 -19 8 -29 -17 -16 -12 6 -32 11 -46 11 -26 0 -33 10 -19
24 11 11 65 -2 82 -19z m131 5 c0 -5 -12 -10 -26 -10 -14 0 -34 -5 -46 -11
-25 -13 -35 -5 -18 16 14 17 90 21 90 5z m-394 -72 c12 -12 28 -36 36 -52 14
-26 14 -32 -1 -58 -9 -15 -19 -28 -22 -28 -3 0 -20 22 -38 49 -17 28 -52 63
-76 78 -24 15 -44 30 -45 33 0 3 12 12 28 21 25 15 30 14 62 -2 19 -9 45 -28
56 -41z m714 21 c0 -3 -22 -20 -48 -36 -28 -17 -61 -50 -78 -76 -16 -26 -31
-46 -34 -47 -3 0 -12 13 -22 29 -14 26 -14 32 -1 58 20 40 53 72 92 93 32 16
36 16 63 1 15 -9 28 -19 28 -22z m-474 5 c21 -10 34 -24 34 -35 0 -22 -7 -23
-40 -4 -14 8 -40 14 -57 15 -31 0 -43 16 -26 33 11 12 54 8 89 -9z m180 -1
c17 -17 15 -18 -28 -24 -25 -4 -55 -12 -66 -18 -28 -15 -32 -14 -32 7 0 17 21
32 60 45 29 10 49 7 66 -10z m-557 -42 c42 -22 92 -74 117 -123 16 -30 16 -34
-7 -75 -13 -24 -26 -43 -29 -43 -3 0 -16 20 -29 46 -28 52 -121 141 -157 150
-33 8 -30 16 14 42 45 26 44 26 91 3z m932 -3 c22 -12 39 -24 39 -27 0 -3 -20
-17 -46 -30 -52 -28 -141 -121 -150 -157 -9 -34 -16 -30 -43 19 l-23 43 20 40
c23 44 60 82 112 113 43 26 44 26 91 -1z m-564 -19 c36 -17 43 -26 43 -49 l0
-29 -52 24 c-29 14 -70 25 -91 25 l-37 0 16 25 c21 32 61 33 121 4z m229 -6
c22 -29 17 -33 -38 -33 -29 -1 -64 -7 -78 -15 -14 -8 -31 -14 -37 -15 -23 0
-14 38 13 59 35 27 120 29 140 4z m-690 -53 c58 -33 104 -83 136 -149 l21 -44
-29 -55 c-16 -29 -32 -56 -36 -58 -4 -2 -21 23 -39 56 -41 77 -109 147 -183
186 l-58 31 53 31 c30 18 61 32 69 32 8 0 38 -13 66 -30z m1160 -1 c30 -17 54
-32 54 -34 0 -2 -27 -18 -60 -36 -77 -41 -147 -109 -186 -183 l-31 -58 -33 56
c-36 64 -35 78 9 147 31 49 76 88 138 120 48 24 46 25 109 -12z m-706 -23 c41
-20 45 -25 48 -64 l3 -41 -58 30 c-35 18 -81 32 -115 36 l-57 6 14 28 c8 15
23 30 32 32 30 9 86 -3 133 -27z m285 -6 c8 -16 15 -31 15 -33 0 -2 -30 -6
-67 -9 -41 -3 -85 -13 -110 -27 -23 -11 -45 -21 -48 -21 -4 0 -5 17 -3 38 3
33 8 40 48 60 29 14 62 22 97 22 48 0 54 -3 68 -30z m-849 -71 c50 -30 119
-112 153 -181 l31 -61 -19 -31 c-10 -17 -31 -52 -45 -78 l-27 -47 -37 72 c-50
98 -164 214 -249 253 -35 16 -63 31 -63 34 0 3 32 24 72 47 70 40 72 41 111
27 22 -8 55 -23 73 -35z m1441 2 l72 -43 -72 -36 c-97 -49 -213 -164 -253
-249 -16 -35 -31 -63 -34 -63 -3 0 -24 34 -48 75 l-42 75 27 58 c35 74 121
160 202 200 35 17 66 30 70 28 3 -2 38 -22 78 -45z m-936 -3 c19 -6 51 -22 72
-36 34 -23 37 -28 37 -74 0 -27 -3 -48 -7 -46 -125 63 -153 73 -220 78 l-73 5
26 43 c25 41 26 42 78 42 29 0 68 -5 87 -12z m350 6 c29 -5 41 -14 58 -44 11
-21 21 -40 21 -43 0 -2 -28 -5 -62 -5 -78 0 -141 -16 -190 -48 -21 -13 -40
-24 -43 -24 -3 0 -5 22 -5 50 0 47 2 51 38 75 21 14 59 29 83 34 59 12 59 12
100 5z m-1062 -99 c100 -48 183 -133 241 -246 l43 -84 -59 -102 -58 -103 -50
97 c-82 155 -212 280 -352 337 l-54 22 98 57 c53 31 102 57 107 57 6 0 44 -16
84 -35z m1852 -22 l99 -57 -97 -50 c-155 -82 -280 -212 -337 -351 l-22 -55
-57 101 c-64 111 -64 106 -14 204 41 82 133 170 232 222 44 23 84 43 88 43 4
0 53 -26 108 -57z m-1179 -3 c36 -11 83 -33 106 -50 42 -30 42 -30 42 -95 0
-36 -2 -65 -4 -65 -2 0 -30 16 -62 35 -79 48 -154 69 -241 70 -40 0 -73 2 -73
4 0 16 64 111 78 114 39 10 94 6 154 -13z m484 2 c6 -4 25 -32 42 -62 l31 -55
-92 0 c-104 0 -176 -19 -245 -66 -24 -16 -45 -29 -48 -29 -2 0 -4 28 -4 63 0
68 12 87 70 117 65 34 214 54 246 32z m-1333 -134 c114 -60 235 -202 301 -351
l24 -54 -75 -132 -75 -131 -44 90 c-61 127 -115 203 -204 290 -82 80 -170 138
-262 172 -32 11 -58 24 -58 27 0 3 57 38 126 78 l126 71 40 -14 c22 -7 67 -28
101 -46z m2334 -42 c40 -22 73 -43 73 -46 0 -3 -33 -21 -72 -40 -226 -108
-387 -267 -465 -461 -15 -38 -30 -69 -33 -69 -11 0 -144 246 -143 263 3 32 62
149 104 204 57 75 158 155 263 208 l90 45 55 -31 c31 -17 89 -50 128 -73z
m-1515 23 c35 -11 88 -37 118 -57 l55 -37 3 -93 3 -93 -43 29 c-129 88 -280
132 -396 113 -29 -4 -52 -6 -52 -3 0 16 86 152 99 155 46 13 155 5 213 -14z
m646 -63 c23 -40 42 -77 42 -81 0 -4 -28 -4 -62 -1 -123 13 -270 -23 -368 -90
-27 -19 -52 -34 -55 -34 -3 0 -5 38 -5 84 0 82 1 85 31 110 74 63 145 84 275
85 l100 1 42 -74z m-1821 -51 c205 -77 389 -266 488 -500 l27 -63 -62 -108
c-35 -60 -78 -135 -97 -167 l-35 -58 -32 74 c-97 222 -239 404 -404 516 -70
47 -183 104 -239 121 -24 7 -43 16 -43 19 0 4 57 40 128 80 70 41 141 82 157
92 38 23 32 24 112 -6z m2946 -57 c171 -98 177 -101 177 -108 0 -3 -44 -25
-97 -50 -195 -90 -384 -242 -480 -385 -49 -74 -106 -186 -123 -242 -7 -24 -16
-43 -20 -43 -3 0 -48 73 -99 161 l-93 161 26 72 c53 145 178 299 318 392 61
41 222 123 241 124 5 0 72 -37 150 -82z m-1804 -18 c35 -13 96 -45 137 -72
l74 -49 0 -115 c0 -63 -2 -114 -6 -114 -3 0 -32 19 -66 41 -74 51 -184 102
-258 120 -32 8 -104 14 -172 13 -65 0 -118 1 -118 2 0 2 25 46 56 98 63 108
59 106 199 101 60 -2 111 -11 154 -25z m717 14 c24 -5 39 -23 87 -104 31 -54
57 -100 57 -103 0 -2 -30 0 -67 5 -177 23 -378 -27 -506 -125 -26 -21 -49 -37
-52 -37 -3 0 -5 52 -5 115 l0 114 46 35 c57 44 124 76 189 92 53 13 203 18
251 8z m-2195 -157 c244 -93 453 -298 584 -572 69 -146 86 -90 -144 -483 l-43
-74 -43 99 c-170 394 -459 680 -804 796 -72 24 -73 25 -50 40 74 47 395 227
404 227 5 -1 49 -15 96 -33z m3699 -79 c107 -61 201 -116 208 -121 8 -7 -19
-23 -95 -56 -255 -112 -466 -273 -612 -470 -66 -89 -149 -247 -177 -336 -10
-30 -20 -55 -24 -55 -6 0 -224 372 -235 401 -3 9 8 54 25 101 77 212 246 406
470 538 58 35 218 109 235 110 5 0 98 -50 205 -112z m-2336 6 c81 -21 189 -73
264 -129 l62 -45 0 -150 0 -149 -82 56 c-179 122 -342 175 -533 174 -60 0
-125 -5 -142 -10 -18 -5 -33 -7 -33 -3 0 4 33 63 73 132 62 106 78 126 103
131 59 13 226 9 288 -7z m953 -2 c42 -7 44 -8 116 -132 l73 -125 -186 -1
c-157 0 -197 -3 -261 -21 -94 -26 -193 -76 -277 -137 -34 -25 -64 -46 -67 -46
-3 0 -5 65 -5 144 l0 144 48 41 c62 54 170 106 257 125 73 15 230 19 302 8z
m-2759 -188 c347 -129 604 -388 776 -780 25 -57 46 -108 46 -112 0 -13 -295
-518 -304 -521 -5 -1 -32 51 -60 116 -217 498 -557 833 -1007 994 -50 18 -86
35 -82 39 14 13 517 300 526 300 4 0 52 -16 105 -36z m4667 -119 c141 -81 253
-151 248 -155 -4 -4 -48 -24 -98 -44 -271 -113 -541 -300 -705 -488 -137 -158
-242 -337 -315 -541 -15 -43 -31 -74 -35 -70 -10 12 -277 476 -290 504 -10 22
-6 40 25 125 131 353 387 606 795 786 47 21 93 36 102 34 10 -2 133 -70 273
-151z m-2987 29 c135 -28 277 -95 405 -192 l47 -36 0 -188 c0 -103 -2 -188 -5
-188 -3 0 -29 17 -58 38 -279 205 -580 288 -865 238 -50 -8 -71 -9 -68 -2 2 6
44 81 94 166 l90 155 53 11 c79 17 219 16 307 -2z m1253 -10 c34 -6 40 -13
128 -166 51 -88 90 -162 88 -164 -3 -3 -62 0 -131 6 -218 20 -414 -12 -595
-96 -92 -43 -199 -112 -235 -153 -11 -11 -23 -21 -28 -21 -4 0 -8 85 -8 189
l0 190 71 56 c115 89 244 143 399 166 56 8 246 4 311 -7z m-3494 -225 c402
-142 726 -438 935 -854 65 -129 118 -252 118 -275 0 -14 -357 -647 -380 -673
-3 -4 -24 37 -45 90 -56 142 -163 347 -248 476 -276 420 -608 686 -1051 842
l-118 42 328 191 c181 105 339 191 351 191 12 1 61 -13 110 -30z m5864 -161
c262 -151 328 -193 313 -200 -434 -179 -672 -327 -920 -573 -226 -224 -372
-455 -479 -758 l-42 -119 -191 332 c-106 183 -192 340 -192 350 0 32 61 192
112 295 129 256 317 463 578 635 138 91 418 228 467 229 12 1 171 -85 354
-191z m-3733 37 c38 -7 90 -21 118 -30 91 -30 268 -124 357 -190 l87 -65 0
-240 c0 -132 -2 -240 -5 -240 -4 0 -47 30 -98 66 -211 152 -414 243 -637 286
-90 17 -357 15 -448 -4 -40 -8 -71 -12 -70 -7 2 4 55 98 118 208 112 195 116
201 155 212 109 30 291 32 423 4z m1519 -6 c43 -6 83 -16 89 -22 19 -19 236
-399 231 -403 -3 -3 -55 0 -117 7 -151 16 -386 6 -512 -21 -214 -45 -430 -152
-579 -287 -20 -18 -39 -33 -43 -33 -3 0 -6 108 -6 239 l0 239 47 42 c142 125
330 211 521 239 84 13 279 13 369 0z m-4277 -306 c549 -204 970 -644 1235
-1291 l46 -112 -241 -418 c-133 -229 -245 -420 -249 -424 -4 -4 -24 36 -45 90
-121 308 -310 637 -505 879 -90 113 -284 307 -386 389 -231 184 -517 336 -807
430 -49 15 -85 31 -80 36 4 4 194 115 422 246 l414 240 51 -15 c27 -8 93 -31
145 -50z m7218 -144 c202 -116 393 -227 425 -246 l59 -35 -134 -56 c-862 -357
-1418 -920 -1664 -1684 -15 -49 -31 -85 -35 -80 -26 26 -482 831 -481 848 3
38 73 228 126 339 196 410 510 722 963 957 105 55 352 166 371 168 2 0 169
-95 370 -211z m-4620 11 c54 -11 126 -29 162 -40 147 -48 351 -160 503 -277
l57 -44 0 -305 c0 -167 -3 -304 -6 -304 -4 0 -45 29 -93 64 -395 295 -805 428
-1211 395 -67 -5 -153 -16 -192 -24 -38 -8 -73 -15 -78 -15 -7 0 275 504 295
528 2 2 43 12 91 22 126 26 344 27 472 0z m1948 -11 c40 -6 78 -16 83 -23 15
-18 302 -518 299 -521 -2 -2 -28 1 -58 6 -142 23 -350 31 -487 20 -389 -33
-696 -155 -965 -385 l-78 -67 0 310 0 310 66 55 c216 184 445 278 749 310 63
6 309 -3 391 -15z m-5502 -339 c759 -240 1324 -805 1675 -1673 l52 -129 -99
-171 c-383 -667 -518 -897 -523 -897 -4 0 -10 12 -14 28 -11 46 -134 330 -201
463 -266 533 -611 964 -1021 1275 -277 210 -616 384 -945 486 -60 18 -108 35
-108 38 0 11 1062 619 1073 615 7 -2 56 -18 111 -35z m9216 -262 c278 -160
514 -297 524 -304 18 -13 18 -13 -5 -23 -506 -205 -816 -374 -1139 -622 -523
-400 -901 -937 -1092 -1551 -18 -60 -35 -108 -38 -108 -4 0 -465 791 -582
1000 l-37 66 48 144 c197 589 562 1035 1131 1385 193 119 633 322 670 309 8
-3 242 -136 520 -296z m-5828 52 c272 -57 553 -194 811 -393 l77 -59 0 -389
c0 -214 -2 -389 -5 -389 -3 0 -40 28 -82 61 -214 170 -491 326 -733 413 -333
121 -707 148 -1065 80 -44 -8 -88 -18 -97 -20 -12 -4 25 69 108 213 69 120
157 273 195 339 l70 121 77 17 c136 29 203 35 377 31 121 -3 198 -10 267 -25z
m2443 -13 c43 -8 80 -18 82 -23 2 -5 88 -155 192 -334 103 -179 187 -326 186
-328 -2 -2 -56 5 -121 15 -166 24 -603 25 -753 0 -220 -36 -398 -91 -580 -178
-178 -85 -398 -235 -495 -338 -17 -17 -33 -31 -38 -31 -4 0 -8 174 -8 386 l0
386 33 31 c243 228 535 370 857 416 41 6 86 13 100 15 52 9 468 -4 545 -17z
m-2857 -658 c243 -26 483 -98 719 -214 156 -77 397 -231 516 -329 l67 -56 0
-491 c0 -469 -1 -490 -18 -477 -10 7 -63 47 -118 89 -631 482 -1290 698 -1944
638 -129 -11 -266 -33 -354 -55 -32 -8 -61 -13 -63 -10 -7 6 464 827 483 842
15 12 206 51 314 63 109 12 287 13 398 0z m3013 -20 c158 -12 319 -35 329 -46
18 -20 482 -834 478 -838 -3 -3 -49 2 -104 10 -352 51 -784 47 -1086 -10 -471
-89 -920 -314 -1240 -621 -31 -30 -59 -54 -62 -54 -3 0 -6 220 -6 489 l0 489
68 62 c427 393 981 570 1623 519z m-3211 -862 c509 -91 931 -288 1403 -656
l97 -76 0 -617 c0 -340 -2 -618 -5 -618 -2 0 -42 31 -89 68 -238 191 -519 372
-786 505 -429 215 -810 323 -1255 358 -299 23 -573 -2 -979 -88 -16 -3 -27 -2
-24 3 2 5 141 246 308 535 l303 526 92 22 c83 19 230 44 325 55 84 10 528 -3
610 -17z m3800 -22 c134 -16 241 -32 246 -37 9 -10 613 -1062 610 -1065 -1 -1
-65 6 -142 16 -260 37 -379 45 -654 45 -318 0 -469 -13 -740 -66 -557 -107
-1079 -371 -1501 -758 -48 -44 -90 -80 -93 -80 -3 0 -6 276 -6 614 l0 614 83
77 c408 381 918 601 1522 655 130 12 529 3 675 -15z"/>
</g>
</svg>
