<?xml version="1.0" standalone="no"?>
<!DOCTYPE svg PUBLIC "-//W3C//DTD SVG 20010904//EN"
 "http://www.w3.org/TR/2001/REC-SVG-20010904/DTD/svg10.dtd">
<svg version="1.0" xmlns="http://www.w3.org/2000/svg"
 width="1280.000000pt" height="1276.000000pt" viewBox="0 0 1280.000000 1276.000000"
 preserveAspectRatio="xMidYMid meet">
<metadata>
Created by potrace 1.15, written by Peter Selinger 2001-2017
</metadata>
<g transform="translate(0.000000,1276.000000) scale(0.100000,-0.100000)"
fill="#000000" stroke="none">
<path d="M6317 12633 c-332 -526 -537 -1109 -609 -1728 -20 -167 -16 -620 5
-775 45 -318 145 -644 265 -860 35 -63 36 -64 43 -37 12 43 29 232 29 313 0
58 -6 88 -31 150 -122 304 -151 776 -78 1256 11 73 23 151 26 173 l6 40 -23
-20 -23 -20 6 51 c27 241 239 860 302 884 12 5 28 23 35 42 8 18 39 86 71 151
l57 118 24 -43 c13 -24 47 -92 74 -151 33 -73 56 -112 70 -117 62 -24 274
-645 301 -884 l6 -51 -23 20 -23 20 6 -40 c3 -22 15 -98 25 -170 74 -484 45
-955 -77 -1259 -26 -64 -31 -92 -31 -156 0 -83 17 -262 29 -307 7 -26 9 -24
43 38 79 142 145 318 198 524 70 273 95 516 86 830 -19 698 -235 1394 -623
2008 -41 64 -78 117 -83 117 -5 0 -42 -53 -83 -117z"/>
<path d="M5857 12028 c-138 -75 -440 -416 -535 -604 -204 -406 -342 -959 -342
-1378 l0 -118 69 -117 c38 -64 106 -172 151 -241 l82 -125 -6 115 c-12 206 24
536 74 674 10 28 26 89 35 136 37 195 120 406 203 514 20 27 40 54 43 60 4 6
16 81 28 166 34 253 113 542 222 818 27 67 49 125 49 127 0 10 -16 4 -73 -27z"/>
<path d="M6220 11982 c-58 -138 -150 -425 -195 -607 -25 -99 -45 -186 -45
-193 0 -10 7 -12 25 -8 35 9 88 -18 120 -60 60 -78 131 -260 220 -561 27 -90
51 -163 55 -163 4 0 28 73 55 163 89 301 160 483 220 561 32 42 85 69 120 60
17 -4 25 -2 25 7 -1 75 -165 623 -240 800 l-32 77 -34 -11 c-37 -11 -104 -77
-104 -102 0 -8 -4 -15 -10 -15 -5 0 -10 7 -10 15 0 25 -67 91 -104 102 l-34
11 -32 -76z"/>
<path d="M6870 12055 c0 -2 22 -60 49 -127 109 -276 188 -565 222 -818 12 -85
24 -160 28 -166 3 -6 23 -33 43 -60 82 -107 165 -317 204 -514 9 -47 27 -116
39 -155 49 -149 80 -437 69 -645 l-6 -125 97 149 c53 82 121 191 151 243 l54
94 0 113 c0 408 -119 904 -321 1334 -98 209 -409 572 -555 650 -61 32 -74 36
-74 27z"/>
<path d="M3986 11603 c-28 -231 -36 -358 -36 -598 0 -506 79 -1006 229 -1449
22 -66 39 -121 37 -123 -2 -2 -25 49 -51 114 -215 536 -319 1018 -332 1531 -3
122 -7 221 -9 219 -2 -2 -12 -53 -21 -113 -21 -139 -24 -652 -5 -824 37 -333
120 -772 189 -995 6 -19 5 -19 -23 0 -473 311 -1043 576 -1469 684 -90 22
-281 61 -299 60 -6 0 57 -24 139 -53 540 -189 1058 -495 1485 -877 32 -28 30
-28 -15 5 -532 383 -998 612 -1579 777 -135 38 -462 109 -501 109 -23 0 -3
-19 309 -284 336 -284 525 -457 771 -707 442 -450 671 -718 893 -1051 203
-304 395 -670 512 -973 20 -52 42 -80 164 -203 133 -134 226 -214 226 -194 0
36 -123 404 -205 612 -103 260 -184 436 -414 899 -235 472 -281 594 -235 632
46 38 288 -89 464 -245 397 -351 852 -1134 945 -1628 7 -40 34 -131 59 -201
25 -71 59 -177 75 -236 l29 -108 -107 -85 c-58 -47 -151 -116 -206 -153 -55
-37 -129 -95 -165 -129 -87 -82 -180 -150 -341 -246 -404 -243 -896 -429
-1280 -486 -141 -20 -380 -16 -485 10 -67 16 -114 44 -114 67 0 25 88 100 182
156 57 33 238 130 403 216 460 237 658 350 935 532 153 101 440 311 440 322 0
11 -173 -6 -334 -32 -135 -22 -164 -30 -201 -55 -78 -54 -354 -208 -508 -284
-377 -185 -783 -326 -1207 -420 -520 -115 -1063 -194 -1590 -231 -290 -21
-450 -34 -479 -41 l-24 -5 29 -17 c83 -49 364 -170 544 -233 128 -46 377 -116
524 -149 315 -70 566 -100 906 -109 240 -6 250 -7 165 -16 -133 -15 -688 -12
-830 3 -292 32 -601 94 -847 170 -71 22 -128 38 -128 36 0 -2 39 -23 88 -45
356 -166 776 -281 1277 -349 125 -17 394 -40 463 -40 34 0 62 -3 62 -7 0 -5
-57 -56 -128 -114 -388 -325 -735 -703 -965 -1054 -80 -123 -184 -305 -174
-305 3 0 33 39 68 87 232 320 582 664 940 925 102 74 309 210 389 255 l25 15
-25 -21 c-14 -11 -72 -54 -130 -97 -182 -133 -329 -262 -521 -453 -271 -271
-459 -505 -649 -807 -60 -95 -210 -359 -210 -369 0 -10 73 32 265 151 572 354
865 515 1365 749 702 328 1279 484 2003 541 85 6 95 10 235 82 81 41 176 93
211 115 l64 41 -34 9 c-19 5 -165 7 -334 4 -413 -8 -692 -37 -1345 -137 -421
-65 -532 -71 -582 -30 -20 16 -21 20 -8 51 21 51 173 197 280 268 364 243 966
421 1566 463 139 10 194 9 286 -1 62 -7 207 -13 323 -12 116 0 237 -2 269 -7
l59 -7 44 -114 c24 -62 60 -170 79 -240 20 -69 49 -151 64 -181 86 -168 164
-469 211 -820 26 -199 37 -624 20 -796 -30 -294 -116 -564 -218 -684 -44 -51
-69 -50 -100 5 -37 66 -61 175 -133 607 -94 562 -153 842 -241 1147 -36 123
-111 350 -135 406 l-17 40 -14 -40 c-8 -22 -29 -129 -48 -239 l-34 -198 34
-142 c99 -411 145 -800 145 -1226 0 -328 -17 -541 -81 -1005 -58 -425 -100
-641 -234 -1200 -46 -192 -87 -366 -90 -385 l-7 -35 47 45 c118 113 341 380
473 567 269 380 513 875 638 1291 15 51 29 90 31 88 7 -7 -79 -330 -127 -476
-143 -436 -327 -799 -610 -1205 l-42 -60 83 85 c310 319 634 856 865 1432 32
81 61 148 64 148 3 0 16 -28 29 -62 229 -599 575 -1183 893 -1511 88 -90 89
-91 47 -32 -278 398 -466 769 -609 1205 -48 146 -134 469 -127 476 2 2 16 -38
31 -89 164 -551 502 -1161 897 -1623 106 -123 250 -276 256 -271 5 6 -18 110
-92 412 -143 584 -217 995 -279 1555 -73 652 -37 1270 109 1876 l34 140 -34
200 c-19 109 -40 217 -48 239 l-15 40 -12 -30 c-64 -162 -142 -414 -204 -660
-56 -226 -103 -463 -176 -902 -38 -227 -78 -448 -90 -491 -25 -94 -59 -156
-85 -160 -69 -10 -191 244 -244 505 -64 315 -52 854 29 1273 46 233 109 441
169 558 16 32 45 114 65 183 19 70 55 178 79 240 l44 114 59 7 c32 5 154 7
269 7 121 -1 250 4 305 11 262 35 813 -42 1235 -172 238 -73 469 -178 635
-289 113 -75 253 -210 276 -264 15 -38 15 -40 -5 -56 -49 -40 -161 -34 -581
31 -653 100 -932 129 -1345 137 -169 3 -315 1 -334 -4 l-34 -9 64 -41 c35 -22
130 -74 211 -115 140 -72 150 -76 235 -82 724 -57 1301 -213 2003 -541 497
-233 792 -394 1325 -725 218 -136 305 -186 305 -175 0 8 -148 271 -188 335
-215 340 -393 562 -671 841 -192 191 -339 320 -521 453 -58 43 -116 86 -130
97 l-25 21 25 -15 c80 -45 287 -181 389 -255 356 -259 692 -590 933 -916 83
-113 88 -114 33 -11 -209 395 -629 882 -1097 1274 -71 58 -128 109 -128 114 0
4 28 7 63 7 68 0 337 23 462 40 353 48 660 118 944 215 146 51 393 155 415
175 5 5 -49 -9 -120 -31 -248 -77 -557 -139 -849 -171 -142 -15 -697 -18 -830
-3 -85 9 -75 10 165 16 582 16 1103 122 1630 334 121 49 296 128 344 157 l29
17 -24 5 c-29 7 -189 20 -479 41 -527 37 -1070 116 -1590 231 -597 132 -1171
364 -1669 676 l-93 58 -156 25 c-158 26 -332 43 -332 32 0 -9 229 -180 375
-279 271 -184 523 -329 995 -573 168 -86 351 -185 408 -218 94 -56 182 -131
182 -156 0 -23 -47 -51 -114 -67 -105 -26 -344 -30 -485 -10 -390 58 -889 248
-1297 496 -149 90 -241 157 -324 236 -36 34 -109 91 -162 127 -54 35 -147 104
-207 152 l-109 88 29 108 c16 59 50 165 75 236 25 70 52 161 59 201 36 189
113 396 245 657 249 492 567 899 852 1090 142 95 281 151 312 126 46 -38 0
-160 -235 -632 -230 -463 -311 -639 -414 -899 -82 -208 -205 -576 -205 -612 0
-20 93 60 226 194 122 123 144 151 164 203 80 207 228 510 358 730 253 428
522 760 1042 1289 251 254 438 427 776 712 312 265 332 284 309 284 -10 0 -96
-16 -191 -35 -607 -124 -1176 -365 -1694 -717 -80 -54 -167 -115 -195 -135
-67 -49 -41 -23 75 73 434 364 882 620 1395 800 83 29 145 53 139 53 -18 1
-209 -38 -299 -60 -426 -108 -996 -373 -1469 -684 -28 -19 -29 -19 -23 0 77
266 147 628 184 950 31 271 21 825 -16 963 -5 15 -10 -73 -14 -198 -13 -516
-117 -997 -332 -1533 -26 -65 -49 -116 -51 -114 -2 2 15 57 37 123 106 315
182 685 214 1052 28 310 15 771 -29 1052 l-13 85 -28 -60 c-15 -33 -78 -184
-140 -335 -210 -513 -338 -784 -573 -1215 -250 -459 -432 -736 -691 -1045
-121 -146 -472 -499 -616 -620 l-110 -93 -87 -173 c-86 -174 -124 -264 -109
-264 13 0 239 157 351 244 266 206 489 407 915 826 304 299 396 379 461 400
55 19 69 -1 67 -93 -8 -331 -256 -783 -690 -1260 -208 -228 -498 -473 -649
-549 -38 -19 -108 -65 -154 -102 -47 -37 -142 -106 -212 -153 l-128 -85 -127
85 c-71 47 -166 116 -213 153 -46 37 -116 83 -154 102 -151 76 -441 321 -649
549 -435 478 -682 929 -690 1260 -2 92 12 112 67 93 65 -21 156 -101 488 -426
434 -426 673 -640 948 -845 126 -95 279 -199 291 -199 15 0 -23 92 -110 264
l-86 173 -110 93 c-145 122 -495 475 -616 620 -322 385 -573 790 -907 1460
-128 256 -213 448 -380 855 -98 239 -140 335 -145 335 -2 0 -11 -62 -21 -137z
m524 -2738 c437 -716 1025 -1305 1716 -1721 106 -63 166 -94 181 -91 12 2 91
46 176 97 768 461 1436 1175 1858 1985 43 83 79 147 79 143 0 -14 -103 -245
-167 -373 -438 -875 -1140 -1573 -1845 -1834 l-108 -40 -105 39 c-361 134
-699 362 -1035 699 -333 334 -595 700 -812 1136 -69 139 -168 357 -168 371 0
5 36 -58 79 -141 43 -82 111 -204 151 -270z m-185 -147 c651 -664 1058 -1465
1115 -2193 15 -188 18 -173 -54 -265 -343 -435 -895 -793 -1575 -1020 -327
-109 -753 -196 -1061 -215 -78 -5 -72 -3 76 24 951 171 1810 582 2508 1200
l103 92 -14 77 c-76 406 -269 936 -489 1345 -239 443 -493 790 -874 1191 l-95
100 105 -91 c58 -50 173 -160 255 -245z m4376 195 c-374 -396 -653 -789 -886
-1248 -196 -387 -368 -877 -439 -1252 l-13 -72 101 -89 c704 -624 1556 -1032
2510 -1203 148 -27 154 -29 76 -24 -308 19 -734 106 -1061 215 -681 227 -1231
584 -1577 1023 -70 88 -67 74 -52 266 43 549 301 1174 714 1724 134 179 226
287 386 451 112 115 356 344 368 346 2 0 -55 -62 -127 -137z m-2936 -1906
c115 -70 348 -184 503 -246 l132 -53 133 53 c165 66 412 189 537 268 52 33 96
59 97 57 1 -1 -9 -45 -22 -97 -33 -131 -71 -367 -84 -529 -6 -74 -13 -154 -15
-178 -4 -42 -1 -45 119 -185 124 -144 343 -363 428 -427 25 -19 47 -38 47 -42
0 -5 -26 -8 -58 -8 -187 0 -750 -107 -790 -150 -59 -64 -287 -486 -353 -652
-19 -49 -36 -88 -39 -88 -3 0 -20 39 -39 88 -66 166 -294 588 -353 652 -40 43
-603 150 -790 150 -32 0 -58 3 -58 8 0 4 22 23 47 42 84 64 304 283 428 427
l122 142 -4 53 c-25 335 -66 601 -120 783 -6 19 -5 19 23 0 16 -11 65 -41 109
-68z m-355 -1692 c133 -20 376 -80 398 -98 32 -25 155 -227 217 -352 137 -282
230 -593 284 -955 34 -229 44 -412 38 -704 -7 -341 -28 -527 -99 -875 -35
-170 -49 -189 -24 -33 32 199 47 383 53 642 13 612 -69 1166 -257 1730 -58
174 -180 483 -209 529 -18 28 -245 44 -616 45 -356 1 -431 -4 -725 -45 -530
-75 -1077 -244 -1548 -480 -85 -42 -150 -73 -145 -68 24 24 290 172 448 249
505 247 970 378 1530 434 106 10 545 -2 655 -19z m2810 1 c567 -76 1156 -281
1665 -581 163 -95 182 -114 45 -41 -453 237 -1057 428 -1600 505 -280 39 -387
46 -735 45 -361 -1 -589 -18 -606 -45 -29 -46 -151 -355 -209 -529 -139 -415
-220 -832 -251 -1286 -22 -314 -1 -783 47 -1086 25 -156 11 -137 -24 33 -71
348 -92 534 -99 875 -6 292 4 475 38 704 54 362 147 673 284 955 62 125 185
327 217 352 36 30 324 90 558 117 88 10 552 -3 670 -18z"/>
<path d="M6194 6225 c17 -101 22 -115 39 -115 22 0 89 -32 125 -59 23 -17 22
-17 -42 -10 -36 3 -76 13 -89 22 -23 15 -26 14 -108 -69 -46 -46 -80 -84 -75
-84 5 0 56 -7 114 -16 87 -13 107 -13 111 -2 6 17 102 118 112 118 15 0 -40
-114 -64 -133 l-23 -18 51 -104 c27 -57 52 -104 55 -104 3 0 28 47 55 104 l51
104 -23 18 c-24 19 -79 133 -64 133 10 0 106 -101 112 -118 4 -11 24 -11 111
2 58 9 109 16 114 16 5 0 -29 38 -75 84 -82 83 -85 84 -108 69 -13 -9 -53 -19
-89 -22 -64 -7 -65 -7 -42 10 36 28 103 59 126 59 17 0 21 9 27 53 4 28 13 80
20 115 7 35 10 62 6 60 -4 -2 -50 -25 -104 -53 -90 -46 -97 -52 -92 -74 7 -26
-14 -151 -25 -151 -11 0 -32 125 -25 151 5 22 -2 28 -92 74 -54 28 -100 51
-103 53 -3 1 3 -49 14 -113z"/>
<path d="M6157 10575 c-26 -162 -31 -322 -32 -940 -1 -734 -1 -734 -66 -789
l-31 -26 126 -248 c193 -380 241 -472 246 -472 6 0 61 107 246 473 l125 247
-30 26 c-65 54 -65 55 -67 799 -1 530 -4 700 -17 813 -8 79 -17 145 -19 147
-2 3 -15 -28 -27 -68 -13 -39 -57 -166 -98 -282 -68 -194 -75 -219 -83 -325
-27 -345 -34 -346 -60 -9 -9 118 -13 134 -88 349 -44 124 -88 252 -99 285
l-20 60 -6 -40z"/>
<path d="M5195 8750 c25 -84 128 -326 191 -450 216 -428 536 -783 942 -1045
l73 -47 112 76 c402 270 698 607 911 1036 71 143 193 437 184 445 -2 1 -87
-72 -190 -164 -160 -141 -193 -175 -219 -226 -97 -190 -368 -446 -688 -649
-58 -36 -108 -66 -111 -66 -3 0 -53 30 -111 66 -322 205 -602 470 -694 657
-21 44 -51 77 -138 154 -62 53 -148 129 -191 167 -62 56 -77 65 -71 46z"/>
<path d="M1885 8750 c-232 -14 -319 -29 -475 -80 -260 -86 -465 -189 -556
-279 -25 -24 -43 -45 -41 -48 3 -2 94 1 204 6 297 15 566 -2 830 -50 l112 -21
58 20 c109 37 174 46 348 46 460 2 794 -53 1088 -178 20 -9 37 -14 37 -10 0
10 -256 318 -317 381 -56 58 -61 61 -168 92 -255 72 -448 105 -715 121 -191
11 -212 11 -405 0z"/>
<path d="M10480 8750 c-235 -16 -446 -53 -685 -121 -107 -31 -112 -34 -168
-92 -61 -63 -317 -371 -317 -381 0 -4 17 1 38 10 293 125 627 180 1087 178
174 0 239 -9 348 -46 l58 -20 112 21 c264 48 533 65 830 50 110 -5 201 -8 203
-6 2 2 -16 24 -41 48 -90 90 -294 193 -557 280 -125 41 -170 51 -290 63 -192
20 -453 26 -618 16z"/>
<path d="M955 8274 c-308 -20 -661 -77 -887 -145 l-68 -20 82 -102 c115 -141
360 -390 503 -511 560 -475 1173 -768 1830 -873 156 -25 597 -25 740 0 54 10
101 20 104 22 7 8 -180 92 -279 126 -90 30 -102 31 -231 30 -355 -5 -723 95
-1177 318 -169 84 -182 88 -176 66 3 -14 3 -25 -2 -25 -17 0 -218 119 -339
200 -203 138 -443 342 -441 377 1 12 -43 60 -122 133 -86 78 -120 115 -110
120 17 9 250 40 301 40 24 0 36 -4 32 -10 -15 -25 8 -92 44 -131 l38 -39 -26
0 c-40 0 -114 -41 -131 -73 -15 -28 -14 -29 25 -63 135 -117 422 -321 606
-432 113 -68 119 -70 119 -40 0 33 25 65 69 88 73 37 160 45 488 45 171 0 309
3 307 7 -3 4 -55 42 -117 84 -438 302 -567 438 -502 531 14 20 13 21 -18 27
-103 18 -388 28 -629 23 -216 -4 -268 -3 -268 8 0 22 213 40 480 40 213 -1
346 -9 467 -31 l33 -6 -22 -18 -22 -18 29 -5 c17 -4 66 -11 110 -17 478 -68
950 -246 1221 -461 59 -47 96 -68 163 -90 89 -31 312 -80 321 -72 9 10 -205
205 -315 288 -427 321 -963 519 -1595 590 -134 15 -520 26 -635 19z"/>
<path d="M11440 8274 c-720 -41 -1347 -250 -1825 -609 -110 -83 -324 -278
-315 -288 9 -8 232 41 321 72 67 22 104 43 163 90 271 215 743 393 1221 461
44 6 93 13 110 17 l29 5 -22 18 -22 18 33 6 c123 22 253 30 467 31 267 0 480
-18 480 -40 0 -11 -52 -12 -267 -8 -242 5 -527 -5 -630 -23 -31 -6 -32 -7 -18
-27 65 -93 -64 -229 -502 -531 -62 -42 -114 -80 -117 -84 -2 -4 136 -7 307 -7
328 0 415 -8 488 -45 44 -23 69 -55 69 -88 0 -30 6 -28 119 40 184 111 469
314 606 432 40 34 40 35 24 63 -19 32 -91 73 -130 73 l-26 0 38 39 c36 39 59
106 44 131 -4 6 8 10 32 10 51 0 284 -31 301 -40 10 -5 -24 -42 -110 -120 -79
-73 -123 -121 -122 -133 2 -35 -238 -239 -441 -377 -121 -81 -322 -200 -339
-200 -5 0 -5 11 -2 25 6 22 -7 18 -176 -66 -454 -223 -822 -323 -1177 -318
-129 1 -141 0 -231 -30 -99 -34 -286 -118 -279 -126 3 -2 50 -12 104 -22 128
-22 572 -25 710 -5 664 100 1293 397 1860 878 143 121 388 370 503 511 l82
102 -68 20 c-169 51 -441 102 -667 126 -140 15 -502 26 -625 19z"/>
<path d="M4172 8020 c3 -8 47 -112 98 -230 85 -198 98 -220 153 -279 156 -168
286 -440 388 -811 29 -107 39 -158 32 -169 -17 -28 -225 -191 -353 -276 -223
-148 -403 -232 -559 -259 -75 -13 -96 -22 -288 -136 -115 -68 -211 -126 -215
-130 -26 -22 434 20 612 56 418 84 827 274 1144 532 39 31 76 62 83 67 11 8 9
24 -7 85 -171 627 -484 1086 -1030 1515 -35 27 -61 43 -58 35z"/>
<path d="M8500 7928 c-470 -381 -768 -818 -933 -1368 -19 -63 -37 -126 -40
-140 -6 -23 4 -34 77 -93 410 -330 897 -528 1431 -581 170 -17 349 -25 337
-16 -4 4 -100 62 -215 130 -192 114 -213 123 -288 136 -156 27 -336 111 -559
259 -128 85 -336 248 -353 276 -7 11 3 62 32 169 102 371 232 643 388 811 56
59 68 81 157 288 53 123 95 225 93 227 -1 1 -59 -43 -127 -98z"/>
<path d="M2327 7513 c114 -86 224 -168 243 -183 19 -15 94 -51 165 -80 72 -29
150 -64 175 -77 l45 -24 -40 6 c-22 4 -105 22 -184 41 -159 38 -186 39 -550
27 -232 -7 -229 -2 -41 -80 172 -73 440 -167 690 -243 388 -118 582 -181 646
-210 77 -34 144 -94 144 -126 0 -13 5 -24 11 -24 40 0 783 122 792 130 4 4
-120 137 -277 295 -275 278 -286 288 -305 271 -32 -29 -83 -38 -154 -26 -95
15 -196 46 -552 170 -314 109 -525 176 -714 225 -113 30 -269 65 -288 65 -8 0
80 -70 194 -157z"/>
<path d="M10605 7660 c-16 -4 -64 -15 -105 -25 -214 -48 -489 -134 -1007 -314
-343 -119 -459 -140 -523 -93 l-32 24 -284 -288 c-157 -158 -281 -290 -277
-294 9 -8 752 -130 792 -130 6 0 11 11 11 24 0 32 67 92 144 126 64 29 258 92
646 210 250 76 518 170 690 243 188 78 191 73 -41 80 -364 12 -391 11 -550
-27 -79 -19 -162 -37 -184 -41 l-40 -6 45 24 c25 13 104 48 175 77 72 29 146
65 165 80 19 15 129 97 243 183 202 153 217 170 132 147z"/>
<path d="M520 7418 c0 -116 142 -393 329 -642 137 -182 511 -475 827 -650 128
-70 340 -164 467 -206 82 -27 106 -31 150 -26 48 7 332 77 457 113 l55 16
-119 34 c-229 65 -510 191 -606 273 -19 17 -65 45 -101 64 -174 91 -379 259
-449 369 -33 52 -42 58 -164 118 -271 132 -535 307 -793 527 l-53 44 0 -34z"/>
<path d="M12240 7418 c-268 -228 -527 -401 -806 -537 -111 -54 -133 -69 -152
-101 -66 -115 -274 -288 -467 -389 -33 -17 -76 -44 -95 -61 -96 -82 -377 -208
-606 -273 l-119 -34 55 -16 c125 -36 409 -106 457 -113 44 -5 68 -1 150 26
220 73 499 213 717 359 225 152 479 367 564 481 203 269 353 563 340 664 l-3
24 -35 -30z"/>
<path d="M5252 5079 c-226 -16 -489 -73 -708 -154 -147 -54 -421 -192 -574
-290 -141 -90 -183 -122 -145 -111 11 3 126 15 255 26 208 19 240 24 277 46
64 37 209 82 339 105 136 24 493 36 654 22 l95 -8 36 -91 c152 -380 221 -725
190 -951 l-12 -88 54 -240 c46 -199 57 -236 65 -215 32 82 98 373 124 545 21
141 18 590 -5 735 -25 158 -86 390 -141 541 l-47 126 -112 6 c-130 8 -190 7
-345 -4z"/>
<path d="M7168 5083 l-76 -4 -47 -127 c-54 -146 -115 -378 -142 -537 -23 -139
-26 -598 -5 -740 26 -172 92 -463 124 -545 8 -21 19 16 64 215 l55 240 -12 85
c-31 227 38 574 190 954 l36 91 95 8 c161 14 518 2 654 -22 130 -23 275 -68
339 -105 37 -22 69 -27 277 -46 129 -11 244 -23 255 -26 72 -19 -248 181 -450
281 -340 168 -635 249 -1000 275 -135 9 -192 10 -357 3z"/>
<path d="M4831 4185 c-189 -96 -349 -179 -356 -185 -7 -6 -10 -29 -7 -62 7
-98 -23 -148 -369 -608 -134 -179 -290 -392 -345 -475 -109 -162 -238 -375
-231 -381 2 -2 15 4 28 15 13 10 123 87 244 171 184 127 230 164 280 224 94
112 188 217 192 212 4 -4 -89 -167 -152 -266 -31 -50 -54 -107 -94 -243 -29
-98 -68 -226 -86 -285 -19 -58 -32 -108 -30 -110 5 -5 143 154 251 289 115
144 240 315 419 574 284 410 363 497 450 497 19 0 35 1 35 2 0 1 9 52 19 112
11 60 38 231 61 379 22 149 43 280 45 293 3 12 2 22 -2 22 -5 0 -163 -79 -352
-175z"/>
<path d="M7615 4338 c2 -13 23 -144 45 -293 23 -148 50 -319 61 -379 10 -60
19 -111 19 -112 0 -1 16 -2 35 -2 87 0 166 -87 450 -497 178 -258 303 -429
421 -576 102 -129 244 -292 250 -287 2 2 -12 52 -31 110 -18 59 -57 187 -86
285 -41 139 -62 193 -96 246 -65 102 -154 259 -150 263 4 5 97 -98 192 -212
50 -60 96 -97 280 -224 121 -84 231 -161 244 -171 13 -11 26 -17 28 -15 7 6
-122 219 -231 381 -55 83 -211 296 -345 475 -347 461 -376 510 -368 609 4 51
2 54 -27 72 -41 25 -682 349 -690 349 -4 0 -4 -10 -1 -22z"/>
<path d="M3310 3859 c-96 -38 -215 -87 -265 -109 -85 -39 -93 -45 -142 -113
-218 -305 -391 -688 -491 -1092 -62 -248 -65 -271 -59 -510 5 -228 20 -347 58
-471 20 -67 57 -140 66 -131 2 3 21 71 43 153 77 293 194 596 315 815 54 97
55 101 55 178 0 154 48 345 134 531 25 52 52 120 61 150 50 165 200 417 381
638 15 17 25 32 23 31 -2 -1 -83 -32 -179 -70z"/>
<path d="M9335 3897 c177 -217 330 -473 380 -637 9 -30 36 -98 61 -151 87
-191 134 -376 134 -530 0 -77 1 -81 55 -178 120 -216 240 -527 315 -815 22
-82 41 -150 43 -153 9 -9 46 64 66 131 38 124 53 243 58 471 6 239 3 262 -59
510 -99 401 -273 788 -489 1089 -53 74 -56 76 -154 120 -55 25 -176 74 -268
109 l-168 65 26 -31z"/>
<path d="M4105 3632 c-840 -438 -1482 -1478 -1630 -2643 -19 -156 -33 -399
-22 -399 4 0 65 23 135 51 383 155 724 354 1057 618 155 123 486 454 599 601
293 378 496 795 570 1170 13 69 26 145 29 170 l5 45 -77 -82 c-42 -45 -104
-118 -136 -162 -49 -67 -63 -97 -86 -178 -85 -302 -281 -620 -596 -966 -65
-70 -142 -149 -172 -175 l-55 -47 33 -5 34 -5 -94 -85 c-195 -178 -372 -307
-606 -444 -60 -34 -87 -45 -98 -38 -13 7 10 25 106 87 155 100 362 255 507
380 l113 97 -30 19 c-44 26 -55 55 -53 139 1 95 38 241 132 513 40 115 70 210
68 212 -2 2 -69 -46 -148 -106 -289 -220 -446 -315 -538 -326 -42 -5 -52 -2
-80 22 -18 15 -34 26 -36 24 -2 -2 -28 -63 -59 -135 -66 -155 -162 -438 -208
-611 -18 -68 -36 -123 -40 -123 -18 0 -18 23 1 117 49 239 135 497 237 716 45
95 63 117 63 77 0 -38 16 -20 59 68 233 475 544 866 843 1059 70 46 124 107
196 225 48 78 95 169 90 173 -2 2 -53 -22 -113 -53z m-1176 -2411 c-9 -42 0
-87 25 -123 9 -12 16 -26 16 -29 0 -9 -125 -82 -227 -133 l-72 -36 6 38 c3 20
18 96 32 167 29 143 19 132 102 119 25 -5 47 0 75 14 52 28 53 28 43 -17z"/>
<path d="M8580 3685 c0 -10 51 -106 92 -173 72 -118 126 -179 196 -225 299
-193 610 -584 843 -1059 43 -88 59 -106 59 -68 0 40 18 18 63 -77 73 -157 131
-314 183 -496 35 -125 75 -317 69 -328 -12 -18 -23 -9 -30 24 -18 79 -99 349
-141 465 -39 108 -140 359 -150 371 -2 2 -18 -9 -36 -24 -28 -24 -38 -27 -80
-22 -92 11 -254 109 -538 326 -80 61 -146 108 -148 106 -2 -2 28 -97 68 -212
94 -272 131 -418 132 -513 2 -84 -9 -113 -53 -139 l-30 -19 113 -97 c145 -125
352 -280 507 -380 96 -62 119 -80 106 -87 -11 -7 -38 4 -98 38 -216 125 -423
277 -606 443 l-94 86 34 5 33 5 -55 47 c-30 26 -107 105 -172 175 -315 346
-511 664 -596 966 -23 81 -37 111 -86 178 -32 44 -94 117 -136 162 l-77 82 5
-45 c26 -231 116 -518 242 -775 162 -328 347 -581 641 -876 336 -337 685 -587
1095 -785 130 -63 393 -174 412 -174 10 0 -5 263 -22 400 -84 645 -327 1283
-678 1780 -219 310 -507 592 -783 766 -91 57 -284 158 -284 149z m1332 -2446
c30 -15 52 -20 77 -15 83 13 73 24 102 -119 14 -71 29 -147 32 -167 l6 -38
-72 36 c-102 51 -227 124 -227 133 0 3 7 17 16 29 25 36 34 81 25 123 -5 22
-7 39 -5 39 3 0 23 -9 46 -21z"/>
<path d="M5256 2549 c-98 -165 -332 -430 -457 -519 -34 -25 -103 -82 -152
-128 -138 -128 -312 -235 -452 -278 -55 -17 -71 -30 -200 -159 -199 -198 -453
-399 -677 -533 -43 -26 -78 -50 -78 -53 0 -26 217 -25 357 2 219 41 431 111
558 182 387 217 724 497 977 810 125 157 125 156 138 287 12 133 30 443 26
448 -2 1 -20 -25 -40 -59z"/>
<path d="M7505 2528 c3 -46 10 -150 15 -233 17 -255 16 -248 80 -335 258 -347
622 -660 1045 -897 127 -71 339 -141 558 -182 140 -27 357 -28 357 -2 0 3 -35
27 -77 53 -224 134 -479 334 -678 533 -129 128 -145 142 -200 159 -140 44
-314 151 -452 278 -49 46 -117 103 -151 127 -127 90 -359 353 -458 519 -20 34
-38 62 -41 62 -2 0 -1 -37 2 -82z"/>
</g>
</svg>
