<?xml version="1.0" standalone="no"?>
<!DOCTYPE svg PUBLIC "-//W3C//DTD SVG 20010904//EN"
 "http://www.w3.org/TR/2001/REC-SVG-20010904/DTD/svg10.dtd">
<svg version="1.0" xmlns="http://www.w3.org/2000/svg"
 width="1275.000000pt" height="1280.000000pt" viewBox="0 0 1275.000000 1280.000000"
 preserveAspectRatio="xMidYMid meet">
<metadata>
Created by potrace 1.15, written by Peter Selinger 2001-2017
</metadata>
<g transform="translate(0.000000,1280.000000) scale(0.100000,-0.100000)"
fill="#000000" stroke="none">
<path d="M5739 12763 c-20 -52 -69 -254 -89 -366 -120 -663 -47 -1278 225
-1894 36 -81 65 -155 65 -165 0 -9 5 -20 10 -23 7 -4 10 6 9 27 -1 18 10 74
24 123 82 281 120 556 120 885 1 331 -31 560 -124 876 -58 201 -203 564 -224
564 -3 0 -10 -12 -16 -27z"/>
<path d="M6790 12673 c-220 -494 -320 -1007 -290 -1487 16 -267 59 -523 126
-754 13 -45 24 -96 24 -112 0 -17 5 -30 10 -30 6 0 10 10 10 23 0 13 27 86 61
162 266 608 339 1225 220 1880 -30 165 -97 415 -111 415 -3 0 -26 -44 -50 -97z"/>
<path d="M4563 12483 c-4 -21 -8 -164 -8 -318 1 -211 5 -312 19 -410 53 -386
133 -651 301 -990 100 -202 185 -344 303 -504 39 -55 72 -106 72 -115 0 -9 4
-16 8 -16 5 0 8 163 7 363 -1 321 -4 378 -24 502 -58 363 -140 624 -297 936
-102 205 -232 414 -342 552 l-31 38 -8 -38z"/>
<path d="M7961 12407 c-246 -331 -443 -747 -537 -1131 -72 -298 -107 -686 -86
-966 5 -69 5 -135 1 -147 -5 -13 -5 -23 1 -23 5 0 12 10 16 22 3 12 32 56 64
97 128 169 278 419 368 616 180 393 265 768 279 1220 6 188 -3 425 -15 425 -4
0 -45 -51 -91 -113z"/>
<path d="M6260 12204 c0 -32 7 -248 16 -479 13 -340 14 -461 5 -633 -23 -437
-78 -687 -165 -758 l-31 -25 175 6 c96 3 208 8 249 11 l73 6 -30 18 c-83 51
-163 302 -211 666 -27 206 -40 395 -56 847 -7 214 -16 391 -19 395 -3 3 -6
-21 -6 -54z"/>
<path d="M5220 12146 c0 -5 36 -191 80 -415 109 -550 132 -703 150 -987 16
-267 -10 -467 -67 -520 -15 -13 -20 -24 -13 -24 16 0 427 78 454 87 17 5 14 8
-17 24 -89 46 -193 251 -299 589 -56 181 -106 397 -188 815 -46 231 -87 424
-91 430 -5 5 -9 5 -9 1z"/>
<path d="M7371 12149 c0 -3 -37 -204 -81 -445 -109 -591 -167 -828 -267 -1084
-75 -191 -143 -298 -208 -326 l-30 -12 25 -6 c53 -13 455 -84 458 -81 2 1 -8
14 -22 28 -60 60 -86 280 -67 572 16 261 39 423 126 909 42 230 74 426 72 435
-3 9 -5 13 -6 10z"/>
<path d="M9094 12032 c-128 -115 -263 -257 -384 -408 -349 -434 -575 -962
-659 -1539 -10 -66 -23 -130 -30 -143 -7 -13 -8 -22 -2 -22 5 0 12 8 15 18 4
10 44 51 90 91 231 198 487 505 651 783 171 287 293 604 370 961 24 114 58
337 52 343 -2 2 -48 -36 -103 -84z"/>
<path d="M3470 12028 c0 -12 9 -86 21 -163 87 -600 304 -1103 672 -1563 100
-125 459 -496 443 -457 -5 11 -13 47 -18 80 -38 251 -55 341 -93 490 -140 552
-396 1007 -804 1427 -68 71 -146 147 -173 169 -46 39 -48 40 -48 17z"/>
<path d="M8227 11437 c-176 -443 -265 -645 -367 -830 -143 -259 -284 -435
-365 -453 l-40 -10 227 -91 c126 -50 230 -87 234 -82 3 5 1 9 -4 9 -6 0 -17
18 -26 40 -45 113 10 442 139 835 39 119 266 709 382 993 3 6 1 12 -3 12 -5 0
-84 -190 -177 -423z"/>
<path d="M4180 11807 c0 -4 76 -195 169 -424 232 -571 320 -841 366 -1120 22
-134 18 -282 -9 -312 -11 -12 -17 -23 -14 -26 6 -6 428 162 443 176 5 5 -1 9
-16 9 -81 0 -240 196 -408 504 -100 183 -178 358 -356 796 -137 338 -175 424
-175 397z"/>
<path d="M9992 11517 c-168 -115 -304 -229 -478 -402 -186 -185 -264 -279
-383 -455 -189 -282 -340 -609 -431 -935 -19 -66 -41 -128 -49 -138 -23 -28
-4 -32 21 -4 13 14 63 53 111 85 232 156 550 449 716 661 244 309 437 683 554
1071 42 140 51 180 40 180 -4 0 -50 -29 -101 -63z"/>
<path d="M2500 11472 c0 -5 15 -61 34 -125 216 -735 653 -1336 1281 -1762 55
-38 113 -80 129 -94 16 -14 27 -21 24 -16 -2 6 -9 21 -15 35 -6 14 -28 81 -48
150 -110 377 -323 788 -565 1090 -169 211 -435 457 -676 626 -118 83 -164 109
-164 96z"/>
<path d="M9327 11443 c-2 -5 -96 -170 -207 -368 -276 -489 -398 -681 -576
-903 -141 -176 -300 -307 -350 -288 -9 3 -14 1 -12 -5 4 -13 408 -242 415
-236 2 3 -3 17 -13 32 -53 82 43 413 240 820 66 136 452 837 514 933 8 13 10
22 4 22 -6 0 -13 -3 -15 -7z"/>
<path d="M3261 11273 c13 -21 119 -182 235 -358 232 -352 301 -463 393 -634
179 -334 273 -613 231 -690 -6 -13 -9 -25 -6 -28 3 -4 97 54 207 128 l202 134
-50 6 c-73 9 -147 62 -293 208 -212 213 -352 398 -710 944 -118 179 -219 327
-223 327 -5 0 2 -17 14 -37z"/>
<path d="M10054 10668 c-446 -520 -625 -711 -829 -887 -190 -164 -315 -241
-405 -250 l-58 -6 116 -100 c64 -55 146 -125 182 -156 l65 -57 0 67 c0 53 7
82 36 151 71 168 228 414 421 657 84 105 541 643 616 726 14 15 21 27 15 27
-6 0 -78 -78 -159 -172z"/>
<path d="M10905 10771 c-714 -309 -1257 -812 -1604 -1486 -28 -54 -61 -109
-73 -122 -26 -28 -20 -29 24 -4 18 11 69 34 113 51 115 46 353 168 484 250
480 298 884 739 1146 1250 46 91 53 110 38 109 -10 0 -67 -22 -128 -48z"/>
<path d="M2390 10654 c0 -7 124 -146 276 -310 324 -350 435 -477 553 -634 221
-294 331 -505 317 -608 l-6 -43 180 166 c99 92 180 168 180 169 0 0 -26 1 -58
1 -47 1 -71 8 -137 43 -242 128 -529 386 -1005 902 -312 340 -300 327 -300
314z"/>
<path d="M1640 10623 c0 -9 81 -166 123 -238 343 -592 852 -1047 1478 -1324
74 -32 151 -64 171 -70 20 -7 42 -19 48 -27 7 -7 17 -14 23 -14 6 0 -1 12 -15
28 -14 15 -49 72 -77 127 -146 286 -386 605 -626 832 -171 162 -392 326 -600
446 -158 90 -525 258 -525 240z"/>
<path d="M6115 10153 c-297 -19 -689 -99 -970 -196 -494 -172 -985 -468 -1343
-811 -54 -53 -105 -96 -111 -96 -6 0 -11 -5 -11 -11 0 -6 -35 -49 -79 -95
-226 -238 -453 -568 -609 -884 -36 -74 -70 -136 -74 -138 -4 -2 -8 -12 -8 -21
0 -10 -18 -62 -40 -116 -237 -583 -321 -1288 -229 -1920 120 -827 481 -1548
1069 -2135 869 -870 2072 -1255 3287 -1054 367 60 679 160 1018 323 1064 515
1824 1493 2054 2646 17 83 38 202 46 265 23 158 31 636 15 812 -33 366 -121
734 -252 1062 -22 56 -41 106 -42 111 -1 6 -42 88 -91 184 -176 345 -381 637
-628 897 -48 50 -84 94 -80 98 3 3 1 6 -6 6 -7 0 -54 38 -104 85 -700 646
-1625 1002 -2575 993 -103 -1 -209 -3 -237 -5z"/>
<path d="M10630 9798 c-488 -407 -734 -585 -986 -711 -135 -68 -210 -91 -275
-85 -27 3 -49 3 -49 1 0 -8 301 -363 308 -363 5 0 6 15 4 34 -6 49 12 94 70
183 145 223 423 500 893 892 368 307 384 321 370 321 -6 0 -156 -123 -335
-272z"/>
<path d="M1695 9842 c11 -11 135 -101 275 -202 501 -361 643 -474 853 -680
193 -187 309 -352 293 -415 -4 -14 -3 -25 1 -24 9 0 274 367 281 388 3 10 0
11 -19 1 -101 -55 -446 91 -864 365 -78 50 -294 203 -482 338 -310 224 -394
281 -338 229z"/>
<path d="M11620 9775 c-420 -85 -811 -243 -1145 -464 -238 -158 -565 -454
-729 -663 -38 -48 -77 -90 -87 -93 -11 -4 -19 -11 -19 -16 0 -12 14 -11 27 2
6 6 60 19 119 29 410 70 855 245 1191 469 287 190 568 447 766 700 l48 61 -28
-1 c-15 0 -80 -11 -143 -24z"/>
<path d="M1010 9785 c0 -11 97 -150 164 -235 163 -207 379 -423 574 -573 319
-247 745 -452 1169 -562 54 -14 102 -30 107 -35 6 -6 17 -10 25 -9 12 0 9 5
-7 16 -13 9 -45 48 -72 87 -167 248 -441 538 -688 729 -307 238 -735 447
-1126 551 -124 33 -146 37 -146 31z"/>
<path d="M11190 8893 c-431 -208 -625 -291 -845 -365 -184 -61 -333 -96 -445
-104 -73 -5 -91 -3 -122 14 -21 11 -38 16 -38 12 0 -18 204 -430 212 -430 5 0
6 5 3 10 -25 40 93 179 248 294 227 169 453 294 991 552 340 162 426 208 389
203 -5 0 -181 -84 -393 -186z"/>
<path d="M1140 8935 c0 -3 177 -92 393 -198 215 -106 462 -233 547 -281 404
-231 662 -440 688 -562 l9 -39 106 219 c59 121 107 221 107 223 0 2 -12 -5
-27 -14 -46 -30 -180 -22 -343 20 -284 74 -508 166 -1060 438 -223 109 -408
199 -412 199 -5 0 -8 -2 -8 -5z"/>
<path d="M11950 8733 c-228 -17 -521 -69 -715 -128 -398 -120 -792 -335 -1131
-615 -53 -44 -103 -80 -110 -80 -8 0 -14 -5 -14 -11 0 -6 8 -8 18 -5 10 4 106
8 213 11 647 15 1183 176 1703 512 151 98 406 296 406 315 0 8 -274 8 -370 1z"/>
<path d="M480 8692 c0 -18 214 -206 357 -313 514 -388 1072 -593 1733 -639 85
-6 166 -13 180 -16 23 -5 22 -4 -5 12 -16 9 -64 49 -105 88 -326 313 -763 576
-1190 714 -270 87 -561 141 -852 158 -84 5 -118 4 -118 -4z"/>
<path d="M11715 7994 c-780 -209 -1032 -257 -1355 -258 -185 -1 -234 7 -277
47 -13 11 -24 19 -26 16 -4 -4 107 -432 119 -459 5 -10 9 -5 15 17 19 65 165
168 369 259 257 113 439 172 1000 320 239 63 436 117 439 119 14 14 -70 -4
-284 -61z"/>
<path d="M776 7981 c5 -5 183 -61 396 -125 212 -64 446 -137 520 -162 483
-165 858 -376 858 -483 0 -15 4 -21 9 -16 9 10 141 438 141 458 0 6 -10 1 -22
-10 -35 -32 -97 -44 -226 -44 -139 1 -298 20 -500 62 -201 41 -314 72 -774
210 -218 65 -400 119 -404 119 -5 0 -4 -4 2 -9z"/>
<path d="M11632 7669 c-398 -27 -837 -152 -1216 -347 -60 -31 -133 -67 -160
-79 -48 -21 -49 -22 -19 -23 17 0 69 -9 115 -20 131 -31 349 -59 542 -70 418
-25 841 39 1255 191 137 51 521 233 521 248 0 24 -380 85 -625 101 -178 11
-234 11 -413 -1z"/>
<path d="M495 7583 c-86 -7 -293 -35 -350 -47 l-60 -12 57 -37 c337 -218 810
-394 1228 -458 267 -41 689 -37 970 8 58 10 126 18 153 18 52 0 62 9 19 18
-16 3 -65 28 -109 56 -44 27 -139 79 -212 116 -382 191 -738 296 -1135 334
-99 10 -463 13 -561 4z"/>
<path d="M10235 6993 c3 -16 14 -113 25 -218 11 -104 23 -201 26 -214 l5 -24
19 30 c27 45 78 80 182 125 255 110 579 174 1278 253 228 26 417 49 419 51 2
2 2 6 0 8 -2 2 -197 -18 -434 -45 -236 -26 -500 -53 -585 -59 -464 -31 -858
13 -913 101 -17 27 -27 23 -22 -8z"/>
<path d="M2462 6959 c-33 -52 -200 -98 -432 -119 -206 -19 -684 -7 -1125 29
-334 27 -388 29 -374 17 2 -2 193 -18 424 -35 585 -45 812 -75 1077 -142 228
-57 358 -116 397 -180 20 -32 20 -32 25 -8 3 13 10 96 16 184 6 88 13 186 17
218 6 59 -3 72 -25 36z"/>
<path d="M11320 6703 c-290 -21 -624 -95 -905 -199 -55 -20 -113 -39 -130 -42
l-30 -6 35 -7 c19 -4 92 -28 163 -53 445 -159 966 -218 1423 -161 281 35 620
122 833 212 l44 19 -94 36 c-259 99 -578 170 -879 198 -106 9 -353 11 -460 3z"/>
<path d="M845 6653 c-222 -17 -422 -47 -590 -89 -142 -35 -245 -66 -245 -74 0
-18 311 -145 485 -198 351 -109 634 -148 1004 -139 310 7 567 46 847 127 56
17 113 30 125 31 16 0 8 5 -21 14 -25 7 -95 36 -157 64 -289 132 -680 231
-1028 261 -111 9 -325 11 -420 3z"/>
<path d="M10336 6279 c-7 -37 -38 -461 -33 -466 2 -2 12 8 21 23 39 58 207
103 463 125 215 18 621 6 1077 -30 347 -28 431 -32 385 -17 -8 2 -174 16 -369
31 -458 33 -620 49 -810 81 -407 67 -653 153 -710 247 l-19 30 -5 -24z"/>
<path d="M2475 6178 c-48 -110 -507 -223 -1045 -258 -142 -9 -801 -40 -853
-40 -10 0 -16 -3 -13 -8 2 -4 181 1 398 11 872 40 1382 -4 1515 -129 20 -19
37 -33 38 -32 6 6 -19 478 -24 478 -4 0 -11 -10 -16 -22z"/>
<path d="M10670 5790 c-52 -5 -144 -17 -205 -26 -60 -10 -135 -20 -165 -23
-50 -6 -53 -7 -25 -14 16 -5 66 -30 110 -57 341 -205 746 -357 1112 -419 208
-36 343 -44 618 -38 244 5 451 25 560 55 l30 8 -60 39 c-101 66 -393 210 -541
269 -239 94 -475 156 -730 192 -130 18 -565 27 -704 14z"/>
<path d="M1370 5656 c-385 -49 -780 -174 -1120 -352 -150 -79 -150 -78 -39
-103 486 -108 997 -105 1449 9 288 72 515 161 845 333 17 8 41 20 55 26 l25
10 -30 0 c-17 1 -84 12 -150 26 -228 46 -335 57 -640 60 -202 3 -322 0 -395
-9z"/>
<path d="M10157 5378 c-37 -123 -67 -226 -67 -230 0 -4 16 3 35 17 47 31 117
39 285 32 268 -11 548 -74 1175 -261 231 -70 424 -124 430 -122 14 5 28 1
-439 141 -540 162 -825 268 -1046 388 -168 91 -290 191 -290 237 0 55 -22 0
-83 -202z"/>
<path d="M2600 5452 c0 -51 -117 -145 -285 -229 -267 -134 -580 -233 -1397
-443 -71 -18 -128 -37 -128 -43 0 -5 6 -7 13 -4 46 17 890 232 1007 256 235
48 439 74 605 75 177 1 231 -6 280 -40 20 -13 37 -24 39 -24 1 0 -24 102 -57
228 -56 215 -77 275 -77 224z"/>
<path d="M10035 5069 c11 -7 58 -46 104 -88 574 -521 1159 -788 1896 -866 156
-16 275 -19 275 -7 0 11 -202 192 -302 271 -521 410 -1128 639 -1802 680 -77
5 -152 12 -166 16 -23 6 -23 5 -5 -6z"/>
<path d="M9967 4868 c-132 -244 -177 -330 -177 -338 0 -4 17 1 38 12 46 24
121 19 271 -17 277 -67 557 -192 1195 -534 176 -94 322 -168 325 -166 2 3 2 7
0 9 -2 2 -175 95 -384 206 -545 291 -735 408 -967 594 -158 127 -262 255 -244
301 3 8 1 15 -4 15 -5 0 -29 -37 -53 -82z"/>
<path d="M2780 4898 c-14 -5 -50 -7 -80 -4 -31 3 -136 1 -235 -5 -606 -32
-1117 -198 -1603 -519 -174 -114 -392 -284 -392 -305 0 -9 312 -5 430 5 251
23 545 83 760 156 334 114 695 316 984 551 101 82 136 107 161 116 6 3 8 7 5
9 -3 3 -16 1 -30 -4z"/>
<path d="M2833 4737 c-23 -84 -164 -213 -403 -370 -220 -143 -403 -240 -984
-518 -142 -68 -254 -125 -248 -127 5 -1 171 74 368 169 398 190 484 229 659
299 375 149 716 221 798 167 15 -9 27 -13 27 -8 0 5 -46 104 -103 221 l-102
213 -12 -46z"/>
<path d="M9751 4407 c15 -12 51 -58 82 -102 180 -261 447 -538 703 -731 328
-246 733 -438 1153 -544 46 -11 86 -19 88 -16 3 3 -21 42 -53 88 -200 287
-500 593 -774 788 -303 216 -701 399 -1065 489 -49 13 -102 29 -117 37 -39 21
-47 17 -17 -9z"/>
<path d="M9632 4228 c-253 -345 -262 -360 -222 -338 32 17 128 8 214 -21 91
-30 332 -149 471 -231 160 -95 320 -205 674 -462 298 -216 341 -245 341 -233
0 3 -129 99 -287 213 -386 278 -498 364 -650 493 -143 121 -348 327 -411 411
-55 75 -96 164 -88 195 9 36 1 31 -42 -27z"/>
<path d="M3117 4256 c-9 -7 -41 -17 -70 -20 -167 -22 -522 -123 -724 -207
-484 -201 -920 -529 -1256 -945 -31 -39 -57 -74 -57 -78 0 -11 40 -6 169 20
499 100 952 307 1347 614 129 101 433 401 524 517 35 46 72 85 82 89 10 3 18
10 18 15 0 13 -12 11 -33 -5z"/>
<path d="M3158 4119 c15 -156 -346 -556 -973 -1078 -381 -318 -373 -311 -359
-311 5 0 154 120 329 266 389 324 495 406 695 539 309 206 552 306 609 253 11
-11 13 -10 8 4 -7 21 -296 368 -306 368 -3 0 -5 -18 -3 -41z"/>
<path d="M9321 3823 c14 -16 31 -41 37 -56 22 -50 144 -261 205 -352 300 -448
653 -773 1124 -1034 163 -91 463 -222 463 -203 0 4 -26 57 -58 117 -261 498
-652 923 -1117 1216 -133 83 -373 207 -515 264 -63 26 -122 53 -131 61 -28 25
-34 15 -8 -13z"/>
<path d="M9180 3667 c-36 -34 -114 -107 -174 -163 l-109 -100 55 0 c43 1 69
-7 130 -37 231 -114 536 -388 1046 -939 146 -159 268 -286 271 -283 2 3 -7 18
-20 33 -14 15 -134 144 -266 287 -363 394 -418 457 -570 661 -196 264 -303
471 -290 565 3 21 2 39 -1 39 -4 0 -36 -28 -72 -63z"/>
<path d="M3550 3646 c-8 -8 -53 -29 -100 -47 -47 -18 -157 -69 -245 -114 -510
-258 -886 -587 -1197 -1045 -120 -176 -278 -453 -266 -466 15 -15 407 174 583
281 487 297 891 731 1161 1252 31 60 65 118 77 131 22 24 11 31 -13 8z"/>
<path d="M3655 3581 c-3 -5 -1 -12 5 -16 32 -20 -13 -180 -91 -324 -58 -107
-232 -366 -332 -494 -67 -85 -372 -445 -635 -749 -19 -21 -29 -38 -24 -38 6 0
135 145 288 323 289 334 521 580 684 722 192 167 358 268 432 263 20 -1 39 0
41 2 2 3 -78 76 -179 162 -101 87 -185 154 -189 149z"/>
<path d="M8820 3325 c0 -6 6 -19 13 -30 8 -11 22 -51 32 -90 67 -257 219 -607
372 -854 177 -286 409 -548 683 -772 157 -128 356 -267 367 -256 6 7 -31 136
-79 277 -123 357 -315 707 -538 980 -186 227 -465 480 -712 646 -57 37 -111
77 -120 89 -10 11 -17 15 -18 10z"/>
<path d="M4124 3219 c-10 -12 -64 -52 -119 -90 -356 -242 -684 -578 -901 -921
-88 -139 -241 -452 -303 -618 -56 -152 -116 -358 -107 -367 3 -4 51 24 106 61
325 220 669 564 872 872 177 268 332 608 418 914 17 63 39 126 47 138 19 31
11 38 -13 11z"/>
<path d="M8466 3107 l-199 -132 44 -5 c107 -13 288 -171 517 -452 117 -144
236 -314 476 -678 249 -377 234 -355 240 -349 3 3 -99 162 -225 354 -272 413
-366 567 -469 770 -157 310 -216 516 -176 608 5 9 4 17 0 16 -5 0 -99 -60
-208 -132z"/>
<path d="M4190 3157 c0 -2 7 -19 16 -37 35 -69 -3 -250 -107 -515 -100 -256
-188 -426 -560 -1082 -54 -95 -94 -173 -89 -173 5 0 61 93 126 208 427 755
567 969 781 1193 103 107 174 158 222 162 17 1 31 5 31 8 0 4 -91 58 -202 120
-214 121 -218 123 -218 116z"/>
<path d="M8180 2964 c0 -3 4 -13 9 -22 5 -9 14 -62 21 -117 27 -237 103 -550
186 -773 115 -309 273 -584 490 -857 88 -111 326 -361 398 -418 l38 -31 -6 65
c-46 429 -189 890 -382 1235 -148 263 -340 510 -586 756 -93 92 -168 165 -168
162z"/>
<path d="M4756 2863 c-3 -11 -55 -62 -115 -115 -262 -232 -531 -574 -699 -888
-167 -313 -295 -729 -347 -1129 l-7 -54 33 23 c61 43 363 353 453 465 327 410
529 849 635 1380 16 83 33 177 36 210 4 33 11 73 17 88 6 15 8 30 5 33 -3 3
-8 -3 -11 -13z"/>
<path d="M7873 2791 c-117 -48 -216 -91 -220 -94 -3 -4 3 -7 13 -7 109 0 341
-327 540 -759 56 -121 337 -799 374 -903 8 -21 18 -38 23 -38 5 0 7 6 4 13 -3
6 -84 208 -180 447 -223 553 -306 811 -352 1082 -22 127 -18 287 8 315 18 21
22 34 10 32 -5 0 -104 -40 -220 -88z"/>
<path d="M4892 2799 c21 -29 23 -41 22 -157 -2 -279 -94 -592 -398 -1357 -115
-289 -143 -367 -122 -344 2 2 62 153 134 334 227 573 308 755 432 970 144 249
244 368 336 400 33 11 31 13 -184 98 -119 48 -223 87 -230 87 -8 0 -4 -11 10
-31z"/>
<path d="M7522 2372 c-2 -221 1 -335 13 -447 60 -567 262 -1077 619 -1563 56
-76 61 -81 69 -60 5 13 11 113 14 223 14 488 -65 926 -243 1345 -95 222 -256
503 -394 685 -33 44 -60 88 -60 98 0 9 -3 17 -7 17 -5 0 -9 -134 -11 -298z"/>
<path d="M5433 2637 c-4 -13 -42 -69 -83 -125 -119 -161 -204 -302 -305 -507
-215 -436 -308 -813 -322 -1310 -6 -200 3 -415 16 -415 11 0 131 162 203 275
282 438 444 891 497 1395 17 162 23 409 13 539 -6 73 -6 135 -1 148 5 13 5 23
0 23 -5 0 -13 -10 -18 -23z"/>
<path d="M5520 2605 c0 -2 11 -15 24 -28 60 -60 86 -284 67 -576 -16 -260 -39
-425 -126 -901 -71 -396 -81 -460 -70 -448 3 2 41 202 85 444 118 647 198 946
319 1199 61 128 107 190 155 210 l30 13 -55 11 c-30 6 -130 24 -224 41 -93 17
-178 32 -187 34 -10 2 -18 3 -18 1z"/>
<path d="M7229 2565 c-266 -53 -279 -56 -279 -66 0 -5 8 -9 19 -9 96 0 263
-368 380 -835 21 -88 76 -344 121 -570 85 -432 87 -441 96 -433 3 3 -31 187
-75 409 -112 565 -134 710 -150 996 -15 269 10 467 66 519 34 31 32 31 -178
-11z"/>
<path d="M6128 2504 c-5 -4 -8 -18 -8 -31 0 -13 -13 -50 -30 -82 -109 -217
-223 -582 -269 -868 -72 -441 -40 -937 90 -1385 18 -60 35 -108 39 -108 21 0
156 343 215 548 91 311 127 554 127 862 0 308 -30 544 -104 830 -22 85 -43
175 -47 198 -3 24 -9 40 -13 36z"/>
<path d="M6417 2479 c-104 -4 -194 -10 -200 -12 -7 -3 0 -9 15 -15 92 -37 185
-356 232 -797 17 -152 31 -428 42 -790 4 -126 10 -252 14 -280 l8 -50 1 60 c0
33 -6 249 -15 480 -17 449 -11 715 22 963 29 228 87 403 142 427 12 5 22 13
22 17 0 9 -8 9 -283 -3z"/>
<path d="M6831 2453 c1 -16 -10 -68 -25 -118 -79 -268 -120 -575 -120 -900 0
-291 21 -461 91 -740 49 -200 153 -487 232 -643 l29 -57 26 85 c132 436 168
970 95 1400 -51 302 -161 656 -274 880 -19 38 -35 81 -35 95 0 14 -5 25 -10
25 -6 0 -10 -12 -9 -27z"/>
</g>
</svg>
