<?xml version="1.0" standalone="no"?>
<!DOCTYPE svg PUBLIC "-//W3C//DTD SVG 20010904//EN"
 "http://www.w3.org/TR/2001/REC-SVG-20010904/DTD/svg10.dtd">
<svg version="1.0" xmlns="http://www.w3.org/2000/svg"
 width="1280.000000pt" height="1280.000000pt" viewBox="0 0 1280.000000 1280.000000"
 preserveAspectRatio="xMidYMid meet">
<metadata>
Created by potrace 1.15, written by Peter Selinger 2001-2017
</metadata>
<g transform="translate(0.000000,1280.000000) scale(0.100000,-0.100000)"
fill="#000000" stroke="none">
<path d="M6500 11749 c0 -76 3 -86 39 -153 37 -66 62 -91 353 -346 664 -583
1004 -898 1256 -1160 144 -150 377 -419 498 -575 629 -809 927 -1699 901
-2690 -12 -464 -75 -796 -210 -1110 -90 -210 -249 -458 -362 -565 l-37 -35
-1720 1724 -1720 1724 398 401 c986 991 914 915 920 971 l6 50 -1268 212
-1269 211 -30 -24 c-16 -13 -554 -545 -1195 -1183 l-1164 -1158 739 -747 740
-746 45 0 45 0 230 222 c127 122 364 352 528 511 164 158 302 287 306 285 4
-2 565 -565 1246 -1253 681 -687 1423 -1436 1649 -1663 326 -328 408 -414 396
-422 -8 -5 -79 -37 -157 -70 -246 -104 -507 -183 -748 -226 -127 -23 -524 -26
-655 -5 -587 94 -1118 366 -1507 775 -115 120 -202 230 -300 377 l-66 99 -276
0 c-265 -1 -278 -2 -318 -23 -23 -12 -140 -117 -260 -232 -120 -116 -258 -249
-306 -295 l-89 -85 -21 30 c-75 106 -214 221 -307 256 -90 34 -157 28 -275
-22 -80 -35 -112 -56 -168 -108 -92 -87 -127 -148 -127 -222 0 -113 63 -222
211 -363 l99 -96 -164 -109 c-418 -276 -732 -530 -1088 -879 -151 -149 -227
-231 -249 -270 -106 -189 -110 -492 -7 -696 36 -73 123 -181 187 -235 127
-107 239 -145 426 -145 118 -1 138 2 215 28 174 60 266 131 537 418 293 310
594 685 813 1013 40 61 74 111 75 113 1 1 46 -42 101 -96 124 -123 199 -165
311 -170 163 -9 270 71 380 286 33 64 43 94 43 131 0 102 -59 200 -217 362
l-103 105 34 33 34 33 33 -59 c380 -669 956 -1122 1764 -1386 427 -140 805
-197 1300 -197 703 0 1322 133 1899 409 77 38 179 91 226 119 l85 51 50 -48
c28 -26 282 -274 565 -552 970 -950 983 -963 1046 -1000 193 -115 398 -112
597 7 123 75 273 219 340 329 65 107 90 194 90 320 1 153 -42 285 -128 390
-18 22 -364 371 -769 777 -405 405 -736 739 -736 743 0 4 44 55 98 113 396
432 638 924 786 1602 81 368 116 715 116 1145 0 628 -60 1052 -217 1530 -255
779 -774 1559 -1428 2144 -734 657 -1569 1103 -2535 1354 -120 32 -485 97
-539 97 -20 0 -21 -6 -21 -81z"/>
</g>
</svg>
