<?xml version="1.0" standalone="no"?>
<!DOCTYPE svg PUBLIC "-//W3C//DTD SVG 20010904//EN"
 "http://www.w3.org/TR/2001/REC-SVG-20010904/DTD/svg10.dtd">
<svg version="1.0" xmlns="http://www.w3.org/2000/svg"
 width="1280.000000pt" height="1279.000000pt" viewBox="0 0 1280.000000 1279.000000"
 preserveAspectRatio="xMidYMid meet">
<metadata>
Created by potrace 1.15, written by Peter Selinger 2001-2017
</metadata>
<g transform="translate(0.000000,1279.000000) scale(0.100000,-0.100000)"
fill="#000000" stroke="none">
<path d="M6154 12328 c-575 -955 -795 -1889 -649 -2754 82 -485 273 -951 578
-1409 69 -103 151 -218 178 -249 4 -5 22 8 39 28 22 24 41 36 59 36 14 0 40
13 57 28 83 72 318 475 434 745 158 371 250 767 264 1142 6 159 -7 514 -23
602 -6 32 -18 103 -27 158 -17 105 -64 308 -89 386 -8 26 -15 54 -15 63 0 8
-6 30 -14 48 -7 18 -23 65 -35 103 -13 39 -26 79 -31 90 -41 95 -50 120 -50
134 0 9 -7 25 -15 35 -8 11 -15 27 -15 36 0 9 -13 43 -30 75 -16 32 -30 64
-30 71 0 6 -7 17 -15 24 -8 7 -15 21 -15 31 0 9 -6 24 -14 31 -7 8 -17 29 -21
46 -3 18 -11 32 -16 32 -5 0 -9 6 -9 13 0 19 -40 91 -56 100 -8 4 -14 19 -14
33 0 13 -7 27 -15 30 -8 4 -12 10 -10 15 3 5 -3 16 -15 26 -11 10 -20 28 -20
41 0 12 -7 25 -15 28 -8 4 -15 14 -15 25 0 10 -11 35 -25 55 -14 20 -25 33
-25 28 0 -8 -24 27 -123 184 -26 39 -48 72 -50 72 -2 0 -52 -82 -113 -182z"/>
<path d="M10505 10753 c-1162 -268 -1954 -720 -2512 -1433 -106 -135 -237
-351 -333 -545 -140 -283 -221 -512 -290 -815 -31 -136 -84 -439 -78 -445 2
-2 37 1 78 6 41 5 104 7 140 3 73 -7 129 2 340 51 803 187 1460 609 1931 1240
154 205 243 354 374 620 144 292 267 621 345 925 33 126 35 154 19 211 -11 35
-2 124 18 175 5 14 2 15 -32 7z"/>
<path d="M2020 10713 c0 -21 56 -253 91 -373 232 -811 573 -1429 1048 -1900
496 -491 1119 -799 1891 -935 79 -14 161 -25 181 -25 34 0 38 3 45 33 10 44 6
94 -18 212 -11 55 -24 121 -28 148 -5 26 -14 62 -19 80 -6 17 -20 68 -31 112
-12 44 -26 94 -31 110 -6 17 -15 45 -19 64 -5 18 -13 38 -19 44 -6 6 -11 23
-11 38 0 15 -7 34 -15 43 -8 8 -15 25 -15 38 0 13 -7 33 -15 44 -8 10 -15 26
-15 34 0 8 -9 33 -20 55 -11 22 -19 46 -20 53 0 6 -4 12 -10 12 -5 0 -10 8
-10 18 0 9 -9 31 -20 47 -11 17 -20 37 -20 46 0 9 -7 19 -15 23 -8 3 -15 17
-15 31 0 14 -7 28 -15 31 -8 4 -15 14 -15 24 0 10 -7 20 -15 24 -8 3 -15 14
-15 25 0 11 -7 26 -15 35 -8 8 -15 19 -15 25 0 6 -4 11 -9 11 -9 0 -24 33 -26
53 0 4 -4 11 -10 15 -5 4 -28 34 -50 67 -262 395 -619 745 -1025 1002 -429
272 -974 490 -1557 622 -100 23 -123 25 -123 14z"/>
<path d="M9640 7303 c-614 -60 -1153 -265 -1720 -651 -74 -50 -150 -104 -169
-120 l-33 -29 113 -83 c478 -353 1021 -594 1544 -684 104 -18 331 -44 423 -48
34 -1 62 -6 62 -10 0 -11 179 -10 340 2 651 47 1215 231 1905 620 105 59 139
90 146 135 2 11 19 30 37 43 18 13 30 27 27 32 -8 14 -308 191 -450 266 -567
300 -1117 476 -1640 524 -101 9 -502 12 -585 3z"/>
<path d="M2405 7274 c-438 -46 -806 -142 -1220 -319 -245 -104 -634 -313 -834
-448 l-74 -49 74 -47 c163 -104 293 -179 474 -272 482 -248 936 -399 1395
-464 63 -9 124 -18 135 -20 11 -2 55 -4 98 -4 49 -1 76 -5 72 -11 -9 -15 398
-12 550 4 511 56 955 205 1415 476 259 153 333 213 343 279 2 13 14 31 27 41
l24 18 -24 21 c-14 11 -76 57 -138 102 -504 362 -1030 584 -1587 669 -112 18
-194 23 -415 25 -151 2 -293 1 -315 -1z"/>
<path d="M6151 7004 c-86 -23 -171 -74 -241 -144 -245 -245 -204 -635 86 -830
101 -67 168 -87 357 -106 275 -29 554 237 534 510 -6 88 -29 187 -44 193 -7 3
-13 18 -13 33 0 16 -4 30 -8 32 -5 2 -27 30 -49 63 -81 119 -196 207 -322 245
-76 24 -219 26 -300 4z"/>
<path d="M7326 5438 c148 -1074 637 -1908 1449 -2469 339 -235 711 -415 1165
-565 225 -75 639 -181 641 -166 6 43 -3 162 -16 208 -10 33 -24 79 -31 104 -7
25 -16 64 -20 88 -4 23 -10 42 -14 42 -4 0 -10 19 -14 42 -4 23 -10 47 -15 53
-4 5 -18 44 -30 85 -22 73 -30 93 -65 173 -9 21 -16 46 -16 55 0 10 -7 27 -15
38 -8 10 -15 27 -15 36 0 10 -9 34 -19 55 -37 72 -81 172 -81 183 0 5 -4 10
-9 10 -5 0 -12 14 -16 31 -4 17 -12 32 -19 35 -6 2 -13 16 -14 30 -1 14 -9 32
-17 40 -8 9 -15 24 -15 35 0 11 -7 22 -15 25 -8 4 -15 15 -15 25 0 11 -7 22
-15 25 -8 4 -15 14 -15 24 0 10 -7 25 -15 34 -8 8 -15 19 -15 25 0 5 -6 16
-12 23 -7 7 -24 35 -38 60 -13 26 -30 50 -37 52 -7 3 -13 15 -13 26 0 12 -4
18 -10 15 -5 -3 -12 6 -16 20 -3 14 -10 25 -14 25 -4 0 -28 31 -54 70 -147
219 -438 533 -651 704 -471 377 -1033 616 -1705 726 -69 11 -137 20 -153 20
-26 0 -27 -1 -21 -42z"/>
<path d="M5250 5463 c-14 -2 -88 -15 -164 -29 -1621 -296 -2625 -1360 -3022
-3202 -5 -27 -9 -27 112 -2 66 14 101 17 108 10 16 -16 47 -12 188 24 421 109
915 319 1269 539 837 519 1356 1288 1560 2310 21 106 20 177 -3 177 -10 0 -4
101 9 158 5 23 0 25 -57 15z"/>
<path d="M6268 4978 c-374 -500 -616 -1029 -712 -1558 -65 -356 -62 -801 9
-1183 98 -531 322 -1076 677 -1649 44 -70 82 -128 86 -128 4 0 18 16 31 35 13
20 26 33 29 31 2 -3 21 3 42 14 50 26 67 49 183 255 51 91 215 429 252 520
245 605 335 1100 306 1679 -6 122 -15 239 -20 261 -5 22 -14 72 -21 110 -13
84 -45 223 -65 285 -8 25 -15 57 -15 71 0 14 -7 34 -15 45 -8 10 -15 31 -15
45 0 14 -7 34 -15 45 -8 10 -15 28 -15 40 0 11 -7 29 -15 40 -8 10 -15 26 -15
35 0 21 -40 112 -52 120 -5 3 -9 9 -8 13 4 19 -14 76 -24 76 -6 0 -13 12 -14
28 -1 15 -9 32 -17 38 -8 6 -15 23 -15 38 0 16 -5 26 -15 26 -9 0 -15 9 -15
24 0 14 -6 31 -14 38 -7 8 -17 24 -20 36 -4 12 -12 22 -17 22 -5 0 -9 9 -9 19
0 11 -8 27 -17 37 -10 9 -18 24 -19 32 -2 9 -10 19 -18 24 -9 5 -16 20 -16 34
0 14 -4 23 -9 19 -5 -3 -13 5 -17 17 -4 13 -13 27 -20 33 -7 5 -14 16 -16 24
-2 7 -13 25 -26 40 -13 14 -26 38 -29 53 -3 15 -9 25 -14 23 -9 -6 -31 29 -24
39 3 3 2 4 -1 1 -4 -2 -45 47 -92 110 -47 63 -88 115 -92 115 -4 0 -32 -33
-62 -72z"/>
</g>
</svg>
