<?xml version="1.0" standalone="no"?>
<!DOCTYPE svg PUBLIC "-//W3C//DTD SVG 20010904//EN"
 "http://www.w3.org/TR/2001/REC-SVG-20010904/DTD/svg10.dtd">
<svg version="1.0" xmlns="http://www.w3.org/2000/svg"
 width="822.000000pt" height="1280.000000pt" viewBox="0 0 822.000000 1280.000000"
 preserveAspectRatio="xMidYMid meet">
<metadata>
Created by potrace 1.15, written by Peter Selinger 2001-2017
</metadata>
<g transform="translate(0.000000,1280.000000) scale(0.100000,-0.100000)"
fill="#000000" stroke="none">
<path d="M3362 12652 c-13 -601 -227 -1121 -671 -1630 -129 -149 -235 -255
-566 -567 -447 -422 -581 -563 -741 -775 -194 -257 -321 -513 -393 -793 -83
-323 -82 -757 4 -1153 30 -137 29 -124 8 -124 -44 0 -127 66 -259 205 -190
200 -249 232 -315 169 -38 -36 -37 -42 37 -229 153 -382 366 -720 678 -1074
110 -125 436 -446 601 -592 72 -63 274 -238 450 -389 406 -350 514 -447 706
-641 743 -748 1083 -1478 1140 -2445 6 -104 14 -196 18 -204 11 -22 200 -96
306 -120 350 -80 813 -63 1108 39 81 28 177 72 177 81 0 32 -35 316 -56 450
-179 1165 -665 2017 -1652 2892 -79 70 -254 221 -389 335 -586 494 -802 689
-1001 903 -401 431 -605 803 -666 1215 -80 535 40 1028 363 1494 111 161 223
295 541 651 217 244 339 396 444 553 321 481 397 949 250 1532 -28 112 -105
345 -113 345 -3 0 -7 -58 -9 -128z"/>
<path d="M3952 11211 c-11 -6 -4 -27 31 -97 51 -102 88 -212 114 -340 26 -129
24 -511 -5 -814 -12 -124 -26 -306 -33 -406 l-12 -181 63 -123 c80 -156 179
-306 392 -593 298 -402 425 -613 502 -836 62 -179 79 -282 80 -483 1 -98 2
-178 4 -178 2 0 19 35 38 78 84 181 114 239 145 270 31 32 34 33 47 15 8 -10
34 -60 59 -112 322 -679 197 -1629 -333 -2532 -41 -69 -74 -128 -74 -131 0 -4
17 -26 37 -50 82 -97 182 -270 344 -591 168 -336 260 -498 325 -573 l34 -39
119 121 c540 553 963 1379 1120 2188 130 670 95 1312 -106 1934 -25 78 -49
142 -54 142 -15 0 -61 -89 -84 -163 -22 -70 -36 -150 -70 -402 -20 -151 -40
-234 -75 -310 -27 -58 -93 -145 -103 -135 -3 3 -10 71 -16 152 -40 515 -199
920 -522 1333 -111 142 -171 207 -552 599 -187 193 -384 402 -437 466 -367
442 -540 855 -588 1408 l-7 84 -39 13 c-50 17 -93 59 -177 172 -89 118 -124
142 -167 114z"/>
<path d="M3294 10533 c-34 -109 -116 -257 -205 -370 -29 -37 -152 -169 -274
-293 -244 -249 -310 -322 -379 -424 -137 -201 -201 -405 -213 -676 l-5 -135
88 -125 c111 -157 321 -370 445 -453 104 -69 231 -129 319 -152 80 -21 194
-30 246 -20 l39 7 -79 40 c-175 87 -311 205 -389 338 -113 195 -134 460 -62
785 31 141 139 464 255 765 128 334 186 514 214 660 13 65 13 93 0 53z"/>
<path d="M3249 9787 c-166 -297 -189 -581 -72 -892 44 -117 126 -272 277 -524
253 -421 316 -583 316 -810 0 -55 -3 -72 -12 -68 -99 45 -202 80 -285 96 -169
35 -346 24 -421 -25 l-26 -17 24 -10 c73 -29 175 -80 216 -108 159 -109 290
-318 335 -534 38 -180 20 -435 -42 -601 -12 -30 -19 -57 -16 -60 2 -3 38 -28
80 -57 122 -84 218 -171 389 -355 291 -312 430 -434 599 -526 l66 -36 65 69
c173 183 319 477 374 756 28 140 26 398 -5 535 -12 58 -25 109 -28 114 -3 4
-18 -28 -34 -73 -81 -234 -195 -346 -374 -367 l-54 -7 20 64 c74 242 122 480
140 702 21 261 -13 518 -100 752 -82 219 -276 490 -476 665 -38 33 -167 135
-287 226 -120 91 -260 203 -312 249 -176 157 -295 337 -331 501 -21 93 -16
279 10 362 9 30 15 56 13 57 -2 2 -24 -33 -49 -78z"/>
<path d="M7600 7753 c-16 -48 -66 -152 -157 -323 -120 -228 -159 -370 -170
-635 -9 -209 11 -401 92 -900 59 -365 68 -455 69 -685 1 -169 -3 -236 -18
-315 -59 -319 -202 -617 -420 -874 -151 -178 -317 -325 -759 -676 l-239 -190
34 -8 c72 -20 236 0 443 53 189 49 333 71 397 62 26 -4 29 -7 23 -31 -15 -60
-91 -217 -148 -303 -80 -123 -260 -303 -387 -387 -535 -356 -1325 -455 -2095
-265 -227 57 -518 180 -680 289 -425 287 -591 670 -473 1095 43 155 135 337
250 492 35 47 56 84 51 91 -4 7 -86 107 -182 222 -272 325 -441 492 -637 629
l-82 56 -87 -92 c-234 -248 -411 -541 -511 -843 -78 -238 -106 -454 -92 -715
43 -829 650 -1622 1559 -2040 455 -209 1006 -311 1506 -280 284 17 431 42 613
102 196 64 313 124 738 376 137 81 318 181 403 222 l155 75 73 107 c100 148
307 425 561 750 l215 275 8 -56 c6 -35 3 -149 -7 -306 -9 -146 -12 -265 -7
-285 l8 -35 25 55 c294 639 416 956 492 1272 55 229 56 243 56 673 0 373 -2
410 -21 492 -42 180 -114 419 -249 828 -76 231 -155 474 -175 540 -78 259
-143 558 -176 815 -17 129 -14 501 4 615 8 50 13 91 12 93 -2 2 -9 -14 -15
-35z"/>
<path d="M150 7053 c-19 -120 -24 -328 -11 -444 7 -57 25 -162 41 -234 36
-168 155 -592 172 -615 135 -183 209 -343 254 -550 27 -120 27 -477 1 -635
-43 -258 -96 -450 -295 -1055 -195 -591 -239 -748 -283 -1011 -27 -162 -32
-467 -11 -589 56 -313 188 -552 429 -779 59 -56 110 -101 113 -101 4 0 1 30
-6 68 -41 216 -43 514 -4 651 25 88 62 168 101 213 32 38 29 42 54 -87 98
-519 468 -1034 990 -1380 391 -258 793 -409 1285 -482 165 -24 551 -24 715 1
314 47 589 144 840 297 267 162 519 424 679 708 l36 63 -27 -5 c-219 -47 -268
-52 -523 -52 -337 0 -464 20 -1000 159 -478 125 -652 158 -924 177 -150 11
-162 13 -210 42 -28 17 -176 95 -329 173 -154 79 -315 169 -359 201 -252 181
-450 526 -517 900 -60 332 -51 624 39 1361 22 180 45 363 50 407 21 170 40
487 39 640 -2 153 -2 156 -10 75 -13 -126 -27 -183 -60 -250 -26 -52 -92 -121
-103 -109 -3 2 -11 56 -20 120 -21 148 -57 287 -107 414 -83 207 -192 378
-473 738 -209 268 -290 385 -370 537 -69 131 -116 256 -151 396 -15 60 -29
110 -30 112 -1 1 -8 -32 -15 -75z"/>
</g>
</svg>
