<?xml version="1.0" standalone="no"?>
<!DOCTYPE svg PUBLIC "-//W3C//DTD SVG 20010904//EN"
 "http://www.w3.org/TR/2001/REC-SVG-20010904/DTD/svg10.dtd">
<svg version="1.0" xmlns="http://www.w3.org/2000/svg"
 width="1258.000000pt" height="1280.000000pt" viewBox="0 0 1258.000000 1280.000000"
 preserveAspectRatio="xMidYMid meet">
<metadata>
Created by potrace 1.15, written by Peter Selinger 2001-2017
</metadata>
<g transform="translate(0.000000,1280.000000) scale(0.100000,-0.100000)"
fill="#000000" stroke="none">
<path d="M2813 12723 c-33 -73 -255 -629 -407 -1019 l-67 -171 -452 -8 c-249
-4 -555 -11 -680 -14 l-228 -6 298 -240 c440 -354 686 -568 698 -606 13 -41
-52 -322 -185 -794 -108 -384 -140 -503 -140 -520 0 -27 29 -10 495 295 447
292 680 433 719 433 41 0 275 -141 885 -531 257 -165 301 -191 301 -178 0 51
-77 324 -190 671 -109 333 -180 578 -180 616 0 33 23 53 420 354 430 327 612
476 597 491 -19 19 -177 26 -732 32 l-589 7 -93 245 c-224 588 -405 1020 -428
1020 -3 0 -22 -35 -42 -77z"/>
<path d="M7495 11899 c-10 -15 15 -40 235 -233 342 -300 787 -756 1043 -1069
716 -873 1205 -1896 1371 -2867 53 -309 61 -412 61 -780 0 -423 -21 -610 -107
-945 -91 -356 -352 -919 -545 -1176 l-72 -96 -114 116 c-272 279 -1975 2112
-2342 2521 -355 396 -479 558 -462 604 8 19 121 115 912 775 385 321 700 585
700 587 0 7 -398 436 -527 570 l-137 141 -183 -91 c-434 -215 -778 -318 -1013
-301 -110 7 -350 38 -504 65 l-113 19 -152 -123 c-465 -379 -2955 -2439 -2955
-2446 -1 -4 1165 -1460 1184 -1478 6 -7 37 17 420 332 318 260 606 483 804
621 l84 59 166 -170 c930 -953 1653 -1727 2569 -2754 l120 -135 -56 -26 c-208
-97 -525 -172 -845 -200 -194 -17 -650 -6 -847 21 -597 80 -1195 274 -1681
545 -238 133 -486 318 -894 669 -238 204 -374 313 -441 352 l-43 25 -163 -132
c-327 -267 -852 -700 -1203 -993 -288 -240 -1725 -1447 -1758 -1476 -21 -19
125 -260 288 -475 121 -160 414 -512 846 -1017 l57 -66 179 130 c470 345 723
548 1623 1303 325 272 594 495 598 495 4 0 63 -44 132 -97 551 -426 793 -584
1195 -783 1058 -523 2192 -654 3288 -380 290 73 506 152 918 336 141 63 261
114 266 114 11 0 131 -130 598 -650 555 -617 960 -1053 1167 -1257 l83 -82
185 161 c537 465 1100 993 1140 1068 7 12 -29 57 -157 196 -332 358 -656 717
-984 1089 -535 608 -509 576 -509 605 0 62 59 191 223 490 353 644 546 1273
619 2025 19 195 16 779 -5 985 -132 1278 -639 2449 -1501 3465 -411 484 -1016
977 -1631 1331 -279 160 -610 313 -940 434 -156 57 -182 64 -190 49z"/>
</g>
</svg>
