<?xml version="1.0" standalone="no"?>
<!DOCTYPE svg PUBLIC "-//W3C//DTD SVG 20010904//EN"
 "http://www.w3.org/TR/2001/REC-SVG-20010904/DTD/svg10.dtd">
<svg version="1.0" xmlns="http://www.w3.org/2000/svg"
 width="1113.000000pt" height="1280.000000pt" viewBox="0 0 1113.000000 1280.000000"
 preserveAspectRatio="xMidYMid meet">
<metadata>
Created by potrace 1.15, written by Peter Selinger 2001-2017
</metadata>
<g transform="translate(0.000000,1280.000000) scale(0.100000,-0.100000)"
fill="#000000" stroke="none">
<path d="M11093 12776 c-4 -8 -136 -88 -293 -179 -2411 -1393 -3987 -2700
-5970 -4952 -346 -392 -518 -596 -749 -883 -94 -117 -127 -152 -139 -147 -64
25 -267 66 -372 75 -524 44 -1109 -196 -1704 -699 -454 -383 -932 -949 -1302
-1541 -77 -124 -255 -430 -250 -430 1 0 45 18 97 41 497 216 756 288 1034 289
198 0 372 -40 561 -130 78 -38 282 -168 347 -223 l29 -24 -35 -114 c-49 -156
-74 -258 -97 -394 -31 -184 -38 -164 101 -285 67 -58 126 -106 133 -107 6 -1
72 75 146 170 518 661 1583 1904 1871 2183 181 175 294 242 356 212 98 -47 54
-202 -122 -437 -97 -130 -177 -224 -430 -511 -100 -113 -246 -281 -325 -375
-324 -383 -694 -792 -1078 -1193 -117 -122 -212 -227 -210 -232 2 -5 55 -55
118 -110 133 -116 111 -112 295 -53 130 41 295 107 396 158 88 45 90 44 196
-70 211 -227 331 -444 384 -695 17 -83 22 -139 22 -270 0 -228 -26 -381 -132
-780 -28 -101 -49 -186 -48 -187 4 -4 243 182 364 283 366 304 747 690 1019
1029 590 735 881 1437 843 2034 -13 206 -53 368 -135 548 l-34 76 107 111
c412 426 1211 1357 1743 2031 1359 1723 2302 3361 3152 5475 61 151 117 282
125 292 9 10 11 18 4 22 -5 4 -13 0 -18 -8z m-2629 -2749 c210 -77 346 -269
346 -491 0 -151 -42 -254 -147 -367 -103 -109 -230 -163 -383 -161 -435 3
-675 504 -407 850 71 92 204 172 327 196 59 11 196 -3 264 -27z"/>
<path d="M8635 9445 c-97 -86 -207 -132 -340 -141 -134 -10 -256 24 -371 102
l-64 44 15 -37 c47 -112 118 -187 223 -236 61 -29 76 -31 172 -32 101 0 108 1
181 37 111 55 195 154 227 271 6 20 10 37 9 37 -1 -1 -24 -21 -52 -45z"/>
<path d="M4655 5469 c-91 -48 -224 -178 -497 -486 -500 -563 -1106 -1287
-1519 -1818 -232 -297 -624 -825 -613 -825 21 0 936 917 1218 1220 255 274
524 576 798 895 114 132 252 292 308 355 217 245 358 430 400 521 24 53 26
122 4 143 -21 22 -52 20 -99 -5z"/>
<path d="M1873 2792 c-329 -249 -819 -727 -1105 -1075 -369 -452 -642 -969
-730 -1387 -18 -88 -40 -309 -31 -319 9 -11 167 24 276 59 403 134 884 469
1285 897 330 352 760 934 948 1286 30 55 53 102 51 103 -1 2 -104 -119 -227
-268 -236 -284 -447 -506 -640 -672 -226 -194 -460 -353 -628 -427 -92 -40
-245 -80 -258 -67 -10 11 -6 159 6 214 69 319 342 804 656 1169 38 44 103 121
144 170 41 50 142 159 224 243 82 83 145 152 140 152 -5 -1 -55 -36 -111 -78z"/>
<path d="M2015 2678 c-147 -118 -412 -379 -536 -529 -246 -294 -417 -649 -430
-889 l-4 -65 30 3 c53 7 188 53 265 92 301 152 578 413 885 834 83 115 220
334 213 342 -2 2 -64 -69 -138 -158 -202 -241 -399 -419 -588 -530 -89 -52
-143 -75 -192 -79 l-35 -4 2 66 c7 205 240 587 551 902 48 48 82 87 77 87 -6
0 -51 -33 -100 -72z"/>
</g>
</svg>
