<?xml version="1.0" standalone="no"?>
<!DOCTYPE svg PUBLIC "-//W3C//DTD SVG 20010904//EN"
 "http://www.w3.org/TR/2001/REC-SVG-20010904/DTD/svg10.dtd">
<svg version="1.0" xmlns="http://www.w3.org/2000/svg"
 width="1280.000000pt" height="1280.000000pt" viewBox="0 0 1280.000000 1280.000000"
 preserveAspectRatio="xMidYMid meet">
<metadata>
Created by potrace 1.15, written by Peter Selinger 2001-2017
</metadata>
<g transform="translate(0.000000,1280.000000) scale(0.100000,-0.100000)"
fill="#000000" stroke="none">
<path d="M6169 11553 l-225 -1237 -115 -17 c-588 -85 -1159 -309 -1654 -647
-821 -561 -1411 -1433 -1624 -2402 -27 -124 -61 -326 -61 -367 0 -18 -2 -33
-5 -33 -3 0 -550 -99 -1216 -220 -666 -121 -1221 -221 -1235 -222 -13 -1 -24
-5 -24 -8 0 -4 557 -108 1237 -231 l1237 -225 17 -115 c157 -1082 770 -2063
1674 -2681 411 -281 897 -492 1375 -597 124 -27 326 -61 368 -61 17 0 32 -2
32 -5 0 -3 99 -550 220 -1216 121 -666 221 -1221 222 -1235 1 -13 5 -24 8 -24
4 0 108 557 231 1237 l225 1237 115 17 c588 85 1159 309 1654 647 821 561
1411 1433 1624 2402 27 124 61 326 61 368 0 17 2 32 5 32 3 0 550 99 1216 220
666 121 1221 221 1235 222 13 1 24 5 24 8 0 4 -557 108 -1237 231 l-1237 225
-17 115 c-157 1082 -770 2063 -1674 2681 -411 281 -897 492 -1375 597 -124 27
-326 61 -367 61 -18 0 -33 2 -33 5 0 3 -99 550 -220 1216 -121 666 -221 1221
-222 1235 -1 13 -5 24 -8 24 -4 0 -108 -557 -231 -1237z m-419 -2293 c0 -15
-251 -1394 -255 -1398 -1 -1 -240 112 -531 251 -291 140 -530 253 -532 252 -2
-1 110 -238 248 -526 138 -288 252 -528 253 -533 1 -5 -302 -64 -673 -132
-371 -67 -687 -125 -702 -128 -19 -4 -28 -1 -28 8 0 7 15 69 34 138 270 984
1070 1781 2056 2048 119 32 130 34 130 20z m1409 -15 c289 -73 608 -218 878
-398 582 -389 1017 -991 1200 -1659 19 -71 33 -132 30 -135 -5 -4 -1398 245
-1405 251 -1 2 112 241 251 532 140 291 253 530 252 532 -1 2 -238 -110 -526
-248 -288 -138 -528 -252 -533 -253 -5 -1 -64 302 -132 673 -67 371 -125 687
-128 703 -3 15 -1 27 5 27 6 0 54 -11 108 -25z m2111 -3498 c0 -27 -70 -268
-106 -363 -311 -834 -969 -1478 -1806 -1769 -114 -40 -298 -89 -305 -81 -5 4
245 1397 252 1404 1 1 240 -112 531 -251 291 -140 530 -253 532 -252 2 1 -110
238 -248 526 -138 288 -252 528 -253 533 -1 6 1299 253 1396 265 4 1 7 -5 7
-12z m-5027 -123 c380 -69 693 -127 695 -128 1 -2 -112 -241 -251 -532 -140
-291 -253 -530 -252 -532 1 -2 238 110 526 248 288 138 528 252 533 253 9 2
268 -1394 261 -1402 -7 -7 -189 42 -301 80 -921 315 -1636 1071 -1890 1997
-38 139 -38 142 -24 142 6 0 322 -57 703 -126z"/>
</g>
</svg>
