<?xml version="1.0" standalone="no"?>
<!DOCTYPE svg PUBLIC "-//W3C//DTD SVG 20010904//EN"
 "http://www.w3.org/TR/2001/REC-SVG-20010904/DTD/svg10.dtd">
<svg version="1.0" xmlns="http://www.w3.org/2000/svg"
 width="1276.000000pt" height="1280.000000pt" viewBox="0 0 1276.000000 1280.000000"
 preserveAspectRatio="xMidYMid meet">
<metadata>
Created by potrace 1.15, written by Peter Selinger 2001-2017
</metadata>
<g transform="translate(0.000000,1280.000000) scale(0.100000,-0.100000)"
fill="#000000" stroke="none">
<path d="M6585 12790 c-712 -52 -1344 -219 -2025 -538 -184 -86 -718 -388
-706 -399 2 -2 79 12 172 31 331 68 738 128 1069 157 193 17 686 14 890 -5
453 -43 829 -121 1235 -256 1478 -491 2647 -1600 3148 -2985 96 -267 177 -608
219 -920 26 -199 26 -738 0 -940 -85 -657 -312 -1260 -687 -1820 -96 -142
-199 -280 -210 -280 -11 0 -2190 2163 -2190 2174 0 6 725 833 1281 1462 l58
65 -1159 453 c-637 250 -1165 451 -1172 448 -24 -11 -3443 -3302 -3443 -3315
0 -12 1750 -1722 1763 -1722 4 0 256 239 560 531 l554 531 51 -50 c29 -27
1212 -1188 2630 -2581 1418 -1392 2581 -2531 2585 -2530 4 0 342 342 752 760
l746 759 -610 609 -609 609 95 148 c377 590 649 1176 849 1834 153 500 248
988 306 1570 24 238 24 722 0 940 -88 800 -346 1558 -775 2274 -471 787 -1130
1481 -1897 1999 -812 548 -1702 875 -2645 972 -182 19 -663 27 -835 15z"/>
<path d="M1592 10328 c-313 -351 -563 -699 -789 -1097 -53 -93 -62 -116 -51
-126 7 -7 153 -125 325 -264 l312 -251 -55 -118 c-115 -243 -223 -523 -293
-757 l-33 -110 -421 0 -421 0 -13 -55 c-29 -123 -83 -436 -102 -585 -33 -256
-41 -382 -48 -691 l-6 -291 420 -103 421 -103 11 -121 c24 -239 65 -478 122
-719 17 -70 29 -133 26 -140 -3 -7 -161 -111 -352 -232 -191 -121 -349 -224
-351 -230 -15 -39 212 -616 351 -895 101 -201 299 -550 313 -550 6 0 106 32
516 166 231 75 292 92 301 82 7 -7 57 -74 112 -148 133 -178 204 -262 386
-459 84 -90 152 -168 152 -175 0 -6 -92 -174 -203 -374 l-204 -362 53 -48
c257 -231 636 -510 959 -704 83 -50 348 -195 366 -200 6 -2 131 141 279 317
147 176 271 324 275 328 4 4 45 -9 91 -29 206 -89 477 -184 699 -244 l135 -37
3 -431 2 -430 53 -12 c185 -40 514 -87 782 -112 147 -13 768 -18 780 -6 4 4
20 60 36 125 126 515 178 725 182 729 2 2 72 13 156 24 217 29 399 64 609 116
101 25 185 44 187 42 1 -2 95 -169 209 -372 113 -203 208 -371 210 -374 7 -6
249 77 404 139 292 116 621 279 877 432 55 33 102 61 104 63 2 1 -196 214
-440 471 -244 257 -628 663 -853 901 -225 237 -412 432 -416 432 -4 0 -50 -17
-101 -39 -252 -104 -569 -186 -902 -232 -188 -26 -589 -36 -789 -20 -935 74
-1788 476 -2439 1148 -461 476 -785 1056 -949 1698 -84 329 -114 574 -114 940
-1 262 7 365 40 585 105 684 416 1363 861 1876 l53 62 -628 610 c-345 336
-730 714 -857 841 -126 127 -233 231 -236 231 -4 0 -52 -51 -107 -112z"/>
</g>
</svg>
