<?xml version="1.0" standalone="no"?>
<!DOCTYPE svg PUBLIC "-//W3C//DTD SVG 20010904//EN"
 "http://www.w3.org/TR/2001/REC-SVG-20010904/DTD/svg10.dtd">
<svg version="1.0" xmlns="http://www.w3.org/2000/svg"
 width="1144.000000pt" height="1280.000000pt" viewBox="0 0 1144.000000 1280.000000"
 preserveAspectRatio="xMidYMid meet">
<metadata>
Created by potrace 1.15, written by Peter Selinger 2001-2017
</metadata>
<g transform="translate(0.000000,1280.000000) scale(0.100000,-0.100000)"
fill="#000000" stroke="none">
<path d="M5590 12794 c-14 -2 -59 -9 -100 -15 -153 -23 -370 -110 -514 -208
-131 -88 -280 -239 -363 -367 -243 -375 -286 -810 -122 -1231 23 -57 39 -105
38 -107 -2 -1 -292 -169 -644 -371 -352 -203 -820 -474 -1040 -601 -378 -220
-401 -231 -415 -214 -8 10 -42 53 -75 95 -186 237 -491 415 -804 469 -119 20
-331 21 -445 1 -950 -166 -1413 -1247 -879 -2049 209 -314 555 -527 938 -577
l95 -12 0 -1207 0 -1207 -95 -12 c-692 -90 -1194 -685 -1161 -1376 15 -327
138 -616 364 -857 171 -182 403 -313 667 -379 116 -29 377 -37 505 -15 339 58
650 246 849 513 l54 73 31 -19 c17 -10 486 -281 1041 -601 556 -321 1012 -584
1014 -586 1 -1 -15 -50 -38 -107 -130 -332 -130 -673 -2 -993 74 -183 165
-317 312 -460 186 -179 390 -288 650 -345 149 -34 389 -34 538 0 260 57 464
166 649 345 147 143 248 292 317 471 125 323 123 653 -6 982 -23 57 -39 106
-38 107 2 2 463 268 1024 591 561 324 1029 594 1041 602 20 12 24 9 75 -59
199 -268 510 -456 849 -514 128 -22 389 -14 505 15 258 64 462 178 640 356
245 244 375 537 391 880 27 549 -292 1059 -798 1277 -113 49 -239 83 -363 99
l-95 11 0 1208 0 1208 95 12 c517 65 944 421 1103 921 194 608 -87 1281 -658
1573 -197 101 -384 146 -605 146 -278 0 -515 -72 -745 -224 -110 -74 -242
-199 -319 -304 -51 -68 -55 -71 -75 -59 -12 8 -480 279 -1041 602 -561 324
-1022 590 -1024 591 -2 2 15 50 37 107 165 414 122 856 -121 1231 -83 128
-232 279 -363 367 -135 91 -329 173 -488 205 -70 14 -338 27 -386 18z m288
-124 c323 -41 646 -237 831 -504 204 -295 271 -683 176 -1012 -28 -93 -77
-219 -86 -219 -15 0 -1026 589 -1041 606 -9 10 -26 19 -38 19 -12 0 -29 -9
-38 -19 -15 -17 -1012 -598 -1037 -604 -5 -1 -22 28 -37 64 -78 188 -110 392
-90 582 53 507 390 911 877 1052 149 43 319 55 483 35z m-534 -1716 c-114
-198 -224 -389 -246 -427 l-39 -67 -46 32 c-104 74 -292 275 -305 325 -3 11
831 504 840 497 2 -1 -90 -163 -204 -360z m1046 76 c184 -106 339 -196 343
-200 23 -20 -190 -255 -306 -338 l-46 -32 -39 67 c-209 361 -452 784 -452 788
0 3 37 -17 83 -44 45 -26 233 -135 417 -241z m-730 -336 l0 -427 -67 6 c-38 3
-101 13 -141 22 -67 15 -72 19 -66 38 3 12 47 139 96 282 50 143 109 315 132
382 22 68 42 123 44 123 1 0 2 -192 2 -426z m267 12 c74 -213 132 -390 130
-393 -9 -9 -193 -43 -234 -43 l-43 0 1 428 c0 235 3 420 6 412 3 -8 66 -190
140 -404z m-568 -80 c-49 -143 -91 -262 -94 -264 -8 -8 -95 29 -95 40 0 11
272 489 276 485 1 -1 -38 -119 -87 -261z m784 8 c70 -121 127 -226 127 -232 0
-11 -87 -48 -95 -40 -3 2 -43 114 -89 249 -46 134 -87 253 -91 264 l-7 20 14
-20 c8 -11 71 -119 141 -241z m-1497 59 c59 -84 220 -245 296 -297 53 -36 56
-40 45 -61 -7 -12 -183 -317 -391 -678 l-380 -657 -783 0 -783 0 0 38 c0 105
-54 317 -115 449 l-33 72 1036 599 c571 330 1042 601 1049 601 6 1 33 -29 59
-66z m3257 -536 l1035 -598 -33 -72 c-61 -134 -115 -343 -115 -448 l0 -39
-783 0 -783 0 -380 657 c-208 361 -384 666 -391 678 -11 21 -8 25 45 61 76 52
237 213 296 297 27 37 54 67 61 65 6 -2 478 -272 1048 -601z m-2733 108 c55
-28 55 -28 39 -74 -9 -26 -26 -39 -83 -68 -39 -20 -95 -51 -123 -69 -29 -19
-53 -31 -53 -27 0 7 127 230 143 251 13 17 21 16 77 -13z m1247 -105 c40 -69
73 -129 73 -133 0 -4 -25 8 -55 28 -30 19 -86 51 -125 70 -62 31 -70 39 -81
75 -7 22 -10 41 -8 43 26 16 97 46 108 44 8 -1 48 -58 88 -127z m-4939 -26
c201 -20 435 -120 613 -263 102 -81 257 -259 238 -274 -25 -21 -1027 -591
-1043 -594 -31 -6 -49 -38 -36 -63 6 -12 10 -227 10 -614 l0 -596 -24 0 c-51
0 -205 32 -290 61 -414 139 -721 490 -807 924 -21 104 -18 359 5 465 112 522
549 911 1076 959 92 8 134 8 258 -5z m8817 -5 c487 -68 895 -454 1001 -949 23
-106 26 -361 5 -465 -86 -434 -393 -785 -807 -924 -85 -29 -239 -61 -290 -61
l-24 0 0 596 c0 387 4 602 10 614 13 25 -5 57 -36 63 -16 3 -1018 573 -1043
594 -19 15 136 193 238 274 274 220 594 307 946 258z m-4635 -559 l0 -570
-365 0 c-272 0 -365 3 -365 12 0 6 63 194 141 417 77 223 159 458 181 522 l40
117 71 22 c83 26 194 48 255 49 l42 1 0 -570z m272 556 c42 -8 108 -24 146
-36 l70 -22 40 -117 c22 -64 104 -299 181 -522 78 -223 141 -411 141 -417 0
-9 -93 -12 -365 -12 l-365 0 0 570 0 570 38 0 c20 -1 71 -7 114 -14z m-851
-303 c-32 -93 -109 -315 -172 -496 l-113 -328 -140 3 -140 3 3 47 c4 76 36
216 70 309 83 226 254 443 457 577 43 29 82 52 86 52 4 0 -19 -75 -51 -167z
m1323 109 c143 -95 318 -295 399 -457 58 -116 110 -304 119 -430 l3 -40 -140
-3 -141 -3 -113 328 c-63 181 -140 404 -172 497 -45 127 -55 167 -43 162 9 -3
48 -28 88 -54z m-3933 -611 c32 -94 59 -223 59 -282 l0 -39 -492 0 c-270 0
-488 3 -484 8 4 4 195 116 424 248 l417 242 24 -47 c13 -25 37 -84 52 -130z
m7019 -81 c212 -122 389 -226 395 -231 5 -5 -189 -9 -483 -9 l-492 0 0 39 c0
92 45 267 102 393 l31 68 31 -19 c17 -11 204 -119 416 -241z m-5094 -215 c-4
-14 -13 -25 -21 -25 -19 0 -19 5 2 41 19 32 29 23 19 -16z m2684 -17 c0 -5 -6
-8 -14 -8 -16 0 -26 21 -26 53 0 20 2 19 20 -8 11 -16 20 -33 20 -37z m-4550
-177 c0 -28 -3 -52 -7 -54 -5 -3 -129 19 -278 48 l-270 54 278 0 277 1 0 -49z
m382 14 c-35 -18 -91 -52 -125 -74 -56 -36 -65 -39 -100 -31 -21 4 -40 10 -41
12 -1 1 0 31 2 66 l4 62 161 0 162 0 -63 -35z m858 5 c83 -17 231 -67 282 -96
15 -8 8 -24 -54 -132 -53 -92 -74 -122 -86 -118 -10 3 -233 46 -497 96 -264
50 -488 94 -499 98 -14 6 7 20 92 60 240 114 497 145 762 92z m370 21 c0 -18
-15 -19 -40 -5 l-25 13 33 1 c17 0 32 -4 32 -9z m254 -23 c3 -18 8 -55 11 -83
3 -27 9 -65 12 -84 l6 -33 -64 52 c-35 28 -76 59 -91 68 -34 20 -34 24 -6 73
21 38 24 39 74 39 52 0 53 -1 58 -32z m356 25 c0 -14 -132 -388 -140 -396 -17
-19 -78 211 -94 356 l-6 47 120 0 c66 0 120 -3 120 -7z m729 3 c-9 -8 -738
-426 -743 -426 -4 0 87 272 131 388 l16 42 300 0 c165 0 298 -2 296 -4z m1094
-38 c44 -116 135 -388 131 -388 -5 0 -734 418 -743 426 -2 2 131 4 296 4 l300
0 16 -42z m351 -5 c-16 -145 -78 -374 -95 -356 -7 8 -139 383 -139 396 0 4 54
7 120 7 l120 0 -6 -47z m254 8 c28 -49 28 -53 -5 -73 -16 -9 -57 -40 -92 -68
l-64 -52 6 33 c3 19 9 57 12 84 15 123 10 115 69 115 50 0 53 -1 74 -39z m162
25 c-25 -14 -40 -13 -40 5 0 5 15 9 33 9 l32 -1 -25 -13z m689 4 c145 -15 275
-51 403 -112 85 -40 106 -54 92 -60 -11 -4 -235 -48 -499 -98 -264 -50 -487
-93 -497 -96 -21 -6 -163 236 -145 248 29 19 198 79 261 93 65 15 182 31 252
34 18 0 77 -4 133 -9z m763 -52 c2 -35 3 -65 2 -66 -1 -2 -20 -8 -41 -12 -35
-8 -44 -5 -100 31 -34 22 -90 56 -125 74 l-63 35 162 0 161 0 4 -62z m403 7
c-148 -29 -273 -51 -277 -48 -5 2 -8 26 -8 54 l0 49 278 -1 277 0 -270 -54z
m-7105 -91 c223 -43 407 -78 408 -80 12 -8 -82 -264 -97 -264 -11 0 -736 420
-726 420 6 1 192 -34 415 -76z m7320 -134 c-200 -115 -368 -210 -371 -210 -14
0 -109 254 -98 263 6 6 781 155 809 156 14 1 -132 -89 -340 -209z m-7544 -734
c11 -28 -269 -117 -414 -132 l-72 -7 0 494 0 493 240 -417 c133 -230 243 -424
246 -431z m152 604 c177 -102 322 -188 322 -191 1 -20 -162 -209 -180 -209 -5
0 -125 134 -266 298 -141 163 -266 308 -278 321 -20 22 -18 22 29 -5 28 -16
196 -112 373 -214z m7800 212 c-98 -116 -530 -612 -537 -616 -4 -3 -36 27 -70
67 -81 96 -118 149 -106 154 6 2 172 98 370 213 198 115 362 209 363 209 2 1
-7 -11 -20 -27z m242 -463 l0 -492 -72 7 c-93 10 -234 46 -334 86 -43 17 -80
33 -82 35 -4 4 479 854 486 855 1 0 2 -221 2 -491z m-4782 305 c-84 -97 -166
-192 -183 -210 l-30 -33 -133 26 c-73 14 -130 28 -127 32 9 9 609 359 618 360
4 1 -61 -78 -145 -175z m378 -351 c-4 -4 -267 45 -274 51 -2 2 59 111 135 242
l138 239 3 -264 c1 -145 1 -266 -2 -268z m273 283 c73 -126 130 -230 128 -232
-3 -3 -256 -54 -269 -54 -5 0 -8 120 -8 267 0 154 4 263 9 258 5 -6 68 -113
140 -239z m392 68 c167 -97 308 -179 312 -183 5 -5 -52 -20 -125 -34 l-133
-26 -30 33 c-68 75 -336 386 -332 386 2 0 141 -79 308 -176z m-2085 119 c108
-82 253 -227 240 -241 -8 -8 -416 72 -416 81 0 5 19 41 41 80 60 104 68 117
78 117 4 0 30 -17 57 -37z m3091 -59 c29 -49 52 -93 52 -99 1 -11 -405 -92
-414 -83 -21 21 267 286 299 275 6 -2 34 -44 63 -93z m-4178 -55 c201 -38 440
-84 531 -101 91 -17 168 -34 173 -38 12 -10 -348 -625 -366 -624 -8 1 -232
126 -496 279 l-481 278 16 26 c61 96 212 251 243 251 8 0 179 -32 380 -71z
m5587 27 c49 -43 143 -153 178 -207 l16 -26 -481 -278 c-264 -153 -488 -278
-496 -279 -17 -1 -378 612 -367 623 7 7 1038 208 1074 210 17 1 43 -14 76 -43z
m-6875 -333 c85 -98 167 -192 182 -210 l28 -32 -46 -31 c-26 -18 -48 -30 -49
-28 -3 2 -229 394 -273 471 -16 28 24 -15 158 -170z m3428 98 c-28 -49 -47
-71 -60 -71 -10 0 -19 3 -19 6 0 8 114 143 118 140 1 -2 -16 -35 -39 -75z
m889 3 c29 -34 52 -64 52 -68 0 -3 -9 -6 -19 -6 -13 0 -32 22 -60 71 -39 67
-51 95 -33 74 5 -6 32 -38 60 -71z m3559 69 c-44 -77 -270 -469 -273 -471 -1
-2 -23 10 -49 28 l-46 31 28 32 c15 18 97 112 182 210 134 155 174 198 158
170z m-5527 -68 c107 -19 203 -39 212 -43 13 -5 -83 -65 -353 -221 -204 -117
-372 -211 -374 -210 -1 2 44 85 102 184 57 99 124 215 148 257 26 44 50 76 58
73 6 -2 100 -20 207 -40z m3401 -234 c75 -130 135 -238 133 -240 -1 -1 -169
93 -373 210 -203 118 -367 216 -365 218 2 3 102 23 222 46 215 42 217 42 232
22 8 -11 76 -126 151 -256z m-4629 -178 c246 -142 448 -262 448 -266 0 -14
-354 -626 -362 -627 -6 0 -671 762 -726 831 -10 13 -9 29 3 83 18 76 59 194
87 249 l19 38 42 -26 c23 -13 243 -141 489 -282z m1912 281 c39 -8 72 -16 74
-19 5 -5 -79 -105 -89 -105 -6 0 -77 79 -119 133 -15 21 -13 21 134 -9z m1785
9 c-40 -53 -112 -133 -118 -133 -11 0 -94 100 -88 106 4 5 180 42 206 43 11 1
11 -2 0 -16z m2362 -97 c17 -43 39 -115 50 -158 17 -66 18 -83 7 -96 -56 -71
-720 -832 -726 -832 -8 1 -362 613 -362 626 0 5 220 136 488 290 428 248 489
280 500 266 6 -9 26 -52 43 -96z m-4576 -63 c-25 -70 -48 -129 -51 -132 -6 -7
-527 -110 -532 -106 -3 2 618 364 625 365 2 0 -18 -57 -42 -127z m2788 -58
c169 -97 307 -179 305 -180 -5 -4 -526 99 -532 106 -10 9 -96 260 -88 256 4
-2 146 -84 315 -182z m-2076 151 c2 -1 -8 -23 -22 -48 -23 -42 -29 -46 -82
-57 -31 -6 -60 -11 -66 -11 -5 0 17 30 49 66 53 60 61 65 88 60 16 -4 31 -8
33 -10z m1208 -51 c31 -36 53 -65 48 -65 -6 0 -35 5 -66 11 -53 11 -59 15 -82
57 -30 53 -29 49 -7 55 40 11 52 4 107 -58z m-1720 -25 c15 -44 25 -85 23 -92
-6 -16 -128 -39 -128 -24 0 19 64 196 71 196 4 0 19 -36 34 -80z m2183 -12
c18 -51 32 -98 32 -104 0 -15 -122 8 -128 24 -6 18 45 172 57 172 4 0 21 -42
39 -92z m-1478 53 c22 -7 21 -8 -18 -15 -45 -8 -58 -5 -47 13 7 12 28 13 65 2z
m765 -2 c11 -18 -2 -21 -47 -13 -39 7 -40 8 -18 15 37 11 58 10 65 -2z m-475
-224 l0 -145 -23 0 c-88 0 -293 52 -410 104 l-58 25 21 41 c11 22 26 40 33 40
6 0 100 18 207 40 107 21 203 39 213 39 15 1 17 -12 17 -144z m373 99 l199
-38 19 -38 20 -39 -58 -25 c-117 -52 -322 -104 -410 -104 l-23 0 0 146 0 147
28 -6 c15 -2 116 -22 225 -43z m-3835 -288 l-3 -147 -78 136 c-43 75 -76 139
-73 142 3 3 27 20 53 38 l48 33 28 -27 28 -27 -3 -148z m7202 127 c0 -2 -35
-64 -77 -139 l-78 -135 -3 147 -3 147 27 28 26 28 54 -36 c30 -20 54 -38 54
-40z m-4442 36 l42 -31 -25 -41 c-23 -39 -28 -42 -73 -45 l-49 -3 -7 53 c-6
48 -4 55 19 76 34 29 43 28 93 -9z m1617 9 c23 -21 25 -28 19 -76 l-7 -53 -49
3 c-45 3 -50 6 -73 45 l-25 41 42 31 c50 37 59 38 93 9z m-1905 -33 c0 -3 -19
-26 -41 -50 -38 -41 -45 -45 -90 -45 -41 0 -49 3 -49 18 0 34 26 54 86 67 66
15 94 17 94 10z m2190 -10 c65 -13 90 -32 90 -67 0 -15 -8 -18 -49 -18 -45 0
-52 4 -90 45 -22 24 -41 47 -41 50 0 8 18 6 90 -10z m-2497 -65 c-5 -18 -14
-20 -96 -20 -50 0 -88 2 -85 5 6 6 133 32 165 34 16 1 20 -3 16 -19z m2811 5
c44 -9 82 -18 85 -20 2 -3 -36 -5 -86 -5 -82 0 -91 2 -96 20 -6 24 -4 24 97 5z
m-4850 -676 c213 -369 386 -677 384 -684 -2 -7 -176 -313 -388 -680 -285 -494
-389 -665 -400 -661 -8 3 -54 21 -102 41 -109 45 -217 73 -340 87 l-98 12 0
1207 0 1206 73 7 c137 14 340 69 432 119 17 9 35 16 41 17 5 0 184 -302 398
-671z m2811 661 c3 -5 -3 -10 -14 -10 -12 0 -21 5 -21 10 0 6 6 10 14 10 8 0
18 -4 21 -10z m1205 0 c0 -5 -12 -10 -26 -10 -14 0 -23 4 -19 10 3 6 15 10 26
10 10 0 19 -4 19 -10z m3281 -34 c108 -45 216 -73 342 -88 l97 -12 0 -1206 0
-1206 -97 -12 c-124 -14 -232 -42 -341 -87 -48 -20 -94 -38 -102 -41 -12 -4
-112 162 -395 652 -209 361 -384 666 -389 678 -7 18 58 137 380 694 289 501
393 672 404 668 8 -3 54 -21 101 -40z m-6965 -401 c182 -209 333 -386 338
-393 6 -10 -70 -159 -123 -241 -12 -18 -80 29 -183 127 -217 208 -348 486
-366 782 -4 61 -5 109 -1 108 3 -2 154 -174 335 -383z m6462 275 c-19 -301
-155 -586 -381 -797 -65 -60 -155 -128 -162 -121 -1 1 -33 55 -70 118 -61 105
-66 117 -53 137 16 27 661 772 668 773 3 0 2 -49 -2 -110z m-4808 23 c0 -13
-83 -247 -90 -256 -6 -7 -428 229 -454 254 -6 5 104 9 267 9 152 0 277 -3 277
-7z m161 -10 c-5 -10 -21 -29 -35 -42 l-26 -24 17 41 c11 29 22 42 35 42 15 0
17 -4 9 -17z m259 -5 c0 -45 -30 -206 -51 -274 -17 -56 -71 -179 -83 -191 -3
-4 -226 124 -240 137 -4 5 58 85 140 179 l148 171 43 0 c38 0 43 -3 43 -22z
m140 15 c0 -5 -5 -15 -10 -23 -8 -12 -10 -11 -10 8 0 12 5 22 10 22 6 0 10 -3
10 -7z m275 -3 c-3 -5 -11 -10 -17 -10 -6 0 -44 -20 -85 -45 -42 -26 -77 -45
-78 -43 -2 2 11 27 27 56 l30 52 65 0 c40 0 62 -4 58 -10z m1303 -42 c16 -29
29 -54 27 -56 -1 -2 -36 17 -78 43 -41 25 -79 45 -85 45 -6 0 -14 5 -17 10 -4
6 18 10 58 10 l65 0 30 -52z m142 30 c0 -19 -2 -20 -10 -8 -13 19 -13 30 0 30
6 0 10 -10 10 -22z m354 -149 c82 -94 144 -174 140 -179 -5 -5 -60 -38 -123
-74 -132 -77 -122 -79 -171 47 -37 94 -67 215 -76 308 l-7 69 45 0 44 0 148
-171z m69 129 l17 -41 -26 24 c-39 36 -49 59 -26 59 13 0 24 -13 35 -42z m661
33 c-26 -25 -448 -261 -454 -254 -7 9 -90 243 -90 256 0 4 125 7 277 7 163 0
273 -4 267 -9z m-2014 -546 c0 -300 -2 -545 -5 -545 -7 0 -927 530 -939 540
-23 21 186 248 307 334 84 59 217 128 303 156 87 29 229 58 287 59 l47 1 0
-545z m281 529 c245 -46 450 -154 625 -329 91 -91 170 -193 158 -205 -12 -10
-932 -540 -939 -540 -3 0 -5 245 -5 545 l0 545 39 0 c21 0 76 -7 122 -16z
m-2013 -217 c122 -71 222 -133 222 -138 0 -11 -170 -209 -179 -209 -3 0 -55
87 -116 192 -60 106 -123 214 -138 241 -16 27 -25 48 -20 46 5 -2 109 -62 231
-132z m3795 85 c-16 -26 -77 -134 -138 -240 -60 -105 -113 -192 -116 -192 -11
0 -180 201 -177 211 3 9 434 266 451 268 4 1 -5 -21 -20 -47z m-4263 -452 c0
-236 -3 -430 -7 -429 -7 0 -91 96 -270 308 l-32 38 147 256 c81 141 150 256
155 257 4 0 7 -193 7 -430z m4682 173 l146 -257 -31 -37 c-180 -212 -263 -308
-269 -308 -5 -1 -8 193 -8 429 0 237 3 430 8 430 4 -1 73 -116 154 -257z
m-4461 -153 l83 -246 -89 -102 c-48 -56 -90 -102 -92 -102 -2 0 -3 163 -3 363
0 199 4 355 9 347 5 -8 46 -125 92 -260z m4177 -271 l-3 -181 -87 101 c-49 55
-88 106 -88 112 0 6 39 124 88 263 l87 251 3 -182 c1 -101 1 -264 0 -364z
m-3445 337 c64 -38 117 -71 117 -75 0 -13 -70 -109 -120 -164 -56 -62 -207
-187 -225 -187 -12 0 -45 52 -45 70 0 20 144 429 150 426 3 -2 58 -33 123 -70z
m2847 -229 l44 -128 -18 -34 c-11 -19 -24 -35 -30 -35 -19 0 -169 124 -226
187 -69 75 -126 161 -114 172 5 5 61 38 124 74 l114 67 31 -88 c17 -48 51
-145 75 -215z m-3420 132 c38 -64 45 -99 22 -99 -5 0 -23 38 -39 85 -17 47
-29 85 -27 85 2 0 22 -32 44 -71z m3777 -14 c-29 -83 -42 -100 -53 -71 -5 12
69 156 80 156 2 0 -10 -38 -27 -85z m-3544 -60 c-14 -43 -33 -53 -33 -18 0 14
36 63 46 63 2 0 -4 -20 -13 -45z m3327 -16 c0 -37 -19 -27 -34 18 l-16 46 25
-23 c14 -13 25 -31 25 -41z m-2062 -347 c138 -80 252 -148 252 -151 0 -6 -929
-546 -940 -546 -8 0 -50 94 -75 172 -84 257 -76 561 22 808 19 50 40 95 45
102 6 8 70 -24 226 -114 119 -69 331 -191 470 -271z m1500 298 c91 -226 110
-500 51 -739 -22 -91 -74 -228 -93 -247 -8 -8 -137 62 -479 260 -257 149 -466
274 -465 278 2 4 212 129 468 276 342 198 468 266 476 258 6 -6 25 -45 42 -86z
m-3603 -213 c75 -87 135 -161 132 -163 -19 -19 -359 85 -395 121 -6 6 111 206
119 203 3 -2 68 -74 144 -161z m740 118 l27 -45 -17 -52 c-10 -29 -20 -57 -23
-62 -3 -6 -18 28 -34 74 l-28 84 22 23 c12 13 23 23 24 23 2 0 15 -20 29 -45z
m3537 -85 c-16 -46 -31 -80 -34 -74 -3 5 -13 33 -23 62 l-17 52 27 46 27 46
24 -24 24 -24 -28 -84z m902 30 c32 -56 56 -103 53 -106 -32 -32 -376 -138
-393 -121 -6 5 266 326 277 327 3 0 31 -45 63 -100z m-4576 -132 c12 -32 18
-59 14 -62 -15 -9 -162 -38 -176 -34 -10 2 7 28 57 86 39 45 74 79 77 75 4 -5
16 -34 28 -65z m3903 -50 c39 -45 40 -48 17 -48 -21 0 -136 24 -165 35 -10 3
-9 16 5 52 11 26 22 57 26 68 8 22 2 27 117 -107z m-4941 37 c0 -2 -3 -11 -6
-20 -6 -14 -10 -12 -25 12 -26 38 -24 47 6 27 14 -9 25 -18 25 -19z m5873 -5
c-18 -28 -21 -29 -27 -14 -5 13 0 24 16 35 31 24 34 16 11 -21z m-4405 1 c-7
-11 -16 -17 -20 -14 -10 5 10 33 23 33 5 0 4 -9 -3 -19z m2921 5 c7 -8 8 -17
3 -19 -4 -3 -13 3 -20 14 -14 22 0 26 17 5z m-2801 -211 l-3 -55 -30 55 -29
55 29 55 30 55 3 -55 c2 -30 2 -80 0 -110z m2722 55 c0 -6 -13 -34 -30 -63
l-30 -52 0 115 0 115 30 -52 c17 -29 30 -57 30 -63z m-4100 46 c47 -20 91 -36
98 -36 6 0 12 -4 12 -10 0 -5 -7 -10 -15 -10 -8 0 -56 -18 -107 -40 -101 -43
-101 -43 -129 24 -11 25 -10 34 11 73 13 24 28 42 34 39 6 -3 49 -21 96 -40z
m5551 -1 l24 -45 -25 -45 c-14 -25 -29 -43 -35 -41 -107 47 -179 76 -191 76
-31 0 -11 17 39 33 28 9 75 28 102 41 28 14 53 25 56 25 3 1 17 -19 30 -44z
m-4403 -6 l23 -40 -22 -37 c-12 -20 -24 -39 -26 -41 -1 -2 -23 4 -48 14 -78
29 -83 93 -11 126 23 10 46 19 51 19 6 0 20 -18 33 -41z m3203 25 c76 -31 74
-99 -6 -129 -25 -10 -47 -16 -48 -14 -2 2 -14 21 -26 41 l-22 37 23 40 c13 23
26 41 30 41 4 0 26 -7 49 -16z m-3991 -139 c0 -7 -270 -319 -279 -323 -4 -1
-33 43 -65 99 -47 81 -56 103 -45 110 34 22 161 69 234 88 127 32 155 36 155
26z m400 -10 c40 -8 76 -18 81 -20 7 -5 -26 -110 -41 -128 -3 -4 -39 31 -79
78 -81 95 -81 95 39 70z m3939 -70 c-40 -47 -76 -82 -79 -78 -4 5 -16 34 -28
66 -20 53 -20 58 -5 64 28 11 126 31 156 32 27 1 26 -2 -44 -84z m521 53 c70
-18 196 -66 229 -87 11 -7 2 -29 -45 -110 -32 -56 -61 -100 -65 -99 -9 4 -279
316 -279 324 0 8 68 -4 160 -28z m-2570 -553 l0 -545 -39 0 c-21 0 -75 7 -120
15 -240 46 -449 155 -622 325 -90 89 -175 197 -164 208 10 11 929 541 938 542
4 0 7 -245 7 -545z m594 279 c253 -147 465 -270 470 -274 9 -9 -61 -105 -134
-184 -84 -91 -238 -201 -364 -260 -119 -55 -313 -106 -407 -106 l-39 0 0 545
c0 300 3 545 6 545 3 0 214 -120 468 -266z m-3475 205 c-31 -23 -34 -18 -14
22 16 29 18 31 27 14 9 -14 6 -22 -13 -36z m5910 -14 c-3 -2 -15 4 -27 14 -16
11 -21 22 -16 35 6 15 9 14 27 -14 11 -17 18 -33 16 -35z m-4415 16 c-7 -7
-34 21 -28 31 3 5 12 1 19 -9 7 -10 12 -20 9 -22z m2915 13 c-17 -21 -31 -17
-17 5 7 11 16 17 20 14 5 -2 4 -11 -3 -19z m-3729 -444 c0 -236 -3 -430 -7
-430 -10 1 -296 502 -294 515 2 13 284 343 294 344 4 1 7 -192 7 -429z m216
328 l89 -102 -84 -245 c-46 -135 -87 -253 -92 -261 -5 -8 -9 148 -9 348 0 199
2 362 3 362 2 0 44 -46 93 -102z m4184 -260 c0 -200 -4 -356 -9 -348 -5 8 -46
126 -92 261 l-84 245 89 102 c49 56 91 102 93 102 1 0 3 -163 3 -362z m280
191 c80 -94 145 -172 145 -175 0 -12 -291 -513 -297 -514 -5 0 -8 194 -8 430
0 237 3 430 8 429 4 0 72 -77 152 -170z m-4156 84 l17 -52 -27 -46 -27 -47
-23 24 -24 23 27 83 c15 45 30 78 34 74 4 -4 14 -30 23 -59z m3532 -121 l-23
-24 -27 47 -27 46 17 52 c9 29 19 56 22 61 3 6 18 -28 34 -74 l28 -84 -24 -24z
m-4583 1 c37 -64 66 -122 63 -128 -5 -13 -666 -779 -675 -783 -4 -1 -3 47 1
108 18 290 146 568 355 771 62 61 170 149 183 149 3 0 36 -53 73 -117z m1334
61 c104 -80 263 -258 263 -295 0 -4 -55 -39 -122 -77 l-122 -70 -31 86 c-17
48 -51 145 -75 215 l-44 128 18 34 c11 19 24 35 29 35 6 0 44 -25 84 -56z
m3019 21 l18 -34 -44 -128 c-24 -70 -58 -167 -75 -215 l-31 -86 -122 70 c-67
38 -122 73 -122 77 0 15 60 98 117 160 60 67 209 191 229 191 6 0 19 -16 30
-35z m1342 3 c69 -48 196 -172 251 -247 144 -195 225 -411 239 -641 4 -61 5
-109 1 -108 -9 4 -670 770 -675 783 -4 9 125 245 134 245 2 0 24 -14 50 -32z
m-4554 -225 l16 -46 -25 23 c-24 23 -32 50 -18 63 10 10 10 10 27 -40z m3326
18 c0 -10 -11 -28 -25 -41 l-25 -23 16 46 c15 45 34 55 34 18z m-3520 -13 c0
-9 -80 -148 -85 -148 -2 0 11 40 29 89 24 69 34 87 43 79 7 -6 13 -15 13 -20z
m3741 -70 c15 -43 26 -78 24 -78 -5 0 -85 138 -85 147 0 5 6 15 12 21 10 10
14 10 17 0 2 -7 16 -48 32 -90z m-4368 -347 c97 -170 177 -313 177 -318 0 -4
-220 -134 -488 -289 -425 -245 -489 -279 -500 -266 -19 24 -71 167 -93 254
-17 66 -18 83 -7 96 29 37 654 760 687 795 19 20 38 37 41 37 3 0 85 -139 183
-309z m810 209 c48 -55 87 -104 87 -108 0 -7 -265 -165 -454 -270 -5 -3 5 19
22 49 17 30 80 138 139 241 60 103 111 188 114 188 3 0 45 -45 92 -100z m3520
-88 c59 -103 122 -211 139 -241 17 -30 27 -52 22 -49 -189 105 -454 263 -454
270 0 10 170 208 179 208 3 0 54 -85 114 -188z m1140 -208 c186 -214 350 -403
363 -421 l25 -31 -20 -79 c-22 -88 -74 -231 -93 -255 -11 -13 -75 21 -500 266
-268 155 -488 285 -488 289 0 18 356 626 365 624 6 -2 162 -179 348 -393z
m-4094 234 c39 -84 68 -183 86 -292 22 -137 23 -136 -28 -136 l-43 0 -144 167
c-80 93 -145 172 -145 177 0 8 221 144 237 145 4 1 20 -27 37 -61z m2333 -4
c62 -36 117 -69 121 -74 5 -4 -58 -85 -139 -179 l-149 -171 -42 0 c-41 0 -43
2 -43 29 0 46 28 191 51 266 20 66 76 195 84 195 2 0 55 -30 117 -66z m-2696
-284 c24 -68 44 -128 44 -132 0 -4 -125 -8 -277 -7 -257 0 -276 1 -255 16 53
37 428 251 436 249 5 -1 28 -58 52 -126z m3182 4 c119 -69 221 -130 226 -135
6 -5 -100 -9 -267 -9 -152 0 -277 4 -277 8 0 5 18 60 40 123 22 63 43 120 45
127 2 6 7 12 10 12 3 0 103 -57 223 -126z m-2350 -109 c28 -15 52 -29 52 -31
0 -2 -29 -4 -64 -4 l-64 0 -31 55 c-17 30 -31 57 -31 60 0 2 19 -8 43 -24 23
-16 66 -41 95 -56z m1352 21 l-32 -56 -64 0 c-35 0 -64 2 -64 4 0 3 24 16 53
31 28 15 70 39 92 54 22 16 41 27 43 25 2 -1 -11 -27 -28 -58z m-1970 -48 c0
-4 -8 -8 -18 -8 -13 0 -24 14 -35 42 l-17 42 35 -34 c19 -19 35 -38 35 -42z
m2533 32 c-11 -27 -22 -40 -35 -40 -10 0 -18 3 -18 7 0 6 61 73 66 73 1 0 -5
-18 -13 -40z m-4839 -291 l-26 -28 -54 36 c-30 20 -54 38 -54 41 0 2 35 65 78
139 l77 134 3 -147 3 -147 -27 -28z m7150 184 c42 -73 76 -134 76 -136 0 -2
-24 -20 -54 -40 l-54 -36 -26 28 c-26 27 -26 29 -26 176 0 81 2 146 4 144 2
-2 38 -63 80 -136z m-4454 75 c0 -5 -4 -8 -10 -8 -5 0 -10 10 -10 23 0 18 2
19 10 7 5 -8 10 -18 10 -22z m1716 -5 c-11 -11 -17 4 -9 23 7 18 8 18 11 1 2
-10 1 -21 -2 -24z m-5326 -719 c0 -387 -4 -602 -10 -614 -14 -26 4 -53 44 -66
42 -13 1036 -587 1036 -598 0 -18 -85 -122 -161 -197 -117 -116 -273 -214
-439 -274 -233 -84 -539 -88 -777 -9 -410 136 -718 479 -809 904 -23 106 -26
361 -5 465 86 435 392 785 808 925 91 30 220 57 281 59 l32 1 0 -596z m266
581 c151 -26 349 -97 340 -122 -8 -19 -467 -816 -477 -828 -5 -5 -9 208 -9
478 l0 487 29 0 c15 0 68 -7 117 -15z m2837 -5 c3 -11 0 -20 -6 -20 -23 0
-158 28 -164 34 -4 3 32 6 79 6 77 0 86 -2 91 -20z m267 -25 c24 -24 41 -47
38 -50 -3 -3 -36 0 -74 7 -71 13 -104 34 -104 68 0 17 7 20 48 20 43 0 52 -4
92 -45z m345 -2 l25 -41 -42 -31 c-44 -33 -68 -33 -100 -2 -14 13 -16 26 -11
69 l6 53 49 -3 c45 -3 50 -6 73 -45z m160 37 c-3 -5 -13 -10 -21 -10 -8 0 -14
5 -14 10 0 6 9 10 21 10 11 0 17 -4 14 -10z m525 -136 l0 -146 -27 5 c-16 3
-117 22 -226 43 l-199 38 -19 38 -19 38 37 19 c100 50 315 107 421 110 l32 1
0 -146z m260 131 c96 -16 243 -61 313 -96 l37 -19 -19 -38 -19 -38 -199 -38
c-109 -21 -210 -40 -225 -43 l-28 -5 0 146 c0 170 -15 156 140 131z m420 5 c0
-5 -9 -10 -19 -10 -11 0 -23 5 -26 10 -4 6 5 10 19 10 14 0 26 -4 26 -10z
m253 -42 c5 -43 3 -56 -11 -69 -32 -31 -56 -31 -100 2 -40 29 -42 33 -29 53 8
11 19 31 26 44 10 18 20 22 60 22 l48 0 6 -52z m357 32 c0 -34 -33 -55 -104
-68 -38 -7 -71 -10 -74 -7 -3 3 14 26 38 50 40 41 49 45 92 45 41 0 48 -3 48
-20z m297 14 c-6 -6 -141 -34 -164 -34 -6 0 -9 9 -6 20 5 18 14 20 91 20 47 0
83 -3 79 -6z m2813 -481 c0 -278 -4 -483 -9 -478 -10 12 -469 809 -477 829
-13 33 314 132 449 135 l37 1 0 -487z m256 472 c439 -77 808 -395 943 -813 45
-138 56 -214 56 -377 0 -88 -6 -179 -14 -220 -74 -376 -312 -691 -646 -858
-180 -90 -339 -127 -547 -127 -299 0 -564 99 -795 298 -69 60 -203 216 -203
237 1 12 1012 596 1044 602 31 6 49 38 36 63 -6 12 -10 227 -10 614 l0 596 24
0 c13 0 63 -7 112 -15z m-6637 -324 c104 -180 177 -317 172 -321 -6 -3 -253
-52 -550 -109 l-539 -104 -42 33 c-46 36 -165 171 -193 219 l-17 29 493 285
c270 156 493 284 493 283 1 0 83 -142 183 -315z m4778 20 l473 -273 -17 -29
c-28 -48 -147 -183 -193 -219 l-42 -33 -539 104 c-297 57 -544 106 -550 109
-5 4 69 143 173 323 173 299 184 315 203 303 11 -7 233 -135 492 -285z m-4297
194 c135 -26 248 -50 252 -54 10 -9 99 -263 90 -258 -4 3 -142 82 -307 177
-296 171 -340 198 -300 187 11 -3 130 -27 265 -52z m3395 46 c-6 -4 -145 -86
-310 -181 -165 -95 -303 -174 -307 -177 -9 -5 80 249 90 258 5 6 485 103 527
108 6 1 6 -2 0 -8z m-3120 -469 c-8 -9 -440 -88 -447 -83 -7 7 -298 509 -298
515 0 2 169 -93 374 -212 206 -119 373 -218 371 -220z m3170 177 c-81 -140
-150 -257 -153 -260 -7 -5 -439 74 -447 83 -4 4 738 436 743 432 2 -1 -63
-116 -143 -255z m-5579 150 l44 -30 -152 -176 c-84 -97 -168 -192 -186 -212
l-33 -36 33 60 c57 105 243 425 246 425 2 0 23 -14 48 -31z m7544 -151 c58
-100 120 -209 138 -243 l33 -60 -33 36 c-18 20 -102 115 -186 212 l-152 176
42 30 c24 17 45 30 48 31 3 0 52 -82 110 -182z m-4932 156 c24 -4 46 -13 49
-20 6 -15 -45 -174 -56 -174 -3 0 -23 48 -44 106 -36 104 -37 106 -15 101 13
-4 43 -9 66 -13z m2214 -89 c-20 -58 -40 -105 -43 -105 -10 0 -62 157 -57 172
4 11 79 33 125 37 8 1 -1 -37 -25 -104z m-1779 4 c53 -11 59 -15 82 -57 14
-25 24 -46 23 -47 -2 -2 -17 -6 -34 -9 -28 -6 -35 -2 -88 59 -32 36 -54 65
-49 65 6 0 35 -5 66 -11z m1311 -54 c-53 -60 -61 -65 -89 -59 -16 3 -31 7 -33
9 -1 1 9 22 22 46 22 38 32 46 73 56 87 21 89 18 27 -52z m-4156 -47 c82 -97
119 -150 107 -155 -5 -2 -169 -96 -364 -208 -195 -113 -356 -204 -357 -202 -4
4 539 635 547 636 3 1 34 -32 67 -71z m7329 -246 c150 -174 271 -317 269 -319
-1 -2 -162 89 -357 202 -195 112 -358 206 -364 208 -5 2 2 21 17 43 38 53 150
184 157 183 3 0 128 -143 278 -317z m-4627 257 c23 -27 40 -52 38 -54 -6 -6
-211 -45 -215 -42 -5 5 117 147 126 147 4 0 27 -23 51 -51z m430 18 c-38 -10
-60 -4 -60 16 0 12 8 12 47 4 l46 -11 -33 -9z m772 1 c-5 -5 -25 -6 -48 -2
l-39 8 45 11 c44 11 63 4 42 -17z m497 -40 c34 -39 59 -73 58 -75 -4 -3 -209
36 -215 42 -6 5 79 105 89 105 4 0 35 -32 68 -72z m-969 -295 c0 -152 -4 -263
-9 -257 -16 18 -272 467 -267 471 4 5 232 50 259 52 16 1 17 -18 17 -266z
m264 242 c71 -13 130 -26 133 -28 4 -4 -252 -454 -268 -471 -5 -6 -9 105 -9
257 0 147 4 267 8 267 4 0 66 -11 136 -25z m-635 -126 c23 -39 41 -73 41 -75
0 -3 -27 26 -60 64 -33 39 -60 73 -60 76 0 3 9 6 19 6 13 0 32 -22 60 -71z
m941 65 c0 -3 -27 -37 -60 -76 -33 -38 -60 -67 -60 -64 0 2 18 36 41 75 28 49
47 71 60 71 10 0 19 -3 19 -6z m-1009 -201 c85 -98 168 -193 184 -212 29 -33
29 -34 5 -21 -54 29 -596 343 -603 350 -6 5 187 50 254 59 4 1 76 -79 160
-176z m1307 146 c62 -12 109 -25 105 -29 -8 -8 -550 -322 -603 -350 -24 -13
-24 -12 5 21 17 19 99 114 184 212 126 145 157 176 175 172 11 -2 72 -14 134
-26z m-4090 -151 c39 -96 64 -180 55 -189 -9 -7 -813 -163 -817 -158 -5 5 706
417 721 418 6 1 25 -32 41 -71z m2034 45 c-59 -82 -271 -268 -296 -260 -12 4
-115 176 -116 192 0 8 316 77 423 94 5 0 -1 -11 -11 -26z m2706 -19 c111 -21
202 -42 202 -47 0 -15 -110 -197 -119 -197 -16 0 -140 100 -204 164 -73 73
-119 133 -96 124 7 -3 105 -23 217 -44z m2234 -164 c196 -113 354 -207 352
-209 -5 -5 -808 151 -818 160 -16 14 78 262 98 257 7 -2 173 -95 368 -208z
m-4295 -66 c197 -113 360 -208 362 -210 2 -2 -131 -4 -296 -4 l-300 0 -16 43
c-70 186 -135 388 -123 384 8 -3 176 -99 373 -213z m1542 74 c-27 -79 -61
-176 -75 -215 l-26 -73 -302 0 c-182 0 -295 4 -286 10 112 67 727 420 732 420
3 0 -16 -64 -43 -142z m-1975 -83 c36 -105 66 -193 66 -198 0 -4 -54 -7 -120
-7 l-120 0 5 43 c19 136 30 192 57 276 16 51 33 89 38 85 4 -5 37 -95 74 -199z
m2180 128 c25 -77 50 -194 60 -285 l6 -48 -120 0 c-66 0 -120 3 -120 7 0 7
106 316 130 378 5 14 11 25 14 25 2 0 16 -35 30 -77z m-2865 -75 l70 -123 -32
-16 c-18 -9 -71 -31 -119 -48 -246 -86 -532 -87 -781 -2 -105 36 -247 107
-227 114 8 3 125 26 260 52 135 25 355 68 490 94 135 27 250 49 257 50 6 0 43
-54 82 -121z m3796 67 c132 -25 348 -66 480 -91 132 -25 247 -48 255 -51 20
-7 -123 -78 -230 -114 -46 -16 -123 -36 -170 -45 -114 -22 -319 -22 -433 0
-88 17 -234 64 -294 95 l-32 16 71 123 c61 107 73 123 92 118 11 -3 129 -26
261 -51z m-3390 -211 c-8 -60 -15 -110 -15 -111 0 -2 -24 -3 -54 -3 -53 0 -53
0 -77 46 -22 42 -23 46 -7 55 10 5 51 36 90 68 40 32 74 57 75 57 1 -1 -4 -51
-12 -112z m2768 -2 c33 -20 33 -24 5 -73 -21 -38 -24 -39 -74 -39 -59 0 -54
-8 -69 115 -3 28 -9 65 -12 84 l-6 33 64 -52 c35 -28 76 -59 92 -68z m-4395 2
c29 -19 85 -53 125 -74 l72 -40 -162 0 -161 0 -4 63 c-2 34 -3 64 -1 66 1 3
42 14 73 20 3 1 29 -15 58 -35z m5995 22 c21 -5 27 -11 23 -22 -3 -9 -6 -38
-6 -65 l0 -49 -162 0 -163 0 72 40 c40 21 96 55 125 74 29 20 59 34 68 32 8
-2 28 -7 43 -10z m-6245 -84 l3 -52 -278 1 c-153 1 -269 4 -258 6 116 25 512
100 520 98 6 -1 11 -25 13 -53z m6672 3 c135 -25 250 -48 255 -50 6 -2 -115
-4 -267 -4 l-278 -1 0 48 c0 53 6 65 29 58 9 -3 126 -26 261 -51z m-5060 -46
c0 -5 -15 -9 -32 -9 l-33 1 25 13 c25 14 40 13 40 -5z m3196 -7 c-31 -4 -41 2
-32 17 5 7 16 6 34 -2 l27 -12 -29 -3z m-4806 -161 c0 -93 -57 -308 -109 -409
-17 -33 -26 -42 -39 -37 -24 9 -832 476 -832 481 0 2 221 4 490 4 l490 0 0
-39z m2060 -608 c206 -357 382 -662 392 -679 l18 -30 -58 -41 c-91 -64 -208
-179 -279 -275 -48 -63 -71 -87 -82 -83 -9 4 -480 274 -1047 602 l-1032 595
33 71 c61 132 115 344 115 450 l0 37 783 0 784 0 373 -647z m-196 631 c3 -9 6
-25 6 -37 0 -20 -2 -19 -20 8 -11 17 -20 33 -20 38 0 14 28 7 34 -9z m508
-291 c242 -695 239 -685 222 -679 -9 3 -50 30 -92 58 -149 102 -314 291 -395
453 -66 133 -129 383 -118 468 1 4 63 7 139 7 l138 0 106 -307z m758 -264 l0
-572 -71 7 c-40 3 -92 11 -118 17 -41 10 -172 49 -178 53 -5 4 -363 1045 -363
1055 0 8 115 11 365 11 l365 0 0 -571z m850 560 c0 -10 -358 -1051 -363 -1055
-6 -4 -137 -43 -178 -53 -26 -6 -78 -14 -118 -17 l-71 -7 0 572 0 571 365 0
c250 0 365 -3 365 -11z m412 -29 c-16 -205 -97 -427 -219 -599 -68 -95 -204
-227 -305 -296 -48 -32 -90 -57 -92 -54 -2 2 56 177 130 389 74 212 150 433
170 493 l37 108 141 -3 141 -3 -3 -35z m158 33 c0 -5 -9 -21 -20 -38 -18 -27
-20 -28 -20 -8 0 32 10 53 26 53 8 0 14 -3 14 -7z m1710 -32 c0 -105 54 -314
115 -448 l33 -71 -1032 -595 c-567 -328 -1038 -599 -1047 -602 -12 -5 -29 12
-65 62 -59 84 -220 245 -297 297 l-57 39 18 31 c10 17 186 322 392 679 l373
647 784 0 783 0 0 -39z m1100 35 c0 -5 -808 -472 -832 -481 -13 -5 -22 4 -39
37 -52 101 -109 316 -109 409 l0 39 490 0 c270 0 490 -2 490 -4z m-4777 -1112
c68 -36 87 -51 96 -76 6 -17 11 -35 11 -40 0 -11 -109 -60 -119 -54 -6 4 -112
184 -158 269 -2 4 16 -6 41 -23 24 -17 83 -51 129 -76z m1384 99 c-63 -116
-154 -266 -163 -270 -14 -5 -114 43 -114 56 0 4 5 22 11 40 9 25 27 39 87 71
43 22 100 55 127 74 56 38 58 39 52 29z m-837 -675 c0 -232 -2 -419 -4 -417
-4 4 -254 722 -270 775 -6 18 -1 23 36 33 60 17 135 28 191 30 l47 1 0 -422z
m335 396 c33 -8 61 -16 62 -18 4 -4 -265 -788 -272 -795 -3 -2 -5 186 -5 419
l0 423 78 -7 c43 -3 105 -13 137 -22z m-637 -326 c50 -144 90 -263 89 -265 -4
-4 -277 474 -277 485 0 10 64 40 86 41 6 1 52 -117 102 -261z m872 246 c22 -9
40 -21 40 -26 0 -11 -273 -489 -277 -485 -5 6 181 527 188 527 5 0 27 -7 49
-16z m-921 -516 c133 -230 241 -419 241 -422 0 -2 -190 106 -422 240 -233 135
-422 250 -420 256 7 24 70 106 136 176 77 82 207 185 218 174 3 -4 115 -195
247 -424z m1262 272 c86 -85 153 -168 161 -198 2 -6 -187 -121 -419 -256 -233
-134 -423 -242 -423 -240 0 4 214 376 452 787 l39 67 47 -32 c26 -18 90 -76
143 -128z m-1386 -625 c264 -152 487 -285 497 -295 21 -25 55 -25 76 -1 15 18
1013 600 1036 604 5 1 22 -28 37 -64 106 -249 125 -523 54 -789 -31 -115 -125
-310 -194 -401 -351 -461 -951 -614 -1479 -378 -160 72 -345 223 -462 377 -69
91 -164 286 -194 400 -74 277 -53 555 59 809 l25 55 32 -20 c18 -11 249 -145
513 -297z"/>
</g>
</svg>
