<?xml version="1.0" standalone="no"?>
<!DOCTYPE svg PUBLIC "-//W3C//DTD SVG 20010904//EN"
 "http://www.w3.org/TR/2001/REC-SVG-20010904/DTD/svg10.dtd">
<svg version="1.0" xmlns="http://www.w3.org/2000/svg"
 width="1280.000000pt" height="1280.000000pt" viewBox="0 0 1280.000000 1280.000000"
 preserveAspectRatio="xMidYMid meet">
<metadata>
Created by potrace 1.15, written by Peter Selinger 2001-2017
</metadata>
<g transform="translate(0.000000,1280.000000) scale(0.100000,-0.100000)"
fill="#000000" stroke="none">
<path d="M6095 12794 c-27 -2 -115 -8 -195 -14 -1069 -79 -2119 -440 -3035
-1045 -642 -424 -1224 -987 -1680 -1626 -1290 -1808 -1545 -4169 -673 -6221
75 -176 232 -491 328 -658 755 -1314 1928 -2309 3343 -2834 988 -366 2065
-480 3127 -331 1002 142 1965 527 2800 1121 477 339 925 764 1296 1228 1777
2225 1862 5379 209 7695 -493 690 -1125 1285 -1832 1724 -215 133 -305 183
-538 299 -716 358 -1452 565 -2280 644 -150 14 -756 27 -870 18z m631 -94 c99
-6 244 -17 324 -25 1758 -181 3350 -1087 4414 -2514 1044 -1400 1458 -3185
1140 -4909 -448 -2423 -2279 -4372 -4669 -4971 -609 -152 -1257 -215 -1866
-181 -825 47 -1594 238 -2327 578 -1877 872 -3220 2630 -3562 4667 -63 374
-84 638 -84 1055 0 417 21 681 84 1055 384 2284 2008 4185 4210 4926 745 250
1569 363 2336 319z"/>
<path d="M6155 12265 c-82 -8 -226 -21 -320 -30 -1341 -122 -2613 -722 -3580
-1690 -661 -661 -1148 -1455 -1435 -2340 -125 -389 -207 -779 -257 -1230 -26
-230 -26 -920 0 -1150 50 -451 131 -839 258 -1232 350 -1084 1031 -2068 1919
-2774 730 -579 1576 -977 2475 -1163 885 -182 1854 -152 2723 85 474 130 986
343 1392 579 773 449 1412 1044 1928 1795 46 66 114 164 152 218 70 101 108
172 273 522 304 642 476 1252 554 1970 25 232 25 923 0 1150 -84 754 -256
1353 -585 2036 -44 91 -87 186 -96 212 -20 61 -90 175 -186 307 -42 58 -120
166 -172 240 -203 288 -401 523 -653 775 -557 558 -1218 997 -1942 1290 -524
213 -1082 349 -1633 400 -91 8 -214 20 -275 26 -179 17 -380 19 -540 4z m154
-137 c-53 -104 -249 -319 -394 -433 -282 -221 -610 -354 -971 -395 -152 -18
-151 -18 -99 61 124 184 313 373 504 501 275 184 622 306 879 307 l102 1 -21
-42z m445 26 c334 -58 687 -236 940 -474 126 -118 330 -370 313 -387 -10 -9
-231 18 -346 43 -470 104 -886 384 -1151 774 l-41 60 98 0 c54 0 138 -7 187
-16z m-1236 -87 c-327 -166 -608 -422 -789 -718 l-34 -56 -105 -6 c-612 -34
-1186 -368 -1534 -890 l-57 -85 -67 -6 c-408 -35 -769 -167 -1062 -387 -51
-38 -94 -69 -96 -69 -2 0 19 30 48 68 798 1028 1875 1741 3128 2071 168 45
586 128 654 130 10 1 -28 -23 -86 -52z m1857 23 c1381 -234 2634 -971 3524
-2072 34 -43 60 -78 57 -78 -3 0 -41 24 -83 52 -256 172 -588 288 -915 318
-161 15 -169 19 -225 102 -254 383 -652 673 -1100 802 -130 38 -360 76 -454
76 l-57 0 -42 67 c-184 294 -447 533 -773 704 -66 35 -100 57 -82 54 17 -3 84
-14 150 -25z m-942 -67 c46 -104 66 -161 97 -276 84 -315 86 -663 5 -967 -47
-177 -127 -372 -145 -354 -16 16 -97 228 -123 324 -53 193 -62 259 -62 500 0
235 6 292 51 472 39 158 119 358 143 358 4 0 20 -26 34 -57z m377 -375 c197
-164 484 -311 748 -382 l87 -23 -45 -12 c-355 -92 -708 -299 -949 -557 -39
-42 -71 -73 -71 -70 0 4 13 51 29 105 64 215 92 486 72 703 -14 156 -47 329
-78 415 -3 10 29 -16 73 -57 43 -42 104 -96 134 -122z m-654 46 c-39 -175 -49
-285 -43 -496 5 -205 21 -321 64 -468 14 -47 28 -94 31 -104 3 -11 -26 13 -64
53 -248 264 -530 427 -964 558 -8 3 26 15 75 28 314 81 652 272 864 489 30 31
56 54 58 53 1 -2 -8 -53 -21 -113z m-1516 -503 c0 -20 -102 -160 -182 -250
-259 -294 -638 -513 -1023 -590 -106 -21 -313 -46 -321 -38 -7 7 104 157 185
250 277 320 723 561 1136 616 168 23 205 25 205 12z m340 -11 c477 -61 944
-338 1244 -737 l66 -88 -40 -3 c-53 -4 -252 30 -365 63 -315 92 -573 244 -806
475 -111 110 -249 276 -249 300 0 5 15 7 33 5 17 -3 70 -9 117 -15z m2990 11
c0 -25 -136 -190 -249 -301 -233 -231 -495 -385 -806 -475 -113 -33 -312 -67
-365 -63 l-40 3 66 88 c167 223 380 405 625 536 202 108 448 184 679 210 41 5
78 9 83 10 4 0 7 -3 7 -8z m425 -17 c479 -79 912 -342 1205 -732 44 -59 80
-111 80 -116 0 -14 -175 1 -292 24 -268 55 -540 176 -758 339 -156 116 -371
345 -435 463 l-27 50 68 -7 c38 -3 110 -13 159 -21z m-243 -157 c171 -396 189
-886 48 -1308 -39 -119 -108 -279 -119 -279 -13 1 -92 193 -126 307 -127 417
-108 850 54 1256 17 43 41 97 52 119 l21 40 16 -23 c9 -13 33 -63 54 -112z
m-3376 4 c148 -346 188 -733 113 -1106 -23 -114 -81 -295 -130 -404 l-33 -73
-27 53 c-63 127 -128 334 -161 519 -8 49 -13 153 -12 300 0 204 3 237 27 351
14 69 40 168 57 220 37 114 100 251 113 246 5 -1 29 -49 53 -106z m409 -352
c216 -165 448 -279 717 -353 l119 -33 -108 -27 c-264 -68 -510 -188 -728 -355
-33 -25 -108 -92 -168 -150 l-107 -104 20 59 c12 32 32 113 45 179 70 347 54
659 -52 1010 -3 11 41 -25 98 -80 57 -55 131 -121 164 -146z m2669 151 c-52
-178 -67 -298 -68 -530 0 -158 4 -240 17 -310 15 -88 56 -259 73 -305 4 -11
-40 25 -97 80 -57 55 -131 121 -164 146 -218 167 -464 287 -728 355 l-108 27
119 33 c353 97 659 272 901 518 41 41 76 74 77 73 1 -1 -9 -40 -22 -87z m691
-181 c177 -136 388 -248 592 -315 73 -24 142 -44 153 -44 46 0 14 -18 -75 -43
-298 -84 -605 -268 -838 -502 l-104 -104 33 107 c104 346 107 749 7 1097 -3
11 33 -17 83 -65 49 -47 116 -106 149 -131z m-4066 116 c-39 -164 -51 -298
-46 -505 3 -117 11 -231 21 -285 14 -80 64 -272 81 -316 3 -9 -40 29 -97 85
-235 230 -519 398 -823 487 -60 17 -117 34 -125 36 -8 3 37 20 100 38 316 91
583 242 825 468 44 41 81 74 82 73 1 0 -7 -37 -18 -81z m1801 -543 c0 -19
-146 -198 -235 -287 -303 -303 -671 -483 -1109 -541 -60 -8 -111 -13 -113 -11
-10 11 138 190 251 302 241 239 495 389 817 480 165 46 389 80 389 57z m489
-23 c372 -72 717 -262 991 -545 90 -94 225 -262 216 -271 -8 -8 -243 27 -344
52 -212 51 -463 166 -642 293 -157 111 -373 333 -466 476 l-18 29 79 -7 c44
-4 127 -16 184 -27z m2860 -15 c-249 -362 -660 -644 -1091 -749 -98 -24 -327
-59 -335 -52 -6 7 80 123 162 217 155 178 345 323 570 435 168 83 309 133 465
164 124 24 149 28 213 30 l48 1 -32 -46z m376 31 c169 -14 409 -80 584 -161
185 -86 343 -196 500 -348 113 -111 175 -185 240 -290 l43 -69 -88 7 c-464 35
-958 289 -1256 643 -75 91 -168 215 -168 227 0 3 17 4 38 2 20 -3 69 -8 107
-11z m-7072 -22 c-83 -133 -252 -320 -383 -426 -288 -233 -664 -387 -1005
-413 -103 -8 -102 -11 -31 89 254 356 648 619 1095 732 86 22 224 43 289 44
l52 1 -17 -27z m385 12 c500 -75 940 -338 1244 -743 40 -53 54 -78 44 -80 -8
-2 -69 4 -135 12 -290 38 -570 143 -807 302 -181 122 -371 305 -485 466 l-40
58 40 0 c23 0 85 -7 139 -15z m-238 -109 c51 -109 103 -266 128 -386 66 -309
52 -662 -39 -948 -37 -117 -118 -312 -129 -312 -4 0 -28 46 -53 103 -191 437
-215 900 -70 1352 33 104 107 275 119 275 3 0 23 -38 44 -84z m3340 37 c199
-430 234 -912 99 -1358 -35 -115 -108 -295 -119 -295 -8 0 -76 159 -104 243
-57 170 -86 335 -93 532 -11 294 37 550 152 818 20 48 41 87 45 87 4 0 13 -12
20 -27z m3403 -67 c204 -486 204 -1014 1 -1489 -20 -45 -39 -86 -44 -91 -23
-23 -132 277 -171 469 -31 155 -38 454 -15 615 20 132 56 282 92 378 42 113
87 211 95 207 4 -3 23 -43 42 -89z m-245 -153 c-70 -215 -105 -501 -88 -731
13 -180 29 -264 98 -507 3 -11 -27 14 -66 56 -237 253 -557 446 -907 548 -38
11 -89 23 -113 27 -23 4 -40 9 -38 12 3 3 55 18 117 33 355 92 700 297 944
562 44 48 80 87 81 87 0 0 -13 -39 -28 -87z m-3394 -45 c-17 -62 -40 -156 -49
-208 -23 -127 -31 -430 -16 -557 14 -115 54 -298 81 -379 11 -32 20 -60 20
-64 0 -4 -44 38 -97 92 -117 119 -195 184 -327 272 -179 120 -459 240 -643
277 -35 7 -63 16 -63 19 0 3 28 12 63 19 105 21 296 89 422 150 211 102 473
296 593 440 24 28 44 51 46 51 1 0 -12 -51 -30 -112z m741 -205 c205 -145 435
-253 667 -312 62 -16 106 -31 98 -34 -8 -3 -52 -15 -98 -27 -338 -84 -654
-263 -910 -516 -57 -56 -91 -84 -87 -71 31 106 67 264 79 356 20 142 20 377 1
525 -13 100 -58 299 -81 361 -4 11 46 -32 112 -95 66 -64 164 -148 219 -187z
m-3410 27 c110 -83 195 -135 323 -199 138 -69 341 -140 450 -157 23 -4 40 -9
38 -12 -3 -3 -56 -18 -117 -34 -318 -82 -619 -247 -852 -468 -88 -83 -99 -91
-93 -65 63 248 81 398 73 628 -5 173 -20 282 -57 418 -37 136 -40 133 57 41
48 -46 129 -115 178 -152z m6743 -33 c125 -93 260 -174 389 -231 101 -45 259
-99 326 -111 50 -10 55 -21 11 -30 -146 -27 -452 -162 -614 -270 -118 -78
-265 -201 -348 -289 -34 -37 -62 -64 -62 -60 0 3 11 43 25 88 60 201 91 440
81 642 -7 168 -35 332 -82 495 -2 9 35 -23 84 -71 48 -47 134 -120 190 -163z
m-7467 142 c-59 -229 -74 -550 -37 -774 16 -100 54 -261 72 -310 4 -11 -39 24
-95 78 -232 222 -498 380 -781 467 -145 44 -140 42 -100 53 212 58 430 155
595 264 98 65 245 184 314 257 25 25 46 44 48 42 2 -1 -6 -36 -16 -77z m-1182
-554 c427 -61 809 -257 1108 -568 76 -79 203 -239 203 -256 0 -10 -139 5 -260
30 -357 72 -689 251 -954 515 -96 96 -238 273 -230 286 7 10 11 10 133 -7z
m3001 10 c0 -7 -74 -109 -113 -155 -16 -19 -72 -79 -125 -133 -302 -307 -714
-503 -1147 -546 -49 -5 -91 -8 -93 -6 -2 1 30 47 71 101 93 123 283 308 407
396 181 128 432 242 647 294 143 35 353 63 353 49z m385 -16 c297 -44 610
-178 860 -367 81 -61 244 -221 314 -307 67 -83 105 -135 100 -140 -2 -1 -50 3
-106 10 -430 57 -819 254 -1123 571 -76 80 -200 233 -200 248 0 6 24 4 155
-15z m2975 15 c0 -13 -89 -130 -154 -204 -243 -276 -584 -481 -955 -575 -90
-23 -339 -61 -347 -53 -9 10 141 195 230 284 292 292 678 483 1083 539 116 15
143 17 143 9z m354 -9 c504 -66 967 -336 1266 -738 33 -44 60 -83 60 -87 0
-10 -155 8 -270 31 -359 72 -698 256 -960 520 -79 80 -230 265 -230 282 0 9 2
9 134 -8z m2996 -4 c0 -19 -142 -191 -231 -280 -258 -256 -566 -423 -930 -505
-119 -27 -259 -44 -259 -32 0 13 116 159 183 232 292 315 728 534 1157 583 41
5 76 9 78 10 1 0 2 -3 2 -8z m165 -96 c92 -168 155 -403 177 -654 26 -310 -38
-662 -171 -936 l-49 -100 -42 90 c-126 267 -181 517 -181 810 0 241 36 445
118 664 35 94 89 211 98 211 2 0 25 -38 50 -85z m-10068 -11 c198 -431 219
-975 54 -1421 -45 -120 -100 -235 -110 -229 -18 11 -113 259 -141 369 -80 310
-81 643 -4 952 38 149 139 405 160 405 3 0 21 -34 41 -76z m3348 -16 c54 -119
102 -265 131 -403 20 -95 27 -160 31 -309 7 -224 -5 -347 -52 -532 -40 -157
-131 -394 -151 -394 -3 0 -20 34 -39 75 -199 437 -228 938 -79 1384 39 115
102 261 114 261 4 0 24 -37 45 -82z m3360 0 c101 -220 164 -517 165 -773 0
-184 -42 -433 -103 -610 -35 -100 -89 -225 -97 -225 -4 0 -22 35 -40 78 -213
504 -213 1030 1 1525 18 42 35 77 37 77 2 0 18 -33 37 -72z m-240 -190 c-112
-354 -112 -802 -1 -1154 l24 -76 -94 96 c-167 169 -343 296 -549 396 -128 62
-319 130 -423 151 -35 6 -60 15 -55 19 4 3 44 15 88 25 334 75 682 272 936
528 52 53 95 94 96 93 1 -1 -9 -36 -22 -78z m-2710 -170 c211 -168 475 -300
734 -367 62 -15 114 -30 116 -33 3 -2 -25 -10 -62 -17 -105 -19 -296 -87 -428
-151 -190 -92 -365 -215 -522 -367 -75 -72 -81 -74 -63 -28 22 59 60 277 70
407 18 228 -14 503 -83 722 l-26 78 97 -94 c53 -52 129 -119 167 -150z m-681
127 c-54 -198 -68 -304 -68 -535 0 -230 11 -327 59 -508 14 -52 25 -95 25 -95
0 -1 -42 38 -92 87 -256 247 -599 435 -922 507 -68 15 -68 15 79 55 323 88
627 266 864 508 41 41 76 74 78 73 1 -2 -9 -43 -23 -92z m3978 -88 c217 -190
524 -349 800 -414 65 -15 118 -30 118 -33 0 -3 -36 -13 -80 -23 -131 -30 -257
-75 -398 -142 -215 -104 -362 -207 -541 -379 -52 -50 -91 -82 -87 -71 19 50
57 209 73 300 24 140 24 491 -1 625 -14 80 -49 226 -72 305 -4 11 22 -9 60
-47 36 -36 94 -91 128 -121z m-6593 -101 c190 -136 445 -257 657 -310 53 -14
98 -27 101 -29 2 -3 -15 -8 -39 -12 -66 -12 -250 -72 -351 -116 -203 -88 -413
-227 -573 -381 -46 -44 -84 -79 -84 -77 0 3 11 48 24 101 80 312 80 657 1 969
-14 54 -25 101 -25 104 0 4 47 -37 103 -91 57 -55 141 -126 186 -158z m9307
147 c-44 -172 -58 -294 -59 -488 0 -195 20 -346 68 -521 l24 -88 -72 71 c-252
245 -587 431 -917 507 -41 10 -82 20 -90 23 -8 2 35 17 95 33 348 89 637 247
880 481 49 48 91 86 93 84 2 -1 -8 -47 -22 -102z m-10106 -263 c-17 -121 -14
-397 5 -525 30 -199 100 -426 180 -585 13 -26 22 -50 19 -53 -3 -3 -1 -15 6
-26 9 -17 4 -36 -31 -107 -129 -271 -186 -504 -196 -799 -11 -327 47 -622 178
-904 22 -47 47 -105 55 -128 14 -41 14 -44 -19 -110 -86 -171 -152 -382 -184
-588 -20 -128 -23 -438 -5 -550 6 -38 10 -71 8 -72 -6 -7 -113 274 -177 467
-197 595 -289 1170 -289 1810 0 636 91 1207 286 1803 39 120 67 196 152 414 9
23 18 41 20 39 2 -2 -2 -41 -8 -86z m10731 -155 c244 -665 359 -1308 359
-2015 0 -658 -99 -1255 -309 -1870 -41 -121 -108 -300 -114 -307 -1 -1 -1 78
1 175 7 345 -60 645 -211 940 l-42 83 52 107 c261 535 262 1171 3 1719 l-51
108 40 75 c87 165 161 390 198 605 12 72 17 159 17 312 1 116 2 210 3 209 1
-1 25 -65 54 -141z m-8861 -132 c-1 -15 -97 -144 -170 -228 -164 -189 -376
-348 -614 -461 -186 -88 -436 -155 -633 -171 l-87 -6 22 34 c99 157 311 376
475 492 186 131 419 239 632 292 157 40 376 67 375 48z m347 -8 c513 -73 983
-356 1274 -769 27 -38 49 -72 49 -75 0 -11 -176 8 -284 30 -447 90 -863 353
-1135 719 -39 52 -71 98 -71 102 0 12 52 9 167 -7z m2993 3 c0 -14 -62 -98
-154 -207 -187 -223 -480 -424 -776 -534 -162 -60 -414 -113 -503 -105 l-38 3
49 70 c300 423 800 714 1332 774 41 5 78 9 83 10 4 0 7 -4 7 -11z m330 -3
c348 -33 739 -206 1025 -455 93 -80 226 -228 294 -325 l42 -60 -38 -3 c-89 -8
-341 45 -503 105 -350 130 -648 353 -873 654 -62 83 -69 102 -34 95 12 -3 51
-8 87 -11z m3040 -4 c0 -19 -127 -179 -214 -269 -109 -113 -199 -188 -326
-272 -242 -159 -557 -270 -842 -298 -49 -4 -88 -5 -88 -1 0 16 133 181 214
266 308 323 731 530 1169 572 45 5 83 9 85 10 1 0 2 -3 2 -8z m406 -16 c190
-33 344 -81 512 -161 289 -137 538 -347 737 -623 l39 -54 -80 8 c-511 46
-1005 326 -1320 745 -35 47 -64 88 -64 92 0 13 81 9 176 -7z m-6988 -127 c217
-497 214 -1077 -10 -1548 l-40 -85 -39 80 c-51 107 -105 271 -135 414 -35 160
-44 462 -20 631 22 151 65 310 120 448 52 128 63 152 75 152 5 0 27 -42 49
-92z m3371 -42 c106 -258 146 -481 138 -776 -5 -214 -24 -336 -79 -510 -37
-118 -107 -282 -118 -275 -4 3 -24 44 -44 92 -185 440 -204 902 -56 1343 34
101 96 250 105 250 1 0 26 -56 54 -124z m3421 -122 c115 -332 130 -703 44
-1054 -28 -113 -81 -265 -121 -345 l-25 -49 -30 64 c-82 178 -139 407 -159
635 -26 294 36 648 162 920 l32 70 29 -65 c16 -36 47 -115 68 -176z m-3002
-212 c236 -181 511 -313 771 -370 l84 -18 -114 -28 c-362 -89 -723 -298 -963
-557 -36 -39 -66 -68 -66 -64 0 4 11 44 25 89 87 288 103 628 45 930 -18 91
-54 225 -76 281 -4 11 39 -28 97 -86 57 -58 146 -138 197 -177z m2694 162
c-58 -196 -76 -327 -75 -559 0 -170 4 -232 21 -327 19 -104 58 -261 79 -313 3
-11 -27 16 -68 60 -199 210 -479 396 -746 494 -70 26 -192 61 -298 86 -27 7
-24 9 35 21 119 25 315 94 446 158 215 105 402 241 559 407 39 41 71 74 73 73
2 -1 -10 -46 -26 -100z m621 -120 c228 -192 502 -333 790 -408 l87 -23 -98
-26 c-352 -92 -659 -271 -921 -537 -52 -52 -91 -86 -87 -75 18 47 48 156 66
241 69 331 45 720 -66 1039 -3 11 26 -15 65 -57 39 -42 113 -112 164 -154z
m-4004 119 c-58 -199 -73 -317 -73 -553 1 -175 5 -236 22 -330 18 -99 54 -239
78 -305 4 -11 -42 28 -102 87 -60 59 -136 129 -169 154 -222 173 -474 297
-738 364 -59 15 -109 29 -112 32 -3 2 26 10 63 17 90 18 253 73 375 126 207
92 424 242 587 406 52 53 96 97 96 98 1 1 -11 -43 -27 -96z m-2684 -164 c218
-167 470 -289 736 -358 l111 -29 -78 -17 c-198 -44 -461 -156 -639 -273 -118
-77 -200 -143 -309 -250 -49 -48 -86 -78 -82 -67 17 47 57 207 71 290 25 138
31 415 11 561 -14 106 -59 310 -82 369 -4 11 40 -25 97 -80 57 -55 131 -121
164 -146z m-710 99 c-77 -307 -78 -646 0 -966 14 -57 25 -104 25 -105 0 -1
-37 33 -82 76 -237 225 -505 380 -820 474 l-127 37 122 36 c152 44 212 68 358
142 182 92 341 205 484 345 33 32 61 58 62 58 2 -1 -8 -45 -22 -97z m-1150
-553 c505 -76 971 -363 1259 -776 26 -39 46 -73 43 -75 -3 -3 -47 -1 -99 6
-443 53 -828 240 -1136 551 -83 84 -242 282 -242 301 0 12 65 9 175 -7z m9696
-24 c-29 -57 -133 -185 -222 -272 -254 -252 -571 -425 -920 -503 -107 -23
-299 -50 -306 -42 -2 2 31 50 73 106 310 412 766 673 1289 739 116 14 108 17
86 -28z m-6750 -43 c-300 -434 -840 -742 -1375 -784 l-88 -7 41 62 c178 261
477 508 776 639 210 92 468 156 648 161 l48 1 -50 -72z m369 58 c513 -69 970
-339 1278 -754 29 -40 52 -76 49 -78 -7 -8 -172 15 -277 38 -373 80 -731 284
-984 560 -79 86 -186 224 -186 240 0 10 -6 10 120 -6z m3023 2 c-5 -7 -37 -49
-70 -93 -276 -366 -682 -619 -1137 -709 -144 -29 -256 -41 -256 -29 0 14 104
150 177 232 277 307 696 532 1103 590 41 6 86 13 100 15 61 9 93 6 83 -6z
m366 -4 c427 -62 808 -256 1103 -562 79 -82 208 -244 208 -261 0 -10 -139 5
-255 29 -357 73 -692 255 -950 514 -87 87 -235 268 -235 287 0 12 5 12 129 -7z
m-6865 -264 c77 -220 107 -398 107 -630 0 -226 -29 -403 -101 -615 -33 -99
-99 -245 -110 -245 -4 0 -27 44 -52 98 -224 480 -222 1083 3 1560 l41 87 38
-76 c21 -41 55 -122 74 -179z m3299 133 c206 -487 206 -1004 0 -1495 -25 -60
-48 -108 -52 -108 -13 0 -79 149 -115 262 -125 383 -126 793 -2 1173 35 106
106 275 117 275 3 0 27 -48 52 -107z m6766 -115 c85 -231 115 -428 108 -703
-6 -225 -28 -359 -91 -543 -39 -114 -107 -271 -118 -272 -23 -1 -127 260 -168
419 -69 273 -69 629 0 901 40 158 105 327 151 391 l22 31 32 -69 c17 -37 46
-107 64 -155z m-3349 -37 c130 -390 132 -800 5 -1188 -35 -105 -105 -272 -115
-273 -12 0 -96 212 -131 333 -54 187 -63 261 -63 517 0 182 4 256 17 327 30
159 86 335 153 477 l27 59 34 -68 c19 -37 52 -120 73 -184z m390 -237 c228
-171 481 -291 745 -352 84 -20 84 -22 -10 -42 -156 -33 -423 -143 -580 -240
-122 -74 -256 -181 -364 -289 -57 -57 -101 -96 -97 -86 15 39 55 194 70 270
60 302 42 655 -48 946 l-23 75 106 -105 c58 -59 149 -138 201 -177z m-706 214
c-54 -151 -85 -367 -85 -588 0 -212 20 -359 77 -570 5 -19 -19 0 -92 70 -111
107 -179 162 -304 242 -155 101 -375 200 -540 243 -36 9 -72 19 -80 22 -8 3
30 18 86 33 271 77 520 210 744 398 52 44 118 104 145 135 28 30 53 55 57 56
4 1 0 -18 -8 -41z m-2684 -208 c207 -158 431 -271 674 -340 56 -15 94 -30 86
-33 -8 -3 -44 -13 -80 -22 -165 -43 -385 -142 -540 -243 -126 -82 -194 -136
-307 -245 l-101 -98 23 81 c50 170 69 319 69 535 -1 230 -22 387 -81 580 -3
11 36 -20 88 -69 52 -49 128 -114 169 -146z m-3332 -28 c207 -153 482 -285
695 -332 55 -13 77 -30 37 -30 -40 0 -292 -90 -402 -144 -196 -96 -358 -210
-531 -375 l-77 -74 15 44 c28 79 64 281 75 422 17 205 -11 483 -65 661 -8 27
-15 54 -15 59 0 5 42 -31 93 -80 52 -50 130 -118 175 -151z m2618 126 c-42
-176 -51 -253 -51 -468 0 -120 6 -238 13 -285 13 -75 56 -268 70 -304 3 -9
-37 25 -89 74 -161 154 -300 251 -504 350 -118 58 -275 115 -395 146 l-45 11
70 18 c322 83 658 274 879 499 39 39 72 69 74 67 2 -2 -8 -51 -22 -108z m6708
2 c-76 -297 -77 -640 -5 -944 11 -44 23 -90 27 -101 4 -11 -28 14 -72 55 -244
231 -571 411 -880 483 -52 12 -94 24 -94 27 0 4 28 12 63 19 306 62 691 270
922 498 28 28 53 50 56 51 3 1 -5 -38 -17 -88z m-4924 -580 c-266 -391 -696
-677 -1168 -775 -123 -26 -282 -43 -282 -31 0 21 137 194 230 290 251 260 551
436 890 523 114 29 245 50 318 52 l53 1 -41 -60z m418 45 c418 -63 784 -253
1082 -561 96 -99 230 -269 230 -291 0 -5 -37 -6 -87 -1 -363 34 -735 187
-1018 418 -132 108 -297 292 -377 418 l-20 32 46 0 c25 0 90 -7 144 -15z
m-3748 -1 c0 -3 -14 -26 -32 -52 -105 -155 -289 -339 -455 -458 -193 -136
-468 -257 -696 -304 -106 -22 -267 -43 -274 -36 -8 8 132 189 213 275 258 274
637 481 1009 550 144 27 235 37 235 25z m389 -10 c209 -30 371 -80 558 -171
211 -102 371 -220 543 -400 95 -99 228 -268 219 -277 -8 -8 -207 15 -304 35
-440 87 -861 349 -1128 702 -30 40 -62 84 -72 100 l-17 27 47 0 c26 0 95 -7
154 -16z m6326 -21 c-33 -51 -109 -147 -169 -213 -256 -285 -641 -503 -1021
-579 -120 -24 -255 -37 -255 -25 0 21 143 197 235 289 289 290 667 480 1075
539 52 8 108 14 124 15 l28 1 -17 -27z m495 -9 c278 -55 543 -173 770 -343 92
-69 242 -212 314 -300 64 -78 128 -172 122 -178 -9 -9 -252 29 -359 57 -346
89 -673 283 -911 540 -61 66 -196 241 -196 254 0 11 120 -3 260 -30z m-7063
-99 c193 -438 214 -935 58 -1384 -37 -105 -101 -251 -110 -251 -11 0 -75 147
-111 255 -64 192 -85 316 -91 540 -9 325 35 548 164 843 20 45 40 81 45 80 5
-2 25 -39 45 -83z m3404 -138 c75 -204 109 -402 109 -642 0 -186 -15 -311 -56
-470 -28 -109 -83 -264 -119 -335 l-23 -45 -32 70 c-103 224 -170 533 -170
780 0 249 68 557 171 780 l32 70 30 -65 c16 -36 42 -100 58 -143z m3329 116
c213 -509 212 -1051 -3 -1524 l-33 -73 -31 71 c-187 418 -217 898 -83 1334 35
114 99 269 110 269 5 0 23 -35 40 -77z m-3624 -183 c-102 -321 -111 -707 -27
-1055 11 -44 23 -89 27 -100 4 -11 -31 16 -77 61 -252 244 -529 407 -849 499
-63 18 -108 36 -100 39 8 3 34 10 57 16 333 85 697 301 925 549 35 38 64 68
65 67 1 -1 -8 -35 -21 -76z m3374 -27 c-52 -186 -73 -338 -73 -538 1 -201 16
-325 63 -504 17 -62 30 -115 30 -117 0 -2 -45 41 -99 95 -243 241 -548 416
-879 505 l-87 23 45 12 c127 34 279 91 400 152 219 110 364 215 534 388 50 50
91 89 92 88 1 -1 -10 -48 -26 -104z m620 -117 c218 -183 459 -312 731 -391 67
-19 128 -35 137 -36 10 0 -28 -13 -83 -28 -157 -44 -220 -68 -370 -141 -218
-106 -374 -218 -546 -392 l-97 -98 25 83 c64 217 88 411 80 642 -7 199 -45
409 -103 570 -4 11 25 -15 65 -57 40 -42 112 -111 161 -152z m-3315 -47 c209
-160 460 -284 704 -350 l84 -22 -99 -28 c-337 -95 -656 -285 -896 -537 -38
-38 -68 -69 -68 -67 0 1 13 53 30 116 46 178 62 313 62 504 0 190 -17 327 -62
500 -15 61 -32 119 -36 130 -4 11 44 -30 107 -90 63 -61 141 -131 174 -156z
m-4075 116 c-83 -320 -84 -656 -5 -983 29 -122 30 -123 9 -94 -33 47 -223 207
-338 283 -214 144 -424 234 -681 294 -26 6 -12 12 94 41 344 95 654 275 890
518 30 30 56 54 57 53 1 -1 -10 -52 -26 -112z m659 -83 c198 -165 458 -301
710 -373 57 -16 106 -30 108 -32 2 -2 -33 -13 -77 -25 -314 -84 -616 -256
-857 -489 -51 -49 -93 -88 -93 -87 0 2 13 54 29 116 80 310 80 664 2 970 l-28
108 71 -68 c39 -37 100 -91 135 -120z m1171 -459 c-1 -18 -139 -191 -218 -275
-207 -217 -470 -384 -767 -487 -131 -45 -370 -91 -473 -91 l-34 0 17 28 c54
82 141 188 230 278 295 297 687 488 1115 543 88 11 130 13 130 4z m410 -19
c437 -73 854 -313 1134 -654 69 -84 139 -180 134 -185 -6 -6 -185 17 -281 36
-466 94 -908 388 -1177 783 l-33 49 69 -7 c38 -4 107 -14 154 -22z m2930 -19
c-314 -457 -813 -754 -1365 -814 -49 -5 -92 -8 -94 -6 -5 5 60 94 135 185 299
363 746 607 1224 669 36 5 80 9 98 10 l33 1 -31 -45z m340 35 c544 -68 1009
-342 1324 -779 32 -45 57 -84 54 -86 -9 -9 -208 17 -317 41 -370 83 -700 267
-957 537 -80 83 -170 195 -219 270 -17 27 -17 27 7 27 13 0 62 -5 108 -10z
m-6680 -21 c481 -63 942 -337 1242 -737 32 -43 58 -81 58 -86 0 -12 -136 3
-266 29 -373 78 -701 259 -970 536 -99 103 -214 246 -214 267 0 6 13 9 33 7
17 -3 70 -9 117 -16z m9720 3 c0 -19 -128 -180 -213 -269 -263 -275 -609 -466
-986 -544 -110 -23 -251 -36 -251 -24 0 19 151 206 235 290 281 283 666 480
1045 534 41 6 86 13 100 15 48 7 70 6 70 -2z m-6558 -137 c156 -348 199 -766
118 -1154 -26 -122 -89 -310 -136 -402 l-37 -74 -38 81 c-143 308 -204 668
-168 992 22 209 79 419 159 589 47 100 42 101 102 -32z m6705 18 c82 -178 132
-350 158 -551 46 -348 -19 -759 -162 -1020 l-40 -73 -39 53 c-104 144 -185
486 -185 783 -1 294 47 518 168 793 25 56 49 102 53 102 4 0 25 -39 47 -87z
m-10069 -25 c116 -267 163 -491 163 -778 1 -200 -24 -368 -81 -555 -27 -89
-109 -285 -119 -285 -7 0 -61 110 -96 194 -30 75 -75 245 -96 362 -17 94 -21
160 -21 309 0 207 18 345 68 518 36 129 117 327 133 327 4 0 26 -42 49 -92z
m6776 -149 c147 -440 123 -916 -69 -1361 -20 -49 -40 -88 -44 -88 -10 0 -84
179 -114 275 -62 198 -93 449 -82 645 15 258 84 531 181 722 l27 53 33 -70
c18 -38 48 -118 68 -176z m-289 41 c-12 -20 -56 -179 -74 -270 -59 -292 -49
-610 28 -899 l19 -73 -96 94 c-216 210 -468 363 -764 462 -57 19 -120 37 -141
41 -21 4 -36 9 -34 12 2 2 46 15 98 29 322 89 619 264 864 512 97 98 113 113
100 92z m-6085 -257 c213 -166 454 -285 725 -356 l126 -33 -78 -18 c-342 -81
-666 -256 -922 -501 -47 -44 -81 -72 -78 -62 73 198 102 589 63 842 -16 99
-61 289 -81 340 -5 11 34 -21 86 -70 52 -50 123 -114 159 -142z m2671 150
c-96 -325 -91 -771 13 -1099 l24 -75 -102 99 c-267 257 -542 412 -899 507
l-119 31 109 27 c216 53 436 151 624 277 101 68 241 184 313 259 28 28 52 49
54 47 2 -2 -6 -35 -17 -73z m692 -154 c207 -161 403 -261 665 -339 l123 -36
-83 -23 c-320 -87 -607 -250 -853 -483 -49 -46 -85 -74 -82 -63 70 224 96 564
62 817 -13 100 -52 283 -70 330 -4 9 28 -17 72 -58 43 -42 118 -107 166 -145z
m3331 16 c216 -180 514 -326 805 -395 l54 -13 -119 -34 c-345 -99 -630 -267
-883 -523 -63 -63 -112 -108 -109 -99 48 125 91 319 109 484 25 230 -10 579
-77 772 -4 10 29 -16 72 -58 44 -42 110 -102 148 -134z m2675 77 c-80 -313
-84 -671 -10 -959 11 -40 16 -73 12 -73 -4 0 -27 21 -51 46 -25 25 -81 74
-125 109 -224 175 -473 300 -730 365 -60 16 -103 31 -95 34 8 3 44 12 79 21
306 77 623 255 863 485 46 43 83 79 84 80 1 0 -11 -49 -27 -108z m-4894 -539
c-298 -467 -821 -794 -1365 -855 -60 -6 -112 -9 -116 -6 -8 9 64 113 150 216
307 367 752 604 1239 661 120 14 112 15 92 -16z m420 1 c311 -51 626 -191 871
-387 114 -93 289 -278 362 -385 l63 -92 -53 0 c-144 0 -389 55 -576 130 -250
100 -435 223 -632 420 -113 113 -253 285 -269 331 -4 12 98 5 234 -17z m-3795
-12 c0 -4 -30 -47 -66 -95 -129 -172 -351 -370 -535 -478 -234 -136 -534 -235
-775 -256 -76 -6 -76 -6 -65 15 6 12 47 66 90 119 297 370 719 614 1191 688
99 15 160 18 160 7z m395 -7 c303 -46 604 -170 850 -352 116 -87 303 -273 388
-388 37 -49 67 -94 67 -99 0 -13 -151 1 -277 25 -386 74 -771 289 -1025 572
-72 79 -145 172 -183 230 l-17 27 48 0 c27 0 94 -7 149 -15z m6319 -37 c-240
-335 -566 -582 -929 -706 -167 -57 -423 -110 -485 -100 -20 3 -18 7 21 63 258
365 648 633 1078 741 117 29 244 51 309 53 l44 1 -38 -52z m515 21 c311 -60
646 -225 878 -434 156 -140 302 -320 303 -372 0 -16 -81 -8 -235 23 -364 72
-703 252 -965 514 -87 87 -240 275 -240 294 0 12 135 -1 259 -25z m-7076 -103
c221 -499 219 -1077 -5 -1556 l-36 -75 -36 79 c-53 114 -111 294 -135 419 -68
350 -43 677 75 1012 30 85 85 205 93 205 3 0 23 -38 44 -84z m3360 16 c188
-418 218 -891 86 -1327 -32 -105 -109 -295 -119 -295 -3 0 -20 34 -38 75 -106
246 -150 440 -159 700 -10 298 43 576 160 838 16 37 33 67 37 67 4 0 19 -26
33 -58z m3381 -12 c109 -242 159 -487 159 -770 -1 -201 -19 -342 -69 -513 -24
-86 -91 -264 -119 -316 -13 -26 -14 -26 -45 44 -47 103 -104 284 -131 415 -21
102 -24 142 -24 355 0 213 3 253 24 355 36 176 146 490 171 490 4 0 19 -27 34
-60z m-259 -264 c-90 -331 -92 -684 -4 -1024 16 -62 29 -116 29 -118 0 -3 -25
22 -57 56 -126 137 -340 294 -529 391 -124 63 -230 103 -376 143 l-119 33 88
22 c346 90 673 284 923 547 41 44 76 79 78 78 1 0 -13 -58 -33 -128z m-3371
42 c-64 -218 -91 -546 -65 -765 14 -114 54 -298 81 -378 10 -30 18 -55 17 -55
-1 0 -52 49 -112 108 -171 169 -349 294 -555 390 -99 46 -345 132 -380 132
-11 0 -20 5 -20 10 0 6 9 10 20 10 41 0 295 91 406 146 207 102 442 275 571
420 32 35 59 64 59 64 1 0 -9 -37 -22 -82z m4028 -145 c218 -179 510 -325 773
-388 27 -7 21 -10 -55 -30 -327 -89 -604 -247 -857 -488 -53 -51 -93 -83 -90
-72 108 365 111 795 7 1127 -11 35 -20 67 -20 72 0 5 38 -29 84 -76 47 -47
118 -113 158 -145z m-7402 148 c-97 -311 -102 -734 -12 -1053 11 -38 17 -68
14 -68 -3 0 -46 40 -96 88 -147 142 -313 256 -505 348 -99 47 -345 134 -381
134 -11 0 -20 5 -20 10 0 6 7 10 15 10 8 0 76 20 151 45 290 95 563 264 776
479 40 41 74 73 75 72 1 -1 -7 -30 -17 -65z m4045 -183 c198 -157 446 -282
700 -353 66 -18 113 -36 105 -38 -8 -3 -51 -16 -94 -27 -325 -89 -628 -269
-878 -522 -65 -66 -118 -117 -118 -115 0 2 11 36 25 76 32 96 71 272 86 394
26 213 -1 545 -61 751 l-20 69 93 -90 c50 -49 124 -114 162 -145z m-3343 -23
c189 -143 401 -251 626 -316 59 -18 114 -34 122 -36 8 -3 -28 -17 -80 -32
-332 -95 -624 -266 -869 -511 -46 -47 -81 -76 -77 -65 18 47 57 207 73 300 12
73 17 157 17 310 0 221 -10 310 -59 497 l-22 87 86 -80 c47 -44 130 -114 183
-154z m-1766 -420 c360 -73 689 -251 954 -517 82 -83 221 -253 250 -308 10
-18 8 -20 -22 -20 -47 0 -225 27 -305 45 -365 84 -738 306 -984 588 -76 87
-179 227 -179 243 0 12 157 -5 286 -31z m9603 13 c-74 -142 -236 -331 -386
-451 -239 -191 -531 -328 -823 -387 -113 -22 -290 -38 -290 -25 0 12 88 133
156 215 294 353 715 587 1174 654 52 8 114 14 138 15 41 1 42 0 31 -21z
m-6744 -50 c-111 -156 -279 -329 -425 -437 -201 -150 -431 -258 -675 -320 -94
-23 -275 -51 -334 -51 l-42 0 48 69 c223 320 557 568 934 694 157 53 358 92
482 96 l49 1 -37 -52z m364 37 c271 -39 515 -128 755 -277 171 -106 376 -295
497 -458 81 -110 81 -102 7 -95 -539 55 -1013 319 -1334 744 -35 46 -64 88
-64 93 0 11 18 10 139 -7z m2995 -7 c-55 -93 -220 -277 -336 -376 -299 -253
-643 -400 -1051 -446 l-48 -6 30 43 c280 407 762 706 1251 776 41 6 86 13 100
15 52 7 61 6 54 -6z m395 -3 c504 -72 945 -333 1255 -745 40 -52 61 -89 55
-95 -15 -15 -215 12 -361 49 -228 57 -444 158 -643 298 -112 78 -341 306 -418
414 -31 45 -57 84 -57 88 0 10 57 7 169 -9z m-3586 -153 c87 -208 128 -374
148 -604 26 -291 -37 -645 -161 -913 l-32 -70 -40 85 c-54 114 -103 266 -135
419 -24 114 -27 147 -27 351 -1 236 5 291 50 473 38 153 127 382 144 372 5 -3
28 -53 53 -113z m3427 -133 c147 -444 120 -951 -73 -1369 l-35 -75 -32 70
c-47 102 -105 285 -132 416 -20 100 -23 143 -23 349 0 206 3 249 23 349 28
136 86 318 137 427 l37 79 30 -65 c17 -36 47 -117 68 -181z m-291 24 c-117
-338 -134 -759 -45 -1110 14 -54 32 -118 41 -142 8 -24 15 -45 15 -47 0 -1
-44 42 -97 98 -266 273 -575 453 -948 548 -60 16 -103 30 -95 33 8 2 58 14
110 27 344 82 722 306 962 570 39 44 73 80 74 80 2 0 -6 -26 -17 -57z m-2789
-185 c235 -197 519 -344 790 -408 52 -13 102 -25 110 -28 8 -2 -21 -13 -65
-23 -269 -64 -547 -197 -770 -368 -33 -25 -107 -91 -164 -146 -57 -55 -101
-91 -97 -80 19 51 56 210 72 310 27 164 25 448 -5 617 -19 110 -55 253 -78
315 -4 10 20 -11 52 -46 33 -34 102 -99 155 -143z m-635 49 c-74 -293 -74
-660 0 -952 13 -49 27 -99 31 -110 4 -11 -31 16 -77 61 -167 160 -321 267
-521 364 -118 57 -348 140 -388 140 -40 0 -27 17 23 30 320 80 668 279 891
509 33 33 61 59 63 58 1 -2 -8 -47 -22 -100z m4087 -140 c203 -152 456 -277
688 -337 l45 -12 -115 -35 c-306 -92 -575 -248 -808 -470 -45 -43 -82 -77 -82
-76 0 1 13 55 29 120 42 174 56 288 55 478 0 183 -17 324 -58 483 l-24 93 97
-93 c53 -51 131 -119 173 -151z m-6541 -108 c224 -135 476 -225 740 -263 59
-9 132 -16 163 -16 55 0 57 -1 84 -41 140 -208 288 -376 437 -496 328 -264
710 -412 1135 -439 l111 -7 69 -101 c201 -295 501 -547 810 -681 85 -37 92
-44 33 -35 -26 5 -84 14 -128 20 -117 18 -395 75 -510 105 -1215 316 -2259
983 -3050 1950 -59 72 -111 138 -117 148 -5 10 24 -6 65 -37 40 -31 112 -79
158 -107z m8898 64 c-211 -275 -552 -624 -854 -874 -622 -514 -1367 -902
-2140 -1114 -174 -47 -434 -105 -585 -129 -52 -8 -128 -20 -168 -26 -40 -7
-75 -10 -78 -7 -2 2 17 12 43 22 149 56 367 184 514 303 140 113 317 311 413
463 l29 46 136 12 c311 27 570 107 830 256 260 148 490 359 656 603 27 41 51
68 53 62 3 -7 8 -6 16 4 8 10 48 18 136 26 160 14 338 50 471 95 129 44 359
157 459 224 83 56 88 59 69 34z m-7498 -383 c374 -76 722 -267 985 -543 89
-93 223 -262 224 -282 0 -14 -144 -3 -271 21 -265 48 -539 165 -772 331 -105
75 -336 305 -410 409 -31 45 -57 85 -57 89 0 13 190 -3 301 -25z m6239 23 c0
-17 -134 -188 -207 -265 -289 -303 -655 -498 -1067 -568 -69 -11 -149 -20
-177 -18 l-51 3 65 87 c94 126 170 210 272 300 221 195 500 343 780 413 168
42 385 69 385 48z m-3390 -21 c0 -18 -139 -189 -223 -274 -297 -301 -681 -492
-1102 -548 -138 -19 -138 -19 -65 80 272 368 701 637 1155 724 130 25 235 33
235 18z m493 -22 c283 -59 521 -166 757 -339 109 -79 281 -251 368 -366 74
-98 75 -100 49 -103 -15 -2 -73 4 -129 12 -412 61 -781 247 -1074 542 -84 85
-224 258 -224 278 0 13 143 -1 253 -24z m-304 -185 c176 -449 173 -936 -8
-1395 -57 -146 -55 -144 -86 -74 -121 269 -181 617 -157 904 20 230 71 436
154 625 39 89 39 89 97 -60z m-227 -22 c-6 -10 -24 -66 -41 -124 -67 -230 -94
-501 -72 -725 10 -106 45 -300 67 -373 5 -18 -24 3 -107 78 -246 222 -513 368
-831 455 l-119 33 83 22 c340 93 643 268 888 513 56 56 109 113 118 125 17 27
28 24 14 -4z m642 -292 c213 -160 416 -261 676 -336 l115 -33 -45 -11 c-189
-47 -308 -90 -453 -162 -179 -88 -335 -199 -486 -344 -52 -49 -91 -82 -88 -72
43 117 78 329 84 512 8 229 -21 454 -86 663 l-19 63 104 -105 c58 -58 147
-137 198 -175z m-1834 -447 c391 -60 749 -243 1035 -529 90 -90 181 -200 230
-278 l18 -28 -69 6 c-460 42 -877 235 -1194 554 -93 93 -240 273 -240 293 0 9
90 2 220 -18z m2908 -21 c-55 -83 -153 -195 -258 -297 -259 -248 -620 -428
-972 -485 -168 -27 -238 -33 -238 -22 0 24 158 216 256 312 166 161 305 258
509 355 192 91 426 155 630 172 50 4 92 7 94 5 2 -1 -7 -20 -21 -40z"/>
</g>
</svg>
