<?xml version="1.0" standalone="no"?>
<!DOCTYPE svg PUBLIC "-//W3C//DTD SVG 20010904//EN"
 "http://www.w3.org/TR/2001/REC-SVG-20010904/DTD/svg10.dtd">
<svg version="1.0" xmlns="http://www.w3.org/2000/svg"
 width="1280.000000pt" height="1266.000000pt" viewBox="0 0 1280.000000 1266.000000"
 preserveAspectRatio="xMidYMid meet">
<metadata>
Created by potrace 1.15, written by Peter Selinger 2001-2017
</metadata>
<g transform="translate(0.000000,1266.000000) scale(0.100000,-0.100000)"
fill="#000000" stroke="none">
<path d="M6190 12635 c0 -19 5 -25 23 -25 13 0 32 -6 43 -14 17 -13 19 -29 22
-155 6 -251 -22 -419 -76 -461 -14 -12 -26 -30 -27 -40 -2 -19 6 -20 137 -20
127 0 138 2 138 18 0 10 -13 28 -30 40 -16 13 -37 39 -45 59 -23 55 -36 202
-33 361 l3 144 230 -324 c170 -239 236 -324 253 -326 l22 -3 0 218 c0 335 23
466 84 495 17 7 26 19 26 35 0 23 0 23 -135 23 l-135 0 0 -25 c0 -14 8 -29 21
-36 49 -26 79 -170 79 -379 -1 -126 25 -149 -215 190 l-177 250 -104 0 -104 0
0 -25z"/>
<path d="M6493 11337 c-23 -111 -90 -431 -148 -712 -58 -280 -153 -735 -210
-1010 -57 -275 -163 -783 -235 -1130 -155 -749 -167 -806 -172 -810 -1 -1
-329 211 -727 472 -647 424 -725 473 -739 460 -13 -14 35 -92 460 -739 261
-398 475 -724 474 -725 -1 -2 -226 -49 -1211 -253 -346 -72 -823 -171 -1060
-220 -236 -49 -605 -126 -820 -170 -214 -44 -475 -99 -578 -120 -103 -22 -190
-40 -192 -40 -3 0 -5 -16 -5 -35 0 -19 2 -35 5 -35 3 0 100 -20 217 -45 117
-24 386 -80 598 -124 600 -124 1138 -236 1450 -301 1089 -227 1542 -320 1553
-320 50 -1 42 -14 -437 -745 -421 -641 -476 -729 -463 -742 13 -13 101 42 742
462 400 262 728 475 729 473 1 -2 26 -118 55 -258 28 -140 99 -480 156 -755
57 -275 140 -673 184 -885 44 -212 116 -559 160 -772 45 -214 117 -562 161
-775 44 -214 83 -396 86 -405 4 -12 16 -18 38 -18 l32 0 47 223 c25 122 128
614 227 1092 273 1316 290 1397 415 1994 63 305 117 556 118 558 2 2 326 -209
721 -467 395 -259 722 -471 728 -473 5 -1 14 5 20 13 8 12 -92 171 -462 734
-259 395 -468 722 -463 726 4 4 175 41 378 83 204 42 609 126 900 186 292 61
814 169 1160 241 347 72 807 167 1023 212 l393 82 -3 35 -3 34 -255 53 c-140
29 -538 112 -885 184 -751 156 -1504 312 -2200 457 -280 58 -512 107 -513 108
-2 2 211 331 473 730 426 649 476 729 462 742 -13 14 -92 -35 -738 -459 -583
-382 -725 -472 -731 -459 -4 9 -33 138 -63 286 -31 149 -103 495 -160 770 -57
275 -140 676 -185 890 -45 215 -128 615 -185 890 -57 275 -128 616 -157 757
l-53 258 -35 0 -35 0 -42 -203z m37 -2560 l-5 -2377 -409 409 -409 409 12 48
c6 27 58 276 115 554 96 464 184 884 471 2265 57 275 129 624 160 775 57 276
64 306 68 299 1 -2 0 -1074 -3 -2382z m1561 -922 c-328 -326 -596 -593 -597
-592 -1 1 -18 83 -39 181 -30 146 -34 181 -23 187 7 5 290 191 628 413 338
223 617 405 620 405 3 1 -262 -267 -589 -594z m-2491 -625 c0 -5 -353 -81
-356 -77 -1 1 -189 288 -418 637 l-417 635 595 -595 c328 -327 596 -597 596
-600z m2365 -174 c429 -89 656 -136 1983 -411 1304 -271 1477 -307 1481 -311
2 -2 -1073 -4 -2390 -4 l-2394 0 415 415 c265 265 420 413 430 411 8 -3 222
-48 475 -100z m-1893 -1199 l-413 -413 -392 82 c-566 118 -2273 472 -3102 644
-236 49 -439 91 -450 93 -11 3 1058 5 2375 6 l2395 1 -413 -413z m1265 -889
c-47 -227 -133 -640 -191 -918 -58 -278 -175 -842 -261 -1255 -86 -412 -182
-878 -215 -1035 -32 -157 -61 -294 -63 -305 -3 -11 -5 1053 -6 2365 l-1 2385
412 -412 411 -411 -86 -414z m959 -140 c225 -341 413 -628 418 -637 4 -9 -262
254 -593 584 -331 330 -596 601 -589 603 68 15 336 70 344 71 7 1 196 -279
420 -621z m-2616 314 c18 -89 31 -164 29 -166 -5 -5 -949 -624 -1134 -743
l-130 -85 595 596 c459 460 596 592 601 578 3 -9 21 -90 39 -180z"/>
<path d="M0 6666 c0 -17 9 -29 27 -38 39 -19 66 -81 179 -415 96 -285 100
-293 125 -293 25 0 31 9 83 143 85 212 130 317 136 317 3 0 39 -104 80 -231
l74 -230 29 3 c28 3 33 12 151 309 127 314 159 378 201 397 17 8 25 20 25 37
l0 26 -137 -3 -138 -3 0 -25 c0 -20 6 -26 30 -28 49 -6 58 -20 52 -82 -4 -45
-96 -323 -138 -420 -10 -22 -21 3 -95 230 -64 194 -82 259 -74 272 5 10 10 27
10 38 0 19 -6 20 -110 20 l-110 0 0 -28 c0 -23 6 -30 32 -37 78 -23 77 -128
-3 -359 -48 -139 -69 -182 -69 -143 0 6 -36 122 -80 257 -51 157 -76 248 -70
254 6 6 10 20 10 33 0 23 -2 23 -110 23 l-110 0 0 -24z"/>
<path d="M12352 6679 c-114 -22 -238 -126 -295 -246 -29 -63 -32 -76 -32 -168
1 -84 4 -108 24 -147 36 -74 95 -134 166 -169 55 -27 75 -31 147 -32 186 -2
342 102 410 273 34 84 32 216 -4 292 -73 156 -235 233 -416 197z m148 -105
c64 -35 120 -102 151 -181 32 -82 33 -220 2 -279 -61 -115 -195 -158 -318
-100 -122 56 -205 217 -193 371 7 75 35 132 89 178 49 42 63 46 150 43 50 -2
79 -10 119 -32z"/>
<path d="M6569 769 c-119 -18 -209 -105 -209 -202 0 -83 21 -108 186 -225 104
-73 134 -110 134 -167 0 -86 -100 -142 -180 -100 -42 22 -78 74 -91 133 -10
48 -13 52 -40 52 l-30 0 3 -112 3 -111 40 -15 c23 -9 76 -15 125 -16 71 -1 92
3 130 23 94 49 150 126 150 206 0 78 -22 107 -161 205 -125 89 -159 128 -159
181 0 114 160 123 206 13 8 -19 14 -45 14 -59 0 -22 4 -25 35 -25 l35 0 0 98
0 99 -57 12 c-81 18 -83 18 -134 10z"/>
</g>
</svg>
