<?xml version="1.0" standalone="no"?>
<!DOCTYPE svg PUBLIC "-//W3C//DTD SVG 20010904//EN"
 "http://www.w3.org/TR/2001/REC-SVG-20010904/DTD/svg10.dtd">
<svg version="1.0" xmlns="http://www.w3.org/2000/svg"
 width="1280.000000pt" height="826.000000pt" viewBox="0 0 1280.000000 826.000000"
 preserveAspectRatio="xMidYMid meet">
<metadata>
Created by potrace 1.15, written by Peter Selinger 2001-2017
</metadata>
<g transform="translate(0.000000,826.000000) scale(0.100000,-0.100000)"
fill="#000000" stroke="none">
<path d="M3227 6713 c-12 -11 -8 -62 8 -100 20 -48 20 -49 -16 -19 -48 40 -89
60 -102 47 -14 -14 6 -132 38 -224 38 -109 99 -203 189 -292 89 -89 224 -200
255 -210 10 -3 52 -45 93 -93 73 -86 170 -176 238 -222 19 -13 70 -57 112 -97
43 -40 140 -119 215 -174 155 -115 420 -371 514 -499 116 -156 173 -281 167
-363 -4 -56 -33 -74 -209 -131 -160 -52 -241 -101 -311 -189 -46 -59 -98 -161
-98 -194 0 -12 -14 -43 -31 -68 -56 -83 -48 -166 21 -215 l30 -22 40 32 c63
50 113 60 289 60 86 -1 174 -5 196 -10 104 -23 323 -83 440 -119 165 -52 440
-111 515 -111 52 0 59 -3 76 -27 27 -43 141 -159 216 -220 42 -34 78 -74 98
-110 46 -82 108 -162 259 -337 126 -146 371 -310 594 -397 29 -11 63 -31 77
-44 14 -13 108 -77 210 -143 296 -192 343 -227 505 -382 146 -140 215 -190
261 -190 11 0 31 -11 44 -25 15 -15 34 -25 52 -25 16 0 38 -5 49 -11 12 -6 27
-8 35 -5 33 13 -54 137 -233 333 -166 182 -215 241 -182 219 27 -17 175 -171
524 -545 237 -254 285 -285 285 -188 0 38 -9 54 -85 152 -47 61 -122 152 -166
204 -60 69 -75 91 -58 86 26 -8 27 -8 47 -6 44 4 -55 165 -192 309 -36 38 -38
42 -18 42 12 0 22 6 22 13 0 22 -50 91 -131 179 -41 46 -89 101 -107 124 -18
22 -82 85 -143 139 -97 87 -108 100 -90 107 25 9 25 11 6 48 -15 29 -15 30 6
30 19 0 20 4 16 38 -19 125 -19 125 -72 159 -27 18 -54 36 -58 40 -12 12 -69
100 -94 145 l-23 40 28 -6 c15 -4 57 -13 94 -21 152 -32 1041 -444 1231 -570
43 -28 69 -39 100 -39 36 -1 42 2 45 22 5 34 -16 88 -54 137 l-34 45 28 0 c65
0 84 56 46 136 -24 49 -140 173 -170 180 -20 5 -24 13 -24 43 0 53 -112 200
-175 230 -25 12 -51 21 -59 21 -16 0 -157 92 -176 115 -11 13 -10 14 4 9 9 -3
27 -3 41 0 55 14 19 141 -45 161 -14 5 -20 15 -20 38 0 45 -32 100 -63 108
-35 9 -127 60 -127 71 0 4 11 8 24 8 28 0 76 42 76 67 0 24 -10 37 -37 52 -16
8 -23 21 -23 42 0 23 -7 34 -29 47 -17 9 -34 26 -40 38 -8 19 -20 22 -121 26
-61 3 -236 3 -388 1 -193 -4 -295 -2 -337 6 -33 7 -146 15 -251 18 l-191 6
-18 39 c-9 21 -33 55 -53 74 -20 19 -37 45 -37 57 0 18 -7 23 -35 25 -29 2
-41 11 -71 55 -20 29 -39 62 -43 74 -8 25 -58 68 -152 131 -33 22 -72 58 -86
80 -40 60 -136 160 -187 195 -60 40 -191 167 -191 184 0 28 -72 91 -157 135
-48 25 -153 71 -233 102 -80 31 -221 95 -315 142 -93 46 -175 84 -181 84 -6 0
-26 14 -44 31 -38 37 -119 75 -255 120 -55 18 -101 34 -103 35 -2 1 10 21 27
45 17 23 31 50 31 61 0 45 -125 138 -227 168 -37 11 -40 15 -30 31 15 23 -1
68 -28 82 -32 16 -47 25 -95 57 -25 16 -76 40 -115 52 -38 12 -81 32 -95 44
-36 33 -103 60 -194 79 -82 16 -97 15 -77 -9 11 -12 6 -13 -31 -1 -24 7 -68
16 -98 20 -47 6 -60 13 -88 45 -30 36 -37 39 -100 45 -110 10 -107 8 -162 99
l-51 83 -61 7 c-78 8 -113 8 -121 -1z"/>
</g>
</svg>
