<?xml version="1.0" standalone="no"?>
<!DOCTYPE svg PUBLIC "-//W3C//DTD SVG 20010904//EN"
 "http://www.w3.org/TR/2001/REC-SVG-20010904/DTD/svg10.dtd">
<svg version="1.0" xmlns="http://www.w3.org/2000/svg"
 width="1280.000000pt" height="1280.000000pt" viewBox="0 0 1280.000000 1280.000000"
 preserveAspectRatio="xMidYMid meet">
<metadata>
Created by potrace 1.15, written by Peter Selinger 2001-2017
</metadata>
<g transform="translate(0.000000,1280.000000) scale(0.100000,-0.100000)"
fill="#000000" stroke="none">
<path d="M7555 12459 c-226 -273 -324 -551 -325 -918 l-1 -166 -30 58 c-99
192 -139 446 -105 667 7 47 12 86 11 88 -8 9 -126 -185 -154 -253 -63 -152
-82 -249 -88 -459 l-6 -190 -20 25 c-33 41 -76 134 -103 226 -23 76 -27 108
-28 226 -1 156 -1 156 -66 22 -72 -149 -115 -359 -109 -539 1 -43 -2 -71 -8
-73 -16 -6 -183 60 -285 112 -340 171 -543 427 -602 759 -21 113 -27 246 -18
344 9 98 2 95 -56 -23 -176 -354 -123 -728 161 -1154 41 -61 72 -113 68 -115
-3 -2 -55 0 -116 4 -490 37 -848 151 -1079 344 l-50 41 42 -80 c83 -158 233
-331 369 -423 79 -53 171 -99 275 -137 l88 -31 -104 -82 c-294 -234 -523 -554
-635 -891 -64 -193 -76 -275 -75 -501 1 -188 3 -213 27 -302 68 -255 188 -459
382 -653 221 -220 497 -377 835 -476 164 -48 223 -70 315 -116 233 -117 349
-293 350 -533 0 -155 -51 -255 -172 -337 -188 -126 -404 -87 -494 90 -56 109
-21 255 73 303 43 22 119 21 160 -3 78 -46 104 -145 50 -196 -42 -40 -83 -44
-135 -14 -24 14 -52 41 -62 61 -11 20 -23 36 -27 36 -11 0 -21 -68 -15 -106 8
-45 47 -97 100 -132 35 -23 51 -27 111 -27 57 1 81 6 123 28 143 74 206 190
182 339 -29 181 -154 313 -355 374 -95 29 -279 25 -422 -10 -139 -33 -284 -54
-436 -62 l-115 -7 -57 43 c-85 64 -206 190 -258 269 -96 145 -130 254 -130
428 -1 118 -1 121 -18 95 -23 -38 -75 -168 -95 -244 -13 -46 -18 -100 -17
-203 0 -165 18 -243 89 -393 33 -69 42 -98 33 -103 -24 -15 -146 -33 -225 -32
-73 0 -91 4 -150 33 -95 47 -198 151 -246 250 -52 106 -69 177 -74 316 -10
242 59 481 200 689 53 78 170 194 230 230 26 15 46 29 45 31 -7 6 -120 -27
-194 -56 -246 -98 -425 -272 -564 -550 -23 -47 -44 -87 -46 -89 -10 -10 -14
13 -25 141 -66 767 436 1660 1293 2299 66 49 116 89 111 89 -19 0 -217 -51
-323 -84 -986 -299 -1905 -988 -2509 -1881 -302 -446 -519 -923 -651 -1430
-55 -209 -84 -354 -120 -602 -17 -119 -13 -1155 5 -1294 46 -350 125 -700 241
-1067 25 -79 47 -142 49 -140 3 2 -7 67 -20 143 -33 183 -70 459 -92 675 -25
255 -25 929 0 1160 91 825 328 1495 747 2108 128 189 393 512 407 498 2 -2 -9
-31 -26 -64 -294 -582 -348 -1285 -155 -2012 31 -118 115 -372 121 -367 2 3
-1 35 -7 73 -125 784 -36 1460 282 2124 33 69 62 120 65 113 2 -7 -3 -61 -11
-121 -127 -917 119 -1567 786 -2070 30 -23 58 -42 61 -42 4 0 -23 37 -60 83
-74 91 -137 186 -176 262 -30 59 -72 193 -63 202 3 3 23 -10 44 -29 57 -51
153 -115 241 -158 270 -136 570 -153 906 -54 50 14 99 29 109 32 18 5 18 4 4
-16 -27 -39 -151 -144 -236 -199 -87 -57 -222 -124 -332 -163 -117 -42 -109
-46 51 -29 225 23 458 97 767 244 74 36 137 65 140 65 8 0 -31 -54 -81 -113
-63 -74 -227 -205 -351 -281 -53 -33 -94 -61 -92 -63 7 -8 254 50 354 83 59
20 167 65 240 101 l133 66 37 -35 c145 -136 304 -206 492 -215 273 -13 556
119 904 421 31 27 60 46 64 42 4 -4 7 -78 7 -164 0 -132 -4 -170 -23 -242 -23
-84 -94 -243 -148 -330 l-28 -45 44 35 c84 65 255 246 320 338 151 214 230
439 230 660 0 39 4 72 9 72 17 0 93 -104 125 -170 27 -58 31 -75 31 -155 0
-102 -16 -160 -70 -249 -18 -31 -30 -56 -26 -56 4 0 37 25 74 55 185 153 266
341 255 594 l-6 116 35 -40 c51 -59 100 -152 119 -225 18 -73 14 -157 -12
-234 -9 -26 -14 -49 -12 -52 10 -9 128 113 162 168 20 32 46 89 59 127 12 39
25 71 29 71 4 0 19 -37 34 -82 35 -111 44 -273 20 -379 -28 -128 -112 -268
-220 -367 -25 -23 -46 -45 -46 -47 0 -11 72 -4 145 15 43 11 81 18 83 15 8 -8
-76 -84 -133 -121 -90 -57 -165 -77 -275 -72 -82 4 -105 9 -165 38 -78 37
-161 113 -194 178 -12 23 -24 42 -26 42 -8 0 5 -77 22 -140 59 -218 229 -371
558 -505 39 -16 74 -32 79 -36 4 -4 -13 -30 -38 -57 -62 -67 -127 -86 -286
-87 -94 0 -128 4 -185 23 -98 33 -167 75 -246 149 -107 101 -163 202 -199 356
l-16 72 -21 -80 c-37 -138 -39 -238 -6 -390 6 -30 6 -29 -48 18 -231 204 -391
317 -589 414 -314 154 -589 221 -947 230 -216 6 -342 -3 -553 -40 -186 -31
-541 -31 -725 2 -247 44 -430 119 -542 225 -61 56 -63 57 -63 31 0 -46 39
-221 66 -297 35 -97 82 -190 139 -273 39 -56 45 -71 33 -79 -7 -6 -61 -49
-118 -95 -233 -188 -536 -360 -761 -435 -138 -45 -279 -74 -409 -82 l-103 -7
29 -24 c100 -82 269 -152 424 -174 81 -11 316 -7 399 8 l34 6 -6 -40 c-10 -63
-56 -191 -99 -278 -113 -226 -287 -419 -537 -593 -85 -59 -78 -64 55 -37 151
32 358 116 487 198 32 21 60 37 62 37 12 0 3 -102 -14 -175 -27 -111 -66 -214
-120 -320 -25 -49 -47 -94 -49 -98 -7 -15 93 51 148 99 30 26 79 74 108 108
29 33 56 62 60 64 4 1 29 -42 56 -95 236 -478 631 -792 1170 -932 45 -12 90
-31 104 -43 59 -54 79 -168 46 -264 -8 -25 -14 -48 -12 -50 2 -2 35 15 73 38
101 60 194 156 239 249 l37 76 122 12 c373 37 784 144 1180 306 15 6 17 0 17
-51 1 -138 55 -279 136 -354 24 -22 48 -40 54 -40 5 0 10 21 10 46 0 163 105
341 237 401 75 35 203 43 285 19 123 -35 240 -146 289 -274 31 -79 37 -218 14
-298 -35 -121 -112 -229 -230 -322 l-40 -31 95 25 c52 13 147 50 210 80 102
51 123 66 205 148 70 70 101 110 134 175 30 58 46 80 51 70 5 -8 18 -59 30
-114 31 -138 32 -335 2 -452 -49 -192 -133 -336 -281 -483 -141 -140 -366
-284 -554 -355 -114 -42 -304 -31 -323 20 -4 9 12 45 35 85 66 110 137 258
164 340 30 88 50 215 45 284 l-3 50 -44 -60 c-107 -142 -219 -249 -356 -336
-76 -50 -168 -98 -185 -98 -6 0 0 21 14 48 33 65 80 202 102 297 32 135 22
444 -15 513 -4 7 -21 -21 -40 -70 -107 -266 -272 -478 -472 -608 -110 -70
-206 -113 -338 -147 -132 -35 -360 -43 -515 -18 -327 51 -661 200 -976 436
l-45 34 29 -50 c471 -823 1438 -1458 2356 -1545 69 -7 140 -10 158 -8 33 3 33
3 -55 68 -112 82 -228 193 -309 295 -69 85 -78 108 -41 101 354 -76 783 -80
1081 -11 369 86 691 281 928 565 94 112 215 291 278 412 l44 85 121 6 c198 9
318 54 431 159 35 33 64 64 64 68 0 4 -48 10 -107 13 -235 11 -392 102 -472
271 -51 107 -52 104 69 145 58 20 127 49 154 65 117 69 187 177 194 300 l4 68
-41 -45 c-86 -93 -220 -113 -341 -52 -70 35 -79 43 -219 175 -64 60 -147 135
-186 165 -544 432 -1156 527 -2025 316 -399 -97 -680 -121 -982 -86 -520 61
-869 267 -1027 607 -37 78 -79 223 -69 233 2 3 42 -20 87 -49 192 -127 359
-186 541 -193 l115 -4 -50 43 c-118 100 -194 199 -237 307 -19 48 -22 75 -23
186 0 121 2 135 29 200 112 271 363 465 626 482 241 16 450 -130 476 -333 19
-159 -90 -344 -231 -388 -207 -66 -426 71 -509 318 -28 83 -1 -165 30 -270 51
-179 140 -296 272 -361 72 -36 82 -38 187 -42 91 -2 126 1 190 18 151 42 349
166 480 300 27 28 53 51 58 51 14 0 -1 -59 -32 -125 -29 -63 -92 -147 -169
-227 -54 -56 -49 -58 73 -29 168 41 292 118 391 245 l30 38 84 -42 c201 -101
427 -171 647 -200 147 -20 449 -8 598 24 127 27 256 66 386 118 44 17 82 28
85 25 10 -10 -89 -190 -148 -267 -75 -100 -231 -249 -345 -330 -51 -35 -91
-66 -88 -68 2 -2 45 13 97 33 261 104 471 239 667 429 91 88 103 97 97 71 -19
-84 -157 -279 -311 -442 -48 -51 -83 -93 -78 -93 13 0 314 173 400 231 292
195 608 468 892 772 46 49 85 87 87 84 2 -2 -1 -30 -7 -62 -27 -148 -117 -327
-244 -491 -37 -46 -63 -84 -60 -84 16 0 152 86 217 138 120 95 215 216 272
346 19 43 30 57 41 52 122 -47 264 -48 352 -3 113 58 177 161 177 284 0 68
-11 105 -22 74 -9 -26 -72 -89 -102 -101 -25 -10 -35 -9 -73 9 -94 46 -161
141 -161 231 0 100 83 206 215 273 l71 37 45 -40 c25 -22 81 -60 124 -85 88
-51 117 -86 154 -187 l23 -63 12 30 c48 123 64 316 35 425 -22 85 -74 182
-132 249 l-46 53 -49 -6 c-135 -18 -314 -114 -475 -255 -45 -39 -85 -71 -88
-71 -11 0 43 89 100 165 274 369 702 487 945 259 42 -39 100 -135 100 -164 0
-6 5 -8 11 -4 19 11 6 209 -19 276 -41 114 -129 207 -235 246 -29 11 -101 27
-160 36 -116 17 -166 37 -237 95 -86 69 -76 68 -94 9 -30 -104 -120 -175 -187
-148 -83 35 -104 127 -49 214 17 26 50 68 73 94 24 26 52 70 61 97 45 123 133
242 325 440 69 71 119 124 111 119 -101 -71 -457 -362 -612 -501 -355 -319
-511 -581 -468 -787 6 -31 13 -56 14 -56 2 0 29 16 61 35 95 57 188 59 248 5
28 -25 32 -34 31 -77 -2 -107 -74 -173 -237 -215 -78 -21 -86 -25 -80 -43 4
-11 6 -60 6 -110 -2 -99 -21 -188 -74 -330 -38 -100 -26 -90 -194 -160 -60
-25 -159 -73 -220 -106 -60 -32 -112 -58 -117 -57 -4 2 20 44 53 93 33 50 93
158 134 240 304 614 334 1312 79 1811 -157 307 -459 570 -845 733 -340 144
-640 214 -1236 286 -385 47 -635 115 -896 245 -214 107 -420 272 -536 428
-247 336 -265 728 -47 1056 363 545 1289 507 2030 -84 153 -121 266 -249 266
-300 0 -6 -20 3 -45 20 -90 62 -169 91 -298 110 -223 34 -347 87 -459 197 -31
31 -70 81 -87 112 -28 51 -30 53 -31 27 0 -48 30 -157 63 -221 49 -99 104
-172 216 -288 l106 -110 -51 7 c-74 9 -214 52 -315 95 -179 78 -315 169 -487
327 -84 77 -93 84 -73 49 292 -491 649 -747 1074 -771 111 -6 114 -7 267 -74
151 -65 313 -127 455 -171 67 -22 73 -26 200 -157 71 -74 153 -169 181 -211
49 -73 123 -151 144 -151 6 0 0 21 -13 48 -29 57 -57 145 -87 272 -12 52 -37
125 -56 162 -19 38 -32 68 -29 68 3 0 42 -23 88 -52 200 -126 355 -178 602
-203 94 -10 208 -32 277 -55 196 -66 328 -220 443 -517 16 -40 32 -73 36 -73
5 0 20 38 34 84 155 507 19 834 -417 1002 -51 20 -111 49 -134 65 -92 63 -186
194 -242 339 -43 112 -47 130 -23 130 39 0 117 -33 186 -79 39 -25 73 -47 77
-49 23 -11 -59 233 -117 350 -105 208 -235 354 -447 499 -92 63 -132 108 -231
260 -111 170 -186 346 -224 522 -24 111 -24 304 0 416 10 46 17 85 15 87 -14
13 -155 -247 -201 -371 -52 -141 -97 -343 -97 -442 0 -23 -5 -45 -11 -49 -7
-4 -65 48 -143 127 -249 253 -378 495 -422 791 -28 190 -10 386 57 609 16 56
28 103 27 105 -2 1 -26 -24 -53 -57z m780 -2291 c114 -68 189 -130 241 -201
51 -68 88 -136 80 -144 -3 -3 -27 0 -53 6 -26 6 -95 13 -152 16 -57 3 -123 10
-147 15 -91 21 -224 80 -224 101 0 14 71 56 127 74 l53 17 -25 32 c-32 42 -72
131 -81 180 l-7 38 54 -43 c30 -25 90 -65 134 -91z"/>
</g>
</svg>
