<?xml version="1.0" standalone="no"?>
<!DOCTYPE svg PUBLIC "-//W3C//DTD SVG 20010904//EN"
 "http://www.w3.org/TR/2001/REC-SVG-20010904/DTD/svg10.dtd">
<svg version="1.0" xmlns="http://www.w3.org/2000/svg"
 width="1280.000000pt" height="1000.000000pt" viewBox="0 0 1280.000000 1000.000000"
 preserveAspectRatio="xMidYMid meet">
<metadata>
Created by potrace 1.15, written by Peter Selinger 2001-2017
</metadata>
<g transform="translate(0.000000,1000.000000) scale(0.100000,-0.100000)"
fill="#000000" stroke="none">
<path d="M5650 9983 c-1 -11 137 -154 325 -338 l325 -320 0 -77 0 -78 -97 0
-96 0 -321 204 c-358 227 -386 243 -386 223 0 -7 43 -131 95 -275 l95 -262
-96 -253 c-53 -138 -99 -260 -101 -269 -3 -11 133 63 363 198 l369 215 65 -3
65 -3 3 -190 2 -190 -72 -19 c-282 -70 -503 -292 -579 -581 -30 -113 -30 -308
0 -420 78 -288 270 -482 572 -577 106 -33 319 -33 432 0 303 87 517 320 587
637 18 82 14 259 -9 346 -76 295 -301 523 -585 595 l-66 16 0 194 0 194 68 0
67 -1 365 -213 c201 -118 366 -213 367 -212 2 1 -42 120 -97 264 -55 144 -100
266 -100 271 0 4 44 132 99 282 54 151 97 275 96 277 -2 3 -112 -66 -562 -351
l-153 -97 -95 0 -95 0 0 77 0 78 326 326 c188 189 324 332 320 338 -4 6 -13
11 -21 11 -7 0 -174 -63 -370 -141 l-356 -141 -187 72 c-312 121 -547 210
-554 210 -5 0 -8 -8 -8 -17z"/>
<path d="M5153 8124 c-89 -32 -173 -139 -189 -240 -9 -58 17 -140 61 -191 21
-25 62 -55 101 -74 110 -54 224 -43 308 31 85 75 117 205 76 312 -54 143 -210
214 -357 162z"/>
<path d="M7422 8114 c-173 -86 -206 -328 -64 -456 57 -52 105 -70 182 -70 88
-1 157 29 215 94 54 60 69 109 63 203 -5 80 -20 114 -75 169 -86 88 -217 112
-321 60z"/>
<path d="M4549 8114 c-28 -8 -68 -33 -98 -60 -83 -74 -110 -146 -91 -244 28
-148 129 -239 266 -240 118 0 210 54 259 154 51 105 34 223 -47 311 -78 86
-179 113 -289 79z"/>
<path d="M8077 8116 c-118 -44 -197 -151 -197 -267 0 -105 74 -217 171 -259
42 -18 66 -21 123 -18 155 9 252 108 264 270 5 74 -12 122 -67 188 -65 80
-203 120 -294 86z"/>
<path d="M3970 7991 c-85 -17 -175 -84 -209 -154 -30 -63 -37 -152 -17 -222
43 -147 213 -233 372 -187 55 16 129 82 162 146 22 43 27 64 27 131 0 67 -5
88 -27 130 -14 28 -41 64 -60 82 -60 58 -168 90 -248 74z"/>
<path d="M8715 7991 c-80 -21 -161 -86 -201 -163 -10 -19 -19 -65 -22 -109 -4
-66 -1 -84 20 -130 35 -76 70 -114 135 -145 142 -70 332 -4 392 137 25 58 30
148 12 216 -14 53 -89 137 -150 168 -51 25 -140 38 -186 26z"/>
<path d="M3333 7653 c-48 -16 -132 -88 -161 -136 -44 -73 -48 -219 -7 -298 86
-165 337 -211 472 -86 145 134 144 336 -2 465 -26 22 -67 48 -92 56 -57 20
-154 19 -210 -1z"/>
<path d="M9257 7656 c-172 -62 -255 -263 -174 -423 114 -225 428 -230 545 -8
24 44 27 61 27 145 0 85 -3 100 -27 141 -76 129 -238 192 -371 145z"/>
<path d="M2861 7604 c-149 -77 -404 -308 -578 -524 -393 -487 -610 -1044 -639
-1640 -21 -441 106 -860 356 -1175 108 -135 310 -316 426 -381 89 -50 509
-224 540 -224 21 0 25 -4 19 -17 -13 -35 -17 -108 -6 -135 5 -15 86 -95 178
-178 124 -111 173 -150 187 -146 12 3 6 -6 -16 -24 -20 -16 -45 -49 -57 -72
-11 -24 -21 -36 -21 -28 0 9 -26 38 -57 66 -194 169 -286 244 -307 250 -38 9
-99 -13 -133 -48 -24 -25 -43 -70 -83 -193 -61 -186 -71 -254 -45 -317 30 -75
183 -332 207 -347 36 -22 90 -31 128 -21 30 8 54 36 173 194 75 101 137 189
137 195 0 6 20 -9 44 -34 104 -103 263 -78 330 53 21 41 24 43 30 25 4 -12 53
-61 109 -109 56 -49 129 -112 163 -140 73 -64 100 -72 159 -49 69 26 89 59
146 238 60 185 68 237 47 299 -20 58 -174 329 -199 350 -33 28 -97 42 -139 29
-29 -9 -56 -38 -162 -178 -70 -92 -133 -183 -141 -202 -13 -30 -15 -32 -21
-14 -9 27 -44 59 -92 83 -35 17 -37 19 -13 20 22 0 46 27 153 175 70 96 133
188 139 205 8 22 8 41 -1 75 -25 94 -42 106 -265 185 -70 25 -127 47 -127 50
0 3 26 25 58 50 455 352 593 465 621 507 69 103 100 248 81 379 -16 116 -35
150 -157 271 -159 157 -244 305 -298 519 -132 520 66 1044 506 1337 279 185
617 277 1078 293 170 6 197 10 213 26 37 37 17 99 -51 161 -110 99 -281 137
-504 111 -784 -90 -1331 -415 -1582 -939 -94 -199 -134 -369 -142 -612 -6
-182 4 -299 38 -458 60 -281 210 -586 377 -766 48 -51 64 -76 64 -99 1 -17 -1
-32 -3 -34 -2 -2 -101 -79 -219 -172 -558 -438 -556 -437 -631 -398 -48 25
-201 166 -290 269 -276 316 -406 614 -465 1065 -22 170 -15 477 15 641 98 540
381 1003 834 1362 93 74 102 87 97 131 -5 48 -62 96 -113 96 -14 0 -57 -16
-96 -36z m669 -4168 c0 -19 -12 -67 -26 -108 -14 -40 -28 -83 -31 -95 -4 -16
-13 -23 -28 -23 -13 0 -29 -2 -37 -3 -7 -2 -10 -2 -6 0 5 3 -6 25 -23 49 -16
24 -44 74 -61 110 -38 81 -30 95 37 70 51 -20 84 -16 123 15 37 29 52 24 52
-15z m356 -318 c-19 -100 -19 -116 3 -151 11 -19 21 -44 21 -57 0 -20 -3 -22
-37 -15 -44 8 -146 48 -180 70 -42 28 -30 58 45 113 85 62 101 71 131 72 21 0
23 -3 17 -32z m-727 -102 c60 -25 76 -37 84 -60 8 -25 6 -32 -14 -48 -66 -52
-142 -99 -170 -105 l-32 -6 7 36 c3 21 9 53 12 72 4 25 0 46 -15 75 -12 22
-21 50 -21 61 0 19 4 20 38 14 20 -4 70 -21 111 -39z"/>
<path d="M9776 7619 c-30 -24 -56 -69 -56 -98 0 -13 39 -52 118 -117 478 -397
755 -879 837 -1459 17 -118 19 -405 5 -525 -57 -455 -252 -862 -565 -1176
-117 -118 -207 -184 -249 -184 -40 0 -68 19 -441 306 -329 252 -365 283 -365
312 0 12 27 52 61 89 290 325 462 863 421 1315 -34 367 -158 654 -385 894
-302 319 -741 508 -1342 578 -216 25 -388 -13 -496 -111 -48 -43 -69 -81 -69
-122 0 -50 25 -58 205 -65 464 -17 835 -121 1124 -314 168 -111 331 -302 416
-484 80 -175 110 -340 102 -562 -13 -329 -119 -577 -344 -802 -96 -96 -114
-119 -128 -165 -57 -185 -5 -425 114 -531 27 -24 179 -144 339 -268 160 -124
291 -227 291 -230 1 -3 -52 -25 -116 -49 -211 -78 -237 -92 -261 -143 -13 -25
-22 -64 -22 -89 0 -41 9 -58 111 -199 121 -169 164 -220 188 -220 9 -1 2 -7
-14 -14 -29 -13 -68 -48 -99 -91 -15 -20 -15 -20 -10 0 6 25 -253 372 -293
393 -17 9 -44 12 -77 9 -44 -4 -55 -10 -86 -44 -19 -22 -72 -110 -117 -195
-73 -136 -83 -161 -83 -206 0 -58 98 -381 128 -421 26 -35 81 -61 127 -61 37
1 52 11 180 120 77 66 157 138 178 161 20 23 37 35 37 27 0 -28 61 -97 105
-118 49 -24 122 -28 168 -11 15 6 47 29 72 52 25 23 45 36 45 28 0 -18 259
-358 287 -376 31 -21 116 -12 151 14 26 20 88 121 178 291 33 62 44 94 44 127
0 52 -101 376 -129 415 -30 43 -80 70 -126 70 -41 0 -51 -7 -210 -146 -91 -80
-170 -155 -174 -166 -7 -20 -9 -19 -20 13 -6 18 -28 50 -47 70 -35 36 -36 37
-14 44 22 7 166 131 286 246 70 67 81 99 60 178 l-13 49 36 5 c45 6 374 142
502 208 110 57 245 164 364 290 268 285 421 649 443 1054 32 578 -136 1152
-489 1670 -180 265 -438 534 -647 674 -122 82 -187 99 -236 60z m-444 -4182
c27 -20 60 -20 141 -1 23 5 27 3 27 -15 0 -31 -67 -157 -116 -220 -2 -2 -14
-1 -28 3 -19 5 -30 20 -50 73 -33 88 -50 159 -43 178 7 17 28 11 69 -18z
m-338 -322 c31 -19 70 -45 86 -59 16 -13 33 -26 38 -28 5 -1 7 -17 5 -35 -5
-29 -12 -35 -90 -67 -83 -35 -136 -45 -147 -27 -3 5 6 30 20 57 20 37 24 57
19 84 -17 98 -17 110 -3 110 8 0 40 -16 72 -35z m796 -82 c0 -10 -9 -33 -20
-51 -23 -37 -25 -73 -8 -137 7 -24 9 -48 5 -52 -13 -12 -64 13 -142 69 -64 46
-75 57 -75 83 0 28 5 32 88 67 97 42 152 49 152 21z"/>
<path d="M1890 7316 c-130 -29 -221 -117 -236 -229 -14 -98 75 -207 183 -223
194 -29 374 90 373 248 -1 146 -152 242 -320 204z"/>
<path d="M10771 7320 c-157 -32 -229 -182 -151 -317 50 -88 155 -143 272 -143
80 0 130 16 178 58 71 60 90 122 66 207 -39 132 -213 225 -365 195z"/>
<path d="M9767 7140 c-69 -12 -130 -45 -177 -96 -65 -70 -85 -123 -85 -224 0
-78 3 -90 34 -148 60 -111 149 -165 271 -165 136 0 244 64 300 178 20 42 24
65 24 137 -1 73 -5 95 -28 142 -41 85 -134 156 -221 171 -22 4 -47 8 -55 10
-8 1 -36 -1 -63 -5z"/>
<path d="M1223 7119 c-63 -24 -146 -97 -176 -153 -15 -29 -21 -60 -22 -103 0
-52 4 -67 30 -104 87 -124 288 -126 423 -5 56 51 85 115 85 185 0 66 -18 106
-67 149 -63 55 -177 68 -273 31z"/>
<path d="M2879 7126 c-56 -20 -105 -54 -143 -98 -58 -68 -70 -102 -71 -208 0
-87 2 -99 30 -149 102 -184 365 -224 508 -76 93 96 119 239 66 355 -36 78 -80
124 -151 160 -51 25 -73 30 -132 30 -39 -1 -87 -7 -107 -14z"/>
<path d="M11366 7126 c-73 -27 -135 -111 -136 -182 0 -92 72 -195 173 -243 76
-37 136 -46 202 -31 185 41 227 243 79 380 -25 23 -67 51 -92 63 -60 26 -173
33 -226 13z"/>
<path d="M6343 6871 c-126 -32 -213 -158 -200 -287 9 -92 70 -177 152 -215 54
-25 165 -25 221 0 197 90 205 381 12 475 -59 29 -135 40 -185 27z"/>
<path d="M5792 6849 c-85 -43 -83 -37 -277 -699 -110 -374 -248 -860 -325
-1139 -165 -605 -174 -698 -75 -832 46 -64 143 -126 504 -320 167 -90 305
-168 306 -174 2 -5 6 -22 9 -36 7 -33 310 -347 342 -355 25 -6 25 -7 -10 -30
-20 -14 -47 -41 -61 -62 -17 -25 -25 -31 -25 -18 0 21 -92 119 -242 257 -104
96 -109 99 -155 99 -55 0 -128 -32 -145 -63 -57 -104 -167 -345 -172 -378 -9
-57 4 -96 95 -283 93 -191 111 -210 210 -211 l56 0 157 149 c87 82 166 162
178 178 l20 29 39 -44 c46 -53 105 -79 174 -79 71 0 128 26 180 84 32 35 45
45 45 32 0 -10 73 -89 168 -181 176 -171 193 -183 264 -168 79 16 98 40 191
238 93 197 100 227 73 305 -8 23 -49 111 -90 197 -72 149 -76 156 -118 175
-24 11 -65 20 -93 20 l-49 0 -177 -177 -176 -178 -49 50 -49 50 173 175 c115
117 175 185 180 205 7 27 36 45 287 182 394 214 417 228 474 279 101 91 132
181 111 324 -25 178 -234 944 -521 1910 -115 387 -125 414 -168 453 -57 51
-102 63 -156 42 -54 -20 -79 -58 -94 -139 -12 -67 -16 -38 70 -551 108 -648
172 -924 304 -1315 76 -227 98 -320 86 -370 -20 -88 -51 -123 -331 -371 l-244
-217 -71 36 c-38 19 -99 46 -135 58 -67 24 -66 28 10 39 68 8 144 48 205 106
101 96 140 191 133 333 -3 76 -9 102 -34 156 -144 304 -556 338 -741 61 -59
-86 -76 -152 -71 -262 4 -76 9 -97 41 -162 63 -127 189 -221 313 -234 60 -6
61 -12 6 -29 -20 -6 -81 -32 -135 -57 l-97 -46 -274 248 c-216 198 -277 258
-290 290 -30 77 -23 119 79 431 135 415 184 626 295 1275 88 511 94 586 54
655 -42 73 -111 95 -182 59z m544 -3314 c25 -19 89 -19 119 1 13 8 34 14 47
12 33 -4 27 -35 -27 -145 -41 -83 -49 -93 -73 -93 -22 0 -33 10 -59 53 -34 57
-73 149 -73 172 0 19 40 19 66 0z m-344 -352 c24 -9 71 -32 106 -52 53 -30 62
-39 62 -63 0 -25 -9 -32 -89 -72 -107 -54 -145 -61 -149 -28 -2 13 4 34 12 47
22 33 20 83 -4 129 -30 59 -14 69 62 39z m888 -5 c-1 -13 -7 -34 -15 -48 -19
-32 -18 -100 0 -124 8 -11 15 -31 15 -44 0 -21 -3 -23 -27 -18 -16 4 -72 28
-125 54 -90 44 -96 49 -91 72 9 38 9 39 106 86 104 50 137 56 137 22z"/>
<path d="M1716 6803 c-43 -7 -210 -75 -328 -134 -345 -173 -597 -402 -746
-677 l-39 -73 5 76 c7 118 -37 203 -127 241 -76 33 -193 -3 -257 -78 -54 -64
-79 -135 -79 -223 0 -96 26 -152 92 -199 87 -61 223 -27 300 73 18 24 33 41
33 39 0 -3 -11 -38 -25 -79 -69 -201 -93 -486 -61 -725 19 -147 70 -353 121
-489 42 -114 119 -275 144 -302 48 -52 151 -208 157 -238 16 -86 -39 -190
-223 -423 -65 -82 -76 -92 -98 -86 -41 10 -71 -3 -89 -40 -9 -19 -16 -45 -16
-58 0 -12 -6 -35 -14 -50 -8 -14 -10 -30 -6 -35 4 -4 13 -64 19 -132 20 -219
73 -415 140 -519 50 -76 90 -104 156 -110 l52 -4 -15 -30 c-19 -39 -3 -119 34
-169 30 -40 90 -79 123 -79 19 0 21 -3 11 -15 -19 -22 -3 -50 58 -105 69 -63
210 -133 316 -160 96 -24 237 -26 320 -5 140 37 270 138 362 279 23 37 45 73
47 79 2 7 39 -20 83 -59 201 -182 403 -302 578 -344 171 -42 350 -17 496 67
86 50 216 181 258 260 l33 62 82 -82 c65 -65 101 -93 172 -129 199 -101 377
-130 563 -92 206 42 377 164 509 361 30 46 59 86 64 89 6 3 39 -21 75 -53 329
-293 570 -423 785 -423 179 0 312 65 518 253 l94 86 81 -76 c218 -203 348
-267 541 -267 86 1 114 6 198 34 165 56 345 171 549 353 53 48 103 87 110 86
7 0 37 -38 67 -85 91 -140 213 -250 348 -312 111 -51 183 -66 318 -65 150 1
240 23 384 94 87 43 118 65 189 135 47 46 86 84 87 84 1 0 12 -20 24 -43 86
-167 278 -313 463 -351 97 -20 168 -20 266 0 198 41 397 155 609 348 39 36 75
66 80 66 4 0 23 -28 42 -63 52 -94 178 -216 271 -260 172 -82 377 -73 585 26
134 65 244 167 215 202 -9 11 -4 16 25 24 84 23 145 105 145 195 0 106 -106
129 -193 40 -39 -39 -57 -76 -64 -134 -5 -44 -3 -51 23 -77 l29 -28 -130 -33
c-157 -39 -248 -42 -329 -11 -94 34 -189 136 -281 299 -39 68 -156 323 -151
328 2 1 50 4 107 5 92 2 111 6 162 31 69 35 150 118 177 182 77 178 -7 387
-188 472 -77 36 -211 38 -286 4 -137 -62 -217 -185 -217 -334 0 -90 23 -157
77 -224 24 -29 44 -57 44 -61 0 -14 -202 -278 -288 -376 -231 -264 -450 -379
-632 -333 -133 34 -219 109 -386 333 -147 198 -157 201 -285 88 -207 -182
-292 -239 -418 -282 -66 -22 -89 -25 -172 -21 -90 3 -103 7 -184 47 -73 36
-105 60 -184 140 -104 103 -212 252 -244 335 -14 37 -21 86 -25 178 l-5 127
29 12 c106 44 138 62 176 101 63 63 90 126 96 224 7 128 -31 221 -123 302 -71
63 -140 85 -250 80 -148 -6 -237 -64 -302 -195 -34 -69 -37 -82 -37 -162 0
-74 4 -95 28 -149 36 -78 114 -152 189 -180 l52 -20 3 -78 c4 -96 -13 -213
-39 -274 -22 -50 -142 -178 -254 -269 -208 -171 -364 -238 -532 -229 -70 4
-93 10 -160 43 -98 48 -199 148 -301 296 -40 58 -83 116 -97 129 -22 21 -26
22 -48 7 -12 -8 -57 -64 -97 -123 -194 -282 -369 -384 -585 -341 -101 21 -238
88 -347 170 -110 83 -285 252 -309 299 -31 61 -49 157 -49 268 l0 106 65 28
c82 36 154 111 185 194 18 47 21 72 18 147 -4 76 -9 99 -35 150 -59 116 -159
182 -288 192 -216 17 -385 -139 -389 -357 -1 -102 22 -165 86 -236 48 -52 129
-104 162 -104 7 0 24 -8 37 -19 l23 -18 -11 -137 c-14 -163 -26 -193 -137
-343 -326 -436 -636 -452 -1060 -55 -85 79 -134 107 -173 98 -15 -4 -61 -58
-136 -159 -132 -177 -223 -267 -316 -311 -60 -28 -75 -31 -161 -31 -88 1 -101
3 -172 37 -106 50 -158 87 -272 198 -120 116 -345 392 -377 464 -11 22 -8 29
21 63 18 20 45 62 59 93 22 47 26 68 26 150 0 112 -18 162 -86 235 -57 62
-112 93 -196 110 -128 27 -253 -13 -337 -106 -63 -70 -89 -142 -90 -249 -1
-77 2 -92 32 -152 40 -82 111 -149 190 -179 44 -17 78 -21 150 -21 50 0 92 -3
92 -7 0 -4 -18 -48 -39 -98 -131 -302 -245 -459 -379 -521 -74 -35 -179 -36
-302 -3 -47 12 -102 27 -124 32 l-38 10 20 22 c30 32 35 66 18 120 -28 92 -96
150 -175 149 -28 -1 -37 4 -38 16 0 9 -13 45 -28 80 -42 100 -29 105 45 19 36
-42 71 -77 79 -77 12 0 13 25 8 153 -8 209 -37 370 -82 456 -20 40 -41 12 260
330 131 138 252 271 267 294 64 97 75 215 28 312 -14 30 -65 93 -125 155 -182
189 -298 351 -390 542 -84 174 -108 278 -109 463 -1 127 3 163 22 235 87 319
355 627 770 884 64 40 152 92 195 115 88 49 107 70 107 121 0 86 -80 147 -174
133z"/>
<path d="M11015 6800 c-65 -14 -105 -61 -105 -124 0 -62 15 -78 136 -144 140
-78 335 -207 437 -290 695 -568 699 -1224 11 -1942 -117 -122 -144 -174 -144
-276 0 -125 26 -163 335 -489 187 -197 263 -284 258 -295 -29 -66 -64 -193
-77 -280 -19 -135 -25 -355 -10 -355 6 0 40 32 74 70 35 39 67 72 72 73 13 6
-1 -45 -28 -105 -13 -28 -24 -56 -24 -62 0 -33 103 -31 154 3 85 55 164 249
201 491 8 55 15 129 15 164 0 46 5 70 16 83 16 16 16 18 0 24 -10 4 -16 17
-16 35 0 40 -29 108 -51 120 -11 5 -34 7 -52 4 -30 -5 -35 -1 -92 72 -220 282
-264 378 -216 475 11 24 53 86 92 138 82 109 130 200 187 355 164 443 186 873
62 1234 -16 46 -25 80 -21 75 4 -5 20 -26 35 -47 33 -45 87 -81 146 -97 140
-38 265 94 246 259 -32 267 -336 382 -441 167 -24 -49 -27 -65 -24 -134 l4
-78 -42 73 c-185 325 -502 583 -928 756 -118 48 -163 58 -210 47z"/>
<path d="M723 6771 c-127 -43 -216 -166 -216 -296 0 -102 57 -173 156 -195
125 -28 273 63 333 205 21 50 18 148 -6 194 -49 97 -151 133 -267 92z"/>
<path d="M11916 6776 c-82 -31 -129 -100 -130 -191 0 -107 66 -215 161 -267
106 -58 197 -58 272 -1 101 77 91 263 -20 374 -79 79 -200 116 -283 85z"/>
<path d="M10027 6470 c-140 -24 -250 -163 -252 -315 -1 -177 143 -319 322
-319 177 -1 313 143 313 331 0 76 -20 126 -77 192 -77 90 -189 131 -306 111z"/>
<path d="M2605 6457 c-54 -22 -90 -45 -126 -84 -62 -66 -82 -108 -87 -188 -11
-171 79 -300 239 -341 73 -19 131 -13 204 20 74 33 120 79 157 154 28 56 32
76 32 137 -1 126 -73 238 -187 291 -41 19 -68 24 -127 23 -41 0 -88 -6 -105
-12z"/>
<path d="M6320 6287 c-143 -40 -238 -172 -227 -317 5 -84 40 -153 107 -213
149 -134 384 -86 477 97 117 231 -107 504 -357 433z"/>
<path d="M2582 5699 c-69 -34 -128 -95 -167 -172 -72 -146 7 -357 163 -434 49
-24 69 -28 142 -28 73 0 93 4 144 29 73 36 131 94 165 166 34 73 36 199 3 272
-31 69 -97 136 -167 169 -51 25 -73 29 -141 29 -70 0 -89 -4 -142 -31z"/>
<path d="M9969 5717 c-88 -33 -164 -103 -202 -185 -33 -72 -31 -198 4 -273 34
-73 96 -134 168 -167 75 -35 201 -38 273 -5 116 53 188 165 196 305 4 69 2 84
-22 132 -36 73 -94 136 -157 171 -45 24 -68 30 -139 32 -54 2 -98 -2 -121 -10z"/>
<path d="M6341 5610 c-183 -38 -303 -213 -270 -394 48 -266 365 -376 563 -195
81 74 111 141 111 249 0 76 -3 92 -33 152 -20 41 -50 82 -78 107 -76 67 -197
100 -293 81z"/>
<path d="M178 5598 c-52 -14 -113 -70 -143 -133 -69 -140 -26 -322 91 -391 39
-23 53 -26 109 -22 86 5 138 41 180 123 27 54 30 67 30 159 0 88 -3 107 -25
150 -29 57 -76 99 -129 115 -44 13 -62 13 -113 -1z"/>
<path d="M12500 5597 c-52 -17 -114 -84 -135 -146 -27 -82 -18 -201 20 -275
42 -82 96 -119 180 -124 55 -4 70 -1 108 21 178 105 165 415 -22 510 -58 29
-94 32 -151 14z"/>
<path d="M2977 5030 c-138 -35 -253 -158 -277 -295 -34 -195 80 -372 270 -421
161 -41 328 35 411 188 32 60 34 68 34 163 0 87 -3 107 -27 157 -58 124 -171
203 -304 212 -38 3 -86 1 -107 -4z"/>
<path d="M9662 5030 c-99 -21 -194 -98 -249 -202 -26 -48 -28 -62 -28 -158 0
-127 19 -175 105 -261 119 -120 308 -140 452 -48 122 78 184 225 158 374 -34
198 -240 337 -438 295z"/>
<path d="M165 4961 c-83 -38 -140 -128 -151 -239 -24 -227 167 -418 344 -342
177 76 211 347 65 520 -59 71 -177 99 -258 61z"/>
<path d="M12454 4956 c-105 -49 -166 -160 -167 -306 -1 -106 25 -173 89 -229
142 -125 344 -37 399 174 19 73 19 115 1 182 -44 167 -183 244 -322 179z"/>
<path d="M396 4326 c-111 -41 -164 -134 -152 -264 7 -81 40 -153 100 -219 123
-136 315 -157 417 -46 48 51 63 92 63 173 0 63 -4 85 -30 140 -63 132 -173
216 -296 226 -42 3 -76 -1 -102 -10z"/>
<path d="M12243 4326 c-141 -46 -240 -163 -266 -311 -8 -49 -7 -71 7 -117 58
-199 292 -233 459 -66 56 56 105 153 114 226 12 104 -38 212 -119 253 -52 26
-139 33 -195 15z"/>
<path d="M1131 3059 c-51 -10 -104 -48 -129 -92 -14 -27 -17 -62 -18 -225 l-1
-192 29 -25 c38 -32 58 -31 89 1 71 77 155 71 177 -12 15 -56 5 -70 -89 -129
-49 -31 -89 -61 -89 -66 0 -20 55 -60 103 -74 64 -19 167 -19 212 -1 38 16
110 103 155 188 133 250 45 457 -256 599 -84 40 -106 43 -183 28z"/>
<path d="M11465 3017 c-287 -150 -365 -325 -251 -562 43 -91 117 -190 157
-210 70 -37 224 -24 289 24 47 34 38 54 -45 106 -97 61 -112 82 -96 135 7 23
23 47 37 56 33 22 85 7 141 -41 23 -19 44 -35 47 -35 3 0 20 13 38 29 l33 29
0 188 c0 160 -3 194 -17 220 -38 69 -107 104 -203 104 -39 -1 -67 -10 -130
-43z"/>
<path d="M1638 1844 c-36 -19 -48 -43 -48 -94 0 -56 39 -96 101 -105 24 -3
2159 -4 4744 -3 4471 3 4701 4 4726 21 59 40 65 113 15 163 l-34 34 -4738 0
c-4163 -1 -4742 -3 -4766 -16z"/>
<path d="M1774 1611 c-119 -54 -124 -223 -9 -285 l40 -21 4540 -3 c2497 -2
4568 0 4602 3 98 10 161 64 170 146 7 62 -29 125 -87 156 l-43 23 -4586 0
c-4451 0 -4587 -1 -4627 -19z"/>
<path d="M1809 1251 c-41 -41 -41 -98 0 -143 l29 -33 4547 -3 c4056 -2 4549 0
4575 13 45 23 64 58 57 107 -3 22 -15 50 -27 62 l-21 21 -4565 3 -4565 2 -30
-29z"/>
<path d="M1940 1029 c-154 -62 -138 -396 24 -506 85 -58 172 -38 218 49 20 37
23 58 23 143 0 89 -3 107 -29 163 -44 95 -131 165 -200 161 -6 0 -22 -5 -36
-10z"/>
<path d="M2392 1009 c-193 -96 -221 -346 -52 -461 109 -75 229 -84 347 -27
228 109 209 408 -31 498 -88 33 -186 29 -264 -10z"/>
<path d="M3085 1027 c-139 -47 -226 -165 -212 -289 23 -188 230 -301 427 -234
70 24 160 111 178 172 41 142 -19 270 -157 335 -57 27 -179 35 -236 16z"/>
<path d="M3704 1024 c-54 -19 -118 -75 -149 -128 -85 -145 -35 -301 122 -378
58 -28 75 -32 147 -32 66 0 92 5 137 26 231 106 231 398 0 501 -60 27 -198 33
-257 11z"/>
<path d="M4373 1026 c-178 -58 -260 -219 -189 -371 101 -218 440 -227 564 -16
23 39 27 57 27 121 0 57 -6 84 -22 115 -30 56 -89 110 -148 136 -62 27 -172
35 -232 15z"/>
<path d="M5015 1026 c-55 -17 -80 -32 -127 -74 -106 -96 -116 -251 -22 -360
110 -129 331 -143 460 -29 130 114 125 306 -10 408 -85 64 -203 86 -301 55z"/>
<path d="M5642 1022 c-69 -25 -120 -67 -159 -131 -90 -150 -18 -319 167 -392
20 -8 68 -13 110 -13 121 1 221 57 274 153 56 104 43 211 -36 297 -81 88 -241
127 -356 86z"/>
<path d="M6252 1009 c-102 -51 -162 -145 -162 -255 0 -157 134 -270 317 -268
60 1 84 6 137 33 288 142 173 521 -158 521 -61 0 -83 -5 -134 -31z"/>
<path d="M6922 1022 c-67 -24 -119 -66 -157 -127 -24 -39 -30 -61 -33 -121 -5
-91 17 -144 89 -208 159 -143 439 -87 509 101 11 30 20 69 20 87 0 98 -69 204
-164 253 -69 36 -187 42 -264 15z"/>
<path d="M7573 1022 c-130 -47 -203 -142 -203 -266 0 -167 180 -299 362 -267
105 18 176 66 226 151 23 38 27 57 27 120 0 86 -18 133 -72 187 -83 82 -229
115 -340 75z"/>
<path d="M8213 1022 c-251 -90 -272 -387 -36 -504 58 -28 75 -32 147 -31 179
1 307 113 307 268 0 112 -56 202 -158 251 -73 36 -184 43 -260 16z"/>
<path d="M8859 1024 c-155 -54 -242 -221 -186 -356 23 -56 93 -124 156 -155
75 -35 191 -38 264 -5 103 46 168 125 182 224 16 105 -52 221 -161 274 -71 35
-184 42 -255 18z"/>
<path d="M9503 1022 c-238 -85 -277 -356 -70 -488 149 -96 366 -46 453 102 40
67 44 155 12 225 -14 30 -40 69 -59 88 -80 79 -228 112 -336 73z"/>
<path d="M10143 1022 c-98 -35 -171 -112 -193 -203 -41 -170 102 -331 295
-333 92 -1 161 24 224 80 66 60 91 113 91 195 -1 110 -56 197 -158 245 -76 36
-184 43 -259 16z"/>
<path d="M10763 1033 c-41 -8 -111 -82 -145 -151 -30 -62 -33 -75 -33 -167 0
-85 3 -106 23 -143 68 -128 223 -103 300 48 75 150 63 324 -28 392 -27 19 -80
29 -117 21z"/>
<path d="M2058 434 c-69 -37 -64 -136 9 -173 16 -8 1179 -11 4338 -11 l4317 0
34 34 c46 46 46 86 0 132 l-34 34 -4318 0 c-3792 -1 -4322 -3 -4346 -16z"/>
<path d="M2171 230 c-104 -25 -123 -168 -27 -214 31 -15 363 -16 4269 -14
l4236 3 30 29 c17 16 33 44 37 61 7 42 -17 98 -52 122 -27 17 -179 18 -4244
20 -2318 0 -4230 -3 -4249 -7z"/>
</g>
</svg>
