<?xml version="1.0" standalone="no"?>
<!DOCTYPE svg PUBLIC "-//W3C//DTD SVG 20010904//EN"
 "http://www.w3.org/TR/2001/REC-SVG-20010904/DTD/svg10.dtd">
<svg version="1.0" xmlns="http://www.w3.org/2000/svg"
 width="1158.000000pt" height="1280.000000pt" viewBox="0 0 1158.000000 1280.000000"
 preserveAspectRatio="xMidYMid meet">
<metadata>
Created by potrace 1.15, written by Peter Selinger 2001-2017
</metadata>
<g transform="translate(0.000000,1280.000000) scale(0.100000,-0.100000)"
fill="#000000" stroke="none">
<path d="M5547 12789 c-607 -53 -1184 -314 -1680 -756 -482 -432 -854 -1049
-1006 -1671 -63 -259 -75 -362 -75 -662 0 -328 10 -397 109 -745 34 -121 97
-366 140 -545 112 -471 164 -638 262 -837 86 -176 201 -298 322 -343 29 -11
87 -25 128 -31 134 -19 538 -162 588 -209 47 -44 217 -401 279 -585 45 -131
47 -135 87 -155 64 -33 345 -101 534 -129 296 -45 675 -47 990 -6 157 20 495
86 590 116 97 30 115 52 160 195 20 65 55 164 77 219 53 134 164 342 192 360
43 28 195 85 338 126 111 31 170 42 265 49 161 11 217 35 311 134 154 163 245
407 371 986 83 379 111 496 158 660 94 326 119 512 110 825 -31 1047 -688
2109 -1640 2649 -495 281 -1055 405 -1610 355z m-972 -2383 c343 -101 618
-346 682 -610 14 -58 15 -83 6 -154 -10 -77 -19 -102 -92 -249 -340 -682 -621
-935 -963 -869 -320 62 -628 367 -730 721 -20 70 -23 101 -22 245 1 134 5 179
22 242 98 362 359 624 692 694 104 22 294 12 405 -20z m2828 20 c351 -67 629
-360 709 -746 26 -125 21 -327 -11 -440 -83 -288 -320 -562 -584 -672 -411
-173 -722 57 -1105 818 -105 207 -121 289 -83 431 72 274 386 528 752 608 85
18 229 18 322 1z m-1531 -2023 c263 -254 454 -571 568 -948 20 -68 20 -70 2
-94 -26 -36 -78 -59 -168 -77 -107 -21 -148 -13 -289 54 -111 53 -125 57 -190
57 -68 0 -73 -2 -170 -60 l-99 -60 -96 1 c-107 1 -185 15 -246 45 -60 28 -67
51 -44 146 52 216 161 434 332 660 70 92 268 319 292 335 23 16 40 6 108 -59z"/>
<path d="M7631 6691 c-95 -28 -196 -83 -313 -171 l-105 -79 -53 -148 c-97
-272 -202 -462 -287 -517 -39 -25 -129 -50 -334 -91 -291 -59 -651 -91 -909
-81 -375 16 -824 100 -927 175 -86 62 -185 237 -284 499 -32 85 -60 156 -61
158 -7 6 -268 108 -323 126 -99 32 -192 48 -276 48 -70 0 -79 -2 -79 -18 0
-31 92 -338 200 -667 56 -170 133 -420 172 -555 131 -461 203 -540 548 -609
517 -103 1051 -124 1715 -66 375 33 910 108 978 137 105 45 153 141 241 484
36 138 92 343 126 455 207 695 268 915 256 926 -4 4 -55 9 -114 10 -81 2 -123
-2 -171 -16z"/>
<path d="M713 6571 c-134 -37 -221 -96 -284 -193 -52 -81 -62 -133 -44 -241
22 -139 7 -167 -125 -222 -36 -15 -80 -36 -99 -48 -36 -22 -107 -125 -135
-197 -37 -94 -31 -232 15 -357 48 -126 194 -302 323 -387 281 -186 507 -188
874 -9 153 75 131 75 268 -7 45 -27 356 -207 690 -401 335 -193 665 -384 734
-424 505 -292 1056 -610 1165 -673 72 -41 243 -140 380 -220 138 -79 328 -189
423 -244 95 -55 172 -102 170 -103 -2 -2 -100 -59 -218 -127 -487 -281 -1236
-714 -1550 -896 -192 -112 -346 -195 -360 -195 -14 0 -63 19 -110 42 -203 100
-386 149 -518 137 -186 -17 -352 -103 -512 -265 -117 -119 -186 -242 -211
-378 -37 -195 55 -390 205 -439 78 -25 132 -60 146 -94 9 -22 11 -54 4 -118
-12 -130 -8 -160 32 -240 92 -188 275 -281 524 -269 214 11 442 108 578 247
76 77 122 153 159 260 36 106 51 195 61 368 l7 117 95 56 c52 31 433 251 845
489 413 238 910 526 1105 638 195 113 374 217 398 230 l42 24 43 -24 c65 -37
1200 -693 1302 -753 50 -29 311 -180 580 -335 270 -155 507 -293 528 -306 37
-24 37 -25 37 -90 0 -97 18 -248 42 -344 66 -272 252 -451 566 -547 76 -23
105 -26 227 -27 127 0 147 3 214 27 134 48 220 124 285 254 29 59 33 99 21
229 -12 137 -10 139 182 224 67 30 105 69 143 152 91 195 23 443 -180 649
-122 123 -234 195 -372 237 -189 59 -359 31 -651 -105 l-117 -55 -38 19 c-20
11 -253 144 -517 297 -264 153 -671 389 -905 524 -488 281 -664 383 -668 387
-1 1 77 49 175 105 98 57 288 167 423 245 284 165 631 365 1090 630 179 103
350 201 380 219 30 18 118 69 195 113 77 45 282 163 455 263 173 100 405 234
515 298 110 63 243 141 295 172 52 32 112 66 132 76 l37 17 133 -65 c354 -174
584 -177 842 -11 260 167 411 417 393 652 -5 64 -13 90 -53 169 -55 108 -85
137 -193 182 -42 18 -88 41 -103 52 -37 26 -49 75 -37 146 18 106 13 168 -17
230 -82 168 -273 261 -513 249 -135 -6 -240 -34 -366 -97 -120 -59 -211 -131
-270 -211 -100 -136 -144 -283 -161 -542 -4 -56 -11 -110 -15 -119 -10 -19
-39 -36 -339 -208 -118 -67 -235 -135 -260 -150 -25 -15 -265 -154 -535 -310
-269 -155 -546 -315 -615 -355 -69 -40 -231 -133 -360 -208 -237 -136 -368
-212 -605 -349 -71 -41 -215 -125 -320 -185 -104 -60 -378 -218 -607 -351
l-418 -241 -217 125 c-120 69 -306 177 -413 239 -107 62 -310 179 -450 260
-140 81 -300 173 -355 205 -55 32 -302 175 -550 318 -1012 583 -1934 1116
-1997 1153 -37 22 -72 47 -77 57 -4 9 -11 62 -15 117 -22 324 -97 510 -262
648 -81 69 -234 146 -349 178 -116 31 -296 36 -392 10z"/>
</g>
</svg>
