<?xml version="1.0" standalone="no"?>
<!DOCTYPE svg PUBLIC "-//W3C//DTD SVG 20010904//EN"
 "http://www.w3.org/TR/2001/REC-SVG-20010904/DTD/svg10.dtd">
<svg version="1.0" xmlns="http://www.w3.org/2000/svg"
 width="1280.000000pt" height="1170.000000pt" viewBox="0 0 1280.000000 1170.000000"
 preserveAspectRatio="xMidYMid meet">
<metadata>
Created by potrace 1.15, written by Peter Selinger 2001-2017
</metadata>
<g transform="translate(0.000000,1170.000000) scale(0.100000,-0.100000)"
fill="#000000" stroke="none">
<path d="M6375 11694 c-11 -2 -45 -9 -75 -15 -30 -6 -96 -30 -146 -54 -152
-73 -285 -215 -348 -371 -80 -197 -70 -447 26 -637 35 -71 161 -274 425 -690
101 -158 319 -509 484 -780 645 -1052 1414 -2296 2404 -3887 1401 -2252 1949
-3135 2616 -4217 139 -227 268 -430 286 -450 32 -37 32 -35 -18 72 -304 657
-733 1609 -1367 3030 -689 1545 -737 1651 -1734 3825 -803 1749 -784 1706
-1053 2310 -602 1348 -687 1516 -851 1670 -145 135 -328 202 -546 199 -46 -1
-92 -3 -103 -5z"/>
<path d="M5648 10895 c-9 -16 -101 -208 -206 -425 -602 -1253 -2513 -5193
-4092 -8440 -722 -1485 -717 -1473 -679 -1430 66 74 1106 1648 3014 4560 1100
1678 1732 2639 2328 3537 l485 732 -92 153 c-51 84 -200 324 -331 533 -131
209 -262 426 -291 482 -45 89 -105 248 -116 308 -4 17 -6 16 -20 -10z"/>
<path d="M775 6403 l-80 -3 844 -847 c464 -466 867 -866 894 -890 50 -42 77
-54 77 -33 0 6 117 247 260 536 l261 525 -58 66 c-32 36 -193 198 -358 359
l-300 294 -730 -2 c-401 -1 -766 -3 -810 -5z"/>
<path d="M10195 6057 l-356 -353 34 -75 c19 -41 98 -211 177 -379 78 -168 180
-390 227 -495 47 -104 87 -192 89 -194 2 -2 23 11 47 30 47 37 1807 1803 1807
1813 0 3 -375 6 -834 6 l-834 0 -357 -353z"/>
<path d="M11426 5416 l-995 -994 61 -131 c35 -72 65 -131 68 -131 20 1 2230
2222 2230 2241 0 5 -83 9 -184 9 l-184 0 -996 -994z"/>
<path d="M641 5767 c825 -820 1616 -1597 1627 -1597 5 0 41 66 79 148 l70 147
-161 170 c-88 93 -519 528 -957 967 l-796 798 -249 0 -249 -1 636 -632z"/>
<path d="M6285 6375 c-594 -77 -1084 -260 -1604 -602 -156 -102 -401 -281
-401 -291 1 -18 384 -285 555 -388 405 -243 805 -393 1261 -474 259 -46 308
-52 389 -45 144 11 512 83 675 131 377 112 708 270 1080 517 156 103 349 241
350 250 1 26 -442 340 -635 449 -432 244 -878 391 -1380 453 -138 17 -155 17
-290 0z"/>
<path d="M9150 5021 c-8 -9 -503 -509 -1100 -1111 -596 -602 -1201 -1212
-1342 -1355 l-257 -260 -283 280 c-1609 1595 -2447 2419 -2453 2413 -11 -12
-645 -969 -645 -974 0 -4 21 -32 47 -63 113 -133 3293 -3330 3314 -3331 9 0
3332 3332 3356 3365 l21 31 -120 194 c-261 423 -510 820 -516 824 -4 2 -14 -4
-22 -13z"/>
<path d="M2955 3828 c-43 -50 -145 -212 -145 -230 0 -7 808 -820 1796 -1807
l1796 -1794 942 939 c998 996 1677 1670 2306 2289 212 208 386 384 388 391 2
7 -4 28 -13 46 -30 59 -119 198 -128 198 -5 0 -261 -251 -570 -558 -309 -307
-891 -883 -1294 -1280 -402 -398 -920 -914 -1151 -1146 -230 -233 -429 -429
-440 -435 -17 -9 -28 -9 -46 1 -13 7 -242 235 -508 505 -1548 1578 -2878 2923
-2890 2923 -3 0 -23 -19 -43 -42z"/>
</g>
</svg>
