<?xml version="1.0" standalone="no"?>
<!DOCTYPE svg PUBLIC "-//W3C//DTD SVG 20010904//EN"
 "http://www.w3.org/TR/2001/REC-SVG-20010904/DTD/svg10.dtd">
<svg version="1.0" xmlns="http://www.w3.org/2000/svg"
 width="1280.000000pt" height="1280.000000pt" viewBox="0 0 1280.000000 1280.000000"
 preserveAspectRatio="xMidYMid meet">
<metadata>
Created by potrace 1.15, written by Peter Selinger 2001-2017
</metadata>
<g transform="translate(0.000000,1280.000000) scale(0.100000,-0.100000)"
fill="#000000" stroke="none">
<path d="M4175 12763 c9 -21 46 -112 82 -203 514 -1297 865 -2663 1043 -4055
48 -382 111 -1088 97 -1101 -8 -8 -404 20 -662 47 -1566 160 -3049 521 -4484
1089 l-246 97 -3 -1118 c-1 -616 -1 -1622 0 -2238 l3 -1118 205 82 c1460 584
3046 966 4625 1114 300 28 554 45 562 38 8 -9 -21 -407 -53 -707 -160 -1541
-523 -3027 -1084 -4440 l-98 -245 1119 -3 c616 -1 1623 -1 2238 0 l1119 3 -54
134 c-535 1324 -901 2724 -1083 4151 -38 298 -81 735 -97 998 l-7 112 41 0
c49 0 357 -24 577 -45 1551 -149 3133 -533 4575 -1110 l205 -82 3 1118 c1 616
1 1622 0 2238 l-3 1118 -246 -97 c-1436 -569 -2928 -931 -4489 -1090 -190 -19
-583 -50 -636 -50 l-27 0 7 113 c69 1109 287 2365 607 3481 156 548 391 1229
576 1676 19 47 39 95 44 108 l9 22 -2240 0 -2240 0 15 -37z"/>
</g>
</svg>
