<?xml version="1.0" standalone="no"?>
<!DOCTYPE svg PUBLIC "-//W3C//DTD SVG 20010904//EN"
 "http://www.w3.org/TR/2001/REC-SVG-20010904/DTD/svg10.dtd">
<svg version="1.0" xmlns="http://www.w3.org/2000/svg"
 width="1280.000000pt" height="1280.000000pt" viewBox="0 0 1280.000000 1280.000000"
 preserveAspectRatio="xMidYMid meet">
<metadata>
Created by potrace 1.15, written by Peter Selinger 2001-2017
</metadata>
<g transform="translate(0.000000,1280.000000) scale(0.100000,-0.100000)"
fill="#000000" stroke="none">
<path d="M11036 12789 c-1543 -104 -3347 -912 -4866 -2178 -580 -484 -1209
-1133 -1623 -1673 l-82 -107 -830 0 c-473 -1 -879 -5 -945 -11 -162 -15 -314
-45 -467 -95 -477 -156 -891 -500 -1260 -1046 -151 -224 -257 -419 -619 -1141
l-344 -688 1432 0 1433 0 1493 -1493 1492 -1492 0 -1433 0 -1432 688 344 c719
361 873 444 1086 583 752 491 1132 1053 1196 1763 6 67 10 462 10 945 l1 830
92 70 c290 220 672 559 1007 895 653 652 1196 1346 1657 2115 608 1014 1013
2082 1152 3040 54 371 54 373 58 1323 l4 892 -823 -1 c-453 -1 -877 -6 -942
-10z m-1966 -2999 c101 -25 249 -93 334 -154 71 -51 198 -180 245 -249 53 -78
119 -226 143 -323 31 -125 31 -362 0 -477 -155 -567 -727 -881 -1275 -700
-142 47 -259 117 -369 222 -180 170 -285 383 -307 623 -49 514 300 977 807
1073 106 20 310 13 422 -15z"/>
<path d="M2104 3598 c-311 -315 -361 -372 -477 -548 -282 -429 -535 -1128
-701 -1935 -48 -237 -48 -231 -11 -227 81 8 352 58 533 98 742 165 1388 441
1772 758 25 21 179 171 343 334 l297 297 -742 742 c-409 409 -745 743 -748
743 -3 0 -123 -118 -266 -262z"/>
</g>
</svg>
