<?xml version="1.0" standalone="no"?>
<!DOCTYPE svg PUBLIC "-//W3C//DTD SVG 20010904//EN"
 "http://www.w3.org/TR/2001/REC-SVG-20010904/DTD/svg10.dtd">
<svg version="1.0" xmlns="http://www.w3.org/2000/svg"
 width="1115.000000pt" height="1280.000000pt" viewBox="0 0 1115.000000 1280.000000"
 preserveAspectRatio="xMidYMid meet">
<metadata>
Created by potrace 1.15, written by Peter Selinger 2001-2017
</metadata>
<g transform="translate(0.000000,1280.000000) scale(0.100000,-0.100000)"
fill="#000000" stroke="none">
<path d="M5505 12789 c-48 -13 -115 -78 -141 -133 -23 -50 -24 -58 -24 -339
l0 -288 -42 30 c-102 73 -238 38 -289 -74 -23 -50 -23 -99 -1 -148 10 -23 82
-103 175 -196 l157 -157 0 -349 0 -349 -277 275 c-232 229 -285 277 -319 287
-50 15 -59 15 -107 1 -43 -12 -101 -59 -123 -100 -18 -36 -18 -120 0 -162 8
-18 192 -210 420 -437 l406 -405 0 -350 0 -350 -522 522 c-288 287 -536 527
-551 532 -46 18 -124 13 -167 -9 -80 -41 -119 -147 -86 -233 13 -34 146 -172
671 -697 l655 -655 0 -342 c0 -189 -3 -343 -8 -343 -4 0 -347 340 -762 756
-415 415 -768 763 -785 771 -16 9 -46 19 -65 22 -35 6 -35 7 -43 71 -24 195
26 442 112 557 l39 51 -31 -9 c-126 -36 -353 32 -553 167 -101 68 -246 202
-309 285 -25 34 -45 59 -45 57 0 -1 13 -35 29 -74 67 -164 95 -336 88 -539 -7
-208 -41 -324 -124 -416 l-36 -40 29 8 c16 4 67 7 114 6 150 -3 305 -67 512
-214 5 -3 2 -22 -7 -42 -8 -20 -15 -49 -15 -65 0 -15 63 -262 139 -547 77
-286 201 -751 276 -1033 76 -282 136 -515 133 -517 -3 -3 -137 71 -299 164
l-294 169 -41 154 c-23 84 -130 484 -239 888 -123 462 -204 746 -217 766 -39
57 -83 79 -159 79 -60 0 -71 -3 -105 -31 -81 -65 -100 -127 -71 -232 119 -434
357 -1336 353 -1339 -5 -5 -560 311 -583 331 -7 7 -78 257 -159 556 -98 366
-153 557 -169 581 -67 104 -243 102 -312 -2 -48 -73 -45 -97 62 -493 53 -197
95 -360 93 -361 -2 -2 -133 73 -293 166 -159 92 -293 170 -297 171 -4 2 -34
101 -66 220 -63 235 -81 271 -148 303 -82 39 -180 15 -238 -58 -28 -35 -31
-45 -31 -112 0 -62 -2 -72 -15 -65 -8 4 -112 64 -230 132 -118 68 -230 130
-249 136 -19 7 -60 12 -91 12 -209 0 -306 -247 -156 -394 23 -23 121 -86 217
-141 95 -54 201 -114 233 -133 l59 -35 -38 -13 c-113 -39 -163 -172 -103 -275
35 -59 95 -93 163 -93 28 1 133 24 235 52 102 29 193 52 204 52 18 0 567 -310
596 -336 12 -12 12 -14 0 -14 -30 0 -697 -183 -732 -201 -119 -60 -129 -238
-18 -318 67 -48 102 -48 290 3 309 83 915 245 932 248 19 4 610 -334 600 -343
-4 -4 -288 -82 -632 -173 -794 -212 -778 -207 -817 -248 -17 -18 -37 -46 -42
-61 -15 -39 -14 -111 3 -150 29 -71 129 -126 199 -112 18 4 122 31 232 61
1045 281 1513 405 1531 406 24 2 607 -333 597 -343 -5 -4 -231 -66 -503 -139
-1320 -352 -1537 -411 -1564 -422 -17 -7 -46 -29 -66 -50 l-37 -37 -63 30
c-207 97 -386 263 -425 393 -11 34 -14 38 -20 21 -66 -185 -253 -346 -529
-455 -90 -35 -265 -80 -313 -80 -18 0 -33 -4 -33 -10 0 -5 13 -10 29 -10 44 0
162 -27 249 -56 302 -101 531 -285 597 -479 5 -16 10 -10 24 31 43 129 217
287 421 383 l63 30 37 -37 c20 -21 49 -43 66 -50 25 -11 537 -148 1719 -463
187 -50 343 -94 348 -98 9 -9 -572 -345 -594 -344 -9 1 -160 40 -335 87 -1008
269 -1402 375 -1431 381 -67 14 -163 -37 -199 -106 -18 -35 -18 -120 0 -162
24 -57 67 -87 168 -117 51 -15 371 -101 710 -191 340 -90 618 -166 618 -169
-1 -3 -134 -82 -298 -176 l-297 -171 -140 37 c-77 21 -328 88 -558 150 -461
123 -462 123 -537 68 -118 -85 -100 -264 33 -323 29 -12 204 -62 389 -111 250
-66 334 -92 325 -100 -25 -22 -575 -334 -590 -334 -9 0 -100 23 -204 51 -217
60 -269 64 -331 29 -141 -80 -121 -292 33 -344 l37 -13 -233 -134 c-136 -78
-251 -151 -275 -175 -150 -148 -53 -394 156 -394 31 0 72 5 91 12 19 6 128 66
244 133 116 67 219 127 230 132 19 11 20 8 20 -62 0 -67 3 -77 31 -112 60 -75
158 -97 242 -54 65 33 85 75 146 306 31 115 59 211 63 213 5 2 139 79 298 171
160 93 291 167 293 166 2 -1 -40 -164 -93 -361 -107 -396 -110 -420 -62 -493
69 -104 245 -106 312 -2 16 24 70 211 165 566 77 292 145 539 149 551 9 21
587 361 597 351 4 -3 -231 -896 -353 -1339 -29 -105 -10 -167 71 -232 34 -28
45 -31 105 -31 55 0 74 5 103 24 71 49 36 -69 504 1684 l48 178 294 170 c162
93 297 167 300 165 3 -3 -118 -464 -268 -1023 -150 -560 -275 -1036 -277
-1058 -3 -25 1 -56 11 -79 9 -21 16 -39 16 -41 0 -7 -148 -99 -209 -129 -117
-60 -215 -87 -311 -89 -47 -1 -98 2 -114 6 l-29 8 37 -42 c81 -89 116 -208
123 -414 7 -203 -21 -375 -88 -539 -16 -39 -29 -73 -29 -74 0 -2 20 23 45 56
64 85 210 221 308 286 203 135 428 203 554 167 l31 -9 -39 51 c-42 56 -83 158
-99 246 -15 83 -22 239 -13 311 8 64 8 65 43 71 19 3 49 13 65 22 17 8 370
356 785 771 415 416 758 756 762 756 5 0 8 -154 8 -343 l0 -342 -651 -650
c-442 -441 -657 -663 -670 -690 -58 -124 32 -265 168 -265 30 0 68 7 86 16 18
9 265 248 550 532 l517 517 0 -350 0 -350 -406 -405 c-228 -227 -412 -419
-420 -437 -18 -42 -18 -126 0 -162 41 -79 133 -121 220 -100 49 11 64 25 329
287 l277 276 0 -344 0 -344 -155 -157 c-196 -199 -223 -252 -176 -354 51 -112
187 -147 288 -75 l42 30 3 -297 c3 -285 4 -300 25 -339 41 -77 130 -134 208
-134 78 0 167 57 208 134 21 39 22 54 25 338 l3 297 40 -29 c101 -72 240 -37
290 75 47 103 20 156 -176 354 l-155 156 0 345 0 344 278 -276 c264 -262 279
-276 328 -287 87 -21 179 21 220 100 18 36 18 120 0 162 -8 18 -192 210 -420
437 l-406 405 0 350 0 350 518 -517 c284 -284 531 -523 549 -532 18 -9 56 -16
86 -16 136 0 226 141 168 265 -13 27 -228 249 -670 690 l-651 650 0 342 c0
189 3 343 8 343 4 0 347 -340 762 -756 415 -415 769 -763 785 -771 17 -9 46
-19 65 -22 35 -6 35 -7 43 -71 24 -195 -26 -442 -112 -557 l-39 -51 31 9 c214
61 647 -167 862 -453 25 -33 45 -58 45 -56 0 1 -13 35 -28 73 -70 171 -97 335
-89 543 7 203 42 322 123 411 l37 42 -29 -8 c-16 -4 -67 -7 -114 -6 -96 2
-194 29 -311 89 -61 30 -209 122 -209 129 0 2 7 19 15 38 8 20 15 49 15 65 0
15 -63 262 -139 547 -77 286 -201 751 -276 1033 -76 282 -136 515 -133 518 3
2 138 -72 299 -165 l294 -170 238 -888 c151 -562 246 -899 259 -919 82 -121
261 -106 328 27 27 53 25 89 -14 236 -249 923 -336 1256 -332 1260 10 10 588
-330 597 -351 4 -12 72 -259 149 -551 95 -355 149 -542 165 -566 67 -104 243
-102 312 2 48 73 45 97 -62 493 -53 197 -95 359 -93 361 2 1 134 -73 293 -166
160 -92 293 -169 297 -171 4 -2 33 -97 64 -213 31 -115 65 -225 76 -242 43
-71 131 -103 215 -78 87 26 138 102 131 196 -4 56 -3 57 16 47 12 -6 116 -66
231 -133 116 -67 225 -127 244 -133 19 -7 60 -12 91 -12 209 0 306 246 156
394 -24 24 -139 97 -275 175 l-233 134 37 13 c77 26 128 98 128 180 0 106 -84
189 -188 187 -27 0 -135 -23 -238 -52 -104 -28 -195 -51 -204 -51 -14 0 -539
298 -586 332 -15 11 32 26 320 102 186 49 361 99 390 111 133 59 151 238 33
323 -75 55 -76 55 -537 -68 -230 -62 -481 -129 -558 -150 l-140 -37 -297 171
c-164 94 -297 173 -298 176 0 3 278 79 618 169 339 90 659 176 710 191 101 30
144 60 168 117 18 42 18 127 0 162 -36 69 -132 120 -199 106 -29 -6 -423 -112
-1431 -381 -175 -47 -326 -86 -335 -87 -22 -1 -603 335 -594 344 5 4 161 48
348 98 187 49 585 156 885 236 300 81 606 162 680 182 154 40 183 53 226 100
l31 34 86 -45 c215 -112 355 -243 398 -370 14 -41 19 -47 24 -31 53 155 203
300 419 405 149 72 339 130 427 130 16 0 29 5 29 10 0 6 -15 10 -32 10 -49 0
-224 45 -314 80 -276 109 -463 270 -529 455 -6 17 -9 13 -20 -21 -39 -128
-185 -267 -401 -380 l-86 -45 -37 39 c-20 21 -50 43 -67 50 -27 11 -361 101
-1569 423 -269 72 -493 134 -498 138 -4 4 126 84 288 178 l296 171 162 -43
c89 -23 443 -118 787 -210 907 -244 847 -229 898 -216 51 14 110 64 128 108
17 39 18 111 3 150 -5 15 -25 43 -42 61 -39 41 -23 36 -817 248 -344 91 -628
169 -632 173 -10 9 581 347 600 343 17 -3 623 -165 932 -248 188 -51 223 -51
290 -3 111 80 101 258 -18 318 -35 18 -702 201 -732 201 -12 0 -12 2 0 14 29
26 578 336 596 336 11 0 102 -23 204 -52 216 -60 266 -64 331 -26 138 81 116
290 -36 342 l-38 13 59 35 c32 19 138 79 233 133 96 55 194 118 217 141 150
147 53 394 -156 394 -31 0 -72 -5 -91 -12 -18 -6 -129 -67 -247 -135 -118 -68
-222 -128 -231 -133 -15 -8 -17 -3 -13 49 7 96 -44 171 -135 197 -83 24 -168
-7 -211 -79 -11 -17 -45 -126 -76 -242 -31 -115 -60 -211 -64 -213 -4 -2 -137
-79 -297 -171 -159 -93 -291 -167 -293 -166 -2 2 40 164 93 361 107 396 110
420 62 493 -69 104 -245 106 -312 2 -16 -24 -71 -215 -169 -581 -81 -299 -152
-549 -159 -556 -23 -20 -578 -336 -583 -331 -3 3 78 316 180 696 103 381 186
708 186 727 0 44 -30 104 -69 137 -87 73 -216 55 -279 -37 -13 -20 -107 -353
-259 -919 l-237 -888 -76 -43 c-371 -216 -514 -296 -518 -291 -3 2 109 429
248 947 331 1237 307 1139 294 1185 -6 21 -14 45 -18 54 -13 30 201 155 351
205 82 27 218 37 277 21 l30 -8 -33 33 c-39 40 -85 131 -107 213 -22 80 -30
328 -15 437 15 105 46 224 83 313 15 39 28 72 28 73 0 2 -20 -23 -45 -57 -63
-83 -208 -217 -309 -285 -200 -135 -427 -203 -553 -167 l-31 9 35 -46 c63 -82
96 -178 114 -333 13 -113 4 -288 -14 -294 -7 -2 -30 -6 -52 -10 -37 -6 -99
-65 -810 -776 -424 -423 -774 -769 -778 -769 -4 0 -7 154 -7 343 l0 342 655
655 c525 525 658 663 671 697 33 86 -6 192 -86 233 -43 22 -121 27 -167 9 -15
-5 -263 -245 -550 -532 l-523 -522 0 350 0 350 406 405 c228 227 412 419 420
437 18 42 18 126 0 162 -22 41 -80 88 -123 100 -48 14 -57 14 -107 -1 -34 -10
-87 -58 -318 -287 l-278 -275 0 349 0 349 158 158 c89 90 164 174 174 195 22
49 22 98 -1 148 -50 112 -189 147 -290 75 l-40 -29 -3 297 c-3 284 -4 299 -25
338 -28 52 -95 111 -142 124 -43 12 -95 12 -136 -1z m-2185 -2248 c77 -41 242
-101 278 -101 12 0 23 -3 25 -7 3 -5 -7 -51 -21 -103 -23 -86 -26 -114 -26
-285 l-1 -190 -80 54 c-130 88 -245 137 -432 187 -9 2 -9 11 2 37 29 70 48
210 48 357 0 80 -4 156 -8 169 -6 20 3 16 67 -27 40 -28 107 -68 148 -91z
m4719 44 c-14 -143 9 -361 47 -453 10 -25 11 -34 1 -36 -187 -50 -302 -99
-432 -187 l-80 -54 0 185 c-1 163 -3 196 -25 280 -13 52 -25 99 -25 104 0 4
32 16 70 26 129 33 281 106 404 195 25 19 46 33 47 32 1 -1 -2 -42 -7 -92z
m-2701 -3296 l-3 -476 -403 232 c-222 128 -409 238 -417 246 -7 8 -118 406
-245 884 -128 479 -235 877 -238 885 -2 8 291 -280 652 -640 l656 -655 -2
-476z m1545 896 c-129 -484 -241 -886 -248 -894 -8 -8 -195 -118 -417 -246
l-403 -232 -3 476 -2 476 652 652 c359 359 653 651 654 650 2 -1 -103 -398
-233 -882z m-2199 -1544 c223 -129 406 -237 406 -241 0 -3 -184 -113 -410
-243 l-410 -236 -767 205 c-423 113 -821 220 -885 237 -65 17 -118 34 -118 37
0 3 123 38 273 78 149 40 544 147 877 237 333 89 610 162 616 162 7 -1 194
-107 418 -236z m2417 179 c123 -33 442 -118 709 -190 267 -71 565 -151 663
-177 97 -26 177 -50 177 -54 0 -4 -10 -9 -22 -11 -25 -6 -1269 -338 -1565
-419 l-182 -49 -411 237 c-225 130 -410 240 -410 243 0 4 606 360 816 479 1 1
102 -26 225 -59z m-5921 -156 c76 -77 202 -164 318 -219 45 -22 82 -42 82 -45
0 -3 -35 -22 -79 -42 -110 -52 -246 -145 -323 -223 l-66 -66 -69 68 c-82 81
-195 159 -315 216 -48 23 -87 44 -87 47 0 3 39 24 87 47 121 58 234 136 311
214 37 37 68 67 71 68 3 0 34 -29 70 -65z m8929 -3 c82 -81 191 -156 313 -214
48 -23 87 -44 87 -47 0 -3 -39 -24 -87 -47 -120 -57 -233 -135 -315 -216 l-69
-68 -66 66 c-77 78 -213 171 -323 223 -44 20 -79 39 -79 42 0 3 37 23 83 45
116 55 241 142 317 219 36 36 66 66 67 66 1 0 34 -31 72 -69z m-5421 -2278
c-359 -359 -653 -651 -654 -650 -6 6 475 1782 482 1784 5 2 191 109 414 237
l405 234 3 -476 2 -477 -652 -652z m1534 1371 c216 -125 400 -234 409 -243 11
-10 105 -347 248 -881 128 -476 234 -874 237 -885 3 -11 -289 275 -650 635
l-656 655 0 472 c0 288 4 473 9 473 6 0 187 -102 403 -226z m-2646 -2996 c0
-174 3 -202 26 -288 14 -52 24 -98 21 -102 -2 -5 -13 -8 -25 -8 -36 0 -201
-60 -278 -101 -41 -23 -108 -63 -148 -91 -65 -43 -73 -47 -66 -26 4 12 7 91 7
173 0 151 -18 278 -49 353 -10 25 -11 34 -1 36 188 50 321 108 442 194 39 28
70 51 70 51 0 1 0 -86 1 -191z m4249 36 c75 -35 139 -58 262 -90 10 -2 9 -11
-1 -36 -30 -72 -49 -203 -49 -343 0 -77 3 -155 7 -173 l8 -34 -74 50 c-40 28
-107 68 -148 91 -77 41 -242 101 -278 101 -12 0 -23 3 -25 8 -3 4 7 50 21 102
23 86 26 114 26 285 l1 190 80 -54 c44 -30 121 -73 170 -97z"/>
</g>
</svg>
