<?xml version="1.0" standalone="no"?>
<!DOCTYPE svg PUBLIC "-//W3C//DTD SVG 20010904//EN"
 "http://www.w3.org/TR/2001/REC-SVG-20010904/DTD/svg10.dtd">
<svg version="1.0" xmlns="http://www.w3.org/2000/svg"
 width="1280.000000pt" height="1189.000000pt" viewBox="0 0 1280.000000 1189.000000"
 preserveAspectRatio="xMidYMid meet">
<metadata>
Created by potrace 1.15, written by Peter Selinger 2001-2017
</metadata>
<g transform="translate(0.000000,1189.000000) scale(0.100000,-0.100000)"
fill="#000000" stroke="none">
<path d="M7011 11753 c-31 -30 -86 -160 -269 -638 -164 -427 -265 -662 -411
-954 -82 -163 -72 -115 -150 -691 -42 -307 -268 -2045 -278 -2138 -6 -53 -6
-54 -35 -48 -15 3 -81 13 -146 21 -202 27 -178 11 -228 155 -24 69 -129 368
-233 665 -181 516 -297 864 -337 1005 -11 39 -48 115 -93 190 -40 69 -157 280
-259 470 -216 405 -341 618 -397 679 -22 24 -151 142 -287 262 -136 120 -254
229 -262 241 -9 12 -19 19 -22 15 -28 -27 150 -332 342 -587 58 -78 88 -132
153 -278 211 -476 389 -796 591 -1062 51 -66 60 -87 82 -175 14 -55 71 -278
126 -495 104 -404 252 -1021 252 -1046 0 -11 -16 -14 -63 -14 -80 0 -268 -25
-350 -46 -34 -8 -100 -33 -146 -55 -46 -21 -87 -39 -90 -39 -3 0 -12 19 -19
43 -23 74 -72 136 -186 237 -122 107 -160 150 -349 381 -122 150 -129 157
-170 162 -115 16 -374 130 -630 278 -78 45 -297 178 -487 294 -190 117 -381
231 -425 254 l-80 41 -795 65 c-437 36 -808 67 -824 70 l-30 5 25 -26 c29 -31
93 -69 134 -79 17 -4 77 -11 135 -15 148 -12 385 -42 745 -94 171 -25 373 -52
449 -61 l139 -16 96 -56 c222 -130 477 -309 866 -606 120 -92 208 -169 298
-263 147 -153 306 -298 635 -579 127 -109 232 -201 231 -204 0 -3 -18 -21 -39
-39 -47 -40 -24 -50 -296 126 -412 267 -622 370 -814 401 -134 22 -128 24
-310 -110 -758 -561 -1274 -866 -1910 -1129 -162 -67 -469 -182 -524 -196 -16
-4 -31 -17 -37 -31 -32 -84 -82 -768 -109 -1483 -12 -333 -13 -863 -1 -856 18
11 82 116 97 158 23 65 42 225 49 403 3 88 19 336 36 550 17 215 34 475 37
580 l7 190 80 34 c505 214 893 445 1615 961 379 271 611 431 807 556 l162 103
93 -50 c121 -66 245 -149 443 -296 134 -99 205 -151 269 -195 5 -3 -32 -53
-81 -110 -234 -267 -403 -609 -469 -948 -12 -62 -16 -135 -15 -271 3 -609 146
-1091 395 -1334 137 -133 281 -194 480 -202 188 -9 369 24 586 104 203 75 587
276 805 423 194 131 437 414 626 731 l71 118 67 -25 c36 -14 89 -34 118 -45
l52 -20 -58 -167 c-69 -197 -78 -220 -254 -682 -258 -678 -332 -941 -298
-1066 10 -38 7 -52 -58 -230 -98 -269 -122 -332 -417 -1077 -347 -876 -501
-1283 -490 -1294 19 -19 250 448 541 1092 233 518 509 1156 613 1417 26 65 52
118 58 118 46 0 118 180 178 445 48 215 87 421 196 1050 27 160 61 344 75 409
14 66 24 120 23 121 -2 1 -59 21 -128 45 -69 24 -129 46 -133 50 -12 10 20 70
37 70 8 0 94 -26 192 -58 99 -32 239 -76 312 -97 l134 -40 83 -125 c125 -188
201 -328 472 -865 310 -616 382 -735 446 -735 19 0 32 -11 55 -48 131 -205
277 -626 368 -1057 27 -131 29 -102 9 106 -42 414 -114 718 -251 1052 -42 102
-43 109 -28 132 32 49 -11 131 -288 550 -391 592 -542 889 -640 1260 l-14 50
-84 17 c-47 10 -215 32 -375 50 -159 18 -292 34 -294 35 -3 2 2 17 10 34 13
27 30 37 129 74 63 24 414 157 780 295 366 138 692 261 725 274 l60 24 425
-89 c1015 -212 1558 -347 1970 -492 264 -93 241 -80 373 -222 229 -246 380
-457 500 -694 37 -74 67 -129 67 -121 0 8 -11 58 -24 110 -65 253 -174 476
-384 785 -152 224 -187 264 -276 326 l-81 57 -270 51 c-871 165 -1353 313
-1770 544 l-109 60 -211 -7 -210 -6 -605 -184 c-804 -245 -907 -276 -914 -276
-3 0 -6 13 -6 29 0 20 6 30 19 34 11 2 31 23 45 45 14 23 171 227 349 454 562
718 944 1221 1176 1548 69 96 128 179 132 183 4 5 62 20 130 33 273 53 590
151 875 270 220 91 477 218 894 439 397 210 748 386 918 458 l113 48 292 -279
c627 -598 811 -771 815 -767 17 17 -147 238 -325 440 -233 265 -715 758 -755
773 -11 5 -222 -83 -721 -299 -1210 -525 -1579 -655 -2347 -830 -42 -9 -48
-15 -98 -95 -199 -315 -662 -913 -1066 -1374 -155 -178 -499 -550 -508 -550
-4 0 -20 24 -34 53 -77 153 -227 300 -363 357 -28 11 -31 16 -27 44 3 17 8 65
11 106 3 41 28 354 55 695 28 341 68 845 90 1120 22 275 47 578 56 674 l15
174 76 126 c183 300 318 621 433 1027 27 94 52 189 56 210 l7 39 8 -30 c4 -16
44 -275 89 -575 44 -300 83 -556 87 -570 19 -77 47 342 40 600 -9 290 -39 550
-99 835 -29 143 -71 179 -137 118z"/>
</g>
</svg>
