<?xml version="1.0" standalone="no"?>
<!DOCTYPE svg PUBLIC "-//W3C//DTD SVG 20010904//EN"
 "http://www.w3.org/TR/2001/REC-SVG-20010904/DTD/svg10.dtd">
<svg version="1.0" xmlns="http://www.w3.org/2000/svg"
 width="1280.000000pt" height="1280.000000pt" viewBox="0 0 1280.000000 1280.000000"
 preserveAspectRatio="xMidYMid meet">
<metadata>
Created by potrace 1.15, written by Peter Selinger 2001-2017
</metadata>
<g transform="translate(0.000000,1280.000000) scale(0.100000,-0.100000)"
fill="#000000" stroke="none">
<path d="M8983 10872 c45 -49 59 -71 36 -56 -27 16 19 -45 122 -163 155 -176
215 -253 331 -426 153 -227 233 -317 426 -480 108 -92 167 -131 186 -124 8 3
42 -14 77 -39 34 -24 64 -42 65 -41 2 2 -19 59 -46 128 -27 68 -77 210 -111
314 -98 301 -150 386 -329 527 -133 106 -505 297 -790 406 -8 3 6 -18 33 -46z"/>
<path d="M3495 10810 c-66 -26 -123 -46 -127 -44 -10 7 -231 -95 -340 -157
-271 -152 -395 -265 -483 -439 -29 -58 -165 -452 -185 -539 -9 -36 -3 -64 11
-55 5 3 1 -17 -10 -45 -10 -28 -17 -51 -14 -51 11 0 234 173 338 262 144 124
211 200 346 399 173 255 238 335 466 577 74 78 131 142 126 141 -4 -1 -62 -23
-128 -49z"/>
<path d="M10022 10370 c39 -56 57 -90 48 -90 -21 0 -7 -30 75 -170 147 -252
189 -371 228 -660 25 -182 35 -260 31 -260 -1 0 -30 37 -65 83 -96 125 -217
238 -342 320 -62 41 -150 99 -197 130 -113 73 -196 150 -271 250 l-62 82 5
-69 c4 -39 2 -63 -2 -55 -7 10 -12 6 -19 -14 -23 -59 39 -263 120 -400 82
-139 202 -238 531 -439 197 -120 316 -237 428 -419 61 -99 83 -125 98 -115 8
5 48 -72 65 -124 7 -23 16 57 27 240 38 647 9 962 -108 1195 -92 185 -279 357
-547 506 -57 32 -59 32 -43 9z"/>
<path d="M2515 10307 c-22 -13 -66 -37 -98 -55 -33 -19 -56 -28 -52 -22 4 6
-8 4 -26 -6 -110 -56 -263 -188 -345 -298 -89 -118 -148 -269 -181 -462 -15
-92 -18 -162 -17 -449 1 -346 11 -478 39 -518 14 -21 15 -21 16 -2 2 43 17
-31 18 -89 1 -67 9 -65 36 9 51 142 154 305 259 409 82 82 167 144 343 251
180 110 281 184 350 257 129 137 206 319 243 571 6 43 10 80 8 82 -2 2 -23
-22 -48 -53 -28 -34 -53 -56 -67 -57 -12 -1 -56 -34 -99 -74 -70 -65 -135
-112 -374 -266 -41 -26 -113 -84 -159 -129 -79 -77 -214 -229 -240 -271 -11
-18 -11 -17 -6 10 3 17 18 122 35 235 16 113 36 230 44 261 42 157 127 328
271 541 52 78 94 142 92 144 -1 2 -21 -7 -42 -19z"/>
<path d="M10800 9679 c0 -2 11 -31 25 -64 27 -66 31 -90 14 -79 -13 7 -10 -49
11 -241 11 -110 4 -250 -30 -530 -19 -159 -34 -327 -46 -522 l-6 -102 -48 97
c-27 53 -58 110 -69 126 -43 64 -130 140 -256 226 -220 150 -312 248 -415 441
l-50 94 6 -89 c5 -60 4 -87 -3 -83 -6 4 -13 -5 -16 -20 -13 -69 46 -280 120
-428 66 -132 134 -229 297 -425 228 -272 316 -415 398 -645 41 -115 61 -155
79 -155 6 0 7 5 3 12 -4 6 -3 8 3 5 6 -4 19 -39 29 -79 9 -40 19 -68 21 -63
11 37 239 955 263 1060 138 622 88 959 -195 1320 -56 72 -135 156 -135 144z"/>
<path d="M1695 9548 c-42 -46 -74 -77 -70 -70 14 27 -32 -6 -69 -49 -107 -126
-192 -324 -221 -519 -26 -167 -17 -332 31 -600 28 -156 232 -982 257 -1043 16
-36 36 -50 38 -24 1 18 16 -20 35 -88 l17 -60 34 130 c82 312 173 475 449 805
212 254 299 394 364 588 30 92 74 295 84 397 l7 60 -38 -72 c-31 -58 -100
-161 -78 -115 3 6 2 12 -4 12 -5 0 -48 -44 -95 -99 -100 -116 -151 -160 -306
-266 -165 -113 -241 -193 -318 -335 l-62 -115 0 75 c0 118 -18 337 -47 565
-20 160 -27 255 -27 400 0 175 2 198 27 288 14 54 38 124 52 154 14 31 24 58
21 60 -2 2 -38 -34 -81 -79z"/>
<path d="M11345 8273 c-12 -68 -28 -114 -36 -102 -15 25 -41 -44 -94 -258 -69
-277 -125 -441 -221 -646 -42 -89 -98 -220 -125 -292 -27 -71 -54 -138 -59
-147 -6 -10 -10 -28 -11 -40 0 -13 -9 24 -19 82 -32 188 -75 322 -169 522 -54
116 -202 389 -315 582 l-76 130 0 -73 c0 -40 -4 -70 -9 -67 -51 32 -4 -434 80
-775 16 -67 61 -220 99 -338 39 -119 79 -258 90 -309 28 -128 41 -302 33 -462
-4 -100 -3 -142 7 -159 10 -19 14 -21 22 -10 6 9 8 -3 6 -39 -2 -28 -1 -52 2
-52 3 0 62 62 132 138 454 492 679 868 770 1285 20 90 22 131 22 337 0 182 -4
257 -18 330 -25 139 -91 400 -101 400 -1 0 -6 -17 -10 -37z"/>
<path d="M1218 8244 c-3 -5 -14 -38 -24 -73 -10 -36 -20 -59 -22 -52 -8 25
-43 -23 -62 -88 -51 -172 -79 -460 -62 -646 43 -466 243 -856 711 -1389 98
-111 160 -164 171 -145 4 5 28 -13 55 -42 l48 -51 -6 68 c-16 167 -19 403 -8
504 17 144 32 202 112 447 107 328 158 554 194 868 18 160 36 387 31 392 -2 2
-22 -28 -45 -66 -27 -46 -46 -68 -55 -65 -28 11 -104 -109 -264 -416 -133
-255 -200 -435 -243 -649 l-22 -113 -42 118 c-46 131 -71 191 -169 401 -105
226 -182 476 -260 852 -18 85 -35 151 -38 145z"/>
<path d="M10226 6803 c-17 -36 -30 -52 -35 -45 -10 16 -35 -11 -56 -61 -50
-120 -83 -337 -115 -757 -39 -503 -82 -766 -180 -1090 -16 -52 -29 -104 -30
-115 -4 -37 0 -56 10 -50 13 8 13 -7 0 -41 -6 -15 -9 -29 -6 -31 5 -5 301 176
453 278 596 398 904 724 1063 1125 69 172 110 401 110 614 l0 125 -41 -74
c-26 -46 -44 -69 -49 -62 -11 19 -44 -27 -133 -180 -159 -274 -278 -415 -527
-624 -103 -86 -172 -153 -237 -233 -51 -62 -93 -110 -93 -107 0 3 7 49 17 103
22 133 22 413 -1 602 -15 125 -54 367 -98 613 -7 37 -15 67 -18 67 -3 0 -18
-26 -34 -57z"/>
<path d="M2301 6748 c-8 -35 -16 -57 -18 -50 -8 22 -24 13 -38 -22 -16 -39
-53 -246 -87 -483 -25 -177 -30 -513 -11 -678 5 -49 9 -91 8 -92 -1 -2 -20 23
-42 55 -67 94 -158 187 -297 301 -280 232 -408 400 -636 843 -39 75 -46 71
-50 -27 -1 -34 -4 -44 -9 -31 -6 17 -9 15 -21 -13 -17 -42 -8 -183 20 -321 90
-442 326 -780 809 -1158 108 -85 478 -335 608 -411 40 -24 77 -40 83 -36 6 3
42 -12 80 -34 39 -22 70 -39 70 -37 0 2 -12 35 -26 72 -128 340 -185 630 -229
1159 -47 567 -61 670 -114 833 -26 78 -76 192 -84 192 -2 0 -9 -28 -16 -62z"/>
<path d="M9851 5749 c-35 -44 -65 -78 -68 -75 -31 31 -223 -249 -349 -508 -35
-72 -81 -186 -103 -255 -22 -69 -60 -191 -85 -271 -69 -222 -157 -391 -322
-616 -97 -133 -106 -149 -102 -172 2 -10 -5 -30 -15 -45 -10 -15 -15 -27 -12
-27 3 0 92 20 197 46 374 88 725 186 948 263 614 212 848 406 979 809 28 84
141 502 141 519 0 4 -27 -33 -61 -83 -65 -95 -86 -121 -76 -92 13 38 -36 -9
-127 -122 -109 -133 -245 -268 -331 -327 -78 -53 -192 -109 -339 -167 -170
-68 -286 -124 -404 -194 -57 -34 -106 -62 -110 -62 -3 0 -14 -8 -25 -17 -12
-11 0 20 31 82 86 173 100 229 147 615 38 307 77 517 124 675 16 55 28 101 27
102 -2 2 -31 -33 -65 -78z"/>
<path d="M2660 5777 c0 -4 9 -41 21 -83 11 -41 18 -78 15 -81 -3 -4 -6 -1 -6
6 0 7 -4 9 -10 6 -15 -10 -12 -44 19 -213 16 -86 41 -256 56 -377 42 -354 57
-427 118 -580 67 -169 71 -162 -52 -88 -146 89 -191 111 -427 208 -267 109
-345 158 -500 310 -120 119 -211 233 -318 398 -30 48 -57 87 -59 87 -2 0 7
-42 20 -92 12 -51 21 -97 19 -103 -3 -5 -5 -4 -5 3 -1 6 -5 12 -11 12 -37 0
42 -313 126 -497 91 -200 240 -347 485 -477 92 -49 328 -147 399 -166 25 -7
54 -16 65 -20 11 -4 47 -16 80 -25 33 -9 71 -21 85 -25 173 -61 982 -262 996
-247 2 2 -25 39 -59 83 -151 192 -250 341 -325 487 -62 119 -91 196 -137 357
-90 316 -150 459 -283 674 -87 141 -312 461 -312 443z"/>
<path d="M9125 4704 c-97 -68 -120 -81 -110 -64 24 38 -210 -129 -410 -293
-55 -45 -190 -170 -300 -277 -194 -190 -204 -198 -310 -252 -61 -31 -187 -87
-280 -124 -94 -37 -172 -71 -175 -75 -3 -5 -27 -18 -53 -29 -26 -12 -47 -23
-47 -25 0 -3 15 -12 33 -20 17 -8 24 -13 14 -10 -12 3 -17 1 -15 -7 3 -7 16
-16 29 -20 41 -11 203 -42 226 -42 11 -1 19 -5 15 -10 -3 -5 1 -7 10 -4 8 3
75 -9 149 -28 777 -195 1286 -207 1622 -38 141 71 338 228 476 380 30 32 113
122 185 199 l131 139 -80 -55 c-95 -66 -259 -164 -250 -149 10 16 3 13 -127
-53 -68 -35 -157 -76 -198 -92 -41 -15 -79 -31 -85 -35 -19 -13 -93 -30 -191
-45 -70 -11 -183 -15 -389 -15 -159 0 -347 -5 -417 -11 -100 -9 -131 -9 -142
0 -8 7 -21 10 -28 6 -17 -8 9 10 100 70 94 60 181 146 248 245 28 41 111 185
184 319 116 216 196 354 254 444 10 15 17 27 15 27 -2 0 -40 -25 -84 -56z"/>
<path d="M3393 4663 c41 -65 51 -87 36 -78 -40 25 30 -121 239 -500 104 -189
188 -291 340 -415 23 -19 45 -46 47 -58 4 -24 4 -24 -68 -16 -40 4 -191 7
-337 6 -281 -1 -464 10 -570 34 -218 49 -473 173 -730 354 -99 70 -101 69 -25
-11 93 -98 144 -156 123 -140 -29 22 -21 1 23 -57 60 -79 240 -254 339 -328
88 -66 267 -162 317 -169 15 -2 51 -11 78 -19 132 -40 227 -50 445 -50 233 0
365 15 665 75 269 54 825 203 825 222 0 4 -5 7 -11 7 -14 0 -391 148 -509 200
-154 68 -227 119 -345 243 -139 145 -246 242 -425 386 -144 116 -462 351 -474
351 -3 0 4 -17 17 -37z"/>
<path d="M6715 3644 c-60 -9 -181 -36 -250 -56 -38 -11 -79 -22 -92 -24 -12
-2 -57 -18 -99 -34 l-76 -29 -77 24 c-144 45 -316 75 -436 75 -114 0 -303 -39
-490 -100 -33 -11 -91 -26 -130 -35 -98 -21 -115 -26 -110 -35 9 -15 -396
-204 -459 -214 -6 -1 -16 -4 -21 -8 -37 -23 -309 -74 -479 -89 -148 -14 -534
-5 -696 15 -63 9 -128 15 -144 16 -28 0 -28 -1 18 -35 43 -33 62 -56 34 -39
-7 4 -2 -5 11 -20 78 -85 528 -328 648 -350 15 -2 72 -16 125 -30 236 -61 455
-53 658 25 140 53 272 131 484 287 248 181 393 268 522 310 77 26 135 37 114
23 -8 -6 -11 -11 -7 -11 30 0 -39 -57 -203 -166 -223 -148 -442 -303 -604
-428 -129 -100 -146 -126 -121 -181 21 -43 77 -96 104 -98 12 -1 31 -11 43
-24 l21 -23 181 178 c343 336 641 562 910 693 l101 50 98 -40 c316 -129 633
-355 1022 -730 136 -131 174 -163 189 -158 6 3 25 -6 43 -19 l32 -24 78 91
c43 50 79 94 80 98 1 3 -40 37 -90 76 -429 325 -783 563 -1080 724 -64 35 -76
45 -66 57 14 17 192 20 268 3 71 -15 251 -96 349 -157 46 -29 161 -107 255
-175 95 -68 202 -142 238 -165 81 -52 268 -141 306 -147 15 -3 64 -14 108 -25
115 -30 303 -37 425 -16 262 46 547 181 890 421 100 71 119 90 78 80 -43 -9
-213 -24 -410 -36 -154 -10 -235 -10 -367 0 -392 28 -640 95 -1071 291 -154
70 -305 126 -420 156 -78 21 -123 26 -250 29 -85 2 -168 1 -185 -1z"/>
</g>
</svg>
