<?xml version="1.0" standalone="no"?>
<!DOCTYPE svg PUBLIC "-//W3C//DTD SVG 20010904//EN"
 "http://www.w3.org/TR/2001/REC-SVG-20010904/DTD/svg10.dtd">
<svg version="1.0" xmlns="http://www.w3.org/2000/svg"
 width="1280.000000pt" height="1248.000000pt" viewBox="0 0 1280.000000 1248.000000"
 preserveAspectRatio="xMidYMid meet">
<metadata>
Created by potrace 1.15, written by Peter Selinger 2001-2017
</metadata>
<g transform="translate(0.000000,1248.000000) scale(0.100000,-0.100000)"
fill="#000000" stroke="none">
<path d="M5235 12454 c-38 -14 -162 -51 -275 -84 -521 -150 -686 -267 -789
-558 l-26 -74 -232 -154 c-128 -84 -233 -152 -233 -149 0 2 18 33 41 67 56 87
112 208 153 330 36 109 140 508 133 514 -2 2 -52 -26 -111 -61 -447 -269 -730
-549 -846 -839 -63 -156 -75 -286 -40 -420 l21 -78 -43 -37 c-99 -84 -276
-252 -365 -346 -79 -84 -91 -94 -75 -60 57 117 112 322 132 490 18 162 8 446
-25 692 l-6 43 -113 -143 c-179 -227 -258 -334 -338 -457 -146 -224 -189 -337
-219 -574 -27 -219 18 -530 85 -585 15 -12 21 -11 46 7 16 12 32 22 35 22 3 0
-28 -46 -69 -102 -77 -108 -247 -376 -310 -490 -21 -38 -39 -68 -40 -68 -2 0
1 24 7 53 5 28 10 133 10 232 0 262 -17 348 -173 843 -41 128 -77 229 -80 225
-7 -8 -99 -291 -174 -533 -49 -159 -112 -406 -132 -520 -11 -61 -18 -149 -18
-245 0 -167 17 -260 76 -399 34 -79 158 -309 169 -314 4 -2 -4 -33 -18 -70
-43 -111 -139 -402 -159 -479 -10 -40 -21 -73 -25 -73 -4 0 -10 21 -14 48 -10
71 -100 331 -160 464 -29 65 -74 146 -99 182 -25 36 -97 150 -160 253 -145
241 -166 249 -166 68 0 -44 -5 -150 -10 -235 -47 -714 -20 -995 118 -1265 57
-110 153 -212 261 -275 73 -43 73 -44 67 -80 -15 -93 -37 -372 -43 -542 l-6
-188 -49 92 c-65 120 -184 312 -261 418 -112 156 -179 230 -291 320 -61 49
-142 114 -179 144 -99 81 -118 75 -93 -27 8 -34 38 -188 66 -342 77 -430 128
-616 226 -824 122 -259 320 -462 575 -592 l57 -28 11 -83 c24 -167 76 -434
111 -572 10 -39 17 -72 16 -73 -2 -2 -18 18 -36 43 -58 81 -172 188 -270 254
-52 35 -162 111 -245 170 -237 168 -609 410 -630 410 -15 0 5 -48 110 -269
160 -338 335 -681 410 -806 181 -303 443 -513 783 -630 57 -19 120 -35 139
-35 33 0 36 -3 61 -63 38 -91 252 -511 301 -590 44 -72 42 -73 -26 -21 -109
83 -327 204 -508 283 -135 59 -232 91 -399 131 -71 17 -192 54 -268 80 -205
73 -213 59 -70 -116 53 -66 143 -180 198 -254 130 -173 244 -299 386 -427 284
-256 408 -332 656 -403 204 -59 310 -69 476 -49 l89 11 26 -34 c100 -128 339
-376 546 -567 l80 -74 -152 77 c-171 86 -197 93 -528 140 -485 69 -997 111
-1058 88 -15 -7 -13 -12 20 -43 71 -68 497 -378 657 -479 127 -80 248 -139
406 -198 282 -105 396 -126 641 -119 202 6 268 18 429 82 l116 46 138 -86
c150 -94 393 -230 496 -278 168 -78 187 -88 150 -82 -19 3 -140 8 -268 12
-318 8 -393 -1 -902 -101 -151 -30 -359 -69 -462 -88 -221 -39 -235 -50 -109
-86 43 -12 202 -61 352 -108 514 -160 614 -178 969 -179 228 0 267 2 363 23
230 48 386 122 526 248 62 56 89 75 105 71 11 -2 89 -23 172 -46 83 -23 224
-57 313 -75 88 -18 163 -35 166 -38 2 -2 -19 -10 -48 -17 -133 -34 -494 -203
-1027 -480 -302 -157 -394 -212 -377 -223 31 -20 546 0 842 33 365 40 834 203
1026 357 71 57 145 131 220 219 l36 43 205 0 206 0 143 -137 c247 -236 286
-257 729 -391 254 -77 330 -89 821 -123 441 -31 469 -31 469 2 0 25 -265 168
-430 232 -52 20 -138 64 -190 98 -136 88 -249 149 -385 209 -124 54 -457 170
-487 170 -10 0 -18 3 -18 8 0 4 46 16 103 26 121 22 370 84 515 128 56 17 103
29 105 27 1 -2 9 -17 17 -34 50 -97 385 -270 610 -314 175 -35 548 -32 740 4
173 34 786 221 880 270 41 21 39 50 -2 64 -52 16 -402 87 -648 130 -400 71
-517 85 -720 85 -179 0 -223 -5 -458 -49 -15 -3 -4 5 23 17 238 104 606 307
842 466 117 79 121 80 109 49 -24 -58 4 -93 106 -131 116 -44 227 -60 408 -60
181 0 253 11 445 69 175 53 310 114 476 215 277 168 659 430 718 494 30 32 22
53 -24 62 -59 11 -709 -38 -950 -72 -295 -41 -564 -126 -765 -243 l-55 -32 55
48 c217 189 432 408 624 635 54 64 58 67 79 54 93 -58 350 -39 616 46 132 42
215 86 356 187 330 236 456 363 653 657 83 124 150 204 225 265 70 58 88 85
66 100 -19 13 -61 5 -214 -41 -71 -21 -195 -55 -275 -76 -149 -38 -259 -76
-390 -137 -180 -83 -420 -231 -569 -351 -81 -65 -83 -66 -60 -29 123 199 316
566 384 731 15 36 29 55 37 52 75 -26 355 81 560 215 122 81 296 248 361 350
123 193 470 884 533 1062 29 82 14 83 -107 11 -141 -85 -580 -377 -709 -473
-119 -89 -265 -230 -333 -324 -26 -35 -47 -61 -47 -59 0 3 13 56 30 119 36
141 83 371 110 549 12 74 22 135 23 135 1 1 20 7 43 13 58 17 250 134 323 197
126 111 216 231 302 405 96 193 157 405 219 762 22 128 55 290 72 359 43 176
32 195 -69 111 -129 -109 -491 -500 -613 -663 -74 -99 -144 -222 -190 -332
l-37 -87 -6 217 c-6 190 -24 435 -43 585 -6 44 -5 46 14 41 39 -10 114 38 213
136 84 84 102 108 141 191 79 166 120 328 138 547 17 211 12 384 -25 853 -24
301 -8 292 -139 79 -210 -343 -369 -644 -417 -794 -18 -58 -23 -100 -27 -248
-2 -98 -6 -177 -8 -175 -2 2 -19 67 -39 143 -45 175 -139 470 -204 638 -33 86
-43 123 -32 113 45 -41 96 0 166 136 52 101 116 286 141 408 29 146 8 303 -92
675 -51 190 -187 609 -204 630 -33 40 -81 -49 -190 -350 -49 -137 -61 -211
-72 -476 -8 -182 -9 -294 -1 -385 5 -71 9 -130 8 -132 -2 -2 -28 44 -58 101
-115 214 -286 481 -436 681 -79 106 -82 125 -6 46 22 -23 62 -58 89 -78 l49
-36 23 27 c48 56 77 219 77 432 0 347 -88 566 -377 940 -57 74 -286 355 -318
390 -9 10 -4 -213 13 -646 9 -247 23 -361 54 -454 19 -56 90 -207 130 -275 15
-25 20 -36 11 -26 -109 134 -399 425 -559 564 -34 29 -37 34 -23 48 28 27 40
97 40 224 0 145 -13 208 -61 305 -87 175 -291 410 -501 577 -125 99 -370 258
-399 258 -30 0 -1 -160 82 -439 64 -216 106 -299 234 -465 45 -58 49 -67 25
-51 -16 10 -92 53 -169 96 -175 96 -317 178 -329 189 -5 5 -13 37 -18 72 -19
138 -132 306 -281 419 -140 106 -272 158 -756 300 -154 45 -181 48 -181 19 0
-44 269 -402 437 -580 138 -147 328 -253 527 -296 64 -13 86 -26 278 -161 114
-80 207 -148 205 -150 -2 -1 -55 1 -117 6 -137 11 -258 1 -418 -35 -145 -32
-348 -93 -467 -139 -255 -99 -226 -115 320 -175 154 -17 287 -33 295 -35 8 -3
98 -9 199 -15 204 -12 518 1 631 24 l65 14 115 -94 c63 -51 144 -120 180 -152
l65 -60 -90 24 c-181 48 -289 59 -585 58 -299 -1 -362 -9 -368 -50 -4 -30 21
-47 158 -107 69 -30 226 -103 350 -162 222 -106 442 -197 552 -229 84 -24 270
-54 386 -62 l104 -7 105 -137 c57 -76 132 -178 166 -226 53 -77 58 -86 32 -69
-221 146 -708 323 -941 342 -76 6 -93 -2 -75 -36 20 -36 729 -636 872 -737
205 -146 443 -282 533 -305 l45 -11 47 -107 c48 -108 174 -435 174 -451 0 -5
-51 43 -112 107 -141 144 -254 230 -444 339 -282 162 -464 241 -464 202 0 -21
49 -92 121 -173 120 -138 266 -354 393 -584 32 -57 74 -127 95 -155 120 -162
346 -381 513 -498 49 -35 96 -67 104 -73 22 -15 65 -317 93 -645 4 -52 7 -96
6 -98 -1 -1 -17 39 -35 90 -43 126 -108 249 -175 333 -70 87 -624 660 -639
660 -21 0 -8 -62 63 -305 148 -503 245 -768 371 -1015 100 -198 222 -378 350
-518 l53 -58 -7 -82 c-16 -181 -83 -617 -96 -617 -4 0 -10 28 -13 63 -19 203
-133 460 -405 912 -113 189 -170 267 -190 263 -25 -5 -26 -93 -7 -413 34 -587
64 -912 97 -1040 45 -182 174 -468 259 -576 l28 -36 -58 -144 c-94 -232 -271
-601 -271 -564 0 6 5 75 10 154 20 297 -38 698 -151 1036 -44 133 -79 195
-109 195 -27 0 -37 -24 -45 -115 -9 -103 -43 -280 -110 -575 -110 -482 -130
-620 -122 -858 6 -179 17 -240 79 -419 l32 -92 -86 -113 c-89 -117 -278 -341
-299 -354 -9 -5 -10 0 -5 17 13 48 46 256 56 358 15 151 12 487 -5 706 -9 104
-17 195 -19 200 -2 6 -38 -60 -81 -145 -117 -234 -270 -512 -347 -633 -195
-307 -240 -475 -264 -982 l-6 -141 -62 -45 c-136 -102 -446 -309 -461 -309 -3
0 13 29 35 64 110 173 220 456 274 704 22 99 66 385 60 391 -7 8 -543 -530
-697 -699 -294 -324 -423 -546 -452 -781 l-7 -56 -136 -46 c-110 -37 -383
-117 -399 -117 -2 0 41 45 96 100 208 208 406 511 454 695 33 130 47 125 -120
41 -132 -65 -256 -118 -518 -218 -44 -17 -134 -58 -200 -92 -108 -55 -130 -71
-221 -161 -166 -166 -305 -372 -308 -455 l-1 -37 -74 -7 c-112 -9 -537 -7
-563 3 -16 6 -30 28 -47 72 -32 86 -94 210 -133 267 -52 77 -167 185 -261 246
-102 67 -222 125 -397 191 -235 88 -456 189 -569 257 l-33 21 7 -34 c51 -229
237 -520 510 -797 61 -62 104 -110 96 -108 -9 3 -79 21 -156 41 -77 20 -201
56 -276 81 l-136 44 -7 63 c-28 249 -107 399 -372 697 -95 106 -765 802 -769
798 -9 -8 49 -324 85 -465 81 -322 173 -545 297 -721 14 -20 8 -18 -48 14 -85
49 -325 207 -422 279 -56 41 -77 62 -72 73 3 8 11 50 16 91 28 195 -32 501
-156 797 -50 119 -85 184 -186 351 -66 108 -227 407 -305 566 -21 42 -43 77
-50 77 -18 0 -24 -135 -24 -545 0 -501 7 -577 76 -785 10 -29 -209 216 -349
393 l-86 107 25 57 c53 120 104 406 104 586 0 173 -36 392 -144 874 -66 295
-103 491 -108 573 -2 34 -7 46 -21 48 -13 3 -27 -16 -56 -80 -64 -137 -136
-414 -198 -758 -35 -198 -37 -412 -5 -590 12 -63 19 -116 18 -118 -2 -1 -55
100 -118 225 -101 201 -210 446 -249 555 l-12 36 61 68 c104 113 235 404 267
592 41 241 118 1314 99 1374 -8 26 -26 22 -60 -14 -113 -121 -422 -672 -488
-869 -35 -105 -65 -266 -73 -386 -3 -57 -8 -102 -10 -100 -16 17 -100 503
-124 719 l-12 108 26 20 c73 58 395 522 468 675 85 178 401 1183 387 1227 -6
16 -144 -110 -343 -313 -351 -356 -428 -480 -544 -869 -28 -92 8 392 51 683
l21 148 41 21 c70 35 225 156 324 252 185 179 315 345 560 716 85 129 198 294
252 366 54 72 103 141 109 152 16 29 14 52 -4 52 -41 0 -415 -210 -655 -369
-119 -78 -281 -225 -361 -327 -24 -31 -52 -66 -61 -78 -32 -39 146 443 215
584 20 39 27 46 71 57 64 16 232 97 366 178 217 131 421 284 625 469 66 60
174 154 240 209 175 145 217 186 213 211 -4 30 -47 31 -173 6 -325 -66 -615
-183 -854 -346 -51 -35 -95 -64 -97 -64 -16 0 321 465 362 501 15 13 50 18
149 22 288 13 537 88 905 272 91 45 235 113 320 150 85 37 170 79 188 92 93
70 -17 103 -343 103 -285 0 -538 -35 -704 -98 -22 -8 157 150 281 249 68 54
106 78 117 74 53 -21 194 -46 306 -56 161 -13 328 -2 725 46 157 20 357 41
445 48 157 13 210 26 202 50 -16 49 -347 175 -597 227 -196 40 -472 50 -620
21 -25 -5 -46 -8 -48 -7 -1 2 85 71 191 153 l193 151 110 11 c240 24 407 116
645 353 134 134 254 276 329 390 63 94 77 132 59 154 -15 18 -20 17 -104 -12z"/>
</g>
</svg>
