<?xml version="1.0" standalone="no"?>
<!DOCTYPE svg PUBLIC "-//W3C//DTD SVG 20010904//EN"
 "http://www.w3.org/TR/2001/REC-SVG-20010904/DTD/svg10.dtd">
<svg version="1.0" xmlns="http://www.w3.org/2000/svg"
 width="1280.000000pt" height="964.000000pt" viewBox="0 0 1280.000000 964.000000"
 preserveAspectRatio="xMidYMid meet">
<metadata>
Created by potrace 1.15, written by Peter Selinger 2001-2017
</metadata>
<g transform="translate(0.000000,964.000000) scale(0.100000,-0.100000)"
fill="#000000" stroke="none">
<path d="M4070 9591 c0 -22 -11 -76 -25 -120 -30 -94 -106 -204 -219 -316 -87
-85 -191 -204 -234 -265 -45 -66 -65 -146 -62 -254 7 -243 8 -235 -32 -316
-51 -106 -70 -128 -188 -221 -248 -195 -552 -490 -725 -704 -116 -143 -109
-138 -101 -85 10 66 46 135 115 220 120 147 170 299 151 458 -24 195 -86 409
-215 743 -40 103 -63 140 -39 63 8 -27 18 -87 21 -134 5 -72 1 -100 -21 -185
-15 -55 -44 -145 -65 -200 -52 -133 -98 -277 -109 -345 -17 -93 12 -217 75
-319 63 -105 77 -199 48 -336 -13 -61 -28 -88 -124 -230 -181 -267 -334 -548
-451 -833 -52 -124 -49 -123 -96 -32 l-29 55 0 215 c0 210 -1 217 -28 295 -16
44 -37 94 -48 112 -25 40 -145 152 -224 208 -65 47 -508 275 -533 275 -9 0 9
-17 38 -37 118 -84 168 -184 235 -473 18 -80 50 -196 70 -259 33 -100 42 -119
84 -161 46 -46 142 -100 179 -100 52 0 121 -32 160 -74 47 -52 63 -79 91 -164
l21 -64 -31 -91 c-157 -476 -229 -915 -233 -1406 0 -121 -4 -217 -7 -215 -19
11 -53 111 -80 237 -17 78 -42 174 -56 212 -31 85 -105 214 -152 262 -40 41
-190 142 -271 183 -102 50 -600 218 -600 201 0 -3 27 -18 59 -33 128 -60 221
-183 364 -482 100 -208 186 -353 233 -395 69 -61 145 -92 243 -101 105 -8 151
-30 217 -103 l50 -54 12 -153 c42 -506 154 -970 348 -1437 31 -76 65 -155 76
-175 10 -21 14 -38 9 -38 -6 0 -39 28 -74 63 -46 44 -88 102 -147 200 -45 76
-108 172 -141 213 -68 85 -207 201 -294 244 -58 29 -298 98 -413 120 -91 17
-604 50 -757 49 l-140 -1 105 -22 c58 -12 139 -36 180 -54 98 -42 257 -167
448 -353 249 -243 398 -360 497 -392 130 -41 219 -46 354 -21 106 20 171 9
286 -46 116 -56 145 -85 211 -207 208 -392 465 -741 787 -1070 l129 -132 -62
15 c-132 31 -191 65 -349 203 -205 179 -298 237 -474 297 -92 31 -130 38 -212
42 -103 4 -333 -22 -485 -54 -169 -37 -1040 -358 -1040 -384 0 -4 26 0 58 10
92 29 216 43 316 37 123 -8 362 -87 595 -197 174 -82 446 -188 552 -215 109
-29 270 -14 401 35 31 11 103 51 161 89 59 38 127 74 152 80 122 31 256 22
406 -25 68 -21 91 -36 207 -132 275 -228 563 -418 861 -571 143 -73 422 -201
437 -201 2 0 4 26 4 59 0 57 -1 59 -32 72 -266 106 -618 299 -885 485 -70 49
-257 190 -292 220 -12 11 -30 145 -31 229 0 157 20 213 124 349 108 141 163
309 153 469 -6 115 -82 367 -192 640 -72 180 -134 384 -157 518 -19 112 10
306 67 441 4 10 3 18 -2 18 -27 0 -411 -882 -451 -1035 -36 -136 -82 -404 -82
-475 0 -83 45 -268 88 -363 47 -103 92 -172 213 -329 61 -78 119 -158 129
-178 24 -48 62 -175 58 -195 -4 -22 -219 177 -375 347 -268 293 -501 617 -660
918 l-50 95 8 89 c13 140 56 253 126 337 15 17 59 52 98 76 86 55 134 100 190
178 106 149 115 194 120 635 5 351 17 525 42 600 28 84 82 185 132 248 28 34
47 62 43 62 -20 0 -525 -529 -625 -654 -53 -69 -212 -337 -236 -400 -20 -54
-41 -197 -41 -282 0 -82 26 -210 75 -367 40 -131 45 -155 44 -239 0 -51 -6
-115 -13 -143 l-12 -50 -23 50 c-138 298 -226 541 -305 845 -78 304 -136 715
-136 979 0 99 2 107 30 151 39 60 124 142 178 169 22 11 86 28 141 36 178 27
305 96 377 207 52 78 141 255 204 405 111 263 215 393 375 473 44 22 73 40 64
40 -35 0 -528 -179 -714 -260 -64 -27 -287 -168 -341 -214 -23 -20 -63 -70
-90 -112 -68 -110 -100 -212 -119 -379 -8 -77 -18 -153 -21 -170 -8 -38 -45
-112 -73 -145 l-21 -25 5 55 c2 30 7 119 10 196 15 390 110 875 249 1268 25
68 51 137 60 153 24 48 140 149 208 182 71 35 107 38 263 26 105 -8 199 7 270
43 47 23 198 175 310 312 57 69 141 162 188 208 95 92 170 133 291 159 39 8
73 17 76 20 18 19 -690 -45 -786 -72 -107 -30 -248 -77 -286 -96 -56 -29 -162
-133 -207 -204 -22 -35 -62 -117 -87 -182 -26 -65 -60 -135 -75 -156 -27 -38
-109 -115 -109 -102 0 3 24 60 54 125 99 220 282 533 434 745 78 107 242 313
268 336 32 28 115 50 209 56 83 5 97 3 183 -26 108 -37 229 -53 317 -40 77 11
217 69 410 169 83 43 195 95 250 116 97 37 103 38 237 38 75 1 135 3 133 5 -7
6 -197 41 -429 78 -215 35 -246 38 -446 37 -210 0 -217 0 -283 -27 -126 -50
-189 -90 -293 -188 -99 -95 -121 -111 -197 -143 l-39 -16 50 58 c172 199 525
502 802 691 137 93 178 106 320 105 115 -1 158 -13 244 -65 118 -73 275 -110
384 -90 95 17 284 66 371 95 41 14 132 38 204 52 106 21 144 25 205 19 69 -6
146 -22 197 -41 14 -5 17 -4 10 3 -14 14 -260 107 -495 187 -212 71 -424 117
-545 118 -86 0 -198 -23 -271 -56 -30 -14 -103 -56 -162 -95 -59 -38 -116 -72
-127 -75 -45 -13 -114 -23 -109 -15 15 25 380 213 519 267 l90 35 157 -2 c165
-2 197 3 312 46 62 23 83 39 194 147 125 122 239 267 420 539 71 105 88 148
25 63 -17 -24 -62 -66 -99 -94 -54 -40 -91 -57 -193 -90 -69 -23 -169 -51
-221 -63 -123 -29 -252 -72 -305 -103 -50 -30 -111 -100 -188 -216 -83 -127
-153 -178 -433 -318 -216 -108 -388 -207 -551 -318 -68 -45 -123 -80 -123 -77
0 3 15 25 34 48 24 29 65 58 136 95 128 67 177 105 235 180 60 78 78 121 114
269 31 126 46 261 56 501 3 74 8 170 11 213 4 51 2 77 -5 77 -6 0 -11 -18 -11
-39z"/>
<path d="M8586 9455 c19 -526 62 -759 164 -897 62 -85 129 -137 255 -200 67
-34 114 -65 143 -96 23 -25 40 -47 38 -49 -2 -2 -44 23 -92 55 -156 104 -363
221 -584 329 -323 158 -389 205 -475 338 -81 125 -136 180 -219 219 -71 33
-237 84 -351 106 -84 17 -241 68 -299 97 -28 14 -84 58 -125 99 -42 41 -77 74
-79 74 -7 0 131 -194 259 -366 155 -209 304 -356 414 -409 115 -56 187 -68
353 -61 135 6 147 5 218 -19 100 -33 285 -119 436 -201 144 -78 159 -89 103
-80 -84 15 -114 28 -214 92 -136 87 -192 112 -309 136 -73 15 -115 18 -171 13
-138 -12 -331 -54 -504 -111 -248 -81 -537 -186 -537 -196 0 -4 12 -3 28 3 48
19 172 39 237 39 81 0 236 -31 400 -80 408 -121 509 -121 752 1 118 60 124 62
215 67 53 2 126 -1 167 -8 68 -11 85 -20 220 -110 168 -112 341 -244 488 -372
146 -127 377 -352 365 -356 -28 -9 -127 52 -211 131 -114 107 -183 152 -296
197 l-90 35 -240 0 c-221 0 -256 -3 -445 -32 -321 -51 -460 -77 -460 -86 0 -5
9 -6 20 -2 31 10 209 7 266 -4 72 -14 224 -77 399 -164 83 -41 193 -92 245
-113 94 -39 97 -39 225 -38 119 0 139 3 230 33 115 37 220 43 318 17 85 -23
97 -32 182 -131 151 -175 313 -402 446 -622 79 -130 264 -491 256 -499 -3 -3
-34 23 -69 58 -54 53 -70 77 -98 148 -80 203 -135 290 -243 380 -123 104 -340
167 -688 200 -247 23 -553 36 -461 20 73 -14 169 -47 222 -77 60 -35 191 -163
305 -298 121 -144 268 -285 326 -313 26 -13 84 -30 130 -39 73 -13 99 -14 194
-3 97 11 117 11 165 -3 70 -20 137 -63 211 -134 51 -49 63 -68 98 -157 111
-287 203 -642 246 -947 25 -177 45 -413 45 -529 l0 -105 -20 25 c-51 64 -70
127 -90 288 -10 86 -26 182 -36 212 -28 95 -93 209 -158 278 -32 34 -238 167
-336 217 -60 30 -473 186 -610 229 -47 15 -104 34 -127 41 -68 22 -50 3 37
-38 158 -75 265 -211 393 -502 87 -197 185 -371 240 -427 30 -30 77 -62 130
-87 80 -38 115 -48 264 -71 111 -18 214 -93 288 -209 22 -35 25 -52 25 -123 0
-166 -39 -507 -81 -722 -51 -260 -143 -569 -237 -801 -62 -151 -155 -355 -163
-355 -12 0 -29 114 -29 191 0 64 8 102 45 220 59 187 75 269 75 381 -1 216
-19 270 -166 506 -64 104 -121 179 -204 270 -150 166 -549 567 -556 560 -3 -4
17 -34 45 -68 54 -68 110 -167 135 -241 28 -87 49 -329 41 -499 -7 -176 8
-464 31 -555 32 -128 131 -255 274 -351 56 -37 114 -83 130 -102 72 -87 118
-223 121 -357 2 -74 2 -74 -61 -182 -204 -351 -441 -661 -717 -940 -145 -146
-333 -317 -340 -309 -8 7 36 154 59 199 11 23 75 111 142 194 125 158 201 277
237 373 40 105 69 240 69 319 0 92 -67 433 -106 541 -44 123 -266 624 -351
795 -81 161 -122 217 -76 105 63 -157 70 -332 22 -522 -38 -154 -57 -208 -136
-397 -108 -258 -203 -569 -203 -665 0 -70 35 -205 76 -294 18 -41 61 -108 95
-150 81 -100 108 -161 121 -271 10 -73 9 -105 -4 -185 -10 -63 -23 -104 -34
-118 -47 -51 -358 -267 -554 -383 -176 -105 -524 -274 -672 -328 -15 -5 -18
-18 -18 -67 l0 -60 53 21 c461 181 922 452 1321 777 82 66 113 85 175 105 115
38 207 51 312 44 117 -7 163 -23 280 -98 107 -68 170 -94 294 -120 107 -22
189 -24 270 -5 103 25 392 133 585 221 176 79 357 145 500 181 83 21 305 15
395 -11 166 -48 135 -25 -80 60 -254 101 -793 282 -903 304 -160 32 -440 63
-509 57 -75 -8 -209 -46 -310 -88 -103 -42 -205 -111 -368 -248 -158 -131
-202 -160 -295 -189 -150 -46 -150 -48 1 101 305 303 567 645 779 1018 46 80
90 153 99 164 28 32 148 97 226 122 90 28 130 30 250 8 77 -15 102 -15 184 -4
114 14 205 46 275 94 81 56 244 196 393 337 186 177 360 307 465 349 86 34
192 60 246 60 17 0 32 5 32 11 0 13 -172 8 -570 -17 -286 -18 -372 -30 -575
-85 -181 -48 -226 -68 -330 -146 -117 -87 -207 -191 -315 -364 -52 -83 -113
-170 -135 -193 -36 -37 -105 -92 -105 -84 0 2 25 59 56 128 222 498 354 1004
396 1524 l12 151 50 53 c76 81 104 94 212 103 116 8 209 48 277 117 52 53 157
231 252 426 125 255 223 378 353 439 35 16 61 31 59 33 -15 15 -562 -171 -657
-223 -115 -64 -242 -156 -272 -198 -96 -131 -137 -230 -186 -452 -27 -120 -64
-223 -80 -223 -4 0 -7 98 -8 218 -1 242 -13 388 -50 632 -40 260 -112 553
-192 777 l-29 81 18 59 c24 76 75 159 121 196 27 22 61 35 122 48 119 25 214
89 256 170 26 50 87 253 111 368 21 102 69 252 101 316 25 49 114 137 157 154
17 8 31 17 31 22 0 28 -516 -233 -613 -310 -140 -111 -180 -158 -215 -247 -32
-83 -59 -245 -48 -288 3 -13 6 -71 7 -130 1 -105 0 -110 -36 -182 -20 -41 -40
-74 -44 -74 -4 0 -22 37 -41 83 -111 275 -326 653 -522 922 -74 100 -92 158
-93 290 l0 101 52 89 c56 97 93 212 93 286 0 56 -55 241 -116 389 -72 176 -97
287 -91 395 3 50 12 109 21 133 8 23 12 42 8 42 -4 0 -15 -19 -24 -42 -183
-472 -219 -592 -248 -818 -10 -75 -9 -94 10 -165 28 -109 67 -186 145 -280 36
-44 75 -96 85 -116 21 -40 45 -127 38 -134 -3 -3 -54 52 -114 122 -205 239
-453 473 -739 696 -178 138 -240 241 -234 387 7 181 3 265 -15 318 -23 68
-106 172 -258 325 -158 158 -220 241 -252 339 -14 42 -26 89 -27 105 0 15 -5
37 -10 48 -5 13 -7 -35 -3 -130z"/>
</g>
</svg>
