<?xml version="1.0" standalone="no"?>
<!DOCTYPE svg PUBLIC "-//W3C//DTD SVG 20010904//EN"
 "http://www.w3.org/TR/2001/REC-SVG-20010904/DTD/svg10.dtd">
<svg version="1.0" xmlns="http://www.w3.org/2000/svg"
 width="1184.000000pt" height="1280.000000pt" viewBox="0 0 1184.000000 1280.000000"
 preserveAspectRatio="xMidYMid meet">
<metadata>
Created by potrace 1.15, written by Peter Selinger 2001-2017
</metadata>
<g transform="translate(0.000000,1280.000000) scale(0.100000,-0.100000)"
fill="#000000" stroke="none">
<path d="M7950 12790 c-210 -27 -330 -64 -545 -170 -343 -169 -682 -430 -905
-698 -122 -145 -332 -458 -404 -600 -50 -99 -75 -248 -115 -692 -21 -227 -30
-346 -76 -985 -44 -606 -74 -907 -94 -942 -16 -29 -51 225 -151 1087 -143
1235 -180 1446 -310 1751 -194 452 -646 828 -1215 1010 -285 91 -517 93 -827
8 -270 -75 -500 -198 -756 -408 -230 -188 -359 -326 -658 -701 -281 -352 -440
-568 -499 -677 -20 -38 -40 -59 -69 -74 -50 -26 -69 -41 -316 -243 -275 -226
-393 -330 -505 -448 -232 -244 -354 -444 -433 -713 -53 -180 -66 -279 -66
-500 1 -270 31 -470 91 -589 51 -103 235 -321 361 -429 196 -168 617 -389 926
-487 406 -128 797 -191 1671 -270 707 -64 972 -96 1044 -126 l34 -14 -34 -36
c-42 -43 -93 -59 -259 -78 -178 -21 -418 -34 -870 -46 -832 -22 -1189 -50
-1450 -115 -349 -87 -799 -393 -1060 -720 -274 -345 -380 -653 -435 -1265 -20
-216 -20 -421 0 -486 27 -92 177 -316 393 -587 157 -196 274 -319 455 -476
l172 -150 89 -191 c49 -105 111 -230 138 -278 163 -285 438 -646 651 -855 201
-197 341 -278 599 -346 349 -93 886 -133 1119 -83 267 56 602 251 851 494 112
109 228 276 323 467 117 235 210 619 340 1416 96 582 156 903 195 1028 39 125
97 183 204 203 l38 7 -6 -84 c-8 -110 -42 -850 -57 -1239 -13 -329 -7 -855 11
-1010 44 -385 182 -844 375 -1248 141 -294 260 -460 499 -697 186 -185 294
-269 446 -345 118 -59 211 -89 412 -130 175 -37 180 -36 198 29 5 20 19 88 31
151 28 152 22 209 -33 320 -38 78 -56 100 -230 273 -305 305 -387 412 -508
662 -278 573 -383 1042 -435 1940 -26 439 -20 812 15 970 20 94 21 95 42 35
104 -302 179 -574 267 -975 121 -543 146 -608 359 -912 291 -416 515 -662 832
-913 279 -221 483 -322 767 -379 374 -75 650 -40 953 121 159 85 255 154 322
231 34 39 100 103 147 143 183 151 261 266 483 709 159 316 261 481 447 720
139 178 257 288 395 370 l119 70 47 90 c26 50 72 133 104 185 93 155 136 287
181 554 42 253 59 454 59 701 -1 281 -9 320 -118 540 -230 463 -513 726 -976
908 -228 89 -430 141 -665 171 -304 39 -387 41 -1500 41 -618 0 -1096 4 -1104
9 -11 7 -11 10 1 17 32 18 260 47 883 114 823 89 1043 126 1310 225 430 158
752 331 1090 585 383 288 574 547 690 936 78 258 135 648 135 909 -1 209 -27
317 -130 525 -149 300 -306 475 -587 657 -79 51 -258 168 -397 260 -360 236
-454 330 -722 718 -152 222 -254 353 -366 477 -264 290 -593 489 -918 554
-111 23 -394 33 -510 19z"/>
</g>
</svg>
