<?xml version="1.0" standalone="no"?>
<!DOCTYPE svg PUBLIC "-//W3C//DTD SVG 20010904//EN"
 "http://www.w3.org/TR/2001/REC-SVG-20010904/DTD/svg10.dtd">
<svg version="1.0" xmlns="http://www.w3.org/2000/svg"
 width="1272.000000pt" height="1280.000000pt" viewBox="0 0 1272.000000 1280.000000"
 preserveAspectRatio="xMidYMid meet">
<metadata>
Created by potrace 1.15, written by Peter Selinger 2001-2017
</metadata>
<g transform="translate(0.000000,1280.000000) scale(0.100000,-0.100000)"
fill="#000000" stroke="none">
<path d="M6060 12794 c-902 -52 -1714 -261 -2495 -643 -1463 -715 -2585 -1952
-3165 -3491 -453 -1201 -525 -2604 -199 -3884 112 -441 261 -838 475 -1266
933 -1863 2716 -3148 4784 -3444 337 -49 508 -60 900 -60 392 0 563 11 900 60
2068 296 3851 1581 4784 3444 455 910 676 1855 676 2890 0 1428 -442 2755
-1291 3880 -802 1063 -1940 1856 -3219 2244 -418 126 -843 209 -1295 251 -161
15 -710 27 -855 19z m-60 -1154 l0 -420 100 0 100 0 0 -295 0 -295 -100 0
-100 0 0 -155 0 -155 100 0 100 0 0 -525 0 -525 -100 0 -100 0 0 -155 0 -155
100 0 100 0 0 -526 0 -525 -97 2 -98 2 -3 -157 -3 -156 101 0 100 0 0 -520 0
-520 -520 -2 -520 -3 0 103 0 102 -160 0 -160 0 0 -100 0 -100 -515 0 c-283 0
-518 -1 -521 -2 -4 -2 -6 43 -5 100 l2 102 -160 0 -161 0 0 -100 0 -100 -515
0 c-283 0 -518 -1 -522 -2 -5 -2 -9 43 -11 100 l-3 102 -154 0 -155 0 0 -100
0 -100 -295 0 -295 0 0 100 0 100 -396 0 -396 0 6 83 c139 1744 1019 3274
2446 4249 763 521 1689 859 2595 947 61 6 124 13 140 15 17 1 40 4 53 5 l22 1
0 -420z m985 394 c1677 -182 3205 -1132 4117 -2561 507 -793 797 -1668 874
-2630 l6 -83 -396 0 -396 0 0 -100 0 -100 -295 0 -295 0 0 100 0 100 -155 0
-155 0 0 -100 0 -100 -525 0 -525 0 0 100 0 100 -161 0 -160 0 2 -97 c1 -54
-1 -99 -5 -100 -3 -2 -238 -3 -521 -3 l-515 0 0 100 0 100 -160 0 -160 0 0
-102 0 -103 -520 3 -520 2 0 520 0 520 100 0 101 0 -3 156 -3 157 -97 -2 -98
-2 0 525 0 526 100 0 100 0 0 155 0 155 -100 0 -100 0 0 525 0 525 100 0 100
0 0 155 0 155 -100 0 -100 0 0 295 0 295 100 0 100 0 0 420 0 421 63 -6 c34
-4 125 -13 202 -21z m-3505 -5894 l0 -100 161 0 160 0 -2 98 c-1 53 1 98 5
100 3 1 238 2 521 2 l515 0 0 -100 0 -100 160 0 160 0 0 103 0 102 520 -3 520
-2 0 -520 0 -520 -100 0 -101 0 3 -157 3 -158 98 0 97 0 0 -522 0 -523 -100 0
-100 0 0 -155 0 -155 100 0 100 0 0 -525 0 -525 -100 0 -100 0 0 -155 0 -155
100 0 100 0 0 -295 0 -295 -100 0 -100 0 0 -420 0 -421 -62 6 c-206 20 -361
39 -491 61 -1576 258 -2971 1177 -3829 2521 -507 793 -797 1668 -874 2631 l-6
82 396 0 396 0 0 100 0 100 295 0 295 0 0 -100 0 -100 155 0 155 0 0 98 c0 54
2 101 4 103 2 2 239 3 525 1 l521 -2 0 -100z m4240 -100 l160 0 0 100 0 100
515 0 c283 0 518 1 521 3 4 1 6 -44 5 -100 l-2 -103 160 0 161 0 0 100 0 100
525 0 525 0 0 -100 0 -100 155 0 155 0 0 100 0 100 295 0 295 0 0 -100 0 -100
396 0 396 0 -6 -82 c-77 -963 -367 -1838 -874 -2631 -708 -1110 -1799 -1945
-3052 -2337 -411 -128 -751 -194 -1267 -245 l-63 -6 0 421 0 420 -100 0 -100
0 0 295 0 295 100 0 100 0 0 155 0 155 -100 0 -100 0 0 525 0 525 100 0 100 0
0 155 0 155 -100 0 -100 0 0 523 0 522 97 0 98 0 3 158 3 157 -101 0 -100 0 0
520 0 520 518 2 517 3 3 -102 3 -103 159 0z"/>
</g>
</svg>
