<?xml version="1.0" standalone="no"?>
<!DOCTYPE svg PUBLIC "-//W3C//DTD SVG 20010904//EN"
 "http://www.w3.org/TR/2001/REC-SVG-20010904/DTD/svg10.dtd">
<svg version="1.0" xmlns="http://www.w3.org/2000/svg"
 width="1280.000000pt" height="1194.000000pt" viewBox="0 0 1280.000000 1194.000000"
 preserveAspectRatio="xMidYMid meet">
<metadata>
Created by potrace 1.15, written by Peter Selinger 2001-2017
</metadata>
<g transform="translate(0.000000,1194.000000) scale(0.100000,-0.100000)"
fill="#000000" stroke="none">
<path d="M3075 11863 c-622 -387 -1140 -833 -1582 -1363 -925 -1106 -1440
-2454 -1489 -3900 l-7 -200 2241 0 2242 0 0 45 c0 234 89 587 206 815 160 313
417 597 695 766 l60 36 -33 58 c-196 345 -2204 3819 -2208 3819 -3 -1 -59 -34
-125 -76z"/>
<path d="M9534 11832 c-33 -59 -533 -927 -1112 -1929 -579 -1003 -1053 -1827
-1054 -1832 -2 -5 43 -40 99 -77 378 -255 652 -631 778 -1069 34 -118 62 -286
71 -419 l7 -106 2240 0 2240 0 -7 200 c-68 1986 -1022 3787 -2631 4969 -147
108 -552 373 -568 371 -1 0 -29 -49 -63 -108z"/>
<path d="M6210 7666 c-470 -85 -824 -366 -995 -790 -159 -397 -112 -829 130
-1197 63 -95 239 -271 335 -334 224 -148 452 -218 715 -218 165 -1 230 9 380
54 207 64 367 161 526 319 144 143 236 288 304 478 237 664 -121 1403 -790
1630 -49 17 -124 38 -165 47 -102 22 -344 28 -440 11z"/>
<path d="M5436 4731 c-11 -20 -1530 -2652 -1843 -3194 -206 -356 -376 -654
-379 -661 -7 -17 76 -67 311 -186 731 -370 1474 -583 2326 -667 249 -24 844
-24 1098 1 845 81 1594 296 2326 666 235 119 318 169 311 186 -4 11 -1949
3386 -2168 3762 l-60 103 -53 -30 c-82 -47 -251 -116 -363 -149 -175 -53 -334
-75 -532 -76 -320 -1 -588 60 -864 199 -58 29 -108 50 -110 46z"/>
</g>
</svg>
