<?xml version="1.0" standalone="no"?>
<!DOCTYPE svg PUBLIC "-//W3C//DTD SVG 20010904//EN"
 "http://www.w3.org/TR/2001/REC-SVG-20010904/DTD/svg10.dtd">
<svg version="1.0" xmlns="http://www.w3.org/2000/svg"
 width="981.000000pt" height="1280.000000pt" viewBox="0 0 981.000000 1280.000000"
 preserveAspectRatio="xMidYMid meet">
<metadata>
Created by potrace 1.15, written by Peter Selinger 2001-2017
</metadata>
<g transform="translate(0.000000,1280.000000) scale(0.100000,-0.100000)"
fill="#000000" stroke="none">
<path d="M2040 12794 c-407 -36 -694 -116 -933 -258 -184 -110 -298 -226 -461
-471 -450 -672 -692 -1596 -637 -2420 15 -225 44 -501 87 -825 159 -1213 400
-2305 640 -2892 100 -246 173 -358 342 -528 293 -293 786 -628 1322 -899 107
-54 229 -113 270 -132 146 -65 224 -133 281 -248 56 -113 84 -224 104 -412 8
-79 22 -164 30 -189 33 -98 110 -154 256 -184 51 -10 164 -18 343 -22 147 -4
269 -11 272 -15 4 -8 -12 -259 -18 -264 -2 -1 -82 -10 -178 -19 -187 -19 -536
-83 -621 -116 -140 -53 -213 -156 -238 -337 -5 -37 -12 -264 -16 -503 -3 -239
-13 -653 -22 -920 -21 -630 -21 -626 4 -675 29 -57 98 -117 174 -153 257 -122
784 -237 1324 -289 251 -24 829 -24 1080 0 672 65 1292 222 1439 364 60 58 79
106 79 193 0 41 -7 305 -16 585 -9 281 -21 715 -26 965 -8 406 -11 462 -28
522 -37 126 -108 206 -221 248 -88 33 -435 97 -622 116 -96 9 -176 18 -178 19
-8 7 -22 136 -22 201 l0 71 271 7 c292 7 384 19 476 63 62 29 107 79 128 143
8 25 22 110 30 189 20 188 48 299 104 412 57 115 135 183 281 248 297 132 688
351 995 556 461 308 732 569 864 833 140 279 300 803 436 1425 167 771 322
1812 366 2462 55 824 -187 1748 -637 2420 -163 245 -277 361 -461 471 -202
121 -445 197 -758 240 -162 22 -605 26 -765 6 -1896 -234 -2056 -252 -2275
-252 -194 0 -461 28 -1405 145 -965 120 -928 116 -1180 120 -129 1 -255 1
-280 -1z m-735 -2749 c269 -41 571 -150 1120 -405 121 -56 288 -131 370 -165
340 -143 542 -254 750 -414 86 -66 243 -224 303 -305 344 -468 332 -1038 -35
-1640 -72 -119 -128 -190 -242 -309 -303 -315 -644 -551 -927 -640 -297 -94
-514 -72 -840 82 -150 72 -254 142 -356 239 -281 268 -436 636 -599 1414 -56
270 -225 1199 -244 1341 -49 376 23 634 207 744 114 69 286 89 493 58z m7491
-5 c175 -45 278 -151 330 -341 22 -80 25 -383 5 -499 -52 -303 -198 -1091
-231 -1255 -128 -622 -246 -972 -417 -1229 -82 -123 -237 -283 -347 -356 -157
-105 -421 -214 -577 -240 -402 -65 -901 182 -1390 686 -353 365 -564 900 -521
1322 32 311 152 555 391 792 216 214 490 382 901 553 85 36 254 111 375 167
425 197 683 300 906 359 236 63 433 77 575 41z"/>
</g>
</svg>
