<?xml version="1.0" standalone="no"?>
<!DOCTYPE svg PUBLIC "-//W3C//DTD SVG 20010904//EN"
 "http://www.w3.org/TR/2001/REC-SVG-20010904/DTD/svg10.dtd">
<svg version="1.0" xmlns="http://www.w3.org/2000/svg"
 width="1270.000000pt" height="1280.000000pt" viewBox="0 0 1270.000000 1280.000000"
 preserveAspectRatio="xMidYMid meet">
<metadata>
Created by potrace 1.15, written by Peter Selinger 2001-2017
</metadata>
<g transform="translate(0.000000,1280.000000) scale(0.100000,-0.100000)"
fill="#000000" stroke="none">
<path d="M4462 12788 c-238 -30 -464 -125 -655 -278 -337 -268 -541 -600 -613
-993 -24 -128 -24 -405 0 -552 82 -505 306 -1017 734 -1675 280 -430 608 -856
1291 -1680 135 -162 235 -288 224 -280 -12 8 -149 128 -305 265 -1166 1029
-1782 1487 -2433 1805 -340 166 -601 253 -910 301 -121 19 -399 16 -520 -5
-219 -39 -439 -132 -625 -264 -112 -79 -314 -276 -392 -382 -160 -215 -241
-451 -255 -740 -26 -574 283 -1142 797 -1461 230 -142 561 -254 821 -275 99
-9 82 -22 -28 -23 -151 -2 -390 -49 -561 -112 -223 -82 -397 -193 -568 -363
-222 -222 -344 -449 -416 -768 -20 -88 -23 -131 -23 -293 0 -197 8 -262 50
-410 46 -162 124 -320 231 -464 80 -108 322 -344 434 -423 498 -354 1093 -401
1805 -143 595 216 1261 630 2135 1329 234 187 760 617 765 627 4 5 11 9 18 9
6 0 -7 -19 -29 -42 -97 -102 -653 -752 -855 -998 -746 -913 -1147 -1603 -1295
-2230 -107 -452 -72 -845 108 -1205 175 -347 504 -680 814 -821 225 -102 489
-147 731 -125 212 20 360 60 538 146 529 255 844 759 894 1430 4 61 9 88 10
60 10 -354 150 -776 348 -1055 88 -122 272 -307 393 -393 292 -207 659 -319
995 -304 378 17 670 155 959 451 605 623 603 1458 -9 2571 -241 438 -584 930
-1076 1545 -189 236 -296 367 -628 765 -69 83 -116 143 -106 135 11 -8 150
-130 310 -270 1170 -1029 1777 -1480 2420 -1795 349 -171 604 -256 920 -306
133 -22 410 -17 542 9 287 57 535 184 764 391 317 288 468 596 486 991 26 595
-307 1181 -848 1490 -227 131 -529 225 -796 248 l-88 8 115 8 c298 19 500 68
726 176 323 153 560 383 717 696 162 323 202 742 102 1082 -76 260 -217 477
-456 707 -710 679 -1635 645 -2884 -108 -473 -285 -905 -605 -1755 -1301 -168
-137 -298 -241 -290 -231 8 11 76 89 151 175 410 469 768 897 976 1165 1197
1547 1416 2635 704 3487 -160 191 -362 356 -546 447 -343 168 -740 193 -1125
70 -90 -29 -271 -118 -355 -174 -424 -286 -671 -748 -712 -1330 l-7 -110 -8
109 c-28 402 -170 781 -405 1073 -349 438 -920 678 -1451 611z"/>
</g>
</svg>
