<?xml version="1.0" standalone="no"?>
<!DOCTYPE svg PUBLIC "-//W3C//DTD SVG 20010904//EN"
 "http://www.w3.org/TR/2001/REC-SVG-20010904/DTD/svg10.dtd">
<svg version="1.0" xmlns="http://www.w3.org/2000/svg"
 width="1280.000000pt" height="686.000000pt" viewBox="0 0 1280.000000 686.000000"
 preserveAspectRatio="xMidYMid meet">
<metadata>
Created by potrace 1.15, written by Peter Selinger 2001-2017
</metadata>
<g transform="translate(0.000000,686.000000) scale(0.100000,-0.100000)"
fill="#000000" stroke="none">
<path d="M6270 6854 c-14 -2 -56 -9 -95 -15 -79 -13 -241 -62 -297 -90 -59
-30 -50 -47 56 -108 100 -57 94 -49 143 -168 4 -10 -17 -13 -86 -13 l-92 0
-68 55 c-38 30 -77 55 -89 55 -46 0 -156 -169 -187 -286 -42 -161 8 -361 137
-554 64 -94 71 -92 148 40 l64 110 73 0 73 0 0 -57 c0 -88 -5 -95 -77 -133
-294 -152 -443 -342 -443 -564 0 -98 61 -277 125 -370 8 -11 15 -23 15 -27 0
-3 -57 -9 -127 -13 -739 -42 -1548 -194 -2308 -435 l-90 -28 -65 59 c-83 77
-158 125 -358 234 -254 138 -364 236 -475 422 -36 61 -51 79 -65 75 -17 -4
-18 -20 -18 -201 0 -229 -8 -290 -75 -587 -29 -125 -55 -270 -62 -337 l-11
-118 -110 -59 c-206 -110 -377 -236 -559 -411 l-113 -108 -64 55 c-284 242
-568 406 -970 559 -162 61 -190 66 -190 30 0 -6 27 -54 61 -106 126 -195 257
-448 449 -870 57 -124 132 -286 168 -360 63 -131 66 -138 72 -235 8 -123 34
-188 97 -245 51 -48 129 -87 191 -96 32 -5 49 -14 66 -38 13 -17 175 -256 361
-531 l337 -499 -11 -49 c-27 -118 -3 -236 63 -313 38 -45 113 -89 167 -99 33
-6 49 -23 183 -205 80 -109 152 -203 160 -209 10 -9 70 -3 247 24 1484 223
2560 315 3684 315 947 0 1831 -49 2980 -166 308 -31 514 -53 1107 -121 111
-13 149 -14 160 -5 8 6 75 112 149 236 l134 225 50 11 c119 26 217 103 249
197 22 63 20 161 -3 223 l-19 49 347 513 346 512 88 17 c152 30 222 80 252
183 16 53 19 171 6 246 -7 45 0 62 320 760 294 645 325 717 311 732 -13 16
-19 14 -86 -31 -104 -70 -221 -133 -506 -273 -246 -122 -387 -205 -478 -281
-24 -21 -46 -37 -49 -37 -3 0 -35 28 -71 61 -88 81 -206 173 -317 246 -94 63
-284 170 -346 196 l-36 15 -6 163 c-6 188 -16 247 -97 564 -40 158 -62 266
-69 344 -10 104 -18 130 -42 131 -3 0 -27 -27 -55 -60 -66 -81 -153 -152 -239
-194 -38 -19 -140 -68 -225 -109 -168 -82 -289 -166 -439 -305 l-86 -79 -130
39 c-592 176 -1458 327 -2142 374 -56 4 -106 10 -112 13 -7 5 -2 31 14 79 13
40 30 102 36 139 14 79 6 227 -15 296 -63 200 -213 354 -438 452 -74 32 -70
24 -83 143 l-6 52 81 0 81 0 84 -70 c46 -38 90 -70 97 -70 8 0 32 19 54 43
226 237 231 462 17 712 -81 96 -98 98 -150 18 l-38 -58 -88 -3 -87 -3 0 37 c0
30 11 50 63 113 35 42 62 83 60 92 -7 30 -179 96 -333 129 -56 12 -285 22
-330 14z m-628 -2670 c-5 -78 11 -160 44 -226 13 -26 24 -49 24 -51 0 -3 -18
1 -39 9 -165 57 -448 76 -581 40 -146 -40 -260 -115 -334 -220 -82 -116 -119
-248 -119 -421 1 -152 29 -238 195 -588 115 -245 163 -366 193 -490 30 -122
41 -279 26 -367 -15 -94 -7 -100 103 -77 386 79 596 354 596 779 0 86 17 131
63 163 77 54 140 -29 140 -185 0 -199 -117 -440 -292 -603 -295 -272 -755
-374 -1188 -261 -332 86 -624 290 -734 512 -32 66 -69 186 -69 226 0 41 21 96
40 106 63 34 151 -96 190 -282 26 -121 68 -206 139 -277 115 -117 293 -185
546 -206 111 -10 116 -2 70 100 -85 186 -99 297 -90 715 6 284 5 335 -10 405
-85 404 -332 675 -672 735 -129 23 -336 3 -473 -45 -24 -8 -44 -14 -46 -12 -2
1 -6 55 -10 119 l-7 115 249 61 c688 169 1340 266 1909 285 44 2 94 4 110 5
l31 2 -4 -66z m2290 21 c579 -48 1087 -137 1496 -261 l82 -25 0 -77 c0 -42 -3
-93 -6 -113 l-6 -36 -43 23 c-110 62 -271 93 -390 75 -350 -52 -633 -346 -740
-768 -13 -53 -15 -128 -13 -490 3 -425 3 -429 -21 -513 -13 -47 -38 -117 -56
-156 -45 -98 -38 -108 64 -99 134 12 287 51 388 100 167 81 257 198 294 381
35 168 90 277 153 299 24 8 31 6 47 -13 53 -67 23 -230 -72 -388 -121 -200
-433 -397 -747 -470 -132 -31 -375 -43 -502 -25 -478 70 -827 365 -925 781
-17 75 -19 169 -5 221 30 108 149 122 210 24 17 -28 21 -54 24 -176 3 -79 12
-178 20 -219 54 -253 221 -389 539 -438 77 -12 80 -7 67 107 -18 157 12 322
90 503 20 47 80 167 133 266 185 343 221 441 219 605 -2 166 -46 307 -133 422
-156 206 -462 274 -820 181 -52 -14 -102 -28 -111 -31 -16 -6 -15 0 7 48 31
72 49 175 41 239 l-7 51 273 -6 c150 -4 353 -14 450 -22z m2948 -823 c168
-101 296 -193 424 -306 l69 -61 -74 -6 c-127 -11 -222 -70 -285 -177 -14 -24
-28 -42 -30 -40 -2 2 6 29 17 59 13 33 23 87 26 139 4 72 2 94 -17 144 -44
116 -163 205 -326 243 l-71 16 31 53 31 53 65 -36 c36 -20 99 -57 140 -81z
m-8610 22 c12 -19 21 -36 19 -38 -2 -1 -38 -15 -79 -30 -151 -57 -247 -135
-294 -236 -40 -86 -33 -217 19 -355 4 -11 -9 5 -30 35 -20 30 -49 68 -63 83
-40 42 -137 85 -211 93 l-64 6 24 20 c152 121 633 458 654 458 2 0 13 -16 25
-36z m-211 -899 c0 -5 -6 1 -14 15 -8 14 -14 30 -14 35 0 6 6 -1 14 -15 8 -14
14 -29 14 -35z m149 -241 c31 -39 118 -140 192 -224 230 -259 302 -372 318
-497 10 -78 26 -86 99 -48 216 115 277 325 177 610 -48 134 -61 192 -47 206
39 39 161 -157 199 -319 46 -196 -43 -373 -261 -517 -153 -101 -145 -99 -355
-99 -163 -1 -196 2 -273 22 -159 42 -274 108 -371 213 -100 107 -216 295 -216
348 l1 26 27 -32 c72 -84 104 -126 169 -223 120 -179 222 -254 416 -305 102
-27 252 -49 273 -41 25 10 15 41 -27 81 -126 123 -241 328 -315 563 -39 127
-126 386 -149 447 -4 11 14 -16 39 -60 26 -44 73 -112 104 -151z m8553 84
c-39 -87 -110 -307 -171 -533 -28 -104 -58 -212 -67 -238 -20 -65 -8 -80 56
-71 64 9 167 42 226 71 98 49 126 80 383 421 41 54 42 55 42 26 0 -32 -74
-168 -147 -271 -70 -99 -183 -198 -277 -242 -137 -66 -193 -76 -416 -76 -189
1 -197 2 -265 28 -164 65 -301 171 -350 271 -61 126 -50 268 36 438 67 133
133 208 183 208 23 0 20 -23 -10 -82 -80 -158 -131 -348 -120 -450 13 -128 90
-227 227 -293 87 -42 104 -37 112 32 17 143 84 246 371 568 48 54 116 134 149
177 33 43 61 78 63 78 2 0 -10 -28 -25 -62z"/>
</g>
</svg>
