<?xml version="1.0" standalone="no"?>
<!DOCTYPE svg PUBLIC "-//W3C//DTD SVG 20010904//EN"
 "http://www.w3.org/TR/2001/REC-SVG-20010904/DTD/svg10.dtd">
<svg version="1.0" xmlns="http://www.w3.org/2000/svg"
 width="1280.000000pt" height="1280.000000pt" viewBox="0 0 1280.000000 1280.000000"
 preserveAspectRatio="xMidYMid meet">
<metadata>
Created by potrace 1.15, written by Peter Selinger 2001-2017
</metadata>
<g transform="translate(0.000000,1280.000000) scale(0.100000,-0.100000)"
fill="#000000" stroke="none">
<path d="M6100 12794 c-399 -23 -950 -102 -1062 -152 -69 -31 -143 -105 -180
-180 l-33 -67 -5 -368 -5 -369 -170 -58 c-287 -98 -506 -189 -728 -303 l-118
-60 -252 250 c-300 298 -314 307 -467 308 -86 0 -101 -3 -160 -31 -110 -52
-431 -291 -670 -498 -211 -184 -532 -505 -716 -716 -206 -239 -445 -559 -498
-670 -28 -59 -31 -74 -30 -160 1 -156 8 -167 306 -467 l251 -252 -60 -118
c-114 -222 -205 -441 -303 -728 l-58 -170 -369 -5 -368 -5 -67 -33 c-75 -37
-149 -111 -180 -180 -37 -83 -102 -474 -135 -817 -24 -252 -24 -838 0 -1090
33 -343 98 -734 135 -817 31 -69 105 -143 180 -180 l67 -33 368 -5 369 -5 58
-170 c98 -287 189 -506 303 -728 l60 -118 -251 -252 c-298 -300 -305 -311
-306 -467 -1 -86 2 -101 30 -160 53 -111 292 -431 498 -670 184 -211 505 -532
716 -716 239 -207 560 -446 670 -498 59 -28 74 -31 160 -30 156 1 167 8 467
306 l252 251 118 -60 c222 -114 441 -205 728 -303 l170 -58 5 -369 5 -368 33
-67 c37 -75 111 -149 180 -180 83 -37 474 -102 817 -135 252 -24 838 -24 1090
0 343 33 734 98 817 135 69 31 143 105 180 180 l33 67 5 368 5 369 170 58
c287 98 506 189 728 303 l118 60 252 -250 c300 -298 314 -307 467 -308 86 0
101 3 160 31 110 52 431 291 670 498 211 184 532 505 716 716 206 239 445 559
498 670 28 59 31 74 30 160 -1 156 -8 167 -306 467 l-251 252 60 118 c114 222
205 441 303 728 l58 170 369 5 368 5 67 33 c75 37 149 111 180 180 37 83 102
474 135 817 24 252 24 838 0 1090 -33 343 -98 734 -135 817 -31 69 -105 143
-180 180 l-67 33 -368 5 -369 5 -58 170 c-98 287 -189 506 -303 728 l-60 118
251 252 c298 300 305 311 306 467 1 86 -2 101 -30 160 -53 111 -292 431 -498
670 -184 211 -505 532 -716 716 -239 207 -560 446 -670 498 -59 28 -74 31
-160 30 -156 -1 -167 -8 -467 -306 l-252 -251 -118 60 c-222 114 -441 205
-728 303 l-170 58 -5 369 -5 368 -33 67 c-37 75 -111 149 -180 180 -83 37
-480 103 -807 133 -161 15 -710 27 -855 19z m620 -3779 c474 -59 903 -235
1293 -532 131 -100 370 -339 470 -470 296 -389 473 -820 532 -1293 20 -162 20
-478 0 -640 -59 -473 -236 -904 -532 -1293 -100 -131 -339 -370 -470 -470
-390 -297 -819 -473 -1293 -532 -162 -20 -478 -20 -640 0 -474 59 -903 235
-1293 532 -131 100 -370 339 -470 470 -296 389 -473 820 -532 1293 -20 162
-20 478 0 640 59 473 236 904 532 1293 100 131 339 370 470 470 385 292 816
471 1281 531 150 19 498 20 652 1z"/>
</g>
</svg>
