<?xml version="1.0" standalone="no"?>
<!DOCTYPE svg PUBLIC "-//W3C//DTD SVG 20010904//EN"
 "http://www.w3.org/TR/2001/REC-SVG-20010904/DTD/svg10.dtd">
<svg version="1.0" xmlns="http://www.w3.org/2000/svg"
 width="1280.000000pt" height="1040.000000pt" viewBox="0 0 1280.000000 1040.000000"
 preserveAspectRatio="xMidYMid meet">
<metadata>
Created by potrace 1.15, written by Peter Selinger 2001-2017
</metadata>
<g transform="translate(0.000000,1040.000000) scale(0.100000,-0.100000)"
fill="#000000" stroke="none">
<path d="M5770 10381 c-16 -30 -12 -66 10 -93 l19 -25 -45 5 c-39 4 -49 1 -75
-24 -38 -37 -37 -60 8 -106 37 -38 37 -38 12 -38 -34 0 -60 30 -112 126 -53
99 -72 106 -82 29 -10 -80 -31 -71 -74 33 -51 125 -61 108 -40 -71 6 -51 9
-114 7 -142 l-3 -50 -24 45 c-26 48 -95 145 -110 154 -6 4 -6 -6 0 -26 12 -45
11 -85 -3 -94 -10 -7 -26 9 -48 46 -8 13 -12 11 -25 -7 -19 -27 -39 -29 -88
-8 -41 17 -91 20 -82 5 3 -5 15 -10 26 -10 35 0 18 -40 -31 -75 l-45 -32 0
-64 0 -64 -42 -3 c-38 -3 -47 1 -89 40 l-46 42 -18 -23 c-12 -16 -23 -22 -35
-18 -12 5 -18 1 -22 -13 -7 -28 -19 -25 -66 15 -51 44 -77 46 -77 6 0 -21 16
-46 60 -95 33 -37 60 -70 60 -74 -1 -4 -7 -18 -15 -32 -19 -33 -19 -85 0 -146
20 -66 20 -183 -1 -212 -23 -34 -34 -27 -34 23 0 32 -4 45 -14 45 -26 0 -43
28 -50 81 -9 68 -35 117 -85 162 -42 38 -83 48 -98 25 -4 -7 -13 -33 -18 -58
l-10 -45 -121 3 c-175 6 -178 -5 -47 -177 57 -75 72 -109 47 -105 -5 1 -29 5
-53 9 -60 10 -49 -4 63 -75 121 -78 131 -87 115 -106 -9 -11 -23 -14 -44 -10
-38 8 -88 -23 -123 -74 -34 -51 -37 -75 -13 -106 22 -28 28 -54 11 -54 -5 0
-30 15 -54 34 -86 65 -149 70 -221 16 -21 -17 -69 -39 -106 -50 -63 -19 -89
-37 -123 -85 -14 -19 -15 -19 -40 8 -29 32 -29 32 -89 11 -52 -18 -114 -15
-191 7 l-48 14 -32 -38 c-21 -25 -39 -37 -56 -37 -14 0 -42 -11 -62 -25 -45
-30 -45 -30 -67 -3 -25 30 -62 18 -115 -37 -23 -25 -47 -45 -52 -45 -5 0 -34
25 -64 55 -30 30 -57 55 -61 55 -3 0 -9 -21 -12 -46 -2 -26 -10 -50 -17 -54
-7 -4 -39 -5 -72 -3 -58 6 -59 5 -96 -34 -60 -63 -89 -135 -84 -210 1 -12 17
-37 36 -55 40 -40 59 -75 52 -94 -9 -24 4 -42 47 -68 37 -22 127 -105 102 -94
-5 2 -32 14 -58 27 -42 19 -52 21 -85 11 -71 -23 -109 -55 -116 -98 -3 -22
-12 -45 -20 -51 -11 -9 -14 -1 -19 45 -3 30 -11 62 -18 70 -18 22 -47 17 -65
-11 -11 -17 -26 -25 -44 -25 -30 0 -80 40 -80 64 0 41 -103 62 -148 30 -27
-18 -28 -46 -5 -86 17 -29 17 -31 -2 -42 -43 -25 -74 -64 -80 -102 -12 -75
-29 -101 -74 -108 -22 -3 -43 -11 -47 -17 -17 -29 153 -149 212 -149 20 0 24
-5 24 -33 0 -43 -33 -159 -54 -191 -13 -21 -25 -26 -59 -26 -23 0 -69 -12
-102 -26 -33 -15 -74 -29 -92 -31 -20 -3 -45 -19 -68 -44 -41 -45 -48 -46 -82
-19 -14 11 -35 20 -45 20 -17 0 -19 -5 -15 -32 2 -18 10 -47 18 -65 12 -29 11
-33 -11 -51 -26 -21 -19 -47 11 -39 10 3 22 1 25 -4 10 -17 -18 -40 -45 -37
-19 2 -27 11 -34 38 -14 58 -23 58 -77 1 -64 -68 -80 -64 -77 18 2 51 -1 63
-22 85 -32 34 -38 33 -50 -11 -6 -21 -21 -54 -34 -73 -34 -50 -47 -95 -47
-159 0 -91 -14 -96 -49 -18 -17 37 -33 67 -37 67 -4 0 -18 -10 -31 -22 -21
-19 -27 -21 -44 -9 -33 20 -34 5 -4 -39 33 -47 73 -78 124 -96 24 -8 36 -18
36 -31 0 -38 -93 -25 -167 24 -45 31 -57 24 -65 -34 -7 -52 11 -64 45 -30 l25
26 41 -34 c23 -19 71 -47 107 -63 95 -43 153 -122 116 -159 -21 -21 -56 -8
-63 25 -10 40 -23 52 -55 52 -22 0 -29 -5 -29 -18 0 -25 28 -49 112 -97 71
-40 85 -62 38 -58 -95 8 -150 7 -161 -4 -21 -21 -43 -15 -76 20 -40 40 -103
145 -103 169 0 25 -36 59 -55 52 -8 -4 -15 -16 -15 -29 0 -33 39 -155 61 -191
26 -43 24 -55 -19 -111 -57 -72 -57 -69 -21 -124 47 -74 26 -98 -66 -76 l-30
7 39 -35 c22 -19 58 -40 80 -46 23 -6 47 -13 54 -15 8 -2 11 -11 7 -24 -8 -24
18 -38 39 -21 23 19 25 47 5 92 -11 23 -17 44 -15 46 22 22 106 -73 106 -119
0 -23 4 -28 23 -28 29 0 47 -18 47 -46 0 -33 15 -37 57 -16 64 33 99 36 122
13 12 -12 21 -30 21 -42 l0 -20 26 20 c21 17 41 21 99 21 67 0 159 -22 170
-40 12 -19 -82 -59 -165 -72 l-85 -13 0 -45 c-1 -53 -9 -70 -34 -70 -24 0 -41
-20 -41 -47 0 -14 6 -23 16 -23 25 0 83 64 90 99 4 17 12 35 19 41 34 28 288
54 339 34 19 -7 21 -34 4 -34 -7 -1 -57 -5 -110 -9 -76 -7 -103 -14 -125 -31
-21 -16 -35 -20 -60 -15 -29 5 -33 3 -33 -15 0 -15 8 -22 30 -26 33 -7 55 -28
45 -44 -3 -5 -24 -10 -45 -10 -57 0 -75 -31 -73 -126 1 -41 -2 -76 -7 -79 -5
-3 -23 1 -39 10 -43 22 -88 20 -101 -6 -14 -25 6 -52 61 -79 60 -31 64 -43 28
-84 -17 -20 -37 -36 -44 -36 -7 0 -29 14 -50 30 -22 18 -50 30 -66 30 -27 0
-29 3 -29 41 0 33 -3 40 -17 37 -11 -2 -21 -19 -28 -48 l-11 -44 -23 37 c-24
39 -45 47 -59 22 -7 -13 -10 -12 -20 10 -15 32 -67 36 -77 5 -13 -41 -85 -6
-85 40 0 44 -71 37 -88 -7 -6 -16 -18 -54 -26 -86 -28 -114 -71 -141 -71 -46
0 51 -1 54 -25 54 -16 0 -28 -8 -35 -22 -8 -19 -18 -23 -54 -23 -40 0 -43 -2
-36 -22 18 -59 18 -78 -2 -78 -20 0 -60 38 -107 102 -32 45 -46 48 -46 10 0
-57 31 -123 66 -144 26 -15 34 -27 34 -49 0 -33 -7 -36 -36 -14 -32 24 -44 17
-71 -45 -15 -37 -32 -60 -42 -61 -9 0 -37 0 -64 1 -66 2 -72 -19 -18 -69 26
-24 41 -47 41 -62 0 -33 24 -65 71 -95 53 -33 48 -54 -14 -70 -51 -13 -72 -26
-88 -57 -7 -12 -7 -23 -1 -29 5 -5 67 -24 138 -42 l127 -32 -151 -54 c-152
-53 -203 -83 -184 -102 16 -16 72 -1 135 37 79 48 94 50 176 25 130 -40 212
-15 214 64 1 49 -21 69 -85 76 l-53 5 -35 65 c-19 35 -46 70 -59 76 -22 11
-22 13 -5 22 42 22 113 -34 99 -78 -4 -13 1 -22 15 -30 28 -15 53 4 44 33 -6
18 -3 19 22 12 16 -4 46 -11 67 -15 55 -11 61 -20 49 -74 -5 -25 -8 -46 -6
-46 2 0 20 11 40 25 66 45 130 28 220 -56 36 -35 54 -59 52 -72 -4 -30 -65
-57 -125 -57 -69 0 -102 13 -140 57 l-31 37 -21 -35 c-43 -71 -28 -84 153
-130 70 -18 137 -40 148 -49 20 -16 20 -18 4 -49 -22 -41 -9 -84 38 -130 44
-43 96 -51 127 -20 l23 23 -22 14 c-48 32 -14 75 68 87 61 8 102 -5 118 -38
14 -29 24 -33 122 -42 36 -3 84 -15 108 -27 44 -21 76 -65 66 -92 -8 -20 12
-20 91 -1 84 20 107 19 161 -10 36 -19 62 -25 110 -25 63 0 76 -7 51 -28 -7
-6 -28 -32 -46 -58 l-34 -46 55 37 c69 45 139 68 173 55 34 -13 31 -30 -9 -79
-23 -27 -38 -60 -46 -95 -8 -39 -22 -67 -50 -99 -47 -53 -60 -84 -60 -143 0
-55 11 -57 27 -4 7 21 33 73 58 115 24 42 49 92 54 113 10 36 58 90 111 126
14 9 44 16 72 16 37 0 50 4 58 20 21 38 100 50 100 15 0 -9 20 -14 69 -17 55
-3 75 -9 104 -31 19 -14 58 -36 86 -47 79 -31 171 -79 171 -90 0 -5 -24 -10
-52 -12 l-53 -3 3 -36 c1 -20 -4 -49 -13 -65 -8 -16 -15 -48 -15 -72 0 -61
-14 -80 -65 -93 -27 -7 -63 -28 -90 -51 -36 -32 -51 -39 -71 -34 -15 4 -30 1
-39 -7 -17 -17 -80 -24 -335 -37 -273 -13 -378 -35 -419 -83 -21 -26 -48 -20
-89 18 l-37 34 36 1 c63 0 181 95 213 170 8 19 24 43 35 52 16 13 21 29 20 60
0 37 -2 41 -12 24 -88 -139 -185 -252 -209 -244 -36 12 -15 87 38 139 34 32
44 59 23 59 -19 0 -112 -104 -131 -148 -16 -36 -22 -41 -34 -31 -10 8 -14 26
-12 53 2 33 0 41 -16 44 -17 4 -18 0 -12 -49 21 -154 25 -199 26 -251 0 -65
11 -79 34 -43 11 17 26 25 45 25 18 0 59 21 111 55 79 53 113 65 124 46 12
-18 -25 -81 -109 -185 -47 -59 -85 -113 -85 -119 -1 -13 -35 -55 -62 -75 -14
-11 -20 -9 -41 14 l-25 27 -27 -22 c-23 -17 -41 -21 -100 -21 -50 0 -76 -4
-84 -14 -20 -24 6 -31 137 -34 98 -3 133 -1 168 13 47 18 94 65 94 94 0 10 38
71 84 135 76 105 92 133 110 189 12 36 250 14 297 -29 15 -13 22 -15 31 -6 24
24 55 12 102 -38 51 -55 55 -65 27 -80 -28 -14 -52 -12 -72 6 -24 22 -35 13
-69 -62 -16 -36 -43 -82 -60 -104 -36 -46 -37 -52 -7 -41 36 14 70 -8 85 -54
11 -31 11 -56 3 -114 -6 -41 -9 -76 -6 -79 3 -3 40 5 84 16 93 26 114 27 131
7 19 -23 39 -19 153 30 156 66 177 61 177 -42 0 -67 9 -76 46 -48 31 24 44 18
44 -19 0 -34 1 -35 47 -42 67 -10 207 11 249 36 52 33 80 -1 28 -34 -17 -12
-24 -25 -22 -39 3 -20 9 -22 65 -23 65 -1 93 -14 93 -45 0 -23 18 -34 52 -30
22 2 30 -3 37 -22 13 -34 25 -40 88 -40 44 0 69 8 138 44 l84 43 39 -22 40
-22 65 24 c106 40 337 73 337 48 0 -5 -37 -30 -82 -56 -184 -107 -250 -159
-458 -362 -52 -51 -112 -100 -132 -108 -20 -9 -81 -21 -134 -27 -131 -14 -226
-46 -368 -123 l-118 -65 -67 57 c-36 31 -87 70 -113 87 -26 16 -57 46 -70 68
-13 21 -35 58 -50 82 -48 78 -96 74 -194 -15 -36 -33 -69 -58 -74 -55 -4 2
-10 18 -13 34 -5 21 -13 30 -33 34 -47 9 -53 0 -33 -41 23 -43 24 -62 5 -87
-12 -17 -20 -18 -95 -9 -44 5 -81 6 -81 3 0 -4 29 -15 65 -24 103 -28 167 -11
254 69 71 65 102 86 127 86 27 0 55 -37 74 -95 19 -58 47 -95 75 -95 14 0 48
-23 89 -60 121 -109 146 -113 268 -36 161 103 289 142 424 131 64 -5 88 -3
110 9 16 8 87 74 157 146 162 165 278 258 392 316 50 25 128 65 174 89 207
109 518 158 546 87 5 -13 9 -10 18 18 10 30 19 38 67 54 82 27 260 25 260 -3
0 -5 -13 -14 -30 -21 -25 -10 -30 -18 -30 -46 0 -27 -11 -46 -50 -89 -51 -56
-52 -62 -22 -98 14 -16 16 -14 33 22 20 44 151 187 180 196 49 16 333 -101
365 -150 10 -15 20 -53 22 -84 l4 -57 -66 -11 c-37 -6 -74 -17 -81 -23 -38
-31 -2 -53 109 -66 76 -9 96 -30 126 -131 72 -249 200 -506 403 -812 146 -219
197 -308 197 -344 0 -10 16 -66 36 -124 33 -95 36 -112 32 -188 -6 -119 -56
-218 -171 -341 -88 -94 -127 -142 -127 -154 0 -17 43 -22 256 -31 122 -5 235
-14 250 -20 44 -17 314 -23 658 -14 l308 7 -4 64 c-3 51 -13 80 -52 156 -195
376 -244 507 -253 673 -6 117 59 837 81 888 26 63 50 71 191 64 219 -11 534
22 601 64 17 10 54 23 81 29 28 5 88 27 134 49 l84 41 -55 -6 c-145 -14 -261
-47 -273 -76 -4 -10 -7 -10 -14 -1 -7 10 -13 10 -29 -2 -38 -28 -51 -19 -95
69 -23 46 -43 104 -46 129 -5 44 -5 45 33 58 24 8 85 14 153 14 l113 0 42 -45
c61 -67 66 -70 165 -80 59 -7 116 -20 168 -41 79 -31 93 -32 195 -13 35 6 37
5 46 -27 10 -42 38 -50 52 -15 10 28 22 31 112 26 71 -3 88 6 88 44 0 39 15
56 51 56 40 0 79 17 79 35 0 19 -41 29 -85 22 -46 -8 -92 7 -126 39 -19 18
-35 25 -55 22 -47 -5 -42 -34 10 -60 54 -26 62 -42 36 -68 -39 -39 -110 -15
-110 38 0 27 -1 27 -45 -2 -88 -60 -416 -51 -523 14 -27 16 -33 26 -30 48 l3
27 135 5 135 5 3 38 c2 25 8 37 18 37 8 0 33 10 54 22 49 29 71 15 40 -24 -11
-15 -20 -28 -20 -31 0 -2 21 0 46 5 59 13 83 6 135 -38 l44 -36 6 32 c13 60
34 71 160 82 126 11 182 26 187 49 2 13 -6 15 -51 11 -34 -3 -57 0 -61 7 -4 6
-27 11 -52 11 -31 0 -44 4 -44 14 0 23 22 33 80 38 30 3 96 20 145 39 l90 33
-40 8 c-22 4 -74 9 -115 9 -67 2 -81 -1 -134 -29 -32 -18 -69 -32 -81 -32 -28
0 -55 30 -55 61 0 13 -5 31 -10 39 -16 23 -38 -13 -46 -72 -6 -44 -9 -48 -34
-48 -15 0 -35 -9 -45 -20 -23 -25 -37 -16 -25 16 16 42 12 45 -26 19 -42 -28
-66 -31 -83 -11 -9 11 -6 18 15 35 27 21 112 51 145 51 24 0 33 18 19 35 -17
20 -68 18 -170 -5 -168 -38 -260 -18 -260 58 0 27 -20 41 -76 55 -100 25 -53
53 110 66 109 9 166 24 166 44 0 9 -74 4 -145 -10 -50 -9 -23 6 66 37 100 35
129 37 152 9 25 -29 42 -19 40 24 -2 35 0 37 126 121 137 92 269 160 339 175
35 7 46 6 67 -11 14 -11 62 -33 107 -49 46 -17 88 -37 95 -45 7 -10 9 -42 6
-95 -7 -96 3 -111 86 -135 49 -14 153 -48 189 -61 31 -12 6 33 -57 105 -38 44
-79 94 -90 113 -22 36 -27 69 -11 69 6 0 10 -8 10 -18 0 -33 21 -42 104 -42
l80 0 -34 -29 -35 -29 50 -28 c121 -71 136 -127 42 -163 -15 -6 -27 -15 -27
-20 0 -48 124 16 175 89 33 48 29 64 -16 64 -28 1 -35 5 -37 24 -2 16 -14 27
-33 34 -30 10 -54 41 -44 58 3 5 20 6 39 3 29 -4 36 -1 55 26 31 44 78 42 168
-5 37 -20 81 -43 96 -51 15 -8 84 -21 153 -28 102 -11 137 -19 185 -42 32 -16
59 -28 59 -25 0 2 -13 21 -28 41 -55 70 -49 86 43 120 67 25 105 26 163 4 38
-14 52 -15 105 -4 46 9 81 9 137 1 126 -18 218 -50 205 -70 -9 -15 14 -12 75
10 68 24 123 25 141 4 19 -23 149 -13 226 18 72 29 92 63 93 158 l0 64 -36
-37 c-20 -20 -47 -40 -59 -43 -63 -16 -88 25 -34 54 59 31 79 57 79 102 0 22
-2 40 -5 40 -3 0 -24 -12 -47 -28 -44 -29 -93 -33 -203 -18 -43 6 -65 2 -153
-28 -56 -20 -105 -36 -107 -36 -15 0 -2 60 20 92 29 44 63 58 80 34 13 -18 42
-21 65 -6 12 8 12 11 -3 28 -24 26 -21 32 16 32 57 1 110 18 136 45 l26 27
-41 -6 c-23 -3 -95 -24 -160 -47 -200 -68 -190 -66 -217 -41 -32 30 -55 28
-63 -5 -12 -56 -16 -64 -27 -60 -7 2 -12 25 -12 56 1 39 -2 49 -10 38 -15 -21
-50 -37 -82 -37 -31 -1 -113 -44 -198 -104 l-55 -39 -148 -12 c-81 -6 -153 -9
-160 -5 -8 4 12 22 55 51 47 30 68 50 68 64 0 17 -7 20 -52 20 -63 -1 -86 -19
-118 -92 -21 -45 -28 -53 -60 -59 -36 -6 -104 11 -197 50 -47 20 -48 32 -5 49
39 17 61 42 53 62 -7 20 -34 19 -81 -5 -47 -24 -103 -25 -173 -5 -39 12 -52
21 -52 35 0 10 -9 22 -20 25 -25 8 -26 31 -2 43 9 5 58 21 108 35 50 14 155
58 233 96 79 39 154 71 166 71 27 0 55 24 55 46 0 44 180 252 244 284 25 12
67 42 93 67 44 42 51 45 89 39 49 -6 134 -41 134 -55 0 -6 -34 -7 -90 -4 -61
4 -90 3 -90 -5 0 -14 42 -27 195 -58 202 -41 184 -41 182 -8 l-2 29 60 -2 c33
-1 87 -3 120 -5 51 -3 67 1 106 24 44 26 79 65 79 88 0 17 -36 11 -63 -10 -40
-32 -92 -50 -142 -50 -39 0 -47 3 -55 25 -5 14 -14 25 -20 25 -5 0 -10 4 -10
9 0 16 241 65 395 81 128 13 445 123 465 160 11 20 75 61 125 80 l30 11 -29
-30 -30 -31 33 0 c17 0 45 7 61 15 33 17 80 80 80 108 0 26 -61 48 -152 55
-43 2 -78 8 -78 11 0 4 17 13 37 20 128 47 104 173 -42 219 l-59 19 95 45 c67
32 105 56 125 82 16 20 37 36 46 36 22 0 48 38 48 70 0 39 18 50 85 50 58 0
105 18 105 40 0 21 -52 18 -165 -9 l-120 -29 50 44 c28 24 78 63 112 87 66 45
75 63 43 92 -19 17 -22 15 -102 -68 -73 -75 -146 -127 -178 -127 -18 0 -11 46
10 65 25 23 26 45 1 45 -24 0 -91 -74 -91 -100 0 -31 -14 -24 -33 15 -10 22
-31 42 -52 52 -34 16 -39 16 -84 0 -61 -21 -74 -21 -93 1 -26 30 -28 50 -7 76
29 37 38 32 32 -15 -5 -36 -4 -41 13 -37 10 2 24 13 29 26 9 21 14 22 62 16
47 -6 56 -3 83 19 35 30 79 41 165 42 l60 0 -2 -55 -2 -55 34 39 c19 22 35 45
35 52 0 7 -11 34 -25 60 -14 26 -25 59 -25 74 0 15 -7 33 -15 40 -24 20 -75
14 -92 -9 -15 -22 -48 -27 -73 -11 -12 7 -15 31 -15 102 -1 52 -4 99 -8 105
-6 9 -19 7 -51 -9 -24 -11 -50 -18 -59 -15 -8 3 -19 25 -25 49 -19 70 -27 77
-56 48 -29 -27 -31 -41 -14 -104 11 -41 10 -47 -8 -67 -20 -22 -66 -49 -83
-49 -6 0 -18 11 -27 25 -21 32 -6 75 26 75 26 0 26 12 -1 28 -27 17 -22 54 10
62 30 7 59 46 63 85 l3 30 -65 -3 c-49 -3 -70 1 -85 13 -11 9 -15 18 -10 21 6
2 26 12 45 22 l35 17 -3 88 c-3 83 -2 89 17 94 12 3 21 9 21 14 0 15 -36 10
-91 -11 -28 -12 -54 -18 -57 -15 -10 10 59 72 111 100 81 43 87 51 87 110 0
37 6 60 20 78 25 32 17 56 -22 64 -18 3 -34 15 -41 30 -14 30 -53 41 -74 20
-21 -21 -5 -42 37 -51 47 -9 40 -41 -13 -64 -27 -12 -55 -35 -73 -61 -49 -69
-49 -67 -29 104 8 65 13 121 11 122 -1 2 -16 -16 -33 -40 -41 -56 -80 -97 -92
-97 -6 0 -17 14 -26 30 -11 20 -23 30 -39 30 -45 0 -64 61 -21 68 33 7 45 23
45 61 0 45 7 55 47 69 42 14 109 61 152 106 29 29 32 38 21 50 -7 9 -10 29 -8
46 3 16 3 30 2 30 -2 0 -24 -22 -50 -50 -46 -49 -122 -89 -144 -75 -7 4 -10
19 -6 36 5 29 5 29 -44 29 -28 0 -50 4 -50 10 0 14 35 30 67 30 15 0 58 15 94
33 42 21 96 39 145 46 91 15 100 20 108 64 3 18 22 52 41 76 25 31 35 54 35
79 0 40 0 40 -82 -35 -50 -46 -87 -59 -69 -24 13 23 -8 45 -33 35 -18 -7 -56
-74 -56 -98 0 -32 -20 -24 -51 19 -46 64 -91 82 -224 90 -60 3 -118 3 -128 -1
-10 -3 -36 -42 -57 -85 -22 -42 -50 -85 -62 -93 -27 -19 -82 -31 -104 -22 -26
10 0 32 45 40 68 10 106 85 60 114 -18 12 -20 20 -15 53 6 36 4 40 -19 49 -49
19 -19 60 44 60 33 0 71 30 71 54 0 27 -20 28 -51 2 -17 -15 -35 -24 -40 -20
-5 3 -9 41 -9 85 0 60 -5 88 -20 116 -40 75 -21 127 61 168 61 31 132 48 324
75 177 25 227 36 278 62 41 20 46 43 13 62 -14 8 -20 8 -23 -1 -3 -7 -13 -23
-23 -35 -15 -19 -22 -21 -37 -12 -13 9 -18 24 -18 60 0 71 -23 70 -81 -5 -25
-33 -54 -63 -63 -67 -9 -3 -74 -12 -146 -19 -71 -8 -150 -17 -175 -21 l-45 -7
20 23 c32 35 74 53 113 46 29 -4 39 -1 62 24 18 20 38 30 57 30 32 0 132 54
135 73 0 6 2 17 3 22 2 6 3 15 4 22 0 7 15 29 33 49 l32 36 -23 19 c-22 18
-26 18 -41 4 -15 -14 -18 -13 -32 2 -9 10 -30 47 -48 82 -36 73 -70 111 -100
111 -15 0 -27 -15 -48 -57 -15 -31 -31 -56 -37 -55 -5 1 -11 20 -13 42 -3 41
-4 41 -40 38 -35 -3 -38 -5 -56 -60 -10 -32 -22 -58 -27 -58 -18 0 -33 49 -39
128 -7 87 -15 102 -56 102 -12 0 -27 7 -35 16 -11 14 -20 7 -74 -52 -45 -49
-66 -66 -78 -61 -9 3 -17 17 -17 30 0 13 -11 34 -25 47 -37 35 -106 33 -174
-3 -39 -22 -62 -28 -92 -25 -21 2 -39 2 -39 0 0 -2 11 -18 25 -37 32 -41 42
-93 22 -119 -13 -18 -15 -17 -21 17 -4 20 -11 39 -17 42 -5 4 -33 1 -62 -5
-61 -12 -83 -7 -90 21 -4 16 -12 20 -39 17 -43 -4 -51 -37 -14 -61 36 -24 63
-136 36 -152 -19 -12 -48 5 -60 35 -7 17 -29 40 -49 51 -56 34 -109 89 -116
121 -9 38 -35 52 -64 32 -30 -21 -24 -53 14 -74 19 -10 34 -29 40 -51 14 -49
23 -59 50 -59 15 0 34 -14 55 -40 18 -23 40 -40 52 -40 25 0 88 -62 88 -86 0
-37 -89 -204 -108 -204 -4 0 -13 14 -19 30 -6 17 -19 30 -28 30 -13 0 -15 7
-9 37 7 36 7 36 -24 30 -26 -5 -35 -2 -52 20 -12 15 -20 41 -20 62 0 55 -19
111 -47 139 -37 37 -50 15 -23 -38 40 -78 68 -308 39 -326 -6 -3 -23 5 -37 19
-33 31 -72 47 -117 47 -31 0 -34 -3 -40 -39 -12 -71 -71 -96 -87 -36 -4 16
-18 37 -30 47 l-23 16 23 40 c13 24 22 57 22 83 0 41 9 62 52 121 15 21 10 26
-30 34 -27 5 -36 2 -59 -25 -47 -53 -98 -35 -129 45 l-18 47 -37 -44 -38 -44
-41 40 c-48 47 -58 75 -36 107 9 12 16 35 16 49 0 40 10 59 31 59 10 0 19 6
19 13 0 25 45 55 184 121 147 70 206 108 206 132 0 29 -30 25 -87 -10 -32 -19
-126 -67 -208 -105 -175 -80 -247 -121 -241 -138 6 -14 -55 -44 -105 -50 -51
-7 -50 10 1 31 31 12 40 21 40 40 0 37 34 71 122 123 80 48 173 121 164 130
-2 3 -35 -13 -72 -36 l-68 -40 -43 39 c-50 47 -87 56 -54 14 39 -49 22 -84
-41 -84 -30 0 -38 -4 -38 -18 0 -33 -106 -112 -130 -97 -6 3 -10 24 -10 45 0
31 -5 43 -26 56 -34 23 -29 58 9 62 35 4 48 34 40 90 -8 61 10 81 123 131 55
25 122 59 151 77 28 18 54 30 57 27 3 -4 6 -25 6 -47 0 -55 10 -86 26 -86 12
0 24 32 39 102 8 41 48 82 127 128 75 44 118 77 118 92 0 16 -36 8 -72 -17
-20 -14 -39 -25 -41 -25 -3 0 -1 19 4 41 11 47 7 67 -22 103 -27 34 -35 33
-43 -5 -13 -67 -114 -174 -241 -254 -63 -40 -240 -109 -260 -101 -9 3 -8 18 6
58 13 37 17 67 12 102 -5 43 -4 48 13 44 10 -2 24 -17 29 -33 21 -64 51 -73
83 -27 13 17 36 32 64 39 25 7 64 29 90 52 25 23 66 49 91 60 24 11 52 30 61
42 30 43 11 170 -26 177 -15 3 -18 -4 -18 -39 0 -40 -5 -47 -88 -128 -91 -89
-167 -139 -195 -128 -14 5 -17 21 -17 79 0 65 -1 70 -14 52 -20 -26 -45 -10
-63 42 -25 73 -52 75 -122 10 -31 -29 -34 -30 -45 -12 -6 10 -21 31 -33 45
l-21 26 -26 -55 c-31 -66 -33 -103 -6 -130 32 -32 52 -25 133 47 94 83 112 0
45 -202 -15 -44 -18 -73 -13 -112 5 -44 3 -55 -14 -72 -37 -37 -65 -28 -101
35 -37 66 -112 144 -139 144 -22 0 -45 25 -36 40 4 6 20 8 40 4 50 -9 52 12 6
54 -48 44 -50 64 -15 115 14 21 23 44 21 51 -8 19 -115 37 -160 27 -21 -5 -56
-21 -77 -35 -38 -25 -60 -32 -60 -21 0 3 23 33 50 66 27 33 50 64 50 70 0 17
-80 89 -100 89 -23 0 -25 15 -5 50 27 47 14 151 -21 164 -17 7 -34 -24 -34
-61 0 -38 -14 -57 -35 -49 -13 5 -15 13 -10 37 5 24 2 35 -14 50 -14 13 -21
32 -21 58 0 49 -8 56 -32 25 -25 -31 -58 -28 -75 6 -7 14 -13 58 -13 98 0 39
-4 72 -8 72 -4 0 -16 -14 -26 -30 -43 -73 -108 -75 -122 -5 -9 48 -31 56 -58
22 -47 -59 -59 -22 -25 78 17 52 19 68 9 103 -21 81 -61 76 -142 -18 -24 -27
-46 -50 -50 -50 -17 0 -7 47 17 83 21 30 23 38 11 43 -18 7 -49 -9 -103 -53
l-43 -34 0 29 c0 43 -19 55 -70 43 -23 -5 -48 -7 -55 -5 -7 3 -27 35 -46 72
-25 49 -39 67 -54 67 -17 0 -20 -7 -20 -52 0 -41 -5 -57 -24 -77 -29 -31 -57
-34 -66 -7 -3 11 -27 42 -53 69 -71 76 -147 90 -260 50 -51 -19 -65 -21 -80
-10 -21 15 -48 27 -87 38 -16 5 -34 19 -40 32 -23 53 -111 14 -181 -81 l-44
-59 6 74 c6 62 4 77 -10 91 -24 23 -63 22 -76 -3 -8 -16 -21 -20 -58 -20 -71
0 -118 -52 -92 -100 18 -33 4 -36 -34 -6 -58 44 -97 113 -70 123 6 2 26 -8 43
-23 36 -30 49 -27 30 8 -23 44 -93 81 -144 76 -27 -3 -33 -10 -58 -73 -15 -38
-31 -73 -36 -78 -23 -23 -58 26 -81 111 -10 39 -14 43 -38 40 -29 -3 -39 -26
-41 -94 -2 -80 -46 -80 -82 0 -16 36 -16 42 -1 83 19 51 11 72 -33 88 -25 9
-31 6 -71 -38 -24 -27 -48 -66 -54 -87 -11 -40 -24 -50 -71 -50 -32 0 -37 11
-41 95 l-3 49 -65 22 c-35 13 -69 30 -76 38 -15 21 -21 20 -34 -3z m-432 -313
c-2 -15 -11 -24 -25 -26 -25 -4 -31 16 -11 36 20 20 40 14 36 -10z m-193 -28
c0 -8 -9 -15 -20 -15 -22 0 -24 -18 -12 -93 6 -34 5 -43 -5 -40 -23 8 -98 107
-92 122 7 17 80 46 109 43 11 -1 20 -9 20 -17z m146 -41 c24 -13 26 -75 2
-101 -20 -22 -76 -24 -93 -3 -14 17 -25 88 -16 111 5 13 14 15 47 10 23 -4 50
-11 60 -17z m2569 -36 c0 -18 -29 -16 -36 2 -4 8 -3 23 1 33 6 16 7 16 21 -2
8 -11 14 -26 14 -33z m448 -15 c-2 -15 -11 -24 -25 -26 -27 -4 -29 5 -6 30 22
24 35 23 31 -4z m-2852 -40 c24 -18 44 -36 44 -40 0 -5 -17 -8 -37 -8 -41 0
-83 31 -83 62 0 27 28 22 76 -14z m-617 -44 c45 -51 49 -62 25 -71 -13 -5 -10
-11 12 -34 l28 -29 -25 0 c-76 0 -162 123 -117 168 20 20 35 14 77 -34z m752
-35 c7 -13 9 -40 5 -68 -4 -32 -1 -60 11 -93 16 -46 16 -49 -3 -75 -26 -34
-38 -34 -42 0 -2 16 -14 34 -28 43 -34 23 -32 69 7 128 19 28 29 54 26 66 -7
27 9 25 24 -1z m634 -79 c18 -35 20 -73 3 -68 -15 5 -41 76 -32 89 8 14 12 11
29 -21z m-1111 -91 c31 -37 34 -54 7 -39 -29 15 -51 40 -51 56 0 22 16 16 44
-17z m-233 -36 c61 -53 78 -74 79 -101 0 -23 -2 -24 -67 -20 l-66 3 -9 -32
c-9 -35 -37 -56 -62 -47 -28 11 -17 46 30 96 44 47 46 52 40 94 -3 24 -2 44 2
44 5 0 28 -17 53 -37z m974 -43 c0 -16 -6 -26 -18 -28 -19 -4 -32 20 -23 44 9
25 41 13 41 -16z m-475 -67 c0 -35 -17 -53 -31 -32 -11 17 -12 103 -2 113 11
11 32 -43 33 -81z m-1129 27 l24 -19 -26 -1 c-14 0 -34 9 -44 20 -18 19 -17
20 2 20 12 0 31 -9 44 -20z m930 -39 c50 -40 56 -60 10 -37 -25 13 -79 76 -65
76 3 0 28 -17 55 -39z m-681 -20 c15 -30 13 -71 -5 -71 -19 0 -55 58 -48 76 8
20 41 17 53 -5z m-136 -17 c9 -8 16 -20 16 -25 0 -14 -39 -49 -55 -49 -34 0
-70 62 -48 83 12 13 72 7 87 -9z m4276 -22 c0 -5 -9 -17 -19 -26 -21 -19 -37
-7 -27 19 6 16 46 21 46 7z m-4183 -68 c3 -8 -2 -23 -11 -32 -16 -16 -18 -16
-31 1 -7 11 -11 25 -8 33 7 19 42 18 50 -2z m273 -44 c0 -23 -26 -38 -41 -23
-7 7 -5 16 6 27 22 22 35 20 35 -4z m-386 -6 c24 -9 19 -24 -8 -24 -26 0 -40
12 -29 24 8 8 17 8 37 0z m202 -60 c11 -26 12 -40 5 -47 -20 -20 -35 9 -32 61
2 32 10 27 27 -14z m259 -3 c10 -21 12 -32 4 -37 -13 -8 -34 13 -44 44 -10 34
21 28 40 -7z m2235 -156 c0 -19 -4 -35 -10 -35 -11 0 -14 53 -3 63 11 12 13 8
13 -28z m-1498 -170 c13 -28 6 -40 -17 -32 -17 7 -21 57 -5 57 6 0 16 -11 22
-25z m-2847 -395 c10 -31 -4 -44 -26 -24 -10 9 -19 23 -19 31 0 21 38 15 45
-7z m4595 -49 c0 -17 -4 -33 -10 -36 -6 -4 -10 8 -10 29 0 20 5 36 10 36 6 0
10 -13 10 -29z m-806 -72 c-9 -16 -32 -10 -39 11 -11 33 6 46 27 21 10 -13 15
-27 12 -32z m-2966 19 c-2 -15 -11 -24 -25 -26 -27 -4 -29 5 -6 30 22 24 35
23 31 -4z m-805 -36 c48 -50 29 -69 -30 -32 -20 12 -33 28 -33 40 0 29 31 25
63 -8z m3467 -65 c0 -10 -5 -15 -11 -12 -15 10 -30 55 -23 67 8 13 33 -29 34
-55z m3040 47 c0 -24 -19 -54 -35 -54 -20 0 -19 29 2 52 20 22 33 23 33 2z
m1845 -96 c64 -98 68 -114 54 -180 -6 -31 -9 -64 -6 -73 8 -19 -2 -19 -27 0
-30 22 -44 18 -51 -15 -8 -35 -15 -37 -39 -11 -36 40 -38 78 -9 214 14 70 29
127 32 127 3 0 24 -28 46 -62z m-1665 44 c0 -13 -67 -82 -79 -82 -20 0 -11 24
21 57 30 31 58 43 58 25z m1880 -57 c0 -19 -4 -35 -10 -35 -11 0 -14 53 -3 63
11 12 13 8 13 -28z m-7931 -3 c12 -22 2 -74 -13 -69 -6 2 -15 15 -20 29 -16
45 12 79 33 40z m3094 -10 c21 -23 50 -92 38 -92 -11 0 -91 87 -91 100 0 17
36 11 53 -8z m-3255 -15 c3 -15 -2 -18 -25 -15 -17 2 -29 10 -31 21 -3 15 2
18 25 15 17 -2 29 -10 31 -21z m6370 -54 c-3 -15 -15 -18 -83 -18 -64 0 -80
-3 -83 -16 -2 -14 -112 -76 -112 -63 0 9 53 54 85 71 46 25 105 42 153 42 36
1 43 -2 40 -16z m-2348 -33 c0 -24 -26 -38 -42 -22 -8 8 -8 15 2 27 18 21 40
19 40 -5z m4095 -6 c25 -39 40 -123 26 -156 -9 -24 -63 -68 -83 -68 -4 0 -14
24 -22 54 -11 37 -23 57 -36 61 -25 8 -25 19 2 58 56 83 84 95 113 51z m-6079
-38 c46 -46 61 -86 25 -66 -22 11 -91 89 -91 102 0 19 25 5 66 -36z m-1516 -1
c10 -12 10 -18 0 -30 -24 -29 -58 -7 -44 30 4 8 12 15 19 15 7 0 18 -7 25 -15z
m7153 -91 c-34 -70 -35 -79 -24 -108 21 -49 24 -79 11 -124 -13 -51 -33 -54
-60 -10 -18 30 -18 33 -2 42 37 20 42 56 12 86 -11 11 -20 26 -20 34 0 12 107
156 116 156 2 0 -13 -34 -33 -76z m637 56 c41 -41 15 -88 -83 -151 -84 -55
-96 -50 -47 18 22 31 45 75 51 97 16 60 43 72 79 36z m-5530 -15 c0 -8 -4 -15
-10 -15 -18 0 -30 -37 -20 -69 10 -36 6 -38 -37 -11 -42 25 -41 42 4 79 41 34
63 39 63 16z m3708 -7 c18 -18 15 -56 -5 -66 -10 -6 -38 -13 -62 -17 -31 -5
-56 -19 -87 -47 -45 -42 -79 -47 -79 -13 0 11 10 24 23 30 13 6 26 23 30 40 8
28 12 30 56 31 38 2 54 7 73 28 27 29 34 31 51 14z m-2778 -65 c0 -7 -6 -13
-13 -13 -21 0 -35 20 -30 41 5 19 7 19 24 3 11 -9 19 -23 19 -31z m-4292 -5
c4 -21 -34 -34 -54 -17 -11 9 -12 15 -2 26 15 18 52 13 56 -9z m5170 -10 c13
-13 16 -47 6 -72 -8 -20 -50 -21 -57 -2 -10 25 13 86 32 86 4 0 12 -5 19 -12z
m1072 0 c0 -26 -21 -88 -30 -88 -23 0 -29 37 -10 68 20 32 40 42 40 20z m2916
-13 c8 -20 -13 -45 -38 -45 -27 0 -35 30 -13 46 25 18 44 18 51 -1z m-6116
-35 c23 -44 27 -104 8 -98 -20 7 -58 80 -58 111 0 40 26 34 50 -13z m5335
-104 c-19 -109 -35 -146 -64 -146 -38 0 -55 87 -20 108 13 9 18 19 14 32 -8
24 27 93 57 114 32 23 34 10 13 -108z m-4825 110 c0 -2 5 -27 10 -56 6 -30 7
-63 4 -74 -6 -19 -7 -19 -20 -1 -16 22 -19 135 -4 135 6 0 10 -2 10 -4z m5370
-46 c0 -26 -36 -46 -55 -30 -21 17 -1 50 30 50 18 0 25 -5 25 -20z m-9375 -20
c4 -6 -7 -10 -24 -10 -17 0 -31 5 -31 10 0 6 11 10 24 10 14 0 28 -4 31 -10z
m4283 -17 c4 -30 -15 -29 -53 3 l-30 25 40 -3 c33 -2 41 -7 43 -25z m4652 -27
c0 -48 -18 -74 -38 -54 -25 25 -7 98 23 98 11 0 15 -12 15 -44z m-4755 -7 c22
-41 14 -64 -17 -48 -29 15 -38 28 -38 57 0 34 36 29 55 -9z m3119 4 c11 -26
-24 -42 -53 -24 -12 8 -12 12 -2 25 18 21 47 20 55 -1z m1956 1 c0 -21 -18
-54 -30 -54 -13 0 -13 26 0 51 13 23 30 25 30 3z m-6362 -24 c41 -25 43 -43 3
-29 -35 12 -72 49 -50 49 8 0 29 -9 47 -20z m303 -1 c8 -15 8 -24 0 -32 -15
-15 -46 16 -38 37 9 22 24 20 38 -5z m1629 8 c0 -21 -35 -48 -54 -41 -16 6
-22 35 -9 47 12 13 63 7 63 -6z m3740 -29 c17 -22 39 -71 50 -109 20 -65 32
-79 70 -79 10 0 28 -9 41 -20 l24 -19 -24 -1 c-16 0 -43 -20 -82 -62 -69 -74
-82 -69 -76 25 l3 57 -33 0 c-27 0 -35 5 -43 26 -14 36 -12 54 5 54 12 0 11 8
-5 46 -11 25 -20 53 -20 62 0 17 38 62 52 62 4 0 21 -19 38 -42z m-2120 -8 c0
-33 -31 -114 -53 -137 -16 -18 -32 -23 -68 -23 -26 0 -54 3 -63 6 -22 8 -20
36 5 68 23 30 64 35 95 11 36 -27 46 -19 39 29 -8 51 -2 66 26 66 12 0 19 -7
19 -20z m115 0 c3 -5 1 -28 -5 -50 -18 -65 -60 -66 -62 -2 -1 17 5 38 12 47
14 17 46 20 55 5z m-349 -25 c7 -16 -20 -65 -36 -65 -15 0 -22 38 -10 60 13
24 38 26 46 5z m2974 -18 c0 -24 -86 -87 -120 -87 -16 0 -12 35 8 53 44 40
112 60 112 34z m-5524 -23 c12 -17 12 -23 1 -38 -13 -17 -14 -17 -30 -1 -23
22 -23 68 -1 63 9 -2 23 -12 30 -24z m1009 5 c4 -12 3 -25 -2 -30 -12 -12 -47
26 -38 40 11 18 33 12 40 -10z m-2303 -64 c13 -28 6 -40 -17 -32 -17 7 -21 57
-5 57 6 0 16 -11 22 -25z m1695 -8 c12 -12 25 -36 29 -54 5 -27 1 -37 -25 -63
-20 -20 -39 -30 -53 -28 -19 3 -24 13 -35 77 -8 41 -11 81 -8 89 8 20 64 8 92
-21z m-287 -18 c14 -51 8 -69 -25 -69 -41 0 -54 56 -22 98 18 23 36 12 47 -29z
m-404 -14 c14 -25 24 -48 21 -51 -6 -6 -67 74 -67 88 0 21 22 4 46 -37z m2809
-7 c-10 -32 -30 -51 -50 -46 -16 3 -15 7 9 36 32 37 50 42 41 10z m680 -12
c18 -13 17 -16 -23 -76 -23 -35 -42 -69 -42 -76 0 -29 -241 -49 -268 -22 -29
29 2 108 42 108 7 0 30 16 50 35 41 39 76 46 76 16 0 -10 -7 -24 -15 -31 -9
-7 -13 -15 -10 -18 7 -8 45 29 45 44 0 7 8 18 18 23 25 15 105 13 127 -3z
m1525 -42 c0 -23 -20 -16 -30 12 -6 14 -10 31 -10 37 1 17 40 -32 40 -49z
m800 -25 c0 -45 -31 -75 -62 -58 -25 14 -23 34 7 53 22 15 25 22 20 54 l-6 37
20 -24 c14 -15 21 -37 21 -62z m-6064 -11 c29 -32 37 -48 25 -48 -17 0 -91 71
-85 81 7 12 33 -3 60 -33z m-766 -23 c0 -26 -22 -39 -39 -22 -22 22 -2 61 25
50 8 -3 14 -15 14 -28z m385 -1 c0 -13 -7 -19 -24 -19 -30 0 -53 31 -32 44 21
13 56 -3 56 -25z m2118 -13 c-5 -36 -3 -39 27 -49 26 -10 31 -16 28 -39 -4
-41 -38 -41 -63 -1 -12 18 -34 35 -55 42 -19 6 -36 19 -38 28 -4 20 51 58 85
58 19 0 21 -4 16 -39z m1547 31 c0 -5 -18 -17 -40 -27 -39 -18 -100 -76 -100
-95 0 -5 -13 -7 -29 -4 -21 5 -41 0 -65 -16 l-36 -22 0 26 c0 17 15 41 43 70
35 37 50 45 92 51 28 3 66 10 85 15 48 11 50 11 50 2z m2450 -12 c0 -21 -51
-85 -83 -101 -15 -8 -23 -7 -34 4 -14 14 -12 17 13 30 16 9 45 31 63 51 19 20
36 36 38 36 2 0 3 -9 3 -20z m180 9 c0 -31 -74 -126 -119 -152 -59 -35 -26 39
54 118 44 44 65 55 65 34z m-6540 -49 c0 -20 -17 -30 -37 -22 -16 5 -17 34 -1
50 15 15 38 -2 38 -28z m1760 23 c0 -5 -14 -32 -31 -62 -21 -36 -34 -50 -41
-43 -14 14 -2 44 33 80 32 33 39 37 39 25z m314 -36 c7 -26 6 -41 -1 -48 -19
-19 -33 1 -33 47 0 56 20 56 34 1z m3941 3 c9 -10 15 -26 12 -35 -8 -19 -76
-20 -102 -1 -19 14 -19 15 -1 35 24 26 67 27 91 1z m-5045 -12 c19 -21 28 -58
13 -58 -16 0 -43 35 -43 57 0 29 4 29 30 1z m-599 -29 c8 -15 8 -24 0 -32 -15
-15 -46 16 -38 37 9 22 24 20 38 -5z m5829 -5 c14 -36 12 -54 -6 -61 -25 -9
-37 12 -30 51 8 42 23 46 36 10z m505 -61 c-10 -26 -29 -57 -41 -70 -24 -24
-64 -31 -64 -13 0 20 31 71 67 111 47 52 63 39 38 -28z m-5545 49 c0 -5 -9
-17 -20 -27 -23 -21 -45 -9 -34 18 6 17 54 24 54 9z m-1030 -40 c23 -28 25
-59 8 -96 -30 -68 -98 -24 -98 64 0 35 5 52 16 58 24 13 51 4 74 -26z m308
-44 c-2 -15 -11 -24 -25 -26 -25 -4 -31 16 -11 36 20 20 40 14 36 -10z m990
-31 c4 -31 -12 -36 -28 -8 -15 29 -12 43 8 39 10 -2 18 -14 20 -31z m5091 19
c6 -7 8 -21 5 -30 -6 -16 -8 -16 -25 0 -11 9 -19 23 -19 31 0 17 24 17 39 -1z
m-2368 -55 c-12 -21 -69 -56 -78 -48 -8 9 15 44 44 67 31 24 51 13 34 -19z
m-3931 9 c0 -5 18 -10 40 -10 37 0 39 -2 46 -36 6 -34 47 -94 64 -94 4 0 7 17
6 38 -1 46 27 54 32 8 8 -67 -92 -206 -180 -252 -27 -14 -28 -13 -28 9 0 14
10 37 21 52 18 22 28 26 50 21 41 -8 38 15 -11 67 -21 24 -44 56 -50 71 -13
35 -13 136 0 136 6 0 10 -4 10 -10z m2194 -9 c8 -12 -42 -71 -60 -71 -22 0
-17 28 11 55 25 26 40 31 49 16z m4046 -1 c22 -14 2 -41 -51 -67 -64 -32 -99
-39 -99 -20 0 18 53 65 95 83 36 16 36 16 55 4z m-6750 -15 c32 -16 39 -42 16
-51 -23 -9 -76 24 -76 46 0 24 20 26 60 5z m965 -22 c25 -38 33 -73 15 -73
-14 0 -39 41 -46 78 -8 42 0 40 31 -5z m3640 27 c3 -6 -4 -10 -16 -10 -28 0
-59 -27 -59 -51 0 -22 -53 -67 -88 -75 -15 -4 -37 -18 -49 -33 -22 -25 -22
-25 -23 -4 0 14 16 35 47 60 26 21 66 57 90 81 41 41 84 55 98 32z m-3035 -70
c27 -53 26 -80 -2 -80 -32 0 -58 29 -58 65 0 29 15 55 32 55 4 0 17 -18 28
-40z m5410 25 c0 -8 -9 -19 -20 -25 -11 -6 -20 -21 -20 -34 0 -18 -8 -27 -30
-35 -17 -5 -39 -25 -50 -45 -20 -33 -47 -52 -58 -41 -3 3 3 14 14 26 10 11 19
36 20 55 0 18 9 44 20 55 44 50 124 78 124 44z m-6830 -54 c0 -23 -29 -63 -41
-56 -10 7 -12 88 -2 98 9 10 43 -23 43 -42z m217 7 c25 -24 54 -61 64 -83 20
-43 25 -115 9 -115 -5 0 -10 25 -10 55 0 52 -1 55 -25 55 -14 0 -28 7 -31 15
-4 8 -16 15 -29 15 -26 0 -40 14 -49 53 -7 29 -1 47 15 47 5 0 30 -19 56 -42z
m1612 22 c21 -11 51 -78 51 -114 0 -13 14 -40 30 -61 33 -42 110 -189 110
-211 0 -8 -4 -14 -8 -14 -24 0 -115 135 -131 196 -6 24 -19 43 -32 49 -32 14
-59 54 -65 97 -10 61 5 80 45 58z m233 -65 c0 -20 -3 -39 -6 -42 -3 -4 -6 15
-6 42 0 27 3 46 6 42 3 -3 6 -22 6 -42z m4548 16 c0 -12 -23 -31 -37 -31 -17
0 -17 37 0 43 14 5 37 -2 37 -12z m-5654 -17 c20 -78 -58 -384 -97 -384 -8 0
-10 19 -7 56 4 44 10 61 31 80 21 19 27 34 27 64 0 44 -6 49 -26 23 -12 -17
-14 -17 -30 -1 -20 20 -33 118 -15 118 6 0 14 -7 17 -15 11 -27 25 -16 46 35
23 55 44 64 54 24z m644 -11 c-24 -31 -60 -54 -73 -46 -4 2 14 22 40 43 54 43
66 44 33 3z m2960 23 c0 -20 -42 -48 -53 -37 -14 14 11 51 33 51 11 0 20 -6
20 -14z m-7685 -23 c-10 -42 -24 -51 -41 -29 -12 17 -12 22 3 38 26 28 47 23
38 -9z m3833 -60 c6 -17 8 -34 5 -37 -10 -10 -31 28 -38 70 -6 36 -6 37 7 19
8 -11 20 -34 26 -52z m6639 40 c4 -9 1 -19 -5 -21 -23 -7 -42 -34 -42 -58 0
-34 -14 -30 -25 9 -12 38 -46 48 -67 19 -15 -22 -69 -52 -93 -52 -21 0 -20 43
3 62 42 37 98 55 175 57 36 1 49 -3 54 -16z m-10400 -19 c3 -8 -2 -23 -11 -32
-16 -16 -18 -16 -31 1 -7 11 -11 25 -8 33 7 19 42 18 50 -2z m8231 -6 c2 -11
-6 -22 -23 -30 -21 -9 -29 -9 -42 4 -9 9 -13 24 -9 33 8 23 70 17 74 -7z
m2366 13 c8 -13 -20 -33 -41 -29 -10 2 -19 11 -21 21 -3 13 3 17 27 17 16 0
32 -4 35 -9z m-2507 -37 c-9 -56 -57 -100 -57 -52 0 20 44 88 57 88 3 0 3 -16
0 -36z m303 16 c0 -24 -26 -38 -42 -22 -8 8 -8 15 2 27 18 21 40 19 40 -5z
m-7684 -46 c4 -14 3 -28 -1 -32 -10 -10 -45 36 -45 59 0 17 3 18 20 9 11 -6
23 -22 26 -36z m4078 24 c33 -47 14 -78 -35 -58 -31 13 -39 46 -17 68 18 18
35 15 52 -10z m2709 0 c-3 -13 -21 -56 -39 -95 -25 -55 -38 -73 -53 -73 -11 0
-22 -9 -26 -20 -6 -18 -80 -80 -97 -80 -17 0 -6 20 47 85 30 37 58 79 61 93
12 56 16 63 52 87 46 31 62 32 55 3z m-6863 -7 c0 -22 -29 -36 -43 -22 -7 7
-6 15 3 26 17 21 40 19 40 -4z m7030 -15 c0 -12 -63 -76 -75 -76 -14 0 -1 32
24 59 31 33 51 40 51 17z m-3227 -7 c39 -20 77 -62 77 -85 0 -12 -11 -35 -24
-51 -25 -30 -91 -71 -100 -62 -9 9 -25 137 -19 161 9 43 12 48 28 48 9 0 26
-5 38 -11z m2772 1 c11 -18 -17 -41 -44 -38 -32 4 -32 19 0 35 29 16 36 16 44
3z m-5026 -24 c35 -18 55 -42 46 -56 -7 -12 -38 2 -72 33 -40 36 -25 49 26 23z
m-2184 -21 c0 -24 -24 -30 -49 -12 -25 18 -12 39 22 35 19 -2 27 -9 27 -23z
m4135 11 c0 -8 -9 -24 -19 -37 -15 -19 -22 -21 -32 -12 -9 9 -8 17 5 37 18 28
46 35 46 12z m-884 -42 c18 -43 15 -79 -6 -79 -15 0 -53 93 -43 107 11 19 35
5 49 -28z m4967 4 c7 -46 -6 -121 -27 -153 -13 -19 -24 -25 -44 -23 -40 4 -42
41 -4 73 22 18 32 37 37 72 4 27 9 51 12 56 10 16 21 5 26 -25z m-8004 -14
c31 -39 28 -64 -8 -64 -35 0 -61 23 -61 54 0 45 38 50 69 10z m4569 -19 c129
-65 219 -175 144 -175 -16 0 -37 9 -47 20 -22 25 -28 20 -49 -47 -21 -62 -38
-80 -56 -58 -16 20 1 83 29 109 24 22 17 46 -14 46 -26 0 -75 -35 -75 -54 0
-25 -41 -66 -65 -66 -38 0 -38 16 -2 57 55 62 61 78 43 124 -36 89 -16 98 92
44z m-984 11 c-18 -14 -18 -15 10 -45 l30 -31 -41 0 c-50 0 -80 28 -64 58 12
23 26 30 60 31 24 1 24 0 5 -13z m6106 -16 c0 -12 -59 -50 -77 -50 -21 0 -15
28 9 44 25 18 68 21 68 6z m-6332 -14 c29 -15 109 -93 101 -99 -2 -2 -26 -12
-53 -22 -40 -15 -51 -24 -64 -56 -18 -46 -34 -54 -72 -34 -39 20 -63 69 -64
128 -1 41 3 52 27 73 32 28 83 32 125 10z m6604 -3 c18 -22 29 -60 21 -79 -9
-23 -23 -16 -34 16 -6 17 -15 30 -20 30 -13 0 -36 -41 -44 -76 -6 -33 -38 -74
-57 -74 -6 0 -3 9 7 20 38 42 -32 67 -97 34 -56 -29 -307 -10 -276 21 5 5 454
123 474 124 6 1 18 -7 26 -16z m-1372 -18 c17 -20 -3 -45 -36 -45 -29 0 -33
34 -6 49 23 14 27 13 42 -4z m-8260 -5 c0 -24 -32 -70 -48 -70 -45 0 -56 51
-14 67 36 14 62 15 62 3z m3788 -55 c4 -37 2 -47 -8 -43 -19 6 -33 54 -25 85
9 37 26 15 33 -42z m-2358 30 c32 -17 55 -50 45 -66 -7 -10 -68 -3 -97 13 -18
9 -25 48 -11 61 10 11 32 8 63 -8z m2675 5 c8 -13 -13 -40 -31 -40 -14 0 -19
31 -7 43 10 10 31 8 38 -3z m-4247 -94 c3 -14 -3 -17 -30 -14 -35 3 -52 33
-27 49 17 10 53 -12 57 -35z m3394 7 c10 -10 31 -49 48 -86 24 -52 30 -81 30
-132 0 -83 -16 -101 -97 -111 -97 -12 -105 -18 -53 -42 l45 -20 -35 -1 c-89
-2 -130 91 -105 234 l7 40 -37 -42 c-20 -24 -43 -43 -51 -43 -22 0 37 81 122
168 76 79 85 81 126 35z m2740 -24 c-23 -22 -47 -37 -52 -34 -6 4 11 24 37 45
60 50 72 41 15 -11z m-6425 5 c3 -8 -1 -22 -9 -30 -13 -14 -17 -14 -31 1 -9 8
-14 22 -11 30 8 20 43 19 51 -1z m1563 -4 c-9 -17 -50 -30 -50 -16 0 20 16 36
36 36 22 0 23 -3 14 -20z m101 -1 c6 -12 7 -25 2 -30 -11 -11 -53 17 -53 37 0
22 38 17 51 -7z m5124 11 c4 -6 -8 -10 -29 -10 -20 0 -36 5 -36 10 0 6 13 10
29 10 17 0 33 -4 36 -10z m2820 -34 c32 -14 56 -27 54 -29 -2 -1 -65 0 -139 3
l-135 5 40 28 c49 35 94 33 180 -7z m-4655 6 c0 -5 -9 -17 -19 -26 -21 -19
-37 -7 -27 19 6 16 46 21 46 7z m5220 -38 c0 -32 -53 -90 -124 -136 -65 -42
-101 -50 -91 -20 3 11 -3 29 -15 45 -41 52 -9 102 59 91 28 -4 49 1 91 24 61
33 80 32 80 -4z m-2313 10 c4 -13 -70 -94 -85 -94 -7 0 -12 10 -12 23 1 49 84
110 97 71z m-7597 -8 c17 -22 9 -62 -12 -58 -10 1 -25 -9 -34 -24 -16 -24 -19
-25 -25 -8 -10 24 -11 89 -2 97 12 12 60 7 73 -7z m3844 -2 c20 -20 20 -30 0
-38 -28 -11 -54 3 -54 30 0 28 30 33 54 8z m3997 -3 c-15 -27 -73 -75 -109
-90 -38 -16 -62 -9 -62 18 0 32 95 88 153 90 24 1 26 -1 18 -18z m229 11 c0
-28 -68 -82 -105 -82 -27 0 -16 18 31 55 45 33 74 44 74 27z m1465 -2 c4 -6
-12 -10 -39 -10 -25 0 -46 5 -46 10 0 6 18 10 39 10 22 0 43 -4 46 -10z
m-9742 -12 c27 -14 46 -38 46 -58 0 -9 -8 -4 -23 14 -19 23 -29 27 -50 22 -28
-7 -34 2 -14 22 15 15 14 15 41 0z m-115 -35 c4 -28 -15 -29 -45 -4 -31 26
-29 33 10 29 24 -2 33 -8 35 -25z m4681 -4 c31 -50 46 -118 33 -140 -7 -10
-12 -29 -12 -42 0 -54 -55 -63 -94 -16 -32 38 -32 42 -1 103 14 27 25 64 25
81 0 54 21 60 49 14z m1631 7 c0 -20 -25 -37 -44 -30 -16 6 -16 8 0 25 20 22
44 25 44 5z m-5845 -46 c25 -22 57 -43 71 -46 13 -4 29 -14 34 -24 14 -26 12
-83 -3 -104 -24 -33 -79 -1 -64 38 5 14 11 15 27 6 31 -16 24 3 -15 43 -20 21
-45 37 -56 37 -22 0 -89 60 -89 79 0 25 51 9 95 -29z m1082 8 c32 -31 43 -58
24 -58 -11 0 -71 67 -71 80 0 17 13 11 47 -22z m4011 -2 c4 -35 -14 -58 -28
-36 -5 8 -10 28 -10 43 0 40 34 33 38 -7z m2202 14 c6 -11 7 -32 4 -46 -7 -26
-8 -26 -20 -9 -16 22 -19 75 -4 75 5 0 14 -9 20 -20z m-1025 -21 c8 -13 -23
-49 -42 -49 -17 0 -27 25 -19 45 6 17 52 20 61 4z m-4995 -39 c11 -11 20 -25
20 -31 0 -13 -63 25 -68 40 -6 19 27 12 48 -9z m2439 -11 c13 -38 14 -118 2
-138 -7 -11 -13 -8 -26 13 -23 35 -32 121 -15 141 18 22 27 19 39 -16z m150
-76 c-23 -48 -23 -48 -26 -17 -2 17 6 51 19 80 l22 49 4 -32 c2 -19 -6 -52
-19 -80z m1395 101 c24 -9 19 -24 -8 -24 -26 0 -40 12 -29 24 8 8 17 8 37 0z
m2506 -3 c0 -18 -106 -88 -117 -78 -11 12 11 50 40 68 34 20 77 26 77 10z
m-3688 -19 c7 -26 -9 -62 -27 -62 -24 0 -29 27 -11 55 19 29 32 32 38 7z
m3116 -13 c4 -23 -26 -51 -52 -47 -25 4 -33 33 -15 54 16 19 63 14 67 -7z
m803 1 c22 -12 27 -69 7 -71 -48 -4 -213 30 -201 41 10 10 121 38 151 39 13 1
32 -4 43 -9z m-5057 -26 c26 -19 12 -30 -22 -18 -31 11 -45 46 -15 38 10 -3
27 -12 37 -20z m586 -50 c28 -42 50 -81 50 -87 0 -16 -87 -1 -137 24 -71 37
-75 51 -28 99 21 22 45 40 52 40 7 0 36 -34 63 -76z m4641 65 c16 -8 18 -13 8
-25 -13 -16 -67 -18 -89 -4 -13 9 -12 12 4 25 23 18 50 19 77 4z m397 -11 c-2
-15 -11 -24 -25 -26 -28 -4 -31 22 -5 37 26 16 34 13 30 -11z m-4096 -15 c10
-9 18 -22 18 -30 0 -16 -32 -17 -48 -1 -15 15 -16 48 0 48 6 0 20 -7 30 -17z
m271 10 c9 -9 -22 -43 -40 -43 -16 0 -17 22 -1 38 13 13 31 16 41 5z m-3739
-33 c5 -30 6 -30 74 -30 55 0 75 -4 96 -21 34 -27 34 -68 1 -99 l-25 -23 -42
19 c-82 37 -128 92 -128 154 0 39 16 39 24 0z m4886 21 c0 -14 -49 -70 -71
-82 -16 -8 -21 -5 -29 16 -5 14 -13 25 -18 25 -14 0 -32 -23 -32 -42 0 -24
-21 -68 -33 -68 -18 0 0 90 23 115 31 33 160 62 160 36z m-4012 -74 c2 -15 -1
-27 -5 -27 -15 0 -33 23 -33 43 0 30 34 16 38 -16z m679 21 c6 -7 13 -26 17
-42 4 -15 18 -38 33 -50 84 -70 101 -88 111 -124 7 -22 12 -44 12 -51 0 -16
-42 -13 -69 5 -46 33 -149 228 -137 260 7 17 20 18 33 2z m471 0 c14 -14 16
-48 3 -48 -6 0 -17 10 -25 22 -22 31 -4 52 22 26z m4349 -4 c6 -17 -26 -46
-46 -42 -20 4 -27 38 -9 49 17 12 50 7 55 -7z m-7594 -32 c48 -21 72 -56 61
-87 -9 -23 -30 -18 -103 25 -73 44 -92 48 -111 25 -15 -18 -51 -20 -68 -3 -18
18 -15 28 8 28 14 0 20 7 20 21 0 21 4 21 73 17 42 -3 92 -13 120 -26z m4597
7 c18 -33 5 -51 -36 -47 -44 4 -65 28 -45 52 20 23 68 20 81 -5z m916 7 c7
-19 -13 -56 -31 -56 -21 0 -26 15 -15 44 10 28 37 35 46 12z m272 -30 c-2 -13
-10 -21 -23 -21 -23 0 -33 34 -14 45 20 13 40 -1 37 -24z m-860 12 c29 -29 3
-108 -35 -108 -37 0 -81 88 -56 113 11 12 78 8 91 -5z m3103 -2 c-45 -16 -57
-36 -65 -106 -8 -70 -23 -118 -44 -143 -20 -23 -84 -41 -116 -33 -23 6 -26 11
-26 51 0 65 -13 91 -50 99 -31 6 -32 7 -18 28 8 13 34 36 57 53 34 24 54 30
103 32 43 2 64 7 70 18 7 11 25 15 66 14 57 -1 57 -1 23 -13z m-7153 -50 c2
-10 -3 -16 -16 -16 -25 0 -46 25 -38 46 6 15 9 15 29 1 12 -8 23 -22 25 -31z
m3370 16 c19 -24 15 -59 -7 -65 -49 -12 -94 51 -56 79 19 14 44 9 63 -14z
m4052 -42 c0 -35 -18 -50 -55 -47 -27 2 -33 -4 -66 -67 -41 -79 -90 -129 -122
-124 -30 4 -34 44 -8 79 23 31 27 54 10 64 -22 15 -29 55 -14 90 17 42 36 44
77 10 34 -29 82 -33 116 -9 13 9 22 23 21 32 -1 10 -1 24 0 32 3 26 41 -30 41
-60z m-6452 9 c39 -38 60 -75 49 -85 -2 -2 -26 14 -53 36 -27 22 -66 46 -86
52 -30 9 -36 14 -27 25 6 7 26 13 44 13 25 0 42 -10 73 -41z m-2228 -10 c6
-23 -3 -85 -13 -96 -22 -21 -38 68 -21 112 9 22 27 14 34 -16z m2355 21 c4 -6
-10 -10 -34 -10 -23 0 -41 5 -41 10 0 6 15 10 34 10 19 0 38 -4 41 -10z m1793
-70 c28 -12 52 -24 52 -26 0 -2 -11 -14 -25 -28 -14 -14 -25 -35 -25 -46 0
-20 3 -21 63 -15 54 6 65 4 80 -13 20 -22 37 -109 37 -192 0 -62 21 -158 50
-238 24 -64 25 -119 3 -188 l-16 -52 32 -51 c37 -57 35 -91 -4 -91 -29 0 -60
50 -50 80 4 14 2 20 -9 20 -27 0 -26 17 4 82 16 34 30 80 30 100 0 35 -4 39
-62 74 -35 20 -92 57 -128 84 -36 26 -90 63 -120 82 -31 19 -68 50 -83 67 -30
36 -37 91 -12 91 25 0 23 74 -3 103 -8 10 -18 36 -21 59 -6 43 -28 65 -55 55
-18 -7 -21 -62 -7 -134 5 -24 6 -43 4 -43 -2 0 -17 28 -33 63 -46 96 -38 135
33 168 58 27 190 22 265 -11z m-3967 -1 c9 -17 8 -23 -2 -30 -29 -18 -59 -1
-59 33 0 26 46 24 61 -3z m523 -15 c66 -33 98 -63 94 -89 -2 -16 -9 -19 -32
-17 -35 4 -125 49 -186 93 -40 29 -42 33 -25 40 30 13 93 1 149 -27z m4184 15
c10 -15 10 -25 3 -32 -14 -14 -41 9 -41 34 0 25 22 24 38 -2z m3952 -2 c0 -7
-13 -34 -29 -59 -49 -77 -69 -74 -30 5 25 50 38 67 50 67 5 0 9 -6 9 -13z
m348 -13 c3 -23 -31 -59 -47 -49 -25 15 -1 78 27 73 9 -2 18 -12 20 -24z
m-7127 0 c55 -17 116 -69 182 -156 19 -26 40 -41 69 -49 23 -6 71 -28 106 -49
34 -21 86 -44 115 -50 65 -16 127 -40 127 -50 0 -4 -7 -13 -15 -20 -25 -20
-115 -6 -278 44 -81 25 -187 51 -235 57 -48 6 -94 14 -102 19 -10 4 -18 30
-23 71 -14 127 -14 127 -134 103 -91 -18 -110 -13 -98 25 19 60 170 89 286 55z
m-1621 -25 c173 -57 344 -129 364 -152 11 -14 32 -27 46 -31 14 -3 33 -19 42
-35 10 -18 38 -41 70 -57 29 -14 61 -33 71 -42 39 -35 4 -64 -37 -31 -32 25
-93 47 -309 110 -94 27 -179 56 -189 65 -9 9 -20 32 -24 51 -8 45 -40 67 -140
100 -46 15 -84 30 -84 34 0 23 103 17 190 -12z m484 22 c10 -15 -5 -41 -23
-41 -16 1 -61 33 -61 44 0 10 78 7 84 -3z m1497 -7 c11 -14 10 -18 -6 -30 -10
-8 -24 -14 -31 -14 -20 0 -58 36 -50 48 11 18 71 14 87 -4z m1187 -12 c4 -26
-22 -31 -32 -6 -10 26 -7 36 12 32 9 -2 18 -13 20 -26z m4207 17 c9 -13 -38
-85 -65 -99 -17 -9 -20 -7 -26 15 -7 30 17 72 49 85 30 12 35 12 42 -1z
m-2425 -13 c0 -25 -41 -66 -65 -66 -40 0 -38 18 6 50 46 33 59 37 59 16z
m-4194 -13 c16 -6 16 -7 -2 -13 -23 -8 -56 -1 -48 11 6 11 26 12 50 2z m2215
-36 c8 -13 8 -22 0 -30 -7 -7 -15 0 -26 26 -8 20 -15 39 -15 43 0 10 30 -18
41 -39z m7104 13 c0 -16 -6 -26 -18 -28 -19 -4 -32 20 -23 44 9 25 41 13 41
-16z m-1425 1 c0 -23 -24 -73 -40 -81 -24 -13 -60 -13 -60 0 0 16 71 90 86 90
8 0 14 -4 14 -9z m-8824 -30 c80 -9 164 -37 178 -60 4 -6 -3 -15 -17 -20 -23
-9 -94 -3 -237 19 -36 5 -91 10 -122 10 -54 0 -58 2 -58 24 0 19 4 22 24 19
14 -3 35 2 48 12 16 11 35 15 63 11 22 -3 77 -10 121 -15z m2639 -6 c0 -21
-25 -31 -52 -21 -14 6 -14 9 3 27 22 24 49 21 49 -6z m4765 0 c0 -29 -29 -85
-43 -85 -29 0 -31 54 -5 88 15 17 48 15 48 -3z m-4933 -57 c18 -18 23 -32 18
-45 -6 -15 -14 -10 -56 37 -27 30 -49 59 -49 63 0 12 57 -24 87 -55z m2224 41
c30 -16 50 -54 52 -98 2 -57 -13 -69 -55 -43 -18 11 -49 37 -68 57 -34 35 -34
36 -12 42 27 7 28 19 2 35 -11 7 -20 17 -20 22 0 10 74 0 101 -15z m167 9 c7
-7 12 -20 12 -31 0 -30 -34 -16 -38 16 -4 29 6 35 26 15z m2030 -20 c-2 -15
-11 -24 -25 -26 -28 -4 -31 22 -5 37 26 16 34 13 30 -11z m-5214 -14 c20 -19
21 -63 2 -70 -20 -8 -85 22 -93 42 -14 36 60 59 91 28z m2546 -16 c11 -18 23
-49 26 -68 11 -64 14 -69 47 -72 27 -3 36 -11 60 -55 17 -31 60 -82 110 -128
47 -43 75 -75 65 -75 -21 0 -27 -18 -17 -54 11 -39 6 -42 -30 -17 -17 12 -59
28 -93 35 -89 19 -96 23 -122 70 -30 50 -43 100 -56 205 -6 44 -17 98 -25 121
-24 68 0 95 35 38z m2910 12 c0 -12 -78 -65 -85 -58 -9 9 52 68 69 68 9 0 16
-4 16 -10z m-4836 -33 c86 -40 167 -138 99 -121 -78 20 -293 118 -293 133 0
29 122 20 194 -12z m769 16 c9 -9 -22 -43 -40 -43 -16 0 -17 22 -1 38 13 13
31 16 41 5z m3081 -2 c7 -11 -39 -31 -74 -31 -33 0 -39 14 -12 29 21 13 79 14
86 2z m-897 -43 c23 -25 53 -115 53 -160 0 -26 -3 -28 -37 -27 -98 1 -146 47
-124 120 10 33 60 89 80 89 4 0 17 -10 28 -22z m4832 8 c15 -18 3 -46 -20 -46
-25 0 -35 26 -19 45 15 19 24 19 39 1z m-339 -24 c21 -17 21 -19 5 -35 -9 -9
-25 -17 -36 -17 -51 0 -85 -27 -116 -91 -17 -36 -37 -70 -45 -77 -20 -16 -102
-27 -122 -15 -15 8 -13 13 16 42 18 18 50 42 70 53 24 14 41 33 48 53 13 39
43 69 90 89 46 20 63 20 90 -2z m-1480 -7 c29 -35 -8 -135 -60 -162 -68 -34
-64 63 6 146 29 35 36 37 54 16z m1123 9 c3 -4 -9 -27 -28 -52 -34 -44 -46
-92 -24 -92 6 0 31 18 56 40 50 43 92 55 73 21 -14 -27 -80 -80 -108 -87 -31
-8 -52 12 -52 52 0 72 53 148 83 118z m-109 -13 c3 -5 -13 -21 -35 -36 -49
-35 -137 -46 -158 -22 -10 13 -8 18 12 32 40 26 170 45 181 26z m-8225 -25
c15 -18 3 -46 -20 -46 -25 0 -35 26 -19 45 15 19 24 19 39 1z m403 0 c19 -8
57 -36 84 -61 40 -38 45 -45 24 -39 -22 5 -119 56 -159 83 -13 9 -8 31 8 31 5
0 24 -7 43 -14z m6644 -30 c-8 -39 -73 -106 -103 -106 -40 0 -28 38 31 97 59
59 82 62 72 9z m522 35 c11 -6 10 -11 -3 -25 -20 -19 -45 -21 -45 -3 0 13 19
37 30 37 3 0 11 -4 18 -9z m-5098 -21 c9 -16 8 -22 -4 -26 -21 -8 -36 3 -36
27 0 25 26 25 40 -1z m1130 -52 c0 -23 -26 -34 -44 -19 -16 13 -29 68 -20 83
9 14 64 -42 64 -64z m-2945 32 c25 -26 8 -45 -32 -36 -41 10 -67 32 -59 52 8
21 63 12 91 -16z m-475 -15 c0 -14 -10 -35 -22 -47 l-23 -23 -5 33 c-3 22 -13
38 -30 48 -24 13 -23 13 28 14 49 0 52 -1 52 -25z m6545 -6 c15 -28 15 -32 0
-49 -13 -14 -15 -28 -10 -59 8 -50 -4 -53 -29 -6 -16 29 -25 35 -53 35 -30 0
-33 2 -23 19 15 29 76 91 88 91 7 0 19 -14 27 -31z m-2837 5 c27 -19 28 -45 2
-69 -25 -23 -38 -12 -50 38 -11 51 5 61 48 31z m2212 -4 c0 -24 -37 -63 -50
-55 -15 9 -12 36 7 57 21 24 43 23 43 -2z m-6192 -24 c15 -8 39 -27 53 -43 65
-70 57 -103 -26 -103 -99 0 -125 24 -127 118 -1 65 18 71 100 28z m502 -11
c88 -26 179 -40 368 -54 104 -7 146 -20 128 -38 -3 -4 -35 -10 -70 -14 -35 -3
-84 -16 -108 -27 -50 -25 -91 -29 -165 -18 -68 10 -69 -3 -4 -64 67 -63 154
-106 185 -92 37 17 78 76 74 108 -4 35 18 42 74 23 34 -11 46 -10 81 3 23 8
48 13 55 11 14 -5 17 -43 2 -43 -6 0 -10 -27 -10 -60 0 -57 -1 -60 -19 -50
-44 23 -35 -24 12 -69 28 -26 27 -39 -10 -88 -28 -39 -39 -41 -63 -10 l-19 22
5 -35 c5 -27 0 -42 -17 -64 -28 -36 -92 -65 -142 -66 l-39 0 21 34 c25 40 26
46 6 46 -9 0 -25 -16 -37 -36 -26 -45 -51 -54 -141 -54 -70 0 -223 -13 -299
-26 l-38 -6 0 257 c0 239 1 256 18 251 53 -14 128 -16 146 -3 36 26 10 40 -62
33 -61 -6 -68 -5 -83 15 l-17 22 -27 -21 c-32 -26 -58 -28 -75 -7 -18 21 -11
31 60 90 77 63 92 65 210 30z m2155 -40 c67 -48 155 -139 155 -161 0 -19 -38
-37 -66 -30 -16 4 -26 17 -32 39 -6 22 -14 32 -27 32 -16 0 -21 10 -28 50 -8
48 -21 75 -38 75 -4 0 -5 -15 -2 -34 5 -31 3 -34 -15 -29 -24 6 -59 42 -62 63
-8 55 33 54 115 -5z m5613 22 c4 -19 -45 -47 -81 -47 -24 0 -55 25 -44 36 8 8
100 33 112 30 6 -2 11 -10 13 -19z m-8769 -3 c33 -24 11 -43 -23 -20 -28 18
-34 36 -13 36 7 0 23 -7 36 -16z m4302 -5 c57 -57 71 -199 19 -199 -27 0 -130
132 -130 167 0 12 58 53 78 53 6 0 21 -9 33 -21z m1234 -9 c4 -6 -7 -10 -24
-10 -17 0 -31 5 -31 10 0 6 11 10 24 10 14 0 28 -4 31 -10z m1581 -15 c9 -38
0 -53 -31 -47 -18 3 -36 -3 -57 -18 -34 -25 -45 -21 -28 12 38 72 104 102 116
53z m1339 15 c4 -6 -8 -10 -30 -10 -22 0 -34 4 -30 10 3 6 17 10 30 10 13 0
27 -4 30 -10z m-595 -13 c0 -16 -27 -41 -52 -50 -26 -9 -22 6 8 37 29 29 44
33 44 13z m746 -2 c9 -22 -4 -65 -21 -72 -23 -8 -65 6 -65 21 0 14 57 66 73
66 4 0 10 -7 13 -15z m-1656 -11 c0 -30 -54 -72 -104 -79 -48 -8 -75 3 -61 24
10 17 117 70 143 71 14 0 22 -6 22 -16z m-6823 -10 c3 -8 -2 -23 -11 -32 -14
-15 -18 -15 -31 -1 -9 9 -13 23 -9 32 8 21 43 22 51 1z m1583 -9 c17 -18 30
-23 47 -19 18 5 23 2 23 -14 0 -33 -18 -35 -65 -7 -52 30 -77 65 -47 65 10 0
29 -11 42 -25z m3000 18 c-1 -17 -28 -55 -70 -99 -41 -43 -45 -45 -48 -26 -4
27 29 84 65 112 26 20 53 27 53 13z m-1976 -78 c-6 -48 -4 -55 12 -61 49 -15
63 -35 45 -63 -15 -23 -59 -4 -91 41 -17 22 -30 47 -30 54 0 12 57 84 66 84 2
0 1 -25 -2 -55z m5640 39 c9 -8 16 -21 16 -28 0 -19 31 -43 65 -52 41 -9 54
-21 48 -44 -10 -40 -30 -44 -67 -16 -41 31 -46 32 -46 6 0 -10 9 -24 20 -30
26 -14 25 -34 -2 -72 -23 -33 -97 -71 -121 -62 -38 14 -48 93 -16 125 l21 21
-31 32 c-17 18 -31 40 -31 49 0 21 29 22 56 2 25 -19 48 -19 64 0 18 21 3 52
-30 64 -17 5 -30 12 -30 15 0 13 70 5 84 -10z m-3567 -30 c7 -18 -23 -51 -51
-56 -29 -5 -30 19 -2 47 29 29 44 32 53 9z m-4809 -10 c22 -15 62 -83 62 -104
0 -16 -73 -12 -99 6 -19 14 -22 22 -16 50 7 38 7 38 -29 24 -29 -11 -34 0 -10
24 20 20 63 20 92 0z m8130 -21 c26 -37 62 -121 62 -144 0 -15 -7 -19 -32 -19
-40 0 -55 -9 -59 -35 -5 -25 -45 -44 -110 -52 l-52 -6 7 29 c10 38 46 112 63
126 7 5 30 16 50 23 55 19 65 41 30 66 -15 12 -25 25 -21 30 11 18 43 8 62
-18z m-5202 -29 c14 -33 14 -41 -1 -83 -9 -25 -18 -53 -21 -62 -4 -11 7 -20
40 -33 55 -21 76 -48 76 -98 0 -48 -16 -49 -66 -5 -74 64 -116 159 -78 174 12
4 15 19 14 67 -3 75 -3 76 11 76 5 0 17 -16 25 -36z m4132 13 c3 -12 -17 -37
-57 -74 -43 -40 -64 -67 -71 -95 -12 -42 -44 -53 -55 -18 -14 45 -80 49 -69 4
5 -19 2 -24 -14 -24 -30 0 -35 15 -17 49 19 37 30 44 80 51 36 4 41 9 55 48
26 69 43 84 98 80 36 -2 48 -7 50 -21z m-6386 -32 c4 -16 10 -46 13 -66 3 -20
19 -57 37 -83 25 -38 32 -61 36 -115 5 -71 -7 -111 -33 -111 -8 0 -17 11 -21
25 -3 14 -11 25 -16 25 -16 0 -1 -58 22 -87 24 -31 27 -73 4 -73 -16 0 -42 24
-103 95 -31 37 -34 38 -46 21 -9 -12 -20 -16 -33 -11 -28 8 -90 79 -99 112 -7
24 -9 19 -13 -30 -3 -31 -9 -58 -15 -60 -13 -3 -53 70 -61 111 -6 30 -1 39 62
106 38 40 78 88 89 107 15 25 33 39 70 51 70 25 98 20 107 -17z m8189 25 c5 0
9 -4 9 -10 0 -5 -13 -10 -30 -10 -29 0 -38 9 -23 24 4 3 13 4 21 1 7 -3 18 -5
23 -5z m953 -6 c9 -3 16 -14 16 -25 0 -19 -10 -22 -113 -33 -77 -9 -121 30
-59 52 30 12 132 15 156 6z m-8515 -49 c32 -37 39 -55 20 -55 -16 0 -69 56
-69 74 0 25 15 19 49 -19z m5414 25 c7 0 4 -5 -6 -11 -10 -6 -30 -8 -45 -4
-25 7 -26 8 -7 15 11 5 26 7 33 4 8 -2 19 -4 25 -4z m817 2 c0 -15 -62 -82
-76 -82 -23 0 -16 20 20 56 32 32 56 43 56 26z m-6772 -55 c2 -15 -1 -27 -5
-27 -15 0 -33 23 -33 43 0 30 34 16 38 -16z m5777 4 c41 -23 44 -49 8 -56 -52
-12 -74 -24 -71 -42 3 -20 -38 -31 -54 -15 -11 11 6 85 28 120 17 25 35 24 89
-7z m2593 5 c5 -22 -13 -36 -45 -36 -27 0 -29 16 -6 42 20 23 46 20 51 -6z
m-4768 -21 c12 -15 7 -45 -7 -45 -13 0 -34 40 -28 50 9 14 21 12 35 -5z m555
6 c5 -10 -20 -41 -34 -41 -16 0 -20 13 -10 31 10 20 34 25 44 10z m1753 -3
c14 -14 15 -63 2 -93 -7 -19 -9 -18 -19 8 -13 33 -15 97 -3 97 4 0 13 -5 20
-12z m1132 4 c0 -16 -59 -91 -80 -102 -25 -13 -50 -7 -50 13 0 17 45 59 85 80
35 19 45 20 45 9z m-7866 -93 c-7 -52 -17 -61 -34 -30 -15 30 -12 82 7 103 17
19 17 19 25 -3 5 -12 5 -44 2 -70z m1886 60 c0 -14 -7 -19 -29 -19 -38 0 -47
15 -20 34 26 18 49 11 49 -15z m1540 22 c0 -11 -69 -35 -77 -27 -3 3 0 12 7
21 13 16 70 21 70 6z m164 -13 c20 -28 20 -48 1 -48 -16 0 -35 30 -35 54 0 23
16 20 34 -6z m6029 11 c44 -12 52 -25 38 -62 -14 -35 -37 -35 -46 0 -10 41
-24 54 -45 43 -28 -15 -31 -38 -8 -59 24 -23 19 -57 -13 -103 -36 -49 -109
-76 -109 -40 0 14 -14 23 -57 35 -32 8 -59 14 -61 12 -2 -2 5 -17 17 -33 27
-38 27 -78 1 -92 -11 -6 -68 -15 -127 -21 -97 -9 -184 -23 -268 -45 -27 -7
-29 -6 -17 9 26 31 105 77 133 77 22 0 27 4 22 16 -7 19 21 50 110 121 37 30
83 70 101 88 32 32 42 35 161 59 41 8 131 6 168 -5z m-945 -11 c7 -7 12 -22
12 -35 0 -31 -37 -31 -49 0 -15 40 9 63 37 35z m-8971 -44 l38 -36 -24 -19
c-13 -10 -33 -19 -45 -19 -20 1 -20 2 -3 14 22 17 22 31 -4 67 -28 40 -8 36
38 -7z m438 16 c-15 -16 -16 -30 -10 -85 7 -72 5 -74 -50 -51 -47 20 -61 72
-39 144 2 8 23 12 60 12 56 0 57 0 39 -20z m1995 -12 c13 -24 13 -31 1 -60
-16 -36 -18 -87 -6 -159 9 -59 -5 -74 -84 -82 -102 -11 -201 -75 -201 -131 0
-34 -35 -82 -97 -131 -56 -44 -275 -158 -357 -185 -51 -16 -61 -4 -69 85 -7
70 -15 91 -58 146 -15 19 -31 47 -34 62 -9 33 10 84 36 97 45 25 179 -1 179
-33 0 -28 48 -34 113 -16 22 6 37 16 37 25 0 13 -8 14 -41 9 -51 -9 -51 -7 55
115 82 95 195 199 244 224 16 8 64 18 106 22 53 5 84 13 99 25 29 25 58 20 77
-13z m1847 -11 c-28 -76 -56 -91 -43 -23 7 37 32 70 46 61 5 -3 3 -20 -3 -38z
m1587 -57 c41 -78 51 -87 71 -70 19 16 19 51 0 76 -17 22 -19 50 -5 59 15 9
77 -22 90 -46 33 -61 33 -109 -1 -109 -25 0 -45 -33 -64 -110 -22 -90 -34
-118 -59 -135 -29 -21 -73 -19 -85 4 -13 23 -27 337 -17 374 11 44 31 31 70
-43z m3311 60 c4 -6 -8 -10 -29 -10 -20 0 -36 5 -36 10 0 6 13 10 29 10 17 0
33 -4 36 -10z m-595 -45 c0 -23 -36 -38 -60 -25 -27 14 -25 39 3 49 26 10 57
-3 57 -24z m-8421 -1 c24 -31 61 -142 61 -184 0 -27 -2 -28 -29 -20 -72 20
-83 37 -84 129 0 60 9 101 23 101 5 0 18 -12 29 -26z m10401 17 c0 -23 -24
-117 -33 -129 -14 -18 -57 -7 -79 19 -16 19 -16 24 -3 49 8 15 27 37 42 49 29
21 73 28 73 12z m-5226 -23 c47 -73 46 -300 -1 -392 -21 -41 -33 -18 -33 69
-1 95 -15 168 -31 174 -20 6 -99 86 -99 99 0 16 101 66 142 71 4 1 14 -9 22
-21z m1635 -21 c-23 -33 -58 -66 -71 -67 -20 0 -4 33 34 69 47 46 69 45 37 -2z
m2401 -12 c-15 -28 -98 -87 -157 -111 -20 -9 -51 -14 -69 -12 -29 3 -32 1 -31
-21 3 -34 -28 -39 -59 -10 -31 29 -32 78 -1 106 44 40 69 47 179 47 88 1 110
4 125 18 23 23 30 14 13 -17z m-8812 2 c9 -43 -38 -117 -73 -117 -29 0 -12 78
28 128 14 18 41 11 45 -11z m5792 6 c0 -10 -10 -34 -22 -53 l-23 -35 -3 32
c-4 38 12 73 33 73 8 0 15 -8 15 -17z m2609 11 c17 -4 31 -11 31 -15 0 -18
-216 -147 -227 -136 -6 7 34 84 64 125 25 34 59 40 132 26z m1361 -14 c24 -24
24 -29 4 -58 -20 -29 -58 -31 -49 -2 8 25 4 25 -43 1 -58 -29 -82 -35 -82 -19
0 29 93 97 133 98 9 0 26 -9 37 -20z m-6651 -14 c30 -16 95 -85 88 -93 -7 -7
-80 32 -116 62 -46 39 -27 59 28 31z m1459 -2 c-2 -9 -13 -23 -25 -31 -20 -14
-23 -14 -29 1 -8 21 13 46 38 46 13 0 18 -6 16 -16z m1655 -47 c26 -9 20 -36
-10 -43 -33 -9 -53 16 -53 65 l0 36 23 -26 c12 -15 30 -29 40 -32z m415 21
c-3 -7 -26 -27 -53 -45 -45 -32 -49 -33 -66 -17 -19 17 -25 54 -12 67 3 4 35
7 71 7 45 0 62 -4 60 -12z m1549 -5 c5 -15 -32 -53 -52 -53 -19 0 -19 20 1 48
16 24 44 26 51 5z m-4242 -3 c12 -19 -25 -61 -69 -81 -68 -29 -144 -43 -161
-29 -33 28 -3 85 56 106 42 15 166 18 174 4z m-4535 -34 c13 -15 20 -31 16
-41 -5 -14 -8 -14 -36 0 -28 14 -39 43 -23 58 11 11 18 8 43 -17z m360 14 c22
-12 60 -71 60 -94 0 -24 -61 -21 -94 5 -18 15 -26 30 -26 53 0 47 19 58 60 36z
m6320 -21 c0 -41 -41 -79 -109 -101 -28 -9 -51 -13 -51 -9 0 15 129 141 144
141 11 0 16 -9 16 -31z m1938 -10 c5 -55 -12 -89 -45 -89 -16 0 -39 -9 -53
-20 -14 -11 -28 -20 -32 -20 -5 0 -8 24 -8 53 0 79 36 119 105 114 27 -2 30
-6 33 -38z m-1608 6 c-25 -26 -106 -62 -117 -51 -9 9 -5 12 67 45 80 36 78 36
50 6z m1404 -6 c34 -26 33 -47 -1 -51 -21 -2 -33 -13 -47 -41 -11 -24 -29 -43
-46 -49 -42 -14 -44 -35 -10 -74 38 -44 40 -68 4 -61 -25 4 -25 4 -19 -47 6
-47 4 -54 -20 -78 -64 -65 -405 -158 -430 -118 -9 15 52 116 83 138 38 26 52
31 166 48 116 17 171 39 171 69 0 18 -6 20 -55 19 -30 0 -83 -7 -116 -16 -112
-29 -110 3 8 128 98 104 176 154 238 154 33 0 55 -6 74 -21z m-3197 -63 c64
-66 81 -106 45 -106 -11 0 -35 15 -54 34 -19 19 -58 46 -87 60 -28 15 -51 31
-51 36 0 11 49 39 70 40 8 0 42 -29 77 -64z m-1633 11 c16 -22 18 -32 10 -45
-22 -35 -94 -21 -94 18 0 23 36 63 53 57 6 -2 20 -16 31 -30z m4194 10 c4 -20
-52 -134 -80 -164 -24 -26 -48 -30 -48 -9 0 29 -22 27 -93 -8 -89 -44 -127
-47 -127 -11 0 52 41 76 185 107 49 11 62 18 73 40 15 31 60 70 76 65 6 -2 12
-11 14 -20z m-7093 -16 c18 -7 17 -8 -7 -14 -33 -9 -66 2 -46 14 16 10 26 10
53 0z m8300 0 c6 -11 -33 -41 -54 -41 -10 0 -8 7 9 25 25 27 35 30 45 16z
m-5088 -57 c58 -66 80 -101 70 -110 -3 -4 -14 -1 -23 7 -22 18 -114 140 -114
150 0 21 22 5 67 -47z m-3803 24 c8 -13 8 -23 0 -35 -22 -35 -139 -23 -152 15
-11 35 130 54 152 20z m2664 2 c35 -21 84 -94 175 -256 97 -172 73 -212 -102
-169 -40 9 -75 15 -78 11 -3 -3 -1 -17 5 -31 14 -30 68 -58 162 -84 40 -11 78
-26 86 -32 19 -16 19 -113 0 -128 -11 -10 -21 -6 -48 18 l-35 30 1 -41 c1 -22
-4 -43 -10 -45 -7 -2 -33 14 -58 37 -37 32 -55 40 -85 40 -50 0 -95 -33 -87
-65 6 -25 -6 -39 -45 -48 -14 -4 -45 -22 -70 -42 -34 -27 -53 -35 -85 -35 -25
0 -47 -6 -54 -15 -33 -39 -59 -4 -69 94 l-7 66 -23 -68 -23 -69 -53 80 c-30
44 -61 82 -70 86 -10 3 -27 -2 -42 -14 -14 -11 -29 -17 -34 -14 -14 8 -11 47
6 87 19 47 19 59 -2 55 -11 -2 -34 -35 -58 -83 l-40 -80 -58 -3 c-68 -4 -72
-20 -11 -39 64 -19 154 -16 189 7 42 28 53 25 64 -16 5 -19 28 -56 51 -80 55
-60 51 -79 -18 -78 -44 2 -52 -1 -52 -16 0 -10 -9 -21 -19 -25 -31 -10 -143
13 -163 33 -18 18 -18 19 3 46 l22 28 -30 -6 c-25 -6 -33 -3 -46 18 -9 13 -26
26 -38 28 -23 3 -30 12 -50 68 -7 19 -46 69 -87 111 l-73 77 73 27 c103 40
212 96 287 149 71 51 95 56 113 26 19 -30 28 -24 28 20 0 70 89 149 317 279
147 84 186 94 241 61z m4227 0 c14 -22 -47 -91 -112 -127 -78 -42 -53 48 30
108 41 30 71 37 82 19z m420 -47 c-33 -73 -71 -123 -95 -123 -23 0 -35 33 -20
59 8 16 128 121 137 121 2 0 -9 -26 -22 -57z m2913 18 c2 -12 1 -29 -2 -38 -9
-22 -36 2 -36 32 0 41 32 47 38 6z m-5213 -28 c110 -38 143 -88 124 -192 -17
-87 -18 -88 -80 -40 -70 56 -149 137 -149 153 0 8 7 19 15 26 21 17 19 30 -5
30 -25 0 -38 29 -19 40 15 10 54 4 114 -17z m1695 20 c-29 -11 -50 -37 -60
-74 -11 -41 -44 -59 -106 -59 -62 0 -54 38 13 58 25 8 46 24 61 47 20 31 27
35 65 34 23 0 35 -3 27 -6z m-2320 -21 c0 -18 -26 -61 -44 -75 -6 -4 -27 -5
-47 -1 -22 3 -40 1 -44 -5 -11 -19 -51 -12 -75 14 -32 35 -18 61 31 57 19 -1
57 4 84 12 71 20 95 20 95 -2z m5117 2 c5 -15 -50 -34 -98 -34 -39 0 -58 13
-38 26 37 23 130 28 136 8z m-9237 -21 c31 -25 32 -26 66 -10 72 35 94 14 94
-91 0 -82 -7 -88 -67 -68 -27 9 -95 28 -152 41 -56 14 -111 30 -122 36 -17 9
-30 0 -97 -68 -95 -97 -195 -149 -217 -113 -10 15 -21 12 -54 -16 -38 -32 -51
-25 -51 29 0 23 -7 82 -14 130 -8 49 -12 95 -10 102 14 35 132 46 214 19 78
-25 435 -13 363 13 -7 3 -13 9 -13 14 0 17 29 9 60 -18z m381 3 c26 -56 -20
-166 -68 -166 -53 0 -88 71 -61 127 13 28 68 63 101 63 9 0 22 -11 28 -24z
m-1221 -23 c0 -27 -3 -34 -11 -26 -7 7 -9 23 -5 37 9 37 16 32 16 -11z m2012
12 c-6 -34 -33 -56 -66 -53 -44 4 -46 32 -4 58 41 25 74 23 70 -5z m7558 18
c-32 -12 -50 -37 -50 -70 0 -24 -10 -44 -36 -73 -20 -22 -42 -40 -49 -40 -17
0 -80 77 -90 108 -7 23 -5 23 37 17 38 -6 49 -3 74 18 44 36 66 46 99 46 17 0
23 -3 15 -6z m-2586 -29 c18 -18 21 -60 5 -69 -14 -9 -55 2 -73 20 -19 19 -11
44 18 55 30 12 33 12 50 -6z m-4210 -15 c-24 -26 -94 -63 -94 -49 0 11 87 70
104 70 5 0 1 -9 -10 -21z m2341 -11 c37 -43 59 -93 52 -112 -8 -21 -54 -38
-79 -30 -43 13 -66 102 -39 152 16 30 35 27 66 -10z m-3795 7 c60 -31 81 -98
35 -115 -26 -10 -55 -4 -67 14 -9 13 -11 116 -3 116 4 0 19 -7 35 -15z m6350
-5 l25 -7 -26 -11 c-41 -16 -116 -25 -123 -14 -17 27 68 49 124 32z m-5949
-84 c19 -3 64 -7 101 -10 74 -6 138 -28 138 -48 0 -23 -22 -38 -55 -38 l-30
-1 24 -19 c30 -26 59 -25 87 1 29 28 54 19 54 -19 0 -35 -13 -47 -58 -56 -19
-3 -45 -15 -59 -26 -36 -28 -43 -25 -43 16 l0 37 -49 -7 c-43 -6 -51 -4 -61
13 -5 11 -25 27 -44 36 -39 19 -96 114 -96 161 l0 28 29 -31 c17 -19 42 -34
62 -37z m3021 22 c33 -17 74 -45 90 -60 30 -27 30 -29 13 -54 -9 -14 -14 -29
-10 -32 14 -14 41 18 58 69 21 61 33 79 54 79 12 0 14 -7 10 -29 -7 -35 26
-70 93 -99 76 -32 95 -34 123 -12 46 37 67 27 164 -73 50 -52 99 -109 108
-127 l17 -32 -46 -67 c-59 -85 -66 -112 -66 -247 0 -176 -40 -293 -156 -457
-53 -75 -57 -78 -87 -72 -47 10 -76 32 -83 63 -13 64 -21 72 -69 72 -30 0 -47
5 -51 14 -3 8 2 60 11 117 9 56 14 103 12 106 -2 2 -19 -4 -36 -14 -35 -20
-31 -22 -76 42 -13 19 -14 19 -14 -8 -1 -18 -6 -27 -13 -25 -22 7 -47 70 -63
163 -31 169 -31 167 5 209 l33 37 -21 22 c-11 12 -30 57 -42 100 -12 43 -28
94 -36 112 -22 52 -15 235 8 235 6 0 37 -14 70 -32z m3383 12 c9 -28 -32 -96
-67 -111 -23 -9 -38 -9 -71 1 -61 18 -97 38 -97 55 0 17 13 18 113 6 71 -7 82
-3 42 19 -27 14 -24 27 9 40 37 15 64 11 71 -10z m1860 -4 c54 -23 38 -30
-110 -45 -232 -23 -292 -44 -221 -78 39 -18 32 -33 -16 -33 -38 0 -58 10 -58
29 0 28 89 130 123 141 52 15 236 7 282 -14z m925 0 c0 -21 -24 -36 -40 -26
-12 7 -11 12 4 29 19 21 36 20 36 -3z m-7059 -17 c80 -40 159 -173 159 -267 0
-66 -20 -107 -60 -120 -17 -6 -33 -18 -36 -27 -24 -61 -146 199 -160 340 -11
105 8 119 97 74z m-161 -24 c0 -19 -4 -35 -10 -35 -11 0 -14 53 -3 63 11 12
13 8 13 -28z m3636 20 c16 -41 -63 -92 -94 -61 -14 14 -14 18 4 37 33 37 81
49 90 24z m3989 5 c22 -9 25 -13 15 -25 -7 -8 -27 -17 -45 -21 -22 -4 -36 -14
-44 -31 -10 -22 -16 -24 -43 -19 -24 5 -37 1 -53 -14 -29 -27 -84 -36 -110
-17 -16 12 -17 17 -6 30 7 9 22 17 34 19 22 3 24 13 12 55 -6 17 -2 22 17 26
47 9 197 7 223 -3z m-4345 -38 c30 -24 18 -42 -25 -42 -24 0 -45 -9 -70 -31
-29 -26 -38 -29 -50 -19 -19 16 -19 40 1 68 30 43 105 55 144 24z m704 -9 c11
-26 -24 -42 -53 -24 -12 8 -12 12 -2 25 18 21 47 20 55 -1z m-6799 -38 c58
-24 112 -38 177 -45 131 -16 148 -23 217 -95 66 -69 74 -91 37 -101 -14 -3
-27 -12 -30 -20 -8 -21 -46 -17 -126 12 -39 15 -73 24 -76 21 -3 -3 1 -16 10
-29 21 -29 21 -72 0 -89 -13 -11 -27 -10 -82 4 -96 25 -174 63 -264 129 -44
31 -95 60 -112 62 -17 3 -48 8 -69 11 -21 3 -41 13 -44 21 -9 24 18 65 65 98
95 68 172 73 297 21z m3465 -33 c22 -30 40 -66 40 -79 0 -22 -4 -23 -64 -23
-79 0 -91 12 -82 77 8 57 30 95 51 86 9 -3 33 -30 55 -61z m4913 47 c7 -11 3
-30 -16 -70 -23 -46 -26 -50 -24 -24 2 29 0 30 -40 30 -52 0 -60 8 -39 40 29
44 98 58 119 24z m-2913 -3 c0 -22 -29 -41 -42 -28 -8 8 -8 15 2 27 16 19 40
20 40 1z m3864 -19 c42 -31 -17 -91 -70 -72 -15 6 -33 20 -41 31 -12 19 -12
24 2 38 20 19 84 21 109 3z m130 -3 c19 -18 20 -30 5 -39 -18 -12 -59 4 -59
24 0 34 28 42 54 15z m-8724 -49 c12 -20 19 -39 15 -43 -9 -9 -75 64 -75 83 0
25 34 1 60 -40z m-2315 19 c20 -20 15 -36 -15 -51 -38 -19 -81 14 -66 52 7 20
60 19 81 -1z m8935 -6 c0 -23 -60 -161 -67 -154 -6 6 15 113 29 149 12 32 38
36 38 5z m-231 -12 c57 -7 96 -16 99 -24 6 -18 -56 -91 -83 -98 -14 -3 -45 2
-71 12 -40 15 -53 16 -91 5 -25 -6 -47 -10 -49 -8 -2 2 8 21 23 42 25 38 26
40 9 68 l-17 30 43 -8 c24 -4 85 -12 137 -19z m2047 -11 c10 -24 -20 -59 -87
-104 -56 -38 -99 -52 -99 -33 0 4 9 21 20 39 25 41 74 67 112 59 28 -5 30 -4
24 18 -8 34 18 53 30 21z m584 -20 c0 -17 -109 -90 -207 -139 -83 -41 -93 -43
-93 -18 0 22 19 42 40 42 9 0 50 23 91 51 79 56 148 91 161 83 4 -3 8 -11 8
-19z m-3532 -23 c5 -37 -17 -92 -38 -92 -29 0 -41 60 -19 101 14 27 53 21 57
-9z m580 16 c15 -15 16 -64 2 -73 -11 -7 -30 35 -30 66 0 22 11 24 28 7z
m-738 -8 c0 -13 -89 -64 -98 -56 -12 12 14 41 49 53 43 15 49 15 49 3z m3820
0 c0 -12 -78 -65 -85 -58 -9 9 52 68 69 68 9 0 16 -4 16 -10z m-1192 -19 c19
-12 -30 -42 -79 -48 -40 -6 -74 10 -63 29 15 24 113 38 142 19z m-9520 -21
c23 -10 42 -23 42 -28 0 -16 -79 -94 -91 -90 -11 4 -37 90 -39 126 0 18 39 14
88 -8z m1454 3 c25 -23 22 -51 -7 -65 -14 -6 -25 -19 -25 -30 0 -23 1 -22 48
2 l40 21 66 -25 c82 -31 145 -68 174 -101 27 -30 46 -24 37 13 l-6 25 35 -27
c20 -15 40 -25 44 -22 4 2 28 -11 51 -30 46 -36 66 -40 119 -25 41 12 42 -2 2
-49 -30 -34 -40 -70 -19 -70 6 0 29 10 51 22 l40 23 35 -40 c19 -22 62 -76 95
-120 47 -62 57 -81 44 -83 -21 -4 -204 84 -275 132 -30 20 -54 35 -55 34 -11
-28 -28 -44 -50 -46 -27 -3 -30 1 -26 50 2 43 -28 136 -49 147 -12 7 -30 7
-52 0 -19 -5 -81 -18 -139 -28 -116 -22 -142 -30 -183 -63 -43 -34 -52 -15
-49 97 3 79 1 96 -12 101 -11 4 -16 19 -16 50 0 30 -5 46 -15 50 -22 9 -18 41
7 58 29 21 67 20 90 -1z m5246 -32 c6 -85 -18 -117 -53 -68 l-17 22 6 -30 c23
-124 20 -128 -47 -66 l-42 40 18 33 c26 48 97 119 116 116 11 -2 17 -16 19
-47z m3081 31 c16 -30 -13 -60 -77 -78 -82 -24 -110 -40 -177 -105 -33 -32
-73 -62 -87 -68 -18 -7 -30 -20 -33 -38 -14 -64 -35 -93 -107 -143 -40 -28
-100 -70 -133 -95 -78 -57 -194 -115 -231 -115 -16 0 -41 8 -55 18 -26 17
-119 120 -119 132 0 3 24 30 54 59 33 33 56 49 60 42 11 -17 -3 -53 -31 -82
-20 -22 -22 -28 -9 -38 34 -28 157 38 178 96 12 32 15 34 46 29 l34 -5 -7 73
c-6 71 -6 74 20 94 25 20 142 61 328 117 48 14 133 48 189 75 109 54 142 60
157 32z m-3395 -29 c11 -39 -6 -66 -38 -61 -16 2 -22 11 -24 36 -6 64 44 84
62 25z m3725 13 c15 -18 3 -46 -20 -46 -25 0 -35 26 -19 45 15 19 24 19 39 1z
m-2556 -10 c7 -18 -18 -67 -46 -88 -37 -29 -62 -23 -75 19 -13 43 -11 47 43
67 51 19 72 19 78 2z m2727 -1 c0 -21 -47 -68 -62 -63 -20 7 -19 24 2 51 23
29 60 36 60 12z m-10470 -52 c0 -29 -35 -8 -38 22 -4 30 -4 30 17 11 12 -11
21 -25 21 -33z m9500 41 c0 -35 -111 -94 -192 -102 -59 -6 -62 9 -10 41 70 44
202 84 202 61z m-8855 -18 c135 -25 169 -44 130 -76 -13 -11 -12 -14 6 -29 13
-10 18 -22 14 -33 -12 -31 -64 -42 -204 -42 -133 1 -134 1 -158 28 -44 52 -25
136 37 159 27 10 94 7 175 -7z m8465 4 c0 -5 -13 -10 -30 -10 -16 0 -30 5 -30
10 0 6 14 10 30 10 17 0 30 -4 30 -10z m1630 0 c0 -12 -70 -60 -87 -60 -25 0
-13 30 20 50 34 21 67 26 67 10z m-6195 -35 c0 -28 -3 -30 -39 -33 -52 -4 -62
9 -31 42 35 37 70 33 70 -9z m5691 0 c20 -49 18 -65 -9 -65 -42 0 -55 26 -37
74 13 36 28 33 46 -9z m-1448 19 c18 -5 22 -13 20 -32 -4 -34 -50 -62 -75 -46
-27 17 -28 50 -1 68 25 18 25 18 56 10z m-2780 -50 c-2 -21 -9 -30 -25 -32
-18 -3 -23 1 -23 19 0 28 30 63 43 50 5 -5 7 -21 5 -37z m3057 17 c-11 -11
-174 -111 -181 -111 -2 0 -4 9 -4 20 0 13 12 25 35 34 25 11 33 19 29 30 -4
11 2 19 17 25 32 13 116 14 104 2z m1736 -40 c-26 -37 -57 -56 -66 -41 -8 14
10 45 42 70 37 29 52 11 24 -29z m-413 8 c2 -10 -15 -28 -45 -47 -26 -17 -49
-29 -51 -27 -7 7 9 43 30 70 22 29 61 31 66 4z m-10048 -23 c0 -18 -21 -35
-36 -29 -17 6 -18 50 -1 56 15 5 37 -11 37 -27z m4430 -11 c0 -13 -4 -27 -10
-30 -6 -4 -10 8 -10 30 0 22 4 34 10 30 6 -3 10 -17 10 -30z m6455 -5 c4 -6
-7 -10 -24 -10 -17 0 -31 5 -31 10 0 6 11 10 24 10 14 0 28 -4 31 -10z m-5155
-19 c5 -11 10 -30 10 -43 0 -22 0 -22 -14 -3 -20 29 -29 65 -17 65 6 0 15 -9
21 -19z m2501 -2 c90 -23 139 -44 139 -59 0 -5 -12 -12 -27 -16 -16 -3 -47
-12 -71 -20 -52 -17 -71 -9 -103 42 -13 22 -38 43 -63 54 l-41 19 41 0 c22 1
78 -9 125 -20z m2479 0 c-28 -23 -134 -79 -150 -79 -5 0 -10 13 -10 29 0 23 7
32 33 44 42 20 63 25 112 26 l40 0 -25 -20z m-582 -25 c3 -22 -21 -39 -39 -28
-11 6 -12 38 -2 48 13 13 38 1 41 -20z m-9578 -3 c0 -22 -29 -36 -43 -22 -7 7
-6 15 3 26 17 21 40 19 40 -4z m388 -28 l20 -27 55 28 c50 25 60 27 91 16 52
-17 96 -72 96 -120 0 -30 -7 -46 -34 -74 -18 -20 -39 -36 -45 -36 -7 0 -38 24
-69 53 -31 30 -79 69 -107 87 -65 43 -77 58 -64 81 14 27 34 24 57 -8z m3267
-3 c0 -16 -6 -26 -18 -28 -19 -4 -32 20 -23 44 9 25 41 13 41 -16z m5255 20
c0 -18 -43 -70 -57 -70 -16 0 -17 52 -1 68 15 15 58 16 58 2z m-3781 -31 c16
-47 13 -57 -9 -30 -21 24 -27 61 -11 61 5 0 14 -14 20 -31z m-5658 -15 c30
-27 41 -61 28 -86 -9 -18 -18 -20 -65 -16 -30 3 -54 2 -54 -2 0 -4 14 -24 30
-45 30 -38 39 -78 19 -90 -40 -26 -106 51 -96 112 5 29 1 42 -18 65 -30 36
-31 42 -4 69 18 18 30 21 80 17 39 -3 65 -11 80 -24z m8814 1 c0 -17 -9 -21
-50 -26 -27 -4 -78 -21 -113 -39 -50 -27 -65 -31 -75 -21 -19 20 32 57 121 85
89 29 117 30 117 1z m2010 11 c26 -19 13 -46 -24 -46 -34 0 -77 31 -67 48 10
16 68 15 91 -2z m-10099 -65 c72 -50 234 -197 234 -211 0 -5 -31 -12 -70 -16
-38 -3 -70 -9 -70 -12 0 -3 7 -13 15 -22 24 -26 -6 -45 -69 -44 -88 2 -339 97
-398 151 -40 36 -4 91 90 141 74 40 104 41 131 5 20 -28 20 -28 21 -5 0 31 17
62 34 62 7 0 44 -22 82 -49z m3056 32 c21 -25 29 -51 18 -58 -13 -8 -60 40
-60 60 0 20 23 19 42 -2z m6538 -1 c0 -14 -43 -50 -73 -61 -61 -23 -147 -7
-147 28 0 16 9 21 58 26 31 3 64 8 72 9 32 7 90 6 90 -2z m-6341 -154 c1 -56
-13 -98 -33 -98 -16 0 -69 57 -90 99 -17 32 -10 47 53 114 l36 38 17 -53 c9
-29 17 -74 17 -100z m-3744 123 c0 -19 -84 -62 -115 -58 -34 3 -39 40 -8 61
29 21 123 18 123 -3z m9515 10 c0 -9 -27 -21 -95 -42 -22 -7 -67 -25 -100 -41
-62 -29 -95 -35 -95 -18 0 16 44 40 142 75 92 34 148 43 148 26z m185 -1 c12
-20 -134 -104 -151 -87 -13 13 20 47 68 71 56 28 73 31 83 16z m-1129 -61 c19
-21 12 -49 -12 -49 -34 0 -69 52 -48 72 9 10 42 -3 60 -23z m1245 -22 c-18
-54 -53 -81 -96 -74 -29 5 -41 1 -68 -22 -44 -39 -83 -57 -155 -74 -34 -8 -62
-13 -62 -12 0 2 39 27 88 56 48 29 106 67 130 85 24 18 50 30 58 27 8 -3 32
11 55 32 48 43 68 37 50 -18z m674 39 c19 -14 19 -15 1 -35 -25 -27 -79 -28
-106 -1 -36 36 -25 50 40 50 25 0 55 -6 65 -14z m-10427 -18 c7 -7 12 -29 12
-50 0 -50 -23 -62 -102 -53 -94 11 -90 36 16 90 57 29 58 29 74 13z m1243 -4
c21 -25 -7 -63 -70 -96 -60 -31 -131 -38 -151 -13 -23 27 12 105 47 105 8 0
26 -9 40 -20 36 -28 57 -26 49 4 -4 15 -1 26 7 29 26 11 65 6 78 -9z m7849 1
c17 -20 -3 -45 -36 -45 -31 0 -36 12 -18 38 18 26 37 28 54 7z m-875 -42 c10
-53 40 -109 100 -183 60 -76 78 -107 70 -120 -15 -25 -72 -41 -177 -50 -212
-18 -368 17 -179 40 39 5 88 18 110 30 68 34 116 118 76 134 -8 3 -36 -1 -62
-9 -69 -21 -110 -19 -123 5 -16 30 -3 42 36 34 l34 -6 0 45 c0 41 4 49 42 81
23 20 47 36 54 36 6 0 15 -17 19 -37z m-3038 -15 c42 -40 42 -64 -1 -119 -44
-59 -86 -142 -86 -173 0 -15 8 -30 20 -36 21 -11 27 -45 9 -55 -5 -4 -24 -1
-41 6 -29 12 -30 14 -25 61 4 26 22 98 42 159 19 61 37 128 38 150 1 21 4 39
7 39 2 0 19 -14 37 -32z m4213 20 c0 -30 -105 -158 -129 -158 -16 0 -14 46 4
80 29 56 125 116 125 78z m1210 2 c0 -5 -13 -10 -29 -10 -17 0 -33 5 -36 10
-4 6 8 10 29 10 20 0 36 -4 36 -10z m-11096 -55 c18 -19 10 -45 -14 -45 -26 0
-53 33 -38 48 16 16 34 15 52 -3z m3228 -8 c11 -18 10 -37 -3 -37 -16 0 -69
40 -69 52 0 14 62 2 72 -15z m4898 8 c17 -20 -3 -45 -36 -45 -29 0 -33 34 -6
49 23 14 27 13 42 -4z m-7856 -18 c12 -19 3 -32 -19 -24 -17 7 -21 51 -3 45 6
-2 16 -12 22 -21z m1196 -33 c0 -8 -4 -14 -8 -14 -10 0 -32 45 -32 63 1 17 40
-32 40 -49z m2043 37 c87 -37 85 -95 -1 -84 -42 5 -53 1 -101 -31 -68 -46 -81
-46 -78 0 2 34 -1 38 -32 48 l-35 12 37 28 c37 28 63 31 124 11 18 -6 21 -4
16 14 -7 27 11 27 70 2z m7442 9 c-3 -5 -22 -10 -41 -10 -19 0 -34 5 -34 10 0
6 18 10 41 10 24 0 38 -4 34 -10z m-1305 -48 c0 -43 -73 -83 -145 -81 l-30 1
38 15 c29 12 37 21 37 41 0 22 3 24 30 19 20 -4 34 -2 42 8 18 20 28 18 28 -3z
m-5402 -23 c40 -41 57 -88 36 -96 -28 -10 -84 61 -84 107 0 28 13 25 48 -11z
m6257 10 c11 -17 -24 -47 -76 -64 -49 -17 -134 -17 -134 -1 0 5 23 16 50 26
28 9 64 24 80 33 35 19 71 22 80 6z m-8509 -44 c115 -33 365 -128 428 -163 27
-15 52 -34 54 -42 4 -11 1 -10 -13 3 -23 24 -38 17 -51 -22 -6 -19 -18 -38
-27 -43 -28 -15 -96 23 -179 100 -86 79 -123 102 -168 102 -37 0 -38 -12 -3
-36 45 -29 123 -106 123 -120 0 -27 -48 -9 -87 33 -19 20 -31 23 -96 23 -48 0
-80 -5 -93 -14 -21 -16 -13 -32 21 -38 12 -2 20 -11 20 -23 0 -18 -8 -20 -70
-23 -38 -2 -74 -7 -79 -13 -30 -29 -135 9 -186 67 -36 41 -38 64 -7 99 34 40
82 43 156 10 69 -31 91 -25 91 26 0 33 -7 36 -36 14 -30 -22 -54 -19 -54 8 0
77 98 97 256 52z m1008 17 c7 -11 -5 -27 -32 -41 -40 -21 -70 7 -40 37 13 13
64 16 72 4z m144 -29 c-3 -41 -2 -42 67 -29 28 6 35 4 35 -9 0 -35 -20 -55
-55 -55 -28 0 -37 -6 -50 -30 -30 -58 -89 -67 -142 -20 -21 19 -45 30 -63 30
-36 0 -37 -6 -7 -32 l22 -19 -54 6 c-30 3 -63 11 -73 16 -18 9 -18 13 -5 32
16 25 56 41 138 57 40 8 68 22 103 50 27 22 57 40 68 40 16 0 18 -6 16 -37z
m2616 21 c9 -24 7 -64 -4 -64 -13 0 -30 34 -30 59 0 25 25 28 34 5z m3582 5
c14 -23 -21 -40 -77 -37 l-54 3 45 22 c51 24 76 28 86 12z m-6538 -31 c6 -53
-70 -97 -113 -64 -27 20 -13 43 45 73 51 27 64 26 68 -9z m-2182 -33 c64 -13
127 -31 140 -40 13 -8 35 -15 49 -15 14 0 38 -6 53 -14 28 -14 72 -67 72 -86
0 -16 -80 -11 -125 7 -22 9 -67 18 -100 19 -33 1 -70 3 -82 3 -21 1 -193 145
-193 162 0 4 16 3 35 -2 19 -6 87 -21 151 -34z m1009 35 c3 -5 -9 -19 -27 -30
-60 -36 -127 -18 -78 22 24 19 95 25 105 8z m-1251 -26 c19 -7 22 -44 4 -44
-7 0 -26 11 -43 25 l-30 24 27 1 c14 0 33 -3 42 -6z m3586 -16 c45 -31 58 -53
44 -75 -6 -10 -18 -19 -27 -21 -18 -4 -63 52 -72 91 -9 34 9 36 55 5z m-2472
-73 c6 -52 -62 -76 -92 -33 -33 47 -8 79 29 38 24 -27 33 -25 27 6 -4 21 -1
25 14 22 12 -2 20 -13 22 -33z m7741 18 c-19 -23 -168 -133 -180 -133 -21 0
-4 63 21 82 28 20 137 67 159 68 11 0 11 -3 0 -17z m145 -19 c42 -16 -16 -64
-77 -64 -47 0 -43 34 7 56 35 15 48 17 70 8z m646 -4 c21 0 50 -46 50 -77 0
-20 -4 -32 -10 -28 -6 3 -7 17 -4 29 5 23 -2 32 -62 74 -18 12 -18 13 -1 7 10
-3 23 -5 27 -5z m-6385 -30 c93 -44 112 -80 42 -80 -50 0 -136 61 -137 98 0
19 27 14 95 -18z m504 -45 c42 -46 52 -83 27 -104 -16 -13 -29 0 -41 39 -8 28
-33 60 -47 60 -4 0 -8 -21 -8 -46 0 -38 -3 -45 -17 -42 -40 7 -13 138 27 138
10 0 36 -20 59 -45z m4071 31 c0 -22 -40 -46 -77 -46 -44 0 -44 26 0 45 42 19
77 19 77 1z m-4830 -26 c0 -18 -26 -40 -49 -40 -16 0 -13 21 6 42 21 24 43 23
43 -2z m5580 -5 c17 -20 4 -35 -31 -35 -33 0 -40 23 -11 39 23 14 28 13 42 -4z
m-1691 -12 c20 -17 21 -20 6 -38 -15 -20 -15 -20 -40 8 -14 15 -25 32 -25 38
0 15 36 10 59 -8z m-6123 -8 c8 -20 -13 -45 -38 -45 -24 0 -34 26 -18 45 16
19 49 19 56 0z m6825 -9 c-16 -19 -75 -39 -98 -34 -14 3 -9 9 17 23 37 19 83
34 89 29 2 -2 -2 -10 -8 -18z m1529 -5 c0 -34 -220 -248 -291 -283 -155 -75
-172 -81 -265 -88 -51 -3 -100 -12 -108 -20 -13 -10 -16 -10 -16 0 0 30 153
205 230 262 19 15 64 33 100 42 36 8 124 33 195 55 139 43 155 46 155 32z
m-7466 -49 c27 -54 29 -72 7 -72 -31 0 -66 81 -45 103 10 10 22 -1 38 -31z
m1146 28 c0 -5 -16 -10 -35 -10 -19 0 -35 5 -35 10 0 6 16 10 35 10 19 0 35
-4 35 -10z m394 -40 c33 -5 63 -15 67 -22 15 -23 10 -88 -7 -95 -47 -18 -174
67 -174 117 0 19 4 21 28 15 15 -4 54 -11 86 -15z m-793 -10 c10 -6 26 -27 34
-47 9 -20 24 -43 35 -50 23 -16 26 -33 6 -33 -7 0 -31 21 -52 47 -29 35 -40
43 -42 30 -5 -24 -39 -21 -53 5 -10 18 -8 24 11 40 26 21 34 22 61 8z m5687 2
c20 -13 -18 -41 -79 -58 -72 -18 -119 -18 -119 1 0 20 48 43 112 54 72 12 71
12 86 3z m-6333 -23 c8 -25 1 -34 -20 -26 -19 8 -20 47 -1 47 8 0 18 -9 21
-21z m4695 7 c0 -20 -28 -84 -40 -91 -16 -10 -12 58 6 83 17 25 34 29 34 8z
m-160 -5 c0 -19 -69 -63 -92 -59 -32 4 -36 41 -6 56 29 13 98 15 98 3z m2245
-7 l38 -15 -39 -41 c-22 -22 -51 -46 -66 -54 -51 -26 -118 -14 -118 22 0 21
52 76 85 90 40 17 55 17 100 -2z m-6985 -35 c0 -11 -4 -19 -9 -19 -16 0 -33
30 -27 46 5 13 9 14 21 4 8 -7 15 -21 15 -31z m1504 -4 c4 -17 24 -35 61 -56
112 -63 71 -68 -53 -6 -154 77 -162 87 -73 87 54 0 59 -2 65 -25z m-774 -11
c0 -7 -11 -26 -25 -41 -24 -27 -25 -28 -40 -9 -22 28 -18 55 7 65 28 10 58 3
58 -15z m3838 -19 c45 -38 79 -47 137 -36 28 5 52 8 54 6 5 -5 -107 -60 -152
-75 -32 -10 -41 -9 -62 4 -22 14 -25 24 -25 71 0 30 4 55 9 55 5 0 23 -11 39
-25z m1320 -8 c4 -32 -31 -53 -72 -43 -38 9 -34 43 7 61 44 20 61 15 65 -18z
m743 23 c23 -13 25 -48 3 -57 -19 -7 -34 13 -34 45 0 25 3 26 31 12z m-5611
-44 c0 -39 -26 -69 -36 -42 -7 18 14 76 27 76 5 0 9 -15 9 -34z m4403 20 c3
-8 -1 -22 -8 -33 -13 -17 -15 -17 -31 -1 -9 9 -14 24 -11 32 8 20 43 21 50 2z
m1129 -3 c27 -24 23 -65 -10 -96 -36 -35 -120 -67 -172 -67 -34 0 -42 -4 -50
-24 -5 -13 -24 -35 -42 -49 -43 -32 -181 -107 -197 -107 -15 0 20 64 86 157
49 70 137 142 215 178 64 29 143 33 170 8z m-5775 -48 c19 -41 14 -51 -19 -34
-28 14 -38 28 -38 52 0 32 39 20 57 -18z m-221 0 c47 -47 12 -85 -39 -45 -33
26 -37 70 -7 70 12 0 32 -11 46 -25z m6219 5 c4 -11 20 -23 38 -28 63 -16 38
-101 -35 -117 -40 -9 -58 9 -58 60 0 80 38 139 55 85z m-4220 -60 c0 -29 -32
-41 -41 -16 -9 24 4 48 23 44 12 -2 18 -12 18 -28z m1284 9 c38 -13 40 -32 6
-47 -33 -15 -120 -15 -148 -1 -92 49 27 88 142 48z m-3143 -41 l39 -43 -27 -3
c-52 -6 -108 37 -95 72 11 28 43 18 83 -26z m234 17 c16 -19 6 -45 -18 -45
-23 0 -42 19 -42 42 0 22 42 25 60 3z m4455 -25 c17 -17 18 -22 5 -33 -17 -15
-232 -50 -254 -41 -38 15 27 64 115 88 63 18 106 13 134 -14z m-2441 1 c3 -4
-3 -16 -14 -26 -26 -23 -52 -6 -30 20 14 17 36 20 44 6z m3053 -8 c2 -6 -6
-17 -18 -23 -17 -10 -24 -9 -36 3 -9 8 -12 20 -8 27 9 14 57 9 62 -7z m-5876
-23 l24 -20 -25 -21 c-42 -35 -238 -130 -246 -118 -10 18 -7 79 6 94 7 8 20
15 30 15 9 0 35 13 56 28 22 16 46 31 54 35 32 12 79 6 101 -13z m1278 -4 c12
-14 5 -46 -10 -46 -12 0 -31 39 -24 50 9 14 21 12 34 -4z m2103 3 c20 -11 89
-148 102 -201 6 -25 3 -28 -17 -28 -14 0 -37 10 -51 21 -25 20 -27 25 -21 71
7 48 6 50 -14 43 -16 -5 -23 -1 -29 15 -8 22 -8 22 -25 -4 -17 -26 -47 -36
-47 -16 0 20 40 89 57 99 23 13 21 13 45 0z m178 -3 c0 -18 -55 -40 -77 -31
-16 6 -16 8 6 26 27 22 71 25 71 5z m2202 -11 c48 -33 66 -63 42 -72 -22 -8
-44 6 -71 47 -39 56 -29 64 29 25z m-1067 -11 c0 -12 -8 -20 -22 -22 -25 -4
-31 16 -11 36 17 17 33 10 33 -14z m-3534 -13 c27 -27 40 -71 21 -71 -4 0 -27
14 -50 31 l-42 31 -17 -31 c-22 -39 -47 -36 -51 5 -4 42 19 64 69 64 31 0 47
-7 70 -29z m3386 -19 c-10 -77 -61 -161 -84 -139 -9 10 18 109 39 145 28 46
52 43 45 -6z m2048 16 c30 -13 55 -25 55 -28 -1 -3 -35 -20 -76 -39 -41 -19
-88 -48 -104 -65 -24 -24 -38 -29 -74 -29 -49 0 -78 16 -69 38 2 8 13 17 23
20 10 3 24 24 32 48 24 75 108 97 213 55z m-2819 -40 c4 -6 8 -36 9 -67 1 -31
5 -82 10 -113 l8 -58 -42 0 -41 0 0 -43 c0 -30 -6 -49 -19 -61 -20 -18 -121
-35 -121 -20 0 5 9 23 20 39 20 30 20 30 -1 45 -19 15 -19 18 -4 53 20 48 19
64 -5 94 -11 14 -20 29 -20 33 0 16 54 60 103 85 55 27 92 32 103 13z m1934
-25 l42 -38 -40 -60 c-69 -103 -138 -171 -198 -199 -30 -14 -125 -68 -212
-119 -178 -107 -261 -151 -270 -142 -3 3 12 23 33 45 l38 39 -34 -5 c-46 -8
-68 15 -40 40 22 20 91 25 164 13 l47 -8 0 30 c0 22 11 39 45 69 85 75 45 74
-79 -2 -125 -76 -87 -28 89 112 66 53 158 128 205 167 133 112 145 115 210 58z
m590 -2 c-22 -42 -100 -82 -100 -52 0 15 73 71 93 71 14 0 16 -4 7 -19z
m-6100 -26 c0 -20 -22 -65 -32 -65 -12 0 -10 64 4 78 13 13 28 7 28 -13z
m4657 -49 c-6 -82 -32 -143 -68 -161 -39 -21 -75 -19 -99 5 -26 26 -14 58 51
135 56 65 97 97 112 88 5 -3 7 -33 4 -67z m-4787 55 c0 -15 -80 -82 -90 -76
-18 11 -10 24 33 54 44 32 57 37 57 22z m5060 0 c0 -20 -125 -99 -138 -87 -3
3 -1 16 5 28 17 37 133 88 133 59z m-3650 -12 c0 -17 -39 -68 -61 -79 -17 -10
-19 -7 -19 20 0 17 9 39 20 50 21 21 60 27 60 9z m-1201 -30 c10 -18 11 -23 0
-30 -17 -10 -39 8 -39 32 0 25 22 24 39 -2z m5125 9 c-24 -40 -50 -68 -63 -68
-9 0 -1 15 24 40 40 41 52 49 39 28z m-2118 -47 c35 -32 60 -48 72 -45 22 6
67 -39 59 -60 -9 -23 -87 -76 -103 -69 -8 3 -14 18 -14 33 0 61 -13 92 -45
112 -31 18 -50 52 -39 70 8 13 14 10 70 -41z m-2817 8 c34 -12 58 -43 41 -54
-14 -8 -75 12 -90 30 -12 14 -6 35 9 35 4 0 22 -5 40 -11z m1186 -53 c8 -23 6
-30 -9 -42 -13 -9 -21 -31 -25 -71 -5 -48 -10 -60 -31 -70 -14 -7 -36 -12 -50
-11 -22 3 -25 7 -22 36 4 61 89 198 116 189 6 -2 15 -16 21 -31z m-1285 -46
c18 -4 25 -13 25 -30 0 -33 -30 -38 -61 -9 -27 25 -30 49 -12 82 12 22 12 21
18 -8 3 -21 12 -31 30 -35z m1506 16 c3 -8 -3 -29 -13 -48 l-18 -33 -3 33 c-2
19 -1 40 2 48 7 18 25 18 32 0z m1374 -18 c11 -18 20 -43 20 -56 0 -28 -17
-62 -31 -62 -14 0 -49 79 -49 111 0 50 31 53 60 7z m3385 22 c4 -6 -10 -10
-35 -10 -25 0 -39 4 -35 10 3 6 19 10 35 10 16 0 32 -4 35 -10z m-4114 -30
c21 -12 26 -50 7 -50 -16 0 -48 31 -48 47 0 16 14 17 41 3z m2694 0 c-6 -9
-100 -76 -135 -95 -26 -14 54 67 85 86 32 20 60 25 50 9z m-3455 -50 c8 -29 8
-46 -1 -62 l-12 -22 -18 23 c-19 23 -24 56 -13 85 11 29 33 17 44 -24z m1404
-3 c11 -45 -3 -68 -29 -47 -16 13 -20 46 -9 75 10 25 28 12 38 -28z m2794 22
c28 -5 58 -16 68 -24 18 -13 17 -15 -16 -50 -49 -52 -169 -131 -264 -175 -76
-35 -156 -58 -156 -45 0 9 194 247 221 272 37 33 72 38 147 22z m-6012 -44
c19 -18 33 -23 50 -19 17 4 24 2 24 -9 0 -19 -21 -27 -70 -27 -54 0 -90 18
-90 46 0 40 47 45 86 9z m2103 11 c15 -18 3 -46 -19 -46 -10 0 -21 7 -24 16
-6 16 9 44 24 44 4 0 13 -6 19 -14z m4606 4 c30 -11 31 -43 2 -48 -23 -5 -109
37 -101 49 7 12 66 11 99 -1z m180 0 c3 -5 -10 -26 -28 -47 -32 -34 -37 -36
-61 -25 -32 14 -34 45 -4 66 25 18 83 21 93 6z m-6541 -16 c12 -32 7 -84 -9
-84 -21 0 -28 23 -21 65 7 37 20 45 30 19z m7770 -8 c-11 -28 -107 -54 -134
-37 -18 12 -11 19 37 36 51 19 104 19 97 1z m-7506 -16 c52 -32 102 -133 83
-168 -6 -10 -10 -6 -15 18 -5 27 -10 31 -27 27 -18 -5 -20 -2 -15 18 4 15 0
30 -11 40 -15 16 -18 15 -32 -16 -14 -29 -21 -34 -51 -34 -26 0 -34 4 -31 15
3 8 7 39 9 68 4 49 6 52 30 52 15 0 42 -9 60 -20z m353 -3 c19 -12 35 -33 37
-45 5 -33 -21 -27 -57 13 -49 57 -39 72 20 32z m6979 0 c0 -21 -22 -37 -49
-37 -46 0 -55 -13 -48 -69 7 -60 -2 -65 -27 -15 -17 36 -17 37 -67 31 -36 -5
-49 -3 -47 5 7 20 74 69 114 83 51 18 124 19 124 2z m-3350 -24 c0 -32 -21
-97 -52 -158 -34 -69 -42 -80 -57 -71 -14 9 13 96 56 179 35 66 53 83 53 50z
m238 3 c10 -11 -12 -26 -38 -26 -41 0 -84 21 -68 32 12 8 96 3 106 -6z m1702
-33 c0 -7 -6 -13 -13 -13 -21 0 -35 20 -30 41 5 19 7 19 24 3 11 -9 19 -23 19
-31z m-94 -24 c11 -12 13 -19 5 -19 -22 0 -111 42 -106 50 8 13 82 -10 101
-31z m555 31 c17 -10 28 -50 13 -50 -13 0 -74 42 -74 51 0 12 37 11 61 -1z
m-3751 -26 c52 -31 75 -99 47 -138 -37 -51 -168 76 -143 139 7 20 61 19 96 -1z
m-3455 -4 c8 -13 -13 -40 -31 -40 -17 0 -18 22 -2 38 15 15 25 15 33 2z m440
0 c8 -13 -13 -40 -31 -40 -17 0 -18 22 -2 38 15 15 25 15 33 2z m3129 -3 c25
-18 18 -72 -9 -72 -22 0 -42 43 -32 69 8 19 17 20 41 3z m205 -4 c11 -10 24
-32 27 -50 5 -26 1 -36 -21 -57 -16 -14 -39 -26 -51 -26 -20 0 -24 5 -26 33
-2 61 3 92 20 105 21 16 26 15 51 -5z m3945 -29 c-65 -79 -125 -95 -175 -45
-16 16 -29 34 -29 40 0 5 25 13 56 17 31 3 77 12 102 19 83 23 88 20 46 -31z
m-7964 1 c0 -19 -4 -35 -10 -35 -11 0 -14 53 -3 63 11 12 13 8 13 -28z m1611
20 c56 -20 135 -73 150 -102 19 -35 -5 -56 -57 -50 -49 5 -150 49 -181 79 -27
26 -30 63 -5 77 24 14 43 13 93 -4z m566 -19 c-4 -9 -16 -16 -27 -16 -24 0
-25 8 -3 32 19 21 40 9 30 -16z m4943 24 c0 -5 -13 -10 -30 -10 -16 0 -30 5
-30 10 0 6 14 10 30 10 17 0 30 -4 30 -10z m518 -2 c18 -18 14 -38 -8 -38 -15
0 -20 7 -20 25 0 27 9 32 28 13z m933 -4 c32 -19 -61 -40 -120 -26 -46 10 -51
29 -9 35 37 5 115 0 129 -9z m-3357 -7 c16 -12 15 -15 -12 -53 -16 -22 -46
-49 -67 -58 -33 -16 -39 -16 -52 -3 -19 19 -10 48 29 93 32 36 70 44 102 21z
m-3960 -3 c24 -9 19 -20 -15 -34 -23 -10 -33 -10 -42 -1 -9 10 -8 16 7 27 22
16 28 17 50 8z m3035 -19 c11 -11 10 -19 -4 -49 -24 -50 -65 -82 -125 -96 -44
-10 -54 -10 -76 4 -21 15 -24 22 -19 54 11 65 26 92 54 98 14 3 31 7 36 10 20
7 120 -8 134 -21z m3090 -16 c77 -27 8 -56 -107 -46 -77 8 -93 18 -61 41 27
19 120 22 168 5z m-7079 -46 c-18 -32 -35 -39 -43 -19 -8 21 32 71 47 56 8 -8
7 -18 -4 -37z m565 7 c10 -17 8 -107 -4 -129 -6 -11 -21 -26 -34 -32 -21 -11
-21 -10 3 15 23 26 24 28 8 40 -21 15 -23 54 -6 91 12 26 23 32 33 15z m547
-31 c21 -11 44 -19 53 -19 19 0 20 -39 1 -66 -14 -18 -16 -18 -49 14 -26 26
-45 34 -73 35 -44 2 -56 24 -28 51 18 18 35 15 96 -15z m-1576 -4 c7 -17 -12
-45 -30 -45 -23 0 -49 27 -43 44 8 21 65 22 73 1z m2864 -17 c0 -30 0 -31 -20
-13 -11 10 -20 24 -20 32 0 7 9 13 20 13 16 0 20 -7 20 -32z m-1611 -24 c23
-30 27 -64 9 -82 -20 -20 -28 -14 -49 34 -32 70 -3 103 40 48z m4421 10 c0 -8
-4 -24 -10 -34 -11 -21 -78 -65 -86 -57 -7 6 22 65 44 90 19 21 52 22 52 1z
m1538 -54 c4 -38 -14 -63 -28 -40 -11 18 -13 64 -3 74 14 14 28 -1 31 -34z
m-2410 -70 c5 -104 -13 -287 -37 -383 -22 -84 -59 -177 -71 -177 -5 0 -11 38
-15 85 -10 111 9 253 45 359 16 45 34 113 41 150 15 89 33 73 37 -34z m447 63
c-11 -46 -54 -103 -90 -120 -44 -21 -53 -12 -32 32 40 85 139 155 122 88z
m-4950 4 c13 -10 16 -21 12 -39 -8 -29 -85 -148 -96 -148 -9 0 -51 99 -51 119
0 9 8 11 25 7 22 -6 25 -3 25 18 0 14 9 32 22 40 27 19 39 20 63 3z m186 3
c10 -6 19 -17 19 -26 0 -10 7 -13 24 -8 21 5 29 -1 50 -34 17 -27 34 -41 55
-45 38 -8 42 -39 9 -75 l-23 -23 22 -38 c38 -67 5 -61 -74 12 -48 44 -93 122
-93 160 0 28 -23 62 -37 54 -6 -4 -8 -18 -5 -32 5 -28 -21 -36 -32 -9 -22 58
26 95 85 64z m1288 1 c20 -13 -5 -24 -37 -16 -20 5 -23 8 -11 16 18 11 30 11
48 0z m731 -6 c28 -34 -18 -69 -51 -39 l-21 19 22 17 c27 22 34 22 50 3z m383
4 c27 -7 44 -21 62 -49 46 -73 29 -94 -71 -88 l-49 3 3 53 c1 28 0 52 -3 52
-3 0 -23 -9 -45 -20 -22 -11 -42 -20 -45 -20 -13 0 -3 29 18 47 34 32 72 39
130 22z m-1709 -40 c30 -24 33 -49 9 -72 -49 -43 -123 -24 -123 33 0 55 65 78
114 39z m1021 -9 c16 -17 74 -56 129 -89 115 -67 149 -97 126 -112 -14 -9 -46
-7 -119 7 -28 6 -33 5 -28 -8 13 -36 -192 -90 -491 -127 -217 -28 -243 -27
-281 5 -37 31 -39 42 -9 53 18 6 19 9 5 14 -10 4 -17 13 -17 21 0 19 48 76 65
76 7 0 26 -17 42 -38 18 -25 34 -36 46 -34 10 2 24 -2 32 -8 8 -7 40 -14 72
-17 46 -4 61 -2 72 11 11 13 9 17 -13 27 -20 10 -26 19 -26 44 0 41 23 118 46
152 17 27 17 27 25 5 10 -28 33 -28 101 -1 50 19 53 20 65 3 17 -24 16 -104
-2 -128 -19 -25 -19 -66 -1 -66 40 0 106 126 106 202 0 47 16 49 55 8z m1938
7 c17 -11 16 -16 -3 -71 -11 -33 -18 -61 -17 -63 2 -2 18 19 35 46 37 60 77
89 101 74 22 -14 26 -58 6 -75 -30 -25 -36 -33 -65 -84 -31 -56 -106 -114
-147 -114 -29 0 -30 23 -3 68 27 44 25 50 -12 54 -32 3 -33 5 -38 53 -5 47 -7
50 -35 53 -28 3 -55 25 -55 44 0 17 47 27 131 27 54 1 92 -4 102 -12z m1697 8
c0 -14 -65 -75 -81 -75 -30 0 -22 17 23 50 38 28 58 37 58 25z m-3149 -55 c6
0 7 -4 4 -10 -8 -13 -52 -13 -59 -1 -7 11 14 21 32 15 8 -2 18 -4 23 -4z
m2709 -70 c-36 -46 -51 -47 -24 -3 28 45 48 66 52 54 2 -6 -11 -29 -28 -51z
m-5250 30 c25 -25 18 -40 -16 -40 -26 0 -40 20 -30 45 7 21 22 19 46 -5z
m1601 -19 c-15 -27 -79 -81 -97 -81 -30 0 -9 35 40 68 55 37 71 40 57 13z
m-231 -16 c6 -15 6 -34 1 -47 -9 -22 -10 -22 -24 11 -15 35 -13 61 4 61 5 0
14 -11 19 -25z m4146 -17 c8 -13 -49 -68 -71 -68 -38 0 -17 51 30 71 28 11 33
11 41 -3z m-4524 -14 c64 -17 132 -46 142 -63 12 -18 -24 -34 -63 -27 -30 4
-44 2 -56 -11 -16 -15 -20 -15 -44 -2 -14 9 -25 22 -23 31 4 26 -34 50 -78 50
-33 -1 -40 3 -40 19 0 16 7 19 49 19 27 0 78 -7 113 -16z m-271 -64 c-26 -22
-68 -36 -78 -26 -15 14 31 46 66 46 l36 -1 -24 -19z m208 -71 c15 -11 50 -23
79 -28 60 -9 67 -14 58 -37 -5 -14 -18 -16 -79 -12 -88 6 -167 37 -167 67 0
43 57 49 109 10z m4947 19 c8 -12 -30 -48 -50 -48 -7 0 -21 6 -31 14 -16 12
-17 16 -6 30 16 18 76 22 87 4z m-4676 -28 c0 -13 -78 -52 -90 -45 -14 8 -12
29 2 43 14 14 88 16 88 2z m2464 -39 c17 -19 15 -41 -5 -41 -15 0 -50 40 -44
50 10 16 30 12 49 -9z m2064 -23 c7 -7 12 -20 12 -31 0 -30 -34 -16 -38 16 -4
29 6 35 26 15z m-4558 -26 c0 -23 -119 -92 -157 -92 -18 0 -23 6 -23 24 0 32
10 37 95 57 89 21 85 20 85 11z m4361 -114 c-20 -13 -55 -22 -99 -25 -76 -5
-71 7 13 31 100 29 137 26 86 -6z m247 16 c27 -19 29 -44 3 -44 -21 0 -54 38
-45 52 7 12 17 10 42 -8z m-1348 -79 c0 -11 -5 -27 -10 -35 -7 -11 -10 -1 -10
35 0 36 3 46 10 35 5 -8 10 -24 10 -35z m-682 -37 c17 -34 22 -56 17 -78 -4
-16 -10 -30 -14 -30 -11 0 -61 116 -61 141 0 36 34 17 58 -33z m1655 6 c33 -8
80 -14 105 -12 28 2 47 -1 49 -9 8 -22 -79 -37 -212 -38 -108 0 -130 3 -130
15 0 21 63 60 98 60 16 0 56 -7 90 -16z m-283 -90 c0 -26 -87 -127 -102 -118
-19 12 -6 58 26 90 29 29 76 47 76 28z m279 -50 c35 -44 23 -104 -20 -104 -27
0 -44 -27 -29 -45 21 -25 57 -18 72 13 21 43 43 35 46 -19 2 -35 -2 -49 -17
-63 -43 -39 -299 -30 -398 14 -45 20 -57 40 -23 40 11 0 53 31 93 70 94 89
148 120 209 120 38 0 50 -5 67 -26z m-988 -51 c15 -37 6 -336 -11 -383 -19
-52 -31 -65 -42 -46 -8 15 8 411 18 444 6 21 24 13 35 -15z"/>
<path d="M5210 9930 c0 -5 14 -10 30 -10 17 0 30 5 30 10 0 6 -13 10 -30 10
-16 0 -30 -4 -30 -10z"/>
<path d="M4912 6798 c-16 -16 -15 -38 2 -38 18 0 39 27 31 40 -8 13 -18 13
-33 -2z"/>
<path d="M5105 6500 c-17 -18 -17 -20 -1 -26 20 -8 52 19 42 35 -10 16 -21 14
-41 -9z"/>
<path d="M6144 6486 c-9 -24 4 -48 23 -44 12 2 18 12 18 28 0 29 -32 41 -41
16z"/>
<path d="M9580 6135 c0 -27 25 -44 41 -28 10 10 -16 53 -32 53 -5 0 -9 -11 -9
-25z"/>
<path d="M5615 5908 c-12 -25 -31 -48 -47 -56 -23 -11 -28 -19 -27 -50 0 -33
1 -35 11 -15 6 12 23 26 39 32 36 12 51 42 47 92 l-3 41 -20 -44z"/>
<path d="M3570 5609 c-19 -12 -46 -30 -59 -40 l-24 -19 52 0 c56 0 91 23 91
60 0 26 -16 25 -60 -1z"/>
<path d="M3460 5457 c0 -16 54 -67 71 -67 20 0 21 32 3 50 -27 26 -74 37 -74
17z"/>
<path d="M4037 5418 c-26 -26 -36 -58 -19 -58 17 0 54 49 50 67 -3 16 -6 15
-31 -9z"/>
<path d="M3890 4765 c0 -32 2 -56 5 -53 8 8 9 98 1 105 -3 4 -6 -20 -6 -52z"/>
<path d="M4085 4646 c-8 -13 -13 -31 -9 -40 6 -16 7 -16 19 1 19 27 28 63 16
63 -6 0 -17 -11 -26 -24z"/>
<path d="M4297 4606 c-3 -8 1 -22 8 -33 13 -17 15 -17 31 -1 9 9 14 24 11 32
-8 20 -43 21 -50 2z"/>
<path d="M6250 4580 c0 -16 5 -30 10 -30 6 0 10 14 10 30 0 17 -4 30 -10 30
-5 0 -10 -13 -10 -30z"/>
<path d="M6013 4530 c4 -16 0 -51 -8 -77 -19 -61 -19 -73 1 -73 25 0 74 56 74
85 0 46 -35 95 -67 95 -3 0 -3 -13 0 -30z"/>
<path d="M6267 4443 c-2 -5 -10 -25 -16 -45 -7 -20 -23 -44 -37 -52 -28 -19
-31 -36 -6 -36 23 0 111 55 118 75 9 23 -47 78 -59 58z"/>
<path d="M5111 4966 c-9 -11 -6 -18 15 -35 32 -25 44 -27 44 -5 0 44 -36 68
-59 40z"/>
<path d="M2172 4784 c-27 -19 -30 -64 -4 -64 29 0 82 38 82 60 0 25 -45 28
-78 4z"/>
<path d="M2467 4782 c-23 -25 -21 -34 6 -30 14 2 23 11 25 26 4 27 -9 28 -31
4z"/>
<path d="M10665 4653 c-16 -15 -16 -17 0 -25 18 -11 45 6 45 28 0 19 -25 18
-45 -3z"/>
<path d="M10424 4455 c-8 -20 13 -45 38 -45 24 0 34 26 18 45 -16 19 -49 19
-56 0z"/>
<path d="M10190 4255 c0 -30 11 -32 33 -7 23 25 21 32 -8 32 -20 0 -25 -5 -25
-25z"/>
<path d="M1673 4715 c-39 -17 -42 -31 -9 -39 29 -7 123 11 132 26 18 28 -68
37 -123 13z"/>
<path d="M2491 4521 c-12 -8 -9 -11 11 -16 32 -8 57 3 37 16 -18 11 -30 11
-48 0z"/>
<path d="M1934 4486 c-9 -24 4 -48 23 -44 12 2 18 12 18 28 0 29 -32 41 -41
16z"/>
<path d="M10030 4147 c0 -16 32 -47 48 -47 19 0 14 38 -7 50 -27 14 -41 13
-41 -3z"/>
<path d="M6973 3494 c-12 -33 64 -73 83 -43 8 13 -23 44 -54 54 -16 5 -24 2
-29 -11z"/>
<path d="M8905 3536 c-16 -12 -17 -16 -6 -30 15 -18 76 -22 87 -5 16 27 -52
57 -81 35z"/>
<path d="M4526 2795 c-49 -17 -71 -38 -62 -60 5 -14 14 -16 39 -11 32 7 97 52
105 74 5 16 -33 15 -82 -3z"/>
<path d="M5650 10360 c-15 -28 -2 -70 21 -70 23 0 35 40 19 69 -14 26 -26 27
-40 1z"/>
<path d="M8642 9794 c-13 -9 -22 -26 -22 -41 l0 -26 26 24 c53 49 50 81 -4 43z"/>
<path d="M3983 9513 c-20 -7 -15 -35 11 -73 31 -47 70 -68 91 -50 13 11 12 15
-10 32 -14 11 -25 28 -25 39 0 19 -33 60 -47 58 -5 0 -14 -3 -20 -6z"/>
<path d="M9720 9247 c0 -13 32 -46 58 -61 20 -12 13 11 -14 43 -27 33 -44 40
-44 18z"/>
<path d="M9310 8900 c40 -35 50 -37 50 -12 0 27 -20 42 -54 42 l-31 -1 35 -29z"/>
<path d="M9957 8863 c-4 -3 1 -12 11 -19 16 -12 16 -13 -1 -31 -22 -25 -22
-33 3 -33 38 0 90 28 90 48 0 29 -82 57 -103 35z"/>
<path d="M10331 8765 c1 -40 1 -40 11 -12 7 21 7 32 -1 40 -8 8 -11 0 -10 -28z"/>
<path d="M9678 8731 c-29 -32 -46 -40 -86 -46 -28 -4 -59 -13 -69 -21 -43 -33
35 -40 140 -13 66 17 94 62 65 102 -12 15 -16 13 -50 -22z"/>
<path d="M10060 8711 c-25 -48 1 -109 32 -73 21 24 29 52 23 73 -8 25 -41 24
-55 0z"/>
<path d="M2460 8595 c-10 -12 -10 -19 -2 -27 16 -16 42 -2 42 22 0 24 -22 26
-40 5z"/>
<path d="M2383 8553 c-33 -12 11 -83 51 -83 26 0 56 19 56 35 0 26 -76 60
-107 48z"/>
<path d="M11086 8507 c-19 -14 -19 -48 1 -54 6 -2 21 5 33 17 17 17 19 24 9
36 -14 17 -20 18 -43 1z"/>
<path d="M11210 8485 c-10 -12 -10 -18 0 -30 25 -30 57 -12 45 25 -8 24 -28
26 -45 5z"/>
<path d="M10795 8450 c-12 -37 20 -55 45 -25 10 12 10 18 0 30 -17 21 -37 19
-45 -5z"/>
<path d="M10881 8425 c1 -40 1 -40 11 -12 7 21 7 32 -1 40 -8 8 -11 0 -10 -28z"/>
<path d="M2297 8404 c-4 -4 -7 -16 -7 -27 0 -15 5 -18 21 -14 14 4 27 -2 42
-19 22 -26 57 -32 57 -11 0 33 -93 91 -113 71z"/>
<path d="M10661 8366 c-15 -18 -3 -46 20 -46 25 0 35 26 19 45 -15 19 -24 19
-39 1z"/>
<path d="M11872 8298 c-17 -22 -36 -87 -28 -95 14 -14 46 38 46 73 0 37 -3 40
-18 22z"/>
<path d="M2320 8204 c-12 -14 -12 -18 5 -30 32 -24 70 -11 63 22 -4 25 -50 30
-68 8z"/>
<path d="M11977 8206 c-3 -8 1 -22 8 -33 13 -17 15 -17 31 -1 9 9 14 24 11 32
-8 20 -43 21 -50 2z"/>
<path d="M11935 8036 c-18 -13 -18 -15 -2 -40 24 -35 93 -80 112 -72 27 10 12
40 -25 53 -31 10 -35 15 -32 42 2 24 -2 31 -16 31 -10 0 -27 -6 -37 -14z"/>
<path d="M10166 7940 c-32 -38 -33 -52 -4 -48 28 4 58 52 42 68 -8 8 -18 3
-38 -20z"/>
<path d="M11727 7592 c-35 -37 -34 -44 6 -40 28 3 32 7 35 36 4 39 -6 40 -41
4z"/>
<path d="M11553 7569 c-23 -28 -20 -127 3 -136 40 -15 61 84 26 127 -15 18
-20 20 -29 9z"/>
<path d="M11800 7487 c-16 -8 -30 -28 -39 -57 -21 -69 -25 -74 -67 -84 -96
-22 -113 -27 -135 -45 -33 -26 -14 -30 76 -14 101 17 137 38 146 83 5 23 21
46 45 66 25 21 35 37 31 48 -8 19 -23 20 -57 3z"/>
<path d="M11920 7425 c-24 -24 -59 -52 -77 -60 -26 -13 -33 -22 -31 -38 3 -19
9 -22 46 -21 51 1 86 29 113 92 37 85 16 96 -51 27z"/>
<path d="M12354 7017 c-19 -17 -25 -29 -21 -42 8 -20 25 -10 58 37 17 23 18
28 5 28 -8 0 -27 -11 -42 -23z"/>
<path d="M12173 7004 c-4 -11 1 -22 12 -30 23 -17 40 -18 66 -3 20 10 20 11 3
30 -21 24 -72 25 -81 3z"/>
<path d="M1160 6011 c0 -25 39 -74 40 -49 0 22 -21 68 -32 68 -4 0 -8 -9 -8
-19z"/>
<path d="M1250 5902 c0 -5 11 -13 24 -16 21 -5 36 -19 107 -105 16 -19 22 -21
34 -11 8 7 15 23 15 36 0 23 19 48 42 57 10 3 8 9 -5 23 -14 16 -36 20 -117
22 -61 3 -100 0 -100 -6z"/>
<path d="M1170 5765 c-16 -19 -4 -35 25 -35 13 0 27 5 30 10 8 13 -13 40 -30
40 -7 0 -18 -7 -25 -15z"/>
<path d="M1192 5563 c-13 -25 -4 -43 19 -43 25 0 35 25 19 45 -16 20 -27 19
-38 -2z"/>
<path d="M1325 5550 c-13 -21 4 -60 26 -60 17 0 20 5 17 32 -3 33 -29 50 -43
28z"/>
<path d="M366 5193 c-9 -10 -23 -27 -30 -38 -10 -14 -23 -19 -50 -17 -27 2
-34 -1 -30 -12 9 -24 60 -39 108 -32 55 9 96 39 96 71 0 42 -62 60 -94 28z"/>
<path d="M262 4947 c7 -57 44 -141 59 -131 28 17 -16 174 -48 174 -12 0 -15
-9 -11 -43z"/>
<path d="M271 4729 c-68 -15 -83 -69 -18 -69 38 0 62 16 71 46 8 27 -7 33 -53
23z"/>
<path d="M4 4473 c12 -66 52 -104 92 -89 12 5 13 10 3 28 -22 43 -71 98 -86
98 -12 0 -14 -8 -9 -37z"/>
<path d="M1415 4095 c-32 -33 -47 -75 -26 -75 23 0 106 67 109 88 5 36 -40 29
-83 -13z"/>
<path d="M1630 4060 c0 -14 75 -50 105 -50 34 0 24 15 -25 40 -42 21 -80 26
-80 10z"/>
<path d="M10851 3934 c7 -8 25 -22 40 -30 32 -16 83 -19 74 -4 -10 16 -82 50
-106 50 -18 0 -20 -2 -8 -16z"/>
<path d="M11056 3942 c-6 -10 43 -82 56 -82 14 0 9 58 -8 74 -17 17 -40 21
-48 8z"/>
<path d="M11615 3900 c-16 -16 -26 -32 -24 -35 10 -9 74 30 77 48 5 26 -21 20
-53 -13z"/>
<path d="M11240 3755 c0 -25 27 -72 45 -79 55 -21 59 7 7 57 -42 41 -52 45
-52 22z"/>
<path d="M10530 3552 c-48 -23 -48 -56 -1 -60 59 -6 134 39 115 69 -9 15 -77
10 -114 -9z"/>
<path d="M10948 3490 c-88 -9 -128 -29 -128 -64 0 -35 19 -37 96 -11 81 28
107 30 124 10 18 -21 59 -19 110 8 49 24 60 41 34 51 -29 11 -156 15 -236 6z"/>
<path d="M10220 3440 c0 -5 14 -10 31 -10 17 0 28 4 24 10 -3 6 -17 10 -31 10
-13 0 -24 -4 -24 -10z"/>
<path d="M10500 3326 c-16 -30 -6 -59 17 -54 13 2 19 14 21 41 4 44 -17 51
-38 13z"/>
<path d="M1656 3321 c-9 -14 4 -43 32 -73 33 -36 46 -35 39 2 -12 57 -54 99
-71 71z"/>
<path d="M1777 3263 c-10 -9 -8 -15 9 -38 12 -17 16 -18 24 -5 15 24 -14 63
-33 43z"/>
<path d="M1495 3143 c-11 -3 -30 -16 -42 -29 -16 -18 -33 -24 -61 -24 -47 0
-57 -16 -42 -69 11 -43 43 -77 81 -86 32 -8 49 11 46 51 -2 25 2 29 25 32 25
3 27 0 30 -40 2 -34 7 -43 22 -43 32 0 60 49 61 108 l0 52 -50 -2 -50 -3 23
20 c37 31 15 47 -43 33z"/>
<path d="M1717 3043 c-9 -8 -9 -76 -1 -97 10 -27 34 1 34 39 0 53 -14 77 -33
58z"/>
<path d="M1287 2943 c-13 -12 -7 -40 14 -67 29 -37 43 -33 36 10 -8 49 -32 76
-50 57z"/>
<path d="M1506 2814 c-20 -20 -21 -54 -1 -54 16 0 35 30 35 54 0 20 -14 20
-34 0z"/>
<path d="M10988 2793 c-7 -27 1 -43 23 -43 24 0 24 22 0 44 -17 16 -19 16 -23
-1z"/>
<path d="M1837 2782 c-22 -24 -21 -32 3 -32 23 0 38 26 23 41 -6 6 -16 3 -26
-9z"/>
<path d="M10991 2658 c-15 -41 -21 -103 -12 -118 14 -21 41 46 41 100 0 44
-16 53 -29 18z"/>
<path d="M2976 2633 c-4 -9 0 -23 9 -32 13 -14 17 -14 31 1 9 9 14 24 11 32
-8 21 -43 20 -51 -1z"/>
<path d="M9336 2603 c-9 -24 9 -39 29 -23 8 7 15 19 15 26 0 20 -37 17 -44 -3z"/>
<path d="M2920 2580 c0 -16 5 -30 10 -30 6 0 10 14 10 30 0 17 -4 30 -10 30
-5 0 -10 -13 -10 -30z"/>
<path d="M2218 2584 c-4 -3 1 -22 9 -42 9 -20 19 -50 22 -67 5 -24 12 -31 36
-33 17 -2 39 4 50 12 20 14 20 15 2 48 -28 52 -100 101 -119 82z"/>
<path d="M3380 2512 c-41 -23 -54 -48 -19 -37 32 10 69 35 69 46 0 13 -11 11
-50 -9z"/>
<path d="M9642 2393 c-13 -25 -4 -43 19 -43 25 0 35 25 19 45 -16 20 -27 19
-38 -2z"/>
<path d="M2237 2379 c-11 -6 -25 -27 -33 -45 -8 -19 -20 -37 -27 -39 -7 -2
-38 -11 -69 -19 -37 -11 -70 -29 -95 -52 -36 -34 -37 -36 -18 -50 29 -22 44
-17 66 21 21 35 21 35 93 35 82 0 92 6 119 78 29 75 16 101 -36 71z"/>
<path d="M3953 2343 c-7 -3 -13 -16 -13 -30 0 -20 4 -24 23 -21 13 2 23 11 25
24 3 22 -13 34 -35 27z"/>
<path d="M3767 2299 c-20 -12 -22 -35 -3 -42 15 -6 36 11 36 29 0 19 -13 24
-33 13z"/>
<path d="M2353 2176 c13 -91 57 -140 121 -134 l35 3 -66 85 c-78 102 -99 113
-90 46z"/>
<path d="M9620 2173 c-8 -2 -22 -7 -30 -10 -25 -8 18 -33 58 -33 40 0 72 -15
72 -35 0 -26 23 -29 42 -5 27 33 23 68 -8 80 -26 10 -108 12 -134 3z"/>
<path d="M9951 2121 c-12 -8 -9 -11 11 -16 32 -8 57 3 37 16 -18 11 -30 11
-48 0z"/>
<path d="M9584 2085 c-8 -20 13 -45 37 -45 9 0 27 -13 39 -30 14 -19 30 -30
46 -30 43 0 24 29 -60 91 -44 33 -54 35 -62 14z"/>
<path d="M8822 2058 c-25 -25 -7 -48 39 -48 25 0 35 25 19 45 -15 18 -42 19
-58 3z"/>
<path d="M8280 1720 c-11 -7 -3 -10 30 -10 33 0 41 3 30 10 -8 5 -22 10 -30
10 -8 0 -22 -5 -30 -10z"/>
</g>
</svg>
