<?xml version="1.0" standalone="no"?>
<!DOCTYPE svg PUBLIC "-//W3C//DTD SVG 20010904//EN"
 "http://www.w3.org/TR/2001/REC-SVG-20010904/DTD/svg10.dtd">
<svg version="1.0" xmlns="http://www.w3.org/2000/svg"
 width="1280.000000pt" height="1277.000000pt" viewBox="0 0 1280.000000 1277.000000"
 preserveAspectRatio="xMidYMid meet">
<metadata>
Created by potrace 1.15, written by Peter Selinger 2001-2017
</metadata>
<g transform="translate(0.000000,1277.000000) scale(0.100000,-0.100000)"
fill="#000000" stroke="none">
<path d="M6197 12755 c-549 -92 -935 -591 -886 -1147 17 -203 85 -381 210
-549 161 -218 459 -394 742 -439 119 -19 329 -8 445 24 505 140 831 612 781
1133 -35 374 -255 684 -609 863 -230 115 -455 153 -683 115z"/>
<path d="M6276 10589 c-43 -5 -101 -15 -130 -23 -28 -8 -100 -22 -161 -31
-781 -117 -1473 -613 -1848 -1325 -51 -97 -125 -268 -156 -365 -13 -40 -13
-40 -134 -84 -614 -224 -1146 -719 -1417 -1321 -95 -209 -154 -405 -195 -650
-14 -80 -31 -172 -38 -205 l-14 -60 -18 80 c-70 317 -269 567 -572 723 -163
84 -265 115 -429 132 -484 50 -951 -255 -1108 -724 -151 -453 22 -957 419
-1221 384 -255 815 -279 1189 -65 256 147 445 412 505 707 l18 85 16 -64 c9
-34 24 -110 33 -168 76 -512 312 -983 684 -1363 145 -149 258 -244 420 -352
130 -86 423 -236 547 -280 66 -24 84 -35 92 -55 5 -14 30 -79 56 -145 183
-466 525 -883 953 -1166 310 -205 689 -357 1022 -409 109 -17 156 -26 240 -45
94 -21 271 -21 360 0 36 8 130 26 210 40 564 96 1025 335 1410 731 251 258
444 562 560 879 l44 121 121 44 c613 224 1144 719 1415 1320 95 209 154 405
195 650 14 80 31 172 38 205 l14 60 17 -79 c71 -318 269 -568 573 -724 162
-83 265 -115 426 -132 686 -71 1263 544 1152 1229 -68 420 -381 759 -817 885
-593 171 -1215 -206 -1337 -811 l-18 -85 -16 64 c-9 34 -24 110 -33 168 -77
513 -311 979 -684 1363 -144 149 -258 244 -420 352 -120 80 -447 246 -562 286
l-67 23 -36 101 c-265 719 -852 1284 -1600 1542 -117 40 -299 86 -405 103
-101 16 -152 25 -235 43 -95 20 -185 25 -279 16z m1419 -991 c239 -200 447
-487 569 -788 24 -59 26 -74 26 -227 l0 -163 25 0 c13 0 28 -6 32 -13 4 -8 16
-16 25 -20 10 -3 18 -19 20 -39 3 -28 7 -33 26 -30 13 2 25 -3 28 -12 5 -14
30 -16 166 -16 155 0 162 -1 236 -31 237 -94 509 -292 700 -509 74 -84 202
-258 202 -274 0 -4 -10 0 -22 8 -13 8 -86 43 -163 77 -426 188 -942 300 -1462
316 l-193 6 0 131 c0 532 -136 1164 -345 1603 -30 64 -55 118 -55 120 0 8 91
-61 185 -139z m-2502 -43 c-182 -425 -286 -928 -300 -1456 l-6 -216 -221 -6
c-516 -14 -1015 -116 -1431 -292 -60 -26 -117 -49 -125 -53 -29 -12 118 166
230 278 166 166 326 282 533 386 175 89 197 94 377 94 159 0 160 0 160 23 0
53 10 66 56 73 l44 6 0 163 c0 157 1 164 30 235 133 321 354 615 626 830 42
33 78 60 79 60 1 0 -22 -56 -52 -125z m1539 -949 c336 -63 603 -203 849 -446
97 -96 237 -272 220 -278 -13 -4 42 -58 56 -54 6 2 21 -6 32 -17 12 -12 25
-21 29 -21 21 0 208 -168 282 -252 203 -232 335 -499 402 -808 19 -91 22 -134
22 -330 0 -196 -3 -239 -22 -330 -93 -430 -322 -794 -656 -1042 -43 -33 -84
-57 -90 -56 -14 5 -68 -50 -54 -54 12 -4 -104 -158 -183 -243 -234 -249 -570
-434 -919 -505 -200 -40 -475 -38 -690 6 -173 36 -383 123 -529 219 -107 71
-256 201 -337 293 -87 101 -160 202 -145 202 5 0 -2 12 -17 28 -15 15 -30 24
-33 19 -3 -4 -17 3 -30 15 -14 13 -36 29 -50 36 -46 24 -204 168 -277 252
-198 229 -334 506 -395 804 -19 95 -22 143 -22 326 0 183 3 231 22 326 87 425
322 798 661 1049 47 35 89 61 92 57 3 -4 17 5 32 21 15 15 22 27 17 27 -15 0
60 103 149 205 267 306 647 506 1072 565 97 13 410 4 512 -14z m-1782 -746 c0
-5 -7 -10 -16 -10 -8 0 -12 5 -9 10 3 6 10 10 16 10 5 0 9 -4 9 -10z m-1745
-2638 c444 -200 953 -312 1491 -329 l191 -6 6 -196 c10 -292 39 -537 98 -804
59 -268 164 -580 263 -776 21 -40 36 -75 34 -77 -6 -5 -157 113 -246 194 -198
179 -394 461 -502 721 -29 72 -30 78 -30 237 l0 164 -25 0 c-13 0 -28 6 -32
13 -4 8 -16 16 -25 20 -10 3 -18 19 -20 39 -3 28 -7 33 -26 30 -13 -2 -25 3
-28 12 -5 14 -30 16 -166 16 -155 0 -162 1 -236 31 -317 126 -649 403 -861
715 -47 70 -50 80 -18 60 12 -8 72 -37 132 -64z m6433 -64 c-178 -233 -439
-448 -711 -584 -175 -89 -197 -94 -377 -94 -159 0 -160 0 -160 -22 0 -54 -10
-67 -56 -74 l-44 -6 0 -162 c0 -152 -2 -167 -26 -226 -125 -308 -330 -590
-583 -802 -136 -113 -137 -113 -90 -11 101 219 201 558 253 855 40 228 57 397
63 634 l6 221 221 6 c520 14 1028 118 1438 296 62 27 117 49 121 50 5 1 -20
-36 -55 -81z m-1763 -248 c-3 -5 -11 -10 -16 -10 -6 0 -7 5 -4 10 3 6 11 10
16 10 6 0 7 -4 4 -10z m-5 -24 c0 -3 -4 -8 -10 -11 -5 -3 -10 -1 -10 4 0 6 5
11 10 11 6 0 10 -2 10 -4z"/>
<path d="M6220 2153 c-348 -56 -626 -251 -788 -553 -156 -290 -168 -647 -32
-947 146 -321 492 -578 861 -638 606 -98 1171 340 1228 953 25 269 -47 523
-210 743 -155 210 -438 382 -712 434 -73 14 -282 19 -347 8z"/>
</g>
</svg>
