<?xml version="1.0" standalone="no"?>
<!DOCTYPE svg PUBLIC "-//W3C//DTD SVG 20010904//EN"
 "http://www.w3.org/TR/2001/REC-SVG-20010904/DTD/svg10.dtd">
<svg version="1.0" xmlns="http://www.w3.org/2000/svg"
 width="1230.000000pt" height="1280.000000pt" viewBox="0 0 1230.000000 1280.000000"
 preserveAspectRatio="xMidYMid meet">
<metadata>
Created by potrace 1.15, written by Peter Selinger 2001-2017
</metadata>
<g transform="translate(0.000000,1280.000000) scale(0.100000,-0.100000)"
fill="#000000" stroke="none">
<path d="M6904 11923 c-3 -21 -14 -67 -25 -103 -34 -118 -147 -328 -170 -315
-5 3 -6 0 -4 -7 3 -8 -7 -25 -22 -38 l-28 -25 20 25 c11 14 -3 4 -30 -21 -92
-86 -199 -160 -300 -209 -112 -54 -178 -74 -308 -90 -270 -33 -563 74 -803
294 -39 36 -74 63 -77 59 -8 -8 -94 127 -128 202 -16 35 -36 92 -46 127 -9 35
-17 64 -18 66 -3 4 -288 -67 -407 -102 -141 -41 -369 -121 -498 -174 -108 -44
-104 -34 -69 -162 20 -72 23 -109 23 -240 1 -131 -3 -168 -22 -240 -111 -409
-427 -687 -842 -740 -266 -34 -573 60 -769 236 l-52 47 -77 -75 c-180 -176
-339 -348 -464 -504 l-57 -70 92 -96 c190 -197 280 -421 280 -698 0 -114 -5
-150 -27 -234 -97 -362 -360 -621 -729 -719 -113 -30 -356 -30 -465 0 l-72 20
-26 -81 c-94 -296 -221 -912 -190 -921 6 -2 34 -6 61 -10 28 -4 91 -20 140
-36 310 -103 544 -346 642 -666 24 -80 27 -103 27 -263 1 -190 -5 -225 -65
-382 -104 -268 -362 -498 -649 -577 -40 -11 -75 -22 -77 -25 -4 -4 69 -295
100 -396 15 -52 10 -51 166 -31 316 39 666 -107 869 -362 294 -369 292 -875
-3 -1244 -36 -45 -79 -92 -95 -103 -17 -12 -30 -25 -30 -30 0 -10 152 -199
253 -315 73 -84 174 -189 325 -338 l89 -88 59 58 c77 77 157 135 252 184 86
44 233 93 260 86 15 -4 15 -5 -2 -6 -24 -1 -159 -41 -154 -46 1 -2 37 3 78 11
41 8 91 17 110 20 19 3 62 9 95 15 33 5 87 10 120 11 40 1 21 4 -55 9 -114 6
-114 6 30 4 168 -3 255 -22 387 -85 279 -132 471 -366 545 -666 17 -69 22
-120 22 -224 1 -147 -16 -244 -61 -358 -14 -35 -21 -68 -17 -72 21 -21 372
-147 554 -200 136 -39 392 -102 395 -98 1 2 9 31 18 66 10 35 30 92 46 127 35
76 117 206 129 203 4 -2 39 25 78 60 292 261 612 351 949 266 135 -34 323
-146 460 -273 27 -25 41 -35 30 -21 l-20 25 28 -25 c15 -13 25 -30 22 -38 -2
-7 -1 -10 4 -7 23 13 136 -197 170 -315 11 -36 22 -82 25 -102 8 -46 1 -45
190 -13 234 39 663 142 688 164 3 3 -3 40 -14 81 -17 60 -21 105 -21 230 0
136 3 167 26 253 46 171 134 324 257 447 182 183 402 277 660 284 108 3 112 2
35 -3 -49 -4 -79 -8 -65 -10 14 -1 48 -4 75 -7 75 -7 409 -83 435 -99 6 -3 10
-4 10 -1 0 3 -17 14 -37 25 -21 11 -33 20 -28 20 18 1 156 -79 215 -124 32
-24 91 -80 132 -124 l74 -80 119 96 c184 147 335 285 508 462 l158 162 -56 60
c-319 345 -360 849 -101 1237 50 75 165 193 241 248 75 55 239 129 340 156 77
20 113 23 250 22 142 -1 169 -4 245 -27 47 -14 92 -28 101 -32 13 -5 24 14 54
92 108 280 250 774 228 793 -4 4 -33 15 -63 25 -235 75 -456 269 -570 500 -79
160 -95 236 -94 445 0 161 2 182 27 263 52 167 135 306 256 428 128 127 277
213 452 259 l86 22 -19 122 c-59 393 -167 798 -310 1163 l-59 152 -46 -20
c-140 -60 -376 -86 -541 -59 -441 71 -785 441 -821 883 -15 186 19 368 100
530 51 101 94 162 178 250 l65 68 -130 130 c-143 145 -305 291 -466 423 l-107
87 -36 -40 c-78 -86 -297 -230 -331 -217 -8 3 -13 2 -9 -3 6 -12 -134 -59
-195 -66 -42 -4 -42 -4 10 8 65 16 163 48 158 52 -2 2 -41 -5 -88 -15 -47 -10
-112 -22 -145 -26 -33 -4 -63 -9 -67 -10 -5 -1 -45 -3 -90 -5 -80 -3 -78 -3
42 -9 l125 -7 -155 2 c-168 2 -214 11 -355 67 -150 60 -323 197 -421 333 -144
201 -211 481 -174 725 6 36 11 74 13 84 2 15 -12 23 -73 42 -193 61 -516 135
-732 169 -131 20 -126 21 -134 -22z m-1554 -617 l35 -27 -35 22 c-42 28 -168
147 -182 172 -5 11 26 -17 69 -60 43 -44 94 -92 113 -107z m1260 72 c-123
-111 -271 -193 -436 -239 -68 -20 -101 -23 -244 -22 -123 0 -178 5 -215 17
-27 9 -36 14 -20 11 151 -24 193 -27 291 -22 234 12 469 114 618 266 28 28 52
48 55 45 3 -4 -19 -29 -49 -56z m-1002 -203 c29 -10 51 -19 49 -22 -12 -11
-205 74 -252 111 -11 9 18 -4 65 -28 47 -25 109 -52 138 -61z m695 -2946 c449
-39 859 -234 1167 -555 130 -136 259 -312 244 -335 -4 -8 -3 -10 4 -5 14 8 46
-50 36 -66 -4 -6 -3 -8 3 -5 13 8 26 -20 16 -35 -3 -7 -1 -8 6 -4 14 9 45 -59
35 -76 -4 -6 -3 -8 4 -4 13 8 47 -78 37 -95 -5 -7 -4 -10 3 -5 11 7 51 -104
78 -219 60 -262 60 -589 0 -850 -33 -142 -102 -329 -118 -319 -7 4 -8 2 -4 -5
11 -17 -41 -124 -55 -115 -8 4 -9 3 -5 -4 10 -16 -22 -74 -36 -66 -7 5 -8 3
-4 -5 15 -23 -114 -199 -244 -335 -256 -267 -594 -453 -955 -525 -617 -124
-1251 74 -1685 525 -130 136 -259 312 -244 335 4 8 3 10 -4 5 -14 -8 -66 90
-56 106 4 7 3 8 -5 4 -14 -9 -45 59 -35 76 4 6 3 8 -4 4 -13 -8 -47 78 -37 95
5 7 4 10 -3 5 -20 -12 -79 196 -107 379 -18 117 -21 396 -5 505 29 202 125
521 151 504 5 -3 6 1 3 9 -8 21 44 119 58 111 7 -4 8 -3 4 4 -9 15 22 75 34
67 6 -3 7 0 5 7 -12 32 163 256 305 391 334 317 766 494 1238 506 30 0 108 -4
175 -10z m-3330 -5626 c-7 -2 -19 -2 -25 0 -7 3 -2 5 12 5 14 0 19 -2 13 -5z
m5915 -290 c-10 -2 -28 -2 -40 0 -13 2 -5 4 17 4 22 1 32 -1 23 -4z m49 -9
c-3 -3 -12 -4 -19 -1 -8 3 -5 6 6 6 11 1 17 -2 13 -5z m83 -19 c47 -18 27 -18
-30 -1 -25 8 -36 15 -25 15 11 0 36 -7 55 -14z m70 -25 c8 -5 11 -10 5 -10 -5
0 -17 5 -25 10 -8 5 -10 10 -5 10 6 0 17 -5 25 -10z m-2916 -599 c114 -31 208
-74 300 -136 91 -61 186 -141 186 -157 0 -6 -28 16 -63 49 -163 157 -380 249
-612 260 -96 5 -143 1 -290 -22 l-30 -5 30 10 c104 36 350 36 479 1z m-514
-15 c0 -2 -24 -11 -52 -21 -29 -9 -91 -36 -138 -61 -47 -24 -76 -37 -65 -28
52 41 255 129 255 110z m-310 -153 c-19 -15 -70 -62 -113 -106 -43 -43 -74
-71 -69 -60 20 34 194 194 212 192 3 0 -11 -12 -30 -26z"/>
<path d="M4381 6854 c0 -11 3 -14 6 -6 3 7 2 16 -1 19 -3 4 -6 -2 -5 -13z"/>
<path d="M4371 6804 c0 -11 3 -14 6 -6 3 7 2 16 -1 19 -3 4 -6 -2 -5 -13z"/>
<path d="M7921 6804 c0 -11 3 -14 6 -6 3 7 2 16 -1 19 -3 4 -6 -2 -5 -13z"/>
<path d="M4361 6764 c0 -11 3 -14 6 -6 3 7 2 16 -1 19 -3 4 -6 -2 -5 -13z"/>
<path d="M7931 6764 c0 -11 3 -14 6 -6 3 7 2 16 -1 19 -3 4 -6 -2 -5 -13z"/>
<path d="M4352 6710 c0 -14 2 -19 5 -12 2 6 2 18 0 25 -3 6 -5 1 -5 -13z"/>
<path d="M7942 6705 c0 -16 2 -22 5 -12 2 9 2 23 0 30 -3 6 -5 -1 -5 -18z"/>
<path d="M4342 6645 c0 -16 2 -22 5 -12 2 9 2 23 0 30 -3 6 -5 -1 -5 -18z"/>
<path d="M7952 6645 c0 -16 2 -22 5 -12 2 9 2 23 0 30 -3 6 -5 -1 -5 -18z"/>
<path d="M7963 6540 c0 -36 2 -50 4 -32 2 17 2 47 0 65 -2 17 -4 3 -4 -33z"/>
<path d="M4333 6540 c0 -30 2 -43 4 -27 2 15 2 39 0 55 -2 15 -4 2 -4 -28z"/>
<path d="M4333 6255 c0 -33 2 -45 4 -27 2 18 2 45 0 60 -2 15 -4 0 -4 -33z"/>
<path d="M7963 6260 c0 -30 2 -43 4 -27 2 15 2 39 0 55 -2 15 -4 2 -4 -28z"/>
<path d="M4342 6155 c0 -16 2 -22 5 -12 2 9 2 23 0 30 -3 6 -5 -1 -5 -18z"/>
<path d="M7952 6155 c0 -16 2 -22 5 -12 2 9 2 23 0 30 -3 6 -5 -1 -5 -18z"/>
<path d="M4352 6095 c0 -16 2 -22 5 -12 2 9 2 23 0 30 -3 6 -5 -1 -5 -18z"/>
<path d="M7942 6095 c0 -16 2 -22 5 -12 2 9 2 23 0 30 -3 6 -5 -1 -5 -18z"/>
<path d="M4361 6034 c0 -11 3 -14 6 -6 3 7 2 16 -1 19 -3 4 -6 -2 -5 -13z"/>
<path d="M7931 6034 c0 -11 3 -14 6 -6 3 7 2 16 -1 19 -3 4 -6 -2 -5 -13z"/>
<path d="M4371 5994 c0 -11 3 -14 6 -6 3 7 2 16 -1 19 -3 4 -6 -2 -5 -13z"/>
<path d="M7921 5994 c0 -11 3 -14 6 -6 3 7 2 16 -1 19 -3 4 -6 -2 -5 -13z"/>
<path d="M2860 10250 c19 -5 78 -11 130 -14 65 -4 81 -3 50 3 -66 12 -223 21
-180 11z"/>
<path d="M3143 10243 c9 -2 23 -2 30 0 6 3 -1 5 -18 5 -16 0 -22 -2 -12 -5z"/>
<path d="M3268 2593 c7 -3 16 -2 19 1 4 3 -2 6 -13 5 -11 0 -14 -3 -6 -6z"/>
<path d="M8588 2303 c6 -2 18 -2 25 0 6 3 1 5 -13 5 -14 0 -19 -2 -12 -5z"/>
</g>
</svg>
