<?xml version="1.0" standalone="no"?>
<!DOCTYPE svg PUBLIC "-//W3C//DTD SVG 20010904//EN"
 "http://www.w3.org/TR/2001/REC-SVG-20010904/DTD/svg10.dtd">
<svg version="1.0" xmlns="http://www.w3.org/2000/svg"
 width="1280.000000pt" height="1044.000000pt" viewBox="0 0 1280.000000 1044.000000"
 preserveAspectRatio="xMidYMid meet">
<metadata>
Created by potrace 1.15, written by Peter Selinger 2001-2017
</metadata>
<g transform="translate(0.000000,1044.000000) scale(0.100000,-0.100000)"
fill="#000000" stroke="none">
<path d="M8978 10412 c42 -58 222 -220 343 -306 397 -287 508 -386 571 -514
28 -56 33 -77 33 -138 0 -82 1 -80 -192 -305 -59 -70 -122 -147 -140 -171
l-31 -44 98 -62 c54 -35 104 -69 110 -77 9 -11 3 -30 -31 -92 -148 -269 -404
-665 -616 -951 -468 -632 -981 -1201 -1939 -2152 -462 -458 -785 -770 -799
-770 -8 0 -391 351 -745 685 -378 356 -1076 1056 -1281 1285 -647 722 -1130
1354 -1313 1718 l-45 90 92 83 c51 46 95 86 100 89 8 7 -70 104 -193 240 -177
196 -170 185 -170 255 0 145 89 295 257 437 43 36 154 123 247 193 92 71 198
155 233 188 83 75 196 201 183 205 -15 6 -376 -94 -519 -143 -332 -114 -619
-253 -932 -451 -66 -42 -246 -164 -402 -273 -155 -109 -446 -311 -647 -451
-595 -412 -1022 -722 -1161 -842 -59 -50 -89 -98 -89 -142 0 -47 56 -149 144
-261 174 -221 346 -415 551 -621 218 -218 338 -314 394 -314 73 0 212 138 774
773 172 194 369 397 385 397 17 0 400 -331 842 -729 504 -454 1265 -1185 2178
-2095 386 -385 702 -703 702 -706 0 -8 -533 -495 -840 -766 -347 -308 -715
-625 -1055 -908 -430 -359 -658 -590 -1037 -1046 -154 -187 -238 -288 -488
-586 -96 -115 -240 -288 -319 -384 -175 -210 -376 -433 -499 -553 -77 -75 -87
-88 -68 -92 22 -4 512 -65 696 -86 58 -7 179 -13 270 -13 l165 -1 22 47 c29
61 55 162 87 336 27 143 57 255 83 305 17 34 205 292 322 442 444 572 959
1111 1596 1670 146 128 497 426 990 840 105 88 259 220 343 293 152 132 153
133 175 115 12 -10 101 -83 197 -163 96 -81 393 -321 660 -535 552 -442 827
-671 1083 -899 569 -505 1041 -1009 1469 -1567 164 -213 174 -235 254 -553 31
-120 66 -243 79 -272 l23 -52 74 -4 c109 -5 349 9 468 26 87 14 589 107 597
111 2 1 -109 114 -245 251 -264 265 -371 383 -851 944 -502 586 -741 847 -951
1039 -63 57 -248 211 -410 340 -596 475 -1158 945 -1747 1459 -167 145 -303
267 -303 271 0 3 148 152 329 331 181 179 700 700 1153 1159 764 773 1455
1454 1913 1886 105 98 220 208 257 244 l67 64 54 -42 c63 -48 294 -282 547
-554 180 -194 265 -272 482 -445 l127 -101 148 136 c488 449 766 775 899 1056
35 73 4 106 -326 339 -338 240 -1670 1130 -1989 1329 -420 262 -880 451 -1348
554 -65 14 -129 28 -141 31 l-24 5 20 -29z m3542 -1980 c58 -41 118 -86 133
-101 36 -33 67 -92 67 -128 0 -36 -57 -147 -125 -242 -54 -77 -113 -148 -99
-122 7 13 -136 -93 -636 -474 -85 -65 -176 -133 -202 -152 -27 -19 -48 -39
-48 -44 0 -6 -7 -6 -17 0 -25 13 -204 196 -250 255 -21 27 -72 89 -113 138
-120 144 -136 164 -115 146 19 -16 24 -14 101 45 80 61 561 427 823 625 274
207 255 190 234 214 -19 23 77 -40 247 -160z m-12243 -196 l-29 -23 29 -7 c27
-7 276 -98 318 -116 11 -5 54 -21 95 -35 83 -29 414 -152 445 -165 11 -5 54
-21 95 -35 41 -14 152 -55 245 -90 94 -35 213 -79 265 -98 l95 -36 24 22 25
22 -22 -30 c-59 -84 -708 -736 -758 -763 -16 -8 -30 -5 -73 18 -234 128 -589
489 -861 875 -114 162 -131 215 -91 293 23 45 56 77 146 141 74 53 100 66 52
27z m4403 -1821 c35 -36 62 -65 59 -65 -2 0 -34 29 -69 65 -35 36 -62 65 -59
65 2 0 34 -29 69 -65z m5380 -5852 c26 -86 72 -284 67 -290 -3 -2 -23 70 -45
159 -22 90 -44 171 -47 181 -4 9 -5 17 -1 17 3 0 15 -30 26 -67z"/>
</g>
</svg>
