<?xml version="1.0" standalone="no"?>
<!DOCTYPE svg PUBLIC "-//W3C//DTD SVG 20010904//EN"
 "http://www.w3.org/TR/2001/REC-SVG-20010904/DTD/svg10.dtd">
<svg version="1.0" xmlns="http://www.w3.org/2000/svg"
 width="1280.000000pt" height="1144.000000pt" viewBox="0 0 1280.000000 1144.000000"
 preserveAspectRatio="xMidYMid meet">
<metadata>
Created by potrace 1.15, written by Peter Selinger 2001-2017
</metadata>
<g transform="translate(0.000000,1144.000000) scale(0.100000,-0.100000)"
fill="#000000" stroke="none">
<path d="M8845 11434 c-365 -53 -651 -147 -1039 -341 -847 -423 -1627 -1108
-1958 -1720 -100 -184 -167 -358 -208 -543 -24 -106 -50 -301 -51 -378 0 -50
-2 -54 -11 -32 -186 421 -359 636 -744 922 -218 162 -478 312 -989 573 -516
263 -649 345 -767 473 -104 113 -160 241 -202 463 -14 73 -31 136 -38 140 -18
11 -60 -32 -120 -120 -153 -225 -257 -564 -314 -1031 -23 -184 -27 -864 -6
-1055 60 -550 149 -940 299 -1325 160 -407 407 -746 708 -973 44 -33 83 -63
87 -66 4 -3 -84 -6 -195 -7 -220 0 -301 -11 -484 -63 -374 -107 -699 -275
-1348 -696 -596 -386 -708 -441 -925 -452 -128 -7 -221 10 -383 67 -61 22
-121 40 -135 40 -22 0 -24 -3 -19 -34 7 -43 84 -198 139 -279 434 -646 1646
-1343 2688 -1546 543 -106 1019 -66 1419 120 46 21 85 39 87 39 1 0 -25 -44
-58 -97 -164 -260 -251 -536 -294 -933 -21 -189 -24 -724 -6 -1020 46 -743 35
-921 -70 -1123 -46 -88 -142 -196 -268 -303 -43 -36 -81 -73 -84 -81 -10 -24
57 -43 177 -50 576 -30 1472 368 2272 1011 181 145 536 497 659 651 296 372
458 733 511 1134 9 63 17 116 19 118 2 2 13 -20 26 -49 74 -173 213 -369 371
-525 280 -276 654 -516 1339 -858 515 -257 688 -374 794 -533 72 -109 109
-212 141 -391 18 -104 30 -141 44 -141 36 0 169 202 235 358 155 369 226 853
213 1472 -20 951 -249 1776 -640 2296 -121 161 -311 344 -455 439 -23 15 -41
29 -39 31 2 2 67 -2 144 -8 234 -20 436 5 686 83 347 108 680 283 1267 665
462 301 609 385 760 435 66 21 92 24 225 24 l150 -1 157 -53 c155 -52 188 -57
188 -26 0 24 -48 132 -93 210 -401 695 -1758 1475 -2867 1649 -262 41 -564 46
-770 11 -205 -34 -469 -119 -607 -196 -29 -16 -53 -28 -53 -26 0 2 30 48 66
102 207 311 298 619 335 1145 13 184 7 629 -13 905 -6 94 -12 316 -12 495 -1
288 1 333 18 395 50 186 138 313 329 472 42 36 82 74 88 84 18 34 -44 51 -206
54 -77 2 -153 1 -170 -1z m-138 -323 c-84 -114 -152 -275 -182 -433 -18 -95
-21 -314 -6 -443 81 -697 4 -1384 -216 -1939 -151 -382 -343 -684 -634 -998
-244 -262 -480 -368 -824 -368 -202 0 -407 43 -597 124 -76 32 -80 33 -53 10
66 -55 237 -161 351 -219 237 -120 440 -171 654 -163 214 8 341 62 860 369
536 316 718 407 1002 503 223 75 470 113 653 101 596 -42 1275 -280 1979 -695
168 -98 208 -125 306 -204 74 -60 363 -336 357 -342 -1 -1 -36 2 -77 7 -99 12
-272 -4 -387 -36 -129 -37 -290 -120 -438 -226 -363 -259 -656 -426 -990 -567
-656 -276 -1374 -337 -2025 -172 -148 37 -204 57 -320 113 -133 64 -214 119
-296 202 -196 198 -333 493 -376 813 -12 87 -13 92 -20 56 -4 -21 -10 -113
-14 -204 -19 -464 102 -826 343 -1033 101 -86 254 -182 601 -379 185 -105 393
-226 462 -268 364 -226 639 -473 796 -715 213 -329 382 -902 443 -1505 29
-287 40 -783 21 -955 -15 -134 -80 -434 -122 -564 l-10 -34 -28 64 c-81 191
-261 388 -459 502 -31 18 -137 70 -236 116 -372 172 -643 331 -919 540 -544
409 -936 942 -1135 1542 -52 157 -67 230 -82 404 -18 218 1 360 75 533 91 216
292 463 493 606 24 16 41 32 39 34 -7 6 -185 -80 -288 -139 -185 -106 -380
-271 -476 -402 -98 -135 -145 -240 -175 -397 -19 -97 -20 -150 -22 -720 -2
-630 -6 -711 -46 -965 -51 -318 -148 -572 -303 -789 -336 -469 -842 -899
-1512 -1284 -198 -113 -286 -156 -421 -202 -111 -39 -391 -120 -413 -120 -5 0
8 24 30 52 152 200 227 491 201 783 -6 66 -15 170 -21 230 -45 489 -7 1001
105 1430 133 511 392 989 722 1335 105 111 343 276 461 321 305 114 687 91
1045 -65 133 -58 -179 147 -348 229 -137 66 -236 103 -357 132 -93 23 -380 26
-443 5 -202 -68 -299 -118 -731 -373 -905 -536 -1288 -646 -1904 -548 -278 44
-641 152 -958 286 -278 117 -769 379 -942 501 -84 60 -271 226 -380 337 l-85
87 40 -7 c67 -12 259 -6 338 10 170 35 303 93 462 201 60 41 173 117 250 170
358 243 701 417 1055 534 365 121 663 171 1030 171 351 0 625 -42 831 -126
238 -98 367 -175 479 -287 195 -194 323 -477 374 -823 l13 -90 9 80 c15 129 9
447 -9 555 -48 282 -143 480 -303 629 -105 98 -240 185 -604 391 -556 314
-723 424 -957 629 -292 256 -474 572 -614 1065 -123 435 -172 835 -173 1411
-1 348 0 377 22 490 21 107 93 406 108 445 3 9 14 -7 28 -41 90 -221 298 -434
541 -553 49 -24 183 -89 297 -144 233 -113 365 -187 551 -309 798 -521 1295
-1232 1473 -2108 21 -105 25 -146 20 -211 -22 -305 -245 -663 -558 -899 -33
-25 -56 -45 -51 -45 5 0 72 31 149 69 316 157 544 348 678 570 54 88 85 172
108 286 19 92 21 147 24 710 4 638 12 797 54 1037 32 186 101 402 171 540 158
310 550 732 984 1059 329 248 800 529 1026 613 103 38 422 133 451 135 14 1 8
-13 -25 -58z"/>
<path d="M7530 9744 c-192 -223 -291 -417 -339 -666 -11 -57 -27 -191 -36
-298 -21 -259 -31 -337 -61 -450 -76 -289 -331 -647 -679 -953 -131 -115 -167
-149 -163 -153 5 -4 247 79 363 126 92 36 218 102 302 156 89 58 230 207 287
303 96 164 168 380 194 585 14 113 14 159 4 380 -21 429 16 640 168 951 32 66
57 121 55 123 -1 2 -44 -45 -95 -104z"/>
<path d="M3320 8937 c0 -4 14 -51 31 -104 68 -212 179 -408 315 -552 92 -98
161 -154 363 -293 86 -60 193 -138 239 -174 283 -225 483 -636 598 -1226 15
-82 31 -148 34 -148 7 0 65 306 80 423 13 101 13 304 0 387 -35 219 -147 417
-360 631 -137 138 -237 206 -495 339 -372 191 -545 338 -737 625 -66 98 -68
101 -68 92z"/>
<path d="M10080 6673 c-78 -4 -193 -22 -277 -44 -98 -26 -186 -62 -408 -167
-312 -147 -421 -179 -640 -189 -287 -12 -574 38 -957 168 -82 28 -152 49 -154
46 -12 -12 283 -255 418 -344 276 -182 527 -226 871 -154 231 48 345 99 633
284 99 63 222 136 273 162 183 91 411 149 639 162 62 3 109 9 105 13 -4 4 -42
15 -83 23 -139 30 -301 45 -420 40z"/>
<path d="M4095 5270 c-184 -19 -389 -77 -536 -150 -44 -23 -145 -82 -223 -132
-312 -201 -444 -264 -659 -313 -94 -22 -278 -45 -356 -45 -176 -1 121 -60 335
-67 283 -9 423 26 795 201 366 171 441 191 724 191 295 0 493 -37 853 -156
101 -34 185 -59 188 -57 5 6 -212 194 -311 269 -97 73 -238 158 -323 193 -136
57 -325 83 -487 66z"/>
<path d="M7712 4753 c-6 -32 -23 -121 -38 -198 -24 -124 -27 -165 -28 -355 -1
-196 1 -222 22 -295 55 -191 179 -382 364 -561 128 -123 215 -181 475 -317
111 -58 241 -132 288 -163 159 -106 329 -283 457 -478 32 -48 58 -83 58 -77 0
23 -73 227 -111 309 -48 105 -148 256 -223 339 -77 85 -184 171 -361 293 -291
200 -392 292 -497 451 -159 240 -278 560 -354 954 -15 77 -30 144 -34 148 -4
5 -12 -18 -18 -50z"/>
<path d="M6344 3965 c-292 -103 -432 -171 -571 -273 -174 -130 -285 -298 -373
-567 -63 -195 -74 -276 -69 -525 7 -364 4 -551 -10 -625 -32 -170 -84 -322
-172 -500 l-49 -100 66 70 c199 211 330 458 379 717 8 46 24 185 35 310 11
125 25 260 31 300 54 351 293 713 719 1091 180 160 167 147 150 146 -8 -1 -69
-20 -136 -44z"/>
</g>
</svg>
