<?xml version="1.0" standalone="no"?>
<!DOCTYPE svg PUBLIC "-//W3C//DTD SVG 20010904//EN"
 "http://www.w3.org/TR/2001/REC-SVG-20010904/DTD/svg10.dtd">
<svg version="1.0" xmlns="http://www.w3.org/2000/svg"
 width="1280.000000pt" height="959.000000pt" viewBox="0 0 1280.000000 959.000000"
 preserveAspectRatio="xMidYMid meet">
<metadata>
Created by potrace 1.15, written by Peter Selinger 2001-2017
</metadata>
<g transform="translate(0.000000,959.000000) scale(0.100000,-0.100000)"
fill="#000000" stroke="none">
<path d="M6120 9579 c-494 -40 -925 -180 -1235 -399 -49 -35 -133 -107 -186
-160 -160 -158 -227 -277 -309 -544 -28 -93 -78 -237 -110 -320 -65 -171 -83
-247 -101 -426 -19 -198 1 -854 31 -1018 30 -165 152 -292 214 -223 35 38 39
82 41 411 2 412 14 483 134 787 76 192 85 225 116 428 33 221 65 337 124 460
41 85 137 232 146 223 2 -2 -16 -43 -40 -93 -47 -99 -105 -264 -136 -390 -13
-53 -23 -140 -28 -255 l-8 -176 -56 -120 c-102 -220 -136 -323 -157 -483 -13
-89 -12 -149 6 -607 7 -160 7 -161 -21 -222 -30 -68 -88 -128 -154 -161 -78
-40 -93 -101 -53 -213 42 -118 153 -270 238 -326 67 -45 116 -43 252 9 283
109 348 109 441 3 42 -47 57 -88 82 -213 43 -222 80 -305 173 -396 l62 -60
-38 -50 c-56 -73 -98 -162 -98 -206 0 -49 30 -71 105 -77 47 -4 57 -1 79 21
30 31 31 38 7 182 -10 61 -18 111 -17 112 1 2 29 -2 62 -8 32 -6 69 -13 81
-15 l22 -4 -30 -81 c-16 -45 -32 -107 -36 -140 -6 -57 -5 -59 31 -95 l36 -36
88 4 c127 6 152 29 152 136 0 43 -8 73 -30 120 -17 35 -30 66 -30 68 0 2 41 4
90 4 50 0 90 -3 90 -6 0 -4 -8 -21 -19 -38 -21 -35 -41 -138 -41 -215 0 -46 3
-53 26 -61 37 -14 194 -12 224 3 19 9 26 22 28 50 4 52 -24 184 -48 225 -11
18 -20 35 -20 38 0 2 50 4 111 4 l111 0 -30 -34 c-34 -39 -56 -135 -50 -222 3
-43 7 -51 33 -64 64 -31 222 -13 244 29 16 31 -16 201 -49 258 l-18 31 76 7
c42 3 98 8 124 11 l47 6 -15 -49 c-8 -26 -17 -88 -21 -138 -5 -82 -4 -92 15
-108 46 -41 182 -25 231 27 33 35 31 102 -4 186 -16 36 -32 85 -36 108 l-9 44
122 129 c158 167 173 192 203 324 34 148 65 194 160 236 71 32 139 29 260 -12
127 -42 245 -47 310 -12 156 82 272 394 200 534 -18 35 -52 58 -136 92 -80 34
-133 76 -159 128 -17 32 -20 59 -20 166 -1 246 -15 391 -45 473 -34 95 -39
114 -31 143 6 25 43 47 80 47 50 0 51 -9 52 -369 1 -359 4 -384 51 -433 95
-99 206 59 297 418 37 147 49 284 43 468 -6 176 -21 261 -82 461 -20 66 -54
182 -76 257 -91 320 -252 596 -498 850 -308 319 -554 459 -926 527 -210 39
-493 50 -745 30z m-672 -2199 c245 -27 411 -99 464 -204 45 -88 33 -316 -23
-432 -63 -133 -390 -395 -542 -435 -38 -11 -56 -11 -94 -1 -100 27 -217 136
-276 255 -31 64 -64 217 -78 367 -26 266 39 403 213 446 66 15 209 17 336 4z
m1897 -26 c132 -32 254 -123 290 -217 15 -40 17 -67 12 -195 -7 -187 -40 -401
-69 -453 -48 -86 -190 -133 -332 -109 -195 32 -521 292 -614 490 -34 73 -43
208 -18 275 66 171 443 279 731 209z m-1075 -634 c26 -14 80 -97 179 -273 151
-270 190 -371 198 -517 4 -81 2 -103 -16 -150 -26 -69 -74 -125 -124 -145 -38
-16 -38 -16 -71 17 -18 18 -62 83 -98 143 -81 134 -98 152 -135 139 -19 -6
-39 -31 -68 -86 -51 -96 -71 -118 -105 -118 -69 0 -88 103 -47 255 57 211 87
326 110 425 29 126 79 249 117 290 31 33 33 34 60 20z"/>
<path d="M18 8178 c-21 -37 -17 -399 5 -512 75 -375 326 -896 710 -1471 462
-692 1160 -1420 2031 -2118 790 -635 1483 -1077 2391 -1527 757 -375 1429
-658 2174 -916 472 -164 1326 -434 1371 -434 9 0 11 31 8 138 -4 109 -9 148
-26 193 -28 71 -94 139 -173 179 -94 48 -661 249 -1185 421 -648 212 -1044
377 -1704 710 -1142 575 -1995 1127 -2436 1575 -125 127 -226 264 -196 264 4
0 54 -41 112 -91 485 -425 1001 -792 1731 -1234 518 -314 971 -538 1574 -778
357 -142 809 -300 1751 -613 282 -94 429 -118 529 -89 146 42 290 136 314 205
10 29 9 30 -32 40 -543 142 -1246 377 -1867 623 -1065 423 -1957 847 -2652
1263 -730 436 -1586 1074 -2245 1671 -178 161 -587 569 -742 738 -477 522
-1122 1334 -1297 1631 -89 151 -119 179 -146 132z"/>
<path d="M12716 8169 c-15 -17 -49 -70 -78 -118 -179 -303 -840 -1127 -1338
-1666 -773 -837 -1961 -1781 -3035 -2410 -452 -265 -1109 -597 -1650 -835 -66
-29 -122 -54 -124 -56 -5 -4 158 -81 359 -171 l145 -64 240 120 c248 124 394
204 670 369 750 447 1330 856 1795 1265 47 41 86 74 88 72 14 -13 -98 -154
-215 -270 -434 -430 -1210 -938 -2263 -1478 -128 -66 -218 -118 -210 -121 8
-3 76 -29 150 -57 74 -28 205 -75 291 -104 l156 -53 219 115 c637 335 1120
635 1654 1027 860 632 1623 1343 2154 2006 496 618 915 1363 1030 1830 34 141
46 247 45 415 0 200 -25 254 -83 184z m-386 -1112 c0 -2 -11 -36 -25 -77 -48
-143 -198 -404 -378 -660 -382 -544 -996 -1213 -1307 -1426 -38 -26 -73 -44
-77 -41 -4 4 131 146 298 315 168 169 348 354 400 412 433 477 774 940 1024
1393 27 48 52 87 57 87 4 0 8 -1 8 -3z"/>
<path d="M7722 5658 c-55 -12 -101 -57 -180 -177 -99 -150 -140 -288 -182
-606 -37 -284 -65 -363 -159 -446 -49 -43 -175 -119 -198 -119 -6 0 -2 24 8
53 22 63 25 160 5 176 -7 6 -39 16 -70 22 -73 15 -128 -5 -185 -66 -54 -58
-53 -89 4 -227 6 -16 -1 -18 -80 -18 -79 0 -86 2 -79 18 16 36 43 148 43 180
1 49 -13 68 -64 88 -54 20 -173 14 -211 -11 -22 -14 -24 -22 -24 -88 0 -39 7
-97 15 -127 8 -30 15 -58 15 -62 0 -5 -41 -8 -90 -8 l-90 0 21 43 c29 57 49
132 49 189 0 72 -19 81 -165 76 -142 -4 -150 -9 -139 -103 6 -53 27 -137 49
-187 6 -15 -2 -16 -87 -11 -51 3 -95 7 -96 9 -2 1 6 28 17 60 12 31 25 92 28
134 5 69 4 79 -15 98 -41 41 -195 41 -248 0 -26 -21 -26 -23 -21 -107 3 -47 8
-96 12 -108 l7 -23 -54 19 c-89 31 -133 57 -181 111 -61 68 -83 131 -102 296
-9 77 -20 159 -26 184 -15 71 -149 470 -175 520 -72 143 -164 191 -265 140
-92 -48 -100 -118 -33 -288 93 -232 113 -362 96 -620 -19 -296 1 -339 236
-513 105 -77 183 -148 332 -299 125 -126 211 -206 240 -221 61 -31 172 -35
374 -15 212 21 329 20 521 -5 186 -24 283 -21 349 11 56 27 131 99 229 222 84
105 153 171 316 300 57 46 118 102 134 125 29 40 31 52 43 195 19 221 27 261
117 588 55 201 96 397 104 501 5 69 4 78 -13 87 -32 17 -86 21 -132 10z"/>
<path d="M2495 2846 c-131 -32 -224 -105 -277 -215 -27 -57 -32 -80 -36 -166
-7 -160 26 -270 108 -359 59 -64 134 -97 235 -103 138 -9 206 34 257 163 20
48 29 60 50 62 68 8 208 -188 362 -509 122 -254 159 -369 320 -984 95 -362
130 -441 245 -556 133 -133 279 -186 487 -176 230 11 364 82 410 219 32 97 14
290 -36 387 -59 117 -242 168 -349 98 -29 -19 -48 -44 -71 -92 -17 -36 -38
-65 -46 -65 -38 0 -178 186 -208 278 -35 107 -49 233 -50 452 l-1 215 33 66
c17 37 57 94 87 128 30 34 55 66 55 71 0 5 -17 12 -37 15 -198 30 -278 59
-342 125 -21 22 -78 118 -136 228 -116 223 -192 334 -312 455 -141 142 -288
228 -452 263 -80 17 -228 17 -296 0z"/>
<path d="M9924 2845 c-179 -40 -357 -156 -503 -329 -91 -109 -134 -175 -225
-345 -128 -239 -152 -263 -360 -366 -66 -33 -122 -65 -123 -70 -2 -6 19 -41
46 -78 27 -37 60 -98 73 -135 21 -60 23 -84 22 -227 -3 -339 -66 -544 -217
-703 -58 -61 -63 -60 -97 12 -52 110 -111 145 -225 133 -101 -10 -183 -76
-218 -175 -24 -66 -38 -207 -27 -280 19 -138 105 -222 270 -263 74 -18 300
-18 365 0 140 39 285 148 359 270 50 81 69 136 131 368 145 548 169 632 210
751 105 308 328 720 427 792 67 49 80 43 117 -52 43 -109 123 -154 256 -146
86 6 148 32 210 89 91 84 130 201 123 370 -3 86 -8 114 -30 161 -52 113 -152
193 -279 223 -78 18 -222 18 -305 0z"/>
<path d="M4785 2444 c-267 -91 -729 -240 -910 -294 -60 -19 -114 -37 -119 -41
-16 -14 25 -87 74 -133 109 -102 314 -114 620 -36 139 36 486 145 788 248 250
86 313 112 270 112 -16 0 -335 156 -406 198 -29 18 -56 32 -60 31 -4 0 -119
-39 -257 -85z"/>
<path d="M5220 2068 c-824 -283 -874 -300 -945 -333 -132 -61 -200 -129 -229
-228 -20 -67 -31 -201 -22 -261 7 -47 8 -47 39 -40 18 3 199 58 402 120 586
181 1133 368 1585 544 102 40 193 75 204 79 13 5 -24 25 -140 76 -88 37 -220
98 -294 135 l-135 67 -465 -159z"/>
<path d="M2325 1815 c-80 -28 -94 -86 -51 -211 29 -86 47 -123 99 -197 22 -31
38 -60 35 -63 -12 -11 -87 36 -121 76 -19 23 -44 65 -55 93 -11 29 -32 85 -47
125 -15 40 -38 86 -51 102 -38 44 -104 65 -204 64 -177 -2 -210 -66 -156 -304
49 -212 93 -306 191 -406 39 -39 90 -80 115 -92 73 -35 252 -45 640 -38 428 8
503 15 535 47 73 72 42 294 -71 507 -69 131 -121 208 -173 255 -48 43 -74 51
-143 45 -132 -13 -128 -151 10 -355 34 -51 58 -93 53 -93 -19 0 -112 82 -149
132 -46 62 -64 95 -93 175 -29 79 -67 117 -138 137 -70 20 -172 20 -226 1z"/>
<path d="M10160 1810 c-66 -22 -101 -60 -124 -133 -26 -83 -73 -154 -149 -228
-39 -38 -74 -69 -79 -69 -4 0 10 26 32 58 84 124 125 250 106 326 -14 58 -127
75 -202 31 -73 -43 -210 -260 -263 -416 -58 -171 -62 -305 -11 -362 24 -27 34
-31 116 -38 168 -16 751 -22 884 -10 152 14 189 30 281 120 83 83 138 191 180
357 56 223 48 308 -30 342 -57 25 -205 21 -258 -6 -66 -34 -72 -45 -149 -255
-25 -69 -128 -177 -168 -177 -3 0 13 29 35 65 58 91 109 232 109 298 0 43 -5
58 -22 74 -49 45 -191 57 -288 23z"/>
<path d="M1201 1790 c-71 -15 -167 -65 -221 -116 -162 -151 -200 -507 -79
-734 107 -201 342 -330 544 -298 124 19 285 126 384 254 52 68 68 102 58 128
-9 22 -38 10 -98 -40 -94 -78 -130 -95 -216 -101 -88 -6 -148 7 -182 38 -41
38 -26 59 81 111 163 78 224 164 235 328 13 178 -75 340 -220 406 -51 23 -78
28 -152 30 -49 2 -110 -1 -134 -6z"/>
<path d="M11287 1789 c-210 -49 -330 -305 -256 -545 18 -57 30 -77 82 -129 49
-49 79 -68 145 -96 89 -36 103 -49 81 -76 -30 -36 -95 -54 -193 -54 -111 0
-140 11 -228 91 -34 30 -65 50 -75 48 -28 -5 -28 -61 0 -121 68 -144 219 -241
418 -266 264 -34 499 128 595 409 27 77 27 318 0 405 -55 180 -161 286 -331
330 -64 16 -177 18 -238 4z"/>
</g>
</svg>
