<?xml version="1.0" standalone="no"?>
<!DOCTYPE svg PUBLIC "-//W3C//DTD SVG 20010904//EN"
 "http://www.w3.org/TR/2001/REC-SVG-20010904/DTD/svg10.dtd">
<svg version="1.0" xmlns="http://www.w3.org/2000/svg"
 width="1270.000000pt" height="1280.000000pt" viewBox="0 0 1270.000000 1280.000000"
 preserveAspectRatio="xMidYMid meet">
<metadata>
Created by potrace 1.15, written by Peter Selinger 2001-2017
</metadata>
<g transform="translate(0.000000,1280.000000) scale(0.100000,-0.100000)"
fill="#000000" stroke="none">
<path d="M5700 12685 c-673 -122 -1270 -398 -1790 -828 -116 -96 -344 -321
-449 -442 -436 -505 -736 -1129 -856 -1780 -43 -235 -58 -405 -59 -655 -1
-129 3 -270 7 -312 l8 -77 -158 -80 c-366 -187 -648 -394 -948 -695 -603 -604
-954 -1324 -1081 -2211 -21 -152 -30 -628 -15 -793 26 -268 66 -484 135 -724
61 -212 146 -440 146 -391 0 6 -7 30 -16 54 -97 274 -145 717 -115 1045 48
508 223 964 528 1373 115 154 363 401 520 519 385 288 824 462 1303 518 174
20 517 15 673 -11 486 -77 885 -249 1267 -544 181 -139 426 -400 547 -582 25
-38 49 -69 54 -69 6 0 223 124 237 135 2 2 -6 36 -19 77 -82 273 22 587 254
766 79 60 192 116 278 139 l69 17 0 146 0 145 -157 18 c-341 37 -643 128 -942
283 -782 405 -1315 1174 -1416 2042 -19 165 -19 473 0 631 59 474 232 903 518
1284 178 237 467 501 723 659 242 150 557 279 813 334 44 10 81 21 81 26 0 10
13 11 -140 -17z"/>
<path d="M6860 12703 c0 -5 46 -19 103 -31 792 -182 1494 -760 1822 -1502 251
-565 300 -1199 140 -1785 -48 -175 -95 -297 -185 -480 -255 -519 -677 -940
-1205 -1203 -278 -138 -574 -223 -897 -259 l-158 -18 0 -145 0 -146 58 -12
c31 -6 90 -27 129 -46 270 -130 428 -357 440 -636 5 -100 -5 -165 -41 -285 -6
-17 11 -30 115 -90 l122 -69 16 24 c9 14 56 79 106 145 395 526 1009 901 1664
1015 336 59 693 51 1030 -22 391 -84 820 -295 1131 -556 504 -423 819 -989
927 -1667 22 -140 25 -582 5 -720 -19 -124 -56 -293 -88 -400 -14 -49 -29 -99
-32 -109 -3 -12 -1 -17 5 -13 16 10 97 237 143 397 168 596 191 1199 69 1800
-121 599 -376 1146 -757 1624 -115 146 -429 461 -568 572 -223 179 -428 311
-663 428 l-151 76 7 58 c13 93 9 567 -5 687 -137 1160 -732 2137 -1688 2773
-436 290 -951 494 -1454 577 -52 9 -105 18 -117 20 -13 3 -23 2 -23 -2z"/>
<path d="M6170 9824 c-539 -47 -910 -148 -1335 -364 -208 -105 -480 -280 -605
-388 l-44 -39 58 -103 c70 -125 147 -242 221 -335 69 -86 234 -265 244 -265 5
0 42 26 82 59 859 681 2036 732 2942 127 62 -41 143 -100 181 -130 38 -31 73
-56 76 -56 11 0 169 168 236 250 78 96 167 228 237 354 l56 99 -82 65 c-488
385 -1087 633 -1707 708 -122 14 -471 26 -560 18z"/>
<path d="M3050 6961 l-75 -6 -17 -120 c-51 -360 -48 -652 12 -1010 192 -1140
977 -2123 2058 -2579 131 -55 111 -62 185 64 67 112 150 283 190 391 35 92
100 310 94 315 -1 1 -45 19 -97 40 -303 121 -605 321 -845 560 -204 203 -356
416 -485 679 -231 469 -311 994 -225 1483 7 43 12 78 11 79 -8 9 -291 74 -376
87 -121 19 -321 27 -430 17z"/>
<path d="M9294 6955 c-111 -14 -284 -50 -390 -81 l-56 -16 5 -42 c36 -275 39
-328 34 -496 -10 -302 -59 -549 -164 -820 -125 -326 -322 -628 -573 -880 -238
-239 -550 -445 -858 -567 -70 -28 -91 -40 -88 -52 3 -9 8 -29 11 -46 36 -167
154 -448 268 -640 78 -129 59 -121 173 -74 764 318 1395 902 1760 1630 261
522 396 1165 355 1690 -11 143 -43 385 -52 393 -13 13 -324 14 -425 1z"/>
<path d="M5655 5854 c-60 -36 -114 -69 -119 -74 -4 -4 13 -54 39 -112 166
-360 245 -721 245 -1113 0 -1013 -565 -1928 -1469 -2379 -751 -376 -1628 -374
-2383 5 -267 134 -490 298 -711 522 -59 60 -110 108 -112 105 -10 -10 171
-216 329 -374 185 -184 339 -312 536 -446 1025 -697 2322 -856 3469 -427 269
101 508 222 738 375 70 46 131 84 136 84 5 0 43 -24 85 -54 242 -169 589 -341
899 -445 407 -137 770 -195 1218 -194 259 0 415 13 645 54 791 140 1500 513
2056 1080 157 161 310 337 300 347 -2 2 -50 -45 -107 -104 -401 -413 -925
-684 -1509 -779 -543 -89 -1150 12 -1640 272 -427 227 -780 557 -1025 957
-412 672 -506 1491 -258 2236 36 107 97 260 138 340 l23 45 -125 73 -126 73
-56 -57 c-274 -278 -698 -298 -993 -47 -31 26 -66 60 -78 76 -12 15 -24 27
-28 26 -4 0 -56 -30 -117 -65z"/>
</g>
</svg>
