<?xml version="1.0" standalone="no"?>
<!DOCTYPE svg PUBLIC "-//W3C//DTD SVG 20010904//EN"
 "http://www.w3.org/TR/2001/REC-SVG-20010904/DTD/svg10.dtd">
<svg version="1.0" xmlns="http://www.w3.org/2000/svg"
 width="1280.000000pt" height="1199.000000pt" viewBox="0 0 1280.000000 1199.000000"
 preserveAspectRatio="xMidYMid meet">
<metadata>
Created by potrace 1.15, written by Peter Selinger 2001-2017
</metadata>
<g transform="translate(0.000000,1199.000000) scale(0.100000,-0.100000)"
fill="#000000" stroke="none">
<path d="M6376 11948 c-3 -24 -22 -239 -41 -478 -74 -919 -116 -1177 -208
-1277 -11 -13 -24 -23 -29 -23 -5 0 -43 33 -86 73 -111 104 -159 141 -251 196
-337 203 -835 262 -1401 165 -265 -45 -502 -109 -1112 -298 -307 -96 -472
-142 -658 -186 -284 -66 -633 -110 -717 -88 -40 10 -46 9 -68 -12 -13 -12 -27
-34 -30 -49 -5 -23 35 -468 50 -558 l6 -33 174 0 c96 0 175 -2 175 -5 0 -3
-23 -67 -51 -142 -63 -170 -483 -1311 -589 -1598 -77 -211 -344 -933 -850
-2305 -149 -404 -321 -871 -382 -1038 l-112 -302 -98 0 c-61 0 -98 -4 -98 -10
0 -6 22 -43 49 -83 191 -283 548 -560 1031 -801 182 -91 331 -147 515 -194
453 -118 959 -120 1440 -7 542 128 927 369 1529 955 l138 135 -117 5 -117 5
-115 310 c-172 468 -592 1606 -951 2580 -257 698 -583 1581 -892 2418 l-29 77
1871 0 1871 0 -7 -192 c-4 -106 -20 -582 -36 -1058 -99 -2894 -116 -3391 -161
-4670 -17 -487 -31 -986 -32 -1110 -1 -223 -1 -227 36 -415 61 -306 62 -466 1
-587 -71 -141 -306 -345 -589 -513 -511 -302 -1401 -602 -2347 -791 -19 -4
-28 -12 -28 -25 0 -19 53 -19 3340 -19 3287 0 3340 0 3340 19 0 13 -9 21 -27
25 -1001 200 -1887 507 -2414 837 -254 158 -450 343 -516 485 -25 53 -28 73
-31 184 -3 113 0 144 37 330 65 331 63 297 41 928 -11 312 -33 965 -50 1452
-17 487 -39 1142 -50 1455 -30 878 -79 2301 -103 3015 l-22 645 1844 3 c1014
1 1846 1 1847 -1 2 -1 -92 -259 -207 -572 -291 -790 -658 -1786 -979 -2655
-149 -404 -384 -1041 -522 -1415 -137 -374 -256 -694 -263 -712 l-14 -32 -104
-3 -104 -3 68 -95 c192 -267 446 -475 871 -714 170 -95 269 -141 431 -200 371
-134 788 -189 1194 -155 259 21 546 79 763 154 298 104 634 314 955 598 166
148 415 389 415 403 0 10 -24 14 -107 16 l-108 3 -148 400 c-81 220 -262 711
-401 1090 -258 698 -590 1598 -1048 2840 -138 374 -279 757 -313 850 -35 94
-66 178 -70 188 -7 16 6 17 178 17 l186 0 5 33 c16 97 56 540 50 561 -3 13
-16 34 -29 46 -22 20 -28 22 -66 12 -33 -8 -68 -6 -178 13 -295 51 -478 96
-1026 250 -657 185 -898 244 -1170 289 -283 47 -437 59 -700 53 -258 -5 -386
-21 -533 -63 -204 -59 -330 -134 -499 -296 -61 -60 -115 -108 -120 -108 -14 0
-48 40 -67 77 -30 59 -66 204 -86 346 -30 215 -47 400 -105 1117 -21 266 -23
280 -45 280 -13 0 -19 -11 -24 -42z m-3918 -3158 c118 -320 358 -973 892
-2420 503 -1363 772 -2094 825 -2237 l53 -143 -1894 0 c-1042 0 -1894 1 -1894
3 0 4 -42 -110 890 2417 149 404 383 1039 520 1410 225 611 462 1253 475 1289
3 8 7 12 9 10 2 -2 58 -150 124 -329z m8139 -58 c78 -213 264 -718 413 -1122
448 -1216 755 -2047 1025 -2780 140 -382 267 -723 280 -758 14 -34 25 -67 25
-72 0 -7 -650 -10 -1890 -10 -1039 0 -1890 3 -1890 6 0 7 53 152 530 1444 149
404 383 1039 520 1410 137 371 371 1006 521 1410 149 404 281 763 292 798 12
34 24 62 27 62 3 0 69 -175 147 -388z"/>
</g>
</svg>
