<?xml version="1.0" standalone="no"?>
<!DOCTYPE svg PUBLIC "-//W3C//DTD SVG 20010904//EN"
 "http://www.w3.org/TR/2001/REC-SVG-20010904/DTD/svg10.dtd">
<svg version="1.0" xmlns="http://www.w3.org/2000/svg"
 width="1107.000000pt" height="1280.000000pt" viewBox="0 0 1107.000000 1280.000000"
 preserveAspectRatio="xMidYMid meet">
<metadata>
Created by potrace 1.15, written by Peter Selinger 2001-2017
</metadata>
<g transform="translate(0.000000,1280.000000) scale(0.100000,-0.100000)"
fill="#000000" stroke="none">
<path d="M1001 12775 c-68 -32 -167 -132 -204 -206 -15 -31 -32 -87 -38 -125
-18 -123 -11 -118 -143 -110 -153 9 -230 -4 -334 -55 -135 -68 -207 -162 -253
-334 -29 -105 -32 -350 -6 -465 23 -103 87 -230 138 -273 50 -43 73 -49 340
-87 118 -17 255 -41 306 -55 311 -83 715 -291 1053 -544 41 -31 168 -136 282
-233 l207 -178 200 213 c303 322 388 428 377 471 -23 91 -287 351 -606 596
-255 196 -316 276 -532 695 -189 366 -257 474 -364 576 -73 69 -131 103 -209
123 -87 23 -150 20 -214 -9z"/>
<path d="M9960 12721 c-167 -54 -281 -161 -365 -345 -20 -41 -60 -150 -91
-242 -117 -353 -230 -551 -427 -747 -152 -152 -321 -263 -609 -402 -92 -44
-165 -85 -163 -91 4 -13 206 -296 298 -419 131 -173 215 -255 265 -255 25 0
159 90 322 216 179 138 362 268 698 497 l295 200 71 -7 c39 -3 168 -15 286
-26 222 -21 285 -19 333 9 35 20 99 114 126 185 66 177 90 532 48 707 -29 119
-129 245 -220 275 -55 18 -102 10 -163 -27 -63 -38 -80 -21 -113 115 -36 146
-95 237 -199 306 -102 68 -272 90 -392 51z"/>
<path d="M5255 11420 c-517 -27 -894 -119 -1277 -311 -481 -242 -1196 -789
-1754 -1344 -454 -451 -669 -744 -813 -1106 -63 -161 -64 -177 -69 -902 l-3
-659 290 -581 c279 -561 375 -740 396 -741 15 -1 40 105 80 333 69 401 100
516 140 516 28 0 50 -46 86 -180 26 -98 32 -140 32 -230 1 -133 -19 -216 -122
-511 -125 -359 -162 -509 -163 -659 -2 -192 80 -329 247 -413 90 -45 276 -72
675 -97 503 -32 669 -65 1480 -295 212 -60 417 -115 455 -122 90 -17 563 -17
770 0 586 48 1108 136 1460 246 176 55 321 88 584 132 373 62 526 106 742 214
l135 68 13 279 c17 391 50 975 57 996 9 28 49 20 80 -15 15 -18 45 -71 67
-118 101 -218 126 -267 144 -290 18 -21 23 -23 38 -10 69 57 467 863 635 1285
122 306 135 379 135 740 0 350 -25 559 -110 904 -125 509 -202 660 -528 1031
-217 247 -842 915 -963 1030 -392 372 -1065 651 -1834 760 -343 48 -768 67
-1105 50z m-2696 -3879 c126 -42 257 -100 550 -243 l246 -120 275 16 c356 22
568 42 707 66 129 23 173 36 298 90 128 56 205 73 291 68 170 -11 250 -131
211 -315 -38 -179 -268 -543 -574 -909 -158 -188 -291 -310 -395 -363 -76 -38
-98 -45 -166 -49 -112 -6 -227 12 -467 73 -618 157 -864 245 -964 345 -66 66
-85 121 -127 365 -19 110 -55 290 -80 400 -61 267 -100 459 -108 522 -6 45 -4
55 15 74 20 20 29 21 108 16 58 -3 117 -15 180 -36z m3810 -97 c64 -14 202
-53 306 -86 270 -85 376 -108 530 -115 194 -8 316 10 815 123 368 84 511 107
620 102 233 -12 239 -118 30 -597 -149 -344 -205 -493 -221 -594 -14 -84 -49
-146 -131 -233 -186 -196 -378 -287 -659 -313 -207 -20 -394 -10 -590 29 -378
77 -551 224 -741 628 -101 215 -191 460 -244 662 -27 100 -42 279 -30 344 15
81 111 96 315 50z m-784 -514 c77 -73 168 -207 236 -345 136 -280 395 -1173
449 -1552 27 -183 -57 -495 -160 -600 -40 -41 -72 -42 -131 -5 -162 104 -259
327 -353 822 -59 307 -95 410 -143 410 -36 0 -91 -26 -140 -66 -84 -69 -169
-213 -266 -451 -118 -288 -231 -459 -335 -505 -36 -16 -48 -17 -77 -8 -71 23
-112 104 -102 201 15 139 93 328 419 1019 231 488 322 687 413 900 78 183 103
230 121 230 8 0 39 -23 69 -50z"/>
<path d="M8830 4519 c-41 -15 -147 -53 -235 -84 -298 -106 -485 -196 -485
-234 0 -45 169 -252 444 -544 431 -457 531 -586 671 -869 91 -182 115 -224
183 -316 43 -59 64 -78 106 -98 138 -63 379 -48 561 36 79 36 172 114 209 174
28 45 29 50 15 74 -9 17 -35 35 -69 49 -30 12 -56 28 -58 36 -4 17 42 54 163
133 50 32 131 88 181 124 354 261 389 468 125 737 -109 112 -155 125 -551 158
-353 29 -380 40 -679 265 -91 69 -238 182 -326 251 -88 69 -164 127 -170 130
-5 3 -44 -7 -85 -22z"/>
<path d="M3041 4340 c-40 -10 -53 -26 -46 -60 3 -14 8 -68 12 -122 7 -113 -1
-152 -59 -288 -84 -195 -68 -303 113 -737 113 -271 169 -433 169 -489 0 -63
-103 -259 -321 -614 -336 -544 -383 -641 -358 -733 20 -76 88 -132 354 -292
236 -141 399 -266 670 -513 154 -141 329 -257 476 -316 313 -126 847 -198
1239 -167 352 28 859 123 1055 196 227 86 657 326 949 529 243 170 476 379
518 464 62 128 -16 433 -297 1174 l-98 257 224 448 c269 537 324 675 336 849
10 140 -49 275 -146 332 -42 25 -56 27 -172 30 -74 2 -150 -1 -184 -8 l-57
-12 5 -41 c3 -23 38 -106 76 -183 40 -79 74 -161 77 -186 10 -69 -33 -223
-160 -576 -63 -176 -125 -357 -137 -403 -31 -120 -35 -311 -14 -689 17 -320
15 -427 -11 -526 -43 -165 -127 -241 -474 -425 -414 -220 -757 -355 -1030
-406 -145 -26 -435 -24 -602 6 -406 71 -966 261 -1403 476 -338 166 -466 261
-527 390 -38 83 -36 102 42 335 92 272 113 393 125 700 6 178 -7 469 -26 550
-7 30 -40 107 -73 170 -121 234 -128 250 -133 308 -4 44 1 81 22 157 47 171
56 218 56 287 0 74 -13 102 -51 117 -39 15 -102 20 -139 11z"/>
<path d="M2477 4329 c-98 -11 -198 -44 -310 -101 -127 -65 -208 -118 -419
-276 -390 -290 -436 -311 -708 -322 -196 -8 -273 -27 -400 -97 -80 -44 -215
-177 -257 -253 -38 -66 -69 -165 -78 -241 -14 -124 45 -279 143 -379 72 -74
111 -86 225 -71 125 17 178 14 228 -12 74 -39 109 -141 109 -319 0 -184 60
-298 172 -329 56 -15 257 -5 323 16 178 56 266 219 389 718 93 376 110 403
460 776 230 244 354 392 452 538 110 162 146 260 109 296 -19 20 -133 45 -254
57 -53 5 -100 9 -106 8 -5 0 -41 -4 -78 -9z"/>
<path d="M3672 4145 c-74 -62 -124 -263 -126 -505 -1 -206 15 -257 86 -275 57
-14 82 42 99 227 12 127 8 532 -5 561 -11 23 -19 22 -54 -8z"/>
<path d="M7155 4090 c-27 -43 -28 -623 -2 -727 23 -92 50 -53 67 98 31 271
-14 711 -65 629z"/>
<path d="M3820 4058 c-24 -69 -34 -283 -21 -468 17 -247 29 -293 90 -325 39
-20 56 -12 77 38 26 62 32 358 10 499 -20 126 -50 219 -83 258 -33 40 -58 39
-73 -2z"/>
<path d="M6941 4064 c-51 -65 -93 -326 -108 -679 -7 -180 -3 -195 58 -195 82
0 115 65 149 291 50 338 28 598 -51 607 -19 2 -33 -4 -48 -24z"/>
<path d="M4214 4021 c-47 -29 -72 -66 -98 -151 -36 -112 -58 -276 -57 -426 0
-164 11 -209 63 -263 113 -116 160 -32 193 347 25 280 16 451 -26 493 -24 24
-36 24 -75 0z"/>
<path d="M6595 4031 c-84 -36 -108 -186 -94 -586 9 -254 16 -334 31 -352 6 -7
25 -13 42 -13 38 0 101 60 136 129 53 105 83 403 61 596 -15 126 -26 168 -54
200 -24 27 -88 41 -122 26z"/>
<path d="M4543 3966 c-88 -74 -151 -358 -141 -634 6 -170 20 -190 173 -251
141 -55 182 -52 222 22 27 48 22 237 -11 462 -42 278 -70 375 -118 409 -34 24
-91 20 -125 -8z"/>
<path d="M5044 3921 c-45 -21 -73 -60 -97 -136 -29 -91 -36 -187 -37 -460 l-1
-270 213 0 213 0 9 205 c12 282 -5 435 -62 546 -54 106 -153 154 -238 115z"/>
<path d="M5682 3849 c-41 -16 -118 -105 -159 -185 -82 -158 -113 -296 -113
-506 l0 -128 163 0 c251 0 310 22 357 131 67 158 37 457 -63 613 -49 77 -115
104 -185 75z"/>
<path d="M3580 2150 c-21 -38 -32 -195 -27 -365 6 -199 19 -260 57 -260 19 0
33 13 58 50 49 75 57 114 57 270 0 165 -20 237 -80 293 -40 37 -50 39 -65 12z"/>
<path d="M6905 1948 c-23 -57 -31 -223 -15 -316 21 -127 65 -144 109 -42 27
63 61 210 60 265 l0 40 -29 -34 c-15 -18 -33 -30 -39 -27 -6 4 -11 29 -11 56
0 103 -43 136 -75 58z"/>
<path d="M6675 1892 c-45 -28 -122 -118 -136 -159 -16 -50 -7 -199 16 -243 26
-51 45 -70 73 -70 35 0 85 56 111 123 31 84 47 237 31 310 -10 52 -14 57 -38
57 -15 0 -41 -8 -57 -18z"/>
<path d="M3865 1846 c-51 -115 -73 -333 -40 -396 16 -31 43 -44 69 -34 27 11
56 79 68 164 20 135 -14 320 -58 320 -9 0 -25 -23 -39 -54z"/>
<path d="M4191 1781 c-48 -67 -119 -359 -108 -442 15 -113 104 -102 185 21 47
72 112 259 114 325 1 54 -12 71 -77 101 -66 31 -89 30 -114 -5z"/>
<path d="M4615 1743 c-67 -27 -106 -62 -134 -122 -24 -52 -26 -65 -26 -201 0
-139 1 -148 29 -207 29 -63 102 -143 130 -143 8 0 22 7 30 16 72 72 102 164
92 289 -9 108 -46 346 -57 368 -12 20 -13 20 -64 0z"/>
<path d="M5818 1731 c-34 -28 -48 -76 -48 -172 0 -91 11 -154 40 -232 58 -154
165 -207 210 -104 39 87 55 398 25 457 -20 40 -66 62 -140 67 -51 4 -64 2 -87
-16z"/>
<path d="M6277 1726 c-43 -11 -82 -28 -87 -36 -30 -49 -17 -258 20 -335 21
-43 74 -85 107 -85 53 0 88 109 98 305 8 137 -1 176 -37 174 -13 -1 -58 -11
-101 -23z"/>
<path d="M4922 1710 c-49 -30 -58 -59 -43 -133 7 -34 19 -154 26 -267 7 -113
16 -213 20 -222 16 -39 66 -29 143 29 68 51 105 167 132 415 15 131 3 160 -71
182 -75 23 -166 21 -207 -4z"/>
<path d="M5323 1653 c-14 -48 -9 -443 6 -492 24 -82 104 -135 176 -117 70 18
140 133 170 281 21 104 33 325 17 325 -7 0 -12 -7 -12 -15 0 -41 -89 -179
-105 -163 -3 3 3 41 14 84 22 92 16 107 -32 93 -53 -15 -120 -10 -162 11 -52
26 -63 25 -72 -7z"/>
</g>
</svg>
