<?xml version="1.0" standalone="no"?>
<!DOCTYPE svg PUBLIC "-//W3C//DTD SVG 20010904//EN"
 "http://www.w3.org/TR/2001/REC-SVG-20010904/DTD/svg10.dtd">
<svg version="1.0" xmlns="http://www.w3.org/2000/svg"
 width="1280.000000pt" height="893.000000pt" viewBox="0 0 1280.000000 893.000000"
 preserveAspectRatio="xMidYMid meet">
<metadata>
Created by potrace 1.15, written by Peter Selinger 2001-2017
</metadata>
<g transform="translate(0.000000,893.000000) scale(0.100000,-0.100000)"
fill="#000000" stroke="none">
<path d="M345 8924 c-216 -35 -329 -125 -342 -273 -8 -87 18 -173 72 -239 44
-53 45 -55 44 -127 -1 -86 10 -111 92 -209 86 -102 92 -129 84 -344 -5 -123
-3 -186 4 -206 6 -16 38 -63 70 -106 48 -64 62 -92 80 -161 28 -105 53 -169
131 -334 91 -192 109 -255 120 -420 15 -213 29 -256 147 -447 90 -146 112
-203 134 -357 47 -332 140 -487 342 -568 84 -33 153 -69 282 -147 194 -117
365 -152 597 -122 70 9 143 16 162 16 51 0 120 -25 217 -81 120 -68 153 -78
321 -94 166 -16 214 -32 270 -89 59 -61 82 -118 82 -211 1 -89 -18 -137 -71
-186 -67 -63 -135 -74 -286 -44 -43 8 -129 15 -190 15 -197 0 -297 -38 -413
-154 -114 -114 -161 -230 -151 -371 11 -145 34 -196 142 -313 131 -144 130
-154 -25 -367 -109 -150 -140 -212 -176 -350 -23 -87 -29 -132 -29 -215 0
-131 10 -153 131 -270 110 -108 127 -143 127 -265 0 -69 -8 -122 -34 -225 -29
-115 -34 -153 -34 -255 0 -116 1 -123 33 -188 28 -56 48 -80 113 -134 84 -69
109 -104 109 -151 0 -44 -54 -140 -123 -219 -112 -126 -360 -358 -477 -445
-125 -93 -164 -129 -178 -168 -18 -47 30 -100 89 -100 44 0 98 38 214 151 138
134 233 200 542 375 298 169 356 177 525 77 209 -124 359 -189 542 -234 67
-17 128 -37 137 -45 9 -8 29 -44 44 -80 27 -64 27 -65 11 -109 -10 -25 -15
-49 -12 -53 3 -5 33 -15 66 -21 114 -23 186 20 244 143 69 145 73 249 19 504
-32 154 -37 195 -38 317 0 133 1 143 27 190 74 140 193 184 513 191 217 4 229
6 287 43 52 33 91 102 108 191 6 30 11 145 11 255 -1 273 9 291 189 335 199
49 242 123 285 495 19 158 56 307 96 389 23 46 61 90 154 181 117 115 123 123
134 176 9 44 9 81 -3 175 -21 173 -10 218 78 312 55 59 119 79 146 46 19 -22
15 -120 -8 -244 -34 -178 -47 -318 -46 -500 1 -146 5 -188 23 -255 36 -134
147 -328 219 -383 49 -38 115 -38 164 0 73 56 185 252 218 383 41 162 33 473
-21 755 -24 124 -28 222 -9 244 27 33 91 13 146 -46 88 -94 99 -139 78 -312
-12 -94 -12 -131 -3 -175 11 -53 17 -61 134 -176 94 -92 131 -135 154 -183 40
-79 77 -232 96 -392 31 -262 55 -341 126 -412 35 -35 61 -51 103 -62 31 -9 80
-23 109 -31 30 -8 66 -24 82 -37 49 -38 55 -68 54 -285 0 -109 5 -223 11 -253
17 -89 56 -158 108 -191 58 -37 70 -39 287 -43 322 -7 441 -52 516 -196 22
-41 24 -57 24 -185 -1 -122 -6 -163 -38 -317 -54 -255 -50 -360 19 -504 58
-123 130 -166 244 -143 33 6 63 16 66 21 3 4 -2 28 -12 53 -16 44 -16 45 11
109 15 36 35 72 44 80 9 8 70 28 137 45 183 45 333 110 542 234 169 100 223
93 512 -70 318 -179 408 -241 550 -378 158 -152 202 -175 271 -139 55 28 55
80 1 138 -15 16 -79 67 -142 114 -117 87 -365 319 -477 445 -69 79 -123 175
-123 219 0 47 25 82 109 151 65 54 85 79 112 133 29 59 34 79 37 163 3 83 -1
117 -33 256 -28 121 -37 182 -38 250 0 122 17 157 127 265 121 117 131 139
131 270 0 83 -6 128 -29 215 -36 138 -67 200 -176 350 -155 213 -156 223 -25
367 108 117 131 168 142 313 10 141 -37 257 -151 371 -116 116 -216 154 -413
154 -61 0 -147 -7 -190 -15 -151 -30 -219 -19 -286 44 -53 49 -72 97 -71 186
0 93 23 150 82 211 56 57 104 73 270 89 168 16 201 26 321 94 97 56 166 81
217 81 19 0 92 -7 162 -16 232 -30 403 5 597 122 129 78 198 114 282 147 202
81 294 234 342 569 22 152 49 223 134 355 63 99 112 198 126 258 6 28 16 113
21 190 11 165 29 228 120 420 78 165 103 229 131 334 18 69 32 97 80 161 32
43 64 90 70 106 7 20 9 83 4 206 -8 215 -2 242 84 344 82 98 93 123 92 209 -1
72 0 74 44 127 102 125 98 312 -10 406 -91 80 -190 107 -395 106 -173 -1 -267
-14 -665 -94 -347 -70 -395 -74 -742 -59 -398 17 -418 14 -809 -140 -192 -75
-247 -106 -482 -267 -81 -56 -224 -146 -317 -202 -140 -82 -193 -120 -295
-212 -69 -62 -181 -158 -250 -215 -69 -56 -165 -139 -215 -185 -49 -46 -187
-167 -305 -270 -250 -217 -366 -337 -455 -470 -84 -125 -97 -158 -139 -332
-19 -80 -46 -174 -60 -208 -41 -100 -130 -223 -260 -358 -97 -101 -146 -142
-246 -208 -69 -45 -168 -122 -220 -170 -52 -48 -111 -97 -131 -110 -20 -12
-63 -45 -97 -73 -88 -73 -126 -69 -96 11 45 122 43 162 -11 225 l-35 41 11 83
c15 127 46 233 100 345 111 233 289 385 501 431 73 15 79 15 96 0 42 -38 111
-4 98 47 -8 33 -38 40 -135 33 -340 -27 -629 -330 -716 -752 -8 -41 -15 -87
-15 -102 0 -46 -11 -73 -30 -73 -19 0 -30 27 -30 73 0 15 -7 61 -15 102 -87
422 -376 725 -716 752 -97 7 -127 0 -135 -33 -13 -51 56 -85 98 -47 17 15 23
15 96 0 212 -46 390 -198 501 -431 54 -112 85 -218 100 -345 l11 -83 -35 -41
c-54 -63 -56 -103 -11 -225 30 -80 -8 -84 -96 -11 -34 28 -77 61 -97 73 -20
13 -79 62 -131 110 -52 48 -151 125 -220 170 -207 137 -435 391 -505 565 -14
34 -41 127 -60 207 -42 175 -56 209 -140 334 -89 133 -205 253 -455 470 -118
103 -255 224 -305 270 -49 46 -146 129 -215 185 -69 57 -181 153 -250 215
-102 92 -155 130 -295 212 -93 56 -236 146 -317 202 -235 161 -290 192 -482
267 -391 154 -411 157 -809 140 -344 -15 -398 -11 -722 55 -345 70 -507 94
-655 99 -74 2 -148 1 -165 -1z"/>
</g>
</svg>
