<?xml version="1.0" standalone="no"?>
<!DOCTYPE svg PUBLIC "-//W3C//DTD SVG 20010904//EN"
 "http://www.w3.org/TR/2001/REC-SVG-20010904/DTD/svg10.dtd">
<svg version="1.0" xmlns="http://www.w3.org/2000/svg"
 width="1280.000000pt" height="954.000000pt" viewBox="0 0 1280.000000 954.000000"
 preserveAspectRatio="xMidYMid meet">
<metadata>
Created by potrace 1.15, written by Peter Selinger 2001-2017
</metadata>
<g transform="translate(0.000000,954.000000) scale(0.100000,-0.100000)"
fill="#000000" stroke="none">
<path d="M4033 9521 c-41 -19 -115 -101 -128 -142 -4 -11 -4 -32 -1 -47 5 -18
200 -220 589 -607 320 -319 598 -600 618 -625 20 -25 89 -101 152 -170 l116
-124 -27 -12 c-29 -12 -54 -43 -66 -80 -5 -15 3 -33 29 -65 19 -24 35 -54 35
-65 0 -26 57 -84 82 -84 11 0 40 20 67 45 45 42 49 44 63 27 21 -23 48 -78 48
-96 0 -8 23 -34 52 -59 l52 -45 -33 -71 c-20 -43 -30 -78 -26 -90 10 -31 75
-83 94 -75 57 24 74 -5 47 -83 -24 -69 -20 -87 25 -139 l41 -47 -510 -506
c-281 -278 -518 -518 -527 -533 -16 -25 -15 -29 4 -74 12 -26 20 -48 19 -49
-17 -10 -157 -127 -167 -138 -9 -12 -10 -21 -1 -36 6 -12 8 -21 5 -21 -4 0
-56 45 -116 100 -61 55 -122 103 -136 106 -13 4 -54 4 -89 1 -52 -4 -75 -12
-117 -40 -29 -19 -243 -202 -477 -407 -234 -206 -576 -505 -760 -666 -430
-375 -431 -376 -444 -467 -6 -39 -3 -57 15 -93 12 -25 29 -50 39 -56 13 -8 16
-21 13 -57 -4 -34 3 -67 26 -129 36 -96 37 -111 14 -155 -25 -50 -34 -97 -17
-97 21 0 17 -18 -6 -30 -27 -14 -25 -38 4 -69 l24 -26 -71 -96 c-40 -53 -87
-113 -105 -133 -17 -20 -32 -44 -32 -52 0 -20 -351 -386 -523 -545 -71 -65
-137 -119 -147 -119 -10 0 -69 -52 -137 -122 -65 -67 -311 -319 -547 -560
l-430 -437 -55 -11 c-66 -14 -155 -35 -351 -84 -232 -58 -219 -54 -226 -84 -3
-15 -12 -47 -19 -72 -14 -44 -13 -48 15 -104 35 -69 37 -91 10 -131 -22 -34
-25 -63 -9 -118 12 -45 162 -204 334 -356 252 -222 526 -411 575 -396 22 7 23
8 25 85 1 49 16 84 133 324 73 148 134 272 137 274 2 2 32 -19 65 -47 34 -28
66 -51 71 -51 19 0 41 54 104 265 71 234 93 284 150 334 41 35 51 37 76 15 22
-19 43 -9 88 41 33 38 38 64 19 95 -11 17 -7 26 38 72 84 88 104 117 104 152
0 38 -16 64 -88 138 l-56 58 29 32 c17 18 91 96 166 174 89 92 139 151 143
170 4 16 40 66 81 112 52 57 90 112 121 175 37 74 68 114 151 204 57 61 116
130 131 152 28 42 87 91 108 91 7 0 34 18 60 40 40 36 48 39 63 27 9 -7 44
-37 78 -66 l63 -53 72 66 c93 85 141 108 234 114 133 8 147 -4 169 -154 14
-99 46 -488 65 -807 12 -197 22 -227 74 -227 56 0 183 79 439 273 131 99 167
139 167 184 0 30 -34 73 -58 73 -7 0 -17 11 -21 24 -16 41 -51 268 -53 343 -2
64 1 80 27 126 34 63 30 82 -22 104 -47 19 -53 28 -53 78 0 36 9 50 81 135 45
52 101 120 124 150 62 80 394 401 442 428 l41 22 123 -90 c202 -150 422 -276
656 -379 60 -26 120 -55 135 -65 72 -47 166 36 300 264 31 52 109 174 173 270
72 108 118 186 118 203 2 26 -4 30 -90 66 -161 68 -485 239 -576 304 -122 88
-227 184 -227 208 0 11 7 33 15 48 13 26 13 30 -3 44 -9 9 -37 24 -62 35 -44
19 -105 76 -185 176 l-40 49 0 102 c0 101 0 102 -34 140 -43 49 -26 56 34 15
25 -17 49 -28 55 -25 5 3 39 44 77 91 73 93 64 89 154 68 19 -4 35 3 70 31 24
20 249 251 499 513 251 262 460 477 466 477 5 0 194 -196 420 -435 226 -239
430 -452 453 -473 61 -55 80 -62 126 -43 20 9 45 16 55 16 10 0 47 -37 89 -90
l71 -90 60 42 c33 23 62 39 66 35 3 -3 -12 -28 -35 -55 -41 -48 -41 -49 -41
-129 0 -101 -7 -120 -75 -203 -97 -117 -162 -178 -224 -209 -72 -37 -85 -55
-65 -94 8 -15 12 -36 9 -47 -12 -38 -222 -220 -369 -320 -97 -65 -361 -217
-536 -308 -80 -41 -147 -77 -149 -79 -9 -7 21 -84 43 -110 23 -28 172 -280
240 -408 21 -38 60 -105 89 -147 41 -63 60 -83 104 -105 l53 -28 33 19 c17 11
91 51 162 89 324 173 531 303 760 481 83 64 157 116 166 116 33 0 112 -64 268
-215 89 -87 178 -181 198 -209 20 -28 71 -91 114 -141 84 -100 99 -123 99
-157 0 -33 -35 -85 -62 -93 -31 -10 -68 -45 -68 -64 0 -9 10 -34 22 -56 31
-57 27 -129 -21 -321 -48 -192 -54 -208 -98 -234 -18 -10 -40 -35 -50 -54 -14
-30 -14 -39 -3 -67 17 -39 112 -115 301 -241 237 -157 312 -186 358 -136 26
27 37 62 51 168 18 139 119 734 150 887 36 179 57 229 106 249 44 19 163 22
220 6 40 -12 69 -32 168 -115 l45 -39 83 72 c46 40 88 74 95 77 7 3 32 -11 56
-31 24 -20 52 -36 62 -36 26 0 96 -59 111 -94 7 -17 62 -83 122 -147 85 -91
114 -130 132 -175 43 -108 70 -153 130 -218 39 -41 66 -81 77 -111 13 -38 47
-79 176 -212 l161 -164 -81 -82 c-91 -93 -103 -111 -103 -161 0 -29 11 -48 60
-105 33 -38 64 -73 70 -76 15 -9 12 -41 -5 -55 -8 -7 -15 -19 -15 -28 0 -24
41 -78 72 -97 27 -15 30 -15 54 4 15 12 32 21 39 21 18 0 94 -86 110 -124 8
-18 32 -122 55 -232 54 -264 66 -304 88 -304 10 0 50 27 88 60 38 33 72 60 75
60 3 0 57 -125 120 -277 113 -277 113 -278 112 -355 -3 -105 9 -112 103 -57
277 162 935 747 994 884 23 55 25 112 5 139 -8 11 -15 30 -15 43 0 25 29 89
62 136 17 23 18 33 9 59 -6 17 -11 47 -11 67 0 20 -4 42 -9 49 -5 8 -60 21
-139 32 -72 10 -168 26 -213 35 -45 8 -135 22 -200 30 l-118 14 -294 298
c-161 164 -405 414 -543 555 -181 187 -255 258 -272 258 -28 0 -158 118 -382
347 -256 260 -283 290 -285 312 -1 11 -20 44 -43 73 -59 76 -152 208 -152 217
0 4 14 20 30 36 37 35 37 41 3 78 -20 22 -23 28 -10 24 27 -10 32 17 12 71 -9
26 -19 56 -21 67 -3 12 17 76 46 148 37 93 50 135 45 155 -4 22 0 33 21 52 63
60 88 175 51 246 -22 42 -109 122 -402 369 -143 121 -456 386 -695 590 -553
471 -558 475 -600 493 -51 21 -157 21 -202 -1 -20 -10 -91 -70 -159 -133 -67
-63 -124 -112 -126 -110 -3 2 0 13 5 23 6 11 8 24 4 30 -5 7 -124 105 -170
138 -1 1 9 28 24 59 25 55 25 57 8 84 -10 15 -252 260 -538 544 l-521 518 41
0 c32 0 46 6 72 33 38 39 41 72 12 135 l-19 43 54 53 c30 29 55 60 55 68 0 8
14 34 31 57 l30 42 40 -35 c21 -20 48 -36 58 -36 23 0 81 55 81 77 0 9 15 34
33 57 18 23 37 46 41 53 10 18 -20 70 -50 86 l-26 14 104 109 c57 60 133 143
167 184 35 41 193 200 350 354 403 393 811 805 844 854 37 53 30 89 -27 147
-77 77 -75 78 -285 -123 -173 -167 -242 -238 -651 -679 -169 -181 -340 -356
-581 -591 l-136 -132 -181 176 c-200 194 -247 234 -271 234 -24 0 -114 -77
-128 -110 -8 -18 -16 -130 -22 -304 -6 -152 -15 -284 -20 -294 -5 -9 -18 -26
-30 -36 -21 -19 -21 -18 -128 84 -60 57 -112 109 -116 117 -4 7 -3 86 3 175
17 261 23 453 17 480 -4 15 -30 43 -63 68 l-57 43 -36 -19 c-20 -10 -143 -124
-274 -253 l-238 -235 -107 105 c-344 335 -419 410 -464 464 -147 175 -950
1005 -973 1005 -5 0 -29 -9 -52 -19z m2117 -1425 c17 -52 -10 -370 -34 -393
-2 -3 -17 4 -33 15 -39 28 -253 247 -253 258 0 6 20 30 45 54 42 42 49 45 98
45 43 0 59 5 86 28 46 38 76 36 91 -7z m635 -168 c28 -22 76 -28 107 -14 12 5
27 -4 57 -34 23 -24 41 -45 41 -49 0 -4 -63 -70 -141 -146 -123 -122 -142
-138 -151 -122 -6 11 -8 84 -6 182 3 143 5 165 22 184 24 27 36 26 71 -1z
m1785 -2127 c67 -49 965 -933 1081 -1064 64 -71 69 -81 69 -123 0 -51 -33 -94
-72 -94 -64 1 -109 40 -555 482 -442 439 -639 644 -674 703 -21 34 -25 100 -7
111 20 13 72 22 98 16 14 -2 41 -16 60 -31z m-4142 -183 c20 -20 14 -51 -19
-104 -17 -28 -272 -290 -587 -605 -595 -593 -614 -610 -671 -578 -30 17 -39
64 -21 109 16 38 1136 1152 1180 1173 41 19 101 22 118 5z m3878 -1693 c61
-31 237 -193 254 -236 12 -27 11 -36 -6 -66 -28 -53 -74 -83 -139 -92 -91 -13
-104 -51 -16 -51 71 0 140 25 195 70 26 22 50 40 52 40 2 0 13 -15 24 -32 36
-60 20 -162 -31 -189 -24 -12 -157 -13 -186 -1 -28 12 -363 356 -363 373 0 23
48 159 62 176 32 39 87 41 154 8z m-3812 -20 c16 -17 31 -63 42 -133 l7 -44
-179 -179 c-165 -165 -182 -179 -226 -189 -125 -26 -170 -7 -170 73 0 42 24
111 42 122 5 3 27 -11 50 -30 51 -43 66 -47 155 -43 54 2 70 6 70 18 0 11 -15
16 -55 20 -68 6 -101 27 -124 75 -17 36 -17 37 7 74 29 43 176 181 239 223 47
32 116 38 142 13z"/>
</g>
</svg>
