<?xml version="1.0" standalone="no"?>
<!DOCTYPE svg PUBLIC "-//W3C//DTD SVG 20010904//EN"
 "http://www.w3.org/TR/2001/REC-SVG-20010904/DTD/svg10.dtd">
<svg version="1.0" xmlns="http://www.w3.org/2000/svg"
 width="1256.000000pt" height="1280.000000pt" viewBox="0 0 1256.000000 1280.000000"
 preserveAspectRatio="xMidYMid meet">
<metadata>
Created by potrace 1.15, written by Peter Selinger 2001-2017
</metadata>
<g transform="translate(0.000000,1280.000000) scale(0.100000,-0.100000)"
fill="#000000" stroke="none">
<path d="M6260 12408 c0 -389 -12 -910 -21 -896 -5 7 -9 30 -9 51 0 52 -34
214 -64 307 -99 309 -226 423 -562 509 -135 35 -474 76 -474 58 0 -10 74 -130
163 -262 128 -192 224 -312 352 -441 112 -113 127 -125 225 -172 109 -53 231
-92 287 -92 30 0 35 -5 62 -61 l29 -61 -9 -796 c-6 -439 -13 -890 -17 -1004
l-7 -207 -72 60 c-68 56 -73 62 -73 99 0 63 -48 274 -95 417 -86 261 -163 389
-340 568 -123 124 -403 355 -431 355 -9 0 4 -193 22 -315 31 -213 121 -514
196 -656 105 -198 296 -346 516 -398 80 -19 87 -23 182 -106 l100 -86 0 -102
c0 -56 -5 -401 -10 -767 -5 -366 -14 -1086 -20 -1600 -9 -863 -19 -1309 -27
-1235 -10 87 -100 613 -144 835 -151 764 -336 1471 -486 1850 -290 732 -682
1121 -1279 1265 l-111 27 -23 88 c-21 86 -21 92 -6 166 23 110 21 317 -4 415
-44 178 -113 292 -273 457 -133 136 -241 229 -372 317 -93 63 -235 141 -235
129 0 -22 46 -261 70 -360 63 -265 148 -469 252 -609 111 -148 387 -406 484
-452 29 -14 35 -24 47 -77 8 -34 13 -62 13 -63 -1 -1 -78 11 -172 27 -509 89
-684 145 -900 288 -354 234 -599 619 -686 1079 -19 100 -23 151 -22 333 0 195
3 227 27 342 26 122 86 308 121 377 10 18 15 35 13 37 -7 7 -82 -172 -110
-261 -143 -461 -100 -962 119 -1384 63 -122 64 -123 37 -116 -16 4 -28 7 -29
8 -1 1 -11 33 -23 71 -46 144 -153 319 -251 409 -73 68 -189 151 -330 237
-150 91 -474 254 -478 240 -10 -30 81 -357 142 -509 94 -234 182 -347 321
-415 129 -63 345 -103 497 -93 64 4 87 1 143 -19 56 -20 67 -22 71 -9 4 10 20
-5 51 -48 74 -102 257 -275 368 -349 222 -148 380 -204 860 -303 121 -25 234
-50 250 -55 17 -5 64 -17 105 -26 145 -33 329 -108 444 -182 187 -121 376
-324 514 -552 l21 -36 -34 -18 -34 -19 -83 56 c-130 86 -254 146 -327 158
-204 32 -450 -80 -703 -320 -49 -46 -88 -86 -88 -90 0 -8 161 -72 281 -111
281 -92 518 -104 631 -30 24 15 101 81 171 146 108 100 190 162 218 164 9 0
104 -204 154 -334 194 -503 447 -1683 570 -2665 25 -199 27 -251 6 -139 -18
93 -77 313 -127 476 -315 1017 -924 1689 -1672 1844 -93 19 -139 22 -347 23
-132 0 -275 -3 -317 -7 -65 -7 -76 -5 -72 7 3 8 -8 40 -24 72 -17 32 -34 83
-37 113 -36 297 -153 571 -287 667 -94 67 -238 124 -398 157 -161 33 -420 58
-420 40 0 -11 162 -260 243 -373 275 -383 466 -533 745 -587 42 -8 77 -15 78
-17 1 -1 11 -21 23 -45 16 -32 18 -43 9 -46 -32 -11 -429 -47 -568 -52 -328
-13 -632 48 -905 182 -136 66 -261 148 -268 174 -3 13 -14 20 -28 20 -16 0
-58 35 -139 118 -221 223 -358 477 -436 806 -18 76 -22 88 -18 46 13 -124 84
-340 165 -503 79 -157 156 -264 288 -399 l76 -78 -68 0 c-37 0 -67 4 -67 10 0
16 -177 158 -290 233 -133 88 -260 149 -375 178 -82 21 -112 23 -330 24 -274
0 -395 -9 -395 -31 0 -19 188 -213 277 -286 166 -135 366 -252 493 -287 108
-30 241 -29 354 4 87 25 167 61 218 96 21 16 45 19 128 19 l102 0 56 -43 c328
-251 783 -383 1247 -363 77 4 262 16 410 27 347 27 676 23 827 -10 350 -76
667 -274 940 -586 43 -49 78 -92 78 -96 0 -3 -21 -9 -47 -12 -43 -5 -51 -2
-78 23 -76 71 -340 214 -490 265 -164 56 -288 66 -508 40 -115 -13 -184 -26
-367 -66 l-55 -12 84 -78 c147 -139 439 -314 629 -378 220 -75 439 -39 645
105 69 49 85 56 149 64 40 5 73 8 73 7 1 -1 17 -24 37 -52 118 -167 257 -437
346 -670 249 -654 364 -1442 361 -2460 l-1 -310 -20 85 c-179 781 -465 1458
-877 2077 -553 831 -1097 1296 -1661 1418 -104 22 -337 31 -441 15 -102 -14
-270 -68 -355 -114 l-64 -34 -93 14 c-50 8 -103 14 -117 14 -15 0 -55 22 -95
51 -87 62 -229 132 -315 153 -149 38 -286 31 -442 -20 -156 -51 -418 -194
-588 -322 -76 -56 -210 -179 -210 -192 0 -7 28 -14 210 -51 172 -35 303 -49
470 -50 178 -2 255 11 405 68 156 58 410 199 520 288 l40 32 72 -10 c40 -5 73
-13 73 -16 0 -3 -22 -21 -49 -39 -70 -47 -202 -173 -270 -256 -205 -251 -367
-621 -427 -978 -17 -103 -25 -121 -39 -98 -12 19 -22 10 -50 -49 -27 -57 -31
-60 -89 -81 -168 -61 -366 -180 -463 -277 -95 -96 -176 -279 -253 -568 -20
-78 -70 -301 -70 -317 0 -21 295 119 388 184 77 55 155 129 192 183 85 123
194 397 275 690 18 66 45 140 60 165 l27 45 -6 -40 c-3 -22 -11 -113 -17 -202
-12 -179 1 -479 26 -608 9 -43 13 -52 10 -25 -23 236 -28 381 -17 543 27 396
106 708 257 1012 94 188 181 311 315 445 167 167 361 282 567 337 85 23 118
26 253 26 171 0 283 -19 429 -73 132 -49 130 -47 118 -85 -10 -32 -13 -34 -81
-45 -127 -21 -270 -61 -329 -92 -194 -104 -342 -418 -373 -791 l-7 -87 69 25
c120 45 351 162 443 225 105 72 199 166 234 236 25 49 34 96 73 369 11 81 26
144 39 163 1 1 31 -14 66 -33 588 -333 1276 -1274 1650 -2257 187 -494 305
-994 364 -1549 21 -196 31 -752 16 -949 -12 -164 -61 -568 -86 -716 -55 -319
-213 -882 -297 -1062 -21 -45 -139 -173 -188 -205 -23 -15 56 -16 1068 -16
600 -1 1092 1 1092 4 0 3 -33 46 -74 96 -81 99 -101 146 -200 459 -247 779
-331 1650 -240 2475 45 408 157 904 289 1285 158 454 406 955 668 1345 334
499 714 899 1019 1073 40 22 80 44 88 47 21 8 37 -37 54 -161 40 -276 48 -319
73 -368 35 -70 129 -164 234 -236 92 -63 323 -180 443 -225 l69 -25 -7 87
c-31 373 -179 687 -373 791 -59 31 -202 71 -329 92 -69 11 -71 12 -82 46 -12
41 -12 42 130 90 154 52 253 68 418 68 123 -1 160 -5 241 -27 491 -130 871
-566 1044 -1195 87 -316 123 -685 95 -987 -5 -55 -11 -127 -14 -160 -5 -59 -5
-58 9 15 52 286 42 700 -26 1035 -100 498 -345 930 -662 1166 -86 65 -88 61
23 78 52 8 56 7 95 -24 109 -89 363 -230 520 -288 150 -57 227 -70 405 -68
167 1 298 15 470 50 182 37 210 44 210 51 0 13 -134 136 -210 192 -170 128
-432 271 -588 322 -156 51 -293 58 -442 20 -86 -21 -228 -91 -315 -153 -40
-29 -80 -51 -95 -51 -14 0 -67 -7 -119 -14 l-95 -14 -68 34 c-164 82 -339 124
-521 124 -445 0 -840 -194 -1273 -625 -704 -700 -1229 -1657 -1500 -2730 l-63
-250 0 275 c-2 792 61 1408 200 1968 118 474 288 877 496 1177 48 68 50 70 88
68 99 -7 122 -14 181 -59 194 -147 434 -188 656 -113 190 64 482 239 629 378
l84 78 -55 12 c-183 40 -252 53 -367 66 -220 26 -344 16 -508 -40 -152 -51
-434 -205 -494 -269 -21 -22 -30 -25 -70 -19 -25 3 -49 8 -53 12 -11 9 146
185 243 272 244 219 486 349 767 410 150 33 489 37 832 10 382 -29 528 -34
674 -22 153 13 336 49 466 91 173 57 409 181 527 276 41 34 42 34 148 34 88 0
112 -3 133 -19 51 -35 131 -71 218 -96 113 -33 246 -34 354 -4 127 35 327 152
493 287 89 73 277 267 277 286 0 22 -121 31 -395 31 -218 -1 -248 -3 -330 -24
-115 -29 -242 -90 -375 -178 -113 -75 -290 -217 -290 -233 0 -6 -29 -10 -65
-10 -36 0 -65 4 -65 9 0 5 12 19 26 30 45 35 152 161 215 254 73 106 156 269
199 392 37 105 80 279 79 315 -1 18 -4 14 -10 -15 -65 -278 -135 -447 -264
-639 -64 -96 -273 -321 -307 -332 -12 -3 -36 -21 -54 -39 -18 -18 -71 -56
-118 -84 -307 -186 -660 -273 -1046 -257 -132 5 -558 44 -568 52 -3 2 35 82
42 91 1 2 36 9 78 17 90 17 200 59 294 111 128 71 352 321 541 605 58 87 153
240 153 246 0 16 -267 -11 -420 -42 -197 -41 -361 -115 -446 -201 -110 -112
-197 -333 -235 -593 -7 -54 -22 -106 -41 -144 -16 -32 -27 -64 -24 -72 4 -12
-7 -13 -67 -7 -40 5 -184 8 -322 8 -220 0 -263 -3 -357 -23 -656 -137 -1206
-670 -1546 -1499 -91 -220 -209 -607 -252 -826 -7 -32 -13 -57 -15 -55 -4 4
46 393 79 618 102 682 286 1537 431 2005 56 181 110 322 181 472 l52 112 50
-27 c28 -15 108 -80 179 -146 70 -65 147 -131 171 -146 113 -74 350 -62 631
30 120 39 281 103 281 111 0 4 -39 44 -87 90 -254 240 -500 352 -704 320 -73
-12 -197 -72 -327 -158 l-83 -56 -34 19 c-19 10 -35 21 -35 24 0 11 73 125
123 193 179 242 386 405 642 507 89 36 291 91 299 83 3 -3 11 -1 18 5 7 5 96
27 198 47 493 98 694 168 915 319 112 77 258 215 345 328 55 71 69 83 73 67 5
-19 6 -19 70 5 55 21 76 23 143 19 154 -10 369 30 499 93 159 78 270 244 374
561 37 114 93 340 89 360 -2 11 -49 -9 -188 -80 -286 -145 -494 -277 -620
-394 -99 -92 -218 -288 -256 -424 -14 -50 -20 -57 -50 -67 -19 -5 -34 -8 -34
-5 0 2 18 35 39 72 110 187 188 431 216 670 39 332 -8 647 -145 963 -21 50
-44 96 -49 101 -6 6 7 -30 28 -79 50 -116 94 -256 123 -385 19 -90 22 -134 23
-324 0 -230 -6 -287 -51 -466 -114 -459 -425 -854 -819 -1044 -117 -56 -277
-107 -440 -139 -134 -27 -459 -85 -461 -82 -1 0 5 28 13 62 12 53 18 63 47 77
97 46 373 304 484 452 104 140 189 344 252 609 24 99 70 338 70 360 0 12 -142
-66 -235 -129 -131 -88 -239 -181 -372 -317 -160 -165 -229 -279 -273 -457
-25 -98 -27 -305 -4 -415 15 -74 15 -80 -6 -165 l-22 -88 -132 -32 c-322 -80
-543 -205 -766 -437 -190 -197 -330 -416 -458 -714 -227 -529 -532 -1796 -673
-2795 -11 -82 -23 -152 -25 -154 -2 -2 -4 83 -4 190 0 107 -5 514 -10 904 -5
391 -14 1066 -20 1500 -5 435 -15 1152 -21 1594 -6 465 -7 807 -2 810 5 3 29
32 53 64 35 47 48 57 64 53 154 -43 440 -54 540 -22 158 52 335 219 470 443
46 77 152 297 162 337 l7 29 -134 -7 c-426 -21 -721 -105 -857 -243 -50 -51
-69 -83 -156 -268 -55 -115 -112 -224 -126 -241 l-27 -31 -7 181 c-4 99 -7
296 -7 436 1 358 -18 1492 -24 1498 -3 3 -5 -105 -5 -240z"/>
<path d="M982 9160 c0 -14 2 -19 5 -12 2 6 2 18 0 25 -3 6 -5 1 -5 -13z"/>
<path d="M11562 9140 c0 -14 2 -19 5 -12 2 6 2 18 0 25 -3 6 -5 1 -5 -13z"/>
<path d="M10920 5475 c-10 -12 -7 -24 15 -62 15 -27 42 -102 60 -168 82 -293
190 -567 275 -690 37 -54 115 -128 192 -183 93 -65 388 -205 388 -184 0 16
-50 239 -70 317 -77 289 -158 472 -253 568 -97 97 -295 216 -463 277 -58 21
-62 24 -89 81 -31 63 -36 67 -55 44z"/>
</g>
</svg>
