<?xml version="1.0" standalone="no"?>
<!DOCTYPE svg PUBLIC "-//W3C//DTD SVG 20010904//EN"
 "http://www.w3.org/TR/2001/REC-SVG-20010904/DTD/svg10.dtd">
<svg version="1.0" xmlns="http://www.w3.org/2000/svg"
 width="1280.000000pt" height="756.000000pt" viewBox="0 0 1280.000000 756.000000"
 preserveAspectRatio="xMidYMid meet">
<metadata>
Created by potrace 1.15, written by Peter Selinger 2001-2017
</metadata>
<g transform="translate(0.000000,756.000000) scale(0.100000,-0.100000)"
fill="#000000" stroke="none">
<path d="M5188 7392 c-198 -341 -363 -754 -474 -1191 -24 -96 -45 -176 -47
-177 -2 -2 -39 23 -83 54 -278 204 -592 390 -903 536 -116 55 -472 188 -480
181 -9 -9 -63 -323 -77 -445 -33 -296 -29 -790 10 -1107 6 -57 11 -103 9 -103
-1 0 -42 11 -90 26 -314 91 -640 156 -955 189 -177 18 -598 21 -598 4 0 -6 11
-79 25 -163 64 -379 197 -785 396 -1210 44 -94 83 -176 85 -182 4 -8 -29 -14
-103 -18 -342 -22 -732 -87 -1050 -176 -136 -38 -439 -144 -456 -160 -5 -4 28
-72 73 -151 200 -352 449 -670 788 -1007 l154 -152 -53 -22 c-424 -176 -907
-469 -1231 -747 l-127 -109 130 -112 c549 -472 1368 -866 2153 -1035 417 -90
933 -134 1236 -106 989 91 1945 486 2735 1129 44 36 87 72 95 81 17 17 34 27
-157 -100 -974 -654 -2140 -950 -3150 -799 -577 86 -1164 300 -1693 618 -157
94 -469 309 -470 323 0 10 237 179 367 260 144 91 335 197 466 260 l88 42 42
-31 c84 -63 325 -220 432 -284 569 -335 1036 -492 1705 -574 182 -22 709 -30
907 -15 325 26 647 80 943 157 137 36 504 154 497 160 -2 2 -64 -12 -139 -31
-450 -113 -891 -162 -1363 -152 -679 15 -1251 147 -1790 413 -239 118 -512
292 -725 461 l-85 67 120 39 c248 81 546 147 812 181 l122 16 89 -64 c359
-259 821 -490 1290 -645 364 -121 767 -205 1152 -241 157 -14 557 -23 445 -9
-44 5 -150 18 -235 30 -711 93 -1432 352 -1999 716 -135 86 -313 217 -302 221
22 7 365 -31 533 -59 191 -32 424 -87 609 -143 103 -31 128 -44 225 -112 309
-216 692 -423 1029 -557 131 -52 230 -88 224 -83 -3 3 -90 48 -195 100 -104
52 -243 126 -309 166 -146 86 -426 273 -419 279 2 3 109 -48 237 -112 227
-114 468 -256 627 -369 44 -31 80 -52 80 -47 0 6 4 8 9 5 4 -3 -24 68 -64 157
-110 247 -206 517 -274 771 -12 43 -20 80 -18 82 6 6 101 -200 161 -349 65
-163 115 -307 172 -502 l44 -150 -8 105 c-18 260 -3 1035 19 958 27 -99 36
-698 14 -988 l-5 -65 33 115 c76 259 182 550 272 745 20 44 44 95 52 114 31
71 21 17 -26 -150 -75 -262 -171 -524 -272 -738 -27 -57 -46 -108 -41 -113 4
-4 36 12 71 38 211 154 653 405 856 488 l40 16 -25 -20 c-44 -35 -331 -225
-425 -280 -49 -30 -178 -98 -285 -153 -214 -109 -214 -112 0 -27 393 156 802
380 1118 613 59 43 201 90 457 152 264 64 655 120 790 113 l59 -3 -139 -96
c-664 -459 -1472 -762 -2265 -849 -58 -7 -130 -15 -160 -20 -52 -7 -51 -8 35
-9 133 -1 408 17 591 39 828 101 1632 406 2276 861 112 80 104 79 310 49 246
-35 485 -91 738 -172 l104 -34 -74 -59 c-382 -304 -875 -572 -1272 -690 -436
-129 -802 -184 -1288 -192 -513 -9 -885 32 -1342 147 -64 17 -120 30 -125 29
-4 0 35 -16 87 -34 1100 -396 2412 -392 3387 8 324 133 697 344 980 553 40 30
77 54 83 54 23 0 332 -165 475 -253 195 -120 438 -294 430 -308 -16 -25 -352
-252 -505 -341 -693 -401 -1483 -629 -2180 -631 -862 -2 -1835 308 -2623 834
-81 54 -145 94 -142 89 3 -5 58 -52 123 -103 750 -602 1633 -971 2607 -1089
160 -19 610 -16 800 6 805 93 1585 377 2275 831 184 120 252 172 411 308 92
78 116 104 106 112 -92 83 -242 206 -318 262 -293 218 -682 436 -1043 587
l-38 16 153 153 c229 228 429 464 608 719 93 132 264 429 253 440 -4 3 -74 32
-157 63 -379 142 -868 240 -1347 271 -60 3 -108 7 -108 9 0 1 30 64 66 141
163 342 303 731 373 1035 29 126 73 391 66 398 -14 13 -453 4 -600 -13 -311
-35 -605 -92 -878 -171 -86 -25 -158 -45 -160 -45 -1 0 3 48 10 108 37 330 41
780 8 1085 -12 119 -69 455 -78 463 -5 6 -330 -113 -423 -154 -308 -136 -675
-352 -948 -556 -49 -37 -90 -65 -92 -63 -2 1 -21 72 -43 157 -117 455 -297
903 -500 1242 l-82 138 -137 -113 c-304 -250 -622 -607 -880 -989 -47 -71 -88
-128 -92 -128 -4 0 -46 59 -94 130 -240 357 -572 730 -866 974 -74 62 -139
115 -145 118 -5 3 -54 -69 -107 -160z m2241 -834 c117 -246 200 -462 280 -727
l41 -134 -128 -131 c-170 -174 -329 -358 -450 -519 -55 -72 -106 -142 -113
-154 -8 -13 -17 -23 -20 -23 -3 0 -11 26 -18 58 -20 92 -144 456 -204 598 -31
72 -81 181 -111 244 -31 62 -56 116 -56 121 0 13 171 239 270 355 79 93 427
454 438 454 2 0 34 -64 71 -142z m-1814 -30 c170 -172 313 -338 453 -526 l84
-113 -70 -152 c-117 -255 -216 -519 -288 -771 -26 -95 -28 -98 -42 -77 -40 59
-199 267 -273 356 -46 55 -162 180 -258 277 l-174 177 18 63 c35 126 116 362
171 496 72 179 194 432 208 432 6 0 83 -73 171 -162z m-1866 -533 c240 -106
475 -235 697 -380 l141 -92 -8 -69 c-29 -258 -37 -621 -18 -868 5 -76 8 -140
6 -143 -3 -2 -47 25 -99 60 -198 137 -533 323 -774 429 l-81 36 -6 53 c-14
122 -19 444 -8 609 14 227 33 410 42 410 3 0 52 -20 108 -45z m5415 23 c26
-123 45 -740 29 -948 -7 -98 -10 -105 -33 -116 -14 -7 -113 -55 -220 -108
-215 -104 -412 -217 -594 -339 -101 -67 -118 -76 -113 -56 3 13 11 121 17 239
10 218 2 520 -20 710 -16 141 -23 126 98 205 217 141 450 269 667 367 83 37
153 67 157 68 4 0 10 -10 12 -22z m-2649 -753 c107 -217 183 -406 250 -617
l46 -146 -36 -71 c-115 -229 -258 -631 -326 -915 -49 -202 -51 -208 -56 -181
-72 351 -216 777 -364 1078 -49 99 -49 97 27 323 78 236 189 491 302 693 33
59 36 62 49 45 8 -11 56 -104 108 -209z m1348 -147 c38 -283 52 -580 39 -800
l-9 -147 -136 -140 c-215 -223 -402 -457 -577 -721 -67 -101 -82 -118 -77 -90
4 19 14 105 24 190 21 190 25 763 5 934 l-12 108 37 52 c120 166 250 315 449
514 123 122 228 222 232 222 5 0 17 -55 25 -122z m-2795 13 c205 -190 363
-363 519 -568 l89 -118 -12 -130 c-26 -271 -13 -818 26 -1059 5 -33 8 -61 7
-63 -2 -1 -39 53 -82 120 -170 259 -376 515 -599 742 l-118 119 -8 176 c-7
160 1 478 14 582 27 217 40 298 48 298 5 0 57 -45 116 -99z m-2608 -342 c196
-19 422 -58 643 -111 106 -25 130 -34 137 -52 5 -11 24 -82 44 -156 60 -231
145 -473 250 -714 31 -71 55 -131 53 -133 -2 -2 -46 8 -98 22 -242 65 -567
116 -892 141 l-88 6 -25 57 c-56 123 -144 353 -188 487 -45 138 -126 436 -126
463 0 14 61 12 290 -10z m8170 15 c0 -3 -16 -68 -35 -144 -64 -253 -166 -545
-291 -827 -22 -48 -6 -44 -226 -63 -241 -21 -528 -70 -760 -129 -60 -16 -108
-27 -108 -26 0 2 22 53 49 114 110 246 218 557 277 798 15 60 32 113 38 120
11 12 264 71 416 97 97 17 390 54 465 59 93 6 175 7 175 1z m-1540 -440 c-55
-248 -117 -451 -211 -686 -69 -175 -85 -208 -102 -208 -24 0 -373 -179 -512
-262 -170 -102 -291 -183 -431 -288 -58 -44 -107 -80 -109 -80 -2 0 38 87 90
193 140 289 245 567 320 850 25 95 40 133 57 147 36 29 252 162 363 223 157
87 552 263 563 252 2 -1 -11 -65 -28 -141z m-5268 80 c243 -103 499 -237 715
-376 84 -54 94 -64 103 -101 91 -353 202 -654 358 -970 42 -87 76 -157 75
-157 -2 0 -54 38 -115 84 -248 184 -501 336 -790 476 -136 66 -178 90 -186
110 -6 14 -31 75 -57 135 -60 143 -145 397 -185 555 -44 174 -69 300 -59 300
4 0 67 -25 141 -56z m2218 -664 c113 -266 196 -522 260 -797 28 -124 29 -132
17 -223 -16 -133 -16 -821 1 -965 7 -60 15 -128 18 -150 2 -22 -11 19 -29 90
-93 356 -224 719 -357 985 -43 85 -60 186 -81 485 -17 238 -2 720 27 845 5 22
11 15 46 -55 23 -44 67 -141 98 -215z m864 228 c38 -368 35 -731 -9 -1093 -14
-113 -19 -130 -79 -261 -130 -285 -239 -589 -316 -886 -22 -84 -38 -133 -35
-108 2 25 10 95 17 155 17 151 17 739 0 930 l-14 150 47 185 c55 217 124 430
199 613 67 164 166 377 176 377 4 0 11 -28 14 -62z m890 -409 c-46 -178 -139
-452 -209 -619 -79 -189 -215 -459 -236 -471 -26 -13 -273 -281 -387 -417
-117 -141 -216 -272 -306 -407 -82 -122 -86 -126 -48 -50 146 292 275 633 367
968 47 170 51 177 199 392 152 220 319 420 514 613 74 73 136 132 138 130 2
-3 -12 -65 -32 -139z m-2617 -67 c203 -219 358 -414 523 -661 81 -121 84 -128
126 -280 89 -324 209 -640 346 -916 58 -116 55 -114 -37 20 -173 254 -345 463
-567 690 l-157 161 -91 184 c-95 195 -184 412 -244 596 -38 118 -106 370 -106
392 0 20 94 -65 207 -186z m-2202 -167 c161 -8 397 -38 580 -75 258 -52 232
-39 320 -165 183 -262 416 -528 662 -758 46 -42 81 -77 78 -77 -3 0 -58 16
-123 36 -333 101 -840 194 -1061 194 l-50 0 -115 128 c-138 152 -241 280 -340
422 -77 109 -196 294 -196 305 0 3 28 3 63 1 34 -3 116 -8 182 -11z m7085 8
c-1 -15 -128 -207 -221 -336 -96 -133 -249 -319 -361 -440 l-63 -67 -160 -15
c-296 -28 -618 -90 -910 -175 -71 -21 -138 -42 -147 -45 -10 -4 76 87 190 202
216 217 381 410 530 623 l88 125 114 27 c152 37 382 75 555 92 154 15 385 20
385 9z m-7699 -145 c127 -181 300 -394 458 -565 72 -78 131 -144 131 -146 0
-2 -42 -7 -92 -11 -219 -16 -580 -83 -841 -157 l-140 -40 -87 93 c-198 212
-369 426 -518 650 -28 42 -53 82 -54 88 -4 14 34 27 257 85 229 59 629 129
767 134 23 1 38 -16 119 -131z m8469 101 c179 -27 425 -80 601 -129 78 -23
146 -43 151 -46 4 -3 -24 -53 -64 -112 -141 -211 -327 -441 -519 -645 l-84
-88 -130 36 c-253 69 -604 134 -867 160 -38 4 -68 10 -68 14 0 3 32 38 71 76
165 162 423 478 565 694 l49 73 80 -6 c44 -4 141 -16 215 -27z m-6413 -325
c237 -111 558 -306 790 -480 98 -74 120 -96 179 -182 161 -233 352 -461 580
-690 95 -95 158 -162 141 -149 -273 208 -641 429 -928 558 l-142 64 -163 159
c-244 236 -407 427 -574 673 -50 72 -90 134 -90 137 0 6 52 -17 207 -90z
m4132 34 c-170 -252 -353 -473 -594 -714 l-190 -191 -198 -96 c-110 -53 -255
-129 -324 -168 -117 -67 -414 -261 -528 -345 -33 -24 -16 -5 50 58 204 194
464 500 642 754 78 112 95 130 192 202 208 155 349 245 570 367 113 62 395
195 414 195 4 0 -11 -28 -34 -62z m-2637 -1153 c186 -202 460 -556 444 -573
-13 -12 -283 281 -440 478 -85 105 -231 304 -250 340 -14 25 129 -117 246
-245z m1147 143 c-101 -144 -194 -262 -325 -413 -119 -138 -304 -326 -304
-310 0 15 179 257 289 391 111 136 401 448 408 440 3 -2 -28 -51 -68 -108z"/>
</g>
</svg>
