<?xml version="1.0" standalone="no"?>
<!DOCTYPE svg PUBLIC "-//W3C//DTD SVG 20010904//EN"
 "http://www.w3.org/TR/2001/REC-SVG-20010904/DTD/svg10.dtd">
<svg version="1.0" xmlns="http://www.w3.org/2000/svg"
 width="1280.000000pt" height="1145.000000pt" viewBox="0 0 1280.000000 1145.000000"
 preserveAspectRatio="xMidYMid meet">
<metadata>
Created by potrace 1.15, written by Peter Selinger 2001-2017
</metadata>
<g transform="translate(0.000000,1145.000000) scale(0.100000,-0.100000)"
fill="#000000" stroke="none">
<path d="M6069 11253 c-283 -288 -436 -464 -646 -747 -1080 -1453 -1511 -3302
-1187 -5090 21 -115 23 -141 12 -151 -7 -6 -71 -34 -143 -60 -1284 -476 -2409
-1363 -3178 -2507 -405 -602 -698 -1246 -892 -1953 -33 -121 -35 -140 -35
-275 l0 -146 267 -71 c148 -40 320 -83 383 -97 1083 -236 2206 -201 3256 103
871 252 1667 674 2379 1260 61 50 112 91 115 91 3 0 55 -41 115 -91 1437
-1184 3246 -1702 5093 -1459 302 40 539 89 925 193 l267 71 0 146 c0 135 -2
154 -35 275 -194 707 -487 1351 -892 1953 -769 1144 -1894 2031 -3178 2507
-71 26 -136 54 -143 60 -11 10 -9 36 12 151 324 1788 -107 3637 -1187 5090
-210 283 -363 459 -646 747 l-195 197 -136 0 -136 0 -195 -197z m431 -695
c818 -915 1331 -2045 1479 -3258 38 -316 50 -904 23 -1195 -28 -309 -84 -671
-101 -661 -26 17 -448 93 -661 120 -645 82 -1268 71 -1915 -34 -127 -20 -414
-78 -426 -86 -17 -10 -73 352 -101 661 -27 291 -15 879 23 1195 135 1108 572
2144 1270 3010 134 166 296 350 309 350 5 0 50 -46 100 -102z m270 -5603 c236
-16 329 -26 526 -55 134 -20 431 -77 445 -86 4 -2 -14 -69 -41 -147 -222 -651
-591 -1312 -1024 -1837 -103 -125 -268 -310 -276 -310 -8 0 -173 185 -276 310
-433 525 -802 1186 -1024 1837 -27 78 -45 145 -41 147 17 11 323 68 481 91
436 62 823 78 1230 50z m-2331 -367 c7 -24 45 -131 83 -238 296 -821 780
-1613 1379 -2255 l29 -31 -135 -108 c-832 -663 -1797 -1086 -2830 -1240 -369
-54 -625 -70 -1005 -63 -417 8 -788 51 -1158 133 -87 19 -86 -5 -6 223 332
936 905 1786 1649 2450 543 484 1122 838 1815 1112 80 32 150 58 156 58 6 1
16 -18 23 -41z m4086 -12 c592 -228 1142 -547 1630 -945 217 -177 537 -486
712 -686 502 -576 887 -1232 1137 -1936 80 -228 81 -204 -6 -223 -590 -131
-1279 -169 -1893 -105 -1021 106 -2005 480 -2840 1078 -69 49 -185 138 -260
197 l-135 108 29 31 c599 642 1083 1434 1379 2255 38 107 76 214 83 238 7 23
15 42 18 42 4 0 69 -24 146 -54z"/>
</g>
</svg>
