<?xml version="1.0" standalone="no"?>
<!DOCTYPE svg PUBLIC "-//W3C//DTD SVG 20010904//EN"
 "http://www.w3.org/TR/2001/REC-SVG-20010904/DTD/svg10.dtd">
<svg version="1.0" xmlns="http://www.w3.org/2000/svg"
 width="1280.000000pt" height="1260.000000pt" viewBox="0 0 1280.000000 1260.000000"
 preserveAspectRatio="xMidYMid meet">
<metadata>
Created by potrace 1.15, written by Peter Selinger 2001-2017
</metadata>
<g transform="translate(0.000000,1260.000000) scale(0.100000,-0.100000)"
fill="#000000" stroke="none">
<path d="M6065 12590 c-925 -54 -1806 -291 -2620 -705 -678 -345 -1250 -776
-1764 -1329 -186 -201 -297 -332 -431 -511 -691 -926 -1107 -2037 -1227 -3270
-21 -221 -24 -841 -5 -1035 60 -605 152 -1030 329 -1520 64 -178 238 -580 328
-760 217 -434 466 -808 798 -1204 129 -153 535 -563 687 -692 859 -735 1810
-1210 2845 -1424 194 -40 578 -94 825 -117 241 -21 839 -24 1060 -4 898 79
1655 288 2400 660 565 283 1013 592 1497 1032 528 481 1050 1172 1371 1815
545 1090 755 2428 582 3699 -76 553 -226 1069 -478 1640 -451 1024 -1291 1995
-2317 2680 -803 537 -1745 885 -2720 1005 -327 41 -846 58 -1160 40z m-516
-1296 c40 -12 68 -30 111 -72 l58 -57 8 -220 c9 -246 13 -3940 4 -4022 l-5
-52 -415 -407 c-228 -224 -757 -745 -1175 -1159 -657 -650 -1221 -1201 -1525
-1491 -125 -120 -228 -164 -380 -164 -115 0 -153 37 -310 300 -338 567 -572
1337 -631 2074 -23 298 -4 780 45 1101 138 904 542 1779 1155 2500 124 147
457 476 601 595 234 194 506 384 745 521 312 179 899 421 1125 464 19 4 98 24
175 45 77 21 160 43 185 48 70 15 171 14 229 -4z m2041 -23 c63 -17 153 -40
200 -51 153 -37 460 -143 633 -217 514 -221 874 -440 1287 -782 152 -125 512
-485 636 -636 658 -797 1044 -1702 1154 -2710 28 -260 29 -762 0 -990 -100
-811 -348 -1540 -708 -2075 -63 -95 -85 -119 -122 -138 -78 -39 -225 -25 -336
31 -75 38 -418 367 -1603 1538 -420 414 -964 951 -1210 1192 l-446 439 -5 66
c-8 110 -4 3634 4 3942 l8 285 57 55 c74 74 125 91 246 86 58 -3 131 -15 205
-35z m-1853 -7961 c-7 -1734 -5 -1694 -60 -1813 -15 -33 -39 -65 -63 -83 -36
-28 -42 -29 -133 -27 -248 4 -525 72 -921 228 -444 175 -883 411 -1123 603
-87 69 -108 114 -111 227 -2 137 -9 129 621 757 795 794 1787 1751 1792 1730
2 -9 1 -739 -2 -1622z m2143 848 c923 -894 1509 -1484 1562 -1572 41 -69 41
-69 35 -146 -11 -142 -37 -177 -231 -309 -464 -315 -1180 -626 -1651 -715
-109 -21 -302 -39 -343 -32 -73 11 -124 74 -157 191 -23 85 -34 759 -34 2215
l-1 1165 88 -86 c48 -47 377 -367 732 -711z"/>
</g>
</svg>
