<?xml version="1.0" standalone="no"?>
<!DOCTYPE svg PUBLIC "-//W3C//DTD SVG 20010904//EN"
 "http://www.w3.org/TR/2001/REC-SVG-20010904/DTD/svg10.dtd">
<svg version="1.0" xmlns="http://www.w3.org/2000/svg"
 width="1280.000000pt" height="1276.000000pt" viewBox="0 0 1280.000000 1276.000000"
 preserveAspectRatio="xMidYMid meet">
<metadata>
Created by potrace 1.15, written by Peter Selinger 2001-2017
</metadata>
<g transform="translate(0.000000,1276.000000) scale(0.100000,-0.100000)"
fill="#000000" stroke="none">
<path d="M5785 12741 c-6 -5 -656 -381 -1445 -836 -789 -456 -1437 -829 -1439
-831 -2 -2 -27 -583 -57 -1291 -81 -1965 -82 -1975 -92 -1982 -5 -3 -626 -397
-1380 -876 l-1372 -869 1 -1676 0 -1675 24 80 c13 44 76 271 140 505 185 673
333 1212 379 1380 24 85 76 276 117 424 l74 269 50 23 c27 12 602 261 1277
553 l1227 531 901 -679 c495 -374 904 -683 910 -686 7 -4 518 281 539 300 2 2
-138 248 -310 546 -173 299 -315 546 -317 551 -2 4 283 8 632 8 l636 0 -2 311
-3 312 -1035 438 c-569 240 -1040 441 -1047 446 -7 5 -67 491 -163 1323 -83
723 -155 1343 -159 1378 l-8 63 916 928 c1024 1038 1027 1041 1020 1041 -3 0
-9 -4 -14 -9z"/>
<path d="M7637 12103 c352 -357 789 -799 970 -983 l329 -335 -141 -1225 c-78
-674 -150 -1295 -160 -1381 l-17 -155 -1049 -444 -1049 -444 0 -308 0 -308
635 0 c349 0 635 -2 635 -5 0 -3 -142 -252 -316 -552 -173 -300 -311 -549
-307 -554 15 -14 513 -299 524 -299 5 0 413 304 905 676 493 371 902 678 910
681 8 3 191 -71 406 -165 216 -94 749 -324 1183 -512 435 -188 831 -360 880
-381 l91 -40 26 -97 c38 -139 232 -843 353 -1282 56 -206 158 -577 226 -824
l124 -450 3 1669 c2 1327 -1 1672 -10 1681 -7 7 -623 398 -1368 870 -745 471
-1361 863 -1368 869 -11 10 -25 295 -68 1311 -29 715 -60 1447 -67 1627 -8
180 -18 332 -23 337 -5 5 -634 369 -1399 810 -764 441 -1411 815 -1438 831
-26 16 -50 29 -53 29 -4 0 281 -291 633 -647z"/>
<path d="M5390 8814 c-547 -316 -1001 -578 -1007 -582 -13 -8 891 -397 904
-389 5 2 255 154 557 337 469 284 551 331 570 322 11 -5 263 -156 558 -335
l537 -326 457 193 c250 107 452 196 447 199 -471 274 -2002 1151 -2012 1153
-9 2 -464 -256 -1011 -572z"/>
<path d="M3252 5065 l3 -1167 1010 -584 c555 -321 1010 -582 1012 -581 5 6
-117 971 -124 978 -5 4 -262 147 -573 317 l-565 310 3 158 c2 88 7 335 12 549
5 215 10 436 10 492 l0 102 -381 288 c-210 158 -387 292 -395 296 -12 7 -14
-159 -12 -1158z"/>
<path d="M9127 5937 l-388 -292 6 -300 c4 -165 10 -457 15 -650 5 -192 5 -353
2 -357 -4 -4 -259 -145 -567 -314 -308 -169 -562 -308 -564 -311 -3 -2 -11
-50 -17 -106 -7 -56 -34 -272 -59 -480 -25 -208 -45 -382 -43 -386 2 -4 455
255 1008 575 l1005 581 3 1166 c1 642 -1 1167 -5 1166 -5 0 -183 -132 -396
-292z"/>
<path d="M5495 5059 c-143 -83 -263 -153 -267 -157 -3 -4 18 -200 47 -437 210
-1687 225 -1819 213 -1832 -7 -6 -510 -381 -1117 -831 l-1104 -819 -51 13
c-310 80 -2595 676 -2606 680 -10 3 -11 2 -5 -4 8 -7 1975 -1144 2732 -1579
l162 -93 1443 756 c794 416 1448 756 1453 756 6 0 660 -340 1454 -756 l1444
-756 1441 831 c793 457 1446 836 1451 841 6 6 5 7 -5 4 -11 -4 -2296 -600
-2606 -680 l-51 -13 -1104 819 c-607 450 -1110 825 -1117 831 -10 11 -5 75 27
333 22 175 72 578 111 894 39 316 84 679 100 805 16 127 25 233 22 237 -6 5
-460 270 -513 299 -14 7 -69 -83 -334 -542 -175 -303 -321 -547 -325 -542 -4
4 -146 249 -315 543 -169 294 -311 538 -314 542 -3 4 -123 -61 -266 -143z"/>
</g>
</svg>
