<?xml version="1.0" standalone="no"?>
<!DOCTYPE svg PUBLIC "-//W3C//DTD SVG 20010904//EN"
 "http://www.w3.org/TR/2001/REC-SVG-20010904/DTD/svg10.dtd">
<svg version="1.0" xmlns="http://www.w3.org/2000/svg"
 width="1280.000000pt" height="1280.000000pt" viewBox="0 0 1280.000000 1280.000000"
 preserveAspectRatio="xMidYMid meet">
<metadata>
Created by potrace 1.15, written by Peter Selinger 2001-2017
</metadata>
<g transform="translate(0.000000,1280.000000) scale(0.100000,-0.100000)"
fill="#000000" stroke="none">
<path d="M6257 12672 l-127 -127 0 -470 0 -470 -227 227 -228 227 -140 2 -140
1 -3 -138 -3 -138 251 -251 250 -251 0 -447 c0 -246 -3 -447 -8 -447 -4 0 -52
45 -107 100 l-100 100 -142 0 -143 0 0 -138 0 -137 250 -250 250 -250 -2 -720
-3 -719 -225 -133 c-124 -73 -229 -132 -235 -133 -5 0 -238 228 -517 507
l-508 508 0 350 0 350 -93 93 c-51 50 -97 92 -102 92 -6 0 -52 -42 -103 -93
l-92 -92 0 -148 c0 -81 -3 -147 -8 -147 -4 0 -150 143 -325 318 l-317 317 0
350 0 350 -93 93 c-51 50 -97 92 -102 92 -6 0 -52 -42 -103 -93 l-92 -92 0
-325 0 -325 -328 328 -327 327 -193 0 -192 0 0 -192 0 -193 327 -327 328 -328
-325 0 -325 0 -93 -93 c-50 -51 -92 -97 -92 -102 0 -6 42 -52 93 -103 l92 -92
350 0 350 0 318 -318 c174 -174 317 -320 317 -325 0 -4 -66 -7 -148 -7 l-147
0 -93 -93 c-50 -51 -92 -97 -92 -102 0 -6 42 -52 93 -103 l92 -92 350 0 350 0
508 -508 c279 -279 507 -512 506 -517 0 -6 -60 -111 -132 -235 l-133 -225
-719 -3 -720 -2 -250 250 -250 250 -137 0 -138 0 0 -143 0 -142 100 -100 c55
-55 100 -103 100 -107 0 -5 -201 -8 -447 -8 l-447 0 -251 250 -251 251 -138
-3 -138 -3 1 -140 2 -140 227 -227 227 -228 -468 0 -468 0 -130 -127 c-71 -70
-129 -134 -129 -143 0 -9 58 -73 129 -143 l130 -127 468 0 468 0 -227 -227
-227 -228 -2 -140 -1 -140 138 -3 138 -3 251 251 251 250 447 0 c246 0 447 -3
447 -8 0 -4 -45 -52 -100 -107 l-100 -100 0 -142 0 -143 138 0 137 0 250 250
250 250 720 -2 719 -3 133 -225 c72 -124 132 -230 132 -235 1 -6 -227 -238
-507 -518 l-507 -507 -350 0 -350 0 -93 -93 c-50 -51 -92 -97 -92 -102 0 -6
42 -52 93 -103 l92 -92 148 0 c81 0 147 -3 147 -8 0 -4 -143 -150 -318 -325
l-317 -317 -350 0 -350 0 -93 -93 c-50 -51 -92 -97 -92 -102 0 -6 42 -52 93
-103 l92 -92 325 0 325 0 -328 -328 -327 -327 0 -193 0 -192 192 0 193 0 327
327 328 328 0 -325 0 -325 93 -93 c51 -50 97 -92 102 -92 6 0 52 42 103 93
l92 92 0 350 0 350 318 318 c174 174 320 317 325 317 4 0 7 -66 7 -148 l0
-147 93 -93 c51 -50 97 -92 102 -92 6 0 52 42 103 93 l92 92 0 350 0 350 508
508 c279 279 512 507 517 507 6 -1 111 -60 235 -133 l225 -133 3 -719 2 -720
-250 -250 -250 -250 0 -137 0 -138 143 0 142 0 100 100 c55 55 103 100 107
100 5 0 8 -201 8 -447 l0 -447 -250 -251 -251 -251 3 -138 3 -138 140 1 140 2
228 227 227 227 0 -471 0 -470 128 -127 c71 -70 135 -127 142 -127 7 0 71 57
142 127 l128 127 0 470 0 471 228 -227 227 -227 140 -2 140 -1 3 138 3 138
-251 251 -250 251 0 447 c0 246 3 447 8 447 4 0 52 -45 107 -100 l100 -100
142 0 143 0 0 138 0 137 -250 250 -250 250 2 720 3 719 225 133 c124 73 229
132 235 133 5 0 238 -228 517 -507 l508 -508 0 -350 0 -350 93 -93 c51 -50 97
-92 102 -92 6 0 52 42 103 93 l92 92 0 148 c0 81 3 147 8 147 4 0 150 -143
325 -318 l317 -317 0 -350 0 -350 93 -93 c51 -50 97 -92 102 -92 6 0 52 42
103 93 l92 92 0 325 0 325 328 -328 327 -327 193 0 192 0 0 192 0 193 -327
327 -328 328 325 0 325 0 93 93 c50 51 92 97 92 102 0 6 -42 52 -93 103 l-92
92 -350 0 -350 0 -318 318 c-174 174 -317 320 -317 325 0 4 66 7 148 7 l147 0
93 93 c50 51 92 97 92 102 0 6 -42 52 -93 103 l-92 92 -350 0 -350 0 -507 507
c-280 280 -508 512 -507 518 0 5 60 111 132 235 l133 225 719 3 720 2 250
-250 250 -250 137 0 138 0 0 143 0 142 -100 100 c-55 55 -100 103 -100 107 0
5 201 8 447 8 l447 0 251 -250 251 -251 138 3 138 3 -1 140 -2 140 -227 228
-227 227 470 0 470 0 128 128 c70 70 127 134 127 142 0 9 -57 73 -128 143
l-127 127 -470 0 -470 0 227 228 227 227 2 140 1 140 -138 3 -138 3 -251 -251
-251 -250 -447 0 c-246 0 -447 3 -447 8 0 4 45 52 100 107 l100 100 0 142 0
143 -138 0 -137 0 -250 -250 -250 -250 -720 2 -719 3 -133 225 c-72 124 -132
230 -132 235 -1 6 227 238 507 518 l507 507 350 0 350 0 93 93 c50 51 92 97
92 102 0 6 -42 52 -93 103 l-92 92 -148 0 c-81 0 -147 3 -147 8 0 4 143 150
318 325 l317 317 350 0 350 0 93 93 c50 51 92 97 92 102 0 6 -42 52 -93 103
l-92 92 -325 0 -325 0 328 328 327 327 0 193 0 192 -192 0 -193 0 -327 -327
-328 -328 0 325 0 325 -93 93 c-51 50 -97 92 -102 92 -6 0 -52 -42 -103 -93
l-92 -92 0 -350 0 -350 -318 -318 c-174 -174 -320 -317 -325 -317 -4 0 -7 66
-7 148 l0 147 -93 93 c-51 50 -97 92 -102 92 -6 0 -52 -42 -103 -93 l-92 -92
0 -350 0 -350 -508 -508 c-279 -279 -512 -507 -517 -507 -6 1 -111 60 -235
133 l-225 133 -3 719 -2 720 250 250 250 250 0 137 0 138 -143 0 -142 0 -100
-100 c-55 -55 -103 -100 -107 -100 -5 0 -8 201 -8 447 l0 447 250 251 251 251
-3 138 -3 138 -140 -1 -140 -2 -227 -227 -228 -227 0 471 0 470 -128 127 c-71
70 -135 127 -143 127 -8 0 -71 -58 -142 -128z"/>
</g>
</svg>
