<?xml version="1.0" standalone="no"?>
<!DOCTYPE svg PUBLIC "-//W3C//DTD SVG 20010904//EN"
 "http://www.w3.org/TR/2001/REC-SVG-20010904/DTD/svg10.dtd">
<svg version="1.0" xmlns="http://www.w3.org/2000/svg"
 width="1280.000000pt" height="1192.000000pt" viewBox="0 0 1280.000000 1192.000000"
 preserveAspectRatio="xMidYMid meet">
<metadata>
Created by potrace 1.15, written by Peter Selinger 2001-2017
</metadata>
<g transform="translate(0.000000,1192.000000) scale(0.100000,-0.100000)"
fill="#000000" stroke="none">
<path d="M810 11914 c-14 -2 -59 -9 -100 -15 -286 -42 -517 -194 -634 -418
-57 -110 -71 -169 -70 -316 0 -254 50 -409 331 -1025 122 -267 254 -619 322
-860 73 -262 104 -445 120 -730 7 -118 16 -169 45 -274 35 -124 36 -135 38
-320 l3 -191 42 -95 c23 -52 64 -176 93 -275 61 -218 79 -265 136 -375 131
-255 346 -395 707 -460 134 -24 491 -45 632 -36 61 4 96 3 90 -3 -6 -5 -66
-31 -135 -56 -247 -94 -372 -170 -466 -283 -60 -72 -66 -84 -227 -387 -169
-320 -198 -440 -162 -665 37 -232 31 -299 -43 -447 -64 -128 -85 -195 -80
-255 5 -52 7 -55 107 -150 109 -103 158 -134 197 -124 19 5 31 0 50 -21 26
-28 26 -30 19 -128 -12 -163 -13 -160 77 -206 74 -37 92 -69 86 -154 -5 -75
-39 -148 -107 -229 -114 -134 -84 -250 112 -436 283 -268 329 -326 383 -485
22 -66 28 -103 32 -207 7 -190 -24 -359 -117 -645 -53 -161 -89 -238 -214
-450 -146 -250 -161 -277 -200 -373 -101 -244 -86 -436 47 -630 148 -217 289
-226 376 -25 47 108 86 281 120 525 11 85 27 205 36 265 42 306 206 581 430
721 111 69 172 88 289 87 99 0 139 -7 345 -63 41 -11 122 -24 180 -29 70 -6
146 -21 230 -46 171 -50 237 -50 380 -1 58 20 138 41 177 46 128 17 199 70
330 247 66 90 100 125 170 178 122 92 209 179 237 239 19 39 26 75 31 151 16
266 56 477 195 1035 153 610 259 995 389 1405 23 72 60 200 82 285 56 213 106
376 129 419 l19 36 1 -130 c0 -157 16 -479 30 -630 39 -411 114 -651 219 -704
31 -16 41 -17 78 -6 114 34 169 102 217 267 35 122 46 235 56 593 7 253 14
343 30 425 11 58 20 118 20 134 0 30 0 30 50 -25 85 -91 117 -187 160 -479 11
-80 25 -170 31 -200 18 -88 138 -531 267 -985 110 -384 194 -694 227 -835 15
-64 29 -177 50 -423 24 -267 56 -368 143 -453 21 -20 94 -64 166 -101 150 -74
219 -122 234 -160 6 -16 13 -56 15 -91 3 -34 12 -73 21 -86 16 -25 222 -144
297 -172 71 -27 226 -20 493 22 127 19 292 39 366 44 94 6 173 19 260 41 160
40 286 48 361 24 115 -38 205 -111 282 -231 111 -172 169 -389 182 -679 12
-281 36 -518 64 -638 26 -110 133 -187 259 -187 55 0 154 33 208 71 115 79
159 182 159 369 -1 241 -81 444 -356 910 -203 342 -231 404 -271 585 -32 142
-31 393 1 545 33 156 58 234 83 257 13 12 62 39 109 61 89 41 126 75 136 125
6 29 17 39 140 129 133 98 147 141 88 265 -20 43 -47 107 -60 143 -13 36 -35
96 -49 133 -28 74 -34 162 -13 190 6 9 37 27 68 41 87 38 89 42 89 156 0 151
21 184 123 195 87 10 125 28 133 62 4 15 24 47 45 69 63 70 62 148 -3 278 -19
38 -34 86 -39 131 -5 39 -25 109 -45 158 -49 123 -49 168 1 283 36 81 40 97
39 174 0 104 -16 147 -116 321 -106 184 -126 234 -138 340 -8 67 -18 106 -38
142 -58 107 -191 188 -457 280 -203 70 -277 98 -290 109 -6 6 49 7 135 3 167
-8 464 7 595 30 271 47 512 178 704 380 117 124 159 220 191 435 18 121 50
248 82 324 57 138 100 428 118 801 14 304 38 468 104 718 70 266 204 632 339
927 211 463 274 626 313 810 25 116 25 322 0 405 -80 267 -316 462 -636 524
-162 32 -435 30 -660 -4 -623 -94 -1514 -452 -2070 -833 -946 -648 -1684
-1478 -2140 -2407 -124 -254 -175 -380 -283 -705 -91 -275 -165 -470 -178
-470 -4 0 -9 12 -12 28 -2 15 -18 80 -36 145 -18 69 -31 143 -31 177 0 97 -20
204 -49 261 l-28 54 75 150 c41 83 105 197 142 255 136 213 210 348 391 711
149 299 167 330 345 609 125 197 176 293 258 495 90 218 108 254 207 407 131
202 206 377 216 503 7 95 10 102 43 109 27 5 36 16 70 91 82 176 98 260 59
309 -26 33 -39 33 -74 -1 -51 -50 -118 -209 -250 -588 -34 -99 -75 -209 -90
-245 -34 -80 -209 -431 -365 -730 -64 -124 -163 -321 -220 -439 -57 -118 -133
-264 -168 -325 -116 -201 -257 -457 -397 -725 -133 -254 -198 -358 -291 -468
l-44 -52 -38 16 c-26 12 -68 17 -140 17 l-103 1 -46 75 c-70 116 -134 215
-316 482 -92 137 -204 310 -249 385 -45 76 -113 188 -152 248 -38 61 -98 174
-132 252 -35 79 -76 169 -93 200 -17 32 -51 110 -75 175 -46 118 -138 309
-226 469 -102 182 -184 356 -245 518 -34 91 -93 238 -130 326 -154 366 -229
474 -279 403 -33 -46 -15 -134 59 -294 39 -84 47 -95 75 -100 33 -7 36 -15 43
-101 3 -38 19 -83 60 -165 31 -62 99 -214 152 -338 180 -421 285 -616 417
-772 54 -64 82 -108 102 -160 73 -187 208 -436 373 -687 108 -164 123 -193
248 -467 105 -231 198 -406 255 -482 l40 -53 -34 -72 c-40 -85 -48 -121 -76
-336 -11 -90 -25 -184 -32 -209 l-11 -46 -20 44 c-10 25 -70 196 -132 380 -62
184 -124 364 -138 400 -370 956 -1096 1845 -2122 2599 -316 232 -622 410
-1000 582 -533 242 -1033 391 -1435 428 -109 10 -295 13 -350 5z m2670 -1425
c261 -140 493 -338 608 -519 109 -171 136 -203 325 -390 120 -118 239 -246
302 -325 113 -143 176 -206 257 -258 103 -67 159 -150 368 -552 102 -195 255
-450 435 -720 83 -126 164 -248 178 -271 l25 -41 -25 -71 c-29 -82 -39 -87
-142 -77 -109 11 -179 31 -326 93 -126 53 -241 90 -249 81 -2 -2 -6 -13 -10
-24 -5 -17 2 -23 42 -37 150 -54 351 -230 438 -383 l33 -60 -57 -6 c-31 -4
-176 -7 -322 -8 -679 -3 -1157 -38 -1660 -121 -300 -50 -441 -64 -560 -56
-275 19 -634 143 -773 267 -46 40 -55 54 -46 65 20 25 112 61 234 94 66 18
148 45 181 60 97 44 270 146 379 224 l100 71 -75 8 c-107 10 -173 1 -328 -45
l-137 -41 -207 -4 c-115 -3 -208 -1 -207 3 0 13 118 111 207 173 42 29 136 82
207 117 245 119 503 170 888 175 86 2 157 6 157 11 0 9 -94 84 -130 103 -50
26 -189 66 -297 86 -69 13 -173 22 -288 26 -164 5 -200 2 -405 -26 -296 -40
-560 -66 -544 -52 20 17 358 173 474 219 289 115 486 162 674 162 107 0 114 1
119 21 6 23 -26 40 -160 82 -162 51 -473 107 -598 107 -23 0 -57 3 -75 6 l-32
7 38 24 c82 51 220 116 308 144 71 24 116 32 204 36 66 4 108 9 100 14 -7 5
54 9 140 9 83 0 152 3 152 8 -1 14 -74 62 -113 74 -47 14 -113 0 -169 -38
l-38 -24 -43 33 c-65 50 -149 70 -293 71 l-120 1 84 51 c101 62 103 64 96 91
-5 19 -11 20 -64 16 -32 -3 -80 0 -107 6 -56 14 -133 49 -133 61 0 4 51 29
113 55 61 26 130 58 152 71 41 23 41 23 53 3 25 -40 71 -49 238 -49 87 0 154
3 150 7 -3 4 -93 24 -199 45 -124 24 -196 43 -203 53 -8 11 -32 15 -95 15
l-84 0 45 28 c63 39 157 79 218 93 29 7 52 15 52 18 -1 19 -147 87 -282 133
-87 29 -158 56 -158 59 0 4 24 17 53 30 50 23 60 24 309 24 l258 -1 -32 34
c-41 42 -132 87 -206 103 -38 8 -124 10 -262 7 l-204 -5 39 34 c58 50 185 109
300 140 93 25 112 26 260 23 88 -2 211 -4 273 -4 112 -1 114 -1 138 27 49 58
27 149 -73 299 -27 40 -53 79 -57 86 -9 15 79 -23 184 -79z m5998 -6 c-64 -70
-119 -178 -121 -237 -2 -65 13 -70 191 -76 l157 -5 -70 -40 -70 -40 225 -6
c246 -7 321 -19 447 -69 42 -17 82 -34 90 -39 9 -4 -50 -11 -139 -14 -84 -4
-182 -11 -218 -17 -70 -11 -228 -58 -235 -69 -2 -4 -2 -17 1 -28 5 -17 16 -21
78 -26 40 -4 131 -20 203 -37 71 -16 154 -33 184 -38 l54 -8 -141 -47 c-179
-60 -283 -104 -264 -111 8 -3 41 -10 72 -16 43 -9 76 -25 133 -67 l76 -55 -53
-32 c-29 -17 -78 -48 -108 -69 l-55 -37 96 1 c106 1 176 -20 220 -67 21 -22
21 -24 3 -29 -10 -3 -43 -18 -73 -32 -29 -15 -71 -27 -92 -27 -21 -1 -43 -6
-50 -13 -19 -19 59 -99 154 -160 l82 -53 -257 0 c-170 0 -258 -4 -260 -10 -2
-7 -22 -3 -51 10 -61 27 -154 29 -224 6 -29 -10 -55 -22 -58 -27 -4 -5 61 -9
159 -9 91 0 166 -4 166 -9 0 -15 51 -30 182 -56 131 -25 171 -41 295 -118 l73
-44 -88 -7 c-109 -9 -314 -47 -457 -85 -134 -35 -309 -101 -298 -112 4 -4 34
-23 66 -42 75 -46 177 -72 371 -97 241 -30 285 -45 599 -203 152 -77 275 -142
273 -144 -2 -3 -58 12 -123 31 -65 20 -152 40 -193 45 -92 12 -848 4 -985 -10
-109 -11 -144 -18 -248 -51 -62 -20 -68 -24 -65 -47 l3 -26 165 -7 c484 -20
850 -143 1162 -392 42 -33 77 -65 78 -70 0 -5 -97 -6 -217 -3 -211 5 -222 6
-358 42 -106 28 -167 38 -254 42 l-115 6 55 -63 c145 -167 438 -327 720 -392
54 -13 99 -26 99 -30 0 -18 -159 -140 -231 -178 -273 -142 -559 -161 -1109
-74 -680 107 -763 114 -1477 123 -298 3 -544 9 -548 13 -13 13 80 172 135 228
36 37 97 82 175 128 157 93 169 103 160 131 -10 31 -26 26 -235 -74 -208 -99
-314 -137 -392 -138 -52 -2 -61 1 -89 30 -25 24 -33 42 -37 82 -5 58 -31 13
330 576 317 495 328 510 461 705 259 377 544 747 702 910 216 223 287 305 362
417 42 64 99 135 131 164 137 122 343 264 507 346 151 77 206 92 163 46z
m-3708 -3714 c0 -70 -93 -149 -208 -177 -64 -15 -72 -20 -72 -40 0 -23 1 -23
68 -16 37 4 94 7 126 7 58 0 60 -1 105 -49 229 -247 263 -301 283 -447 l11
-85 -90 -139 c-229 -350 -295 -496 -378 -838 -94 -385 -130 -606 -145 -877 -6
-101 -15 -208 -21 -238 -30 -146 -114 -371 -214 -572 -89 -178 -157 -273 -218
-304 -28 -15 -31 -14 -49 4 -33 32 -49 116 -55 280 -5 117 -9 152 -19 154 -8
0 -18 1 -23 2 -6 1 -35 -50 -65 -112 -85 -172 -167 -282 -212 -282 -8 0 -25
24 -38 53 l-23 52 -17 -39 c-9 -21 -16 -42 -16 -47 0 -24 -23 -3 -61 54 -51
76 -95 124 -131 143 -39 20 -107 17 -145 -6 l-33 -20 0 21 c0 12 19 112 42
223 32 158 42 224 42 308 1 58 -2 110 -7 114 -12 12 -353 -224 -439 -305 -77
-72 -78 -73 -78 -43 0 35 39 150 104 308 66 159 86 266 70 366 l-7 38 -54 -50
c-30 -28 -59 -50 -63 -50 -5 0 -24 33 -43 74 -35 73 -65 106 -99 106 -21 0
-33 -21 -42 -73 -6 -35 -13 -41 -59 -62 -99 -44 -98 -45 -55 42 21 43 61 143
88 223 59 170 94 246 144 315 l36 50 -47 7 c-88 14 -189 -9 -306 -70 -95 -49
-180 -115 -373 -287 -172 -154 -306 -266 -312 -260 -2 2 20 32 50 67 71 84
155 202 273 382 l98 150 -31 26 -32 26 74 52 c149 103 175 194 68 239 -33 14
-236 30 -407 33 -42 1 -56 4 -45 11 8 5 76 45 151 90 242 143 414 283 485 395
54 84 47 94 -64 94 -37 0 -105 3 -151 7 l-83 6 123 43 c156 54 248 101 323
161 l58 48 -78 5 -79 5 70 27 c142 55 307 88 433 88 l76 0 -43 44 c-54 55
-126 87 -211 94 l-65 5 80 27 c139 47 208 94 220 152 9 41 -27 110 -83 157
l-45 39 59 7 c32 3 185 21 339 40 345 43 294 41 973 43 l562 2 0 -21z m2785
-4 c154 -20 292 -54 375 -91 l60 -27 -30 -18 c-67 -41 -89 -132 -51 -214 28
-62 53 -79 103 -72 24 4 55 9 70 13 23 5 27 3 30 -22 2 -21 16 -39 51 -64 l47
-35 -157 -5 -158 -5 45 -36 c25 -20 70 -49 100 -64 54 -27 261 -85 305 -85 46
0 34 -18 -45 -70 -44 -29 -80 -53 -80 -54 0 -1 49 0 110 2 79 3 131 -1 187
-13 85 -19 258 -77 311 -104 l34 -17 -90 4 c-106 5 -219 -15 -334 -60 -43 -16
-78 -32 -78 -35 0 -3 16 -27 35 -53 45 -61 115 -107 235 -154 133 -53 159 -68
237 -134 93 -79 148 -116 256 -169 51 -24 81 -42 66 -39 -75 16 -247 37 -339
43 -222 12 -325 -42 -273 -143 23 -46 110 -119 196 -166 l62 -33 -68 -5 -68
-5 120 -182 c104 -158 195 -284 298 -412 27 -34 26 -33 -47 16 -41 28 -136 98
-211 155 -75 56 -210 145 -300 197 -90 51 -188 112 -217 135 -124 96 -132 101
-150 90 -53 -33 4 -228 123 -424 67 -109 175 -297 175 -304 0 -7 -72 36 -249
151 l-144 94 7 -33 c4 -18 10 -53 13 -78 6 -53 -6 -67 -78 -94 -60 -22 -87
-52 -97 -107 -14 -81 2 -143 72 -283 71 -141 96 -204 96 -243 0 -22 -11 -14
-97 64 -168 154 -406 333 -421 318 -4 -4 -7 -55 -6 -113 0 -85 10 -150 43
-311 23 -112 41 -210 39 -217 -2 -9 -16 -5 -47 16 -47 32 -79 37 -114 18 -41
-21 -50 -40 -107 -225 -32 -103 -43 -120 -55 -84 -6 21 -40 37 -65 32 -8 -2
-29 -16 -48 -32 -39 -35 -52 -36 -79 -6 -31 33 -50 76 -69 153 -24 97 -55 155
-111 204 -85 75 -80 83 -79 -118 1 -160 -1 -184 -23 -249 l-23 -72 -29 58
c-16 32 -64 96 -108 144 -90 99 -111 137 -111 201 0 40 -3 46 -20 46 -15 0
-26 13 -41 48 -77 175 -138 413 -199 780 -41 243 -74 408 -116 577 -128 510
-246 824 -418 1109 l-65 108 9 74 c13 105 37 190 72 259 106 211 239 274 404
191 50 -26 72 -32 81 -24 7 6 13 14 13 18 0 5 -36 34 -81 65 -146 103 -189
151 -189 216 l0 31 688 -5 c568 -4 710 -8 817 -22z"/>
</g>
</svg>
