<?xml version="1.0" standalone="no"?>
<!DOCTYPE svg PUBLIC "-//W3C//DTD SVG 20010904//EN"
 "http://www.w3.org/TR/2001/REC-SVG-20010904/DTD/svg10.dtd">
<svg version="1.0" xmlns="http://www.w3.org/2000/svg"
 width="1280.000000pt" height="1280.000000pt" viewBox="0 0 1280.000000 1280.000000"
 preserveAspectRatio="xMidYMid meet">
<metadata>
Created by potrace 1.15, written by Peter Selinger 2001-2017
</metadata>
<g transform="translate(0.000000,1280.000000) scale(0.100000,-0.100000)"
fill="#000000" stroke="none">
<path d="M6186 12365 c-3 -8 -17 -15 -30 -15 -14 0 -35 -4 -48 -9 -13 -5 -50
-17 -83 -26 -66 -20 -88 -27 -125 -43 -80 -35 -108 -38 -197 -26 -109 16 -459
18 -539 3 -60 -10 -125 -30 -134 -39 -3 -3 -36 -16 -75 -29 -38 -13 -74 -27
-80 -31 -5 -5 -55 -34 -110 -65 -55 -32 -116 -69 -135 -84 -32 -24 -45 -27
-170 -33 -130 -6 -196 -15 -270 -36 -19 -6 -53 -16 -75 -22 -83 -24 -162 -55
-208 -82 -26 -15 -50 -28 -53 -28 -16 0 -205 -152 -284 -229 -69 -66 -104 -94
-128 -98 -18 -3 -35 -10 -38 -14 -3 -5 -15 -9 -27 -9 -12 0 -60 -14 -107 -31
-47 -17 -89 -32 -95 -33 -43 -12 -193 -87 -265 -134 -54 -36 -300 -277 -300
-295 0 -5 -13 -26 -28 -46 -16 -20 -45 -63 -65 -96 -34 -58 -41 -63 -142 -113
-58 -30 -133 -72 -167 -95 -33 -23 -76 -52 -95 -65 -55 -37 -195 -182 -241
-250 -23 -34 -42 -64 -42 -67 0 -2 -17 -32 -37 -67 -37 -63 -116 -247 -128
-297 -4 -16 -22 -36 -50 -54 -72 -46 -262 -227 -304 -290 -31 -48 -56 -82 -61
-87 -18 -17 -59 -93 -75 -137 -11 -29 -23 -53 -27 -53 -4 0 -8 -11 -8 -24 0
-14 -5 -28 -10 -31 -6 -4 -10 -12 -9 -18 1 -7 -1 -19 -4 -27 -10 -23 -28 -100
-34 -140 -2 -19 -8 -44 -13 -55 -7 -17 -12 -47 -24 -140 -2 -17 -66 -106 -141
-198 -8 -9 -15 -21 -15 -26 0 -4 -9 -16 -20 -26 -11 -10 -20 -24 -20 -32 0 -7
-3 -13 -8 -13 -4 0 -13 -15 -21 -32 -8 -18 -17 -35 -20 -38 -9 -7 -61 -114
-61 -124 0 -4 -6 -22 -14 -39 -18 -39 -36 -116 -43 -177 -3 -25 -9 -49 -14
-54 -5 -6 -9 -107 -9 -225 0 -204 -1 -218 -22 -261 -13 -25 -26 -47 -29 -50
-5 -5 -42 -81 -62 -130 -5 -14 -9 -33 -8 -42 1 -10 -3 -18 -8 -18 -6 0 -11 -9
-11 -19 0 -11 -4 -22 -9 -25 -5 -3 -12 -25 -15 -50 -4 -24 -13 -52 -21 -62
-21 -28 -22 -500 -1 -530 8 -11 17 -42 21 -69 6 -47 15 -76 36 -117 12 -24 11
-88 -1 -88 -5 0 -10 -11 -10 -24 0 -14 -4 -27 -9 -30 -4 -3 -11 -29 -15 -57
-4 -29 -14 -65 -22 -80 -21 -41 -20 -505 1 -533 8 -10 17 -38 21 -62 3 -25 10
-47 15 -50 5 -3 9 -14 9 -25 0 -10 5 -19 11 -19 6 0 9 -7 6 -15 -4 -8 -2 -17
3 -20 6 -4 10 -13 10 -20 0 -14 49 -126 60 -135 3 -3 15 -25 28 -50 21 -43 22
-57 22 -261 0 -118 4 -219 9 -225 5 -5 11 -29 14 -54 7 -59 25 -140 37 -162 6
-10 10 -23 10 -29 0 -15 58 -134 89 -184 15 -22 31 -48 36 -56 18 -30 98 -144
104 -149 25 -22 85 -107 87 -124 2 -11 6 -47 10 -79 4 -31 10 -60 15 -63 5 -3
9 -23 9 -44 0 -21 4 -41 9 -44 4 -3 11 -28 15 -55 4 -28 11 -53 15 -56 5 -3 7
-14 4 -25 -3 -11 0 -20 6 -20 6 0 11 -7 11 -15 0 -8 5 -23 10 -33 6 -9 19 -37
30 -62 31 -70 72 -140 125 -208 33 -45 139 -155 190 -199 118 -103 130 -113
147 -119 10 -3 21 -17 24 -32 3 -15 9 -36 14 -47 7 -18 21 -52 25 -65 17 -49
66 -152 80 -170 7 -8 16 -26 20 -39 4 -14 11 -29 16 -35 5 -6 21 -29 36 -51
71 -107 89 -129 161 -195 42 -39 99 -86 127 -104 91 -60 214 -136 221 -136 4
0 31 -12 60 -26 44 -21 60 -37 94 -92 92 -150 215 -291 353 -406 60 -49 255
-155 299 -160 3 -1 10 -4 14 -8 4 -5 17 -8 29 -8 11 0 25 -4 30 -9 14 -11 109
-41 134 -41 11 0 23 -4 26 -10 3 -5 18 -10 33 -10 21 0 45 -18 97 -71 80 -81
233 -207 291 -239 21 -12 41 -25 44 -29 9 -12 136 -71 153 -71 8 0 18 -4 22
-9 3 -6 26 -13 50 -17 25 -3 48 -10 51 -15 3 -5 18 -9 33 -9 15 0 31 -4 36 -9
14 -12 85 -21 245 -29 l135 -7 60 -42 c33 -22 86 -55 117 -72 82 -44 102 -55
108 -61 3 -3 25 -12 50 -20 25 -7 49 -17 55 -22 5 -4 17 -8 27 -8 10 0 18 -4
18 -10 0 -5 10 -10 23 -10 13 0 27 -4 32 -9 34 -31 420 -42 607 -17 99 13 125
10 206 -24 56 -24 71 -29 127 -45 33 -9 70 -21 83 -26 13 -5 34 -9 48 -9 13 0
27 -7 30 -15 9 -22 419 -22 428 0 3 9 18 15 36 15 17 0 38 4 48 9 9 5 44 17
77 26 66 20 88 27 125 43 80 35 108 38 197 26 109 -16 459 -18 539 -3 60 10
125 30 134 39 3 3 37 16 75 29 39 13 81 32 95 41 14 10 51 32 83 49 55 29 104
60 156 98 19 14 54 19 160 25 132 6 198 15 271 37 19 5 55 15 80 21 25 7 59
18 77 26 17 8 36 14 42 14 9 0 30 11 126 64 65 37 224 163 305 242 72 71 101
94 122 94 15 0 30 5 33 10 3 6 16 10 27 10 18 0 135 36 188 57 8 4 17 7 20 8
44 15 111 46 120 55 3 3 36 20 74 39 132 65 335 276 455 471 36 58 48 69 103
95 62 28 170 92 277 164 57 37 231 199 231 213 0 5 18 33 40 62 22 29 40 58
40 64 0 5 3 12 8 14 4 1 15 19 24 38 9 19 24 46 31 60 17 30 49 101 62 140 4
12 17 47 25 65 5 11 11 31 14 45 4 15 23 36 47 51 75 47 214 180 314 302 43
51 87 123 120 197 14 30 30 63 35 72 6 10 10 25 10 33 0 8 5 15 11 15 6 0 9 9
6 20 -3 11 -1 22 3 25 4 3 11 28 15 55 4 27 11 52 16 56 5 3 9 23 9 44 0 21 4
41 9 44 5 3 11 32 15 63 4 32 8 68 10 79 2 19 45 79 99 138 9 11 17 25 17 32
0 7 3 14 8 16 9 4 63 76 78 103 20 39 39 70 44 75 10 9 70 137 70 149 0 6 4
19 10 29 12 22 30 103 37 162 3 25 9 49 14 54 5 6 9 107 9 226 l0 216 32 59
c56 107 78 155 78 169 0 8 4 17 10 21 5 3 7 12 3 20 -3 8 0 15 6 15 6 0 11 9
11 19 0 11 4 22 9 25 5 3 12 27 16 53 4 26 13 56 21 67 20 30 20 492 0 522 -8
11 -17 42 -21 69 -6 47 -15 76 -36 117 -12 23 -12 73 0 96 21 41 30 70 37 112
3 25 13 57 20 72 20 39 20 499 0 531 -8 12 -17 38 -21 57 -3 19 -10 44 -15 55
-13 30 -23 59 -24 67 -1 3 -4 10 -8 14 -5 4 -8 13 -8 21 0 13 -20 56 -79 167
l-31 60 0 216 c0 119 -4 220 -9 226 -5 5 -11 29 -14 54 -7 59 -25 140 -37 162
-6 10 -10 23 -10 29 0 17 -60 138 -92 186 -15 23 -28 46 -28 51 0 5 -9 17 -20
27 -11 10 -20 24 -20 32 0 7 -4 13 -8 13 -4 0 -16 13 -25 30 -10 16 -23 35
-30 42 -37 39 -91 113 -93 127 -2 9 -6 44 -10 79 -4 34 -11 65 -15 68 -5 3 -9
23 -9 44 0 21 -4 41 -9 44 -5 4 -12 29 -16 56 -4 27 -11 52 -15 55 -4 3 -6 14
-3 25 3 11 0 20 -6 20 -6 0 -11 7 -11 15 0 8 -4 23 -10 33 -5 9 -21 42 -35 72
-33 74 -66 128 -120 198 -62 82 -200 217 -302 295 -39 30 -63 56 -63 68 0 10
-4 27 -9 37 -8 14 -17 36 -26 62 -16 47 -67 155 -80 170 -7 8 -16 26 -20 39
-4 14 -11 29 -16 35 -5 6 -28 40 -52 76 -73 113 -206 239 -327 310 -30 18 -57
35 -60 39 -6 7 -73 44 -160 88 -50 25 -70 42 -85 70 -22 42 -23 44 -60 89 -14
18 -25 36 -25 40 0 23 -258 285 -322 329 -61 40 -235 126 -263 129 -5 1 -26 9
-45 18 -47 21 -134 48 -159 48 -11 0 -23 5 -26 10 -3 6 -18 10 -33 10 -20 0
-48 22 -117 90 -160 159 -347 284 -498 334 -26 9 -56 16 -67 16 -10 0 -21 4
-24 9 -3 5 -20 11 -38 14 -18 4 -58 11 -88 18 -30 6 -116 14 -190 18 l-135 6
-60 42 c-33 22 -87 55 -120 73 -33 18 -71 40 -85 49 -14 10 -45 23 -70 31 -25
7 -49 17 -54 22 -6 4 -18 8 -28 8 -10 0 -18 5 -18 10 0 6 -10 10 -23 10 -13 0
-27 4 -32 9 -33 31 -384 42 -602 19 -123 -13 -132 -11 -253 40 -14 6 -52 18
-85 27 -33 9 -70 21 -83 26 -13 5 -34 9 -48 9 -13 0 -27 7 -30 15 -5 13 -38
15 -214 15 -176 0 -209 -2 -214 -15z m274 -416 c19 -5 73 -19 120 -30 47 -11
103 -25 125 -30 22 -6 51 -12 65 -14 14 -2 57 -12 95 -21 87 -21 135 -22 255
-1 107 19 265 22 355 7 33 -5 92 -26 130 -45 39 -19 73 -35 77 -35 4 0 67 -29
140 -64 314 -150 272 -136 411 -136 94 0 138 -5 183 -19 32 -11 78 -22 102
-26 23 -4 42 -11 42 -16 0 -5 8 -9 18 -9 40 0 123 -53 231 -146 20 -17 68 -53
106 -79 39 -27 72 -52 75 -55 20 -27 163 -120 184 -120 14 0 27 -4 30 -9 3 -4
29 -11 58 -15 29 -4 57 -11 63 -15 5 -5 28 -12 50 -16 21 -3 51 -15 66 -26 15
-10 34 -19 43 -19 9 0 16 -4 16 -8 0 -4 9 -8 20 -9 23 -2 127 -71 157 -105 11
-12 49 -55 84 -95 35 -40 83 -94 106 -120 24 -26 51 -59 60 -73 9 -14 29 -36
43 -50 14 -14 37 -42 52 -62 25 -32 76 -68 99 -68 5 0 32 -14 61 -31 29 -18
73 -43 98 -57 112 -63 270 -204 270 -241 0 -11 3 -21 8 -23 4 -1 18 -25 32
-53 13 -27 37 -69 53 -92 15 -24 25 -43 22 -43 -4 0 2 -12 13 -27 11 -16 30
-52 43 -80 13 -29 27 -53 31 -53 5 0 8 -7 8 -15 0 -8 4 -15 8 -15 5 0 14 -17
21 -37 8 -23 27 -48 48 -63 19 -14 44 -34 56 -46 12 -11 38 -32 57 -46 51 -38
110 -97 150 -148 19 -25 38 -49 42 -55 38 -48 53 -72 55 -89 2 -11 8 -25 13
-30 6 -6 10 -18 10 -28 0 -10 5 -18 10 -18 6 0 10 -16 10 -35 0 -19 4 -35 8
-35 7 0 29 -75 36 -125 3 -23 13 -52 27 -77 5 -10 9 -24 9 -33 0 -18 27 -104
40 -127 6 -10 10 -27 10 -37 0 -11 5 -23 10 -26 6 -4 8 -11 5 -16 -4 -5 4 -19
17 -32 81 -83 189 -227 171 -227 -5 0 -3 -4 2 -8 6 -4 19 -25 30 -47 11 -22
22 -42 25 -45 24 -24 47 -94 49 -150 1 -35 5 -69 8 -74 3 -5 10 -56 15 -113
11 -141 26 -298 33 -356 3 -28 23 -82 50 -133 25 -47 45 -91 45 -99 0 -8 5
-15 10 -15 6 0 10 -8 10 -18 0 -10 4 -22 9 -27 5 -6 12 -23 15 -40 12 -62 19
-90 26 -100 4 -5 13 -37 20 -69 13 -53 12 -76 -8 -225 -13 -91 -28 -196 -34
-233 -6 -36 -8 -75 -5 -87 3 -12 2 -23 -1 -25 -13 -8 -5 -157 10 -196 24 -63
51 -223 55 -327 5 -101 3 -130 -13 -175 -10 -29 -22 -57 -26 -62 -4 -6 -8 -20
-8 -31 0 -12 -3 -25 -7 -29 -5 -4 -8 -11 -8 -14 -1 -13 -48 -147 -55 -157 -4
-5 -17 -44 -29 -85 -12 -41 -28 -84 -34 -95 -6 -13 -11 -98 -12 -230 -1 -181
-4 -222 -23 -295 -21 -82 -76 -211 -94 -218 -4 -2 -8 -8 -8 -14 0 -5 -10 -24
-22 -41 -13 -18 -23 -34 -23 -37 0 -3 -15 -26 -33 -52 -17 -26 -32 -51 -32
-57 0 -6 -4 -11 -9 -11 -5 0 -15 -16 -21 -35 -6 -19 -16 -35 -21 -35 -5 0 -9
-5 -9 -12 0 -6 -10 -25 -23 -42 -36 -50 -45 -76 -56 -161 -5 -44 -14 -98 -21
-120 -6 -22 -15 -58 -21 -80 -5 -22 -13 -49 -18 -60 -14 -31 -24 -59 -25 -70
-1 -12 -47 -108 -55 -115 -4 -3 -19 -21 -35 -40 -27 -32 -183 -201 -333 -357
-46 -49 -64 -76 -72 -112 -7 -25 -20 -64 -30 -86 -11 -22 -31 -65 -45 -95 -30
-64 -66 -127 -84 -149 -7 -9 -29 -37 -48 -64 -29 -39 -95 -93 -198 -160 -10
-6 -39 -27 -63 -44 -24 -18 -46 -33 -49 -33 -4 0 -28 -18 -54 -40 -26 -22 -51
-40 -55 -40 -11 0 -92 -59 -119 -87 -11 -11 -30 -38 -41 -60 -11 -21 -22 -40
-25 -43 -3 -3 -14 -18 -23 -33 -29 -45 -46 -65 -151 -174 -94 -97 -117 -114
-221 -158 -22 -9 -58 -26 -81 -37 -22 -10 -47 -21 -55 -22 -24 -5 -135 -52
-181 -77 -10 -5 -23 -9 -30 -9 -30 0 -117 -56 -168 -109 -59 -60 -162 -150
-188 -165 -10 -5 -21 -15 -25 -23 -5 -7 -12 -11 -16 -8 -5 2 -14 -2 -21 -10
-7 -8 -19 -15 -26 -15 -8 0 -14 -4 -14 -10 0 -5 -5 -10 -10 -10 -6 0 -28 -11
-50 -25 -24 -15 -62 -27 -97 -31 -32 -4 -62 -10 -68 -14 -5 -4 -30 -10 -55
-13 -25 -3 -81 -13 -125 -22 -44 -9 -98 -19 -120 -22 -22 -3 -44 -9 -50 -14
-5 -5 -23 -9 -40 -9 -43 0 -98 -17 -121 -37 -25 -22 -51 -39 -84 -55 -14 -7
-27 -15 -30 -18 -3 -3 -18 -12 -35 -20 -16 -8 -32 -18 -35 -21 -7 -9 -97 -49
-110 -49 -12 0 -70 -23 -105 -43 -14 -7 -131 -10 -362 -8 -189 1 -343 -2 -343
-6 0 -7 -51 -28 -87 -36 -7 -2 -16 -6 -19 -10 -4 -4 -18 -7 -30 -7 -13 0 -26
-4 -29 -10 -3 -5 -16 -10 -29 -10 -12 0 -26 -4 -31 -9 -19 -18 -141 -34 -255
-35 -109 0 -243 23 -315 54 -19 8 -60 17 -117 24 -39 6 -129 27 -156 37 -27
11 -96 12 -105 2 -4 -3 -17 -7 -29 -9 -13 -1 -52 -7 -88 -13 -84 -14 -264 -14
-332 0 -29 6 -84 25 -123 43 -38 18 -104 48 -145 66 -41 19 -87 42 -102 52
-14 10 -32 18 -38 18 -7 0 -29 9 -49 19 -136 71 -151 76 -281 83 -139 7 -210
16 -225 28 -5 4 -34 11 -62 15 -29 4 -53 11 -53 16 0 5 -8 9 -18 9 -30 0 -130
56 -162 90 -3 3 -25 21 -50 40 -25 19 -47 37 -50 41 -3 4 -21 17 -40 30 -19
13 -88 63 -152 112 -75 56 -125 87 -141 87 -14 0 -28 4 -31 9 -3 5 -30 12 -61
16 -30 3 -57 10 -60 15 -3 4 -21 11 -41 15 -34 6 -72 22 -84 36 -7 7 -41 21
-64 26 -10 2 -31 12 -46 23 -16 11 -33 20 -39 20 -6 0 -11 5 -11 10 0 6 -6 10
-14 10 -13 0 -59 49 -212 226 -28 32 -64 75 -80 94 -16 19 -31 37 -34 40 -3 3
-27 31 -54 63 -38 45 -65 65 -125 93 -42 20 -95 49 -118 65 -23 16 -45 29 -49
29 -10 0 -103 68 -164 120 -43 38 -66 69 -105 146 -28 54 -56 105 -63 112 -7
8 -23 35 -34 61 -12 25 -26 49 -31 52 -5 3 -8 9 -7 13 2 10 -43 96 -50 96 -3
0 -12 16 -20 35 -8 19 -18 35 -24 35 -5 0 -6 3 -3 6 11 12 -16 40 -118 121
-107 85 -154 133 -237 244 -29 39 -60 103 -79 164 -6 22 -15 49 -20 60 -11 27
-33 107 -34 125 -1 17 -12 46 -26 72 -5 10 -9 24 -9 33 0 18 -27 104 -40 127
-6 10 -10 27 -10 37 0 11 -5 23 -10 26 -6 4 -8 10 -5 15 3 5 -17 33 -44 62
-73 79 -160 198 -144 198 5 0 3 4 -2 8 -6 4 -19 25 -30 47 -11 22 -22 42 -25
45 -24 24 -47 94 -49 150 -1 35 -5 69 -8 74 -3 5 -10 57 -15 115 -9 110 -23
273 -32 352 -2 28 -22 80 -50 133 -25 48 -46 93 -46 101 0 8 -4 15 -10 15 -5
0 -10 8 -10 18 0 10 -4 22 -9 28 -6 5 -12 20 -14 34 -4 28 -14 57 -28 82 -5
10 -9 31 -9 48 0 16 -5 30 -11 30 -7 0 -9 30 -5 98 5 93 10 132 36 302 6 41
13 99 15 128 2 30 5 55 7 57 8 9 -3 166 -14 195 -4 8 -9 26 -11 40 -3 14 -13
52 -22 85 -13 44 -18 101 -19 211 -1 147 1 159 35 226 5 10 9 26 9 36 0 10 3
22 7 26 4 4 9 19 10 34 3 25 13 53 34 94 5 10 9 25 9 33 0 8 4 15 9 15 5 0 12
20 15 45 4 24 11 47 15 50 5 2 12 22 16 42 4 21 11 43 17 50 6 7 11 99 13 215
2 112 6 214 9 228 3 14 13 58 23 98 9 39 20 72 24 72 3 0 9 13 12 29 3 16 12
35 19 42 7 8 22 30 32 49 11 19 37 61 58 93 21 32 38 63 38 68 0 5 5 9 10 9 6
0 10 6 10 14 0 7 7 19 15 26 9 7 13 15 11 18 -3 2 8 24 24 48 17 23 30 47 30
53 0 6 4 11 8 11 13 0 43 75 42 106 0 44 10 117 20 139 5 11 11 31 14 45 21
98 30 130 37 130 5 0 9 10 9 23 0 13 3 27 7 31 4 3 8 13 9 21 4 26 45 105 55
105 5 0 9 5 9 11 0 11 113 134 321 351 84 87 97 106 108 151 14 60 33 107 43
107 5 0 8 5 8 12 0 18 84 184 101 198 3 3 21 29 41 57 35 54 54 69 193 163 44
30 82 57 85 60 7 9 125 90 179 124 25 15 48 32 51 36 3 4 15 12 26 18 12 6 29
26 38 44 20 39 39 71 47 78 3 3 14 20 24 38 11 17 23 32 27 32 4 0 8 6 8 14 0
8 12 24 26 35 14 11 39 37 56 58 45 57 137 132 195 159 28 13 55 24 60 24 4 0
37 14 73 32 36 17 76 36 90 41 14 5 48 19 75 32 78 36 130 59 135 60 32 3 88
41 145 99 96 97 245 216 270 216 3 0 23 14 44 31 38 30 65 38 246 69 28 5 82
16 120 25 39 9 93 21 120 26 79 13 118 20 152 25 18 3 52 20 76 38 39 30 83
56 202 121 22 12 58 27 80 34 40 12 59 19 105 39 28 12 77 23 100 23 8 0 144
-3 302 -7 284 -7 286 -7 335 16 26 12 53 23 58 25 6 1 17 5 25 8 184 70 381
97 490 66z"/>
<path d="M6030 11789 c-41 -4 -117 -10 -170 -13 -118 -8 -209 -21 -385 -55
-27 -5 -102 -19 -165 -30 -63 -11 -133 -25 -155 -31 -22 -6 -60 -16 -85 -21
-25 -5 -52 -14 -60 -18 -9 -5 -35 -12 -58 -16 -46 -7 -47 -10 -31 -52 6 -15
13 -41 15 -58 2 -16 14 -59 25 -95 48 -144 58 -177 69 -235 6 -33 16 -68 22
-78 5 -11 7 -21 4 -24 -3 -3 -1 -15 5 -26 12 -20 59 -179 63 -209 1 -10 5 -21
9 -24 4 -4 7 -18 7 -30 0 -13 4 -33 9 -46 5 -13 17 -50 26 -83 10 -33 19 -67
22 -75 2 -8 4 -15 3 -15 -1 0 4 -13 10 -30 7 -16 14 -41 16 -55 5 -30 20 -84
45 -160 9 -30 21 -71 24 -90 4 -19 11 -39 15 -45 4 -5 11 -34 15 -62 4 -29 11
-55 16 -59 5 -3 9 -13 9 -23 0 -18 24 -104 40 -146 10 -26 30 -95 34 -120 14
-82 20 -106 27 -111 5 -3 9 -16 9 -29 0 -13 5 -27 10 -30 6 -3 10 -16 10 -29
0 -12 3 -26 7 -30 10 -9 31 -96 38 -150 2 -21 11 -49 20 -62 8 -13 15 -32 15
-42 0 -11 7 -39 15 -63 l15 -44 -30 35 c-17 19 -37 47 -45 61 -7 14 -28 41
-46 60 -17 19 -63 71 -102 117 -38 46 -75 86 -82 88 -15 6 -61 109 -56 128 1
4 -2 13 -7 20 -5 6 -16 34 -26 61 -10 28 -26 68 -37 90 -11 22 -21 52 -23 65
-4 29 -11 51 -36 105 -17 37 -59 148 -65 170 -2 10 -11 36 -25 70 -4 11 -15
40 -25 65 -10 25 -21 54 -26 65 -4 11 -17 49 -29 85 -12 36 -25 74 -30 85 -40
98 -55 137 -66 178 -7 27 -19 58 -27 70 -8 12 -18 38 -22 56 -4 19 -15 48 -24
65 -10 17 -23 53 -30 79 -6 27 -21 70 -32 95 -35 80 -38 86 -50 132 -7 25 -16
49 -21 54 -4 6 -8 17 -8 25 0 9 -12 41 -26 71 -14 30 -26 67 -26 82 -1 24 -4
26 -31 21 -16 -3 -50 -17 -76 -29 -25 -13 -53 -24 -62 -24 -8 0 -19 -4 -25 -8
-5 -5 -29 -17 -54 -26 -176 -68 -518 -238 -655 -326 -33 -21 -77 -46 -97 -56
-21 -10 -38 -21 -38 -26 0 -4 -6 -8 -13 -8 -8 0 -23 -8 -35 -17 -11 -10 -29
-25 -39 -33 -10 -9 -35 -23 -55 -33 -21 -10 -41 -23 -45 -30 -4 -7 -25 -21
-46 -32 -39 -20 -199 -143 -248 -190 -14 -14 -29 -25 -34 -25 -4 0 -27 -17
-50 -37 -23 -21 -77 -67 -120 -103 -104 -86 -423 -405 -505 -504 -36 -44 -75
-89 -86 -102 -12 -12 -32 -37 -45 -56 -13 -18 -31 -39 -41 -46 -10 -7 -18 -19
-18 -27 0 -7 35 -41 77 -74 43 -34 92 -73 108 -86 17 -14 53 -42 80 -62 28
-21 61 -48 75 -60 14 -13 28 -23 32 -23 3 0 13 -6 20 -12 11 -11 91 -78 173
-146 11 -10 32 -25 47 -34 15 -10 38 -29 52 -43 14 -14 28 -25 31 -25 7 0 93
-66 110 -85 6 -6 24 -21 40 -33 71 -53 89 -68 108 -89 11 -13 25 -23 30 -23 5
0 27 -15 47 -32 61 -53 112 -93 124 -97 6 -2 18 -12 26 -21 8 -9 22 -21 31
-26 25 -14 85 -62 169 -135 42 -37 114 -95 161 -131 165 -125 409 -321 405
-326 -3 -2 -19 3 -37 12 -18 9 -39 16 -49 16 -9 0 -20 4 -26 8 -14 13 -78 30
-204 53 -150 28 -174 38 -265 101 -42 29 -85 57 -96 63 -10 5 -19 13 -19 17 0
5 -5 8 -10 8 -13 0 -244 150 -248 162 -2 4 -8 8 -13 8 -6 0 -15 5 -22 10 -7 6
-46 32 -87 58 -42 26 -105 67 -140 92 -36 25 -90 61 -121 79 -47 28 -178 120
-215 150 -6 5 -42 28 -80 51 -38 23 -92 59 -120 81 -28 21 -55 39 -61 39 -5 0
-20 8 -32 19 -11 10 -50 35 -86 56 -36 21 -65 42 -65 47 0 4 -6 8 -13 8 -8 0
-22 9 -32 20 -10 11 -23 20 -29 20 -6 1 -27 14 -46 30 -43 38 -52 37 -81 -1
-13 -17 -31 -40 -41 -49 -9 -10 -19 -27 -23 -39 -3 -12 -11 -21 -16 -21 -5 0
-9 -6 -9 -13 0 -12 -54 -103 -70 -117 -10 -9 -30 -50 -30 -60 0 -12 -39 -71
-54 -81 -5 -4 -6 -11 -2 -17 3 -6 2 -12 -2 -14 -5 -1 -28 -43 -53 -93 -24 -49
-47 -91 -51 -93 -5 -2 -8 -12 -8 -22 0 -10 -4 -20 -10 -22 -5 -1 -11 -12 -13
-23 -5 -30 -38 -95 -48 -95 -5 0 -9 -6 -9 -14 0 -8 -10 -36 -22 -63 -12 -26
-22 -50 -23 -53 0 -3 -11 -26 -23 -52 -12 -26 -22 -51 -22 -57 0 -5 -9 -26
-19 -48 -26 -51 -35 -76 -32 -90 1 -7 -7 -29 -17 -50 -11 -21 -23 -54 -27 -73
-4 -19 -11 -39 -15 -45 -8 -11 -36 -104 -45 -150 -4 -16 -10 -39 -15 -50 -14
-37 -42 -137 -46 -169 -8 -61 -17 -101 -25 -112 -5 -6 -9 -22 -9 -35 1 -35
-18 -137 -36 -192 -9 -26 -13 -55 -10 -64 4 -8 2 -21 -3 -27 -5 -6 -11 -33
-14 -61 -3 -27 -11 -79 -17 -115 -10 -62 -16 -132 -24 -280 -2 -36 -7 -102
-11 -147 l-8 -83 114 -2 c143 -3 150 -3 289 -12 63 -4 165 -9 225 -12 187 -8
538 -22 815 -33 146 -6 340 -15 432 -21 92 -5 236 -10 320 -11 84 -1 191 -4
238 -7 l85 -7 -45 -14 c-38 -11 -98 -33 -225 -81 -11 -4 -47 -20 -80 -35 -33
-15 -73 -34 -90 -41 -30 -13 -207 -24 -725 -45 -140 -6 -336 -15 -435 -19 -99
-5 -259 -12 -355 -15 -96 -3 -230 -10 -298 -15 -68 -6 -154 -10 -193 -10 l-69
0 0 -38 c0 -21 4 -63 9 -93 5 -30 12 -112 16 -184 6 -134 16 -229 35 -325 5
-30 14 -82 19 -115 6 -33 17 -96 25 -140 20 -103 24 -123 31 -165 4 -19 10
-44 15 -55 10 -24 29 -97 37 -140 3 -16 9 -34 13 -40 11 -15 23 -67 21 -87 -1
-10 2 -18 7 -18 5 0 13 -20 16 -45 4 -24 11 -47 17 -50 5 -4 9 -17 9 -31 0
-13 5 -24 10 -24 6 0 10 -11 10 -24 0 -13 4 -26 10 -28 5 -1 11 -16 14 -33 4
-34 10 -52 36 -110 10 -22 25 -60 35 -85 9 -25 23 -57 31 -72 8 -14 14 -31 14
-37 0 -16 72 -165 83 -172 5 -3 8 -9 6 -13 -4 -12 24 -76 33 -76 4 0 8 -9 8
-19 0 -11 3 -21 8 -23 9 -4 52 -91 52 -107 0 -6 3 -11 8 -11 4 0 16 -19 27
-43 11 -23 22 -44 25 -47 3 -3 17 -26 30 -52 14 -27 28 -48 32 -48 5 0 8 -4 8
-10 0 -5 16 -34 35 -65 20 -30 39 -63 42 -73 4 -9 17 -28 30 -42 13 -14 23
-28 23 -33 0 -4 11 -19 24 -34 l24 -25 49 33 c28 19 92 62 144 96 52 34 128
85 169 113 71 49 364 243 398 265 9 6 22 16 30 22 7 7 43 31 80 53 71 43 489
321 509 339 7 6 17 11 23 11 5 0 10 4 10 9 0 5 15 16 34 25 19 9 74 44 122 79
49 35 118 81 154 103 36 21 67 42 68 47 2 4 10 7 17 7 7 0 15 4 17 8 4 11 167
122 179 122 5 0 9 3 9 8 0 4 14 15 30 24 17 9 30 15 30 13 0 -2 -27 -40 -60
-83 -33 -44 -60 -85 -60 -91 0 -6 -4 -11 -9 -11 -5 0 -13 -9 -16 -21 -10 -30
-99 -180 -122 -204 -10 -11 -41 -38 -68 -60 -27 -22 -68 -56 -91 -75 -23 -19
-65 -53 -94 -75 -29 -22 -57 -45 -64 -50 -6 -6 -27 -22 -46 -35 -19 -13 -41
-30 -48 -37 -8 -7 -30 -26 -50 -41 -21 -15 -39 -29 -42 -32 -3 -3 -39 -32 -80
-65 -41 -33 -84 -67 -95 -77 -11 -9 -67 -53 -125 -98 -58 -44 -112 -86 -120
-93 -8 -7 -44 -34 -80 -62 -36 -27 -76 -60 -90 -73 -14 -14 -41 -36 -60 -51
-19 -14 -37 -28 -40 -31 -3 -3 -21 -17 -40 -30 -19 -14 -44 -32 -55 -42 -20
-17 -85 -68 -222 -174 -66 -50 -89 -85 -65 -96 4 -1 26 -29 50 -60 82 -108
215 -253 381 -418 164 -163 200 -197 295 -275 27 -22 54 -45 60 -50 6 -6 31
-26 56 -45 72 -56 81 -63 119 -96 20 -17 54 -44 76 -60 22 -16 43 -33 47 -39
4 -5 8 -6 8 -2 0 9 73 -43 78 -56 2 -4 8 -7 13 -7 6 0 15 -5 22 -10 21 -18
232 -154 263 -170 16 -8 31 -17 34 -20 3 -3 19 -12 35 -20 17 -8 42 -23 58
-33 40 -27 140 -77 155 -77 6 0 12 -4 12 -9 0 -5 10 -13 23 -17 12 -3 34 -15
49 -25 14 -11 33 -19 42 -19 9 0 16 -4 16 -10 0 -5 5 -10 11 -10 5 0 38 -13
72 -29 102 -47 135 -61 144 -61 4 0 30 -11 57 -25 27 -13 64 -27 82 -31 19 -3
34 -10 34 -15 0 -5 6 -9 13 -9 8 0 28 -7 46 -16 38 -19 61 -13 61 18 0 13 7
36 15 52 8 15 15 35 15 42 0 8 5 14 10 14 6 0 10 11 10 23 0 13 3 27 7 30 7 7
62 159 70 195 3 12 9 22 13 22 4 0 13 27 21 60 7 33 17 60 21 60 4 0 8 9 8 19
0 11 4 22 9 25 5 4 12 24 16 46 4 22 11 40 16 40 5 0 9 8 9 18 0 10 4 22 8 28
5 5 14 29 21 54 12 44 24 77 42 112 5 10 9 26 9 36 0 10 3 22 7 25 5 6 37 89
41 107 3 18 20 63 46 122 9 20 16 41 16 47 0 6 4 19 9 29 9 15 22 49 26 62 6
27 31 94 47 130 38 86 48 113 54 150 3 14 13 43 23 65 18 36 59 145 66 170 4
18 16 50 26 67 5 10 9 23 9 29 0 6 7 27 16 47 22 51 45 108 49 122 11 45 31
98 65 174 12 27 23 61 25 75 5 37 6 38 14 16 5 -11 5 -25 0 -30 -10 -14 7
-333 22 -408 9 -43 9 -64 1 -80 -6 -12 -19 -56 -27 -97 -26 -119 -27 -124 -35
-135 -4 -5 -15 -41 -24 -80 -10 -38 -21 -77 -26 -85 -4 -9 -11 -36 -14 -60 -4
-25 -11 -54 -16 -65 -8 -19 -25 -74 -50 -165 -7 -25 -16 -56 -20 -70 -5 -14
-14 -50 -20 -80 -7 -30 -16 -64 -21 -75 -4 -11 -16 -47 -25 -80 -9 -33 -23
-74 -31 -92 -7 -17 -13 -35 -12 -40 1 -4 0 -10 -1 -13 -1 -3 -3 -16 -5 -30 -4
-35 -43 -172 -55 -192 -6 -10 -10 -29 -10 -43 0 -14 -4 -25 -8 -25 -5 0 -14
-36 -21 -80 -8 -44 -17 -83 -22 -86 -5 -3 -9 -16 -9 -30 0 -13 -4 -24 -10 -24
-5 0 -10 -15 -10 -33 0 -18 -4 -37 -9 -43 -10 -9 -30 -79 -35 -119 -1 -11 -8
-37 -15 -58 -7 -21 -11 -40 -9 -43 3 -2 25 -8 49 -13 24 -6 71 -17 104 -26 33
-9 71 -19 85 -22 14 -2 34 -8 45 -13 11 -5 58 -14 105 -20 47 -6 96 -16 110
-20 14 -5 43 -12 65 -15 22 -3 67 -10 100 -15 102 -18 197 -30 265 -35 36 -2
108 -8 160 -12 123 -10 677 -10 800 0 52 4 124 10 160 12 68 5 167 18 260 34
30 5 71 12 90 15 19 3 55 10 80 15 25 5 81 15 125 22 44 6 85 15 90 19 6 4 24
10 40 13 17 3 57 13 90 22 33 9 74 19 90 22 17 3 35 10 42 15 7 6 13 4 16 -4
4 -9 6 -7 6 4 1 9 -4 29 -10 45 -6 15 -12 37 -14 48 -1 11 -4 27 -7 35 -11 32
-30 106 -35 138 -3 17 -9 32 -14 32 -5 0 -9 11 -9 24 0 14 -4 27 -9 30 -5 3
-14 42 -22 86 -7 44 -16 80 -21 80 -4 0 -8 18 -8 40 0 22 -4 40 -9 40 -5 0
-11 12 -14 27 -14 71 -30 129 -39 140 -5 6 -8 20 -7 30 2 18 -5 45 -22 75 -5
10 -9 26 -9 37 0 21 -27 117 -41 143 -5 10 -9 27 -9 37 0 11 -4 22 -9 26 -5 3
-9 18 -9 33 1 25 -10 68 -32 127 -4 11 -13 40 -20 65 -7 25 -16 54 -21 65 -5
11 -15 49 -23 85 -8 36 -19 81 -25 100 -5 19 -15 55 -21 80 -7 25 -20 63 -30
85 -10 22 -20 56 -23 75 -13 82 -20 111 -28 116 -5 3 -9 14 -9 25 0 10 -4 27
-9 37 -13 23 -53 164 -53 182 0 8 -3 24 -8 35 -4 11 -13 40 -20 65 -7 25 -19
62 -27 84 -17 48 -11 57 14 20 10 -16 26 -37 36 -46 9 -10 17 -22 17 -26 0 -4
18 -28 41 -52 22 -25 62 -70 87 -100 26 -30 65 -76 89 -102 23 -25 45 -59 49
-75 4 -15 10 -32 15 -38 4 -5 8 -14 9 -20 2 -24 42 -144 60 -182 11 -24 20
-49 20 -56 0 -8 3 -17 7 -21 4 -3 8 -14 9 -24 5 -31 29 -92 36 -92 5 0 8 -11
8 -25 0 -14 5 -25 10 -25 6 0 10 -10 10 -23 0 -12 7 -33 16 -45 9 -13 13 -29
10 -37 -3 -8 -1 -15 4 -15 6 0 10 -8 10 -18 0 -10 11 -42 25 -70 14 -29 25
-60 25 -70 0 -10 4 -22 9 -28 5 -5 19 -40 31 -79 13 -38 32 -90 42 -115 32
-72 36 -83 49 -125 7 -22 20 -55 31 -73 10 -18 18 -40 18 -50 0 -9 7 -30 15
-46 8 -15 15 -35 15 -42 0 -8 4 -14 8 -14 4 0 14 -27 21 -60 8 -33 18 -63 22
-66 5 -3 9 -14 9 -25 0 -10 5 -19 10 -19 6 0 10 -9 10 -19 0 -11 4 -22 8 -25
5 -3 15 -30 22 -61 7 -31 17 -58 22 -61 4 -3 8 -13 8 -22 0 -9 12 -42 26 -72
14 -30 26 -67 26 -82 1 -24 4 -27 27 -22 14 4 49 17 78 30 28 13 56 24 62 24
6 0 26 9 46 20 20 11 40 20 45 20 6 0 32 10 58 21 26 12 76 35 112 51 36 16
101 47 145 70 44 23 112 57 150 77 39 20 72 39 73 44 2 4 9 7 16 7 6 0 54 27
106 60 52 33 100 60 107 60 6 0 13 3 15 8 2 4 44 34 93 66 50 33 96 66 104 73
7 8 29 23 50 34 44 24 75 47 170 124 40 33 86 69 100 80 94 69 391 337 491
442 80 85 171 188 275 313 26 30 57 67 71 81 13 14 24 31 24 38 0 14 -41 51
-146 131 -162 122 -300 230 -359 280 -66 56 -98 80 -127 98 -16 9 -28 20 -28
24 0 4 -17 19 -37 33 -21 14 -57 40 -80 58 -143 110 -168 131 -171 139 -2 4
-22 21 -45 37 -23 16 -53 40 -67 53 -14 13 -41 35 -62 50 -20 15 -42 34 -50
41 -7 7 -29 24 -48 37 -19 13 -40 29 -46 35 -7 5 -35 28 -64 50 -29 22 -74 58
-99 80 -72 61 -132 109 -150 119 -9 5 -30 21 -47 35 -16 14 -45 37 -64 51 -40
30 -90 70 -108 87 -7 7 -16 13 -20 13 -4 0 -26 18 -50 40 -24 22 -47 40 -51
40 -5 0 -15 7 -22 16 -12 15 -11 16 11 9 14 -4 29 -11 35 -16 5 -5 19 -9 30
-9 12 0 25 -3 29 -7 13 -13 77 -31 158 -43 46 -7 87 -17 93 -22 5 -4 26 -8 46
-8 21 0 41 -4 44 -10 3 -5 14 -10 24 -10 9 0 62 -32 117 -71 54 -39 106 -74
114 -77 8 -3 76 -47 151 -99 76 -51 140 -93 143 -93 4 0 48 -28 98 -62 150
-104 232 -157 253 -167 12 -5 27 -16 34 -25 7 -9 17 -16 22 -16 5 0 37 -20 71
-45 95 -67 107 -75 115 -77 5 -1 13 -6 18 -10 29 -25 127 -88 135 -88 6 0 10
-5 10 -10 0 -6 7 -13 16 -17 8 -3 58 -34 111 -69 52 -35 99 -64 103 -64 5 0
10 -4 12 -8 2 -4 41 -34 87 -65 66 -45 86 -55 97 -46 8 6 14 16 14 21 0 5 5
14 10 21 47 56 60 74 60 85 0 6 3 12 8 12 4 0 14 15 21 32 8 18 34 62 57 98
91 142 330 623 325 654 0 3 7 21 17 38 11 18 22 47 26 63 4 17 14 38 23 47 8
9 12 22 8 27 -3 6 -1 11 4 11 6 0 11 11 11 24 0 14 5 28 10 31 6 4 8 10 5 15
-3 5 -1 17 4 27 11 21 23 53 26 68 1 10 10 34 25 70 17 39 40 116 40 133 0 10
4 22 9 28 5 5 14 32 19 59 5 28 23 97 40 155 17 58 31 114 30 125 0 11 9 63
21 115 35 155 68 362 76 490 3 41 10 131 15 199 6 68 10 134 10 146 0 24 13
23 -705 55 -121 6 -258 12 -305 14 -47 3 -197 9 -335 14 -137 6 -353 15 -480
21 -126 6 -333 14 -460 18 l-230 6 50 17 c56 18 69 23 137 51 26 10 56 19 67
19 12 0 21 5 21 10 0 6 6 10 14 10 7 0 34 11 60 25 26 14 53 25 61 25 7 0 15
5 17 11 5 16 147 26 513 39 182 6 373 15 425 20 52 6 133 10 180 10 85 -1 962
41 968 46 2 1 -2 69 -8 151 -7 81 -12 168 -11 192 0 24 -2 48 -5 52 -2 4 -7
51 -9 104 -3 53 -9 104 -15 115 -5 10 -10 36 -10 57 0 22 -4 43 -9 49 -5 5
-11 27 -14 49 -5 34 -20 119 -42 225 -3 14 -8 44 -11 68 -3 23 -10 42 -14 42
-4 0 -10 15 -12 33 -6 38 -27 124 -39 152 -16 39 -23 70 -20 88 1 9 -2 17 -7
17 -5 0 -13 20 -16 45 -4 24 -11 47 -17 50 -5 4 -9 17 -9 31 0 13 -4 24 -10
24 -5 0 -10 11 -10 24 0 13 -4 26 -10 28 -5 2 -11 20 -14 40 -2 21 -15 62 -29
90 -13 29 -32 73 -42 98 -9 25 -23 57 -31 72 -8 14 -14 31 -14 37 0 12 -70
163 -79 171 -3 3 -7 13 -9 22 -2 10 -19 48 -39 85 -20 38 -42 79 -50 93 -7 14
-13 31 -13 38 0 6 -4 12 -10 12 -5 0 -10 6 -10 14 0 7 -7 19 -15 26 -8 7 -15
21 -15 31 0 11 -3 19 -8 19 -7 0 -13 10 -42 66 -8 16 -17 31 -20 34 -8 8 -29
42 -52 88 -12 23 -26 42 -30 42 -4 0 -8 7 -8 15 0 16 -8 28 -47 70 -13 13 -23
28 -23 33 0 5 -7 15 -15 22 -12 10 -18 10 -31 -1 -9 -7 -24 -18 -33 -24 -23
-13 -233 -152 -247 -162 -5 -4 -17 -12 -27 -18 -29 -18 -162 -109 -167 -114
-3 -3 -14 -11 -25 -18 -91 -55 -156 -97 -161 -105 -3 -5 -38 -30 -76 -54 -39
-25 -75 -50 -82 -55 -6 -6 -41 -29 -77 -52 -37 -23 -107 -70 -157 -104 -50
-35 -94 -63 -97 -63 -4 0 -39 -23 -78 -51 -40 -27 -153 -104 -252 -169 -99
-65 -185 -124 -192 -129 -7 -6 -14 -11 -17 -11 -4 0 -138 -89 -236 -157 -54
-37 -142 -93 -146 -93 -3 0 15 24 40 54 25 29 46 58 46 64 0 6 4 12 9 14 9 3
40 51 63 98 7 14 18 31 25 38 7 7 13 19 13 26 0 7 8 21 18 32 23 27 42 61 42
77 0 7 18 26 40 43 22 16 40 32 40 37 0 4 6 7 13 7 7 0 18 9 25 20 7 11 19 20
26 20 8 0 16 3 18 8 2 4 35 34 74 67 94 79 104 87 139 109 17 10 39 28 50 40
11 12 41 37 67 54 44 31 98 72 176 139 52 44 54 46 103 85 80 64 139 108 145
108 4 0 14 8 23 18 9 10 32 29 51 42 40 29 50 36 139 110 36 31 93 76 126 100
32 25 67 52 76 60 10 8 38 31 64 50 26 19 66 49 89 67 140 109 142 111 109
142 -10 9 -29 32 -42 51 -14 19 -33 41 -43 48 -10 7 -18 18 -18 24 0 5 -30 44
-67 85 -91 101 -419 430 -469 470 -21 18 -53 45 -71 60 -18 15 -55 46 -83 68
-27 22 -92 74 -143 115 -109 89 -163 130 -172 130 -8 0 -79 53 -83 63 -2 4 -8
7 -14 7 -6 0 -39 20 -75 45 -35 25 -68 45 -73 45 -4 0 -10 4 -12 8 -3 7 -72
52 -145 94 -18 10 -50 28 -70 40 -119 68 -478 248 -497 248 -3 0 -17 5 -33 11
-15 6 -29 10 -30 10 -2 0 -19 8 -38 19 -20 11 -43 20 -53 20 -9 0 -35 9 -57
21 -74 40 -170 60 -124 25 18 -13 20 -7 -31 -136 -23 -59 -24 -64 -50 -140
-12 -36 -30 -83 -40 -105 -10 -22 -23 -60 -30 -85 -7 -25 -20 -63 -30 -85 -34
-79 -62 -151 -77 -200 -8 -27 -19 -54 -24 -60 -5 -5 -9 -17 -9 -26 0 -10 -3
-19 -8 -21 -4 -2 -23 -48 -41 -103 -19 -55 -38 -104 -42 -110 -5 -5 -9 -17 -9
-27 0 -10 -11 -41 -25 -70 -14 -28 -25 -60 -25 -70 0 -10 -5 -18 -11 -18 -5 0
-7 -5 -3 -11 3 -6 -1 -25 -9 -42 -15 -32 -33 -75 -47 -112 -5 -11 -14 -36 -21
-55 -8 -19 -14 -39 -15 -45 0 -5 -4 -19 -8 -30 -5 -11 -12 -33 -18 -50 -5 -16
-14 -39 -18 -50 -12 -27 -51 -138 -55 -150 -3 -12 -14 -43 -25 -70 -5 -11 -12
-31 -16 -45 -3 -14 -12 -32 -19 -40 -7 -8 -16 -31 -20 -50 -4 -19 -10 -39 -13
-45 -4 -5 -8 -19 -9 -30 -2 -11 -12 -39 -23 -62 -11 -24 -20 -46 -20 -51 0 -5
-8 -26 -19 -48 -10 -21 -22 -54 -26 -71 -3 -18 -10 -33 -15 -33 -5 0 -5 14 0
30 10 36 -4 327 -21 422 -8 46 -9 71 -2 80 8 10 23 68 25 98 1 15 31 107 38
115 4 6 11 30 15 55 4 24 11 51 15 60 11 20 37 116 45 164 3 21 10 46 15 55 4
9 14 36 20 61 7 25 16 54 20 65 16 41 31 101 32 125 0 14 9 50 19 80 9 30 25
82 34 115 9 33 21 70 26 83 5 13 9 33 9 46 0 12 3 26 7 30 4 3 8 14 9 24 4 30
51 189 63 209 6 11 8 23 5 26 -3 3 -1 13 4 24 5 10 17 52 27 93 18 77 30 120
65 225 11 33 22 74 24 90 2 17 9 43 15 58 13 34 14 60 2 52 -11 -6 -37 0 -181
40 -52 15 -133 33 -180 41 -46 7 -105 18 -130 24 -25 6 -61 13 -80 16 -19 3
-60 10 -90 15 -111 19 -187 28 -275 34 -49 3 -137 10 -195 15 -122 12 -611 11
-720 -1z"/>
</g>
</svg>
