<?xml version="1.0" standalone="no"?>
<!DOCTYPE svg PUBLIC "-//W3C//DTD SVG 20010904//EN"
 "http://www.w3.org/TR/2001/REC-SVG-20010904/DTD/svg10.dtd">
<svg version="1.0" xmlns="http://www.w3.org/2000/svg"
 width="1280.000000pt" height="1225.000000pt" viewBox="0 0 1280.000000 1225.000000"
 preserveAspectRatio="xMidYMid meet">
<metadata>
Created by potrace 1.15, written by Peter Selinger 2001-2017
</metadata>
<g transform="translate(0.000000,1225.000000) scale(0.100000,-0.100000)"
fill="#000000" stroke="none">
<path d="M6754 12236 c-17 -8 -39 -25 -48 -37 -15 -21 -23 -24 -79 -21 -50 3
-67 0 -87 -16 -17 -13 -31 -17 -45 -11 -33 13 -94 10 -126 -6 -36 -19 -69 -70
-69 -107 0 -26 -3 -28 -40 -28 -51 0 -105 -22 -119 -48 -16 -29 -14 -84 4
-109 14 -19 13 -21 -10 -27 -16 -4 -32 -21 -45 -46 -18 -35 -25 -40 -56 -40
-19 0 -44 -4 -54 -10 -24 -13 -42 -66 -34 -107 5 -26 3 -33 -9 -33 -8 0 -21
-2 -29 -5 -10 -4 -12 9 -10 60 3 60 2 67 -26 94 -51 51 -154 54 -212 4 l-30
-25 -26 21 c-19 15 -41 21 -74 21 -47 0 -48 1 -54 35 -4 19 -19 46 -33 59 -31
29 -110 51 -156 42 l-32 -6 -1 73 c-1 40 -7 84 -13 96 -17 31 -70 51 -136 51
-62 0 -103 -17 -133 -55 -16 -20 -22 -23 -29 -12 -23 40 -144 52 -198 19 l-29
-18 -30 34 c-41 47 -78 63 -145 63 -100 1 -157 -46 -168 -138 -5 -48 -5 -48
-43 -48 -52 0 -85 -21 -111 -69 -19 -37 -25 -41 -53 -38 -37 4 -78 -24 -81
-54 0 -11 -9 -31 -18 -44 -16 -24 -17 -24 -32 -5 -8 11 -15 42 -15 68 0 67
-20 101 -68 115 -69 21 -166 9 -204 -25 -14 -12 -23 -13 -49 -4 -39 13 -109
14 -142 2 -46 -18 -67 -50 -67 -103 0 -47 0 -47 -26 -38 -39 15 -117 12 -142
-6 -14 -10 -22 -25 -22 -45 0 -29 -1 -30 -32 -23 -47 12 -107 7 -134 -11 -35
-23 -57 -72 -51 -115 4 -30 2 -36 -15 -37 -34 -3 -48 -23 -48 -69 0 -23 4 -46
10 -49 20 -12 9 -25 -21 -25 -17 0 -40 -5 -51 -11 -17 -9 -25 -6 -52 19 -38
38 -74 52 -131 52 -83 0 -225 -67 -225 -105 0 -8 -14 -6 -41 8 -55 27 -132 34
-161 14 -13 -8 -32 -31 -42 -51 -17 -32 -18 -43 -9 -77 9 -36 9 -39 -6 -33
-25 11 -89 17 -116 10 -28 -7 -65 -59 -65 -91 0 -11 7 -32 14 -47 l15 -28 -27
14 c-15 8 -44 17 -64 21 -47 9 -78 -19 -78 -70 0 -32 -2 -35 -19 -25 -52 27
-131 -15 -131 -71 0 -16 -2 -29 -4 -29 -3 0 -31 15 -63 34 -32 18 -69 36 -83
39 -37 9 -103 -9 -122 -34 -25 -30 -23 -76 3 -90 15 -8 19 -16 14 -32 -32
-103 -19 -155 44 -180 23 -10 50 -17 61 -17 10 0 22 -4 25 -10 3 -5 -2 -10
-12 -10 -10 0 -33 -9 -50 -20 -46 -28 -46 -77 -1 -115 32 -27 35 -27 132 -23
l100 5 -65 -32 c-36 -18 -88 -35 -119 -38 -123 -14 -210 -66 -210 -125 0 -23
10 -39 40 -65 l40 -34 -57 9 c-85 14 -170 4 -198 -22 -27 -26 -38 -71 -25
-105 8 -20 5 -29 -15 -49 -36 -37 -34 -94 4 -135 26 -28 28 -33 13 -37 -74
-23 -91 -51 -61 -101 18 -32 18 -33 -1 -33 -34 0 -60 -36 -60 -81 0 -33 6 -47
30 -69 42 -39 91 -60 143 -60 l45 0 -14 -30 c-12 -23 -13 -34 -4 -51 16 -30
92 -60 151 -61 37 0 48 -3 40 -11 -34 -34 7 -75 104 -103 53 -15 65 -23 65
-39 0 -11 7 -30 15 -42 14 -20 14 -22 -7 -21 -78 5 -122 -26 -133 -92 -6 -35
-10 -40 -41 -46 -25 -5 -46 0 -86 20 -34 17 -68 26 -100 26 -34 0 -57 7 -84
25 -113 77 -254 48 -270 -56 -6 -33 -10 -38 -40 -44 -45 -8 -85 -44 -87 -77
-2 -26 -4 -27 -44 -21 -37 5 -45 2 -72 -25 -19 -18 -31 -41 -31 -56 0 -31 2
-30 -43 -11 -77 32 -121 9 -151 -78 -25 -73 -15 -115 31 -137 30 -14 32 -18
26 -50 -12 -56 -7 -89 16 -121 l22 -29 -36 0 c-24 0 -35 5 -35 14 0 22 -46 54
-89 61 -45 7 -104 -13 -119 -42 -18 -33 -24 -100 -12 -123 12 -22 11 -22 -37
-16 -59 8 -113 -16 -127 -56 -11 -32 7 -97 36 -127 24 -26 23 -31 -7 -31 -40
0 -92 -26 -111 -55 -16 -24 -16 -29 -1 -60 21 -45 67 -67 149 -73 58 -4 70 -8
84 -30 16 -25 16 -26 -10 -45 -15 -11 -32 -30 -37 -43 -8 -22 -15 -24 -70 -24
-84 0 -126 -21 -139 -70 -13 -49 -3 -99 27 -131 l24 -26 -31 -13 c-46 -19 -90
-75 -90 -114 0 -38 31 -83 68 -97 30 -12 110 -14 141 -4 l23 7 -22 -30 c-18
-25 -22 -39 -17 -73 9 -66 34 -84 117 -84 62 0 70 -2 74 -21 8 -32 65 -54 135
-54 34 0 61 -2 61 -5 0 -2 -9 -28 -21 -56 -17 -45 -18 -57 -8 -82 15 -36 61
-57 124 -57 38 0 45 -3 45 -19 0 -27 45 -60 91 -67 32 -5 38 -10 43 -39 10
-53 47 -78 121 -83 53 -4 71 0 101 17 21 13 44 19 55 16 21 -7 25 -20 9 -30
-5 -3 -10 -15 -10 -26 0 -26 37 -39 113 -39 68 0 66 -8 -8 -35 -59 -21 -85
-41 -85 -66 0 -15 14 -18 98 -24 53 -3 104 -7 112 -8 8 -1 -18 -15 -57 -31
-63 -25 -73 -33 -86 -67 -18 -46 -24 -44 98 -24 117 19 131 18 72 -5 -64 -25
-79 -38 -75 -69 5 -41 80 -49 206 -22 54 12 101 21 106 21 4 0 -15 -21 -43
-47 -62 -59 -75 -97 -37 -114 21 -10 52 -8 158 10 73 12 144 24 158 27 21 5
22 4 8 -6 -27 -17 -22 -48 12 -65 38 -20 69 -19 128 4 l49 18 -5 -45 c-4 -36
-1 -48 13 -59 36 -26 126 -11 189 32 34 23 36 23 36 5 0 -27 56 -60 102 -60
31 0 42 7 70 39 32 38 33 39 62 24 21 -11 51 -14 110 -11 97 4 169 34 203 87
l23 34 11 -33 c12 -32 13 -32 60 -27 27 3 60 12 74 20 21 10 35 11 61 3 45
-14 43 -26 -3 -26 -84 0 -174 -47 -160 -84 9 -22 82 -54 141 -62 26 -4 48 -10
51 -13 2 -4 -34 -19 -79 -35 -133 -45 -163 -81 -102 -122 27 -17 39 -16 221
12 30 5 30 5 -6 -15 -52 -29 -91 -78 -83 -105 17 -59 70 -68 209 -36 117 27
122 27 91 -11 -29 -34 -32 -49 -14 -67 25 -25 80 -14 222 43 16 7 17 6 7 -14
-18 -34 -10 -74 19 -89 25 -13 70 -12 213 4 53 6 57 5 57 -14 0 -22 70 -121
119 -166 21 -21 42 -30 66 -30 19 -1 35 -2 35 -4 0 -1 -12 -20 -26 -41 -28
-44 -34 -92 -13 -117 23 -28 109 -63 185 -75 l70 -12 38 -68 c83 -153 242
-329 391 -435 38 -27 140 -85 226 -129 l157 -80 113 -145 c143 -183 519 -691
586 -790 211 -315 344 -655 388 -988 48 -367 -16 -714 -211 -1127 -110 -235
-180 -344 -261 -406 -90 -69 -232 -155 -298 -181 l-60 -23 50 -6 c28 -3 57 -9
66 -13 10 -4 20 -3 24 3 9 16 37 14 74 -5 27 -14 45 -15 109 -6 132 17 121 -2
-65 -114 -62 -37 -113 -70 -113 -72 0 -6 79 8 137 24 30 8 59 23 68 36 11 17
15 18 15 7 0 -14 18 -16 123 -17 137 -2 175 7 230 50 31 24 41 28 50 18 9 -10
9 -11 -1 -5 -9 4 -24 -3 -40 -18 -15 -14 -38 -31 -52 -37 -21 -9 -19 -9 15 -4
22 3 85 9 139 13 83 5 105 4 139 -11 21 -10 58 -18 82 -18 74 0 195 13 195 20
0 5 -17 13 -37 19 -37 10 -37 10 17 7 40 -2 93 -19 193 -61 152 -64 156 -64
158 5 0 19 3 29 6 23 3 -9 30 -13 82 -13 68 0 86 -4 137 -31 32 -17 67 -38 77
-47 22 -20 22 -10 -4 41 l-22 42 27 -29 c30 -31 44 -29 26 4 -6 12 -10 23 -8
25 2 1 35 5 75 7 42 2 67 0 60 -5 -8 -6 -4 -7 10 -4 12 3 86 -3 165 -12 79
-10 175 -16 213 -13 46 2 104 -3 170 -17 54 -11 101 -18 103 -16 12 12 -134
97 -218 126 -18 7 -15 7 10 2 50 -10 141 -7 170 6 l25 11 -25 -4 c-14 -3 -43
-7 -65 -11 l-40 -6 35 16 c19 9 55 20 80 25 29 5 -5 6 -95 4 -77 -1 -131 -1
-120 1 26 5 313 26 390 29 145 4 175 6 175 14 0 4 -39 18 -87 31 -102 28 -240
78 -248 91 -3 5 15 0 41 -11 44 -20 175 -60 191 -58 15 1 -232 88 -251 88 -11
1 -54 23 -95 50 -42 26 -107 65 -144 86 -69 37 -69 37 -118 138 -87 182 -176
581 -220 987 -16 148 -16 585 0 715 52 431 140 754 301 1100 281 604 801 1205
1495 1727 l140 105 195 67 c225 78 361 143 485 231 97 70 213 179 284 269 l46
59 6 -37 c3 -20 18 -49 32 -64 15 -16 27 -35 27 -43 0 -27 35 -50 72 -47 19 1
45 -5 58 -15 28 -19 82 -22 112 -6 19 10 20 9 14 -15 -7 -28 14 -46 53 -46 12
0 21 -7 21 -15 0 -44 123 -102 156 -74 9 7 14 22 11 36 -3 18 0 23 18 23 12 0
28 7 35 15 21 25 38 17 52 -27 12 -39 16 -43 55 -50 23 -4 53 -14 67 -23 16
-11 35 -15 51 -11 26 7 60 59 50 76 -11 17 8 11 47 -17 34 -23 41 -25 63 -13
21 11 27 11 44 -4 10 -9 34 -19 54 -23 27 -4 39 -1 57 17 13 13 20 29 17 41
-3 12 0 19 8 19 22 0 29 22 12 35 -26 19 -21 22 39 28 70 7 97 29 92 74 -3 20
1 34 9 37 7 3 13 17 13 32 0 23 3 25 23 20 65 -19 88 -19 110 2 15 14 30 19
44 16 27 -7 63 12 63 33 0 10 -12 28 -27 40 l-28 23 28 -10 c46 -16 78 -12
106 15 14 14 43 41 64 60 l39 35 28 -20 c35 -25 47 -25 88 0 18 11 43 20 57
20 32 0 75 17 100 39 12 11 42 21 74 24 44 3 60 10 78 31 13 15 20 32 17 38
-3 5 8 22 26 36 23 20 33 38 37 68 5 39 8 42 41 48 42 6 92 51 92 81 0 12 -9
30 -19 39 -19 17 -19 18 5 53 28 42 30 73 7 102 -18 22 -75 40 -126 41 -19 0
-37 10 -53 30 l-26 30 -104 -7 c-57 -3 -104 -3 -104 0 0 3 10 22 21 42 12 20
19 46 17 59 -4 22 -1 25 37 31 59 8 77 25 80 70 2 32 7 40 34 51 31 13 36 26
31 82 -1 16 4 22 20 22 11 0 32 11 45 25 33 32 33 78 0 111 -20 20 -23 29 -15
39 6 8 10 31 8 52 -3 32 -9 41 -40 58 -28 15 -36 25 -32 38 10 31 -6 75 -34
93 -19 13 -47 19 -93 19 -44 1 -73 7 -89 18 -31 21 -62 22 -103 1 -60 -31
-322 -18 -361 17 -6 5 16 9 51 9 109 0 163 32 163 96 0 56 -39 82 -113 76 -10
-1 -15 3 -12 8 3 6 12 10 19 10 7 0 32 14 54 30 37 26 42 35 42 69 0 28 -10
53 -35 89 -29 43 -32 52 -20 62 39 32 -2 93 -70 106 -53 10 -101 -12 -147 -67
-22 -27 -45 -49 -50 -49 -15 0 -8 27 12 45 29 26 25 68 -10 109 -27 30 -29 37
-19 62 15 40 3 89 -31 128 -26 29 -28 35 -15 46 7 6 19 27 26 47 23 71 -35
153 -121 169 -52 10 -61 21 -54 64 12 73 -51 130 -143 130 -53 0 -74 22 -60
65 8 27 7 39 -6 59 -15 23 -15 26 6 52 48 62 19 149 -60 175 -31 10 -33 13
-27 44 12 66 -51 125 -134 125 -26 0 -28 2 -24 35 13 107 -87 165 -283 165
l-91 0 -11 30 c-16 44 -67 70 -135 70 -31 0 -68 -5 -82 -11 -22 -11 -28 -8
-50 19 -36 42 -93 62 -171 60 -73 -2 -94 6 -40 16 22 4 41 16 51 32 16 23 15
27 -1 64 -27 59 -50 80 -93 81 l-37 0 57 26 c64 28 80 54 52 84 -25 28 -121
72 -143 66 -16 -4 -20 2 -23 37 -3 22 -8 48 -12 57 -6 13 2 19 38 28 29 7 52
20 62 36 21 32 20 109 -2 142 -16 26 -16 27 2 38 35 19 81 73 87 102 21 107
-61 208 -185 228 -31 5 -38 10 -38 29 0 61 -84 130 -152 124 l-37 -3 -6 55
c-10 91 -15 107 -42 134 -30 31 -78 41 -125 28 -33 -9 -35 -8 -46 22 -31 86
-129 120 -179 62 l-24 -29 -16 23 c-9 12 -31 28 -49 36 -70 29 -136 10 -174
-51 -19 -31 -26 -35 -65 -35 l-44 0 16 38 c20 48 19 131 -2 172 -24 46 -92 74
-158 66 -28 -4 -62 -13 -77 -21 -17 -9 -31 -10 -41 -4 -23 14 -137 11 -168 -6
-16 -8 -41 -29 -56 -46 -22 -27 -26 -40 -22 -73 2 -23 8 -52 12 -65 7 -22 6
-22 -15 -11 -13 7 -41 10 -65 7 -41 -4 -43 -3 -49 25 -13 65 -109 125 -177
111 -41 -8 -78 -49 -85 -94 -5 -32 -11 -39 -29 -39 -19 0 -24 7 -27 36 -2 20
2 47 9 61 7 15 13 40 13 57 1 17 3 55 6 84 3 29 3 63 0 76 -8 33 -53 48 -126
44 -56 -3 -61 -1 -59 17 4 54 -3 86 -23 110 -44 50 -156 55 -223 9 l-35 -23
-36 24 c-26 18 -50 25 -84 25 -34 0 -58 -7 -84 -25 -41 -28 -40 -29 -36 60 1
41 -4 57 -28 91 -50 68 -122 89 -204 60 -34 -12 -37 -12 -49 11 -19 35 -60 53
-123 53 -65 0 -103 -15 -112 -44 -6 -18 -8 -16 -23 15 -29 61 -123 87 -197 55z
m2866 -5826 c18 -36 30 -45 53 -41 11 2 9 -5 -15 -46 -44 -77 -109 -152 -168
-195 -33 -23 -87 -63 -121 -88 -245 -182 -392 -253 -652 -319 -43 -10 -77 -16
-75 -11 2 4 28 60 58 123 49 103 59 118 88 128 35 11 52 35 52 69 0 17 4 20
18 15 9 -4 36 -10 59 -12 47 -6 93 15 93 43 0 11 6 14 22 8 72 -22 145 6 162
63 6 20 19 34 39 41 26 10 29 15 25 47 -4 34 -3 35 29 35 41 0 77 33 69 63 -5
21 -2 22 59 22 53 0 67 4 89 24 14 14 26 29 26 34 0 14 32 36 52 37 11 0 26
-16 38 -40z m310 -97 c0 -4 -17 -24 -37 -45 -27 -28 -34 -41 -26 -49 12 -12
116 -8 144 5 13 6 16 0 15 -41 0 -30 -6 -53 -16 -60 -23 -18 -99 -54 -149 -69
l-43 -13 6 37 c3 20 11 81 18 134 11 93 13 97 37 101 46 7 51 7 51 0z m-1441
-372 c11 -7 0 -35 -54 -137 -150 -285 -287 -461 -634 -817 -85 -86 -156 -155
-158 -153 -3 3 31 324 43 394 4 25 14 36 45 52 22 12 45 32 51 46 10 20 8 28
-10 47 l-21 22 40 -3 c58 -6 105 6 139 34 41 35 40 71 -5 124 -31 38 -43 60
-31 60 3 0 17 -5 33 -11 127 -48 223 -20 223 66 0 28 3 31 52 43 90 21 167 87
153 131 -3 10 -25 27 -48 37 l-42 18 63 7 c35 4 78 17 95 28 37 22 47 24 66
12z m-1166 -667 c26 8 47 13 47 11 0 -1 -33 -139 -74 -306 -90 -368 -197 -823
-266 -1134 -49 -219 -170 -783 -170 -791 0 -2 -10 -4 -23 -4 -54 0 -123 112
-337 545 -172 350 -199 391 -334 504 -42 35 -76 67 -76 70 0 11 165 316 278
516 56 100 122 226 147 280 l45 100 65 6 c44 4 84 15 124 36 57 29 62 30 98
17 53 -18 165 -17 236 3 67 18 133 72 123 99 -3 9 -9 27 -12 40 l-6 23 44 -14
c38 -13 50 -14 91 -1z m-1821 -207 c-11 -13 -16 -46 -14 -85 2 -16 13 -27 38
-38 39 -17 98 -9 170 21 20 8 40 15 44 15 5 0 22 -42 40 -94 l31 -94 -70 -141
-71 -140 -97 40 c-161 67 -359 165 -486 241 l-119 71 67 61 c84 76 104 85 185
86 46 0 95 11 165 34 113 38 133 42 117 23z m2295 -4613 c-3 -3 -12 -4 -19 -1
-8 3 -5 6 6 6 11 1 17 -2 13 -5z m-1594 -31 c-7 -2 -21 -2 -30 0 -10 3 -4 5
12 5 17 0 24 -2 18 -5z m54 -9 c-3 -3 -12 -4 -19 -1 -8 3 -5 6 6 6 11 1 17 -2
13 -5z m1090 -20 c-3 -3 -12 -4 -19 -1 -8 3 -5 6 6 6 11 1 17 -2 13 -5z"/>
<path d="M8288 573 c7 -3 16 -2 19 1 4 3 -2 6 -13 5 -11 0 -14 -3 -6 -6z"/>
<path d="M8248 493 c6 -2 18 -2 25 0 6 3 1 5 -13 5 -14 0 -19 -2 -12 -5z"/>
<path d="M8048 463 c6 -2 18 -2 25 0 6 3 1 5 -13 5 -14 0 -19 -2 -12 -5z"/>
</g>
</svg>
