<?xml version="1.0" standalone="no"?>
<!DOCTYPE svg PUBLIC "-//W3C//DTD SVG 20010904//EN"
 "http://www.w3.org/TR/2001/REC-SVG-20010904/DTD/svg10.dtd">
<svg version="1.0" xmlns="http://www.w3.org/2000/svg"
 width="1280.000000pt" height="1252.000000pt" viewBox="0 0 1280.000000 1252.000000"
 preserveAspectRatio="xMidYMid meet">
<metadata>
Created by potrace 1.15, written by Peter Selinger 2001-2017
</metadata>
<g transform="translate(0.000000,1252.000000) scale(0.100000,-0.100000)"
fill="#000000" stroke="none">
<path d="M6930 11648 c-95 -131 -209 -521 -245 -840 -34 -308 -47 -843 -25
-1043 28 -247 125 -468 216 -491 14 -4 45 -4 70 0 41 5 44 4 50 -20 9 -33 1
-116 -27 -289 -14 -88 -22 -186 -22 -265 0 -112 2 -133 27 -200 54 -144 116
-236 178 -259 91 -34 298 349 528 974 18 50 44 110 58 134 23 39 27 42 38 26
7 -9 16 -36 19 -58 9 -54 32 -97 90 -175 48 -63 124 -119 149 -109 8 3 22 0
31 -7 14 -10 15 -18 5 -52 -6 -21 -28 -65 -48 -96 -205 -315 -324 -538 -342
-645 -11 -66 -10 -74 11 -114 50 -100 181 -191 230 -161 10 7 24 12 31 12 47
2 291 222 535 483 102 109 206 212 231 229 l45 31 -6 -80 c-6 -80 -6 -82 27
-125 18 -23 61 -63 96 -88 35 -25 74 -54 88 -66 l26 -21 -20 -34 c-11 -18 -65
-67 -119 -108 -345 -258 -577 -467 -620 -557 -24 -50 -24 -56 -11 -83 22 -41
67 -76 150 -116 88 -42 143 -51 222 -35 81 17 264 90 482 195 192 92 253 109
260 71 2 -10 -2 -29 -8 -42 -29 -53 72 -124 293 -209 137 -52 128 -59 -193
-149 -191 -54 -437 -132 -675 -216 -227 -79 -338 -111 -367 -105 -29 7 -34 13
-144 199 -212 360 -524 625 -964 818 -105 47 -282 97 -451 129 -141 26 -463
37 -617 20 -298 -32 -609 -134 -867 -283 -368 -213 -680 -571 -822 -943 -44
-114 -90 -254 -97 -294 -23 -131 -28 -515 -7 -616 47 -236 73 -317 158 -495
94 -195 202 -346 364 -509 343 -344 788 -547 1313 -601 112 -11 133 -18 155
-44 10 -12 8 -23 -13 -58 -60 -103 -92 -247 -128 -583 -30 -275 -33 -946 -5
-1150 24 -170 68 -379 113 -528 38 -129 47 -151 95 -221 24 -36 36 -46 58 -46
99 0 187 252 236 670 76 664 1 1503 -166 1834 -38 75 -40 81 -23 93 26 19 74
31 194 48 554 82 1016 350 1377 800 73 91 175 278 227 416 33 88 63 137 89
145 66 21 186 4 625 -91 435 -93 514 -106 702 -112 143 -4 189 -2 350 21 331
48 514 95 622 160 59 35 93 84 84 121 -7 26 -83 82 -156 113 -130 55 -439 140
-624 172 -238 40 -671 37 -1141 -10 -269 -27 -364 -27 -399 1 -25 20 -26 25
-26 117 -1 84 -8 153 -37 360 -7 51 12 78 61 87 17 4 126 -8 241 -26 191 -30
232 -33 450 -34 151 0 247 -5 259 -12 18 -10 16 -13 -23 -55 -38 -41 -41 -50
-41 -99 0 -67 16 -92 79 -124 66 -33 234 -82 364 -105 194 -35 357 -43 792
-37 337 4 437 9 560 26 299 41 545 102 622 154 92 63 79 144 -33 204 -149 80
-482 142 -839 158 -71 4 -159 8 -195 10 -36 2 -162 4 -280 4 -124 1 -221 6
-230 11 -24 16 16 41 175 111 168 74 215 100 276 152 43 37 46 42 38 70 -5 17
-20 43 -35 58 -73 77 -312 160 -599 209 -64 11 -127 23 -142 26 l-26 7 23 19
c12 10 88 39 169 64 435 136 569 187 811 309 213 108 362 205 421 276 41 49
45 57 37 86 -13 49 -104 124 -223 183 -162 81 -258 84 -508 14 -162 -44 -258
-81 -477 -182 -96 -44 -199 -90 -228 -101 -51 -20 -102 -28 -102 -15 0 11 45
68 112 143 38 42 78 95 89 118 11 24 25 46 31 49 15 9 2 59 -27 102 -31 45
-140 134 -206 167 -54 28 -113 32 -216 14 -75 -13 -98 -8 -84 19 13 24 145
152 241 233 123 104 351 337 440 449 47 59 98 137 118 179 32 69 33 77 22 114
-16 54 -48 103 -114 175 -77 82 -113 98 -185 82 -70 -15 -131 -46 -243 -122
-168 -113 -295 -225 -589 -520 -163 -164 -301 -298 -307 -298 -14 0 0 41 67
191 64 145 86 237 70 287 -31 100 -141 246 -206 276 -39 17 -40 17 -96 -8 -31
-13 -85 -45 -119 -69 -59 -42 -120 -77 -133 -77 -3 0 -5 10 -5 23 0 22 14 48
179 352 137 253 218 462 228 590 5 60 1 82 -25 161 -59 176 -123 288 -182 316
-32 15 -33 15 -91 -23 -88 -59 -233 -237 -350 -431 -64 -105 -231 -445 -299
-608 -112 -268 -140 -332 -158 -355 -19 -24 -19 -23 -25 108 -15 336 -131 710
-237 767 -31 17 -118 -80 -204 -227 -76 -130 -110 -173 -124 -159 -4 4 -7 179
-8 389 -1 279 -6 424 -18 539 -38 367 -98 607 -170 683 -19 19 -40 35 -47 34
-8 0 -34 -28 -59 -61z"/>
<path d="M5246 11639 c-86 -75 -183 -330 -201 -529 -15 -163 26 -446 116 -798
60 -236 74 -317 59 -327 -13 -8 -49 33 -165 185 -56 74 -113 144 -126 155 -45
38 -88 65 -104 65 -56 0 -128 -82 -197 -225 -41 -87 -43 -94 -43 -185 0 -52 4
-137 9 -187 7 -78 6 -93 -6 -93 -20 0 -41 31 -190 278 -224 372 -328 512 -523
707 -121 121 -202 173 -252 160 -60 -15 -173 -138 -214 -233 -36 -82 4 -240
119 -468 78 -155 157 -282 317 -509 156 -221 203 -299 186 -310 -5 -2 -60 27
-122 66 -138 85 -244 138 -291 145 -23 4 -48 0 -73 -12 -52 -24 -150 -117
-182 -172 -25 -42 -26 -47 -15 -105 8 -40 37 -112 84 -204 39 -78 69 -146 65
-150 -15 -15 -99 41 -287 192 -223 179 -349 266 -505 353 -167 93 -255 125
-345 126 -71 1 -78 -1 -135 -38 -77 -49 -153 -122 -171 -163 -13 -30 -12 -37
16 -96 55 -116 316 -385 524 -541 61 -46 190 -136 286 -201 208 -141 310 -216
310 -227 0 -9 -59 -2 -140 17 -112 27 -197 37 -270 33 -63 -3 -89 -10 -161
-45 -103 -50 -180 -109 -201 -153 -16 -32 -15 -35 10 -74 14 -23 72 -88 128
-146 56 -58 107 -116 114 -129 l12 -24 -50 7 c-27 3 -128 31 -223 62 -452 143
-720 180 -914 126 -202 -57 -342 -127 -378 -189 l-19 -33 34 -41 c43 -54 148
-122 317 -208 254 -129 465 -204 771 -275 424 -97 622 -114 770 -67 118 38
225 86 277 124 53 39 90 91 73 102 -8 5 -7 12 2 22 19 23 76 12 233 -47 189
-70 364 -119 449 -126 87 -7 148 13 259 85 79 52 127 104 127 139 0 35 -58
109 -128 166 -119 96 -286 211 -417 287 -339 198 -385 227 -385 250 0 10 60
30 71 23 13 -7 132 59 187 104 52 42 102 112 102 142 0 11 7 23 15 26 29 11
77 -19 174 -110 262 -247 449 -389 567 -432 60 -22 61 -22 103 -4 51 23 139
114 176 182 22 40 26 57 21 91 -16 108 -144 302 -430 652 -62 75 -94 144 -75
156 8 5 28 7 45 4 61 -11 149 85 233 252 17 34 35 65 42 68 24 15 66 -51 194
-305 205 -405 323 -591 418 -657 46 -32 48 -33 77 -18 44 23 93 104 141 230
78 206 76 270 -11 575 -28 96 -52 195 -53 220 -2 40 0 45 21 48 14 2 33 -5 47
-18 l22 -21 32 27 c18 15 42 47 55 73 67 131 132 433 151 696 11 155 -40 490
-115 759 -110 391 -292 746 -384 746 -14 0 -41 -13 -60 -31z"/>
<path d="M6125 10830 c-80 -33 -142 -224 -191 -590 -25 -187 -25 -605 0 -815
39 -333 133 -857 174 -980 25 -73 73 -144 98 -145 83 -1 168 249 218 645 74
579 31 1344 -94 1688 -62 169 -126 230 -205 197z"/>
<path d="M2620 7005 c-328 -33 -577 -87 -710 -153 -62 -30 -78 -44 -94 -76
l-19 -39 39 -34 c84 -73 241 -131 559 -208 363 -89 585 -112 908 -95 388 20
802 91 938 160 38 20 89 76 89 99 0 17 -48 58 -100 85 -105 55 -728 206 -1035
252 -149 22 -405 26 -575 9z"/>
<path d="M1776 6349 c-376 -15 -697 -72 -901 -161 -83 -36 -103 -52 -122 -96
-52 -124 188 -226 677 -288 186 -24 620 -29 857 -10 226 18 363 21 363 7 0 -9
-86 -48 -310 -141 -178 -74 -308 -144 -362 -194 l-47 -43 17 -34 c25 -49 98
-92 236 -138 151 -50 332 -87 501 -102 144 -12 171 -20 136 -38 -12 -7 -149
-54 -304 -105 -432 -143 -633 -228 -857 -362 -167 -99 -274 -180 -322 -244
l-39 -52 19 -36 c40 -78 251 -186 395 -202 173 -20 489 66 832 225 309 144
415 183 415 154 0 -5 -66 -79 -147 -162 -154 -159 -201 -226 -189 -271 14 -58
132 -151 248 -197 75 -29 147 -19 359 52 98 33 181 59 185 59 18 0 -66 -74
-301 -265 -392 -319 -483 -406 -635 -610 -77 -104 -112 -163 -130 -222 -12
-38 -11 -48 5 -83 24 -54 132 -155 197 -185 l53 -24 65 18 c128 35 328 153
495 292 50 42 162 143 250 225 289 269 330 304 359 304 13 0 -2 -47 -60 -182
-30 -70 -59 -157 -66 -195 -11 -68 -11 -70 17 -122 39 -70 124 -157 178 -181
l45 -20 54 24 c29 13 111 67 181 120 71 53 135 96 143 96 36 0 -2 -89 -146
-340 -213 -371 -310 -626 -310 -815 0 -71 4 -89 34 -150 51 -106 116 -188 169
-214 l45 -22 59 40 c68 45 125 105 229 243 164 215 281 421 429 748 101 223
154 325 163 315 3 -2 6 -94 6 -202 2 -190 3 -201 30 -278 59 -167 145 -294
209 -311 23 -5 34 -2 52 17 13 13 36 35 51 49 25 23 66 82 194 284 47 74 66
96 81 96 16 0 10 -108 -16 -285 -38 -259 -48 -425 -42 -665 5 -176 10 -236 31
-330 64 -298 160 -445 266 -409 86 30 218 372 264 679 27 183 39 440 33 710
-14 555 -102 978 -217 1040 -15 8 -21 6 -29 -9 -14 -26 -49 -16 -57 16 -4 14
-4 57 0 96 19 214 19 300 -4 416 -24 130 -81 323 -112 385 -22 45 -53 83 -80
97 -25 13 -96 -56 -153 -146 -73 -117 -210 -410 -280 -600 -36 -99 -82 -224
-102 -278 -38 -103 -63 -145 -80 -134 -6 4 -23 41 -38 84 -63 181 -174 346
-229 340 -16 -1 -22 4 -24 25 -4 33 8 57 120 236 123 197 203 353 227 444 19
70 20 82 7 118 -34 98 -147 242 -201 256 -20 5 -44 -2 -93 -27 -52 -26 -101
-66 -220 -183 -84 -82 -192 -195 -240 -250 -115 -133 -193 -211 -219 -218 -17
-5 -27 4 -54 46 -49 75 -107 134 -173 178 -51 33 -67 38 -117 38 -32 0 -60 4
-63 9 -10 15 83 96 219 192 262 185 540 435 594 535 28 52 28 53 11 91 -21 48
-83 102 -175 154 -67 38 -73 40 -140 36 -94 -6 -217 -53 -479 -183 -115 -57
-219 -104 -231 -104 -30 0 -51 25 -36 44 16 19 -37 89 -97 127 -60 38 -192
101 -257 123 -83 27 -86 32 -30 56 26 11 128 43 224 70 218 60 443 133 668
216 232 85 316 125 364 173 38 39 39 42 25 68 -28 55 -78 84 -226 131 -257 82
-391 96 -767 78 -220 -10 -229 -7 -141 54 107 73 122 110 72 170 -90 106 -475
198 -904 215 -298 11 -390 12 -584 4z"/>
<path d="M9860 5448 c-75 -7 -273 -72 -351 -114 -29 -16 -64 -44 -76 -62 -22
-34 -22 -34 -3 -60 10 -15 22 -39 26 -54 6 -26 4 -28 -25 -28 -17 0 -104 26
-194 58 -146 53 -230 81 -422 138 -41 12 -92 18 -160 18 -85 0 -111 -5 -175
-28 -121 -45 -166 -73 -185 -116 -16 -36 -16 -39 3 -76 11 -22 40 -58 64 -80
88 -85 345 -259 608 -414 258 -151 357 -221 344 -242 -3 -4 -35 -8 -72 -8 -55
0 -78 -6 -126 -30 -78 -40 -154 -99 -191 -149 -17 -22 -36 -41 -43 -41 -28 0
-76 35 -209 151 -165 144 -351 290 -434 341 -34 20 -84 42 -113 49 -47 10 -56
9 -95 -11 -56 -28 -126 -93 -157 -146 -23 -39 -24 -46 -13 -91 7 -26 23 -69
35 -95 38 -76 195 -304 291 -422 146 -181 174 -219 194 -261 17 -38 17 -40 0
-46 -9 -4 -38 -2 -63 3 -42 10 -50 9 -91 -15 -45 -27 -105 -88 -156 -159 -14
-21 -34 -38 -43 -38 -26 0 -70 66 -148 220 -114 224 -323 556 -401 638 -17 18
-49 44 -71 58 l-39 25 -37 -19 c-75 -38 -167 -195 -178 -304 -7 -78 25 -244
92 -475 87 -298 98 -353 72 -353 -7 0 -36 17 -64 39 -50 37 -52 38 -89 26 -53
-19 -89 -57 -134 -144 -68 -133 -84 -197 -84 -351 1 -241 45 -572 124 -923 51
-224 105 -396 179 -562 66 -150 79 -173 139 -242 44 -51 45 -51 73 -37 131 68
263 784 204 1115 -8 41 -41 179 -74 305 -71 271 -79 308 -60 302 7 -3 57 -69
111 -149 129 -188 168 -236 229 -282 47 -36 52 -38 80 -26 16 6 40 26 54 44
56 74 142 323 163 471 12 79 19 104 32 104 19 0 63 -64 192 -278 166 -277 247
-399 342 -517 104 -128 243 -259 310 -292 l56 -28 37 20 c48 26 131 151 173
260 27 69 31 89 26 141 -8 84 -38 165 -118 326 -96 189 -120 225 -408 607 -61
80 -111 158 -111 174 0 16 24 3 154 -83 201 -133 271 -163 326 -140 65 27 190
180 215 264 12 38 10 50 -21 145 -19 57 -34 112 -34 122 0 18 2 18 35 5 38
-16 164 -111 310 -232 203 -169 502 -338 654 -370 l74 -15 55 27 c73 36 194
157 217 218 l18 46 -34 67 c-27 55 -61 96 -174 209 -187 188 -233 222 -725
547 -113 75 -216 145 -230 157 l-25 21 35 -6 c19 -3 91 -19 160 -35 167 -39
248 -44 312 -20 118 45 267 161 288 225 10 30 8 38 -22 81 -37 56 -101 119
-203 201 -39 32 -81 71 -95 87 l-24 29 40 -6 c52 -8 158 -43 314 -102 342
-130 622 -195 785 -182 163 12 436 141 480 228 24 45 18 63 -37 116 -152 143
-593 332 -1012 433 -311 75 -556 111 -676 98z"/>
</g>
</svg>
