<?xml version="1.0" standalone="no"?>
<!DOCTYPE svg PUBLIC "-//W3C//DTD SVG 20010904//EN"
 "http://www.w3.org/TR/2001/REC-SVG-20010904/DTD/svg10.dtd">
<svg version="1.0" xmlns="http://www.w3.org/2000/svg"
 width="1188.000000pt" height="1280.000000pt" viewBox="0 0 1188.000000 1280.000000"
 preserveAspectRatio="xMidYMid meet">
<metadata>
Created by potrace 1.15, written by Peter Selinger 2001-2017
</metadata>
<g transform="translate(0.000000,1280.000000) scale(0.100000,-0.100000)"
fill="#000000" stroke="none">
<path d="M9670 12790 c0 -33 -82 -555 -88 -561 -4 -3 -39 -16 -78 -28 -40 -11
-113 -41 -163 -67 -54 -26 -96 -42 -104 -37 -6 4 -111 81 -231 171 l-219 163
-124 -123 c-68 -68 -121 -128 -119 -134 2 -6 78 -111 169 -233 l166 -223 -43
-86 c-24 -48 -54 -118 -66 -157 -12 -38 -25 -77 -29 -85 -6 -11 -79 -25 -290
-55 l-281 -39 0 -178 c0 -176 0 -178 23 -182 12 -3 140 -22 284 -42 l262 -38
26 -83 c14 -46 46 -123 70 -170 24 -47 41 -91 38 -97 -4 -6 -80 -109 -170
-228 -90 -120 -163 -221 -163 -225 0 -5 55 -63 123 -130 l122 -122 233 173
232 173 83 -42 c45 -24 120 -55 167 -70 47 -16 86 -29 87 -30 2 -1 21 -125 43
-276 22 -151 42 -280 45 -286 5 -16 355 -19 355 -4 0 14 81 565 83 567 1 0 40
13 87 29 47 15 123 47 169 70 l83 43 232 -173 231 -174 123 122 c67 67 122
126 122 131 0 5 -76 111 -170 236 l-169 226 43 84 c24 47 56 124 71 173 15 48
31 87 35 87 10 0 485 68 528 75 l32 6 0 178 0 178 -267 37 c-148 21 -275 40
-285 42 -10 3 -26 35 -43 87 -14 45 -46 122 -70 170 l-45 88 166 220 c91 121
167 225 170 232 2 7 -52 68 -120 136 l-124 123 -218 -164 c-121 -90 -224 -167
-231 -171 -6 -4 -53 13 -105 38 -51 25 -124 55 -163 67 -38 11 -74 24 -78 28
-6 5 -87 526 -87 561 0 5 -73 9 -180 9 -115 0 -180 -4 -180 -10z m322 -1031
c29 -6 95 -31 147 -56 171 -82 298 -237 347 -423 21 -80 24 -234 5 -310 -57
-232 -234 -416 -467 -486 -82 -25 -266 -25 -349 0 -187 57 -333 180 -415 351
-48 102 -63 167 -64 280 0 193 76 365 221 495 65 57 194 126 275 145 66 17
230 19 300 4z"/>
<path d="M6880 11154 c-477 -28 -970 -130 -1400 -289 -149 -55 -348 -140 -363
-154 -7 -7 937 -1657 963 -1684 4 -5 61 10 126 33 312 109 587 154 939 153
185 0 259 -4 375 -22 347 -53 604 -135 905 -290 782 -402 1345 -1168 1489
-2026 l12 -70 978 -3 978 -2 -6 37 c-3 21 -8 67 -11 103 -60 622 -301 1335
-645 1905 -182 302 -461 664 -668 868 -57 56 -60 58 -88 46 -16 -7 -30 -14
-32 -15 -2 -1 -25 -150 -51 -330 l-47 -329 -481 -3 c-468 -2 -481 -2 -486 17
-2 11 -24 155 -48 321 -32 228 -46 300 -55 296 -7 -3 -122 -86 -254 -186 -132
-100 -246 -183 -253 -186 -7 -2 -164 148 -351 335 l-338 338 195 261 c192 255
196 261 169 266 -15 3 -155 24 -312 46 -157 23 -291 43 -297 45 -10 3 -13 60
-13 239 l0 234 -32 6 c-156 29 -686 52 -898 40z"/>
<path d="M4298 10222 c-422 -315 -806 -713 -1099 -1142 -187 -273 -373 -624
-507 -959 -3 -8 16 2 43 23 l49 37 338 -338 c212 -212 336 -343 333 -352 -3
-7 -89 -126 -191 -263 -103 -137 -185 -250 -183 -252 2 -2 135 -22 294 -45
160 -23 302 -44 318 -47 l27 -6 -2 -481 -3 -481 -317 -46 c-175 -25 -318 -47
-318 -50 0 -3 86 -120 190 -260 105 -140 190 -257 190 -260 0 -3 -153 -158
-339 -344 l-339 -339 -42 33 c-22 18 -43 31 -45 29 -7 -8 134 -321 216 -479
276 -530 640 -992 1093 -1388 125 -109 404 -327 410 -320 27 31 975 1692 969
1697 -104 86 -229 200 -290 265 -664 702 -925 1677 -698 2611 53 220 121 403
219 598 184 362 417 650 749 929 l29 23 -479 830 c-264 457 -484 838 -489 847
-8 15 -25 6 -126 -70z"/>
<path d="M1466 7808 c-22 -150 -43 -280 -47 -289 -4 -8 -36 -23 -71 -33 -35
-9 -109 -39 -166 -67 l-104 -50 -230 172 -229 172 -126 -126 -126 -126 172
-230 173 -231 -51 -102 c-28 -57 -58 -132 -68 -167 -12 -44 -23 -66 -37 -72
-12 -4 -141 -25 -288 -45 l-268 -38 0 -177 0 -178 32 -6 c18 -3 146 -21 283
-41 138 -20 253 -39 256 -42 4 -4 16 -38 27 -77 12 -38 42 -112 67 -163 33
-68 43 -98 36 -110 -5 -9 -82 -114 -170 -232 l-162 -214 123 -123 c68 -68 126
-123 130 -123 5 0 110 76 234 169 l225 170 79 -41 c43 -23 120 -55 171 -72
l94 -31 40 -283 40 -283 177 -2 c170 -2 177 -1 182 18 2 11 21 140 42 286 l38
267 75 23 c42 12 119 44 172 70 l96 47 227 -169 c125 -93 230 -169 234 -169 4
0 62 55 129 123 l122 122 -170 228 c-93 125 -169 231 -169 234 0 4 20 47 44
97 25 50 55 126 67 169 13 42 26 77 31 77 4 0 130 18 279 40 150 22 276 40
281 40 4 0 8 80 8 178 l0 179 -267 37 c-148 21 -278 40 -289 43 -17 3 -25 19
-39 69 -9 35 -41 112 -69 170 l-52 106 173 231 174 231 -123 123 c-68 68 -126
123 -129 123 -4 0 -105 -73 -225 -163 -121 -89 -225 -166 -232 -171 -7 -4 -33
5 -65 23 -64 36 -190 87 -241 96 -21 4 -39 13 -41 19 -2 6 -20 124 -40 261
-20 138 -38 262 -41 278 l-6 27 -176 0 -177 0 -39 -272z m394 -779 c292 -78
494 -359 477 -664 -18 -316 -246 -567 -558 -616 -205 -32 -408 38 -561 191
-136 137 -197 303 -185 501 9 167 69 300 188 420 167 169 402 230 639 168z"/>
<path d="M9926 5988 c-2 -7 -14 -67 -26 -133 -107 -573 -429 -1144 -865 -1537
-516 -464 -1129 -713 -1810 -735 -362 -11 -693 39 -1025 156 -63 22 -117 37
-121 33 -12 -13 -969 -1674 -969 -1681 0 -4 62 -33 137 -65 448 -192 875 -304
1373 -361 290 -34 783 -30 1090 8 l95 12 5 240 5 240 312 45 c171 25 314 48
318 52 4 3 -80 122 -186 263 l-193 256 341 341 341 341 249 -185 c136 -103
254 -188 262 -190 11 -2 24 62 60 312 l47 315 481 3 481 2 6 -32 c3 -18 24
-159 46 -313 22 -154 42 -290 45 -302 3 -12 18 -26 37 -33 l33 -11 100 103
c322 332 596 728 815 1173 255 519 399 1025 465 1638 l6 57 -976 0 c-772 0
-976 -3 -979 -12z"/>
<path d="M9667 3338 c-4 -18 -22 -148 -42 -288 -20 -140 -37 -255 -38 -256 -1
-1 -40 -13 -87 -29 -47 -15 -123 -46 -169 -70 l-83 -43 -233 173 -232 173
-126 -126 -125 -125 174 -231 173 -232 -39 -75 c-40 -78 -71 -155 -90 -226 -6
-24 -14 -43 -19 -43 -4 0 -133 -18 -286 -40 -153 -22 -278 -40 -279 -40 -6 0
5 -355 11 -357 4 -1 121 -18 258 -38 138 -19 262 -38 277 -41 23 -4 29 -15 52
-87 14 -45 45 -121 70 -170 l45 -87 -165 -221 c-91 -122 -167 -226 -170 -233
-2 -6 52 -67 120 -135 l124 -123 218 164 c121 90 224 167 231 171 6 4 53 -13
105 -38 51 -25 125 -55 163 -67 39 -11 73 -24 77 -27 6 -5 88 -535 88 -565 0
-3 81 -6 180 -6 137 0 180 3 180 13 1 39 80 551 87 557 4 4 40 17 79 29 40 11
113 41 163 67 l91 45 33 -22 c17 -13 121 -90 231 -172 l198 -149 124 123 c68
68 122 129 120 136 -3 7 -80 111 -171 233 l-165 220 44 87 c24 49 54 122 67
163 12 41 28 80 33 86 6 6 136 28 289 50 l277 39 0 177 0 177 -32 6 c-64 11
-511 75 -523 75 -8 0 -25 36 -41 86 -15 47 -46 124 -70 171 -24 48 -40 91 -37
97 4 6 80 109 170 228 90 120 163 221 163 225 0 5 -55 63 -123 131 l-122 122
-233 -174 -233 -173 -92 47 c-51 25 -127 57 -169 70 -67 20 -78 27 -82 49 -3
14 -21 139 -41 276 -20 138 -38 256 -40 263 -3 9 -48 12 -179 12 l-174 0 -5
-32z m318 -1013 c238 -50 441 -246 501 -485 22 -86 22 -236 -1 -320 -75 -288
-336 -490 -632 -490 -123 0 -180 13 -293 67 -164 79 -285 222 -342 403 -30 96
-31 262 -4 355 102 339 433 541 771 470z"/>
</g>
</svg>
