<?xml version="1.0" standalone="no"?>
<!DOCTYPE svg PUBLIC "-//W3C//DTD SVG 20010904//EN"
 "http://www.w3.org/TR/2001/REC-SVG-20010904/DTD/svg10.dtd">
<svg version="1.0" xmlns="http://www.w3.org/2000/svg"
 width="1280.000000pt" height="1279.000000pt" viewBox="0 0 1280.000000 1279.000000"
 preserveAspectRatio="xMidYMid meet">
<metadata>
Created by potrace 1.15, written by Peter Selinger 2001-2017
</metadata>
<g transform="translate(0.000000,1279.000000) scale(0.100000,-0.100000)"
fill="#000000" stroke="none">
<path d="M9655 12220 c-189 -16 -338 -61 -572 -172 -55 -26 -111 -48 -122 -48
-48 0 -180 -33 -236 -59 -71 -33 -156 -107 -190 -165 -53 -92 -69 -181 -52
-306 l7 -55 -21 25 c-12 14 -33 50 -46 80 -45 103 -56 120 -75 120 -23 0 -568
-365 -1068 -714 -221 -154 -525 -370 -530 -375 -3 -4 -23 -18 -45 -33 -22 -16
-53 -38 -70 -50 -16 -13 -68 -52 -115 -87 -92 -69 -180 -150 -180 -164 0 -14
107 2 165 24 47 18 134 72 343 217 50 34 102 62 114 62 13 0 57 26 98 57 184
138 675 469 915 617 168 104 190 117 296 184 36 23 69 42 74 42 4 0 46 -36 92
-81 158 -152 319 -194 471 -123 133 62 203 192 178 327 -17 92 -118 177 -209
177 -25 0 -49 -4 -52 -10 -4 -6 7 -10 25 -10 17 0 47 -7 68 -15 129 -55 162
-212 66 -323 -52 -61 -105 -86 -184 -85 -189 0 -319 181 -275 383 11 52 72
146 118 184 100 81 205 113 341 101 154 -13 161 -12 341 54 94 35 248 90 344
122 282 95 278 123 -14 99z"/>
<path d="M10434 11879 c-134 -24 -235 -120 -265 -253 -29 -129 50 -272 166
-305 141 -39 275 45 275 172 0 58 -10 84 -50 124 -54 55 -128 56 -181 3 -38
-37 -40 -96 -6 -128 26 -24 66 -29 85 -10 17 17 15 57 -3 64 -23 9 -18 24 8
24 60 0 77 -82 28 -131 -54 -54 -159 -31 -197 42 -25 48 -16 137 19 182 41 54
105 81 181 75 132 -11 218 -112 217 -256 -2 -233 -253 -374 -493 -277 -66 27
-110 57 -191 133 -54 51 -60 54 -95 47 -20 -4 -50 -13 -67 -20 -16 -7 -48 -19
-70 -25 -41 -12 -210 -78 -390 -153 -126 -52 -443 -208 -555 -274 -47 -27 -96
-56 -109 -64 -14 -8 -54 -33 -89 -56 -35 -24 -65 -43 -68 -43 -2 0 -34 -21
-71 -47 -38 -25 -111 -75 -163 -111 -180 -124 -569 -415 -622 -465 -12 -13
-39 -34 -58 -47 -19 -13 -45 -33 -57 -44 -11 -12 -27 -25 -35 -31 -94 -70
-258 -207 -502 -421 -89 -77 -179 -156 -201 -175 -21 -19 -53 -47 -70 -64 -16
-16 -61 -56 -100 -89 -167 -143 -455 -452 -589 -631 -37 -49 -77 -103 -89
-119 -12 -16 -38 -52 -57 -79 l-34 -49 23 -19 c13 -11 28 -19 35 -19 6 0 27
30 46 67 28 53 75 107 235 267 253 255 467 446 498 446 26 0 63 31 78 63 25
59 154 194 214 224 22 12 87 59 145 105 210 167 277 215 385 277 149 86 387
239 393 253 2 5 8 8 12 8 5 0 28 19 52 41 70 68 326 248 573 404 33 21 84 53
114 72 87 56 323 197 471 281 243 138 764 402 799 405 10 0 59 -18 108 -41
214 -102 404 -84 527 48 67 72 90 128 90 220 0 121 -53 212 -149 256 -122 57
-273 9 -314 -99 -40 -104 -7 -196 84 -238 52 -24 92 -24 132 1 69 41 88 121
44 180 -20 27 -20 31 -6 28 52 -10 80 -116 48 -177 -46 -88 -163 -127 -249
-83 -65 34 -111 89 -128 155 -66 255 232 445 487 309 64 -35 153 -131 201
-220 41 -75 55 -84 94 -56 31 22 27 41 -12 54 -23 7 -51 33 -90 83 -127 163
-280 234 -442 206z"/>
<path d="M9117 11430 c-3 -8 -11 -32 -17 -53 -16 -52 -82 -132 -138 -167 -26
-16 -80 -37 -120 -47 -92 -21 -180 -11 -296 36 -108 43 -121 41 -121 -26 1
-29 0 -53 -2 -53 -1 0 -21 19 -43 41 -39 40 -43 41 -87 35 -25 -3 -52 -11 -60
-18 -15 -12 -50 -76 -52 -93 0 -5 -3 -29 -7 -51 -4 -28 1 -66 15 -118 34 -125
28 -145 -35 -107 -24 15 -36 35 -59 105 -32 96 -38 100 -104 66 -79 -40 -98
-86 -108 -263 l-6 -118 -31 3 -31 3 -3 128 -3 127 -27 -6 c-66 -16 -110 -54
-138 -119 -12 -28 -18 -81 -22 -177 -3 -91 -9 -138 -16 -139 -6 0 -19 -2 -30
-4 -38 -7 -41 1 -38 121 2 64 0 120 -6 126 -16 16 -121 -34 -190 -92 -74 -62
-101 -112 -101 -192 -1 -41 4 -53 39 -93 46 -53 56 -101 18 -89 -64 20 -96 78
-118 217 -14 86 -24 93 -65 50 -29 -32 -59 -106 -83 -205 -14 -58 -14 -77 -3
-135 7 -38 17 -83 23 -101 13 -45 -3 -62 -25 -28 -30 44 -136 56 -156 17 -5
-9 -4 -43 2 -79 5 -34 8 -64 6 -66 -2 -2 -18 -6 -36 -9 -31 -6 -33 -5 -44 36
-19 65 -21 66 -91 51 -121 -24 -157 -52 -395 -315 -73 -80 -156 -166 -185
-190 -81 -68 -156 -119 -176 -119 -10 0 -58 9 -107 19 -101 21 -204 21 -276
-2 -114 -35 -225 -146 -249 -248 -17 -68 -8 -174 18 -224 27 -55 98 -118 155
-140 120 -46 264 20 303 138 27 81 -1 170 -65 212 -66 43 -137 38 -191 -13
-35 -35 -40 -44 -40 -85 0 -56 27 -92 84 -111 37 -13 38 -13 12 -20 -31 -8
-70 10 -105 48 -33 35 -40 117 -14 165 62 118 225 135 326 35 56 -56 72 -98
72 -185 0 -121 -52 -201 -170 -262 -53 -27 -70 -31 -145 -32 -143 0 -245 53
-356 186 -36 43 -73 79 -83 79 -35 0 -137 -120 -129 -154 2 -13 17 -6 68 29
36 24 70 45 77 45 7 0 25 -11 40 -25 19 -17 23 -24 13 -25 -9 0 -21 5 -28 12
-18 18 -114 -86 -151 -162 -16 -33 -27 -60 -24 -60 3 0 1 -6 -5 -12 -16 -20
-52 -151 -82 -298 -22 -109 -38 -156 -78 -240 -51 -104 -79 -220 -54 -220 17
0 77 80 113 150 80 157 159 255 231 285 22 9 67 15 111 15 74 0 75 0 102 -36
27 -36 27 -37 17 -117 -15 -110 -67 -260 -128 -367 -7 -14 -30 -57 -49 -97
-19 -40 -40 -75 -45 -78 -15 -9 -12 -71 4 -84 7 -6 20 -9 27 -6 14 5 49 59 49
75 0 10 31 59 128 202 39 59 72 112 72 117 0 5 15 27 33 50 17 22 52 70 77
106 115 167 252 343 448 575 112 132 681 706 857 865 49 44 148 134 219 200
72 67 205 188 296 269 91 82 190 172 221 200 63 59 140 126 292 256 109 94
123 115 93 149 -7 9 -16 25 -20 37 -6 19 -3 20 81 20 75 -1 96 3 145 26 69 32
164 116 148 132 -19 19 -10 26 38 26 73 0 212 49 242 86 7 7 16 14 21 14 16 0
239 153 239 164 0 7 -5 17 -11 23 -17 17 0 38 71 88 81 57 143 115 179 169 32
48 65 131 58 149 -3 9 -6 8 -10 -3z"/>
<path d="M6321 10749 c-34 -22 -103 -80 -154 -128 -210 -198 -304 -243 -677
-325 -483 -107 -702 -197 -820 -336 -25 -29 -48 -58 -52 -64 -3 -6 19 -39 50
-74 l57 -62 120 -7 c249 -12 465 43 644 165 36 25 68 48 71 51 3 3 28 24 55
45 87 69 216 186 355 322 74 73 182 172 240 220 96 79 187 172 211 217 18 32
-35 20 -100 -24z"/>
<path d="M11550 10509 c-81 -10 -465 -87 -565 -114 -84 -23 -216 -56 -240 -59
-11 -2 -40 -9 -65 -16 -25 -7 -56 -14 -70 -16 -65 -12 -447 -99 -585 -134
-213 -55 -593 -168 -765 -228 -41 -14 -85 -27 -96 -28 -12 -1 -36 -10 -54 -19
-18 -9 -53 -23 -79 -30 -75 -22 -179 -60 -187 -68 -4 -4 -15 -7 -25 -7 -10 0
-33 -6 -51 -14 -70 -29 -186 -75 -253 -100 -38 -15 -83 -33 -100 -41 -16 -7
-48 -21 -70 -30 -145 -61 -441 -206 -594 -291 -62 -35 -119 -64 -126 -64 -18
0 -128 50 -123 56 3 2 17 0 32 -6 48 -18 77 -11 170 42 50 29 114 65 141 80
69 38 519 263 526 263 3 0 21 8 40 17 86 42 164 76 308 134 86 34 157 67 159
73 2 6 -5 42 -16 79 -14 47 -22 113 -27 225 l-7 157 -24 0 c-75 0 -143 -66
-173 -167 -29 -96 -33 -163 -16 -236 20 -84 19 -108 -2 -104 -56 9 -98 78
-111 184 -7 54 -9 57 -40 65 -44 12 -122 -14 -168 -54 -64 -56 -124 -191 -124
-279 0 -21 -5 -39 -11 -39 -14 0 -38 61 -46 115 -3 25 -9 48 -14 51 -4 2 -80
-32 -168 -76 -215 -109 -239 -136 -228 -266 4 -54 2 -65 -10 -62 -9 2 -24 27
-35 56 -11 29 -26 56 -34 59 -19 7 -78 -39 -115 -90 -33 -46 -39 -103 -13
-142 15 -22 15 -25 1 -31 -9 -3 -30 2 -46 12 -24 14 -31 25 -31 51 0 42 -9 46
-56 24 -22 -10 -65 -23 -98 -30 -148 -32 -280 -128 -337 -246 -15 -33 -30 -69
-32 -80 -2 -11 -8 -28 -12 -38 -13 -30 1 -139 25 -194 30 -70 109 -144 183
-171 32 -12 67 -22 77 -22 11 0 20 -5 20 -11 0 -8 -22 -10 -67 -7 -119 7 -217
73 -349 233 -40 49 -41 49 -65 33 -102 -66 -564 -547 -698 -726 -13 -18 -35
-35 -48 -38 -14 -4 -25 -16 -29 -33 -4 -14 -57 -93 -119 -176 -111 -148 -304
-433 -420 -621 -139 -224 -188 -294 -207 -294 -13 0 -9 130 6 190 30 120 71
194 206 375 37 50 79 108 93 130 15 22 47 69 71 104 34 49 43 68 34 78 -6 7
-16 13 -22 13 -22 0 -114 -105 -187 -215 -70 -105 -95 -147 -155 -260 -14 -27
-31 -56 -36 -62 -6 -7 -23 -48 -38 -90 -15 -43 -56 -154 -90 -248 -34 -93 -70
-196 -81 -228 -35 -102 -75 -155 -99 -131 -7 7 6 51 41 139 103 261 139 388
139 495 0 81 -55 114 -129 75 -71 -36 -177 -201 -347 -540 -58 -115 -114 -219
-124 -229 -16 -17 -22 -18 -49 -6 -34 14 -41 36 -13 44 10 4 28 25 40 49 211
414 255 480 499 742 138 149 201 229 246 318 51 100 67 164 67 280 0 90 -2
100 -24 122 -34 34 -59 24 -137 -55 -77 -78 -178 -226 -316 -465 -111 -192
-117 -197 -183 -145 -39 31 -42 31 -65 16 -13 -9 -37 -32 -52 -51 -32 -40
-143 -242 -143 -261 0 -7 9 -16 20 -19 11 -3 20 -10 20 -14 0 -5 14 -14 30
-21 l30 -12 0 -144 c0 -82 -4 -145 -10 -149 -6 -4 -7 23 -3 74 7 93 -4 129
-46 154 -32 19 -86 22 -124 8 -37 -14 -83 -69 -119 -141 -29 -58 -39 -68 -88
-92 -30 -15 -63 -27 -73 -27 -26 -1 -16 21 16 37 32 15 54 46 67 92 l9 33 -51
-6 c-61 -8 -129 -47 -213 -123 -33 -30 -70 -62 -83 -71 -42 -29 -191 -233
-234 -320 -36 -71 -42 -93 -42 -146 0 -75 21 -116 73 -143 20 -10 63 -38 95
-62 32 -23 60 -41 62 -40 1 2 -3 24 -9 51 -14 63 13 218 30 171 4 -12 78 -109
138 -180 49 -59 161 -105 230 -95 60 9 155 83 192 149 l23 39 -47 -23 c-70
-36 -128 -30 -90 8 15 15 63 89 66 101 0 4 1 11 1 16 0 5 12 12 28 16 38 9 72
33 68 48 -12 38 -15 67 -7 67 5 0 12 -16 15 -35 5 -24 11 -33 21 -28 22 8 19
-44 -4 -98 -10 -24 -26 -65 -35 -92 -10 -26 -40 -72 -68 -102 -39 -43 -46 -55
-31 -55 10 0 30 8 43 17 14 10 31 18 39 20 26 3 64 49 92 111 15 34 32 62 37
62 19 0 43 -82 37 -121 -8 -47 -56 -121 -90 -139 l-25 -13 0 -254 0 -253 43 0
c76 0 209 77 324 189 35 33 63 62 63 65 0 3 10 16 22 29 123 129 218 343 218
490 0 71 -33 138 -80 162 -29 15 -150 33 -150 22 0 -3 9 -27 21 -53 41 -96 55
-205 50 -387 -1 -51 -5 -63 -31 -89 -17 -17 -33 -28 -37 -25 -3 3 -7 93 -8
199 -2 106 -7 205 -13 219 -16 39 -67 86 -104 93 -18 3 -58 4 -89 0 l-56 -6
-32 45 c-17 25 -31 50 -31 56 0 19 17 12 35 -15 19 -30 37 -29 145 3 63 20
143 33 225 38 22 1 95 8 162 16 l122 13 21 -27 c26 -33 36 -29 44 18 9 48 97
213 150 282 39 51 146 226 146 239 0 3 29 58 64 122 35 64 115 218 178 342
124 241 224 394 386 592 10 11 116 109 236 217 458 410 426 384 460 378 32 -5
110 -46 103 -53 -2 -3 -27 1 -55 7 l-51 12 -48 -43 c-132 -119 -389 -379 -484
-490 -139 -162 -289 -353 -289 -369 0 -6 -4 -11 -8 -11 -8 0 -98 -133 -218
-320 -26 -41 -50 -77 -54 -80 -10 -8 -74 -118 -125 -215 -26 -49 -53 -97 -60
-105 -18 -21 -85 -154 -85 -168 0 -6 -6 -15 -13 -19 -51 -32 -186 -221 -170
-237 13 -13 22 -4 57 58 35 62 154 186 179 186 23 0 65 53 96 122 31 68 47 94
117 188 22 30 47 66 55 80 8 14 73 104 144 199 151 203 274 336 354 385 66 41
63 38 166 185 44 63 113 148 153 189 39 42 72 80 72 85 0 22 57 82 141 148
101 80 119 101 111 131 -5 19 -2 20 25 15 241 -48 376 -21 497 99 36 37 66 71
66 78 0 6 8 25 17 41 12 22 17 56 17 125 1 80 -3 102 -21 136 -29 55 -110 126
-161 142 -97 29 -178 9 -250 -61 -71 -70 -85 -164 -35 -248 50 -85 172 -105
243 -40 52 47 57 113 15 177 -25 39 9 31 37 -8 18 -26 23 -46 23 -94 0 -55 -4
-65 -34 -100 -45 -52 -95 -73 -164 -69 -138 8 -236 127 -225 273 7 91 62 193
123 229 79 46 111 56 196 61 72 4 98 0 155 -18 64 -21 162 -79 209 -122 29
-28 64 -33 94 -15 112 66 323 171 486 242 153 67 630 201 960 270 527 110 857
196 1075 281 63 25 162 70 220 101 191 102 294 155 335 169 111 41 173 54 261
54 119 0 145 10 169 63 15 30 31 47 60 61 57 27 243 55 440 66 93 6 178 13
188 16 18 6 18 7 1 25 -15 17 -31 19 -158 18 -78 -1 -175 -6 -216 -10z"/>
<path d="M6530 10159 c-30 -11 -73 -28 -95 -38 -22 -10 -56 -26 -75 -34 -183
-79 -330 -163 -425 -241 -103 -85 -101 -96 15 -96 80 0 90 -2 87 -17 -4 -25
-25 -62 -54 -97 -23 -28 -106 -96 -117 -96 -2 0 -39 -21 -82 -46 -43 -25 -115
-57 -163 -70 -136 -40 -193 -77 -294 -192 -39 -44 -67 -50 -67 -14 0 10 -6 26
-13 36 -13 18 -19 17 -153 -13 -76 -17 -153 -35 -170 -40 -68 -19 -134 3 -159
54 -37 80 -3 132 100 149 22 4 90 11 150 16 61 5 137 12 170 15 63 6 213 29
305 46 97 19 180 54 226 96 33 30 64 96 64 139 l0 25 -72 -6 c-66 -6 -173 -30
-253 -57 -16 -6 -96 -13 -176 -15 -122 -5 -155 -2 -205 13 -92 28 -278 25
-369 -5 -87 -29 -145 -84 -165 -155 -12 -42 -16 -47 -39 -44 -17 2 -25 8 -22
18 2 8 6 35 8 60 4 38 1 47 -16 57 -18 11 -31 7 -95 -27 -80 -41 -96 -39 -76
10 14 34 14 34 110 49 180 29 200 40 200 105 0 72 -46 112 -180 159 -350 124
-935 115 -1197 -16 -111 -57 -153 -110 -153 -195 0 -102 134 -151 265 -96 45
18 184 18 255 -1 74 -20 130 -61 157 -115 31 -63 29 -78 -19 -146 -141 -200
-150 -401 -26 -557 31 -39 34 -54 8 -34 -32 25 -83 100 -102 150 -11 29 -26
94 -34 146 -16 107 -18 111 -45 111 -25 0 -79 27 -79 40 0 6 25 10 55 10 44 0
57 -4 67 -20 7 -11 16 -20 19 -20 4 0 17 25 29 55 26 64 18 85 -34 85 -47 0
-96 17 -123 42 -29 27 -30 76 -3 137 24 51 24 51 7 51 -23 0 -115 -103 -119
-133 -3 -28 -4 -27 -38 25 -28 42 -48 60 -101 87 -67 34 -138 48 -182 37 -19
-4 -29 -20 -46 -66 -12 -33 -24 -60 -27 -60 -3 0 -14 5 -25 10 -16 9 -19 22
-19 80 0 38 -5 72 -11 75 -6 4 -31 4 -55 0 -38 -5 -50 -13 -72 -45 -15 -22
-33 -42 -41 -45 -15 -6 -51 21 -51 38 0 6 9 2 20 -8 11 -10 23 -15 27 -11 4 4
-2 15 -13 24 -12 9 -24 25 -27 35 -9 23 -54 22 -92 -3 -16 -11 -33 -20 -37
-20 -5 0 -8 24 -8 53 0 67 -21 90 -84 91 -53 1 -83 -22 -92 -71 -5 -27 -9 -31
-20 -22 -23 19 -18 121 6 152 18 23 19 27 4 41 -29 29 -159 15 -178 -19 -6
-11 -12 -22 -14 -25 -2 -2 -7 2 -13 10 -11 17 -3 63 18 104 l15 29 -44 -5
c-23 -3 -51 -9 -60 -13 -15 -6 -18 -1 -18 34 0 45 -5 48 -38 25 -24 -16 -42
-12 -42 12 0 26 -57 128 -88 158 -36 33 -118 49 -133 25 -11 -17 -2 -74 18
-112 12 -25 12 -31 -5 -55 -55 -78 -66 -113 -70 -237 -3 -104 -1 -127 17 -176
32 -85 144 -187 251 -229 53 -21 54 -23 34 -110 -3 -14 -8 -68 -11 -121 -8
-137 16 -216 92 -297 52 -56 110 -95 145 -98 9 -1 25 -6 37 -13 30 -16 35 -14
28 9 -8 27 25 27 49 1 16 -18 19 -18 64 -1 49 18 132 86 132 107 0 19 -7 16
-37 -15 -45 -45 -80 -57 -158 -56 -81 2 -113 15 -172 72 -47 46 -83 131 -83
197 0 104 82 231 180 279 67 34 163 57 212 52 84 -8 195 -73 317 -185 49 -45
61 -51 125 -62 89 -15 256 -69 332 -107 79 -40 159 -101 205 -157 61 -74 68
-110 71 -370 3 -258 0 -275 -67 -333 -48 -43 -90 -52 -246 -52 -140 0 -193 10
-204 37 -10 28 9 33 75 20 36 -6 99 -12 140 -12 84 1 142 24 179 71 61 77 119
399 91 504 -24 93 -99 163 -218 202 -57 18 -162 25 -162 9 0 -16 95 -97 130
-110 61 -22 82 -35 104 -64 19 -25 21 -41 20 -140 -2 -170 -52 -342 -103 -353
-14 -3 -34 -8 -43 -10 -26 -7 -137 16 -183 38 -75 36 -291 108 -480 158 -44
12 -110 31 -147 41 -80 23 -78 23 -78 4 0 -22 -18 -18 -25 5 -3 11 -15 20 -25
20 -9 0 -20 -9 -23 -20 -3 -11 -12 -20 -21 -20 -12 0 -15 6 -10 25 5 21 3 25
-15 25 -14 0 -21 -6 -21 -20 0 -12 -11 -32 -25 -45 -28 -29 -57 -35 -33 -7 8
9 18 24 21 33 8 23 -20 59 -45 59 -20 0 -20 -1 -5 -18 22 -25 21 -48 -3 -72
-28 -28 -44 -25 -24 4 13 22 14 29 2 53 -8 16 -23 29 -36 31 -23 4 -23 3 -7
-22 12 -18 15 -36 11 -59 l-6 -34 72 -12 c40 -7 116 -24 168 -38 52 -14 102
-27 110 -28 26 -6 144 -52 190 -74 116 -55 222 -160 258 -256 17 -46 32 -131
32 -181 0 -119 -83 -198 -370 -354 -161 -87 -208 -120 -334 -234 -61 -55 -113
-103 -116 -106 -3 -3 -48 -41 -100 -85 -112 -94 -216 -199 -236 -237 -8 -16
-18 -28 -22 -28 -4 0 -20 -23 -37 -51 -16 -28 -40 -63 -52 -78 -34 -42 -121
-233 -158 -345 -57 -173 -80 -274 -112 -486 -35 -234 -27 -475 26 -780 6 -30
13 -71 16 -90 27 -159 26 -156 89 -274 30 -56 33 -81 11 -90 -16 -6 -22 -90
-7 -100 4 -2 40 9 80 26 40 17 76 28 79 25 15 -16 -10 -59 -43 -73 -48 -20
-62 -58 -37 -104 11 -22 25 -34 37 -33 11 0 15 -4 12 -12 -4 -11 23 -33 28
-23 16 34 22 68 14 82 -11 20 -2 52 17 60 25 9 37 -31 30 -94 -5 -45 -3 -67
10 -94 16 -34 19 -35 35 -21 24 22 39 19 50 -10 5 -14 17 -25 27 -25 10 0 36
-9 59 -19 59 -27 72 -66 69 -206 -4 -155 31 -257 117 -351 37 -40 69 -60 52
-33 -4 7 1 10 12 7 11 -2 20 -13 22 -24 7 -52 177 -81 287 -50 45 13 72 29
108 64 65 63 89 112 95 194 4 58 1 75 -22 121 -45 92 -147 155 -232 142 -57
-8 -127 -55 -147 -98 -37 -77 -34 -125 8 -176 35 -40 79 -62 116 -54 29 5 41
23 17 23 -7 0 2 10 19 21 34 21 44 49 19 49 -7 0 -19 -7 -26 -15 -19 -23 -46
-18 -74 16 -30 36 -32 60 -9 100 43 73 162 60 213 -23 20 -34 27 -78 11 -78
-5 0 -11 -18 -15 -40 -3 -22 -11 -40 -16 -40 -6 0 -10 -7 -10 -14 0 -8 -16
-27 -36 -42 -68 -53 -176 -44 -252 21 -107 90 -101 284 13 383 70 62 110 76
215 76 85 0 101 -3 153 -29 127 -63 220 -201 241 -356 l10 -78 56 -12 c90 -18
100 -21 100 -30 0 -5 11 -9 24 -9 52 0 88 14 133 54 l47 41 120 1 c121 0 161
10 179 40 12 20 27 17 27 -5 0 -20 17 -37 27 -28 3 4 1 20 -5 36 -6 17 -9 31
-6 31 14 0 32 -29 39 -61 4 -19 22 -63 41 -98 19 -35 34 -67 32 -72 -2 -5 -31
16 -66 46 -70 61 -112 73 -112 32 0 -27 17 -47 40 -47 9 0 51 -22 95 -50 43
-27 108 -61 145 -75 80 -30 187 -43 219 -26 12 7 41 14 63 17 80 8 189 98 228
190 28 65 36 169 17 215 -23 56 -111 144 -168 169 -43 18 -62 20 -137 15 -70
-4 -91 -10 -118 -30 -43 -33 -84 -117 -84 -174 0 -34 -3 -42 -10 -31 -14 22
-2 108 21 157 28 57 100 117 167 139 107 33 250 -3 328 -84 81 -83 133 -213
134 -329 0 -28 5 -64 10 -79 l11 -27 80 7 c116 10 149 30 149 92 0 18 5 24 21
24 19 0 21 -4 16 -33 -3 -19 -1 -40 3 -47 12 -19 -6 -50 -28 -50 -10 0 -26 -6
-37 -13 -17 -13 -17 -15 4 -36 17 -17 32 -21 69 -20 68 3 76 8 56 30 -16 18
-16 19 12 19 16 0 44 -4 62 -9 17 -5 32 -7 33 -3 0 4 2 23 4 44 3 47 35 91 81
113 19 9 52 28 71 41 35 23 75 30 107 18 25 -9 19 -22 -8 -17 -32 6 -75 -18
-118 -65 -45 -49 -55 -90 -33 -131 l16 -31 102 0 c123 0 144 -9 105 -45 -16
-13 -28 -30 -28 -38 0 -43 106 -82 203 -75 37 3 42 6 39 26 -4 27 2 28 28 2
14 -14 33 -20 63 -20 l42 1 -30 16 c-39 20 -132 110 -151 145 -23 44 -15 128
12 128 8 0 14 -4 14 -9 0 -12 67 -46 106 -54 l32 -6 4 73 c3 69 6 78 51 143
28 40 47 79 47 96 0 21 5 27 21 27 15 0 19 -5 15 -17 -3 -10 -15 -49 -27 -87
-25 -82 -26 -143 -5 -184 9 -17 16 -38 16 -47 0 -8 3 -14 8 -13 4 1 26 -8 49
-20 25 -13 60 -22 85 -22 49 0 107 31 115 61 7 24 23 25 23 2 -2 -51 -21 -107
-55 -158 -33 -51 -37 -61 -32 -105 3 -27 8 -54 12 -60 10 -17 64 18 87 56 11
19 23 33 25 30 14 -14 -14 -66 -54 -104 l-46 -42 24 -60 c25 -63 39 -76 40
-37 l0 22 12 -23 c8 -18 8 -28 -1 -43 -29 -46 129 -254 224 -294 20 -8 40 -15
45 -15 22 0 5 32 -36 72 -39 37 -48 55 -70 133 -48 165 -51 245 -17 385 15 62
62 140 84 140 11 0 2 -76 -18 -144 -19 -66 -30 -236 -16 -236 6 0 18 26 27 57
45 156 104 233 178 233 40 0 58 -17 30 -27 -34 -11 -83 -54 -100 -86 -15 -27
-18 -60 -18 -207 l0 -175 30 -54 c27 -49 106 -131 126 -131 16 0 49 40 49 58
0 9 -9 50 -20 90 -33 120 -23 242 23 281 15 12 17 11 17 -7 0 -11 -9 -39 -20
-63 -24 -54 -25 -97 -3 -129 10 -14 16 -27 15 -30 -2 -2 1 -6 5 -7 5 -2 17 32
26 75 16 72 66 172 86 172 4 0 7 -62 8 -137 0 -136 12 -199 43 -218 16 -10 12
-40 -9 -67 -17 -21 -20 -45 -23 -228 l-3 -205 -34 -62 c-18 -34 -59 -89 -91
-121 -51 -53 -57 -64 -63 -113 -8 -71 7 -177 31 -208 26 -36 84 -39 147 -10
50 23 88 68 126 145 24 50 80 114 99 114 17 0 7 -97 -14 -139 -9 -17 -41 -49
-72 -72 -79 -60 -106 -110 -107 -204 -2 -63 -5 -74 -17 -69 -8 3 -32 8 -53 11
-31 5 -44 14 -69 52 -18 25 -37 51 -43 56 -7 6 -22 27 -34 47 l-22 38 -38 -19
c-20 -11 -43 -27 -50 -35 -17 -21 -41 -20 -41 0 0 21 63 84 84 84 22 0 20 8
-10 47 -14 18 -37 58 -51 89 -19 43 -29 54 -42 49 -9 -3 -35 -11 -59 -18 -38
-10 -44 -9 -62 9 -29 29 -26 59 15 159 44 107 53 175 28 225 -26 50 -55 62
-138 55 -132 -10 -191 -46 -301 -179 l-40 -50 -70 12 c-38 7 -98 24 -133 38
-155 63 -403 35 -609 -69 -164 -82 -196 -101 -562 -337 -157 -101 -194 -118
-310 -139 -135 -25 -253 -107 -346 -239 -42 -60 -44 -66 -44 -136 0 -96 21
-161 75 -235 34 -46 59 -68 104 -91 62 -31 157 -48 188 -34 12 5 -2 10 -48 14
-97 9 -196 67 -220 128 -19 50 -41 179 -36 219 11 101 98 217 199 266 140 69
247 62 456 -27 54 -23 68 -25 100 -16 65 18 153 13 177 -10 18 -17 27 -19 48
-11 14 5 28 15 32 20 4 7 71 11 190 11 l185 0 31 -28 c24 -21 32 -38 36 -75
11 -91 -5 -97 -357 -148 -118 -17 -191 -38 -247 -72 -86 -51 -71 -54 270 -56
l302 -1 40 -47 c91 -109 165 -174 233 -206 63 -30 74 -32 177 -32 108 0 112 1
162 33 119 76 163 150 163 272 0 88 -20 139 -74 193 -65 65 -144 87 -227 63
-98 -29 -148 -93 -149 -190 0 -70 29 -121 85 -152 45 -24 45 -35 -1 -21 -54
17 -110 78 -124 138 -39 159 91 309 267 309 24 0 51 5 61 11 13 8 30 5 72 -14
116 -52 194 -135 196 -206 0 -20 9 -65 19 -101 14 -51 16 -86 12 -160 -3 -53
-3 -101 2 -108 7 -11 92 -42 119 -42 6 0 12 8 12 18 0 43 33 125 76 187 40 58
45 72 40 101 -6 27 -4 33 8 28 8 -3 18 -14 21 -24 3 -10 28 -39 55 -64 28 -26
50 -49 50 -51 0 -3 -22 -5 -48 -5 -40 0 -53 -5 -74 -27 -13 -16 -31 -43 -38
-61 -16 -41 -9 -178 11 -210 17 -29 208 -126 213 -109 23 78 34 321 16 332
-26 16 -8 27 34 22 47 -7 186 -64 186 -77 0 -4 -20 -11 -45 -14 -127 -19 -168
-201 -68 -302 34 -34 78 -51 148 -56 l40 -3 0 143 c0 116 3 144 15 152 21 14
36 12 50 -5 11 -13 9 -18 -10 -32 -21 -15 -22 -20 -16 -92 14 -167 128 -303
272 -326 53 -8 55 -2 39 106 -17 112 -48 190 -92 233 l-37 35 101 -6 c117 -7
160 2 271 55 40 19 75 32 79 28 3 -3 1 -17 -5 -31 -16 -34 -15 -60 1 -73 7 -6
62 -22 122 -36 255 -57 651 -21 888 81 47 20 64 23 85 15 80 -30 287 -35 331
-7 6 3 11 2 11 -2 0 -5 -22 -17 -49 -27 -27 -9 -52 -24 -55 -33 -5 -13 -9 -13
-22 -2 -14 11 -18 10 -30 -5 -12 -17 -15 -17 -36 -4 -41 27 -118 38 -192 27
-65 -9 -119 -31 -266 -112 -117 -64 -247 -84 -306 -48 -37 23 -136 46 -158 38
-24 -9 -21 -88 4 -120 20 -25 26 -47 14 -47 -3 0 -35 31 -70 69 -67 72 -146
121 -195 121 -42 0 -79 -20 -85 -47 -4 -13 -12 -23 -19 -23 -13 0 -112 93
-143 134 -12 14 -23 16 -70 11 -85 -10 -92 -13 -92 -44 0 -44 28 -114 62 -155
39 -47 90 -80 158 -100 50 -15 170 -22 170 -11 0 3 -7 17 -16 30 -8 13 -14 35
-12 50 3 25 4 25 91 -35 48 -32 106 -65 128 -71 35 -11 45 -10 84 9 l44 21 68
-40 c65 -39 71 -40 138 -36 39 2 85 11 104 21 l33 18 -28 29 -28 29 32 0 c18
0 49 -7 69 -15 19 -8 65 -15 100 -15 68 0 83 9 145 88 28 34 64 38 158 13 106
-27 120 -27 178 3 96 50 96 47 22 117 -36 33 -56 58 -45 54 52 -17 195 -45
233 -45 32 0 61 10 108 36 35 20 64 40 64 45 0 5 -16 19 -35 30 -60 36 -46 45
58 41 86 -4 98 -2 146 22 48 25 221 178 221 196 0 4 -21 13 -47 19 -50 13
-199 79 -192 85 2 2 31 0 64 -5 33 -5 116 -10 185 -11 152 -2 193 12 256 88
41 50 84 116 84 129 0 3 -33 4 -72 0 -57 -5 -93 -2 -163 14 -102 24 -212 41
-267 41 -27 0 -46 -8 -71 -30 -19 -16 -39 -30 -44 -30 -5 0 -22 14 -38 30 -34
36 -45 38 -38 7 4 -15 -6 -8 -31 25 -110 138 -301 187 -449 114 -69 -33 -86
-29 -25 7 59 34 111 47 190 47 90 0 175 -33 290 -112 l90 -63 35 40 c102 117
238 366 296 542 57 171 78 315 78 526 0 110 -5 184 -11 192 -6 7 -8 20 -4 28
3 9 -7 34 -25 60 -37 55 -45 85 -33 130 9 32 6 41 -31 102 -40 66 -41 69 -41
165 -1 80 2 101 17 117 17 19 17 22 -3 68 -20 48 -21 48 -42 29 -11 -11 -27
-33 -34 -51 -23 -53 -19 -87 21 -188 18 -45 -58 42 -81 93 -31 71 -38 114 -24
156 10 32 53 79 81 88 7 2 5 15 -6 39 -16 34 -20 36 -49 29 -80 -18 -126 -69
-126 -141 0 -60 10 -81 63 -136 22 -24 38 -45 36 -48 -6 -5 -106 53 -158 92
-64 49 -80 144 -36 219 35 60 115 99 185 90 28 -4 50 -4 50 -1 0 20 -26 48
-60 65 -57 29 -123 26 -183 -8 -42 -23 -52 -35 -73 -86 -13 -33 -37 -79 -54
-102 -29 -41 -30 -45 -19 -87 18 -75 78 -122 166 -133 79 -9 81 -16 13 -31
-123 -26 -163 -27 -207 -5 -38 20 -74 55 -99 98 -10 17 -12 17 -45 -6 -62 -44
-63 -55 -9 -114 87 -95 189 -108 277 -36 53 44 65 45 35 3 -10 -15 -22 -37
-26 -49 -11 -34 -58 -72 -108 -85 -43 -12 -53 -11 -98 8 l-50 21 6 -26 c12
-56 16 -63 42 -73 52 -20 173 19 212 69 12 15 20 40 20 66 l1 41 15 -35 c18
-41 12 -90 -14 -112 -35 -30 -172 -88 -206 -88 -32 0 -36 -3 -36 -25 0 -26 10
-27 67 -10 6 2 14 1 17 -2 3 -4 -12 -14 -35 -24 -22 -11 -38 -23 -34 -29 4 -6
8 -38 10 -71 2 -43 8 -64 20 -73 14 -10 16 -20 10 -47 -4 -19 -8 -80 -10 -137
-6 -245 -48 -410 -157 -632 -64 -129 -82 -152 -185 -232 -131 -101 -211 -251
-213 -395 0 -46 -13 -41 -40 17 -36 77 -38 78 -132 32 -46 -22 -100 -46 -120
-53 -21 -7 -38 -17 -38 -22 0 -4 -4 -6 -9 -3 -15 10 -88 -35 -100 -61 -6 -13
-11 -37 -11 -53 0 -17 -4 -30 -8 -30 -14 0 -32 48 -32 85 0 32 -3 35 -28 35
-37 0 -44 -8 -31 -32 8 -14 8 -23 0 -31 -7 -7 -21 1 -47 27 -31 31 -42 36 -75
34 -36 -3 -37 -4 -25 -23 7 -11 27 -26 45 -34 41 -19 35 -35 -17 -39 -52 -4
-97 19 -118 61 -19 35 -22 104 -6 134 8 14 6 25 -8 43 -18 24 -18 24 -41 5
-12 -11 -31 -40 -41 -64 -18 -38 -18 -49 -8 -87 7 -24 30 -64 52 -88 60 -69
11 -72 -64 -4 -63 57 -83 133 -53 204 11 27 26 40 64 57 28 12 51 25 51 28 0
18 -103 104 -155 129 -61 29 -151 52 -110 28 19 -11 19 -11 0 -19 -11 -4 -32
-8 -47 -8 -30 -1 -78 -51 -78 -81 0 -32 22 -70 42 -70 10 0 17 3 17 8 -5 30 4
65 21 82 16 16 33 20 85 20 37 0 65 -4 65 -10 0 -5 -9 -10 -20 -10 -36 0 -89
-32 -101 -62 -10 -25 -9 -31 7 -43 25 -19 32 -19 39 5 13 41 53 60 126 60 39
0 69 -4 69 -10 0 -5 -12 -10 -26 -10 -76 0 -145 -81 -125 -146 5 -16 12 -45
15 -65 4 -21 13 -42 21 -49 16 -13 21 -50 6 -50 -5 0 -14 7 -21 15 -16 19 -30
19 -30 0 0 -23 -59 -84 -104 -108 -58 -30 -175 -30 -231 1 -75 40 -143 119
-152 175 -2 18 -13 44 -24 60 -16 22 -17 27 -4 27 25 0 19 59 -9 85 -13 12
-25 28 -28 36 -10 27 -18 2 -24 -72 -3 -41 -8 -76 -9 -77 -9 -10 -25 81 -25
143 0 39 -4 75 -8 80 -4 6 -23 18 -42 28 -20 10 -41 27 -48 38 -11 18 -10 19
10 16 13 -2 45 -13 72 -26 l49 -23 103 104 c57 56 109 114 116 128 7 14 20 36
28 50 9 14 27 51 39 82 23 57 46 74 58 42 7 -18 -10 -81 -37 -136 l-17 -36 31
-6 c17 -4 40 -17 51 -31 19 -23 23 -24 67 -14 26 6 63 21 83 35 20 13 49 31
65 39 16 8 84 69 152 135 85 83 128 118 139 115 19 -6 110 33 122 52 4 7 14
10 22 7 8 -4 27 5 43 18 26 21 37 23 128 23 54 0 138 -7 186 -14 l88 -14 -18
-29 c-43 -74 -88 -123 -115 -126 -15 -2 -27 -9 -27 -15 0 -16 48 -69 82 -91
26 -17 28 -16 81 9 85 40 90 53 85 214 -4 116 -8 143 -27 184 -13 26 -35 56
-50 66 -88 61 -241 64 -443 8 -157 -43 -529 -35 -658 15 -133 51 -190 175
-190 414 0 101 0 101 36 148 23 30 34 54 31 67 -6 23 8 25 21 3 7 -13 19 -4
67 48 31 34 64 79 73 98 17 40 20 155 5 185 -6 11 -8 26 -6 32 5 13 88 73 102
73 5 0 14 7 21 15 8 9 17 12 22 7 5 -5 -6 -24 -26 -44 -35 -35 -36 -38 -31
-94 3 -33 8 -103 11 -157 6 -94 7 -98 27 -91 61 18 78 61 84 208 4 117 16 173
37 188 7 5 1 17 -16 33 -16 14 -33 45 -39 70 -7 29 -22 55 -41 70 -31 26 -48
32 -48 15 0 -5 7 -10 15 -10 8 0 15 -5 15 -11 0 -7 -9 -9 -24 -5 -14 3 -37 -1
-57 -12 -25 -12 -58 -17 -121 -17 l-88 0 0 -38 c0 -21 -4 -46 -10 -56 -10 -20
-67 -47 -77 -38 -3 4 6 11 20 16 32 12 47 39 47 84 0 31 -24 67 -45 67 -5 0
-17 7 -27 17 -17 15 -18 14 -18 -20 0 -40 -35 -89 -81 -112 -60 -31 -126 -14
-318 83 -96 49 -150 159 -121 247 16 49 125 164 177 187 48 21 52 26 58 65 2
16 8 48 14 73 5 24 9 46 7 47 -1 2 -47 -6 -102 -16 -176 -34 -295 -89 -401
-185 l-53 -48 -34 16 c-18 9 -41 27 -50 41 -14 21 -20 24 -37 14 -27 -14 -38
-3 -15 14 17 12 14 17 -34 60 -83 75 -228 137 -322 137 -48 0 -49 18 -3 48 46
29 44 52 -7 97 -104 89 -236 153 -319 156 l-24 0 23 11 c12 6 22 16 22 21 0
16 -88 95 -150 135 -30 20 -93 55 -138 79 -72 37 -92 43 -146 43 -34 0 -95 -9
-135 -20 -128 -36 -264 -35 -312 0 -24 19 -24 20 -21 162 4 183 17 285 49 376
14 40 22 76 18 80 -3 4 -55 9 -115 10 -116 4 -242 -16 -410 -64 -123 -35 -293
-55 -460 -53 l-144 1 -17 -38 c-30 -72 -91 -104 -195 -104 -60 0 -74 -4 -152
-47 -77 -42 -94 -48 -147 -48 -155 1 -286 77 -301 177 l-7 41 -19 -36 c-10
-20 -27 -41 -39 -47 -15 -8 -18 -17 -13 -33 23 -74 92 -117 204 -127 81 -8
190 -36 190 -50 0 -20 -37 -18 -80 4 -46 24 -49 24 -103 10 -49 -12 -63 -12
-123 2 -119 27 -163 63 -172 141 -3 27 -12 53 -21 60 -14 10 -12 13 12 24 15
7 27 16 27 20 0 5 13 23 29 41 15 18 38 52 50 75 27 54 59 73 78 48 12 -17 14
-15 28 18 8 20 15 54 15 76 0 29 7 48 26 68 20 21 24 23 19 8 -13 -35 -28
-229 -21 -267 10 -53 56 -109 117 -143 47 -25 64 -29 129 -29 52 0 92 7 129
22 30 12 79 26 110 33 73 15 124 41 150 77 l20 29 -51 6 c-43 6 -61 2 -112
-22 -73 -35 -196 -50 -264 -32 -52 14 -116 70 -145 125 -16 31 -21 63 -24 132
-2 92 -13 126 -55 176 -10 12 -18 26 -18 33 0 6 -13 24 -30 40 -28 27 -30 33
-30 106 0 43 3 79 8 81 10 4 83 95 115 143 31 45 36 71 8 38 -11 -13 -22 -23
-25 -23 -14 0 26 61 50 76 17 11 22 20 15 27 -7 7 -18 4 -35 -7 -25 -16 -26
-16 -26 3 0 25 25 45 50 38 24 -6 38 11 16 19 -9 3 -16 10 -16 15 0 4 6 6 14
3 30 -12 26 89 -7 181 -39 105 -109 179 -203 214 -178 67 -374 -43 -397 -222
-8 -61 -17 -56 -17 9 0 112 69 211 185 268 52 26 73 30 157 33 89 2 106 0 197
-32 55 -19 107 -35 115 -35 9 0 32 30 53 68 21 37 58 95 83 130 56 79 246 299
268 311 10 5 42 43 72 85 51 71 109 116 148 116 25 0 9 -19 -87 -108 -154
-142 -186 -206 -141 -279 31 -52 70 -65 200 -70 101 -4 127 -2 214 21 107 28
156 57 182 107 23 45 15 71 -25 82 -19 4 -61 27 -94 49 -59 40 -167 142 -167
157 0 5 7 14 15 21 13 11 19 9 32 -11 55 -81 162 -147 253 -156 56 -5 63 -4
77 17 13 18 21 21 52 15 107 -19 156 12 175 113 5 29 2 34 -22 44 -15 6 -78
35 -139 65 -115 56 -153 88 -153 129 0 13 -3 24 -8 24 -4 0 -43 -21 -87 -46
-144 -84 -154 -89 -160 -82 -11 11 34 87 74 126 21 20 90 68 152 107 149 92
204 138 271 227 92 120 157 273 209 487 13 52 33 109 46 128 28 41 93 170 100
198 20 79 23 135 13 190 -35 191 -173 315 -348 315 -190 -1 -333 -181 -277
-349 54 -165 272 -216 370 -87 32 42 43 41 21 -2 -78 -151 -315 -127 -404 42
-36 69 -38 188 -5 256 30 60 87 122 115 126 13 1 43 9 67 18 27 10 76 16 131
16 80 0 93 -3 157 -35 118 -59 200 -166 256 -335 l15 -45 61 -3 62 -3 15 37
c12 28 13 43 5 61 -9 20 -18 23 -61 23 -67 0 -82 9 -119 75 -17 30 -35 55 -39
55 -4 0 -16 14 -26 31 -25 43 -131 117 -196 136 -69 21 -90 38 -35 28 81 -14
221 -101 278 -172 10 -13 23 -23 28 -23 5 0 9 51 9 115 l0 115 29 0 c25 0 29
-4 34 -37 13 -78 38 -140 71 -176 40 -44 89 -50 136 -16 19 14 36 20 52 16
108 -28 166 -37 249 -37 111 0 99 10 142 -130 31 -102 71 -165 140 -223 79
-66 125 -82 234 -82 75 0 96 3 110 18 16 16 16 17 -5 17 -12 0 -22 -3 -22 -7
0 -10 -62 -9 -116 1 -90 17 -187 104 -223 200 -26 71 -27 155 -2 229 64 186
227 283 497 296 26 1 86 55 323 291 140 140 205 198 264 233 43 26 82 47 87
47 6 0 10 4 10 9 0 5 24 16 53 26 76 25 197 121 197 156 0 16 -142 7 -200 -12z"/>
<path d="M9982 9680 c-39 -24 -102 -120 -127 -194 -33 -98 -3 -154 120 -219
l60 -32 6 -135 c4 -108 10 -146 28 -190 20 -49 59 -105 67 -97 2 2 -9 32 -23
67 -23 54 -27 80 -27 155 0 104 13 146 79 263 25 44 45 86 45 94 0 8 -19 32
-41 53 -64 61 -118 150 -125 206 -7 55 -14 58 -62 29z"/>
<path d="M9705 9636 c-25 -25 -75 -124 -75 -148 0 -8 -5 -19 -10 -24 -6 -6
-11 -44 -11 -84 0 -60 4 -82 28 -128 40 -80 76 -99 162 -84 82 14 90 22 58 64
-38 51 -51 104 -51 213 -1 78 3 107 17 133 22 40 12 57 -42 72 -49 13 -48 13
-76 -14z"/>
<path d="M9450 9538 c-11 -18 -20 -36 -20 -40 0 -5 -7 -8 -15 -8 -8 0 -15 -4
-15 -9 0 -5 -20 -14 -44 -20 -29 -7 -54 -22 -71 -43 -24 -29 -27 -38 -23 -94
3 -48 11 -74 36 -113 29 -47 30 -51 11 -51 -11 0 -37 17 -59 38 l-39 37 -3
115 -3 115 -58 3 c-54 3 -57 2 -57 -21 0 -47 -17 -54 -135 -60 -77 -4 -127
-12 -165 -26 -60 -23 -74 -25 -66 -13 3 5 38 21 78 37 87 34 74 45 -20 16
-124 -37 -241 -140 -283 -249 -24 -60 -32 -186 -16 -247 7 -28 6 -28 -7 -11
-34 43 -32 187 5 293 10 31 17 59 14 61 -13 13 -47 -37 -64 -92 -39 -129 -19
-263 56 -374 24 -36 42 -67 39 -69 -5 -6 -95 97 -111 127 -26 49 -37 151 -31
263 8 122 6 124 -69 87 -73 -35 -86 -52 -104 -140 -20 -96 -32 -131 -41 -125
-7 5 -12 24 -25 110 -1 6 -3 29 -3 53 l-2 43 -29 -15 c-44 -23 -90 -65 -107
-98 -8 -16 -23 -62 -34 -101 -14 -57 -22 -72 -36 -72 -26 0 -30 44 -9 107 9
28 13 53 10 56 -9 9 -98 -17 -117 -35 -29 -26 -41 -80 -36 -169 4 -76 3 -82
-13 -73 -10 5 -20 23 -24 41 -8 38 -81 194 -95 203 -5 3 -7 -28 -4 -77 3 -51
0 -110 -8 -153 -15 -82 -13 -115 9 -115 9 0 46 9 83 20 37 11 110 31 161 45
52 14 101 27 109 30 299 104 334 114 360 100 24 -13 60 -55 60 -70 0 -4 -14 4
-31 16 -28 20 -35 21 -72 9 -23 -6 -75 -27 -115 -46 -78 -35 -78 -36 -39 -86
19 -24 98 -24 194 -1 l72 16 79 -36 c111 -51 157 -60 269 -55 70 3 111 10 143
25 63 28 146 106 178 167 23 44 27 63 27 141 0 78 -4 97 -27 141 -52 98 -139
148 -248 142 -52 -3 -76 -10 -109 -31 -144 -95 -126 -302 29 -348 59 -18 113
1 150 53 17 23 30 54 30 70 0 15 5 28 11 28 8 0 10 -17 7 -50 -6 -60 -40 -102
-106 -132 -56 -25 -117 -16 -180 26 -138 93 -122 309 31 415 86 59 222 71 319
27 112 -50 182 -123 255 -266 l38 -75 259 -3 c249 -2 260 -2 278 18 12 12 32
20 52 20 35 0 62 -26 96 -94 23 -46 141 -158 198 -189 91 -50 245 -53 329 -6
91 50 150 132 163 228 29 212 -212 365 -358 228 -71 -66 -68 -194 6 -243 30
-19 88 -22 120 -5 36 19 26 31 -22 25 -54 -8 -83 7 -102 53 -19 44 -5 92 37
127 60 51 144 43 197 -19 77 -87 62 -208 -34 -282 -58 -43 -214 -47 -256 -5
-6 6 -17 12 -22 12 -18 0 -71 72 -90 120 -24 61 -23 151 4 222 16 44 35 70 81
112 81 72 165 101 277 93 114 -7 206 -54 351 -179 8 -6 28 -11 45 -11 52 2
250 32 274 43 13 6 36 10 53 10 16 0 37 4 47 9 9 5 37 14 62 21 64 17 169 60
185 76 7 8 18 14 24 14 6 0 11 5 11 11 0 20 -443 4 -575 -21 -189 -36 -184
-36 -253 -1 -238 120 -495 56 -598 -147 -37 -72 -44 -175 -19 -251 34 -104
131 -189 233 -206 23 -4 40 -11 36 -16 -12 -20 -103 -7 -184 28 -8 3 -21 5
-27 4 -7 -1 -13 5 -13 14 0 8 -6 15 -13 15 -18 0 -94 102 -121 162 -13 29 -31
91 -41 138 -10 47 -24 91 -31 99 -12 13 -50 10 -159 -16 -11 -2 -67 -13 -125
-23 -58 -10 -127 -24 -155 -30 -99 -22 -207 -39 -221 -33 -8 3 -30 27 -50 54
-19 26 -65 76 -101 109 -36 33 -61 60 -56 60 13 0 54 -32 126 -97 62 -56 69
-58 157 -43 174 29 245 43 249 46 4 3 -39 76 -50 84 -4 3 -20 32 -37 65 -34
65 -43 123 -32 185 7 37 5 42 -20 60 -36 26 -37 26 -60 -12z"/>
<path d="M729 9321 c-104 -33 -176 -98 -222 -199 -32 -72 -30 -190 5 -257 50
-93 117 -148 198 -161 34 -6 42 -4 38 7 -2 7 -21 17 -42 21 -189 40 -264 248
-152 426 55 88 150 143 260 150 166 10 267 -41 428 -220 l33 -37 155 -10 c207
-14 407 -55 457 -93 6 -5 31 -41 54 -81 46 -78 138 -181 182 -203 43 -23 31
-3 -27 43 -62 49 -112 120 -162 232 -32 71 -41 81 -76 95 -21 9 -152 39 -291
67 -327 65 -321 63 -398 119 -36 27 -85 58 -107 69 -101 51 -233 64 -333 32z"/>
<path d="M2355 9249 c-91 -22 -178 -119 -197 -217 -17 -94 37 -198 126 -241
45 -22 111 -28 121 -11 3 6 14 10 24 10 40 0 101 82 101 136 0 33 -25 81 -49
94 -32 17 -36 11 -11 -15 18 -19 23 -35 21 -72 -2 -52 -16 -74 -68 -98 -97
-46 -201 41 -191 160 8 97 90 167 198 169 69 1 131 -31 177 -92 41 -54 56
-110 51 -189 -3 -53 -10 -71 -44 -120 -61 -89 -162 -147 -252 -145 -20 1 -30
-3 -26 -9 10 -16 103 0 159 28 136 67 205 207 173 351 -4 18 -3 32 2 32 13 0
23 -84 17 -150 -7 -80 -38 -143 -100 -203 -60 -58 -137 -100 -215 -118 -109
-26 -26 -33 93 -9 99 21 177 88 231 198 24 50 28 69 28 152 0 81 -3 101 -23
140 -35 66 -60 97 -103 125 -44 30 -50 31 -41 8 5 -13 3 -15 -13 -9 -80 33
-166 33 -230 -1 -85 -44 -128 -165 -91 -256 22 -52 1 -47 -23 6 -74 163 55
339 249 339 121 0 245 -81 300 -195 34 -71 51 -180 41 -262 -17 -130 -15 -144
25 -161 45 -18 125 -30 125 -17 0 5 -18 20 -41 33 -82 50 -78 43 -84 172 -5
139 -34 236 -91 305 -54 66 -73 82 -134 111 -61 29 -163 39 -235 21z"/>
<path d="M8980 9204 c57 -25 145 -127 168 -192 6 -18 10 -69 9 -115 -2 -71 -7
-92 -35 -149 -35 -72 -105 -144 -176 -181 -57 -29 -253 -31 -374 -3 -82 19
-85 19 -118 1 -79 -42 -144 -157 -152 -267 -6 -90 -24 -88 -40 2 -17 99 -15
140 8 183 l20 37 -43 0 c-65 0 -138 -26 -184 -64 -51 -44 -81 -122 -92 -237
-7 -77 -8 -82 -19 -56 -7 16 -12 76 -12 138 l0 109 -26 0 c-38 0 -92 -28 -115
-61 -11 -16 -31 -55 -44 -86 -32 -80 -45 -79 -45 1 0 65 0 66 -27 66 -58 0
-235 -38 -293 -62 -48 -21 -100 -81 -100 -118 0 -41 -10 -60 -31 -60 -12 0
-19 7 -19 19 0 33 -11 51 -41 67 -25 13 -33 13 -63 0 -31 -13 -37 -22 -56 -85
-19 -66 -40 -101 -40 -67 0 8 -16 31 -35 51 -40 43 -53 42 -170 -6 -126 -52
-357 -220 -474 -344 -50 -53 -53 -58 -35 -68 29 -17 178 -11 279 11 50 11 169
52 265 92 96 39 180 72 185 73 6 2 15 5 20 9 18 11 148 46 285 77 74 17 168
41 208 52 40 12 78 22 85 23 7 1 55 12 107 24 108 24 245 52 275 56 71 9 201
30 260 42 39 8 212 23 385 33 379 24 433 28 485 43 79 23 81 33 24 147 -38 74
-41 87 -37 141 6 79 54 153 115 176 23 9 46 13 52 10 5 -4 -19 -34 -54 -69
-36 -35 -67 -75 -71 -91 -7 -30 11 -146 28 -179 10 -20 29 -43 66 -86 l24 -26
171 0 c134 0 189 4 251 19 79 19 80 19 58 37 -13 10 -34 44 -48 76 -26 56 -26
63 -21 211 l5 154 -32 19 c-17 10 -39 19 -49 19 -22 0 -95 -66 -132 -120 -27
-40 -28 -42 -21 -143 5 -92 9 -106 36 -145 34 -48 35 -52 17 -52 -23 0 -75 63
-87 105 -17 59 -10 241 12 283 l16 32 -114 0 c-110 0 -114 1 -118 23 -6 24
-26 161 -26 174 -1 22 -20 -26 -20 -49 0 -31 -43 -155 -59 -171 -22 -22 -20 2
4 55 48 104 42 227 -17 337 -28 53 -101 117 -143 125 -16 4 -23 3 -15 0z"/>
<path d="M7473 9150 c63 -70 88 -129 94 -220 5 -81 -14 -180 -42 -210 -8 -9
-15 -22 -15 -28 0 -7 -8 -20 -18 -29 -62 -60 -112 -103 -112 -98 0 4 -13 -3
-28 -14 -26 -18 -131 -58 -177 -67 -61 -12 -75 -18 -100 -44 l-27 -29 35 -6
c40 -8 85 0 137 22 79 34 216 102 235 117 36 29 96 66 105 66 30 0 75 210 65
305 -7 62 -40 148 -74 191 -23 29 -102 94 -114 94 -5 0 11 -22 36 -50z"/>
<path d="M4388 9035 c14 -29 33 -164 28 -205 -22 -212 -27 -196 61 -223 73
-24 144 -22 177 4 36 28 37 105 3 145 -21 24 -32 27 -99 32 -69 4 -76 7 -91
32 -9 15 -14 29 -11 32 7 8 -43 161 -61 183 -16 20 -16 20 -7 0z"/>
<path d="M977 8932 c-12 -82 -33 -124 -77 -155 -40 -28 -51 -47 -27 -47 16 1
57 35 57 49 0 7 7 14 15 17 23 9 47 85 43 140 l-3 49 -8 -53z"/>
<path d="M9915 8759 c-100 -53 -137 -119 -139 -250 -1 -79 1 -89 29 -134 52
-85 133 -125 251 -125 l58 0 -33 34 c-38 39 -71 135 -71 204 0 51 31 129 53
138 8 3 50 -7 93 -22 58 -20 103 -28 169 -30 l90 -3 -84 15 c-45 8 -107 26
-136 40 -52 24 -207 130 -213 146 -6 13 -25 9 -67 -13z"/>
<path d="M7875 8635 c-166 -54 -288 -101 -371 -142 -44 -21 -98 -45 -121 -53
-24 -7 -43 -17 -43 -21 0 -28 186 -17 290 18 64 21 240 98 344 150 86 43 88
45 70 64 -23 26 -51 23 -169 -16z"/>
<path d="M2160 8650 c0 -5 5 -10 10 -10 6 0 10 5 10 10 0 6 -4 10 -10 10 -5 0
-10 -4 -10 -10z"/>
<path d="M2200 8630 c0 -5 7 -10 16 -10 8 0 12 5 9 10 -3 6 -10 10 -16 10 -5
0 -9 -4 -9 -10z"/>
<path d="M10433 8583 c9 -2 23 -2 30 0 6 3 -1 5 -18 5 -16 0 -22 -2 -12 -5z"/>
<path d="M4313 8548 c-22 -25 -26 -129 -7 -170 21 -47 36 -50 208 -46 l129 3
16 46 c9 25 26 59 38 76 l23 31 -43 20 c-66 31 -113 41 -237 48 -94 5 -118 4
-127 -8z"/>
<path d="M1831 8501 c-14 -25 -3 -33 23 -16 46 33 130 6 148 -46 7 -19 16 -29
27 -27 29 6 24 37 -12 73 -33 33 -38 35 -106 35 -58 0 -72 -3 -80 -19z"/>
<path d="M1876 8461 c-3 -5 5 -12 18 -15 13 -3 32 -9 43 -12 16 -6 16 -5 3 9
-19 19 -57 30 -64 18z"/>
<path d="M4246 8251 l-39 -40 18 -27 c49 -75 137 -129 239 -145 l61 -10 28 33
c43 50 58 85 55 126 l-3 36 -82 13 c-46 7 -110 22 -143 33 -81 27 -90 26 -134
-19z"/>
<path d="M9780 8180 c-30 -5 -116 -13 -190 -20 -74 -6 -200 -18 -280 -26 -226
-23 -233 -23 -455 -39 -274 -20 -333 -23 -495 -30 -161 -8 -315 -28 -425 -57
-106 -28 -235 -77 -235 -90 0 -13 219 -3 371 17 62 8 175 28 249 44 271 60
394 65 985 46 105 -3 224 -8 265 -10 111 -7 557 -33 775 -45 213 -12 332 -24
450 -46 304 -56 363 -61 432 -33 29 12 51 25 48 29 -10 16 -195 99 -298 134
-197 66 -450 105 -811 126 -201 11 -306 11 -386 0z"/>
<path d="M4185 8031 c-11 -5 -23 -7 -27 -5 -4 3 -9 0 -13 -6 -3 -5 -14 -10
-24 -10 -40 0 -66 -52 -62 -127 3 -63 103 -114 224 -114 119 0 171 39 172 128
l0 56 -109 43 c-111 45 -126 48 -161 35z"/>
<path d="M8630 7806 c-11 -22 -36 -66 -56 -96 -45 -72 -57 -119 -52 -210 4
-73 37 -169 72 -210 7 -8 16 -27 20 -42 3 -15 15 -30 26 -33 11 -4 35 -20 53
-36 17 -16 73 -50 122 -76 50 -25 118 -66 152 -90 130 -92 228 -114 345 -79
25 8 49 11 53 8 4 -4 5 -2 3 3 -2 6 16 29 39 52 60 60 63 83 22 141 -33 45
-34 52 -37 149 -5 127 11 181 71 245 60 64 281 207 321 208 6 0 22 9 35 19
l23 18 -33 15 c-38 18 -140 34 -276 44 l-91 6 -19 -51 c-15 -44 -24 -55 -63
-73 -25 -12 -73 -50 -107 -84 -66 -67 -65 -67 -77 6 -5 31 10 127 29 186 7 21
6 21 -274 21 l-281 1 -20 -42z"/>
<path d="M3902 7767 c-54 -55 -72 -79 -72 -100 0 -38 22 -87 52 -115 33 -30
141 -72 206 -79 49 -5 55 -4 83 23 26 24 84 103 112 151 5 7 -16 18 -62 32
-69 21 -164 82 -208 135 -13 14 -26 26 -31 26 -4 0 -40 -33 -80 -73z"/>
<path d="M8280 7803 c-113 -10 -294 -64 -347 -102 -28 -20 -51 -51 -73 -94
-27 -55 -32 -76 -33 -143 -1 -71 2 -85 31 -138 18 -32 32 -72 32 -88 0 -26 -3
-29 -22 -23 -69 21 -120 113 -124 223 -2 62 2 80 26 130 17 35 48 77 79 104
28 25 51 48 51 51 0 14 -79 16 -161 2 -115 -18 -137 -25 -219 -64 -131 -62
-178 -98 -211 -163 -23 -46 -25 -140 -4 -191 8 -20 15 -51 15 -68 l0 -32 -23
21 c-13 12 -33 22 -44 22 -57 0 -199 79 -189 105 3 8 8 42 11 77 l6 63 -36
-40 c-35 -39 -37 -39 -51 -20 -8 11 -19 36 -25 57 -8 32 -13 37 -32 33 -12 -3
-53 -13 -92 -23 l-70 -17 3 -35 c2 -20 12 -42 23 -50 14 -12 18 -23 14 -45
-12 -62 109 -176 240 -228 l60 -24 170 18 c94 11 222 21 285 25 63 3 142 9
175 12 98 12 705 7 748 -5 20 -6 37 -9 37 -7 0 2 -16 25 -36 51 -20 27 -50 72
-66 101 -17 28 -32 52 -35 52 -3 0 -2 -29 2 -65 6 -56 4 -65 -9 -65 -35 0 -56
59 -56 156 0 172 19 218 147 352 l68 70 -59 6 c-59 6 -140 6 -206 -1z"/>
<path d="M7170 7575 c0 -15 31 -62 54 -84 l26 -24 0 24 c0 13 7 37 15 53 8 15
15 30 15 32 0 2 -25 4 -55 4 -30 0 -55 -2 -55 -5z"/>
<path d="M6470 7398 c-153 -49 -161 -54 -181 -121 -20 -66 -34 -87 -59 -87
-30 0 -43 63 -15 74 21 8 19 32 -6 50 -19 13 -26 12 -72 -7 -29 -11 -56 -24
-61 -29 -6 -4 -18 -8 -27 -8 -29 0 -153 -98 -191 -152 -79 -111 -149 -220
-145 -225 3 -2 25 22 50 54 48 63 75 89 82 81 3 -3 -3 -16 -14 -29 -23 -29
-39 -119 -22 -119 6 0 80 20 164 44 83 24 211 54 282 65 72 12 141 23 155 26
33 6 173 24 230 30 72 7 133 15 163 21 l28 6 -43 27 c-97 62 -176 183 -186
283 -5 58 -4 57 -132 16z"/>
<path d="M7819 7086 c-2 -2 -68 -7 -147 -11 l-142 -6 -49 -48 c-38 -37 -47
-51 -39 -64 12 -23 45 -21 93 3 51 26 81 26 88 -1 4 -17 11 -20 29 -16 13 3
102 11 199 18 269 18 534 -4 779 -66 52 -13 111 -30 130 -38 20 -9 56 -16 80
-16 68 -1 140 -15 314 -60 88 -22 175 -41 192 -41 18 0 36 -5 39 -11 4 -5 17
-9 28 -8 12 1 29 -1 37 -4 22 -9 148 -46 174 -52 109 -23 327 -100 343 -121 7
-9 17 -42 23 -73 39 -199 111 -310 245 -379 38 -19 70 -27 132 -30 112 -6 170
15 244 88 88 87 109 193 59 305 -29 67 -116 129 -158 114 -12 -5 -22 -11 -22
-14 0 -4 4 -4 8 -1 16 10 90 -33 124 -73 82 -96 58 -256 -51 -338 -148 -113
-366 -62 -470 111 -38 63 -74 186 -67 231 3 17 8 69 12 117 l7 86 -49 25 c-44
21 -157 66 -299 118 -27 10 -94 32 -148 48 l-98 30 -58 -39 c-82 -56 -127 -73
-196 -74 -88 -1 -154 34 -247 133 -58 62 -84 82 -118 92 -25 7 -47 16 -50 19
-3 3 -54 12 -115 18 -60 7 -128 15 -150 18 l-40 5 30 -26 c39 -33 77 -42 215
-50 153 -10 186 -25 50 -23 -65 1 -113 -3 -127 -10 -12 -7 -34 -12 -50 -12
-37 0 -125 45 -178 92 l-43 38 -279 0 c-154 0 -282 -2 -284 -4z"/>
<path d="M6880 7001 c-99 -15 -111 -19 -85 -27 38 -11 201 -12 280 0 l60 9
-50 18 c-60 21 -61 21 -205 0z"/>
<path d="M3051 6975 c-26 -24 -60 -75 -96 -146 -52 -102 -56 -112 -45 -144 6
-18 20 -45 31 -59 20 -26 22 -26 162 -26 l142 0 30 48 c16 26 58 75 92 108 35
34 63 64 63 67 0 3 -21 13 -47 23 -150 56 -192 76 -240 119 l-52 46 -40 -36z"/>
<path d="M6575 6955 l-50 -13 64 -1 c55 -1 62 1 51 14 -7 8 -13 14 -14 14 0
-1 -23 -7 -51 -14z"/>
<path d="M9490 6950 c-9 -16 -8 -20 5 -20 8 0 15 9 15 20 0 11 -2 20 -5 20 -2
0 -9 -9 -15 -20z"/>
<path d="M7160 6800 c-8 -4 -34 -14 -58 -21 -128 -38 -232 -215 -219 -371 7
-83 33 -143 87 -202 137 -149 357 -124 458 52 16 29 15 42 -4 42 -11 0 -14 5
-10 16 3 9 6 20 6 25 0 5 7 9 15 9 8 0 15 5 15 11 0 7 10 9 25 5 35 -9 50 23
35 70 l-12 35 -16 -32 c-16 -31 -62 -56 -76 -41 -13 12 -5 52 9 52 18 0 55 35
55 53 0 26 -79 95 -128 111 -52 18 -114 73 -131 119 -6 15 -8 27 -5 27 3 0 26
-18 50 -39 46 -40 96 -57 143 -46 16 3 34 0 46 -9 19 -14 19 -14 -5 -34 -23
-19 -23 -21 -7 -27 11 -5 25 -1 36 9 25 23 32 20 19 -10 -8 -16 -8 -28 -2 -32
29 -20 83 -115 99 -175 21 -78 16 -212 -10 -286 -9 -24 -15 -58 -13 -75 3 -29
8 -33 68 -52 36 -11 103 -39 149 -62 55 -27 98 -42 123 -42 l38 0 0 73 c0 153
38 341 42 207 0 -30 2 -59 3 -65 13 -79 21 -107 41 -145 31 -57 74 -103 127
-137 59 -37 182 -97 247 -121 30 -11 63 -23 72 -27 33 -13 31 23 -5 82 -80
132 -100 183 -94 237 7 63 10 75 26 104 16 29 47 25 122 -16 257 -144 559 -25
592 233 9 64 -19 155 -61 206 -108 128 -303 113 -376 -28 -61 -120 59 -269
177 -220 44 19 71 66 62 108 -7 33 -44 63 -71 57 -22 -4 -31 -28 -11 -28 8 0
20 -7 27 -15 19 -23 -12 -65 -50 -65 -57 0 -91 86 -54 138 50 72 154 68 218
-8 14 -18 26 -27 26 -21 0 25 16 8 28 -29 16 -54 16 -66 -3 -50 -12 10 -15 9
-15 -8 0 -27 -24 -81 -50 -115 -91 -115 -303 -79 -377 65 -57 113 -33 247 62
344 78 80 128 99 258 99 112 0 139 9 61 21 -124 18 -257 -23 -337 -104 -69
-71 -92 -129 -91 -232 1 -98 18 -142 77 -198 20 -19 23 -42 5 -42 -19 0 -106
96 -124 137 -34 74 -35 199 -4 320 13 49 21 97 17 105 -11 30 -251 48 -637 48
l-275 0 -59 -56 c-44 -42 -61 -53 -70 -44 -8 8 -4 17 17 35 15 13 27 26 27 28
0 13 -65 14 -100 2 -32 -11 -52 -12 -91 -4 -27 6 -49 15 -49 20 0 5 -12 9 -26
9 -14 0 -23 4 -20 9 11 18 -37 26 -64 11z"/>
<path d="M6680 6785 c-8 -2 -55 -9 -105 -15 -49 -7 -137 -21 -194 -32 -57 -11
-116 -22 -130 -25 -107 -19 -164 -36 -197 -58 -38 -26 -65 -25 -30 1 19 13 19
14 -6 14 -15 0 -29 4 -32 9 -3 5 -20 14 -36 20 -30 10 -31 9 -47 -30 -11 -30
-20 -39 -32 -34 -10 4 -7 -3 9 -20 15 -16 30 -23 42 -19 15 4 18 0 18 -24 0
-17 6 -32 15 -36 8 -3 15 -13 15 -22 0 -10 3 -14 7 -11 10 11 52 -119 68 -213
22 -122 18 -116 78 -123 206 -24 676 -125 778 -167 100 -42 210 -70 273 -70
18 0 55 -12 82 -26 27 -14 103 -45 169 -69 162 -58 316 -114 340 -125 40 -18
263 -109 380 -155 66 -26 147 -60 180 -75 33 -15 115 -51 183 -80 68 -28 171
-79 230 -112 59 -33 136 -76 172 -95 36 -19 70 -39 75 -43 22 -18 372 -188
400 -195 47 -12 75 -14 75 -6 0 4 -16 26 -36 49 -28 33 -32 43 -21 48 18 6 57
-12 57 -26 0 -6 6 -10 13 -10 7 0 19 -9 27 -21 8 -11 42 -42 76 -68 64 -52
152 -129 194 -172 14 -15 45 -36 68 -48 l42 -21 0 35 c0 97 -169 319 -463 608
-288 283 -583 493 -777 553 -65 20 -80 18 -80 -9 0 -44 160 -253 294 -387 102
-101 117 -127 66 -116 -80 15 -184 65 -535 253 -154 83 -515 233 -560 233 -8
0 -38 10 -67 23 -29 13 -98 36 -153 52 -55 15 -104 32 -109 36 -10 9 -8 16 38
147 14 41 26 95 26 120 l0 47 -21 -45 c-51 -113 -144 -197 -258 -235 -42 -14
-75 -16 -155 -12 -106 5 -168 25 -276 89 -25 15 -74 32 -110 38 -129 23 -383
97 -375 110 5 8 117 6 292 -6 l91 -6 68 -56 c108 -89 187 -130 279 -143 162
-24 322 52 387 183 15 29 30 70 34 92 6 37 6 38 -15 27 -15 -9 -21 -21 -21
-48 0 -71 -105 -175 -205 -202 -22 -6 -65 -11 -97 -11 -51 0 -63 5 -133 51
-80 54 -122 102 -158 179 -17 36 -21 65 -21 145 0 100 11 143 75 301 24 59 14
64 -123 63 -68 -1 -130 -3 -138 -4z"/>
<path d="M5710 6730 c-19 -16 -29 -30 -22 -30 7 0 10 -4 7 -10 -4 -6 7 -10 27
-10 18 0 52 -9 76 -20 23 -10 42 -15 42 -10 0 6 -5 10 -11 10 -7 0 -9 8 -5 20
3 11 9 28 12 39 5 15 -2 20 -40 30 -55 14 -45 16 -86 -19z"/>
<path d="M2410 6724 c-8 -3 -22 -8 -30 -12 -8 -3 26 -9 76 -12 116 -8 183 -40
259 -121 64 -69 89 -119 124 -247 l27 -97 74 -3 c101 -5 233 15 264 39 33 26
50 80 42 133 -8 54 -34 82 -89 96 -109 28 -215 63 -245 81 -18 10 -45 19 -60
19 -15 0 -54 16 -87 37 -98 59 -171 84 -260 89 -44 2 -87 1 -95 -2z"/>
<path d="M5428 6673 c-77 -68 -82 -79 -37 -90 l31 -8 -26 -28 c-14 -15 -36
-27 -49 -27 -14 0 -28 -7 -31 -16 -11 -28 -7 -35 13 -24 23 12 41 13 41 2 0
-4 -14 -13 -31 -19 l-32 -12 6 -61 c9 -78 29 -126 75 -173 49 -52 100 -76 170
-83 65 -7 118 6 166 39 l28 20 -23 18 c-22 16 -24 16 -58 -2 -20 -10 -49 -19
-66 -18 l-30 1 32 11 c50 19 48 25 -7 19 -30 -3 -50 -1 -50 5 0 6 18 10 39 10
48 0 96 27 122 70 l20 32 -33 17 c-18 9 -46 27 -61 40 -16 13 -38 24 -50 24
-26 0 -87 35 -87 50 0 13 6 13 41 -5 33 -17 147 -55 167 -55 7 0 10 5 7 10 -8
13 8 13 22 -1 13 -13 63 -1 63 16 0 22 -60 89 -98 109 -29 15 -49 17 -99 13
-35 -4 -63 -2 -63 2 0 9 108 31 154 31 16 0 25 4 21 10 -3 6 -34 10 -68 10
-55 0 -68 -4 -114 -36 -29 -20 -62 -51 -73 -69 -29 -47 -36 -112 -16 -159 20
-48 20 -46 -4 -46 -15 0 -26 13 -41 48 -41 93 -3 210 88 277 48 35 49 49 4 53
-27 3 -30 6 -20 18 22 26 -1 14 -43 -23z"/>
<path d="M5545 6670 c-3 -6 1 -7 9 -4 18 7 21 14 7 14 -6 0 -13 -4 -16 -10z"/>
<path d="M9216 6623 c-3 -3 2 -12 12 -19 20 -16 32 -17 32 -4 0 12 -35 31 -44
23z"/>
<path d="M10341 6534 c-63 -55 -78 -146 -36 -211 22 -33 74 -63 111 -63 40 0
95 37 107 73 20 60 -42 124 -93 97 -12 -6 -24 -9 -28 -6 -11 11 25 37 62 46
34 7 40 5 71 -26 19 -19 38 -46 41 -59 23 -90 -68 -194 -163 -186 -11 1 -24
-3 -28 -8 -13 -23 85 -12 121 13 101 69 118 177 40 258 -46 48 -107 48 -158 0
-22 -20 -28 -35 -28 -68 0 -25 6 -47 15 -54 19 -16 19 -30 1 -30 -8 0 -27 16
-42 35 -23 31 -25 41 -19 81 8 57 64 124 104 124 20 0 23 2 11 10 -26 17 -46
11 -89 -26z"/>
<path d="M5220 6470 c0 -19 5 -30 14 -30 8 0 16 13 18 30 4 24 1 30 -14 30
-13 0 -18 -8 -18 -30z"/>
<path d="M5228 6394 c-8 -7 20 -110 39 -149 38 -75 95 -135 159 -166 57 -28
70 -31 141 -27 48 2 93 11 118 23 50 23 48 22 41 33 -4 6 -23 5 -53 -4 -159
-48 -321 30 -393 188 -16 37 -30 71 -29 75 4 27 -8 42 -23 27z"/>
<path d="M5957 6354 c-3 -10 -8 -42 -12 -70 -9 -68 -73 -183 -128 -228 -23
-19 -70 -49 -104 -65 -58 -29 -67 -31 -160 -28 -91 3 -217 30 -264 57 -22 12
-44 -13 -73 -82 -12 -29 -32 -72 -44 -95 -12 -23 -22 -50 -22 -59 0 -33 63
-80 135 -102 87 -25 143 -33 150 -21 9 14 24 11 42 -11 10 -11 23 -20 29 -20
19 0 267 -130 289 -151 34 -33 8 -41 -77 -25 -78 15 -164 46 -208 76 -14 10
-36 21 -50 25 -14 4 -31 12 -38 18 -22 17 -155 43 -237 45 -94 3 -87 -6 33
-43 42 -13 115 -38 162 -56 47 -17 128 -46 180 -63 107 -36 125 -45 184 -90
38 -29 702 -446 781 -491 20 -11 59 -36 88 -56 28 -20 86 -58 127 -84 98 -62
184 -119 190 -125 3 -3 61 -43 130 -89 142 -96 319 -229 322 -242 4 -27 1 -34
-22 -40 -17 -4 -20 -8 -10 -11 116 -37 158 -54 229 -97 88 -53 119 -67 129
-57 8 9 -55 73 -100 102 -21 13 -53 44 -70 67 -18 24 -54 72 -81 107 -45 60
-47 64 -32 86 14 22 14 34 0 131 -9 60 -18 116 -21 125 -3 10 -5 62 -5 115 1
228 79 356 276 449 104 48 197 77 308 95 52 8 77 16 77 25 0 8 -8 14 -17 14
-18 0 -108 34 -216 81 -78 34 -77 34 -77 14 0 -16 -55 -79 -76 -86 -49 -18
-262 -150 -294 -182 -56 -57 -67 -95 -101 -359 -9 -73 -14 -88 -28 -88 -21 0
-41 58 -48 140 -6 66 19 180 47 220 11 16 20 31 20 34 0 19 117 118 214 180
61 40 129 92 150 116 l39 43 -26 22 c-73 57 -316 126 -468 131 -125 4 -175 -8
-291 -69 -154 -81 -258 -205 -258 -305 0 -46 17 -120 32 -137 10 -11 11 -45 1
-45 -18 1 -44 29 -58 63 -18 43 -20 173 -4 231 18 66 97 134 230 198 148 72
177 110 129 170 -26 34 -124 53 -215 43 -161 -17 -334 -166 -374 -322 -21 -80
-22 -81 -41 -28 -22 59 -23 78 -10 125 18 64 94 130 250 217 30 17 56 38 58
47 4 18 -43 40 -66 31 -8 -3 -21 0 -28 6 -19 16 -145 4 -187 -18 -53 -26 -192
-139 -236 -190 -22 -26 -43 -44 -48 -40 -9 9 13 96 30 115 6 8 30 26 52 39 35
22 135 117 135 129 0 2 -10 9 -22 14 -13 6 -38 19 -57 31 -42 25 -109 49 -140
49 -44 0 -101 22 -101 39 0 9 5 43 10 76 13 78 14 209 2 231 -9 16 -10 16 -15
-2z"/>
<path d="M5785 6350 c-26 -4 -30 -10 -33 -43 -2 -22 -10 -41 -18 -44 -19 -7
-18 -23 4 -39 26 -20 29 -18 57 41 34 70 31 92 -10 85z"/>
<path d="M2800 6309 c0 -24 -6 -67 -14 -95 -13 -49 -12 -53 7 -73 l21 -20 -29
2 c-15 1 -30 -4 -32 -11 -3 -7 -1 -12 4 -11 22 4 43 -3 64 -21 l24 -20 -36 6
c-43 7 -92 -15 -110 -49 -7 -12 -27 -39 -45 -59 -24 -27 -31 -43 -27 -60 13
-51 24 -49 54 10 34 67 46 82 79 105 25 18 88 21 145 8 28 -7 27 -8 -24 -19
-72 -16 -109 -45 -137 -106 l-24 -51 34 -6 c54 -9 275 8 293 23 9 7 17 11 17
8 2 -8 87 19 136 43 52 26 105 91 120 148 6 21 10 71 8 111 -4 85 -20 104 -65
75 -39 -25 -127 -67 -155 -73 -62 -14 -261 -25 -270 -16 -6 6 -14 50 -19 98
-10 96 -19 122 -19 53z"/>
<path d="M5770 6156 c0 -9 5 -16 10 -16 6 0 10 4 10 9 0 6 -4 13 -10 16 -5 3
-10 -1 -10 -9z"/>
<path d="M5735 6129 c-4 -6 -5 -13 -2 -16 7 -7 27 6 27 18 0 12 -17 12 -25 -2z"/>
<path d="M3393 6088 c-28 -35 -45 -83 -39 -112 7 -34 51 -106 65 -106 5 0 14
38 21 84 10 69 9 89 -2 112 -15 32 -31 40 -45 22z"/>
<path d="M3560 6061 c0 -17 26 -78 37 -84 17 -11 1 62 -18 79 -12 10 -19 13
-19 5z"/>
<path d="M3731 5957 c-6 -8 -14 -29 -17 -48 -10 -52 -108 -243 -161 -312 -26
-34 -87 -101 -136 -149 l-89 -88 235 0 236 0 58 65 c65 74 139 192 152 245 5
19 12 73 15 120 4 75 8 87 30 107 35 29 33 32 -11 22 -21 -5 -58 -9 -83 -9
-25 0 -50 -4 -56 -8 -8 -4 -13 -55 -15 -142 -4 -125 -6 -138 -31 -180 -14 -25
-57 -78 -95 -118 -52 -55 -74 -72 -96 -72 -23 0 -27 4 -27 28 1 43 33 104 87
164 78 85 101 144 105 259 l3 97 -28 16 c-35 20 -61 20 -76 3z"/>
<path d="M4213 5939 c-94 -9 -108 -22 -124 -121 -7 -46 -13 -86 -14 -90 0 -3
-3 -10 -7 -14 -5 -4 -8 -14 -8 -22 0 -24 -77 -181 -120 -244 -35 -50 -39 -62
-28 -75 19 -23 121 -12 184 20 79 40 117 94 164 227 24 69 37 250 22 300 -7
24 -9 25 -69 19z"/>
<path d="M3216 5875 c-35 -29 -38 -35 -26 -50 23 -28 71 -47 135 -55 59 -7 74
-2 75 25 0 6 -17 17 -37 24 -21 8 -54 31 -73 51 l-35 38 -39 -33z"/>
<path d="M3501 5883 c-18 -40 -13 -50 42 -70 58 -23 67 -22 66 10 0 15 -16 32
-49 53 l-48 31 -11 -24z"/>
<path d="M4955 5881 c-46 -34 -125 -122 -175 -196 -19 -27 -44 -61 -56 -74
-13 -13 -31 -40 -41 -60 -10 -20 -23 -43 -30 -51 -21 -26 -93 -176 -114 -237
-32 -93 -49 -188 -49 -276 0 -145 33 -207 108 -207 24 0 49 8 63 19 l24 19
-42 45 c-59 63 -76 102 -81 183 -7 109 32 192 189 410 44 60 106 145 138 190
76 105 117 196 109 244 -3 20 -5 20 -43 -9z"/>
<path d="M2718 5767 c7 -57 30 -92 132 -200 55 -59 100 -110 100 -113 0 -15
-84 6 -121 31 l-40 26 16 -32 c36 -68 117 -118 192 -119 34 0 41 3 37 15 -5
12 4 15 46 15 47 0 56 4 86 36 45 48 43 57 -10 49 -32 -5 -54 -3 -77 9 -18 9
-43 16 -56 16 -55 0 -140 67 -178 140 -8 16 -20 52 -26 80 -10 45 -13 50 -38
50 -14 0 -36 6 -47 14 -19 14 -20 13 -16 -17z"/>
<path d="M3451 5756 c-26 -56 -110 -170 -159 -215 -35 -32 -37 -37 -37 -97 l0
-63 25 32 c44 57 136 143 203 191 68 48 87 70 104 122 11 30 10 30 -41 48 -28
10 -56 21 -63 23 -7 3 -21 -15 -32 -41z"/>
<path d="M2972 5777 l-43 -12 24 -45 c18 -34 36 -52 78 -73 65 -34 100 -32
189 13 67 34 90 39 70 15 -7 -8 -18 -15 -24 -16 -12 0 -91 -99 -80 -99 31 0
196 162 180 177 -3 4 -30 1 -59 -7 -83 -22 -151 -17 -197 14 -22 14 -40 31
-40 36 0 13 -43 11 -98 -3z"/>
<path d="M4889 5483 c-38 -42 -54 -71 -83 -152 -33 -93 -48 -155 -40 -176 7
-17 34 -30 154 -75 113 -42 406 -186 480 -235 123 -83 165 -119 168 -148 2
-15 -1 -27 -7 -27 -5 0 -39 23 -76 50 -155 120 -386 254 -508 297 -92 32 -226
43 -245 20 -10 -12 -11 -21 -2 -36 14 -26 79 -71 94 -65 20 8 409 -187 527
-264 28 -19 149 -101 189 -129 53 -37 192 -163 365 -330 209 -203 176 -193
355 -108 237 111 409 164 581 180 81 8 82 9 44 18 -43 9 -285 2 -373 -12 -28
-4 -52 -5 -52 0 0 15 350 119 402 119 28 0 22 16 -24 61 -92 88 -103 94 -188
93 -106 -2 -295 -47 -379 -91 -36 -19 -85 -53 -108 -76 -24 -22 -45 -39 -48
-36 -9 10 16 79 40 107 49 58 215 117 360 128 44 3 86 8 94 10 27 9 -31 55
-119 96 -47 21 -97 50 -111 64 l-26 25 -59 -31 c-32 -16 -98 -47 -146 -69 -49
-22 -106 -57 -132 -81 -47 -43 -76 -48 -76 -13 0 47 73 96 213 143 76 26 92
45 82 96 -10 57 -44 67 -199 62 -141 -5 -171 -13 -252 -68 -25 -16 -47 -30
-50 -30 -8 0 -4 50 7 74 12 25 63 56 94 56 20 0 50 15 92 47 32 23 32 25 19
51 -8 15 -35 47 -59 72 -140 144 -200 174 -607 300 -74 23 -144 46 -155 51
-25 11 -141 45 -180 53 -25 6 -35 2 -56 -21z"/>
<path d="M2537 5345 c-24 -50 -20 -58 4 -12 11 22 19 41 17 43 -3 2 -12 -12
-21 -31z"/>
<path d="M8325 5184 c-9 -33 -20 -70 -25 -84 -4 -14 -16 -54 -25 -90 -23 -86
-72 -223 -102 -285 -19 -40 -21 -54 -13 -71 16 -28 100 -50 130 -34 111 60
200 241 200 410 0 137 -31 197 -108 207 l-41 5 -16 -58z"/>
<path d="M7885 5225 c-5 -1 -30 -8 -55 -16 -63 -18 -185 -83 -228 -121 -49
-42 -81 -96 -82 -135 0 -34 29 -69 79 -95 14 -7 28 -15 31 -18 14 -14 87 -41
126 -47 40 -5 46 -3 77 30 53 53 81 155 81 291 1 104 -3 119 -29 111z"/>
<path d="M8146 5203 c-14 -16 -39 -44 -56 -63 -30 -35 -30 -35 -24 -7 4 16 1
33 -6 42 -14 17 -20 18 -39 6 -12 -8 -11 -13 8 -28 15 -12 20 -24 16 -36 -7
-16 -26 -25 -24 -9 3 18 -2 32 -11 32 -7 0 -8 -13 -4 -36 4 -24 3 -35 -3 -31
-16 10 -25 -53 -11 -71 11 -13 10 -15 -4 -9 -12 4 -18 2 -18 -8 0 -9 9 -15 23
-15 23 0 47 -17 47 -32 0 -5 -8 -5 -17 0 -28 15 -63 -3 -63 -33 0 -14 -4 -25
-9 -25 -4 0 -21 -18 -35 -41 -17 -25 -43 -48 -69 -59 -56 -25 -160 -28 -211
-6 -21 9 -49 16 -62 16 -13 0 -29 9 -36 20 -9 13 -24 20 -45 20 -37 0 -42 -17
-19 -62 11 -20 11 -28 3 -32 -9 -3 -8 -7 2 -14 8 -6 9 -12 3 -16 -22 -13 17
-139 70 -223 51 -81 153 -176 261 -241 76 -47 91 -53 120 -46 32 7 76 11 191
16 53 3 61 1 78 -23 12 -16 18 -37 16 -55 l-4 -29 -16 36 c-21 49 -65 67 -124
51 -25 -7 -63 -12 -85 -12 -28 0 -39 -4 -36 -12 3 -9 26 -12 82 -10 98 4 127
-8 165 -69 16 -27 30 -52 30 -55 0 -3 -17 9 -38 26 -36 28 -108 57 -118 47 -2
-2 28 -20 68 -40 40 -21 89 -47 108 -59 26 -16 51 -22 101 -22 71 -1 102 -17
112 -57 6 -23 -8 -26 -17 -4 -7 19 -66 45 -101 45 -49 0 -28 -20 54 -51 18 -7
45 -22 60 -34 18 -16 44 -24 84 -27 35 -3 62 -10 68 -19 15 -25 10 -33 -11
-14 -11 10 -47 21 -87 26 -37 5 -86 12 -107 15 l-39 7 7 -34 c3 -18 8 -34 10
-36 2 -3 21 0 43 6 65 18 123 13 180 -16 29 -14 53 -31 53 -36 0 -5 -8 -6 -17
-2 -64 26 -148 16 -193 -21 -28 -24 -29 -27 -16 -52 8 -15 21 -35 29 -46 13
-18 15 -17 36 17 27 44 69 64 159 77 59 8 79 7 124 -8 l53 -17 -66 -7 c-100
-9 -173 -54 -198 -121 -16 -41 -15 -41 33 -65 52 -27 56 -27 56 -4 0 10 13 39
29 64 25 39 44 53 123 92 64 32 111 49 151 53 49 5 61 10 74 32 9 14 27 42 40
62 27 41 30 61 7 52 -12 -4 -14 0 -9 18 5 19 -3 35 -31 67 -20 24 -34 45 -31
48 8 9 44 -14 66 -42 l20 -26 56 16 c41 12 60 14 75 6 11 -6 20 -12 20 -13 0
-2 -19 -3 -42 -3 -24 -1 -56 -6 -72 -13 -22 -9 -26 -14 -17 -25 10 -12 16 -12
42 1 22 11 45 13 86 8 l56 -7 -19 30 c-63 99 -142 174 -224 215 -62 31 -70 32
-185 32 -110 0 -125 -2 -175 -27 -30 -15 -56 -25 -59 -22 -3 2 -1 16 5 31 13
39 86 78 189 103 115 28 157 49 226 110 70 61 119 134 148 219 19 54 20 69 10
93 -9 23 -9 37 1 68 17 52 2 88 -52 123 -54 35 -64 34 -71 -5 -4 -18 -9 -43
-13 -55 -5 -19 -2 -23 17 -24 24 0 24 0 2 -9 -30 -12 -44 -41 -31 -64 8 -14 7
-17 -1 -12 -6 4 -15 -4 -22 -21 -82 -215 -220 -350 -353 -344 -43 1 -85 19
-260 107 -124 63 -217 104 -228 101 -10 -3 -18 0 -18 7 0 17 -258 116 -302
116 -13 0 -18 8 -18 29 0 28 1 28 73 34 85 6 178 33 174 50 -1 7 4 11 11 9 17
-3 53 41 69 84 11 30 17 113 14 201 -1 37 -3 41 -23 37 l-23 -5 23 17 c39 29
23 35 -28 9 -67 -34 -82 -32 -32 5 40 28 62 57 62 79 0 19 -18 12 -44 -16z"/>
<path d="M8555 5108 c-19 -191 -98 -410 -182 -508 -45 -52 -37 -73 26 -78 92
-7 193 44 240 121 34 56 79 201 86 275 13 149 -37 252 -123 252 l-40 0 -7 -62z"/>
<path d="M8796 5058 c-3 -18 -8 -61 -11 -94 -9 -99 -40 -188 -117 -341 -70
-139 -72 -145 -57 -171 14 -26 18 -27 95 -26 54 0 89 5 111 17 43 23 96 78
118 124 10 21 21 45 26 54 32 68 40 209 15 290 -27 90 -58 130 -123 163 -45
22 -51 20 -57 -16z"/>
<path d="M9275 4618 c-77 -151 -145 -254 -207 -314 -41 -40 -47 -42 -115 -47
-39 -3 -76 -8 -82 -12 -26 -15 -7 -24 47 -20 31 2 99 -5 151 -16 117 -24 118
-24 186 2 151 57 288 293 245 424 -9 26 -26 45 -63 70 -92 59 -85 63 -162 -87z"/>
<path d="M9530 4468 c-24 -51 -46 -95 -50 -98 -3 -3 -19 -27 -35 -55 -42 -73
-82 -120 -140 -165 -55 -42 -84 -48 -125 -25 -49 28 -39 14 51 -76 l92 -91 71
4 c46 3 87 13 116 27 63 32 147 124 184 201 27 58 31 75 31 157 0 87 -1 93
-31 130 -32 40 -89 83 -108 83 -7 0 -32 -42 -56 -92z"/>
<path d="M9800 4263 c-19 -17 -57 -68 -84 -114 -54 -90 -174 -219 -221 -237
-16 -6 -47 -14 -67 -18 -21 -3 -38 -10 -38 -14 0 -5 12 -22 26 -39 24 -29 30
-31 92 -31 144 0 298 84 353 192 25 49 26 153 2 188 -10 13 -20 42 -23 64 l-5
40 -35 -31z"/>
<path d="M6817 4183 c-42 -4 -50 -8 -71 -41 -14 -20 -30 -57 -37 -82 -8 -30
-30 -64 -64 -100 -64 -68 -84 -106 -92 -170 -12 -101 57 -196 173 -240 97 -36
158 -22 210 45 35 46 23 59 -36 39 -63 -22 -118 -12 -167 31 -90 77 -98 159
-27 303 62 127 87 160 145 187 27 12 46 25 42 29 -3 3 -11 5 -17 4 -6 -1 -32
-3 -59 -5z"/>
<path d="M7210 4120 c0 -5 -15 -10 -32 -10 -18 -1 -49 -9 -68 -20 -41 -23 -23
-25 40 -6 48 14 79 6 123 -32 27 -24 20 -34 -13 -17 -117 61 -302 -75 -255
-188 16 -40 47 -68 103 -97 24 -12 42 -23 40 -26 -4 -4 -26 0 -137 22 -14 3
-29 8 -34 11 -20 12 25 -57 60 -93 61 -63 131 -86 201 -68 13 4 21 12 19 18
-2 6 3 17 11 25 13 13 16 13 28 -3 7 -10 17 -15 22 -12 5 3 -6 35 -25 72 -53
106 -41 179 37 223 26 14 55 21 93 21 58 0 107 15 107 34 0 6 4 5 9 -3 5 -7
15 -11 22 -9 22 7 -84 105 -145 133 -59 27 -206 45 -206 25z"/>
<path d="M6841 4053 c-94 -99 -94 -257 -1 -320 51 -35 64 -31 44 15 -25 59
-30 180 -10 263 10 39 15 73 12 76 -3 4 -23 -12 -45 -34z"/>
<path d="M9885 3933 c-38 -30 -86 -63 -105 -74 -19 -11 -48 -28 -65 -39 -16
-11 -43 -27 -60 -36 -61 -34 -104 -75 -110 -105 -9 -42 3 -136 20 -153 12 -11
36 -8 157 24 79 20 157 40 173 44 l30 7 -40 -40 c-45 -47 -112 -75 -201 -86
-73 -8 -88 -25 -73 -80 8 -29 14 -35 27 -30 41 17 93 17 139 0 96 -34 137 -36
252 -10 36 8 43 -10 9 -21 -13 -3 -34 -15 -48 -24 -41 -29 -140 -58 -223 -66
l-77 -7 0 -39 c0 -83 43 -121 153 -139 114 -19 366 36 407 88 24 31 26 84 5
144 -20 57 -38 69 -102 69 -59 0 -68 11 -24 30 19 7 54 9 106 5 61 -6 80 -4
93 8 22 20 104 32 128 19 14 -7 29 -6 53 4 47 20 126 79 146 111 17 25 14 24
-32 -10 -76 -56 -136 -78 -222 -84 -87 -6 -167 12 -238 54 -46 27 -55 38 -23
30 11 -3 20 -3 20 0 0 2 -21 30 -47 61 -69 85 -100 160 -120 290 -9 64 -21
112 -27 111 -6 0 -42 -26 -81 -56z"/>
<path d="M7476 3914 c-38 -13 -78 -32 -89 -41 -44 -39 -59 -119 -33 -178 l13
-30 12 23 c19 36 33 25 16 -15 -15 -35 -15 -37 9 -62 14 -14 32 -44 42 -66 9
-22 25 -53 36 -68 19 -26 22 -27 37 -13 14 15 14 19 -2 44 -35 52 -88 169 -94
205 -11 72 70 178 150 194 22 4 25 8 16 19 -15 19 -32 17 -113 -12z"/>
<path d="M7586 3844 c-15 -15 -34 -42 -42 -60 -26 -62 -12 -180 25 -206 10 -7
19 -17 19 -23 1 -23 22 -14 28 12 3 15 10 44 15 63 12 48 10 157 -4 203 l-12
37 -29 -26z"/>
<path d="M9178 3858 c-21 -7 -28 -16 -28 -37 0 -38 6 -41 45 -25 40 17 128 18
156 3 17 -9 16 -5 -7 30 -26 40 -28 41 -83 40 -31 0 -68 -5 -83 -11z"/>
<path d="M9072 3759 c-27 -37 -48 -52 -107 -78 -80 -36 -145 -95 -171 -156
-20 -50 -18 -55 25 -55 52 0 101 18 101 38 0 32 41 87 116 157 70 65 75 73 72
105 l-3 35 -33 -46z"/>
<path d="M7270 3620 c0 -5 5 -10 11 -10 5 0 7 5 4 10 -3 6 -8 10 -11 10 -2 0
-4 -4 -4 -10z"/>
<path d="M5464 3558 c14 -73 99 -141 190 -154 83 -12 116 -8 139 15 l21 21
-30 0 c-62 0 -133 30 -181 75 -26 25 -53 45 -60 45 -8 0 -30 7 -50 15 l-36 15
7 -32z"/>
<path d="M4165 3434 c-44 -25 -83 -51 -87 -57 -3 -6 -21 -15 -39 -21 -49 -17
-73 -57 -79 -132 -3 -35 -9 -65 -15 -67 -13 -3 -29 94 -21 126 3 14 17 39 31
55 l24 29 -102 7 c-56 3 -124 9 -151 13 l-49 6 6 -55 c3 -31 17 -84 32 -119
57 -135 75 -191 75 -235 0 -41 -2 -44 -19 -34 -11 5 -23 20 -27 32 -12 42 -97
208 -106 208 -22 0 7 -141 45 -217 79 -158 85 -245 25 -376 -39 -84 -131 -172
-227 -219 -93 -45 -128 -46 -256 -8 -61 18 -123 36 -140 40 -16 4 -86 26 -155
49 -69 22 -132 41 -140 41 -9 0 -21 5 -28 12 -7 7 -12 9 -12 6 0 -12 -196 63
-245 94 -27 17 -86 51 -130 76 -44 25 -106 61 -137 81 -99 63 -206 122 -237
131 -36 10 -137 -2 -201 -25 -116 -41 -156 -102 -148 -223 9 -118 12 -121 200
-177 133 -39 178 -58 248 -101 100 -62 189 -88 355 -104 133 -12 227 -31 232
-46 7 -22 -57 -33 -322 -55 l-271 -21 -82 21 c-96 25 -150 26 -218 6 -80 -23
-131 -93 -141 -190 -8 -81 -1 -100 49 -114 77 -23 90 -31 101 -61 11 -29 14
-30 72 -30 41 0 72 -6 97 -20 34 -18 39 -18 73 -4 33 14 39 13 61 0 54 -36
218 -1 408 88 127 59 146 66 244 88 74 17 131 22 237 22 133 1 143 0 195 -26
64 -32 110 -68 259 -209 103 -97 176 -149 207 -149 12 0 84 111 84 129 0 4
-11 13 -25 19 -36 17 -45 49 -45 168 0 110 5 120 46 89 28 -21 34 -19 34 13 0
48 13 58 55 43 31 -11 39 -10 63 4 41 26 58 51 116 165 117 231 207 320 322
320 27 0 58 -7 68 -15 44 -33 113 -10 155 51 46 66 55 312 16 407 -10 24 26
23 48 -1 14 -16 17 -44 17 -186 0 -96 4 -176 10 -187 12 -21 68 -26 101 -9 88
48 122 428 43 502 -29 28 -31 48 -4 41 11 -3 30 -22 42 -42 22 -34 23 -49 28
-261 l5 -225 29 3 c92 10 160 149 173 354 9 129 -24 221 -70 197 -11 -7 -38
-9 -61 -5 -23 4 -72 9 -111 12 -38 3 -89 15 -113 26 -48 23 -92 79 -92 119 0
34 -5 35 -153 55 -177 23 -171 21 -175 77 -2 26 -6 47 -10 47 -4 0 -43 -21
-87 -46z"/>
<path d="M5836 3423 c-31 -32 -44 -53 -33 -53 2 0 23 20 47 45 24 25 39 45 33
45 -6 0 -27 -17 -47 -37z"/>
<path d="M4680 3301 c0 -5 18 -25 40 -44 42 -36 131 -63 181 -55 21 3 18 7
-26 30 -68 35 -195 80 -195 69z"/>
<path d="M9615 3170 c-9 -14 1 -89 20 -150 7 -25 16 -71 19 -104 6 -58 25
-112 26 -74 0 9 -4 39 -9 65 -5 26 -17 98 -27 158 -9 61 -18 111 -19 113 -2 2
-6 -2 -10 -8z"/>
<path d="M10305 3101 c-33 -19 -124 -52 -197 -71 -33 -9 -48 -18 -52 -34 -10
-38 -6 -94 10 -143 12 -36 14 -51 5 -65 -27 -44 -10 -45 115 -7 92 28 162 105
166 182 4 64 -2 157 -9 156 -5 0 -21 -8 -38 -18z"/>
<path d="M9843 3003 c-72 -4 -73 -6 -47 -94 17 -56 39 -94 82 -141 20 -22 35
-28 68 -28 l42 0 -40 78 c-32 63 -40 88 -40 135 0 31 -1 56 -2 55 0 -1 -29 -3
-63 -5z"/>
<path d="M9757 2790 c7 -25 28 -42 48 -38 11 2 6 10 -19 30 -29 23 -33 25 -29
8z"/>
<path d="M10285 2777 c-109 -74 -275 -127 -401 -127 l-73 0 -15 -55 c-28 -93
-29 -110 -12 -144 12 -23 24 -31 44 -32 15 0 36 -2 47 -5 11 -2 76 -4 145 -5
128 -1 216 15 267 48 40 27 63 92 68 194 5 124 -16 162 -70 126z"/>
<path d="M5638 2560 c-44 -13 -117 -69 -144 -110 -14 -21 -28 -56 -31 -78 -7
-55 20 -73 119 -75 l73 -2 98 78 c53 43 97 82 97 87 0 6 -16 28 -36 50 -48 53
-109 70 -176 50z"/>
<path d="M10165 2370 c-27 -5 -75 -15 -105 -23 -35 -10 -91 -14 -155 -13
l-100 2 -32 -33 c-25 -26 -33 -45 -39 -90 -6 -51 -5 -58 16 -75 12 -10 41 -23
63 -30 23 -6 49 -13 57 -16 36 -11 167 -13 226 -3 155 28 235 104 251 242 l6
49 -69 -1 c-38 -1 -91 -5 -119 -9z"/>
<path d="M9719 2042 c-6 -20 -31 -74 -55 -120 -48 -91 -58 -158 -29 -199 15
-21 14 -23 -13 -37 -61 -31 -133 -98 -155 -142 -24 -50 -20 -63 27 -98 25 -19
40 -21 184 -18 86 1 203 8 259 14 l102 12 50 90 c72 133 73 130 -27 136 l-84
5 22 28 c33 42 72 57 143 57 93 0 111 30 116 188 l2 73 -173 -1 c-173 -1 -236
6 -315 34 l-42 15 -12 -37z"/>
<path d="M7080 1689 c-76 -31 -170 -153 -170 -220 0 -47 13 -57 29 -21 7 14
38 60 68 100 56 75 96 102 147 102 52 0 36 35 -20 45 -16 2 -40 0 -54 -6z"/>
<path d="M7128 1535 c-26 -14 -49 -29 -52 -34 -12 -19 18 -73 52 -96 l37 -25
-45 0 c-27 0 -58 8 -78 20 -18 11 -35 20 -37 20 -2 0 -12 -14 -20 -30 -16 -30
-16 -31 17 -44 22 -10 40 -11 56 -5 36 14 40 2 9 -28 -20 -20 -37 -27 -67 -28
-37 0 -40 -2 -40 -27 0 -25 4 -28 34 -28 18 0 45 9 59 20 24 19 47 26 47 14 0
-30 -59 -74 -100 -74 -24 0 -25 -12 -3 -48 50 -80 105 -112 193 -112 70 0 105
15 147 64 53 59 54 161 4 219 -15 18 -16 18 -22 -5 -5 -22 -6 -22 -22 10 -15
27 -23 32 -53 32 -28 0 -44 -8 -70 -34 -36 -36 -41 -59 -22 -101 23 -50 93
-43 93 9 -1 32 30 36 38 5 12 -47 -32 -99 -84 -99 -18 0 -37 11 -58 35 -26 30
-31 44 -31 84 0 41 6 56 33 88 18 22 38 38 45 35 19 -6 14 7 -13 40 -34 40
-33 82 4 119 37 37 16 38 -51 4z"/>
</g>
</svg>
