<?xml version="1.0" encoding="UTF-8" standalone="no"?><!DOCTYPE svg PUBLIC "-//W3C//DTD SVG 1.1//EN" "http://www.w3.org/Graphics/SVG/1.1/DTD/svg11.dtd"><svg width="100%" height="100%" viewBox="0 0 460 495" version="1.1" xmlns="http://www.w3.org/2000/svg" xmlns:xlink="http://www.w3.org/1999/xlink" xml:space="preserve" xmlns:serif="http://www.serif.com/" style="fill-rule:evenodd;clip-rule:evenodd;stroke-linejoin:round;stroke-miterlimit:1.41421;"><path id="path3035-4" d="M259.711,450.472c-6.975,-6.049 -15.431,-18.297 -15.313,-30.103c0.625,-8.804 6.663,-13.918 10.563,-3.172c5.515,11.862 17.345,31.477 33.644,19.97c7.121,-5.227 7.011,-12.922 -2.753,-12.04c-12.059,-0.826 -19.465,-7.461 -24.861,-24.542c-0.981,-9.395 2.927,-9.16 8.379,-3.116c7.01,8.043 20.96,20.197 36.35,13.683c8.553,-3.584 10.967,-10.98 -1.954,-12.801c-12.233,0.178 -22.219,-7.752 -32.157,-19.849c-5.451,-6.692 2.588,-13.448 7.414,-7.752c4.305,3.698 10.334,10.512 15.501,11.45c5.974,1.173 13.38,0.591 21.585,-3.754c8.846,-7.404 5.974,-12.745 -4.763,-13.975c-8.324,0.413 -12.858,3.577 -23.595,-3.584c-19.299,-13.044 -34.641,-30.474 -37.039,-51.44c-1.574,-13.788 5.84,-17.963 12.004,-16.377c16.766,4.313 27.733,35.644 39.333,52.855c3.798,4.96 7.287,5.041 9.756,3.512c4.652,-3.989 8.368,-7.27 13.02,-11.728c0,0 34.127,6.13 52.711,12.188l-20.692,7.354c-7.835,-4.327 -17.291,0.338 -17.291,7.844c-7.414,5.127 -6.817,11.137 -3.619,16.939c0.976,-4.04 1.809,-9.285 7.665,-9.984c8.359,3.458 18.098,-1.476 18.098,-8.004l24.41,-9.594l24.66,13.961c0,9.438 8.943,12.428 18.246,9.879c4.385,2.723 7.204,7.447 8.688,12.498c2.746,-7.285 2.173,-12.428 -2.127,-16.002c2.468,-9.418 -10.731,-18.476 -20.947,-12.444l-17.742,-10.187l30.368,-0.85c3.523,6.239 16.262,6.582 19.978,0c3.175,-0.87 5.86,-1.424 12.052,3.179c-1.951,-7.448 -5.748,-10.632 -11.444,-10.632c-4.33,-7.669 -19.995,-7.633 -22.257,1.001l-31.626,0.88l18.765,-13.361c7.005,4.136 16.833,-0.462 18.802,-7.976c2.793,-3.319 6.236,-4.878 13.014,-2.626c-3.493,-6.187 -8.415,-8.034 -17.306,-3.835c-8.112,-6.144 -18.801,1.31 -17.179,7.497l-24.966,16.986c-18.123,-5.406 -50.944,-13.827 -50.944,-13.827c3.908,-4.111 7.872,-7.93 11.773,-12.098c1.41,-2.441 -0.743,-5.283 -3.734,-5.874c-29.284,-6.045 -46.051,-17.85 -56.211,-47.855c-4.249,-12.566 4.938,-16.321 8.095,-8.633c4.368,10.689 9.186,22.373 22.337,31.42c4.534,3.172 18.032,0.582 10.049,-6.992c-8.269,-6.813 -11.829,-9.742 -15.904,-26.306c0,-8.391 8.553,-12.153 13.324,-4.11c5.104,16.499 5.626,23.603 14.868,34.236c7.002,8.043 16.133,13.448 20.667,13.327c8.158,-0.114 16.371,-8.925 5.46,-15.326c-16.023,-6.4 -21.878,-15.148 -24.236,-23.49c-2.58,-14.557 0.237,-21.605 9.02,-14.444c12.454,14.153 36.231,40.515 48.686,52.791c13.957,10.689 29.972,11.037 42.719,0.177c7.295,-8.399 4.708,-17.437 -6.718,-15.503c-25.778,2.176 -45.299,-10.625 -66.718,-45.217c-4.193,-7.808 -5.341,-19.024 3.909,-10.681c10.674,14.444 26.238,26.719 40.71,32.003c14.527,5.219 26.521,2.336 31.175,-2.233c5.605,-5.605 4.13,-19.728 -5.57,-16.321c-7.984,2.815 -19.236,3.519 -30.946,-1.004c-11.718,-4.58 -23.888,-14.444 -36.809,-31.177c-4.423,-9.451 -2.983,-17.438 5.974,-12.567c21.19,17.972 48.519,32.529 62.469,23.782c10.278,-6.401 10.452,-22.843 -2.579,-21.783c-26.246,3.576 -36.176,-2.233 -61.386,-24.486c-5.736,-4.288 -5.34,-15.155 3.791,-8.221c21.189,13.683 50.125,19.024 61.495,11.863c10.223,-6.401 8.728,-25.959 -8.498,-19.032c-13.783,8.399 -28.999,8.164 -59.486,-13.618c-7.691,-6.401 -1.954,-14.744 4.36,-11.159c24.521,13.974 60.238,19.962 69.535,-8.456c3.616,-10.859 -2.928,-17.203 -12.518,-9.686c-21.07,19.493 -44.958,9.921 -58.33,0.114c-3.83,-2.258 -10.856,-13.683 1.487,-11.563c31.927,7.282 63.506,0.938 69.25,-21.67c3.331,-7.339 -3.22,-20.318 -14.875,-9.451c-15.327,15.148 -31.579,15.674 -52.017,15.56c-10.397,-2.176 -10.508,-13.626 -1.78,-15.325c16.133,0.348 32.037,-6.7 44.784,-13.861c12.463,-7.162 22.796,-17.203 26.072,-31.121c2.01,-12.445 -9.993,-25.659 -17.225,-12.445c-10.682,19.315 -34.341,37.521 -60.642,40.806c-1.369,-2.29 -4.818,-8.164 -9.067,-6.514c-7.723,2.994 -16.925,7.002 -26.399,11.501c-20.422,9.698 -28.934,14.371 -26.481,31.127c2.56,17.483 -10.919,28.531 -22.052,25.48c-9.708,-2.613 -15.065,-11.385 -13.324,-26.597c1.392,-12.121 13.562,-26.784 27.274,-34.471c8.878,-4.968 22.282,-7.687 38.415,-11.272c9.82,-1.933 14.82,-5.753 15.39,-9.75c0,0 -6.71,4.912 -17.455,4.175c-5.08,-0.364 -8.482,-2.597 -9.764,-4.879c3.735,-0.761 10.508,0.121 16.593,0.121c8.094,-0.065 26.886,-1.877 31.871,-13.27c1.551,-7.517 -3.387,-8.869 -7.984,-4.054c-4.937,5.203 -6.971,9.88 -16.877,11.628c-6.029,1.06 -12.059,2.29 -19.813,0.412c4.368,-5.186 11.307,-10.495 17.226,-9.515c1.946,0.323 4.533,2.12 6.607,5.348c1.266,-8.221 -0.982,-17.502 -22.97,-13.626c0.348,-6.223 -12.747,-8.925 -20.612,-8.804c-4.479,0.113 -13.61,2.759 -20.209,5.923c-10.452,3.237 -20.786,5.583 -32.963,6.465c7.066,6.045 8.387,6.401 15.445,11.507c-10.674,3.989 -18.943,12.21 -22.677,17.615c0,0 12.462,-0.348 15.619,1.06c-13.04,3.812 -18.895,6.102 -25.787,13.15c2.413,0.412 6.029,1.116 7.58,1.707c1.614,0.582 1.195,1.642 -0.111,2.638c-2.808,2.144 -14.416,15.625 -17.802,18.853c-3.387,-3.228 -14.994,-16.709 -17.803,-18.853c-1.306,-0.996 -1.725,-2.056 -0.111,-2.638c1.551,-0.591 5.167,-1.295 7.58,-1.707c-6.891,-7.048 -12.747,-9.338 -25.786,-13.15c3.157,-1.408 15.619,-1.06 15.619,-1.06c-3.735,-5.405 -12.003,-13.626 -22.677,-17.615c7.058,-5.106 8.379,-5.462 15.445,-11.507c-12.178,-0.882 -22.511,-3.228 -32.964,-6.465c-6.599,-3.164 -15.73,-5.81 -20.208,-5.923c-7.865,-0.121 -20.96,2.581 -20.612,8.804c-21.989,-3.876 -24.236,5.405 -22.97,13.626c2.073,-3.228 4.66,-5.025 6.607,-5.348c5.918,-0.98 12.858,4.329 17.225,9.515c-7.754,1.878 -13.783,0.648 -19.813,-0.412c-9.906,-1.748 -11.939,-6.425 -16.877,-11.628c-4.597,-4.815 -9.534,-3.463 -7.984,4.054c4.985,11.393 23.777,13.205 31.872,13.27c6.085,0 12.858,-0.882 16.592,-0.121c-1.281,2.282 -4.684,4.515 -9.764,4.879c-10.745,0.737 -17.455,-4.175 -17.455,-4.175c0.57,3.997 5.571,7.817 15.39,9.75c16.134,3.585 29.538,6.304 38.415,11.272c13.713,7.687 25.882,22.35 27.275,34.471c1.74,15.212 -3.616,23.984 -13.325,26.597c-11.133,3.051 -24.612,-7.997 -22.052,-25.48c2.453,-16.756 -6.058,-21.429 -26.48,-31.127c-9.474,-4.499 -18.677,-8.507 -26.399,-11.501c-4.249,-1.65 -7.699,4.224 -9.068,6.514c-26.301,-3.285 -49.959,-21.491 -60.641,-40.806c-7.232,-13.214 -19.235,0 -17.226,12.445c3.276,13.918 13.61,23.959 26.072,31.121c12.747,7.161 28.651,14.209 44.785,13.861c8.727,1.699 8.616,13.149 -1.781,15.325c-20.438,0.114 -36.69,-0.412 -52.016,-15.56c-11.655,-10.867 -18.207,2.112 -14.876,9.451c5.745,22.608 37.323,28.952 69.25,21.67c12.344,-2.12 5.317,9.305 1.488,11.563c-13.372,9.807 -37.26,19.379 -58.331,-0.114c-9.59,-7.517 -16.134,-1.173 -12.518,9.686c9.298,28.418 45.015,22.43 69.535,8.456c6.315,-3.585 12.051,4.758 4.36,11.159c-30.487,21.782 -45.702,22.017 -59.486,13.618c-17.225,-6.927 -18.721,12.631 -8.498,19.032c11.37,7.161 40.306,1.82 61.496,-11.863c9.131,-6.934 9.527,3.933 3.79,8.221c-25.209,22.253 -35.139,28.062 -61.385,24.486c-13.032,-1.06 -12.858,15.382 -2.58,21.783c13.95,8.747 41.28,-5.81 62.47,-23.782c8.956,-4.871 10.397,3.116 5.973,12.567c-12.921,16.733 -25.09,26.597 -36.808,31.177c-11.711,4.523 -22.962,3.819 -30.946,1.004c-9.701,-3.407 -11.175,10.716 -5.571,16.321c4.655,4.569 16.648,7.452 31.176,2.233c14.472,-5.284 30.035,-17.559 40.709,-32.003c9.25,-8.343 8.103,2.873 3.909,10.681c-21.419,34.592 -40.939,47.393 -66.718,45.217c-11.426,-1.934 -14.013,7.104 -6.718,15.503c12.747,10.86 28.762,10.512 42.72,-0.177c12.454,-12.276 36.231,-38.638 48.685,-52.791c8.783,-7.161 11.6,-0.113 9.021,14.444c-2.358,8.342 -8.214,17.09 -24.236,23.49c-10.912,6.401 -2.698,15.212 5.459,15.326c4.534,0.121 13.665,-5.284 20.668,-13.327c9.241,-10.633 9.764,-17.737 14.867,-34.236c4.772,-8.043 13.325,-4.281 13.325,4.11c-4.075,16.564 -7.636,19.493 -15.904,26.306c-7.984,7.574 5.515,10.164 10.049,6.992c13.15,-9.047 17.969,-20.731 22.337,-31.42c3.157,-7.688 12.343,-3.933 8.094,8.633c-10.16,30.005 -26.926,41.81 -56.21,47.855c-2.991,0.591 -5.144,3.433 -3.735,5.874c3.901,4.168 7.865,7.987 11.774,12.098c0,0 -32.822,8.421 -50.945,13.827l-24.965,-16.986c1.621,-6.187 -9.067,-13.641 -17.179,-7.497c-8.891,-4.199 -13.813,-2.352 -17.307,3.835c6.779,-2.252 10.222,-0.693 13.014,2.626c1.969,7.514 11.797,12.112 18.802,7.976l18.765,13.361l-31.626,-0.88c-2.262,-8.634 -17.926,-8.67 -22.256,-1.001c-5.696,0 -9.494,3.184 -11.445,10.632c6.193,-4.603 8.877,-4.049 12.052,-3.179c3.716,6.582 16.456,6.239 19.978,0l30.368,0.85l-17.742,10.187c-10.216,-6.032 -23.414,3.026 -20.947,12.444c-4.299,3.574 -4.873,8.717 -2.127,16.002c1.484,-5.051 4.304,-9.775 8.689,-12.498c9.303,2.549 18.245,-0.441 18.245,-9.879l24.661,-13.961l24.409,9.594c0,6.528 9.739,11.462 18.098,8.004c5.857,0.699 6.689,5.944 7.665,9.984c3.199,-5.802 3.796,-11.812 -3.618,-16.939c0,-7.506 -9.457,-12.171 -17.291,-7.844l-20.692,-7.354c18.583,-6.058 52.71,-12.188 52.71,-12.188c4.653,4.458 8.368,7.739 13.021,11.728c2.469,1.529 5.958,1.448 9.756,-3.512c11.6,-17.211 22.566,-48.542 39.333,-52.855c6.164,-1.586 13.578,2.589 12.003,16.377c-2.397,20.966 -17.74,38.396 -37.038,51.44c-10.737,7.161 -15.271,3.997 -23.595,3.584c-10.738,1.23 -13.61,6.571 -4.764,13.975c8.206,4.345 15.612,4.927 21.586,3.754c5.167,-0.938 11.196,-7.752 15.5,-11.45c4.827,-5.696 12.866,1.06 7.414,7.752c-9.938,12.097 -19.923,20.027 -32.156,19.849c-12.921,1.821 -10.508,9.217 -1.954,12.801c15.389,6.514 29.339,-5.64 36.349,-13.683c5.452,-6.044 9.361,-6.279 8.38,3.116c-5.397,17.081 -12.803,23.716 -24.861,24.542c-9.764,-0.882 -9.875,6.813 -2.754,12.04c16.3,11.507 28.129,-8.108 33.644,-19.97c3.901,-10.746 9.938,-5.632 10.563,3.172c0.119,11.806 -8.338,24.054 -15.313,30.103c-6.975,6.048 30.07,44.507 30.07,44.507c0,0 37.044,-38.459 30.069,-44.507Zm49.643,-435.518c-5.766,0 -9.329,2.022 -9.329,4.472c0,2.487 3.563,4.516 9.329,4.516c5.731,0 9.371,-2.211 9.371,-4.705c0,-2.45 -3.64,-4.283 -9.371,-4.283Zm-159.425,0c5.767,0 9.329,2.022 9.329,4.472c0,2.487 -3.562,4.516 -9.329,4.516c-5.731,0 -9.371,-2.211 -9.371,-4.705c0,-2.45 3.64,-4.283 9.371,-4.283Z"/></svg>