<?xml version="1.0" encoding="utf-8"?>
<!-- Generator: Adobe Illustrator 24.0.1, SVG Export Plug-In . SVG Version: 6.00 Build 0)  -->
<svg version="1.1" id="Layer_1" xmlns="http://www.w3.org/2000/svg" xmlns:xlink="http://www.w3.org/1999/xlink" x="0px" y="0px"
	 viewBox="0 0 351 351" style="enable-background:new 0 0 351 351;" xml:space="preserve">
<style type="text/css">
	.st0{fill:none;stroke:#000000;stroke-width:2.2677;stroke-linecap:round;stroke-miterlimit:10;}
	.st1{fill:none;stroke:#000000;stroke-width:2.8346;stroke-miterlimit:10;}
</style>
<g id="BG">
</g>
<g id="Ref">
</g>
<g>
	<path d="M99.5,120.5c2.4,5,5.4,12.7,6.4,22.4c0.6,6.2,0.3,11.6-0.3,15.9c4.6-0.3,6.5-1.9,7.4-3.2c3.3-4.6-1.8-11.8,2.2-16.4
		c1.3-1.5,2.4-1.3,3-2.9c1.2-3.1-2.3-6-0.9-8.8c0.7-1.4,1.7-0.9,2.7-2.6c1.3-2.1,0.3-3.6,0.8-6.2c0.6-3.5,2.9-3.2,4.6-7.1
		c2.1-4.9-0.1-8.6,2-9.8c1.7-1,3.3,1.3,5.6,0.4c3.1-1.1,1.6-6,5.2-10.2c2.9-3.4,4.9-1.6,9.5-5.8c2.8-2.5,2.7-3.7,6.2-7.3
		c2.5-2.6,4.8-4.3,6.4-5.4c-1.8,3-2.3,5.7-1.2,6.8c1.5,1.4,5.3-0.4,6-0.8c4.7-2.3,5.3-5.9,8.3-5.9c2,0,2.2,1.6,4.6,1.6
		c2.5,0,3.3-1.9,6.5-2.9c2.1-0.7,4-0.7,5.4-0.5c-2.5,2-3.7,4.8-3.1,7.3c0.1,0.4,0.8,2.9,2.9,3.3c1.5,0.3,3.2-0.4,4.2-1.9
		c-0.3,2.3-0.3,5.2,1.4,6.4c1.4,0.9,2.5-0.3,5.3,0.1c3.4,0.5,4.1,2.8,8.1,4.1c1.9,0.6,3.6,0.7,4.6,0.7c-1,1.5-1,3.4-0.1,4.7
		c1.2,1.6,3.6,2.2,5.5,1.1c0.3,1.7,0.5,4,0.1,6.6c-0.6,4.1-2.1,6.1-0.9,8c0.9,1.5,2.1,0.9,3.6,2.5c1.6,1.8,0.9,3.6,1.5,8.2
		c0.5,3.7,1,7.7,3.7,9c1.3,0.7,3.3,0.6,4.1-0.3c0.9-1,0-2.4-0.2-5.3c-0.2-2.4,0.2-3,0.4-4.6c0.1-0.9,0.1-1.5,0.1-1.9
		c0-3,0.8-6,0.7-8.5c-0.1-1.7-0.6-4.1-2.6-6.9c1.7-3,2-5.4,1.9-7.1c-0.1-3.5-1.8-5.1-2.5-9.8c-0.3-2.2-0.2-4-0.1-5.3
		c0.3,0.6,1.1,2.1,2.9,3.1c0.6,0.3,2.5,1.3,3.9,0.5c0.9-0.5,1.1-1.5,1.6-4.6c0.3-1.7,0.6-4,0.8-6.8c0.9-1,2.3-3,3.1-5.9
		c1-3.9,0.1-7.2-0.4-8.5c1.2-0.4,3-1.2,4.9-2.7c1.1-0.9,2.5-2.1,3.4-4.1c1.3-2.9,0.8-5.6,0.5-6.8c2.2,0.4,3.6,1.2,4.5,1.9
		c1.1,0.8,2.5,2.1,4,2c0.1,0,0.1,0,0.2-0.1c1.5-0.6,1.7-4.2,0.8-6.8c-0.6-1.7-1.5-2.9-2.2-3.6c1.3-0.3,3.2-1,4.9-2.7
		c2.5-2.4,3.1-5.4,3.3-7c0.4-2.1,0.2-3.8,0.1-5c0.8,0.2,2.1,0.4,3.7,0.3c0.5,0,6.6-0.7,7.9-5c0.2-0.6,0.6-2.3-0.6-4.7
		c1.2,0.9,3,2.1,5.4,2.9c1.9,0.7,4.6,1.5,7.8,0.6c3.4-1,5.3-3.4,5.9-4.3c1.8-2.4,2.2-4.9,2.4-6c2.1,0.4,5.9,0.7,10.3-0.4
		c3.9-1,6.8-2.8,8.4-4c-0.1,0.3-1.5,4.3,1,7.6c1.7,2.2,4.1,2.8,4.8,2.9c-2.8,0-5.2,1.6-5.9,3.9c-0.7,2.1,0.4,4,0.6,4.4
		c-0.2,0.2-1.8,2.4-1,4.9c0.7,2.2,2.8,3.8,5.3,3.9c-1.9,0.9-4.5,2.5-6.7,5.4c-1.4,1.8-3.3,4.4-3.1,7.9c0.1,2,1,3.6,1.5,4.5
		c-5.2-1.3-9.7,1.3-10.3,4.5c-0.6,2.9,2.1,5.5,2.4,5.8c-1.3,0.3-5.1,1.3-6.3,4.2c-0.3,0.7-0.5,1.7,0.3,5.8c0.6,3,1.3,5.4,1.8,7.2
		c-1,0.5-3.6,1.9-5.4,4.9c-2.2,3.7-1.8,7.3-1.6,8.3c-3.6-0.9-7,0.7-8.1,3.4c-1.1,2.7,0.6,5.4,0.8,5.7c-4.3,0.5-6.6,2.1-7.8,3.4
		c-1.2,1.3-1.5,2.5-4,7.5c-0.9,1.8-1.7,3.2-2.2,4.2c-1.2-1.6-3.3-2.2-5-1.4c-2,0.9-2.3,3.4-1.9,5c0.6,2.3,3,3.2,3.2,3.3
		c-1.2,3.1-2.4,5.6-3.4,7.5c-1.5,2.9-2.2,4-3.5,4.4c-1.5,0.5-2.8-0.2-3.5,0.7c-0.6,0.7,0.2,1.6-0.1,2.9c-0.3,1.8-2.2,2.9-4.6,4.2
		c-3.8,2.1-4.9,1.4-6,3c-1,1.4-0.4,2.2-1.7,4.5c-0.9,1.6-1.2,1.4-2,2.7c-1.8,3.1-0.4,4.9-2,6.8c-1.6,1.8-3.6,1-4.1,2.4
		c-0.4,1.3,1.3,2.2,2.1,5.6c0.3,1.2,0.5,2.1,0.2,3.2c-0.5,1.7-1.7,1.9-2.7,3.4c-1.3,2.1-1.2,5.3,0,7.4c1.1,1.8,2.6,1.7,4.5,4.4
		c0.7,1,1.1,1.8,1.3,2.4c-0.2,0.8-0.5,2-1.3,3.2c-1,1.6-1.7,1.8-2.2,3.1c-0.7,1.7,0.1,2.1-0.4,3.7c-0.7,2.3-2.4,1.9-3.2,4.1
		c-0.9,2.4,0.3,5.1,0.5,5.5c0.5,1.1,0.8,1,0.9,1.7c0.3,1.7-1.2,2.8-3,5.7c-0.8,1.2-2,3-2.5,5.1c-0.4,1.5-0.6,3.6,0.1,6.4
		c-1.9-1.1-3.8-1.1-4.7-0.2c-1,1.1-0.1,3.4,0.1,3.9c0.4,0.9,0.7,1.2,2.6,3.5c0.7,0.9,1.3,1.6,1.6,2.1c-0.9,0.2-2.6,0.7-3.9,2.1
		c-2.7,3-2.3,8.5,0,9.7c0.4,0.2,1.3,0.5,3-0.2c-0.4,0.7-1,1.9-1.2,3.4c-0.3,2.7,0.8,4.7,1.5,5.9c1.3,2.2,2.9,3.5,4.9,5.1
		c2.9,2.3,3.7,2.1,4.1,3.3c0.6,1.9-1.1,3-2.1,6.9c-0.5,2-0.5,3.3-0.5,4.9c-0.4,9.2-4.5,22.4-3,27.1c0.4,1.3,0.6,1.9,0.6,1.9
		c1,2.8,1.4,3.2,1.5,4.2c0.1,1.5-0.9,1.8-1.6,3.6c-0.5,1.2-0.4,1.8,0,7.1c0.4,5.1,0.5,6.5-0.5,7.3c-1,0.9-2.4,0.2-2.8,1.1
		c-0.5,0.9,0.8,2,1.5,4.1c0.6,1.8,0.5,3.4,0.3,4.6c-0.1-0.2-0.5-1.4-1.9-1.9c-0.2-0.1-1.4-0.5-2.4,0.2c-1.1,0.7-1.5,2.6-0.7,4.3
		c0-0.4-0.4-2.8-2.3-3.8c-0.3-0.2-1.2-0.6-2-0.3c-1.1,0.4-1.9,1.9-1.8,3.8c-1.4-2-1.9-3.7-2.1-4.9c-0.3-1.5-0.1-2.5-0.8-3
		c-0.8-0.5-2.2-0.1-2.9,0.7c-0.7,0.8-0.5,1.8-0.3,3.5c0.2,1.3,0.5,3.5,0.9,6.4c-2.9-3.9-4.8-7-5.4-8.1c-0.8-1.6-1.2-3.1-1.2-3.1
		c-0.2-0.7-1.8-7,1-10.8c3.8-5.1,12.9-2.3,15.1-7.3c0.6-1.4,0.6-3.2,0.6-3.7c0-2.4-0.7-3.4-1.3-5.8c-0.6-2.5,0-2.1-0.6-8
		c-0.4-4.2-0.9-6.3-1.1-6.8c-0.7-2.6-0.9-2.3-1.3-4.1c-0.8-4.1,0.5-5-0.3-8.2c-0.7-2.8-1.9-2.2-3-5.5c-1.1-3.3-0.2-4.3-1.5-7
		c-1-2-1.5-1.5-3.3-4.2c-1.9-2.9-3.3-6.4-3.7-7.4c-0.7-1.9-1.2-3.5-2.4-3.9c-0.1,0-0.9-0.2-1.5,0.2c-0.7,0.6-0.7,1.8-0.5,3.4
		c0.5,3.7,1,7.1,3.8,10.1c1.3,1.4,1.4,0.9,2.2,2c2.1,2.7,2.3,6.6,1.3,9.6c-0.6,1.8-1.2,2.5-1.9,4c-2.3,4.6-0.5,6.6-1.5,13.3
		c-1,6.8-4.2,13.6-2.2,15.5c0.2,0.2,0.7,0.6,0.9,1.3c0.4,1.3-0.5,2.7-1,3.4c-1.2,1.7-2.8,2.7-4.9,4c-1.8,1.1-2.3,1.1-2.7,1.9
		c-0.5,1.1,0,1.7,0.1,4.2c0,1,0.2,4.1-0.9,4.5c-0.7,0.3-1.3-0.7-2-0.4c-0.7,0.3-0.9,1.3-1,2.2c-0.2-0.3-1.8-3-4.6-3.2
		c-0.4,0-1.5-0.1-2.6,0.6c-1.2,0.8-1.5,2.1-1.6,2.4c-0.2-0.4-0.8-2.1-2.5-2.7c-0.3-0.1-1-0.4-1.7-0.1c-1,0.3-1.7,1.5-1.8,2.9
		c-0.6-1-1.3-2.5-1.7-4.5c-0.7-3.7,0.4-6.8,1.4-9.5c1.2-3.4,1.9-5,3.5-6.1c1.7-1.2,3.8-1.3,8.1-1.6c3.1-0.2,5-0.1,5.8-1.4
		c0.4-0.7,0.4-1.4,0.3-2.3c-0.2-2.4,0.4,1.5,0.3-7.3c0-8-0.1-11.9-0.6-17.3c-0.5-5.4-1.3-10.3-1.9-12.7
		c-2.8-13.4-11.6-25.2-17.4-31.8c0.1-1.3,0.1-2.6,0-4.1c-0.8-7.4-5.4-12.4-7.7-14.6c0.7-2.8,0.7-5.1,0.6-6.7
		c-0.1-2.1-0.5-2.9-1.1-3.4c-0.7-0.5-1.8-0.6-2.6-0.2c-1.1,0.6-1.3,2.2-1.4,3.8c-0.3,4.5,0,8,0.1,9.2c0.2,2.4-0.2,4.8-0.9,9.4
		c-1.6,11.2-4.5,13.7-3.3,19.4c0.7,3,2.1,5.3,3.2,6.8c-1,0.3-2.4,1-3.3,2.4c-1.4,2.2-1,4.7-0.7,6.2c0.8,5.4-0.5,10.8-0.7,16.2
		c-0.2,5.8-0.4,7.8-0.3,11.9c0.2,6.6,1,8.1,1.3,8.7c0.9,1.8,2.1,3.1,2.6,5.8c0.3,1.5,0.1,2.3,0.1,3.7c-0.1,2.1,0.1,5.1,1.5,8.9
		c-2-1.9-4-2.7-5.1-3c-1.2-0.3-2.4-0.7-3.1,0c-0.6,0.6-0.7,1.8-0.1,3.1c-0.4-0.3-2-1.7-4.3-1.6c-0.6,0-2.2,0.1-3.3,1.4
		c-1.6,1.7-0.9,4.1-0.9,4.3c-2.2,0.3-5.2,0.4-7.4-1.4c-2.7-2.4-1.9-6.3-4.3-7.1c-1.8-0.6-4.3,0.9-5,2.6c-0.4,1,0.2,1.6,0.3,3.9
		c0.1,1.5-0.1,2.7-0.2,3.5c-0.9-1.5-2.4-2.4-3.7-2.2c-0.8,0.1-1.4,0.6-1.6,0.8c-1.6,1.4-1.2,3.8-1.2,4.1c-0.1-0.9-0.5-2.8-2.1-4.1
		c-0.4-0.3-1.5-1.2-2.5-0.9c-0.7,0.3-1,1.2-1.1,1.5c-0.6,2.2,1.3,4.3,1.7,4.7c-1,0-3.4-0.1-5.1-1.9c-2.1-2.1-1.9-5.2-1.6-7.6
		c0.5-5.6,3.6-9.3,4.6-10.4c1.1-1.3,3.6-4.1,7.9-5.5c2.1-0.7,3.9-0.8,5.2-0.8c0.1-4.2,0.2-8.1,0.1-11.4c0-2.2,0-5.6-0.1-9.8
		c-0.1-2.1-0.1-4-0.2-5.4c-2-3.4-2.5-6.2-2.7-8.2c-0.1-2.1,0.2-3.1-0.3-5.6c-0.4-1.9-0.8-2-1.8-5.2c-0.7-2.2-1.1-3.6-1.4-5.5
		c-0.3-3,0.4-2.9-0.1-5c-0.6-2.8-2-3.5-2.1-6.2c0-1.4,0.4-1.2,0.3-2.5c0-3-2.1-3.6-2.6-6.4c-0.5-2.7,1.4-3.2,1.1-7
		c-0.1-1.2-0.2-3.6-1.8-5.2c-0.7-0.7-2.1-1.2-4.9-2.3c-3.5-1.4-3.5-1.2-4.1-1.7c-2.2-1.9-1.3-4.3-3.3-5.5c-1.4-0.8-3.4-0.6-4.6,0.3
		c-1.4,1.1-1.4,2.9-1.5,4.6c0,0-0.4,5.7-1.7,11.2c-0.3,1.4-2.3,9.5-6.6,10.3c-3,0.6-4.2-3-9.9-3.3c-1.8-0.1-2.9,0.2-3.7-0.6
		c-0.8-0.8-0.7-2.1-0.3-6.6c0.2-2.1,0.3-3.7,0.3-4.2c0.1,0.4,0.5,3.1,2.6,4.1c0.8,0.4,1.4,0.4,2.3,0.4c1.4,0,3.8,0,5.2-1.6
		c1.4-1.6,1.4-4.2,0.1-6.6c0.7,0.6,2.3,1.7,3.7,1.3c1.1-0.3,1.5-1.2,3.2-4.5c2.6-5,2.9-5.2,3-6.4c0.1-0.6,0.5-4.6-1.7-5.7
		c-1.6-0.8-3.6,0.2-4.6,1c-0.9,0.7-1.1,1.3-2.1,2.7c-1.7,2.5-2.7,3.9-4.3,4.7c-1,0.5-3,0.5-7,0.6c-1.7,0-2.6,0-3.6,0.6
		c-1.4,0.8-1.3,1.7-2.6,2.8c-1.8,1.7-4.6,2.3-6.9,1.8c-1.5-0.3-2.4-1.1-4-2.3c-2.3-1.8-2.3-2.6-3.9-3.9c-1.4-1-3.1-1.4-6.4-2.2
		c-5.2-1.2-6.3-0.6-8-2c-2.1-1.7-2.6-4.2-2.8-5c-0.4-1.8-0.2-3.1,1.3-8.5c2.1-7.5,2.5-8.1,2.1-9.8c-0.1-0.5-1.2-2.5-3.4-6.4
		c-2.4-4.3-2.6-4.5-2.8-5.1c-1.1-2.7-1.2-5.2-1.1-9.2c0.1-3.9,0.4-8.9,1.2-15c1.1,0.9,2.6,2.3,3.7,4.3c0.7,1.2,0.7,1.7,1.3,3.1
		c0.8,2.1,2.3,5.8,5.6,8c1,0.7,3.1,2.1,4.8,1.4c1.2-0.5,1.1-1.5,2.8-3.8c0.9-1.2,2.2-2.8,4.2-3.7c1.6-0.7,3.2-0.8,4.3-0.7
		c0.9-0.9,1.7-1.9,2.6-2.8c0.3,0.3,1.3,1.3,2.9,1.4c2.3,0.2,3.8-1.3,4-1.5c0.7,0.2,2.1,0.5,3.7,0.3c0.6-0.1,2.1-0.3,3.3-1.3
		c1.1-0.8,1.1-1.5,2.8-6c1.1-3,1.7-4.1,2.6-5.4c0.8-1.1,1-1.1,1.7-1.9c1.9-2.5,1.9-5,2.4-7.3C95.9,126.4,96.9,123.6,99.5,120.5z
		 M145.3,210.9c-1.1-0.4-2.4,0.7-2.5,0.8c-1.3,1.1-1.5,2.9-1.5,3.5c-0.7,7.8-1,11.8-1,11.9c0.6,11.4-1,10.1,0,15.8
		c1.2,7,3.5,7.5,3.2,13c-0.2,4.2-1.5,5-1.5,9.8c0,2.8,0.4,3.1,1.8,10.8c1.2,6.4,1.7,9.6,1.7,12c0,3,0,6,0,9.1c0,2.4-0.1,4.6,1.3,5.6
		c0.7,0.5,1.7,0.7,2.5,0.4c1.6-0.7,1.5-3.7,1.4-4.9c-0.1-3.5-1.5-6-2.1-7.3c-1-2.2-0.8-3.4,0.9-18.2c1.3-11.2,1.4-12.3,1-14.7
		c-0.6-3.2-1.6-4.8-2-9c-0.2-2.2-0.1-3.9,0.3-8.7c1.4-14.2,2.6-14.9,1.4-18.2c-1.2-3.4-2.9-4.3-3.6-8.4
		C146.5,213.1,146.4,211.3,145.3,210.9z M56.2,181.1c-0.5,0.3-2.2,1.4-2.7,3.5c-0.6,2.5,0.8,4.5,1,4.8c1.2,1.6,2.9,2.1,4.6,2.6
		c1.8,0.5,3.2,0.9,4.8,0.2c2.7-1.2,3.2-4.4,3.2-4.7c0.5-3.1-1.6-5.3-1.9-5.5c-2.1-2.2-4.9-2-5.6-2C59.1,180.1,57.7,180.2,56.2,181.1
		z M79.7,180.3c0.2,0.6,0.9,2.1,2.2,2.5c1,0.2,1.9-0.6,3.8-2.2c0.8-0.7,1-1,1.8-1.6c0.9-0.6,1.4-0.8,2.2-1.3
		c1.3-0.7,1.2-0.9,4.2-3.1c2-1.5,2.4-1.7,2.7-1.8c1.7-0.6,2.5,0.1,3.2-0.6c1.1-0.8,1.1-3.2,0.1-4.7c-1.5-2.3-5.1-2.1-6.8-2
		c-1.1,0.1-3.7,0.2-5.7,2.1c-1,0.9-0.6,1.1-2.1,3c-1.3,1.7-1.9,1.9-4.3,4.8c-0.9,1.1-1.6,1.9-1.6,3.1
		C79.4,179.4,79.6,179.9,79.7,180.3z M72.5,192.4c-1.1,0.7-1.6,2.9-0.6,4.4c1.2,1.7,3.7,1.3,3.8,1.3c0.8-0.2,0.9-0.4,2.1-1.1
		c2.5-1.3,3.4-0.7,4.3-1.6c1.1-1.1,1.6-3.6,0.2-5c-1.1-1.1-3.1-1.2-4.2-0.5c-1.2,0.7-0.9,1.9-2,2.5
		C74.8,193.1,73.6,191.7,72.5,192.4z M72.2,200.8c-3.2-0.2-4.4-1.2-5.9-0.3c-1.2,0.7-1.9,2.3-1.8,3.6c0.1,1.5,1.3,2.4,3,3.8
		c1.2,0.9,2.4,1.9,4.3,2.2c0.9,0.1,2.3,0.4,3.7-0.4c1.5-0.9,2.1-2.5,2.2-2.8c0.5-1.3,0.2-1.8,0.8-2.3c0.7-0.6,1.9-0.3,2.9-0.1
		c1.6,0.4,1.7,0.8,2.9,1.2c2.2,0.7,4.3-0.1,5-0.4c0.6-0.2,2.2-0.9,3.5-2.4c1.4-1.7,0.8-2.5,2.2-4.2c1.3-1.5,2-1.1,3-2.5
		c0.9-1.3,1.5-3.2,1-5.2c-0.9-3.2-4.2-4.1-4.8-4.3c-1.7-0.5-4.3-0.5-5.9,1c-0.8,0.7-1.3,1.9-1.6,2.7c-0.3,0.7-0.4,1.1-0.7,2.1
		c-0.4,1.3-0.9,2.7-1.3,3.5c-1.1,2.2-3.7,3.1-5.9,3.8C75.7,201,72.8,200.8,72.2,200.8z M89.3,225.7c-0.2,0.7,0.3,1.5,0.8,2
		c0.3,0.3,0.8,0.7,3.7,0.9c2,0.1,3.1,0.2,3.8-0.3c0.8-0.5,1.1-1.1,1.8-2.5c0.9-1.9,0.4-2,1.4-5.1c0.2-0.7,0.5-1.4,0.1-1.9
		c-0.3-0.4-0.9-0.6-1.4-0.5c-0.6,0.1-1,0.5-1.1,0.7c-1.1,1.1-5.1,4.7-7.9,5.9C90.1,224.9,89.5,225.2,89.3,225.7z"/>
	<g>
		<path class="st0" d="M58.2,215.1c-1.3,0.9-2.9,1.8-4.8,2.7c-2.2,1-4.1,1.6-5.8,2"/>
		<path class="st0" d="M61.6,218.7c-2.1,1.1-4.2,2.2-6.4,3.3c-2.7,1.4-5.4,2.7-8,4"/>
		<path class="st0" d="M62.4,232.5c0.4-2.8,1-4.9,1.6-6.4c0.5-1.4,1.7-4.6,3.1-4.5c0.5,0,0.8,0.6,1.9,0.8c0.9,0.2,1.2-0.1,1.6,0.1
			c0.5,0.2,1,1.3,0.5,5.2"/>
	</g>
	
	<path d="M226.7,114"/>
</g>
</svg>
