<?xml version="1.0" encoding="utf-8"?>
<!-- Generator: Adobe Illustrator 22.0.1, SVG Export Plug-In . SVG Version: 6.00 Build 0)  -->
<svg version="1.1" id="Layer_1" xmlns="http://www.w3.org/2000/svg" xmlns:xlink="http://www.w3.org/1999/xlink" x="0px" y="0px"
	 viewBox="0 0 246.1 249.7" style="enable-background:new 0 0 246.1 249.7;" xml:space="preserve">
<style type="text/css">
	.st0{fill:#00A651;}
</style>
<path class="st0" d="M118,0c-5.4,11.3-15.5,19.2-25.1,26.7c-1.6,1.4-5.5,4.1-2.7,6.1c2.5-2.7,9.2,0.9,5.3,3.8
	c-3.5,3.3-8.3,4.5-12.2,7.2c-3.5,1.9-6.9,3.8-9.7,6.7c-0.2,4.5,5.6,2,7.9,3.9c3,3.2-1.3,8.7-5.3,7.5c-5.1,0.2-8.6,4.6-10.5,8.9
	c-4,6.2-11.5,8-17.6,11.5c-3.4,2-6.8,4.2-10,6.6c-4.1,2.8-0.5,8.4,3.9,7c4.7-0.5,9-4.2,13.9-3.1c4.5,1.6,5.7,7.4,4.2,11.5
	c-1.1,3.3-3.8,5.5-6,8.1c-3.5,3.6-8.2,5.9-13.1,7c-4.7,1.6-9,4.5-12.1,8.4c-3.6,3.6-7.2,7.3-11.3,10.3c-1.3,3.3,2.4,6.2,5.5,6.1
	c6.5-0.4,11-5.7,16.5-8.4c4.6-2.1,10,2.9,8.8,7.6c-0.4,4.6-4.7,7-8.6,8.4c-11.3,5.7-21.2,14-29.9,23.1c-1.8,3.7-6.8,2.6-9.5,5.2
	c-1.7,3.3,2.6,5,5.2,4.6c11.2-1.4,21.7-6.1,31.6-11.3c3.7-1.8,7.2-4.1,11-5.5c3.6-0.9,8.6,0.7,9.3,4.8c0,4.3-4.3,6.7-7.7,8.4
	c-10.5,5.5-22,8.5-33.2,12.2c-4.2-1.2-7.3,6.3-2.8,7.6c4.9,1.7,10,0.3,15,0.1c15.4-2.4,28.8-10.7,43.2-16.1c6-1.9,13,0.8,16,6.4
	c3,5,2.7,11.6-0.4,16.4c-4.9,10.6-12.4,20.3-22.5,26.4c-6.3,3.1-13.7,4.3-19.1,9.1c-5,1.7,2.5,8.4,3.6,3.1c3-4.1,8.3-5.3,13.2-5.5
	c7.2-0.8,14.9-2.1,20.6-7.1c5-3.9,10-9.3,16.9-9.4c3.8,0.4,7.5,3.5,11.4,1.6c3.4-1.5,8.6-0.6,9.5,3.5c1.6,4.8,6.6,7,10.6,9.6
	c1.4,2,6.2,7.2,7.3,2.6c-0.9-3.3,0.4-8.3,4.7-7.2c3.7,0.2,7.3,1.5,11,1.8c5,1,9.1,4.4,11.9,8.5c1.9,2.7,6.2,7.3,9.4,3.7
	c2-3.7-1.8-6.7-4.8-8.1c-4.4-2.8-8.2-6.4-12.1-9.9c-5.7-5.3-10.7-12.1-11.6-20.1c-1.2-8-0.6-16.1,0.5-24c1.3-5.1,7.8-7.9,12.4-5.2
	c6.4,2.9,12.8,7.1,20.2,6.7c10.7,0.2,21.6-1.8,32,1.3c10.1,3.2,17.4,11.7,27.3,15.4c2.2,1.3,5,0.1,5.8-2.3c1-2.1,0.3-4.8-1.8-6
	c-11.4-11.5-27.1-17.2-40.3-26.2c-4.2-1.1-4.9-7.8-1.1-9.7c5.1-3.7,12.2-2,16.7,1.8c3.8,2.2,8.1,3.9,12.5,3.9c4.6-1.4,2.3-8-1.7-8.5
	c-7.4-4.2-12.7-11-19.1-16.5c-3.7-3.1-7.7-6.3-12.7-6.9c-2.7-0.5-5.5-0.6-8.2-0.4c-2.6-2.8,0.9-7.1,4.2-6.7c3.4,0.2,6.8,0.5,10.2,0
	c3.8-0.3,7.6-0.7,11.5-0.7c3.1,2.1,9.3-1.5,6.5-5.2c-3-2.7-7.5-2.4-11.1-3.8c-6.4-2.1-12.9-3.8-19.5-5.1c-4.6-0.3-4-6.3,0-7
	c2.7-1,5,1,7.5,1.4c4.3,0.9,8.8,0.9,13.2,1.9c3.7-1.8,0.8-7.2-2.5-7.5c-7.9-2.8-14.7-7.9-21.3-12.8c-7.3-5.5-14-11.9-21.4-17.3
	c-2.7-1.7-7.1-2.2-7.8-5.9c-0.3-3.4,3.8-5,6.6-4.2c4,1.2,7.8,3.3,11.9,4.3c3.2,0.5,6.5,1.5,9.7,1.1c3.9-2.5-1.7-4.1-3.7-4.9
	c-5.3-2.8-9.9-6.6-14.7-10.2c-4-3.4,3.4-4.9,5.9-3.6c4.2,1.8,4.7-4.4,1.6-6c-3.7-1.6-7-4.2-10.4-6.5c-6.1-4.4-13.1-7.8-20.6-8.8
	c-8.5-0.8-16.3-5.7-20.8-12.9C122,9.1,120,4.5,118,0z M90.3,47.4c4.4,0.1,3.7,8-0.6,7.5C85.5,54.6,85.7,46.6,90.3,47.4z M131.4,51.6
	c4.2-0.8,5.1,7,0.9,7.3C127.8,59.8,126.2,51.2,131.4,51.6z M119.3,52.7c4.3,0.8,3.5,8.3-0.8,8.4c-3.2,0.7-6.6,2.9-9.8,1.2
	c-2.6-2.8,1.2-6.8,4.1-7.7C115,54.1,117.1,53.1,119.3,52.7z M147,52.7c4.1,1.5,2.7,8.8-1.7,8.7c-4.1,0.6-6.1-6.3-2.2-8
	C144.4,53,145.7,52.6,147,52.7z M100.3,61c3,2.9,1.2,8.5-2.5,9.8c-2.7,1.5-6.4,5.1-9.3,2.1c-1.6-3.6,2.4-6.3,4.8-8.3
	C95.3,63,97.6,61.6,100.3,61z M135.1,77.1c4.4,2.1,2.1,9.9-2.6,9.4c-3.9-1-3.4-7.7,0.5-8.3C133.7,78,134.4,77.6,135.1,77.1z
	 M121.2,77.9c4.1,1.9,1,8.7-3.1,7.7c-4.3-0.5-4.2-8,0.5-7.3C119.5,78.3,120.4,78.3,121.2,77.9z M151.1,81.8c4.5-1.4,9.8,3.2,8.4,7.9
	c-2,3.6-6.9,4.1-10.4,2.7c-4.1-0.2-6.8-6.3-3.2-8.9C147.3,82.4,149.2,82,151.1,81.8z M85,83c3.7-2,7.6,4,4.5,6.7
	c-2.1,3.1-7.4,4.3-9.8,0.9C77.8,87.3,80.9,81.7,85,83z M68,85.9c4.2,0.6,6.9,4.4,8.5,8c0.4,4.4-6.1,6.8-9,3.6c-3.2-2-6-6.1-4.3-10
	C64.2,86,66.2,85.4,68,85.9z M170,101.8c4.5-1.2,7.9,6.1,3.9,8.7c-3.6,3.2-10.5-1.1-8.7-5.7C166.2,103.1,168.1,102,170,101.8z
	 M112.1,110.1c3.8,0.5,2.6,7.1-0.9,6.9C107.4,116.3,108.2,109.7,112.1,110.1z M92.7,113.6c3.1-2.2,7.1,3.2,4.5,5.7
	C94.2,121.5,90.1,116.2,92.7,113.6z M123.5,114.3c3.6,2.2,5.7,6.3,6.2,10.4c-1.7,3.9-8.4,2.9-9.2-1.2
	C119.2,120.3,120.4,116.1,123.5,114.3z M134.2,120.7c4.6-1.2,3,8.5-0.9,5.2C132.1,124.3,132.7,121.8,134.2,120.7z M66.8,127.4
	c3.1-0.9,7.6,0,8.4,3.6c0.4,3.3-3.3,5-6,5.9c-4.3,1.3-8.5,3.5-13.1,3.2c-3.5-2-4.7-6-5.9-9.5c3.3-3.1,8.2-2.2,12.4-3
	C64,127.5,65.4,127.4,66.8,127.4z M171.4,142.6c3.9-1.9,8.1,4.3,4.9,7.2c-4.1,4.7-12,5.6-16.9,1.6c-0.6-4.2,3.6-7.2,7.3-7.8
	C168.2,143.2,169.8,142.6,171.4,142.6z M193.5,147.4c4.5-0.8,8,5.6,4.8,8.9c-3,4.5-10.2,5.7-14.3,2c-1.6-3.8,1.6-7.7,5.1-8.9
	C190.5,148.8,192,148,193.5,147.4z M82.5,154.2c4.1-0.4,7.9,3.7,7.4,7.8c3,2.9-2.3,8.4-5.3,5.4C82,164.1,82,159.8,81,156
	C80.9,155.2,81.6,154.1,82.5,154.2z M114.2,156.6c4.3-1.8,9.8,3.3,7.5,7.6c-1.7,3.5-8.1,2.3-7.9-1.7
	C113.8,160.5,113.6,158.5,114.2,156.6z M98.8,159.3c4.3-1,8.2,4.6,5.8,8.3C100.4,168,98.2,162.9,98.8,159.3z"/>
</svg>
