<?xml version="1.0" encoding="utf-8"?>
<!-- Generator: Adobe Illustrator 16.0.0, SVG Export Plug-In . SVG Version: 6.00 Build 0)  -->
<!DOCTYPE svg PUBLIC "-//W3C//DTD SVG 1.1//EN" "http://www.w3.org/Graphics/SVG/1.1/DTD/svg11.dtd">
<svg version="1.1" id="Layer_1" xmlns="http://www.w3.org/2000/svg" xmlns:xlink="http://www.w3.org/1999/xlink" x="0px" y="0px"
	 width="500px" height="500px" viewBox="0 0 500 500" enable-background="new 0 0 500 500" xml:space="preserve">
<circle fill="none" stroke="#000000" stroke-width="18" cx="250" cy="250" r="237.5"/>
<ellipse display="none" fill="none" stroke="#000000" stroke-width="18" cx="250" cy="250" rx="93.551" ry="98.418"/>
<circle cx="250" cy="250" r="72.334"/>
<circle fill="none" stroke="#000000" stroke-width="18" cx="250" cy="250" r="94.724"/>
<polyline id="line_7_" fill="none" stroke="#000000" stroke-width="18" points="177.189,23.889 202.805,68.254 159.503,93.254 
	340.217,406.26 296.916,431.26 322.811,476.111 "/>
<polyline id="line_8_" fill="none" stroke="#000000" stroke-width="18" points="23.889,322.811 68.254,297.195 93.254,340.497 
	406.26,159.783 431.26,203.084 476.111,177.189 "/>
<polyline id="line_9_" fill="none" stroke="#000000" stroke-width="18" points="90.587,426.111 116.202,381.746 159.503,406.746 
	340.217,93.74 383.518,118.74 409.413,73.889 "/>
<polyline id="line_10_" fill="none" stroke="#000000" stroke-width="18" points="17.776,200 69.006,200 69.006,250 430.434,250 
	430.434,300 482.224,300 "/>
<polyline id="line_11_" fill="none" stroke="#000000" stroke-width="18" points="73.889,90.587 118.254,116.202 93.254,159.503 
	406.26,340.217 381.26,383.518 426.111,409.413 "/>
<polyline id="line_5_" fill="none" stroke="#000000" stroke-width="18" points="300,17.776 300,69.005 250,69.005 250,430.434 
	200,430.434 200,482.224 "/>
</svg>
