<?xml version="1.0" encoding="iso-8859-1"?>
<!-- Generator: Adobe Illustrator 18.1.1, SVG Export Plug-In . SVG Version: 6.00 Build 0)  -->
<svg version="1.1" id="Capa_1" xmlns="http://www.w3.org/2000/svg" xmlns:xlink="http://www.w3.org/1999/xlink" x="0px" y="0px"
	 viewBox="0 0 318.914 318.914" style="enable-background:new 0 0 318.914 318.914;" xml:space="preserve">
<g>
	<g>
		<path style="fill:#010002;" d="M303.908,74.678H199.113L155.987,0l-43.121,74.678h-90.99l45.487,78.801l-52.356,90.762h104.767
			l43.11,74.673l43.126-74.673h90.985l-45.487-78.801L303.908,74.678z M215.463,227.875l26.581-46.069l26.575,46.069H215.463z
			 M275.538,91.05l-33.494,58.019L208.566,91.05H275.538z M187.088,244.241l-24.204,41.935l-24.204-41.935H187.088z
			 M129.221,227.875l-42.947-74.396l36.056-62.435h67.314l42.941,74.396l-36.028,62.435H129.221z M131.772,74.678l24.215-41.93
			l24.209,41.93H131.772z M43.338,227.875l33.488-58.029l33.494,58.029H43.338z M103.413,91.05l-26.586,46.053L50.246,91.05H103.413
			z"/>
	</g>
</g>
<g>
</g>
<g>
</g>
<g>
</g>
<g>
</g>
<g>
</g>
<g>
</g>
<g>
</g>
<g>
</g>
<g>
</g>
<g>
</g>
<g>
</g>
<g>
</g>
<g>
</g>
<g>
</g>
<g>
</g>
</svg>
