<?xml version="1.0" encoding="iso-8859-1"?>
<!-- Generator: Adobe Illustrator 19.0.0, SVG Export Plug-In . SVG Version: 6.00 Build 0)  -->
<svg version="1.1" id="Capa_1" xmlns="http://www.w3.org/2000/svg" xmlns:xlink="http://www.w3.org/1999/xlink" x="0px" y="0px"
	 viewBox="0 0 512 512" style="enable-background:new 0 0 512 512;" xml:space="preserve">
<g>
	<g>
		<path d="M476.833,165.017c-0.12-8.715-7.529-15.65-16.897-14.684c-1.49,0.192-27.555,3.851-53.429,19.218
			c8.473,3.615,16.538,8.216,23.182,14.854l21.982,21.982c5.14,5.14,9.112,11.021,12.423,17.184
			C477.016,194.73,476.855,166.571,476.833,165.017z"/>
	</g>
</g>
<g>
	<g>
		<path d="M52.064,150.333c-9.205-0.983-16.776,5.886-16.897,14.684c-0.022,1.556-0.176,29.779,12.794,58.652
			c3.348-6.289,7.389-12.288,12.647-17.546l21.674-21.718c6.661-6.645,14.743-11.243,23.232-14.851
			C79.632,154.182,53.554,150.525,52.064,150.333z"/>
	</g>
</g>
<g>
	<g>
		<path d="M430.449,227.606l-21.981-21.981c-17.087-17.087-44.873-17.087-61.961,0l-28.166,28.166l10.331-92.984
			c2.956-26.706-17.983-49.987-44.741-49.987h-55.864c-26.813,0-47.693,23.336-44.741,49.987l10.331,92.97l-28.152-28.152
			c-17.102-17.102-44.902-17.072-61.975,0l-21.703,21.718c-15.564,15.564-17.146,40.417-3.679,57.798l66.826,86.331
			c5.583,7.225,9.584,15.725,11.592,24.606l9.628,42.586C175.823,481.25,213.046,512,256.716,512c42.66,0,79.678-29.9,90.024-71.3
			l11.475-45.87c2.052-8.177,5.656-15.739,10.684-22.466l65.624-87.489C447.521,267.54,445.763,242.921,430.449,227.606z"/>
	</g>
</g>
<g>
	<g>
		<path d="M268.633,4.792c-5.716-6.39-16.677-6.39-22.393,0c-1.077,1.202-20.943,25.097-29.658,57.237
			c3.798-0.593,7.595-1.221,11.486-1.221h55.864v-0.001c4.889,0,9.703,0.604,14.431,1.534
			C289.694,30.039,269.711,5.998,268.633,4.792z"/>
	</g>
</g>
<g>
</g>
<g>
</g>
<g>
</g>
<g>
</g>
<g>
</g>
<g>
</g>
<g>
</g>
<g>
</g>
<g>
</g>
<g>
</g>
<g>
</g>
<g>
</g>
<g>
</g>
<g>
</g>
<g>
</g>
</svg>
