<?xml version="1.0" encoding="UTF-8" standalone="no"?>
<!-- Created with Inkscape (http://www.inkscape.org/) -->

<svg
   xmlns:dc="http://purl.org/dc/elements/1.1/"
   xmlns:cc="http://creativecommons.org/ns#"
   xmlns:rdf="http://www.w3.org/1999/02/22-rdf-syntax-ns#"
   xmlns:svg="http://www.w3.org/2000/svg"
   xmlns="http://www.w3.org/2000/svg"
   xmlns:sodipodi="http://sodipodi.sourceforge.net/DTD/sodipodi-0.dtd"
   xmlns:inkscape="http://www.inkscape.org/namespaces/inkscape"
   id="svg2"
   version="1.1"
   inkscape:version="0.91 r13725"
   width="4104"
   height="4104"
   viewBox="0 0 4104 4104"
   sodipodi:docname="three arrows 1.svg">
  <metadata
     id="metadata8">
    <rdf:RDF>
      <cc:Work
         rdf:about="">
        <dc:format>image/svg+xml</dc:format>
        <dc:type
           rdf:resource="http://purl.org/dc/dcmitype/StillImage" />
        <dc:title></dc:title>
      </cc:Work>
    </rdf:RDF>
  </metadata>
  <defs
     id="defs6" />
  <sodipodi:namedview
     pagecolor="#ffffff"
     bordercolor="#666666"
     borderopacity="1"
     objecttolerance="10"
     gridtolerance="10"
     guidetolerance="10"
     inkscape:pageopacity="0"
     inkscape:pageshadow="2"
     inkscape:window-width="1280"
     inkscape:window-height="961"
     id="namedview4"
     showgrid="false"
     inkscape:zoom="0.17"
     inkscape:cx="1880.0639"
     inkscape:cy="2052"
     inkscape:window-x="-8"
     inkscape:window-y="-8"
     inkscape:window-maximized="1"
     inkscape:current-layer="svg2" />
  <path
     style="fill:#000000"
     d="m 1986.5117,4100.9148 c -168.7402,-5.2429 -339.6148,-32.0112 -501.5064,-78.5635 -168.9988,-48.5959 -334.194,-120.4085 -484.5,-210.6187 -107.76423,-64.6776 -206.45683,-136.6357 -299.97813,-218.7181 -63.9215,-56.103 -133.4933,-125.7079 -189.9444,-190.0345 -269.5893,-307.2 -441.080896,-687.4679 -492.014636,-1091 -46.66892,-369.7433 6.67045,-742.3811 154.740336,-1081.042 28.3776,-64.9044 66.3732,-140.0102 102.1694,-201.958 156.6005,-271.00747 372.8576,-502.84614 632.0274,-677.56565 177.98603,-119.98938 373.19163,-211.11699 578.50003,-270.060473 261.5516,-75.0907696 537.9077,-97.1831 810.5,-64.79263 502.1751,59.67039 965.1853,304.672253 1300.0449,687.918823 267.5943,306.26143 438.1786,685.71213 488.8922,1087.49993 48.6563,385.4882 -11.5232,774.4493 -173.7657,1123.1082 -89.8481,193.0835 -207.6424,368.569 -354.6819,528.3918 -24.4277,26.5514 -87.281,89.4409 -113.5114,113.5768 -147.0283,135.288 -304.3046,243.7645 -480.3196,331.2859 -40.5332,20.1546 -55.776,27.2668 -95.6585,44.6335 -275.6474,120.0295 -576.5907,177.3965 -880.9936,167.9386 z m 134.4936,-349.928 c 250.1212,-10.7439 483.6413,-71.7806 703.4385,-183.8623 192.6321,-98.2294 365.0093,-232.6822 508.7784,-396.843 78.6352,-89.7886 150.508,-192.4676 209.3747,-299.117 14.7754,-26.7687 40.4205,-77.5113 53.9976,-106.842 84.1325,-181.7525 135.806,-380.8598 150.8733,-581.3425 3.5814,-47.6539 4.0375,-62.4526 4.0375,-131 0,-78.0507 -1.3553,-108.7819 -7.5413,-171 -33.773,-339.6857 -169.036,-659.7946 -390.0164,-922.99995 -48.3753,-57.6189 -108.3367,-119.55826 -166.2603,-171.74495 -168.9903,-152.2529 -373.9975,-272.26948 -589.182,-344.92263 -154.9468,-52.31497 -311.0132,-81.18782 -477.5,-88.33925 -28.9874,-1.24515 -109.0126,-1.24515 -138,0 -166.4507,7.14988 -322.5869,36.03565 -477.5,88.33925 -224.2114,75.7009 -433.7752,200.65403 -609.50003,363.41645 -20.1749,18.68667 -66.8465,65.25563 -86.4412,86.25113 -185.2273,198.46865 -319.4394,435.38065 -392.9973,693.72095 -31.3635,110.1509 -51.2484,221.5786 -60.0108,336.279 -3.5666,46.688 -4.0507,62.343 -4.0507,131 0,68.657 0.4841,84.312 4.0507,131 12.2839,160.797 46.7357,316.7931 103.2477,467.5 55.9407,149.1838 135.9109,294.698 232.3192,422.7294 125.3232,166.4308 280.2046,308.9004 455.49853,418.996 167.3723,105.1204 348.2788,179.1208 540.8839,221.2504 91.6278,20.0422 194.5487,33.2848 291,37.4422 26.5778,1.1456 115.597,1.2015 141.5,0.089 z m -372,-468.3768 0,-308.126 92.8842,92.8802 92.8842,92.8802 767.2486,-767.2489 767.2487,-767.2488 122.8672,122.8673 122.8673,122.8673 -766.4997,766.4993 c -421.5748,421.5747 -766.4999,767.1735 -766.5001,767.9974 -2e-4,0.8239 41.2343,42.7345 91.6323,93.1347 l 91.6327,91.6368 -308.1327,-0.01 -308.1327,-0.01 0,-308.1259 z m -617,-310.4633 c -0.6638,-0.2213 -1,-103.7789 -1,-307.9994 l 0,-307.666 92.544,92.544 92.544,92.544 767.2511,-767.2511 767.2511,-767.2511 122.9318,122.9349 122.9318,122.9349 -766.4568,766.4613 c -421.5513,421.5537 -766.6344,766.994 -766.8514,767.645 -0.217,0.6511 40.948,42.5282 91.4779,93.0603 50.5298,50.5321 91.6483,91.9141 91.3745,91.96 -1.628,0.2728 -613.1804,0.3557 -613.998,0.083 z M 512.42777,2353.0692 c -0.2324,-0.2324 -0.4225,-138.8347 -0.4225,-308.0052 l 0,-307.5827 92.6634,92.6634 92.6633,92.6634 766.38493,-766.3848 c 421.5116,-421.51159 766.8658,-766.68205 767.4537,-767.04538 0.5998,-0.37069 54.9452,53.21437 123.8275,122.09498 l 122.7587,122.7556 -766.8758,766.8745 c -421.7816,421.781 -766.87573,767.2116 -766.87573,767.6237 0,0.4121 41.4006,42.1517 92.00133,92.7546 l 92.0013,92.0054 -307.57883,0 c -169.1683,0 -307.7689,-0.1876 -308.0013,-0.42 z"
     id="path3338"
     inkscape:connector-curvature="0" />
</svg>
