<?xml version="1.0" encoding="utf-8"?>
<!-- Generator: Adobe Illustrator 22.0.1, SVG Export Plug-In . SVG Version: 6.00 Build 0)  -->
<svg version="1.1" id="katman_1" xmlns="http://www.w3.org/2000/svg" xmlns:xlink="http://www.w3.org/1999/xlink" x="0px" y="0px"
	 viewBox="0 0 357.6 260.4" style="enable-background:new 0 0 357.6 260.4;" xml:space="preserve">
<style type="text/css">
	.st0{fill:#E30A17;}
</style>
<title>Emblem of Turkey</title>
<g>
	<path class="st0" d="M0,130C0,58.6,57.9,0.7,129.3,0.7c46,0,86.4,24,109.3,60.2c-18.9-21.1-46.4-34.4-77-34.4
		C104.5,26.5,58.2,72.9,58.2,130s46.3,103.5,103.5,103.5c30.6,0,58.1-13.3,77-34.4c-22.9,36.2-63.3,60.2-109.3,60.2
		C57.9,259.3,0,201.4,0,130z"/>
	<polygon class="st0" points="355.6,92 310.9,106.5 283.3,68.5 283.3,115.5 238.7,130 283.3,144.5 283.3,191.5 310.9,153.5 
		355.6,168 328,130 	"/>
</g>
</svg>
