<?xml version="1.0" standalone="no"?>
<!DOCTYPE svg PUBLIC "-//W3C//DTD SVG 20010904//EN"
 "http://www.w3.org/TR/2001/REC-SVG-20010904/DTD/svg10.dtd">
<svg version="1.0" xmlns="http://www.w3.org/2000/svg"
 width="1280.000000pt" height="1237.000000pt" viewBox="0 0 1280.000000 1237.000000"
 preserveAspectRatio="xMidYMid meet">
<metadata>
Created by potrace 1.15, written by Peter Selinger 2001-2017
</metadata>
<g transform="translate(0.000000,1237.000000) scale(0.100000,-0.100000)"
fill="#000000" stroke="none">
<path d="M6760 12364 c-610 -40 -1065 -125 -1570 -293 -889 -296 -1686 -786
-2340 -1441 -614 -614 -1039 -1303 -1310 -2120 -186 -563 -270 -1086 -270
-1695 0 -431 34 -749 122 -1135 201 -889 613 -1651 1238 -2294 819 -842 1880
-1341 3030 -1427 195 -15 609 -6 790 16 760 93 1426 377 1985 847 122 102 363
350 462 475 422 530 671 1144 733 1808 13 143 13 444 -1 598 -34 392 -185 885
-374 1217 -142 251 -258 404 -465 611 -579 579 -1292 821 -2005 678 -129 -26
-371 -107 -494 -165 -273 -129 -510 -342 -657 -590 -194 -328 -217 -706 -61
-1034 81 -171 250 -280 432 -280 73 0 153 19 188 45 18 13 17 16 -17 61 -41
54 -66 127 -66 195 0 53 33 229 57 304 82 256 293 421 633 492 101 21 349 23
449 4 313 -61 566 -202 803 -450 127 -132 207 -248 293 -425 148 -303 207
-561 208 -901 1 -268 -32 -464 -124 -745 -250 -756 -868 -1357 -1699 -1647
-291 -102 -573 -158 -870 -171 -1025 -46 -1904 284 -2670 1002 -796 748 -1230
1769 -1257 2957 -12 518 56 954 228 1479 315 954 834 1704 1594 2301 182 143
184 136 5 -11 -158 -130 -464 -436 -603 -603 -673 -812 -1060 -1702 -1151
-2647 -63 -649 6 -1263 208 -1855 394 -1158 1262 -2038 2378 -2409 956 -318
1946 -201 2738 325 541 360 934 903 1075 1489 93 388 84 775 -25 1102 -203
605 -679 1026 -1220 1077 -280 26 -515 -45 -673 -205 -86 -88 -134 -230 -124
-370 5 -63 36 -154 52 -154 3 0 30 14 59 30 30 17 69 35 88 41 81 24 274 3
428 -47 281 -92 467 -401 487 -806 10 -210 -32 -408 -132 -613 -251 -518 -765
-856 -1425 -940 -160 -21 -469 -16 -615 9 -166 28 -373 95 -566 181 -793 356
-1415 1186 -1589 2120 -60 322 -67 731 -19 1050 57 383 176 755 350 1095 274
538 679 1001 1167 1335 62 42 111 79 109 82 -3 2 -39 -10 -81 -27 -83 -33
-141 -38 -172 -16 -19 15 -18 16 11 72 41 81 244 289 360 369 470 328 991 562
1489 670 149 32 386 70 546 86 163 17 676 18 840 1 955 -98 1715 -362 2434
-845 447 -300 888 -710 1252 -1163 338 -421 672 -1020 876 -1574 196 -529 303
-1005 370 -1640 8 -81 13 -258 13 -505 -1 -384 -9 -513 -51 -814 -97 -695
-325 -1449 -635 -2100 -38 -79 -67 -146 -65 -148 6 -6 219 420 286 572 300
679 475 1350 547 2100 21 224 24 836 5 1055 -78 889 -267 1608 -602 2295 -476
978 -1228 1840 -2110 2420 -765 502 -1628 811 -2540 909 -343 37 -799 47
-1133 26 -532 -34 -1077 -163 -1560 -370 -88 -37 -155 -64 -150 -60 4 5 87 45
183 89 96 45 198 92 225 105 l50 25 -35 0 c-19 1 -73 -8 -120 -20 -47 -11 -96
-17 -109 -14 -23 6 -21 9 40 71 158 160 412 290 835 430 359 118 722 193 1134
236 188 20 820 16 1030 -5 723 -75 1379 -255 2015 -555 606 -285 1122 -631
1641 -1101 28 -25 2 2 -57 60 -664 657 -1565 1199 -2494 1501 -658 213 -1215
305 -1895 312 -173 2 -340 2 -370 0z"/>
<path d="M6529 10379 c-529 -44 -1074 -183 -1564 -399 -306 -135 -772 -547
-1069 -944 -407 -544 -633 -1114 -696 -1755 -15 -153 -12 -543 5 -705 74 -699
336 -1280 779 -1728 489 -495 1162 -765 1791 -718 355 27 681 137 970 328 118
79 277 233 352 342 152 224 235 485 237 745 0 110 -2 128 -32 213 -67 194
-178 334 -335 422 -102 57 -226 52 -359 -16 l-48 -24 30 -43 c144 -205 82
-508 -154 -743 -226 -226 -580 -307 -936 -216 -283 73 -523 214 -735 433 -132
136 -214 252 -302 426 -183 363 -249 784 -187 1201 122 831 669 1560 1459
1947 603 295 1246 395 1910 295 682 -103 1315 -402 1855 -877 1002 -882 1511
-2263 1330 -3612 -83 -620 -235 -1138 -475 -1619 -230 -460 -470 -792 -865
-1196 -451 -460 -899 -786 -1488 -1082 -172 -86 -196 -101 -160 -97 42 4 88
-12 95 -32 5 -15 -125 -121 -230 -190 -183 -119 -413 -212 -848 -345 -480
-146 -854 -202 -1369 -202 -412 -1 -598 18 -1190 123 -1074 191 -2116 706
-3005 1485 -55 48 -91 77 -80 64 37 -43 298 -272 445 -389 933 -749 2071
-1238 3265 -1405 331 -46 519 -60 845 -60 503 -1 888 45 1365 164 925 230
1735 642 2455 1247 160 134 481 459 626 633 322 385 561 756 780 1205 161 332
231 509 319 815 152 526 215 973 216 1521 1 278 -6 392 -37 634 -139 1103
-695 2180 -1513 2932 -800 736 -1689 1136 -2716 1223 -138 11 -594 11 -736 -1z"/>
<path d="M690 9738 c-167 -342 -260 -572 -371 -917 -310 -969 -398 -2046 -244
-2995 356 -2197 1759 -3957 3774 -4736 747 -289 1611 -430 2398 -392 376 18
702 60 1031 132 218 49 272 66 444 141 1027 451 1747 1041 2327 1907 234 350
414 713 540 1092 109 323 169 601 213 985 20 175 17 794 -5 975 -109 897 -445
1644 -1032 2294 -247 273 -512 491 -825 678 -722 433 -1542 602 -2310 477
-613 -100 -1127 -363 -1560 -798 -149 -149 -233 -252 -346 -421 -161 -243
-278 -513 -342 -790 -41 -178 -47 -232 -47 -450 1 -178 4 -235 22 -330 74
-387 245 -716 501 -962 330 -316 766 -454 1115 -353 145 42 220 86 317 184
166 168 206 321 129 485 -12 26 -26 46 -33 46 -6 0 -28 -12 -49 -26 -60 -41
-163 -74 -247 -81 -271 -21 -569 186 -687 477 -91 223 -111 503 -54 745 154
648 746 1131 1491 1216 149 17 452 7 605 -20 393 -69 808 -242 1090 -454 576
-434 951 -1028 1094 -1735 56 -273 65 -371 65 -682 0 -244 -3 -305 -22 -427
-112 -718 -414 -1346 -928 -1933 -149 -170 -421 -427 -584 -550 -25 -18 -49
-38 -55 -42 -13 -12 90 0 128 14 18 7 31 7 40 0 6 -5 19 -11 28 -13 23 -5 -50
-101 -190 -250 -443 -470 -1152 -789 -2041 -918 -417 -61 -922 -52 -1397 24
-573 92 -1089 268 -1606 546 -891 481 -1561 1120 -2094 1999 -142 235 -231
405 -346 665 -267 606 -428 1235 -504 1970 -24 233 -24 776 1 1030 79 836 276
1548 640 2318 30 64 53 117 50 117 -3 0 -59 -109 -124 -242z"/>
</g>
</svg>
