<svg height="512pt" viewBox="0 -39 512 511" width="512pt" xmlns="http://www.w3.org/2000/svg"><path d="m24.320312 76.652344 90.007813 60-16.640625 24.960937-90.007812-60zm0 0"/><path d="m121 44.125h30v60h-30zm0 0"/><path d="m31 194.125h60v30h-60zm0 0"/><path d="m397.699219 136.648438 90.007812-60 16.640625 24.964843-90.007812 60zm0 0"/><path d="m361 44.125h30v60h-30zm0 0"/><path d="m421 194.125h60v30h-60zm0 0"/><path d="m0 434.125h512l-256-433.625zm256-120c-58.652344 0-110.582031-42.964844-129.300781-60.484375 12.363281-8.828125 37.992187-32.085937 72.132812-46.777344-1.667969 5.5-2.832031 11.222657-2.832031 17.261719 0 33.089844 26.90625 60 60 60 33.089844 0 60-26.910156 60-60 0-6.042969-1.164062-11.761719-2.835938-17.261719 34.144532 14.691407 59.769532 37.949219 72.136719 46.777344-18.71875 17.519531-70.648437 60.484375-129.300781 60.484375zm0 0"/></svg>