<?xml version="1.0" standalone="no"?>
<!DOCTYPE svg PUBLIC "-//W3C//DTD SVG 20010904//EN"
 "http://www.w3.org/TR/2001/REC-SVG-20010904/DTD/svg10.dtd">
<svg version="1.0" xmlns="http://www.w3.org/2000/svg"
 width="1144.000000pt" height="1280.000000pt" viewBox="0 0 1144.000000 1280.000000"
 preserveAspectRatio="xMidYMid meet">
<metadata>
Created by potrace 1.15, written by Peter Selinger 2001-2017
</metadata>
<g transform="translate(0.000000,1280.000000) scale(0.100000,-0.100000)"
fill="#000000" stroke="none">
<path d="M5565 12507 c-104 -161 -497 -764 -873 -1342 -376 -577 -686 -1056
-689 -1062 -4 -10 128 -13 623 -15 l629 -3 0 -2865 0 -2865 -412 -3 -412 -2
-11 42 c-157 614 -527 1845 -735 2448 -174 502 -226 648 -305 865 -256 697
-456 1176 -675 1620 -134 272 -249 471 -350 607 l-64 87 62 5 c98 9 738 46
801 46 31 0 56 4 56 10 0 16 -467 480 -617 612 -739 652 -1470 1087 -2144
1278 -135 38 -377 90 -420 90 -16 0 5 -27 93 -118 380 -395 829 -1025 1220
-1712 1035 -1820 1836 -4194 2334 -6917 l28 -153 775 -2 776 -3 3 -1577 2
-1578 555 0 555 0 2 1578 3 1577 681 3 680 2 28 153 c472 2580 1227 4878 2181
6642 441 815 941 1538 1373 1987 88 91 109 118 93 118 -43 0 -285 -52 -420
-90 -675 -191 -1405 -626 -2144 -1278 -150 -132 -617 -596 -617 -612 0 -6 25
-10 56 -10 63 0 703 -37 801 -46 l62 -5 -63 -82 c-482 -628 -986 -1906 -1501
-3807 -117 -429 -455 -1751 -455 -1776 0 -2 -170 -3 -377 -2 l-378 3 -3 2862
-2 2863 544 2 544 3 -848 1354 c-467 744 -850 1355 -852 1356 -2 2 -88 -128
-193 -288z"/>
</g>
</svg>
