<?xml version="1.0" encoding="iso-8859-1"?>
<!-- Generator: Adobe Illustrator 19.0.0, SVG Export Plug-In . SVG Version: 6.00 Build 0)  -->
<svg version="1.1" id="Layer_1" xmlns="http://www.w3.org/2000/svg" xmlns:xlink="http://www.w3.org/1999/xlink" x="0px" y="0px"
	 viewBox="0 0 512 512" style="enable-background:new 0 0 512 512;" xml:space="preserve">
<g>
	<g>
		<g>
			<path d="M255.048,242.252c0.315-0.022,0.632-0.032,0.952-0.032c66.78,0,121.11-54.33,121.11-121.108
				c0-66.781-54.33-121.111-121.11-121.111c-141.16,0-256,114.842-256,256c0,99.68,57.272,186.228,140.634,228.489
				c-20.788-25.573-33.268-58.156-33.268-93.604C107.366,309.248,173.53,242.771,255.048,242.252z M259.881,84.486
				c21.016,0,38.054,17.036,38.054,38.054c0,21.016-17.039,38.054-38.054,38.054c-21.016,0-38.054-17.037-38.054-38.054
				C221.828,101.522,238.865,84.486,259.881,84.486z"/>
			<path d="M371.376,27.518c20.784,25.572,33.26,58.15,33.26,93.593c0,81.637-66.165,148.113-147.683,148.631
				c-0.315,0.022-0.632,0.032-0.952,0.032c-66.78,0-121.108,54.331-121.108,121.111S189.222,511.993,256,511.993
				c0.036,0,0.07,0.006,0.106,0.006C397.216,511.941,512,397.124,512,256C512,156.325,454.732,69.781,371.376,27.518z
				 M259.881,429.755c-21.016,0-38.054-17.037-38.054-38.054s17.037-38.052,38.054-38.052c21.016,0,38.054,17.036,38.054,38.052
				S280.897,429.755,259.881,429.755z"/>
		</g>
	</g>
</g>
<g>
</g>
<g>
</g>
<g>
</g>
<g>
</g>
<g>
</g>
<g>
</g>
<g>
</g>
<g>
</g>
<g>
</g>
<g>
</g>
<g>
</g>
<g>
</g>
<g>
</g>
<g>
</g>
<g>
</g>
</svg>
